M48
; DRILL file {KiCad (7.0.0)} date Tue Mar 21 01:36:38 2023
; FORMAT={-:-/ absolute / inch / decimal}
; #@! TF.CreationDate,2023-03-21T01:36:38+00:00
; #@! TF.GenerationSoftware,Kicad,Pcbnew,(7.0.0)
; #@! TF.FileFunction,Plated,1,2,PTH
FMAT,2
INCH
; #@! TA.AperFunction,Plated,PTH,ViaDrill
T1C0.0118
; #@! TA.AperFunction,Plated,PTH,ComponentDrill
T2C0.0276
; #@! TA.AperFunction,Plated,PTH,ComponentDrill
T3C0.0394
%
G90
G05
T1
X0.6969Y-0.7047
X0.7441Y-1.2087
X1.0728Y-1.2087
X1.2736Y-1.2165
X1.3543Y-1.2486
X1.3543Y-0.5846
X1.4783Y-0.5472
X1.4783Y-0.7283
X1.4862Y-0.6378
X1.5251Y-0.5694
X1.5251Y-0.7047
X1.5827Y-0.6161
T2
X0.7602Y-0.7343
X0.7953Y-1.1555
X0.8303Y-0.7343
X0.8654Y-1.1555
X0.9004Y-0.7343
X0.9354Y-1.1555
X0.9705Y-0.7343
X1.0055Y-1.1555
X1.0406Y-0.7343
X1.0756Y-1.1555
X1.1106Y-0.7343
X1.1457Y-1.1555
X1.1807Y-0.7343
X1.2157Y-1.1555
X1.2508Y-0.7343
X1.2858Y-1.1555
T3
X0.713Y-1.3169
X0.813Y-1.3169
X0.913Y-1.3169
X1.013Y-1.3169
X1.113Y-1.3169
X1.213Y-1.3169
X1.313Y-1.3169
X1.413Y-1.3169
T0
M30
