%TF.GenerationSoftware,KiCad,Pcbnew,(7.0.0)*%
%TF.CreationDate,2023-03-21T21:12:12+00:00*%
%TF.ProjectId,Ogen,4f67656e-2e6b-4696-9361-645f70636258,rev?*%
%TF.SameCoordinates,Original*%
%TF.FileFunction,Legend,Top*%
%TF.FilePolarity,Positive*%
%FSLAX46Y46*%
G04 Gerber Fmt 4.6, Leading zero omitted, Abs format (unit mm)*
G04 Created by KiCad (PCBNEW (7.0.0)) date 2023-03-21 21:12:12*
%MOMM*%
%LPD*%
G01*
G04 APERTURE LIST*
%ADD10C,0.120000*%
%ADD11C,0.125000*%
%ADD12R,1.700000X1.700000*%
%ADD13O,1.700000X1.700000*%
%ADD14R,1.200000X1.200000*%
%ADD15C,1.200000*%
%ADD16C,4.400000*%
G04 APERTURE END LIST*
D10*
G36*
X37322001Y-30516002D02*
G01*
X36321999Y-29516003D01*
X37322001Y-28516002D01*
X37322001Y-30516002D01*
G37*
X37322001Y-30516002D02*
X36321999Y-29516003D01*
X37322001Y-28516002D01*
X37322001Y-30516002D01*
D11*
X22011428Y-32125535D02*
X22011428Y-31375535D01*
X22011428Y-31375535D02*
X22261428Y-31911250D01*
X22261428Y-31911250D02*
X22511428Y-31375535D01*
X22511428Y-31375535D02*
X22511428Y-32125535D01*
X23011428Y-31375535D02*
X23154285Y-31375535D01*
X23154285Y-31375535D02*
X23225714Y-31411250D01*
X23225714Y-31411250D02*
X23297142Y-31482678D01*
X23297142Y-31482678D02*
X23332857Y-31625535D01*
X23332857Y-31625535D02*
X23332857Y-31875535D01*
X23332857Y-31875535D02*
X23297142Y-32018392D01*
X23297142Y-32018392D02*
X23225714Y-32089821D01*
X23225714Y-32089821D02*
X23154285Y-32125535D01*
X23154285Y-32125535D02*
X23011428Y-32125535D01*
X23011428Y-32125535D02*
X22940000Y-32089821D01*
X22940000Y-32089821D02*
X22868571Y-32018392D01*
X22868571Y-32018392D02*
X22832857Y-31875535D01*
X22832857Y-31875535D02*
X22832857Y-31625535D01*
X22832857Y-31625535D02*
X22868571Y-31482678D01*
X22868571Y-31482678D02*
X22940000Y-31411250D01*
X22940000Y-31411250D02*
X23011428Y-31375535D01*
X23547142Y-31375535D02*
X23975714Y-31375535D01*
X23761428Y-32125535D02*
X23761428Y-31375535D01*
X27127143Y-32089821D02*
X27234286Y-32125535D01*
X27234286Y-32125535D02*
X27412857Y-32125535D01*
X27412857Y-32125535D02*
X27484286Y-32089821D01*
X27484286Y-32089821D02*
X27520000Y-32054107D01*
X27520000Y-32054107D02*
X27555714Y-31982678D01*
X27555714Y-31982678D02*
X27555714Y-31911250D01*
X27555714Y-31911250D02*
X27520000Y-31839821D01*
X27520000Y-31839821D02*
X27484286Y-31804107D01*
X27484286Y-31804107D02*
X27412857Y-31768392D01*
X27412857Y-31768392D02*
X27270000Y-31732678D01*
X27270000Y-31732678D02*
X27198571Y-31696964D01*
X27198571Y-31696964D02*
X27162857Y-31661250D01*
X27162857Y-31661250D02*
X27127143Y-31589821D01*
X27127143Y-31589821D02*
X27127143Y-31518392D01*
X27127143Y-31518392D02*
X27162857Y-31446964D01*
X27162857Y-31446964D02*
X27198571Y-31411250D01*
X27198571Y-31411250D02*
X27270000Y-31375535D01*
X27270000Y-31375535D02*
X27448571Y-31375535D01*
X27448571Y-31375535D02*
X27555714Y-31411250D01*
X28305714Y-32054107D02*
X28270000Y-32089821D01*
X28270000Y-32089821D02*
X28162857Y-32125535D01*
X28162857Y-32125535D02*
X28091429Y-32125535D01*
X28091429Y-32125535D02*
X27984286Y-32089821D01*
X27984286Y-32089821D02*
X27912857Y-32018392D01*
X27912857Y-32018392D02*
X27877143Y-31946964D01*
X27877143Y-31946964D02*
X27841429Y-31804107D01*
X27841429Y-31804107D02*
X27841429Y-31696964D01*
X27841429Y-31696964D02*
X27877143Y-31554107D01*
X27877143Y-31554107D02*
X27912857Y-31482678D01*
X27912857Y-31482678D02*
X27984286Y-31411250D01*
X27984286Y-31411250D02*
X28091429Y-31375535D01*
X28091429Y-31375535D02*
X28162857Y-31375535D01*
X28162857Y-31375535D02*
X28270000Y-31411250D01*
X28270000Y-31411250D02*
X28305714Y-31446964D01*
X28984286Y-32125535D02*
X28627143Y-32125535D01*
X28627143Y-32125535D02*
X28627143Y-31375535D01*
X29560000Y-32125535D02*
X29560000Y-31375535D01*
X29560000Y-31375535D02*
X29810000Y-31911250D01*
X29810000Y-31911250D02*
X30060000Y-31375535D01*
X30060000Y-31375535D02*
X30060000Y-32125535D01*
X30560000Y-31375535D02*
X30702857Y-31375535D01*
X30702857Y-31375535D02*
X30774286Y-31411250D01*
X30774286Y-31411250D02*
X30845714Y-31482678D01*
X30845714Y-31482678D02*
X30881429Y-31625535D01*
X30881429Y-31625535D02*
X30881429Y-31875535D01*
X30881429Y-31875535D02*
X30845714Y-32018392D01*
X30845714Y-32018392D02*
X30774286Y-32089821D01*
X30774286Y-32089821D02*
X30702857Y-32125535D01*
X30702857Y-32125535D02*
X30560000Y-32125535D01*
X30560000Y-32125535D02*
X30488572Y-32089821D01*
X30488572Y-32089821D02*
X30417143Y-32018392D01*
X30417143Y-32018392D02*
X30381429Y-31875535D01*
X30381429Y-31875535D02*
X30381429Y-31625535D01*
X30381429Y-31625535D02*
X30417143Y-31482678D01*
X30417143Y-31482678D02*
X30488572Y-31411250D01*
X30488572Y-31411250D02*
X30560000Y-31375535D01*
X31167143Y-32089821D02*
X31274286Y-32125535D01*
X31274286Y-32125535D02*
X31452857Y-32125535D01*
X31452857Y-32125535D02*
X31524286Y-32089821D01*
X31524286Y-32089821D02*
X31560000Y-32054107D01*
X31560000Y-32054107D02*
X31595714Y-31982678D01*
X31595714Y-31982678D02*
X31595714Y-31911250D01*
X31595714Y-31911250D02*
X31560000Y-31839821D01*
X31560000Y-31839821D02*
X31524286Y-31804107D01*
X31524286Y-31804107D02*
X31452857Y-31768392D01*
X31452857Y-31768392D02*
X31310000Y-31732678D01*
X31310000Y-31732678D02*
X31238571Y-31696964D01*
X31238571Y-31696964D02*
X31202857Y-31661250D01*
X31202857Y-31661250D02*
X31167143Y-31589821D01*
X31167143Y-31589821D02*
X31167143Y-31518392D01*
X31167143Y-31518392D02*
X31202857Y-31446964D01*
X31202857Y-31446964D02*
X31238571Y-31411250D01*
X31238571Y-31411250D02*
X31310000Y-31375535D01*
X31310000Y-31375535D02*
X31488571Y-31375535D01*
X31488571Y-31375535D02*
X31595714Y-31411250D01*
X24908571Y-32089821D02*
X25015714Y-32125535D01*
X25015714Y-32125535D02*
X25194285Y-32125535D01*
X25194285Y-32125535D02*
X25265714Y-32089821D01*
X25265714Y-32089821D02*
X25301428Y-32054107D01*
X25301428Y-32054107D02*
X25337142Y-31982678D01*
X25337142Y-31982678D02*
X25337142Y-31911250D01*
X25337142Y-31911250D02*
X25301428Y-31839821D01*
X25301428Y-31839821D02*
X25265714Y-31804107D01*
X25265714Y-31804107D02*
X25194285Y-31768392D01*
X25194285Y-31768392D02*
X25051428Y-31732678D01*
X25051428Y-31732678D02*
X24979999Y-31696964D01*
X24979999Y-31696964D02*
X24944285Y-31661250D01*
X24944285Y-31661250D02*
X24908571Y-31589821D01*
X24908571Y-31589821D02*
X24908571Y-31518392D01*
X24908571Y-31518392D02*
X24944285Y-31446964D01*
X24944285Y-31446964D02*
X24979999Y-31411250D01*
X24979999Y-31411250D02*
X25051428Y-31375535D01*
X25051428Y-31375535D02*
X25229999Y-31375535D01*
X25229999Y-31375535D02*
X25337142Y-31411250D01*
X25622857Y-32089821D02*
X25730000Y-32125535D01*
X25730000Y-32125535D02*
X25908571Y-32125535D01*
X25908571Y-32125535D02*
X25980000Y-32089821D01*
X25980000Y-32089821D02*
X26015714Y-32054107D01*
X26015714Y-32054107D02*
X26051428Y-31982678D01*
X26051428Y-31982678D02*
X26051428Y-31911250D01*
X26051428Y-31911250D02*
X26015714Y-31839821D01*
X26015714Y-31839821D02*
X25980000Y-31804107D01*
X25980000Y-31804107D02*
X25908571Y-31768392D01*
X25908571Y-31768392D02*
X25765714Y-31732678D01*
X25765714Y-31732678D02*
X25694285Y-31696964D01*
X25694285Y-31696964D02*
X25658571Y-31661250D01*
X25658571Y-31661250D02*
X25622857Y-31589821D01*
X25622857Y-31589821D02*
X25622857Y-31518392D01*
X25622857Y-31518392D02*
X25658571Y-31446964D01*
X25658571Y-31446964D02*
X25694285Y-31411250D01*
X25694285Y-31411250D02*
X25765714Y-31375535D01*
X25765714Y-31375535D02*
X25944285Y-31375535D01*
X25944285Y-31375535D02*
X26051428Y-31411250D01*
X15939286Y-16375535D02*
X16082143Y-16375535D01*
X16082143Y-16375535D02*
X16153572Y-16411250D01*
X16153572Y-16411250D02*
X16225000Y-16482678D01*
X16225000Y-16482678D02*
X16260715Y-16625535D01*
X16260715Y-16625535D02*
X16260715Y-16875535D01*
X16260715Y-16875535D02*
X16225000Y-17018392D01*
X16225000Y-17018392D02*
X16153572Y-17089821D01*
X16153572Y-17089821D02*
X16082143Y-17125535D01*
X16082143Y-17125535D02*
X15939286Y-17125535D01*
X15939286Y-17125535D02*
X15867858Y-17089821D01*
X15867858Y-17089821D02*
X15796429Y-17018392D01*
X15796429Y-17018392D02*
X15760715Y-16875535D01*
X15760715Y-16875535D02*
X15760715Y-16625535D01*
X15760715Y-16625535D02*
X15796429Y-16482678D01*
X15796429Y-16482678D02*
X15867858Y-16411250D01*
X15867858Y-16411250D02*
X15939286Y-16375535D01*
X16903572Y-16625535D02*
X16903572Y-17232678D01*
X16903572Y-17232678D02*
X16867857Y-17304107D01*
X16867857Y-17304107D02*
X16832143Y-17339821D01*
X16832143Y-17339821D02*
X16760714Y-17375535D01*
X16760714Y-17375535D02*
X16653572Y-17375535D01*
X16653572Y-17375535D02*
X16582143Y-17339821D01*
X16903572Y-17089821D02*
X16832143Y-17125535D01*
X16832143Y-17125535D02*
X16689286Y-17125535D01*
X16689286Y-17125535D02*
X16617857Y-17089821D01*
X16617857Y-17089821D02*
X16582143Y-17054107D01*
X16582143Y-17054107D02*
X16546429Y-16982678D01*
X16546429Y-16982678D02*
X16546429Y-16768392D01*
X16546429Y-16768392D02*
X16582143Y-16696964D01*
X16582143Y-16696964D02*
X16617857Y-16661250D01*
X16617857Y-16661250D02*
X16689286Y-16625535D01*
X16689286Y-16625535D02*
X16832143Y-16625535D01*
X16832143Y-16625535D02*
X16903572Y-16661250D01*
X17546428Y-17089821D02*
X17475000Y-17125535D01*
X17475000Y-17125535D02*
X17332143Y-17125535D01*
X17332143Y-17125535D02*
X17260714Y-17089821D01*
X17260714Y-17089821D02*
X17225000Y-17018392D01*
X17225000Y-17018392D02*
X17225000Y-16732678D01*
X17225000Y-16732678D02*
X17260714Y-16661250D01*
X17260714Y-16661250D02*
X17332143Y-16625535D01*
X17332143Y-16625535D02*
X17475000Y-16625535D01*
X17475000Y-16625535D02*
X17546428Y-16661250D01*
X17546428Y-16661250D02*
X17582143Y-16732678D01*
X17582143Y-16732678D02*
X17582143Y-16804107D01*
X17582143Y-16804107D02*
X17225000Y-16875535D01*
X17903571Y-16625535D02*
X17903571Y-17125535D01*
X17903571Y-16696964D02*
X17939285Y-16661250D01*
X17939285Y-16661250D02*
X18010714Y-16625535D01*
X18010714Y-16625535D02*
X18117857Y-16625535D01*
X18117857Y-16625535D02*
X18189285Y-16661250D01*
X18189285Y-16661250D02*
X18225000Y-16732678D01*
X18225000Y-16732678D02*
X18225000Y-17125535D01*
X18924999Y-16375535D02*
X19174999Y-17125535D01*
X19174999Y-17125535D02*
X19424999Y-16375535D01*
X20067856Y-17125535D02*
X19639285Y-17125535D01*
X19853570Y-17125535D02*
X19853570Y-16375535D01*
X19853570Y-16375535D02*
X19782142Y-16482678D01*
X19782142Y-16482678D02*
X19710713Y-16554107D01*
X19710713Y-16554107D02*
X19639285Y-16589821D01*
X20389285Y-17054107D02*
X20424999Y-17089821D01*
X20424999Y-17089821D02*
X20389285Y-17125535D01*
X20389285Y-17125535D02*
X20353571Y-17089821D01*
X20353571Y-17089821D02*
X20389285Y-17054107D01*
X20389285Y-17054107D02*
X20389285Y-17125535D01*
X20710714Y-16446964D02*
X20746428Y-16411250D01*
X20746428Y-16411250D02*
X20817857Y-16375535D01*
X20817857Y-16375535D02*
X20996428Y-16375535D01*
X20996428Y-16375535D02*
X21067857Y-16411250D01*
X21067857Y-16411250D02*
X21103571Y-16446964D01*
X21103571Y-16446964D02*
X21139285Y-16518392D01*
X21139285Y-16518392D02*
X21139285Y-16589821D01*
X21139285Y-16589821D02*
X21103571Y-16696964D01*
X21103571Y-16696964D02*
X20674999Y-17125535D01*
X20674999Y-17125535D02*
X21139285Y-17125535D01*
X37786285Y-27826535D02*
X38214857Y-27826535D01*
X38000571Y-28576535D02*
X38000571Y-27826535D01*
X38464857Y-28576535D02*
X38464857Y-27826535D01*
X38786286Y-28576535D02*
X38786286Y-28183678D01*
X38786286Y-28183678D02*
X38750571Y-28112250D01*
X38750571Y-28112250D02*
X38679143Y-28076535D01*
X38679143Y-28076535D02*
X38572000Y-28076535D01*
X38572000Y-28076535D02*
X38500571Y-28112250D01*
X38500571Y-28112250D02*
X38464857Y-28147964D01*
X39143428Y-28576535D02*
X39143428Y-28076535D01*
X39143428Y-27826535D02*
X39107714Y-27862250D01*
X39107714Y-27862250D02*
X39143428Y-27897964D01*
X39143428Y-27897964D02*
X39179142Y-27862250D01*
X39179142Y-27862250D02*
X39143428Y-27826535D01*
X39143428Y-27826535D02*
X39143428Y-27897964D01*
X39464857Y-28540821D02*
X39536285Y-28576535D01*
X39536285Y-28576535D02*
X39679142Y-28576535D01*
X39679142Y-28576535D02*
X39750571Y-28540821D01*
X39750571Y-28540821D02*
X39786285Y-28469392D01*
X39786285Y-28469392D02*
X39786285Y-28433678D01*
X39786285Y-28433678D02*
X39750571Y-28362250D01*
X39750571Y-28362250D02*
X39679142Y-28326535D01*
X39679142Y-28326535D02*
X39572000Y-28326535D01*
X39572000Y-28326535D02*
X39500571Y-28290821D01*
X39500571Y-28290821D02*
X39464857Y-28219392D01*
X39464857Y-28219392D02*
X39464857Y-28183678D01*
X39464857Y-28183678D02*
X39500571Y-28112250D01*
X39500571Y-28112250D02*
X39572000Y-28076535D01*
X39572000Y-28076535D02*
X39679142Y-28076535D01*
X39679142Y-28076535D02*
X39750571Y-28112250D01*
X37875571Y-29041535D02*
X38054143Y-29791535D01*
X38054143Y-29791535D02*
X38197000Y-29255821D01*
X38197000Y-29255821D02*
X38339857Y-29791535D01*
X38339857Y-29791535D02*
X38518429Y-29041535D01*
X39125572Y-29791535D02*
X39125572Y-29398678D01*
X39125572Y-29398678D02*
X39089857Y-29327250D01*
X39089857Y-29327250D02*
X39018429Y-29291535D01*
X39018429Y-29291535D02*
X38875572Y-29291535D01*
X38875572Y-29291535D02*
X38804143Y-29327250D01*
X39125572Y-29755821D02*
X39054143Y-29791535D01*
X39054143Y-29791535D02*
X38875572Y-29791535D01*
X38875572Y-29791535D02*
X38804143Y-29755821D01*
X38804143Y-29755821D02*
X38768429Y-29684392D01*
X38768429Y-29684392D02*
X38768429Y-29612964D01*
X38768429Y-29612964D02*
X38804143Y-29541535D01*
X38804143Y-29541535D02*
X38875572Y-29505821D01*
X38875572Y-29505821D02*
X39054143Y-29505821D01*
X39054143Y-29505821D02*
X39125572Y-29470107D01*
X39411285Y-29291535D02*
X39589857Y-29791535D01*
X39768428Y-29291535D02*
X39589857Y-29791535D01*
X39589857Y-29791535D02*
X39518428Y-29970107D01*
X39518428Y-29970107D02*
X39482714Y-30005821D01*
X39482714Y-30005821D02*
X39411285Y-30041535D01*
X38268429Y-30256535D02*
X38268429Y-30863678D01*
X38268429Y-30863678D02*
X38304143Y-30935107D01*
X38304143Y-30935107D02*
X38339858Y-30970821D01*
X38339858Y-30970821D02*
X38411286Y-31006535D01*
X38411286Y-31006535D02*
X38554143Y-31006535D01*
X38554143Y-31006535D02*
X38625572Y-30970821D01*
X38625572Y-30970821D02*
X38661286Y-30935107D01*
X38661286Y-30935107D02*
X38697000Y-30863678D01*
X38697000Y-30863678D02*
X38697000Y-30256535D01*
X39054143Y-30506535D02*
X39054143Y-31256535D01*
X39054143Y-30542250D02*
X39125572Y-30506535D01*
X39125572Y-30506535D02*
X39268429Y-30506535D01*
X39268429Y-30506535D02*
X39339857Y-30542250D01*
X39339857Y-30542250D02*
X39375572Y-30577964D01*
X39375572Y-30577964D02*
X39411286Y-30649392D01*
X39411286Y-30649392D02*
X39411286Y-30863678D01*
X39411286Y-30863678D02*
X39375572Y-30935107D01*
X39375572Y-30935107D02*
X39339857Y-30970821D01*
X39339857Y-30970821D02*
X39268429Y-31006535D01*
X39268429Y-31006535D02*
X39125572Y-31006535D01*
X39125572Y-31006535D02*
X39054143Y-30970821D01*
X34640000Y-31375535D02*
X34890000Y-32125535D01*
X34890000Y-32125535D02*
X35140000Y-31375535D01*
X35818571Y-32054107D02*
X35782857Y-32089821D01*
X35782857Y-32089821D02*
X35675714Y-32125535D01*
X35675714Y-32125535D02*
X35604286Y-32125535D01*
X35604286Y-32125535D02*
X35497143Y-32089821D01*
X35497143Y-32089821D02*
X35425714Y-32018392D01*
X35425714Y-32018392D02*
X35390000Y-31946964D01*
X35390000Y-31946964D02*
X35354286Y-31804107D01*
X35354286Y-31804107D02*
X35354286Y-31696964D01*
X35354286Y-31696964D02*
X35390000Y-31554107D01*
X35390000Y-31554107D02*
X35425714Y-31482678D01*
X35425714Y-31482678D02*
X35497143Y-31411250D01*
X35497143Y-31411250D02*
X35604286Y-31375535D01*
X35604286Y-31375535D02*
X35675714Y-31375535D01*
X35675714Y-31375535D02*
X35782857Y-31411250D01*
X35782857Y-31411250D02*
X35818571Y-31446964D01*
X36568571Y-32054107D02*
X36532857Y-32089821D01*
X36532857Y-32089821D02*
X36425714Y-32125535D01*
X36425714Y-32125535D02*
X36354286Y-32125535D01*
X36354286Y-32125535D02*
X36247143Y-32089821D01*
X36247143Y-32089821D02*
X36175714Y-32018392D01*
X36175714Y-32018392D02*
X36140000Y-31946964D01*
X36140000Y-31946964D02*
X36104286Y-31804107D01*
X36104286Y-31804107D02*
X36104286Y-31696964D01*
X36104286Y-31696964D02*
X36140000Y-31554107D01*
X36140000Y-31554107D02*
X36175714Y-31482678D01*
X36175714Y-31482678D02*
X36247143Y-31411250D01*
X36247143Y-31411250D02*
X36354286Y-31375535D01*
X36354286Y-31375535D02*
X36425714Y-31375535D01*
X36425714Y-31375535D02*
X36532857Y-31411250D01*
X36532857Y-31411250D02*
X36568571Y-31446964D01*
X32314285Y-32125535D02*
X32314285Y-31375535D01*
X32314285Y-31375535D02*
X32564285Y-31911250D01*
X32564285Y-31911250D02*
X32814285Y-31375535D01*
X32814285Y-31375535D02*
X32814285Y-32125535D01*
X33171428Y-32125535D02*
X33171428Y-31375535D01*
X33492857Y-32089821D02*
X33600000Y-32125535D01*
X33600000Y-32125535D02*
X33778571Y-32125535D01*
X33778571Y-32125535D02*
X33850000Y-32089821D01*
X33850000Y-32089821D02*
X33885714Y-32054107D01*
X33885714Y-32054107D02*
X33921428Y-31982678D01*
X33921428Y-31982678D02*
X33921428Y-31911250D01*
X33921428Y-31911250D02*
X33885714Y-31839821D01*
X33885714Y-31839821D02*
X33850000Y-31804107D01*
X33850000Y-31804107D02*
X33778571Y-31768392D01*
X33778571Y-31768392D02*
X33635714Y-31732678D01*
X33635714Y-31732678D02*
X33564285Y-31696964D01*
X33564285Y-31696964D02*
X33528571Y-31661250D01*
X33528571Y-31661250D02*
X33492857Y-31589821D01*
X33492857Y-31589821D02*
X33492857Y-31518392D01*
X33492857Y-31518392D02*
X33528571Y-31446964D01*
X33528571Y-31446964D02*
X33564285Y-31411250D01*
X33564285Y-31411250D02*
X33635714Y-31375535D01*
X33635714Y-31375535D02*
X33814285Y-31375535D01*
X33814285Y-31375535D02*
X33921428Y-31411250D01*
X19828571Y-31411250D02*
X19757143Y-31375535D01*
X19757143Y-31375535D02*
X19650000Y-31375535D01*
X19650000Y-31375535D02*
X19542857Y-31411250D01*
X19542857Y-31411250D02*
X19471428Y-31482678D01*
X19471428Y-31482678D02*
X19435714Y-31554107D01*
X19435714Y-31554107D02*
X19400000Y-31696964D01*
X19400000Y-31696964D02*
X19400000Y-31804107D01*
X19400000Y-31804107D02*
X19435714Y-31946964D01*
X19435714Y-31946964D02*
X19471428Y-32018392D01*
X19471428Y-32018392D02*
X19542857Y-32089821D01*
X19542857Y-32089821D02*
X19650000Y-32125535D01*
X19650000Y-32125535D02*
X19721428Y-32125535D01*
X19721428Y-32125535D02*
X19828571Y-32089821D01*
X19828571Y-32089821D02*
X19864285Y-32054107D01*
X19864285Y-32054107D02*
X19864285Y-31804107D01*
X19864285Y-31804107D02*
X19721428Y-31804107D01*
X20185714Y-32125535D02*
X20185714Y-31375535D01*
X20185714Y-31375535D02*
X20614285Y-32125535D01*
X20614285Y-32125535D02*
X20614285Y-31375535D01*
X20971428Y-32125535D02*
X20971428Y-31375535D01*
X20971428Y-31375535D02*
X21149999Y-31375535D01*
X21149999Y-31375535D02*
X21257142Y-31411250D01*
X21257142Y-31411250D02*
X21328571Y-31482678D01*
X21328571Y-31482678D02*
X21364285Y-31554107D01*
X21364285Y-31554107D02*
X21399999Y-31696964D01*
X21399999Y-31696964D02*
X21399999Y-31804107D01*
X21399999Y-31804107D02*
X21364285Y-31946964D01*
X21364285Y-31946964D02*
X21328571Y-32018392D01*
X21328571Y-32018392D02*
X21257142Y-32089821D01*
X21257142Y-32089821D02*
X21149999Y-32125535D01*
X21149999Y-32125535D02*
X20971428Y-32125535D01*
X17395714Y-32125535D02*
X17145714Y-31768392D01*
X16967143Y-32125535D02*
X16967143Y-31375535D01*
X16967143Y-31375535D02*
X17252857Y-31375535D01*
X17252857Y-31375535D02*
X17324286Y-31411250D01*
X17324286Y-31411250D02*
X17360000Y-31446964D01*
X17360000Y-31446964D02*
X17395714Y-31518392D01*
X17395714Y-31518392D02*
X17395714Y-31625535D01*
X17395714Y-31625535D02*
X17360000Y-31696964D01*
X17360000Y-31696964D02*
X17324286Y-31732678D01*
X17324286Y-31732678D02*
X17252857Y-31768392D01*
X17252857Y-31768392D02*
X16967143Y-31768392D01*
X17717143Y-31732678D02*
X17967143Y-31732678D01*
X18074286Y-32125535D02*
X17717143Y-32125535D01*
X17717143Y-32125535D02*
X17717143Y-31375535D01*
X17717143Y-31375535D02*
X18074286Y-31375535D01*
X18360000Y-32089821D02*
X18467143Y-32125535D01*
X18467143Y-32125535D02*
X18645714Y-32125535D01*
X18645714Y-32125535D02*
X18717143Y-32089821D01*
X18717143Y-32089821D02*
X18752857Y-32054107D01*
X18752857Y-32054107D02*
X18788571Y-31982678D01*
X18788571Y-31982678D02*
X18788571Y-31911250D01*
X18788571Y-31911250D02*
X18752857Y-31839821D01*
X18752857Y-31839821D02*
X18717143Y-31804107D01*
X18717143Y-31804107D02*
X18645714Y-31768392D01*
X18645714Y-31768392D02*
X18502857Y-31732678D01*
X18502857Y-31732678D02*
X18431428Y-31696964D01*
X18431428Y-31696964D02*
X18395714Y-31661250D01*
X18395714Y-31661250D02*
X18360000Y-31589821D01*
X18360000Y-31589821D02*
X18360000Y-31518392D01*
X18360000Y-31518392D02*
X18395714Y-31446964D01*
X18395714Y-31446964D02*
X18431428Y-31411250D01*
X18431428Y-31411250D02*
X18502857Y-31375535D01*
X18502857Y-31375535D02*
X18681428Y-31375535D01*
X18681428Y-31375535D02*
X18788571Y-31411250D01*
%LPC*%
%TO.C,A1*%
G36*
X14294571Y-15303502D02*
G01*
X14301334Y-15355330D01*
X14253995Y-15464757D01*
X14216667Y-15477334D01*
X14148542Y-15406208D01*
X14132000Y-15303003D01*
X14164593Y-15185933D01*
X14216667Y-15181000D01*
X14294571Y-15303502D01*
G37*
G36*
X14852268Y-14938380D02*
G01*
X14892704Y-15075167D01*
X14839947Y-15135840D01*
X14734149Y-15107486D01*
X14682334Y-15054000D01*
X14671370Y-14912532D01*
X14687920Y-14875628D01*
X14766485Y-14853364D01*
X14852268Y-14938380D01*
G37*
G36*
X15390763Y-14584987D02*
G01*
X15386125Y-14635959D01*
X15278930Y-14764271D01*
X15237959Y-14784125D01*
X15159238Y-14761013D01*
X15163875Y-14710042D01*
X15271071Y-14581730D01*
X15312042Y-14561875D01*
X15390763Y-14584987D01*
G37*
G36*
X15686524Y-14181413D02*
G01*
X15738942Y-14298000D01*
X15684726Y-14373724D01*
X15660997Y-14376667D01*
X15545513Y-14315455D01*
X15532616Y-14297850D01*
X15536662Y-14197350D01*
X15626170Y-14153603D01*
X15686524Y-14181413D01*
G37*
G36*
X17262207Y-14271763D02*
G01*
X17264667Y-14292000D01*
X17200238Y-14374207D01*
X17180000Y-14376667D01*
X17097794Y-14312238D01*
X17095334Y-14292000D01*
X17159763Y-14209794D01*
X17180000Y-14207334D01*
X17262207Y-14271763D01*
G37*
G36*
X20577786Y-14249667D02*
G01*
X20757352Y-14249667D01*
X20764167Y-14423918D01*
X20783353Y-14468892D01*
X20794173Y-14441154D01*
X20809943Y-14237833D01*
X20795882Y-14102487D01*
X20773578Y-14055562D01*
X20759548Y-14157327D01*
X20757352Y-14249667D01*
X20577786Y-14249667D01*
X20573836Y-14165735D01*
X20589570Y-13956932D01*
X20642020Y-13834176D01*
X20679919Y-13795409D01*
X20826517Y-13728212D01*
X20901625Y-13739375D01*
X20957940Y-13859134D01*
X20983321Y-14098315D01*
X20977750Y-14409852D01*
X20941208Y-14746678D01*
X20902083Y-14951526D01*
X20859118Y-15285844D01*
X20906443Y-15500249D01*
X21038204Y-15583191D01*
X21203281Y-15545859D01*
X21376548Y-15440925D01*
X21392146Y-15336726D01*
X21286333Y-15223333D01*
X21170149Y-15058498D01*
X21193488Y-14969862D01*
X21406281Y-14969862D01*
X21443466Y-15124096D01*
X21549704Y-15287832D01*
X21700273Y-15459667D01*
X21815139Y-15555098D01*
X21836667Y-15562000D01*
X21929723Y-15501072D01*
X22074011Y-15348903D01*
X22123629Y-15287832D01*
X22249821Y-15078608D01*
X22258793Y-14945254D01*
X22158315Y-14910924D01*
X22015090Y-14964469D01*
X21806958Y-15015975D01*
X21658244Y-14964469D01*
X21480464Y-14908936D01*
X21406281Y-14969862D01*
X21193488Y-14969862D01*
X21216866Y-14881076D01*
X21328667Y-14757667D01*
X21461786Y-14654832D01*
X21562200Y-14670256D01*
X21667334Y-14757667D01*
X21799704Y-14859982D01*
X21899981Y-14845373D01*
X22008988Y-14754963D01*
X22138037Y-14653891D01*
X22234155Y-14664389D01*
X22363534Y-14781237D01*
X22484094Y-14929790D01*
X22485534Y-15061869D01*
X22435226Y-15169991D01*
X22373370Y-15375931D01*
X22417169Y-15521178D01*
X22518997Y-15562000D01*
X22563030Y-15485530D01*
X22591964Y-15288650D01*
X22598667Y-15106148D01*
X22598667Y-14650297D01*
X22987768Y-14663394D01*
X23309400Y-14710598D01*
X23486728Y-14826731D01*
X23562010Y-14990687D01*
X23627088Y-15231720D01*
X23671135Y-15488571D01*
X23683326Y-15699978D01*
X23658748Y-15800141D01*
X23580001Y-15796056D01*
X23503521Y-15672887D01*
X23453796Y-15479421D01*
X23446630Y-15377548D01*
X23387035Y-15138277D01*
X23241223Y-14954746D01*
X23061265Y-14884667D01*
X22921689Y-14960333D01*
X22814116Y-15151367D01*
X22768153Y-15403819D01*
X22768000Y-15419067D01*
X22718124Y-15623754D01*
X22639412Y-15732652D01*
X22517750Y-15790690D01*
X22385998Y-15724758D01*
X22343079Y-15687563D01*
X22210444Y-15585692D01*
X22109623Y-15602573D01*
X22007588Y-15687563D01*
X21863327Y-15786382D01*
X21746799Y-15759549D01*
X21708509Y-15730373D01*
X21589708Y-15669203D01*
X21425430Y-15679315D01*
X21231271Y-15735535D01*
X21005526Y-15800160D01*
X20879206Y-15797860D01*
X20795074Y-15725983D01*
X20786844Y-15714957D01*
X20694876Y-15629348D01*
X20573162Y-15645188D01*
X20465697Y-15696866D01*
X20236348Y-15765083D01*
X19922346Y-15794719D01*
X19792112Y-15793154D01*
X19522367Y-15770762D01*
X19379664Y-15723793D01*
X19321893Y-15635520D01*
X19315613Y-15603898D01*
X19258042Y-15288986D01*
X19200528Y-15124630D01*
X19136047Y-15092204D01*
X19124851Y-15097868D01*
X19072340Y-15207816D01*
X19044179Y-15417716D01*
X19042667Y-15482330D01*
X19023626Y-15692551D01*
X18976141Y-15808238D01*
X18958000Y-15816000D01*
X18904658Y-15740962D01*
X18875303Y-15553822D01*
X18873334Y-15482330D01*
X18854246Y-15257336D01*
X18806834Y-15113700D01*
X18791149Y-15097868D01*
X18724675Y-15111713D01*
X18666331Y-15255473D01*
X18609230Y-15547438D01*
X18600469Y-15604334D01*
X18554919Y-15709861D01*
X18430357Y-15766099D01*
X18183420Y-15791544D01*
X18158806Y-15792724D01*
X17890502Y-15784935D01*
X17682837Y-15743511D01*
X17624181Y-15713502D01*
X17506383Y-15663052D01*
X17431073Y-15736070D01*
X17333832Y-15808669D01*
X17240389Y-15731312D01*
X17162687Y-15523182D01*
X17123834Y-15283219D01*
X17556585Y-15283219D01*
X17597664Y-15382073D01*
X17741830Y-15536811D01*
X17900439Y-15533794D01*
X18023688Y-15398233D01*
X18100868Y-15163295D01*
X18093033Y-14951053D01*
X18017863Y-14836892D01*
X17902338Y-14852119D01*
X17740080Y-14964623D01*
X17712881Y-14990635D01*
X17576215Y-15153521D01*
X17556585Y-15283219D01*
X17123834Y-15283219D01*
X17114945Y-15228317D01*
X17078301Y-14968025D01*
X17021232Y-14838264D01*
X16925465Y-14800249D01*
X16913133Y-14800000D01*
X16760625Y-14877744D01*
X16647153Y-15085950D01*
X16590560Y-15387078D01*
X16587334Y-15485503D01*
X16538962Y-15709962D01*
X16417909Y-15811005D01*
X16260262Y-15794990D01*
X16102114Y-15668278D01*
X15979553Y-15437230D01*
X15961500Y-15375207D01*
X15885999Y-15078001D01*
X15551838Y-15412163D01*
X15078123Y-15787980D01*
X14561724Y-16003982D01*
X14035547Y-16068141D01*
X13683991Y-16045384D01*
X13444583Y-15965674D01*
X13358213Y-15906677D01*
X13248566Y-15780662D01*
X13395766Y-15780662D01*
X13538948Y-15871444D01*
X13560500Y-15881998D01*
X13938365Y-15972692D01*
X14402763Y-15926205D01*
X14665371Y-15851015D01*
X15010489Y-15677970D01*
X15367560Y-15408210D01*
X15694080Y-15083606D01*
X15947549Y-14746029D01*
X16080549Y-14456818D01*
X16142872Y-14113797D01*
X16135838Y-13837810D01*
X16062554Y-13666227D01*
X16012141Y-13634076D01*
X15940229Y-13654674D01*
X15954743Y-13805790D01*
X15954966Y-13806677D01*
X15963050Y-14113623D01*
X15871583Y-14474221D01*
X15701509Y-14823147D01*
X15573600Y-14996150D01*
X15354580Y-15198579D01*
X15064027Y-15409359D01*
X14892298Y-15512422D01*
X14615941Y-15647838D01*
X14379736Y-15712935D01*
X14101434Y-15724770D01*
X13912801Y-15715538D01*
X13578911Y-15704495D01*
X13407826Y-15725608D01*
X13395766Y-15780662D01*
X13248566Y-15780662D01*
X13225963Y-15754685D01*
X13243000Y-15659320D01*
X13314503Y-15595418D01*
X13600973Y-15595418D01*
X13753638Y-15648654D01*
X14011367Y-15648003D01*
X14321162Y-15600323D01*
X14630027Y-15512472D01*
X14798603Y-15440438D01*
X15233578Y-15152609D01*
X15577958Y-14790038D01*
X15795980Y-14392105D01*
X15820243Y-14315481D01*
X15895231Y-13994934D01*
X15900360Y-13821564D01*
X15859424Y-13784000D01*
X15776433Y-13833339D01*
X15590332Y-13967060D01*
X15330202Y-14163719D01*
X15076257Y-14361471D01*
X14726564Y-14636134D01*
X14378625Y-14907749D01*
X14082437Y-15137359D01*
X13946695Y-15241555D01*
X13743972Y-15409940D01*
X13620435Y-15540067D01*
X13600973Y-15595418D01*
X13314503Y-15595418D01*
X13407845Y-15511999D01*
X13665143Y-15301378D01*
X13990093Y-15045897D01*
X14357893Y-14763996D01*
X14743744Y-14474116D01*
X15122844Y-14194697D01*
X15470391Y-13944179D01*
X15761585Y-13741001D01*
X15971624Y-13603604D01*
X16075707Y-13550429D01*
X16079334Y-13550454D01*
X16189602Y-13653341D01*
X16235113Y-13903094D01*
X16215153Y-14289819D01*
X16159031Y-14651848D01*
X16104389Y-15006257D01*
X16099821Y-15248069D01*
X16144814Y-15426290D01*
X16150777Y-15439789D01*
X16251490Y-15593728D01*
X16333617Y-15587947D01*
X16390891Y-15431609D01*
X16417045Y-15133879D01*
X16418000Y-15049003D01*
X16430967Y-14780458D01*
X16464780Y-14598612D01*
X16502667Y-14546000D01*
X16584893Y-14608485D01*
X16587334Y-14628010D01*
X16649193Y-14683503D01*
X16693167Y-14677415D01*
X16986469Y-14594795D01*
X17156888Y-14582577D01*
X17241289Y-14655000D01*
X17276536Y-14826301D01*
X17283544Y-14905447D01*
X17303716Y-15125686D01*
X17327562Y-15193646D01*
X17372109Y-15125853D01*
X17413731Y-15031793D01*
X17570294Y-14812495D01*
X17785176Y-14676674D01*
X18004337Y-14651546D01*
X18096742Y-14687781D01*
X18195859Y-14823305D01*
X18236336Y-15082524D01*
X18238334Y-15184145D01*
X18259955Y-15458178D01*
X18319449Y-15609045D01*
X18344167Y-15625500D01*
X18409178Y-15592589D01*
X18442691Y-15426126D01*
X18450000Y-15193052D01*
X18471630Y-14861861D01*
X18539452Y-14689261D01*
X18657863Y-14669748D01*
X18794002Y-14762495D01*
X18925523Y-14862052D01*
X19027406Y-14841636D01*
X19121998Y-14762495D01*
X19285782Y-14662169D01*
X19396343Y-14712029D01*
X19458251Y-14917278D01*
X19475277Y-15164830D01*
X19484553Y-15604334D01*
X19557070Y-15235471D01*
X19592296Y-15109679D01*
X19804667Y-15109679D01*
X19838144Y-15185244D01*
X19963119Y-15144468D01*
X19969285Y-15141190D01*
X20123710Y-15036459D01*
X20182333Y-14974729D01*
X20170639Y-14866861D01*
X20141006Y-14840895D01*
X20008814Y-14841999D01*
X19874584Y-14944050D01*
X19805423Y-15093420D01*
X19804667Y-15109679D01*
X19592296Y-15109679D01*
X19651858Y-14896980D01*
X19783098Y-14703632D01*
X19968082Y-14632326D01*
X20009767Y-14630667D01*
X20252977Y-14685052D01*
X20373226Y-14824047D01*
X20366162Y-15011413D01*
X20227437Y-15210907D01*
X20091748Y-15313718D01*
X19909222Y-15438119D01*
X19858851Y-15516298D01*
X19921647Y-15578392D01*
X19924123Y-15579787D01*
X20148637Y-15619558D01*
X20367286Y-15514388D01*
X20515922Y-15323167D01*
X20586136Y-15080722D01*
X20600920Y-14718423D01*
X20589622Y-14501198D01*
X20577786Y-14249667D01*
G37*
%TD*%
D12*
%TO.C,J1*%
X35639999Y-33199999D03*
D13*
X33099999Y-33199999D03*
X30559999Y-33199999D03*
X28019999Y-33199999D03*
X25479999Y-33199999D03*
X22939999Y-33199999D03*
X20399999Y-33199999D03*
X17859999Y-33199999D03*
%TD*%
D14*
%TO.C,U1*%
X32409999Y-29099999D03*
D15*
X30630000Y-29100000D03*
X28850000Y-29100000D03*
X27070000Y-29100000D03*
X25290000Y-29100000D03*
X23510000Y-29100000D03*
X21730000Y-29100000D03*
X19950000Y-29100000D03*
X19060000Y-18400000D03*
X20840000Y-18400000D03*
X22620000Y-18400000D03*
X24400000Y-18400000D03*
X26180000Y-18400000D03*
X27960000Y-18400000D03*
X29740000Y-18400000D03*
X31520000Y-18400000D03*
%TD*%
D16*
%TO.C,H1*%
X38749998Y-23750001D03*
%TD*%
%TO.C,H2*%
X14750002Y-23749999D03*
%TD*%
M02*
