%TF.GenerationSoftware,KiCad,Pcbnew,(7.0.0)*%
%TF.CreationDate,2023-03-29T09:50:13+01:00*%
%TF.ProjectId,Ogen,4f67656e-2e6b-4696-9361-645f70636258,rev?*%
%TF.SameCoordinates,Original*%
%TF.FileFunction,Copper,L1,Top*%
%TF.FilePolarity,Positive*%
%FSLAX46Y46*%
G04 Gerber Fmt 4.6, Leading zero omitted, Abs format (unit mm)*
G04 Created by KiCad (PCBNEW (7.0.0)) date 2023-03-29 09:50:13*
%MOMM*%
%LPD*%
G01*
G04 APERTURE LIST*
%TA.AperFunction,ComponentPad*%
%ADD10O,1.500000X1.700000*%
%TD*%
%TA.AperFunction,ComponentPad*%
%ADD11R,1.200000X1.200000*%
%TD*%
%TA.AperFunction,ComponentPad*%
%ADD12C,1.200000*%
%TD*%
%TA.AperFunction,ViaPad*%
%ADD13C,0.500000*%
%TD*%
%TA.AperFunction,Conductor*%
%ADD14C,0.300000*%
%TD*%
%TA.AperFunction,Conductor*%
%ADD15C,0.200000*%
%TD*%
G04 APERTURE END LIST*
D10*
%TO.P,J1,1,Pin_1*%
%TO.N,+3V3*%
X35890000Y-33449999D03*
%TO.P,J1,2,Pin_2*%
%TO.N,/MISO*%
X33350000Y-33449999D03*
%TO.P,J1,3,Pin_3*%
%TO.N,/MOSI*%
X30810000Y-33449999D03*
%TO.P,J1,4,Pin_4*%
%TO.N,/SCK*%
X28270000Y-33449999D03*
%TO.P,J1,5,Pin_5*%
%TO.N,/CS*%
X25730000Y-33449999D03*
%TO.P,J1,6,Pin_6*%
%TO.N,/MOTION*%
X23190000Y-33449999D03*
%TO.P,J1,7,Pin_7*%
%TO.N,GND*%
X20650000Y-33449999D03*
%TO.P,J1,8,Pin_8*%
%TO.N,/~{RST}*%
X18110000Y-33449999D03*
%TD*%
D11*
%TO.P,U1,1,NC*%
%TO.N,unconnected-(U1-NC-Pad1)*%
X32659999Y-29349999D03*
D12*
%TO.P,U1,2,NC*%
%TO.N,unconnected-(U1-NC-Pad2)*%
X30880000Y-29350000D03*
%TO.P,U1,3,VDDPIX*%
%TO.N,Net-(U1-VDDPIX)*%
X29100000Y-29350000D03*
%TO.P,U1,4,VDD*%
%TO.N,+2V*%
X27320000Y-29350000D03*
%TO.P,U1,5,VDDIO*%
%TO.N,+3V3*%
X25540000Y-29350000D03*
%TO.P,U1,6,NC*%
%TO.N,unconnected-(U1-NC-Pad6)*%
X23760000Y-29350000D03*
%TO.P,U1,7,NRESET*%
%TO.N,/~{RST}*%
X21980000Y-29350000D03*
%TO.P,U1,8,GND*%
%TO.N,GND*%
X20200000Y-29350000D03*
%TO.P,U1,9,MOTION*%
%TO.N,/MOTION*%
X19310000Y-18650000D03*
%TO.P,U1,10,SCLK*%
%TO.N,/SCK*%
X21090000Y-18650000D03*
%TO.P,U1,11,MOSI*%
%TO.N,/MOSI*%
X22870000Y-18650000D03*
%TO.P,U1,12,MISO*%
%TO.N,/MISO*%
X24650000Y-18650000D03*
%TO.P,U1,13,NCS*%
%TO.N,/CS*%
X26430000Y-18650000D03*
%TO.P,U1,14,NC*%
%TO.N,unconnected-(U1-NC-Pad14)*%
X28210000Y-18650000D03*
%TO.P,U1,15,LED_P*%
%TO.N,Net-(U1-LED_P)*%
X29990000Y-18650000D03*
%TO.P,U1,16,NC*%
%TO.N,unconnected-(U1-NC-Pad16)*%
X31770000Y-18650000D03*
%TD*%
D13*
%TO.N,GND*%
X37550003Y-18499999D03*
X40200002Y-15649998D03*
X32350002Y-30900002D03*
X37550002Y-13900000D03*
X27249999Y-30699999D03*
X37750000Y-16200001D03*
%TO.N,+3V3*%
X38737501Y-17900000D03*
X34400001Y-14849998D03*
X38737501Y-14462499D03*
%TO.N,/~{RST}*%
X18900000Y-30700000D03*
%TO.N,/MOTION*%
X17700002Y-17899998D03*
%TO.N,/MISO*%
X34399999Y-31715685D03*
%TD*%
D14*
%TO.N,+3V3*%
X38737501Y-17900000D02*
X38737501Y-14850000D01*
D15*
X34400001Y-14849998D02*
X38737501Y-14850000D01*
D14*
X38737501Y-14850000D02*
X38737501Y-14462499D01*
D15*
%TO.N,/~{RST}*%
X18900001Y-32659999D02*
X18110000Y-33449999D01*
X18110002Y-33220000D02*
X18110000Y-33449999D01*
X18900000Y-30700000D02*
X18900001Y-32659999D01*
%TO.N,/MOTION*%
X18450001Y-18650000D02*
X19309999Y-18650001D01*
X17700002Y-17899998D02*
X18450001Y-18650000D01*
%TO.N,/CS*%
X33502944Y-17499999D02*
X35300000Y-19297056D01*
X33400002Y-31900001D02*
X27280001Y-31899999D01*
X35300000Y-19297056D02*
X35300002Y-30000002D01*
X26430000Y-18649999D02*
X27580001Y-17500001D01*
X35300002Y-30000002D02*
X33400002Y-31900001D01*
X27280001Y-31899999D02*
X25730000Y-33449997D01*
X27580001Y-17500001D02*
X33502944Y-17499999D01*
%TO.N,/MOSI*%
X31960003Y-32299999D02*
X34700000Y-32299999D01*
X33834312Y-16700001D02*
X24820000Y-16699999D01*
X34700000Y-32299999D02*
X36100001Y-30900000D01*
X36100001Y-30900000D02*
X36100001Y-18965690D01*
X24820000Y-16699999D02*
X22870002Y-18650000D01*
X36100001Y-18965690D02*
X33834312Y-16700001D01*
X30810000Y-33450001D02*
X31960003Y-32299999D01*
%TO.N,/MISO*%
X34399999Y-31715685D02*
X34718630Y-31715687D01*
X35700000Y-19131371D02*
X33668631Y-17099999D01*
X34718630Y-31715687D02*
X35700001Y-30734315D01*
X33668631Y-17099999D02*
X26200003Y-17100000D01*
X26200003Y-17100000D02*
X24650000Y-18649999D01*
X35700001Y-30734315D02*
X35700000Y-19131371D01*
%TD*%
%TA.AperFunction,Conductor*%
%TO.N,GND*%
G36*
X40004308Y-13275875D02*
G01*
X40160594Y-13289548D01*
X40177575Y-13292541D01*
X40324940Y-13332027D01*
X40341148Y-13337927D01*
X40479397Y-13402394D01*
X40494342Y-13411022D01*
X40619302Y-13498520D01*
X40632521Y-13509612D01*
X40740386Y-13617476D01*
X40751479Y-13630696D01*
X40838976Y-13755655D01*
X40847604Y-13770600D01*
X40912069Y-13908845D01*
X40917972Y-13925061D01*
X40951046Y-14048495D01*
X40957456Y-14072415D01*
X40960452Y-14089410D01*
X40974125Y-14245702D01*
X40974502Y-14254330D01*
X40974500Y-22668883D01*
X40955690Y-22726940D01*
X40906407Y-22762935D01*
X40845380Y-22763190D01*
X40795798Y-22727608D01*
X40686146Y-22578787D01*
X40684179Y-22576117D01*
X40479366Y-22364343D01*
X40476772Y-22362294D01*
X40476767Y-22362290D01*
X40250752Y-22183808D01*
X40248155Y-22181757D01*
X40245312Y-22180073D01*
X40245309Y-22180071D01*
X39997512Y-22033301D01*
X39997508Y-22033299D01*
X39994670Y-22031618D01*
X39991628Y-22030328D01*
X39991626Y-22030327D01*
X39726484Y-21917897D01*
X39726485Y-21917897D01*
X39723435Y-21916604D01*
X39692969Y-21908258D01*
X39442486Y-21839644D01*
X39442483Y-21839643D01*
X39439291Y-21838769D01*
X39435997Y-21838326D01*
X39150582Y-21799941D01*
X39150575Y-21799940D01*
X39147307Y-21799501D01*
X38926430Y-21799501D01*
X38924800Y-21799610D01*
X38924773Y-21799611D01*
X38709341Y-21814033D01*
X38709333Y-21814033D01*
X38706047Y-21814254D01*
X38702811Y-21814911D01*
X38702809Y-21814912D01*
X38420587Y-21872276D01*
X38420578Y-21872278D01*
X38417338Y-21872937D01*
X38414211Y-21874022D01*
X38414203Y-21874025D01*
X38142164Y-21968487D01*
X38142154Y-21968490D01*
X38139027Y-21969577D01*
X38136077Y-21971067D01*
X38136062Y-21971074D01*
X37879034Y-22100957D01*
X37879030Y-22100958D01*
X37876080Y-22102450D01*
X37873361Y-22104316D01*
X37873355Y-22104320D01*
X37635911Y-22267316D01*
X37635906Y-22267319D01*
X37633189Y-22269185D01*
X37630748Y-22271392D01*
X37630740Y-22271399D01*
X37417134Y-22464594D01*
X37417129Y-22464599D01*
X37414689Y-22466806D01*
X37412561Y-22469322D01*
X37412558Y-22469326D01*
X37226617Y-22689258D01*
X37226610Y-22689266D01*
X37224479Y-22691788D01*
X37222699Y-22694575D01*
X37222694Y-22694583D01*
X37067735Y-22937323D01*
X37067730Y-22937330D01*
X37065954Y-22940114D01*
X37064564Y-22943109D01*
X37064562Y-22943113D01*
X36974503Y-23137186D01*
X36941941Y-23207354D01*
X36940964Y-23210502D01*
X36940958Y-23210519D01*
X36855638Y-23485568D01*
X36855635Y-23485577D01*
X36854655Y-23488739D01*
X36854103Y-23492006D01*
X36854103Y-23492010D01*
X36829736Y-23636468D01*
X36805652Y-23779247D01*
X36805541Y-23782550D01*
X36805541Y-23782556D01*
X36795918Y-24070386D01*
X36795918Y-24070395D01*
X36795808Y-24073695D01*
X36796138Y-24076983D01*
X36796139Y-24076989D01*
X36824965Y-24363531D01*
X36825297Y-24366828D01*
X36826064Y-24370047D01*
X36826065Y-24370052D01*
X36892824Y-24650187D01*
X36892827Y-24650197D01*
X36893594Y-24653415D01*
X36894785Y-24656509D01*
X36894786Y-24656510D01*
X36998288Y-24925248D01*
X36998292Y-24925257D01*
X36999480Y-24928341D01*
X37001068Y-24931239D01*
X37001071Y-24931245D01*
X37125251Y-25157845D01*
X37141065Y-25186701D01*
X37143020Y-25189354D01*
X37143023Y-25189359D01*
X37247469Y-25331114D01*
X37315823Y-25423885D01*
X37520636Y-25635659D01*
X37751847Y-25818245D01*
X38005332Y-25968384D01*
X38276567Y-26083398D01*
X38560711Y-26161233D01*
X38852695Y-26200501D01*
X39071911Y-26200501D01*
X39073572Y-26200501D01*
X39293955Y-26185748D01*
X39582664Y-26127065D01*
X39860975Y-26030425D01*
X40123922Y-25897552D01*
X40366813Y-25730817D01*
X40585313Y-25533196D01*
X40775523Y-25308214D01*
X40792054Y-25282317D01*
X40829084Y-25248143D01*
X40878143Y-25236623D01*
X40926518Y-25250747D01*
X40961673Y-25286853D01*
X40974499Y-25335588D01*
X40974498Y-33741714D01*
X40970516Y-33741714D01*
X40970517Y-33741728D01*
X40974497Y-33741728D01*
X40974497Y-33745690D01*
X40974121Y-33754310D01*
X40960461Y-33910601D01*
X40957466Y-33927595D01*
X40933668Y-34016439D01*
X40917997Y-34074940D01*
X40912094Y-34091160D01*
X40847629Y-34229420D01*
X40839001Y-34244365D01*
X40755934Y-34363005D01*
X40751510Y-34369323D01*
X40740416Y-34382544D01*
X40632550Y-34490411D01*
X40619328Y-34501505D01*
X40494365Y-34589001D01*
X40479418Y-34597630D01*
X40341166Y-34662091D01*
X40324948Y-34667993D01*
X40177598Y-34707465D01*
X40160601Y-34710461D01*
X40004289Y-34724123D01*
X39995669Y-34724499D01*
X39991732Y-34724499D01*
X39991732Y-34720344D01*
X39991719Y-34720343D01*
X39991719Y-34724500D01*
X14008284Y-34724500D01*
X14008284Y-34720343D01*
X14008271Y-34720344D01*
X14008271Y-34724499D01*
X14004308Y-34724499D01*
X13995689Y-34724123D01*
X13839400Y-34710464D01*
X13822403Y-34707468D01*
X13675052Y-34667996D01*
X13658838Y-34662095D01*
X13520576Y-34597630D01*
X13505632Y-34589002D01*
X13380673Y-34501509D01*
X13367452Y-34490416D01*
X13259583Y-34382548D01*
X13248489Y-34369326D01*
X13228287Y-34340473D01*
X13160994Y-34244363D01*
X13152367Y-34229420D01*
X13131686Y-34185064D01*
X13087903Y-34091158D01*
X13082005Y-34074952D01*
X13042529Y-33927586D01*
X13039536Y-33910601D01*
X13025874Y-33754288D01*
X13025499Y-33745665D01*
X13025500Y-33741716D01*
X13025499Y-33741715D01*
X13025500Y-33741714D01*
X13025499Y-33741714D01*
X13025499Y-33598206D01*
X17159501Y-33598206D01*
X17159754Y-33600703D01*
X17159755Y-33600704D01*
X17173647Y-33737322D01*
X17173648Y-33737328D01*
X17174156Y-33742321D01*
X17175658Y-33747108D01*
X17175659Y-33747113D01*
X17229661Y-33919227D01*
X17232027Y-33926768D01*
X17234460Y-33931152D01*
X17234463Y-33931158D01*
X17323274Y-34091164D01*
X17325842Y-34095791D01*
X17329112Y-34099600D01*
X17448492Y-34238661D01*
X17448496Y-34238664D01*
X17451761Y-34242468D01*
X17604628Y-34360796D01*
X17778185Y-34445930D01*
X17783037Y-34447186D01*
X17783039Y-34447187D01*
X17824660Y-34457963D01*
X17965327Y-34494385D01*
X18158391Y-34504176D01*
X18349475Y-34474903D01*
X18530754Y-34407764D01*
X18694808Y-34305509D01*
X18834920Y-34172323D01*
X18945354Y-34013658D01*
X19021588Y-33836012D01*
X19060501Y-33646656D01*
X19060501Y-33598206D01*
X22239501Y-33598206D01*
X22239754Y-33600703D01*
X22239755Y-33600704D01*
X22253647Y-33737322D01*
X22253648Y-33737328D01*
X22254156Y-33742321D01*
X22255658Y-33747108D01*
X22255659Y-33747113D01*
X22309661Y-33919227D01*
X22312027Y-33926768D01*
X22314460Y-33931152D01*
X22314463Y-33931158D01*
X22403274Y-34091164D01*
X22405842Y-34095791D01*
X22409112Y-34099600D01*
X22528492Y-34238661D01*
X22528496Y-34238664D01*
X22531761Y-34242468D01*
X22684628Y-34360796D01*
X22858185Y-34445930D01*
X22863037Y-34447186D01*
X22863039Y-34447187D01*
X22904660Y-34457963D01*
X23045327Y-34494385D01*
X23238391Y-34504176D01*
X23429475Y-34474903D01*
X23610754Y-34407764D01*
X23774808Y-34305509D01*
X23914920Y-34172323D01*
X24025354Y-34013658D01*
X24101588Y-33836012D01*
X24140501Y-33646656D01*
X24140501Y-33301794D01*
X24125846Y-33157679D01*
X24067975Y-32973232D01*
X24054472Y-32948905D01*
X24008428Y-32865948D01*
X23974160Y-32804209D01*
X23921348Y-32742691D01*
X23851509Y-32661338D01*
X23851505Y-32661334D01*
X23848241Y-32657532D01*
X23695374Y-32539204D01*
X23690869Y-32536994D01*
X23526319Y-32456278D01*
X23526316Y-32456276D01*
X23521817Y-32454070D01*
X23516970Y-32452815D01*
X23516962Y-32452812D01*
X23339534Y-32406873D01*
X23339533Y-32406872D01*
X23334675Y-32405615D01*
X23329665Y-32405360D01*
X23329659Y-32405360D01*
X23146627Y-32396078D01*
X23146623Y-32396078D01*
X23141611Y-32395824D01*
X23136653Y-32396583D01*
X23136643Y-32396584D01*
X22955495Y-32424335D01*
X22955486Y-32424337D01*
X22950527Y-32425097D01*
X22945818Y-32426840D01*
X22945814Y-32426842D01*
X22773959Y-32490490D01*
X22773948Y-32490494D01*
X22769248Y-32492236D01*
X22764989Y-32494890D01*
X22764984Y-32494893D01*
X22609455Y-32591834D01*
X22609447Y-32591839D01*
X22605194Y-32594491D01*
X22601562Y-32597942D01*
X22601556Y-32597948D01*
X22468717Y-32724221D01*
X22468713Y-32724224D01*
X22465082Y-32727677D01*
X22462222Y-32731785D01*
X22462216Y-32731793D01*
X22357516Y-32882220D01*
X22357512Y-32882227D01*
X22354648Y-32886342D01*
X22352669Y-32890953D01*
X22352666Y-32890959D01*
X22280391Y-33059379D01*
X22280388Y-33059386D01*
X22278414Y-33063988D01*
X22277406Y-33068888D01*
X22277404Y-33068898D01*
X22258133Y-33162677D01*
X22239501Y-33253344D01*
X22239501Y-33598206D01*
X19060501Y-33598206D01*
X19060501Y-33301794D01*
X19045846Y-33157679D01*
X19044342Y-33152886D01*
X19044341Y-33152880D01*
X19019058Y-33072303D01*
X19011605Y-33048549D01*
X19009919Y-32995314D01*
X19036059Y-32948910D01*
X19074875Y-32910094D01*
X19078854Y-32906632D01*
X19084229Y-32903957D01*
X19115879Y-32869237D01*
X19118997Y-32865972D01*
X19132175Y-32852796D01*
X19134763Y-32849016D01*
X19137689Y-32845494D01*
X19137859Y-32845635D01*
X19140750Y-32841956D01*
X19159917Y-32820932D01*
X19163466Y-32811769D01*
X19174109Y-32791579D01*
X19174473Y-32791047D01*
X19179657Y-32783480D01*
X19186167Y-32755797D01*
X19190223Y-32742700D01*
X19200501Y-32716172D01*
X19200500Y-32706352D01*
X19203130Y-32683677D01*
X19205380Y-32674118D01*
X19201449Y-32645950D01*
X19200500Y-32632271D01*
X19200500Y-31078063D01*
X19206742Y-31043466D01*
X19224681Y-31013232D01*
X19253257Y-30980251D01*
X19282882Y-30946063D01*
X19336697Y-30828226D01*
X19355133Y-30700000D01*
X19336697Y-30571774D01*
X19282882Y-30453937D01*
X19198049Y-30356033D01*
X19089069Y-30285996D01*
X19082275Y-30284001D01*
X18971563Y-30251494D01*
X18964772Y-30249500D01*
X18835228Y-30249500D01*
X18828437Y-30251493D01*
X18828436Y-30251494D01*
X18717724Y-30284001D01*
X18717721Y-30284002D01*
X18710931Y-30285996D01*
X18704978Y-30289821D01*
X18704973Y-30289824D01*
X18607908Y-30352204D01*
X18607904Y-30352206D01*
X18601951Y-30356033D01*
X18597319Y-30361378D01*
X18597315Y-30361382D01*
X18521752Y-30448588D01*
X18521749Y-30448591D01*
X18517118Y-30453937D01*
X18514179Y-30460372D01*
X18514176Y-30460377D01*
X18466246Y-30565328D01*
X18466244Y-30565333D01*
X18463303Y-30571774D01*
X18462295Y-30578782D01*
X18462294Y-30578787D01*
X18458278Y-30606722D01*
X18444867Y-30700000D01*
X18445875Y-30707011D01*
X18462294Y-30821212D01*
X18462295Y-30821215D01*
X18463303Y-30828226D01*
X18466245Y-30834668D01*
X18466246Y-30834671D01*
X18512002Y-30934862D01*
X18517118Y-30946063D01*
X18521753Y-30951412D01*
X18521755Y-30951415D01*
X18575319Y-31013232D01*
X18593258Y-31043466D01*
X18599500Y-31078063D01*
X18599500Y-32372586D01*
X18587060Y-32420631D01*
X18552868Y-32456602D01*
X18505514Y-32471459D01*
X18456901Y-32461469D01*
X18446320Y-32456278D01*
X18446313Y-32456275D01*
X18441817Y-32454070D01*
X18436970Y-32452815D01*
X18436962Y-32452812D01*
X18259534Y-32406873D01*
X18259533Y-32406872D01*
X18254675Y-32405615D01*
X18249665Y-32405360D01*
X18249659Y-32405360D01*
X18066627Y-32396078D01*
X18066623Y-32396078D01*
X18061611Y-32395824D01*
X18056653Y-32396583D01*
X18056643Y-32396584D01*
X17875495Y-32424335D01*
X17875486Y-32424337D01*
X17870527Y-32425097D01*
X17865818Y-32426840D01*
X17865814Y-32426842D01*
X17693959Y-32490490D01*
X17693948Y-32490494D01*
X17689248Y-32492236D01*
X17684989Y-32494890D01*
X17684984Y-32494893D01*
X17529455Y-32591834D01*
X17529447Y-32591839D01*
X17525194Y-32594491D01*
X17521562Y-32597942D01*
X17521556Y-32597948D01*
X17388717Y-32724221D01*
X17388713Y-32724224D01*
X17385082Y-32727677D01*
X17382222Y-32731785D01*
X17382216Y-32731793D01*
X17277516Y-32882220D01*
X17277512Y-32882227D01*
X17274648Y-32886342D01*
X17272669Y-32890953D01*
X17272666Y-32890959D01*
X17200391Y-33059379D01*
X17200388Y-33059386D01*
X17198414Y-33063988D01*
X17197406Y-33068888D01*
X17197404Y-33068898D01*
X17178133Y-33162677D01*
X17159501Y-33253344D01*
X17159501Y-33598206D01*
X13025499Y-33598206D01*
X13025499Y-29350000D01*
X21174435Y-29350000D01*
X21175057Y-29355520D01*
X21194009Y-29523732D01*
X21194010Y-29523738D01*
X21194632Y-29529255D01*
X21196467Y-29534500D01*
X21196468Y-29534503D01*
X21203486Y-29554559D01*
X21254211Y-29699522D01*
X21350184Y-29852262D01*
X21477738Y-29979816D01*
X21630478Y-30075789D01*
X21800745Y-30135368D01*
X21980000Y-30155565D01*
X22159255Y-30135368D01*
X22329522Y-30075789D01*
X22482262Y-29979816D01*
X22609816Y-29852262D01*
X22705789Y-29699522D01*
X22765368Y-29529255D01*
X22771622Y-29473747D01*
X22794003Y-29421385D01*
X22841528Y-29390015D01*
X22898472Y-29390015D01*
X22945997Y-29421385D01*
X22968378Y-29473748D01*
X22974009Y-29523732D01*
X22974010Y-29523738D01*
X22974632Y-29529255D01*
X22976467Y-29534500D01*
X22976468Y-29534503D01*
X22983486Y-29554559D01*
X23034211Y-29699522D01*
X23130184Y-29852262D01*
X23257738Y-29979816D01*
X23410478Y-30075789D01*
X23580745Y-30135368D01*
X23760000Y-30155565D01*
X23939255Y-30135368D01*
X24109522Y-30075789D01*
X24262262Y-29979816D01*
X24389816Y-29852262D01*
X24485789Y-29699522D01*
X24545368Y-29529255D01*
X24551622Y-29473747D01*
X24574003Y-29421385D01*
X24621528Y-29390015D01*
X24678472Y-29390015D01*
X24725997Y-29421385D01*
X24748378Y-29473748D01*
X24754009Y-29523732D01*
X24754010Y-29523738D01*
X24754632Y-29529255D01*
X24756467Y-29534500D01*
X24756468Y-29534503D01*
X24763486Y-29554559D01*
X24814211Y-29699522D01*
X24910184Y-29852262D01*
X25037738Y-29979816D01*
X25190478Y-30075789D01*
X25360745Y-30135368D01*
X25540000Y-30155565D01*
X25719255Y-30135368D01*
X25889522Y-30075789D01*
X26042262Y-29979816D01*
X26169816Y-29852262D01*
X26265789Y-29699522D01*
X26325368Y-29529255D01*
X26331622Y-29473747D01*
X26354003Y-29421385D01*
X26401528Y-29390015D01*
X26458472Y-29390015D01*
X26505997Y-29421385D01*
X26528378Y-29473748D01*
X26534009Y-29523732D01*
X26534010Y-29523738D01*
X26534632Y-29529255D01*
X26536467Y-29534500D01*
X26536468Y-29534503D01*
X26543486Y-29554559D01*
X26594211Y-29699522D01*
X26690184Y-29852262D01*
X26817738Y-29979816D01*
X26970478Y-30075789D01*
X27140745Y-30135368D01*
X27320000Y-30155565D01*
X27499255Y-30135368D01*
X27669522Y-30075789D01*
X27822262Y-29979816D01*
X27949816Y-29852262D01*
X28045789Y-29699522D01*
X28105368Y-29529255D01*
X28111622Y-29473747D01*
X28134003Y-29421385D01*
X28181528Y-29390015D01*
X28238472Y-29390015D01*
X28285997Y-29421385D01*
X28308378Y-29473748D01*
X28314009Y-29523732D01*
X28314010Y-29523738D01*
X28314632Y-29529255D01*
X28316467Y-29534500D01*
X28316468Y-29534503D01*
X28323486Y-29554559D01*
X28374211Y-29699522D01*
X28470184Y-29852262D01*
X28597738Y-29979816D01*
X28750478Y-30075789D01*
X28920745Y-30135368D01*
X29100000Y-30155565D01*
X29279255Y-30135368D01*
X29449522Y-30075789D01*
X29602262Y-29979816D01*
X29729816Y-29852262D01*
X29825789Y-29699522D01*
X29885368Y-29529255D01*
X29891622Y-29473747D01*
X29914003Y-29421385D01*
X29961528Y-29390015D01*
X30018472Y-29390015D01*
X30065997Y-29421385D01*
X30088378Y-29473748D01*
X30094009Y-29523732D01*
X30094010Y-29523738D01*
X30094632Y-29529255D01*
X30096467Y-29534500D01*
X30096468Y-29534503D01*
X30103486Y-29554559D01*
X30154211Y-29699522D01*
X30250184Y-29852262D01*
X30377738Y-29979816D01*
X30530478Y-30075789D01*
X30700745Y-30135368D01*
X30880000Y-30155565D01*
X31059255Y-30135368D01*
X31229522Y-30075789D01*
X31382262Y-29979816D01*
X31509816Y-29852262D01*
X31605789Y-29699522D01*
X31665368Y-29529255D01*
X31665760Y-29529392D01*
X31692088Y-29483000D01*
X31742826Y-29457149D01*
X31799411Y-29463526D01*
X31843123Y-29500021D01*
X31859500Y-29554559D01*
X31859500Y-29969748D01*
X31860446Y-29974506D01*
X31860447Y-29974511D01*
X31862091Y-29982774D01*
X31871133Y-30028231D01*
X31876550Y-30036338D01*
X31876551Y-30036340D01*
X31904138Y-30077626D01*
X31915448Y-30094552D01*
X31981769Y-30138867D01*
X32040252Y-30150500D01*
X33274890Y-30150500D01*
X33279748Y-30150500D01*
X33338231Y-30138867D01*
X33404552Y-30094552D01*
X33448867Y-30028231D01*
X33460500Y-29969748D01*
X33460500Y-28730252D01*
X33448867Y-28671769D01*
X33404552Y-28605448D01*
X33396441Y-28600028D01*
X33346340Y-28566551D01*
X33346338Y-28566550D01*
X33338231Y-28561133D01*
X33328667Y-28559230D01*
X33328666Y-28559230D01*
X33284511Y-28550447D01*
X33284506Y-28550446D01*
X33279748Y-28549500D01*
X32040252Y-28549500D01*
X32035494Y-28550446D01*
X32035488Y-28550447D01*
X31991333Y-28559230D01*
X31991330Y-28559231D01*
X31981769Y-28561133D01*
X31973663Y-28566549D01*
X31973659Y-28566551D01*
X31923558Y-28600028D01*
X31923555Y-28600030D01*
X31915448Y-28605448D01*
X31910030Y-28613555D01*
X31910028Y-28613558D01*
X31876551Y-28663659D01*
X31876549Y-28663663D01*
X31871133Y-28671769D01*
X31869231Y-28681330D01*
X31869230Y-28681333D01*
X31860447Y-28725488D01*
X31860446Y-28725494D01*
X31859500Y-28730252D01*
X31859500Y-28735110D01*
X31859500Y-29145441D01*
X31843123Y-29199979D01*
X31799411Y-29236474D01*
X31742826Y-29242851D01*
X31692088Y-29217000D01*
X31665760Y-29170607D01*
X31665368Y-29170745D01*
X31664611Y-29168581D01*
X31664610Y-29168580D01*
X31605789Y-29000478D01*
X31509816Y-28847738D01*
X31382262Y-28720184D01*
X31229522Y-28624211D01*
X31224271Y-28622373D01*
X31224270Y-28622373D01*
X31064503Y-28566468D01*
X31064500Y-28566467D01*
X31059255Y-28564632D01*
X31053738Y-28564010D01*
X31053732Y-28564009D01*
X30885520Y-28545057D01*
X30880000Y-28544435D01*
X30874480Y-28545057D01*
X30706267Y-28564009D01*
X30706259Y-28564010D01*
X30700745Y-28564632D01*
X30695501Y-28566466D01*
X30695496Y-28566468D01*
X30535729Y-28622373D01*
X30535724Y-28622375D01*
X30530478Y-28624211D01*
X30525771Y-28627168D01*
X30525768Y-28627170D01*
X30382446Y-28717225D01*
X30382441Y-28717228D01*
X30377738Y-28720184D01*
X30373811Y-28724110D01*
X30373807Y-28724114D01*
X30254114Y-28843807D01*
X30254110Y-28843811D01*
X30250184Y-28847738D01*
X30247228Y-28852441D01*
X30247225Y-28852446D01*
X30157170Y-28995768D01*
X30154211Y-29000478D01*
X30152375Y-29005724D01*
X30152373Y-29005729D01*
X30096468Y-29165496D01*
X30096466Y-29165501D01*
X30094632Y-29170745D01*
X30094010Y-29176259D01*
X30094009Y-29176267D01*
X30088378Y-29226251D01*
X30065997Y-29278614D01*
X30018472Y-29309984D01*
X29961528Y-29309984D01*
X29914003Y-29278614D01*
X29891622Y-29226251D01*
X29885990Y-29176267D01*
X29885368Y-29170745D01*
X29825789Y-29000478D01*
X29729816Y-28847738D01*
X29602262Y-28720184D01*
X29449522Y-28624211D01*
X29444271Y-28622373D01*
X29444270Y-28622373D01*
X29284503Y-28566468D01*
X29284500Y-28566467D01*
X29279255Y-28564632D01*
X29273738Y-28564010D01*
X29273732Y-28564009D01*
X29105520Y-28545057D01*
X29100000Y-28544435D01*
X29094480Y-28545057D01*
X28926267Y-28564009D01*
X28926259Y-28564010D01*
X28920745Y-28564632D01*
X28915501Y-28566466D01*
X28915496Y-28566468D01*
X28755729Y-28622373D01*
X28755724Y-28622375D01*
X28750478Y-28624211D01*
X28745771Y-28627168D01*
X28745768Y-28627170D01*
X28602446Y-28717225D01*
X28602441Y-28717228D01*
X28597738Y-28720184D01*
X28593811Y-28724110D01*
X28593807Y-28724114D01*
X28474114Y-28843807D01*
X28474110Y-28843811D01*
X28470184Y-28847738D01*
X28467228Y-28852441D01*
X28467225Y-28852446D01*
X28377170Y-28995768D01*
X28374211Y-29000478D01*
X28372375Y-29005724D01*
X28372373Y-29005729D01*
X28316468Y-29165496D01*
X28316466Y-29165501D01*
X28314632Y-29170745D01*
X28314010Y-29176259D01*
X28314009Y-29176267D01*
X28308378Y-29226251D01*
X28285997Y-29278614D01*
X28238472Y-29309984D01*
X28181528Y-29309984D01*
X28134003Y-29278614D01*
X28111622Y-29226251D01*
X28105990Y-29176267D01*
X28105368Y-29170745D01*
X28045789Y-29000478D01*
X27949816Y-28847738D01*
X27822262Y-28720184D01*
X27669522Y-28624211D01*
X27664271Y-28622373D01*
X27664270Y-28622373D01*
X27504503Y-28566468D01*
X27504500Y-28566467D01*
X27499255Y-28564632D01*
X27493738Y-28564010D01*
X27493732Y-28564009D01*
X27325520Y-28545057D01*
X27320000Y-28544435D01*
X27314480Y-28545057D01*
X27146267Y-28564009D01*
X27146259Y-28564010D01*
X27140745Y-28564632D01*
X27135501Y-28566466D01*
X27135496Y-28566468D01*
X26975729Y-28622373D01*
X26975724Y-28622375D01*
X26970478Y-28624211D01*
X26965771Y-28627168D01*
X26965768Y-28627170D01*
X26822446Y-28717225D01*
X26822441Y-28717228D01*
X26817738Y-28720184D01*
X26813811Y-28724110D01*
X26813807Y-28724114D01*
X26694114Y-28843807D01*
X26694110Y-28843811D01*
X26690184Y-28847738D01*
X26687228Y-28852441D01*
X26687225Y-28852446D01*
X26597170Y-28995768D01*
X26594211Y-29000478D01*
X26592375Y-29005724D01*
X26592373Y-29005729D01*
X26536468Y-29165496D01*
X26536466Y-29165501D01*
X26534632Y-29170745D01*
X26534010Y-29176259D01*
X26534009Y-29176267D01*
X26528378Y-29226251D01*
X26505997Y-29278614D01*
X26458472Y-29309984D01*
X26401528Y-29309984D01*
X26354003Y-29278614D01*
X26331622Y-29226251D01*
X26325990Y-29176267D01*
X26325368Y-29170745D01*
X26265789Y-29000478D01*
X26169816Y-28847738D01*
X26042262Y-28720184D01*
X25889522Y-28624211D01*
X25884271Y-28622373D01*
X25884270Y-28622373D01*
X25724503Y-28566468D01*
X25724500Y-28566467D01*
X25719255Y-28564632D01*
X25713738Y-28564010D01*
X25713732Y-28564009D01*
X25545520Y-28545057D01*
X25540000Y-28544435D01*
X25534480Y-28545057D01*
X25366267Y-28564009D01*
X25366259Y-28564010D01*
X25360745Y-28564632D01*
X25355501Y-28566466D01*
X25355496Y-28566468D01*
X25195729Y-28622373D01*
X25195724Y-28622375D01*
X25190478Y-28624211D01*
X25185771Y-28627168D01*
X25185768Y-28627170D01*
X25042446Y-28717225D01*
X25042441Y-28717228D01*
X25037738Y-28720184D01*
X25033811Y-28724110D01*
X25033807Y-28724114D01*
X24914114Y-28843807D01*
X24914110Y-28843811D01*
X24910184Y-28847738D01*
X24907228Y-28852441D01*
X24907225Y-28852446D01*
X24817170Y-28995768D01*
X24814211Y-29000478D01*
X24812375Y-29005724D01*
X24812373Y-29005729D01*
X24756468Y-29165496D01*
X24756466Y-29165501D01*
X24754632Y-29170745D01*
X24754010Y-29176259D01*
X24754009Y-29176267D01*
X24748378Y-29226251D01*
X24725997Y-29278614D01*
X24678472Y-29309984D01*
X24621528Y-29309984D01*
X24574003Y-29278614D01*
X24551622Y-29226251D01*
X24545990Y-29176267D01*
X24545368Y-29170745D01*
X24485789Y-29000478D01*
X24389816Y-28847738D01*
X24262262Y-28720184D01*
X24109522Y-28624211D01*
X24104271Y-28622373D01*
X24104270Y-28622373D01*
X23944503Y-28566468D01*
X23944500Y-28566467D01*
X23939255Y-28564632D01*
X23933738Y-28564010D01*
X23933732Y-28564009D01*
X23765520Y-28545057D01*
X23760000Y-28544435D01*
X23754480Y-28545057D01*
X23586267Y-28564009D01*
X23586259Y-28564010D01*
X23580745Y-28564632D01*
X23575501Y-28566466D01*
X23575496Y-28566468D01*
X23415729Y-28622373D01*
X23415724Y-28622375D01*
X23410478Y-28624211D01*
X23405771Y-28627168D01*
X23405768Y-28627170D01*
X23262446Y-28717225D01*
X23262441Y-28717228D01*
X23257738Y-28720184D01*
X23253811Y-28724110D01*
X23253807Y-28724114D01*
X23134114Y-28843807D01*
X23134110Y-28843811D01*
X23130184Y-28847738D01*
X23127228Y-28852441D01*
X23127225Y-28852446D01*
X23037170Y-28995768D01*
X23034211Y-29000478D01*
X23032375Y-29005724D01*
X23032373Y-29005729D01*
X22976468Y-29165496D01*
X22976466Y-29165501D01*
X22974632Y-29170745D01*
X22974010Y-29176259D01*
X22974009Y-29176267D01*
X22968378Y-29226251D01*
X22945997Y-29278614D01*
X22898472Y-29309984D01*
X22841528Y-29309984D01*
X22794003Y-29278614D01*
X22771622Y-29226251D01*
X22765990Y-29176267D01*
X22765368Y-29170745D01*
X22705789Y-29000478D01*
X22609816Y-28847738D01*
X22482262Y-28720184D01*
X22329522Y-28624211D01*
X22324271Y-28622373D01*
X22324270Y-28622373D01*
X22164503Y-28566468D01*
X22164500Y-28566467D01*
X22159255Y-28564632D01*
X22153738Y-28564010D01*
X22153732Y-28564009D01*
X21985520Y-28545057D01*
X21980000Y-28544435D01*
X21974480Y-28545057D01*
X21806267Y-28564009D01*
X21806259Y-28564010D01*
X21800745Y-28564632D01*
X21795501Y-28566466D01*
X21795496Y-28566468D01*
X21635729Y-28622373D01*
X21635724Y-28622375D01*
X21630478Y-28624211D01*
X21625771Y-28627168D01*
X21625768Y-28627170D01*
X21482446Y-28717225D01*
X21482441Y-28717228D01*
X21477738Y-28720184D01*
X21473811Y-28724110D01*
X21473807Y-28724114D01*
X21354114Y-28843807D01*
X21354110Y-28843811D01*
X21350184Y-28847738D01*
X21347228Y-28852441D01*
X21347225Y-28852446D01*
X21257170Y-28995768D01*
X21254211Y-29000478D01*
X21252375Y-29005724D01*
X21252373Y-29005729D01*
X21196468Y-29165496D01*
X21196466Y-29165501D01*
X21194632Y-29170745D01*
X21194010Y-29176259D01*
X21194009Y-29176267D01*
X21182478Y-29278614D01*
X21174435Y-29350000D01*
X13025499Y-29350000D01*
X13025499Y-25331111D01*
X13044309Y-25273057D01*
X13093592Y-25237062D01*
X13154619Y-25236807D01*
X13204201Y-25272389D01*
X13232461Y-25310743D01*
X13315823Y-25423883D01*
X13520636Y-25635657D01*
X13751847Y-25818243D01*
X14005332Y-25968382D01*
X14276567Y-26083396D01*
X14560711Y-26161231D01*
X14852695Y-26200499D01*
X15071911Y-26200499D01*
X15073572Y-26200499D01*
X15293955Y-26185746D01*
X15582664Y-26127063D01*
X15860975Y-26030423D01*
X16123922Y-25897550D01*
X16366813Y-25730815D01*
X16585313Y-25533194D01*
X16775523Y-25308212D01*
X16934048Y-25059886D01*
X17058061Y-24792646D01*
X17145347Y-24511261D01*
X17194350Y-24220753D01*
X17204194Y-23926305D01*
X17174705Y-23633172D01*
X17106408Y-23346585D01*
X17000522Y-23071659D01*
X16858937Y-22813299D01*
X16684179Y-22576115D01*
X16479366Y-22364341D01*
X16476769Y-22362290D01*
X16476767Y-22362288D01*
X16250752Y-22183806D01*
X16248155Y-22181755D01*
X16245312Y-22180071D01*
X16245309Y-22180069D01*
X15997512Y-22033299D01*
X15997508Y-22033297D01*
X15994670Y-22031616D01*
X15991628Y-22030326D01*
X15991626Y-22030325D01*
X15726484Y-21917895D01*
X15726485Y-21917895D01*
X15723435Y-21916602D01*
X15568004Y-21874025D01*
X15442486Y-21839642D01*
X15442483Y-21839641D01*
X15439291Y-21838767D01*
X15436012Y-21838326D01*
X15150582Y-21799939D01*
X15150575Y-21799938D01*
X15147307Y-21799499D01*
X14926430Y-21799499D01*
X14924800Y-21799608D01*
X14924773Y-21799609D01*
X14709341Y-21814031D01*
X14709333Y-21814031D01*
X14706047Y-21814252D01*
X14702811Y-21814909D01*
X14702809Y-21814910D01*
X14420587Y-21872274D01*
X14420578Y-21872276D01*
X14417338Y-21872935D01*
X14414211Y-21874020D01*
X14414203Y-21874023D01*
X14142164Y-21968485D01*
X14142154Y-21968488D01*
X14139027Y-21969575D01*
X14136077Y-21971065D01*
X14136062Y-21971072D01*
X13879034Y-22100955D01*
X13879030Y-22100956D01*
X13876080Y-22102448D01*
X13873361Y-22104314D01*
X13873355Y-22104318D01*
X13635911Y-22267314D01*
X13635906Y-22267317D01*
X13633189Y-22269183D01*
X13630748Y-22271390D01*
X13630740Y-22271397D01*
X13417134Y-22464592D01*
X13417132Y-22464594D01*
X13414689Y-22466804D01*
X13412561Y-22469320D01*
X13412558Y-22469324D01*
X13226617Y-22689256D01*
X13226616Y-22689258D01*
X13224479Y-22691786D01*
X13222696Y-22694578D01*
X13222696Y-22694579D01*
X13207946Y-22717684D01*
X13170913Y-22751859D01*
X13121853Y-22763377D01*
X13073480Y-22749252D01*
X13038327Y-22713146D01*
X13025501Y-22664412D01*
X13025501Y-21799499D01*
X13025502Y-17899998D01*
X17244869Y-17899998D01*
X17245877Y-17907009D01*
X17262296Y-18021210D01*
X17262297Y-18021212D01*
X17263305Y-18028224D01*
X17317120Y-18146061D01*
X17401953Y-18243965D01*
X17510933Y-18314002D01*
X17635230Y-18350498D01*
X17684523Y-18350498D01*
X17722409Y-18358034D01*
X17754527Y-18379495D01*
X18199892Y-18824861D01*
X18203368Y-18828856D01*
X18206043Y-18834228D01*
X18229110Y-18855257D01*
X18240726Y-18865846D01*
X18244033Y-18869003D01*
X18257204Y-18882174D01*
X18260974Y-18884757D01*
X18264497Y-18887682D01*
X18264363Y-18887843D01*
X18268040Y-18890746D01*
X18289068Y-18909916D01*
X18298227Y-18913464D01*
X18318417Y-18924105D01*
X18326520Y-18929656D01*
X18335448Y-18931755D01*
X18335451Y-18931757D01*
X18354208Y-18936169D01*
X18367307Y-18940225D01*
X18393828Y-18950500D01*
X18403654Y-18950500D01*
X18426319Y-18953129D01*
X18435882Y-18955379D01*
X18444965Y-18954111D01*
X18444969Y-18954112D01*
X18464052Y-18951450D01*
X18477731Y-18950500D01*
X18499088Y-18950500D01*
X18551758Y-18965673D01*
X18582800Y-19000408D01*
X18584211Y-18999522D01*
X18680184Y-19152262D01*
X18807738Y-19279816D01*
X18960478Y-19375789D01*
X19130745Y-19435368D01*
X19310000Y-19455565D01*
X19489255Y-19435368D01*
X19659522Y-19375789D01*
X19812262Y-19279816D01*
X19939816Y-19152262D01*
X20035789Y-18999522D01*
X20095368Y-18829255D01*
X20101622Y-18773747D01*
X20124003Y-18721385D01*
X20171528Y-18690015D01*
X20228472Y-18690015D01*
X20275997Y-18721385D01*
X20298378Y-18773748D01*
X20304009Y-18823732D01*
X20304010Y-18823738D01*
X20304632Y-18829255D01*
X20306467Y-18834500D01*
X20306468Y-18834503D01*
X20362373Y-18994270D01*
X20364211Y-18999522D01*
X20460184Y-19152262D01*
X20587738Y-19279816D01*
X20740478Y-19375789D01*
X20910745Y-19435368D01*
X21090000Y-19455565D01*
X21269255Y-19435368D01*
X21439522Y-19375789D01*
X21592262Y-19279816D01*
X21719816Y-19152262D01*
X21815789Y-18999522D01*
X21875368Y-18829255D01*
X21881622Y-18773747D01*
X21904003Y-18721385D01*
X21951528Y-18690015D01*
X22008472Y-18690015D01*
X22055997Y-18721385D01*
X22078378Y-18773748D01*
X22084009Y-18823732D01*
X22084010Y-18823738D01*
X22084632Y-18829255D01*
X22086467Y-18834500D01*
X22086468Y-18834503D01*
X22142373Y-18994270D01*
X22144211Y-18999522D01*
X22240184Y-19152262D01*
X22367738Y-19279816D01*
X22520478Y-19375789D01*
X22690745Y-19435368D01*
X22870000Y-19455565D01*
X23049255Y-19435368D01*
X23219522Y-19375789D01*
X23372262Y-19279816D01*
X23499816Y-19152262D01*
X23595789Y-18999522D01*
X23655368Y-18829255D01*
X23661622Y-18773747D01*
X23684003Y-18721385D01*
X23731528Y-18690015D01*
X23788472Y-18690015D01*
X23835997Y-18721385D01*
X23858378Y-18773748D01*
X23864009Y-18823732D01*
X23864010Y-18823738D01*
X23864632Y-18829255D01*
X23866467Y-18834500D01*
X23866468Y-18834503D01*
X23922373Y-18994270D01*
X23924211Y-18999522D01*
X24020184Y-19152262D01*
X24147738Y-19279816D01*
X24300478Y-19375789D01*
X24470745Y-19435368D01*
X24650000Y-19455565D01*
X24829255Y-19435368D01*
X24999522Y-19375789D01*
X25152262Y-19279816D01*
X25279816Y-19152262D01*
X25375789Y-18999522D01*
X25435368Y-18829255D01*
X25441622Y-18773747D01*
X25464003Y-18721385D01*
X25511528Y-18690015D01*
X25568472Y-18690015D01*
X25615997Y-18721385D01*
X25638378Y-18773748D01*
X25644009Y-18823732D01*
X25644010Y-18823738D01*
X25644632Y-18829255D01*
X25646467Y-18834500D01*
X25646468Y-18834503D01*
X25702373Y-18994270D01*
X25704211Y-18999522D01*
X25800184Y-19152262D01*
X25927738Y-19279816D01*
X26080478Y-19375789D01*
X26250745Y-19435368D01*
X26430000Y-19455565D01*
X26609255Y-19435368D01*
X26779522Y-19375789D01*
X26932262Y-19279816D01*
X27059816Y-19152262D01*
X27155789Y-18999522D01*
X27215368Y-18829255D01*
X27221622Y-18773747D01*
X27244003Y-18721385D01*
X27291528Y-18690015D01*
X27348472Y-18690015D01*
X27395997Y-18721385D01*
X27418378Y-18773748D01*
X27424009Y-18823732D01*
X27424010Y-18823738D01*
X27424632Y-18829255D01*
X27426467Y-18834500D01*
X27426468Y-18834503D01*
X27482373Y-18994270D01*
X27484211Y-18999522D01*
X27580184Y-19152262D01*
X27707738Y-19279816D01*
X27860478Y-19375789D01*
X28030745Y-19435368D01*
X28210000Y-19455565D01*
X28389255Y-19435368D01*
X28559522Y-19375789D01*
X28712262Y-19279816D01*
X28839816Y-19152262D01*
X28935789Y-18999522D01*
X28995368Y-18829255D01*
X29001622Y-18773747D01*
X29024003Y-18721385D01*
X29071528Y-18690015D01*
X29128472Y-18690015D01*
X29175997Y-18721385D01*
X29198378Y-18773748D01*
X29204009Y-18823732D01*
X29204010Y-18823738D01*
X29204632Y-18829255D01*
X29206467Y-18834500D01*
X29206468Y-18834503D01*
X29262373Y-18994270D01*
X29264211Y-18999522D01*
X29360184Y-19152262D01*
X29487738Y-19279816D01*
X29640478Y-19375789D01*
X29810745Y-19435368D01*
X29990000Y-19455565D01*
X30169255Y-19435368D01*
X30339522Y-19375789D01*
X30492262Y-19279816D01*
X30619816Y-19152262D01*
X30715789Y-18999522D01*
X30775368Y-18829255D01*
X30781622Y-18773747D01*
X30804003Y-18721385D01*
X30851528Y-18690015D01*
X30908472Y-18690015D01*
X30955997Y-18721385D01*
X30978378Y-18773748D01*
X30984009Y-18823732D01*
X30984010Y-18823738D01*
X30984632Y-18829255D01*
X30986467Y-18834500D01*
X30986468Y-18834503D01*
X31042373Y-18994270D01*
X31044211Y-18999522D01*
X31140184Y-19152262D01*
X31267738Y-19279816D01*
X31420478Y-19375789D01*
X31590745Y-19435368D01*
X31770000Y-19455565D01*
X31949255Y-19435368D01*
X32119522Y-19375789D01*
X32272262Y-19279816D01*
X32399816Y-19152262D01*
X32495789Y-18999522D01*
X32555368Y-18829255D01*
X32575565Y-18650000D01*
X32555368Y-18470745D01*
X32495789Y-18300478D01*
X32399816Y-18147738D01*
X32272262Y-18020184D01*
X32213600Y-17983324D01*
X32179093Y-17946412D01*
X32167297Y-17897278D01*
X32181286Y-17848722D01*
X32217415Y-17813395D01*
X32266271Y-17800499D01*
X33337464Y-17800499D01*
X33375350Y-17808035D01*
X33407468Y-17829495D01*
X34970504Y-19392530D01*
X34991964Y-19424648D01*
X34999500Y-19462534D01*
X34999500Y-19838368D01*
X34981241Y-19895656D01*
X34933198Y-19931812D01*
X34873094Y-19933499D01*
X34823099Y-19900094D01*
X34819560Y-19895656D01*
X34803936Y-19876064D01*
X34711352Y-19802231D01*
X34604660Y-19750851D01*
X34584064Y-19746150D01*
X34494632Y-19725737D01*
X34494627Y-19725736D01*
X34489210Y-19724500D01*
X34435072Y-19724500D01*
X18688285Y-19724500D01*
X18680000Y-19724500D01*
X18620790Y-19724500D01*
X18615373Y-19725736D01*
X18615367Y-19725737D01*
X18510759Y-19749614D01*
X18510757Y-19749614D01*
X18505340Y-19750851D01*
X18500335Y-19753261D01*
X18500330Y-19753263D01*
X18403658Y-19799818D01*
X18403655Y-19799819D01*
X18398648Y-19802231D01*
X18394300Y-19805698D01*
X18394299Y-19805699D01*
X18310418Y-19872591D01*
X18310413Y-19872595D01*
X18306064Y-19876064D01*
X18302595Y-19880413D01*
X18302591Y-19880418D01*
X18260261Y-19933499D01*
X18232231Y-19968648D01*
X18229819Y-19973655D01*
X18229818Y-19973658D01*
X18183263Y-20070330D01*
X18183261Y-20070335D01*
X18180851Y-20075340D01*
X18179614Y-20080757D01*
X18179614Y-20080759D01*
X18155737Y-20185367D01*
X18155736Y-20185373D01*
X18154500Y-20190790D01*
X18154500Y-20244928D01*
X18154500Y-27741715D01*
X18154500Y-27750000D01*
X18154500Y-27809210D01*
X18155736Y-27814627D01*
X18155737Y-27814632D01*
X18169016Y-27872810D01*
X18180851Y-27924660D01*
X18232231Y-28031352D01*
X18306064Y-28123936D01*
X18398648Y-28197769D01*
X18505340Y-28249149D01*
X18620790Y-28275500D01*
X18674928Y-28275500D01*
X18680000Y-28275500D01*
X18688285Y-28275500D01*
X34421715Y-28275500D01*
X34435072Y-28275500D01*
X34483647Y-28275500D01*
X34489210Y-28275500D01*
X34604660Y-28249149D01*
X34711352Y-28197769D01*
X34803936Y-28123936D01*
X34823100Y-28099904D01*
X34873091Y-28066500D01*
X34933196Y-28068185D01*
X34981240Y-28104341D01*
X34999500Y-28161630D01*
X34999500Y-29834522D01*
X34991964Y-29872408D01*
X34970504Y-29904526D01*
X33304527Y-31570503D01*
X33272409Y-31591963D01*
X33234523Y-31599499D01*
X27333199Y-31599499D01*
X27327926Y-31599133D01*
X27322237Y-31597226D01*
X27313072Y-31597649D01*
X27313068Y-31597649D01*
X27275360Y-31599393D01*
X27270788Y-31599499D01*
X27252157Y-31599499D01*
X27247657Y-31600339D01*
X27243102Y-31600762D01*
X27243084Y-31600570D01*
X27238422Y-31601100D01*
X27219174Y-31601990D01*
X27219172Y-31601990D01*
X27210010Y-31602414D01*
X27201624Y-31606116D01*
X27201617Y-31606118D01*
X27201013Y-31606386D01*
X27179229Y-31613131D01*
X27178588Y-31613250D01*
X27178580Y-31613253D01*
X27169568Y-31614938D01*
X27161772Y-31619764D01*
X27161766Y-31619767D01*
X27145383Y-31629911D01*
X27133259Y-31636302D01*
X27115626Y-31644087D01*
X27115620Y-31644090D01*
X27107236Y-31647793D01*
X27100752Y-31654275D01*
X27100746Y-31654280D01*
X27100280Y-31654747D01*
X27082416Y-31668897D01*
X27081850Y-31669247D01*
X27081842Y-31669253D01*
X27074049Y-31674080D01*
X27068525Y-31681394D01*
X27068519Y-31681400D01*
X27056904Y-31696781D01*
X27047906Y-31707121D01*
X26272308Y-32482717D01*
X26218535Y-32510374D01*
X26158706Y-32501596D01*
X26066320Y-32456278D01*
X26066313Y-32456275D01*
X26061817Y-32454070D01*
X26056970Y-32452815D01*
X26056962Y-32452812D01*
X25879534Y-32406873D01*
X25879533Y-32406872D01*
X25874675Y-32405615D01*
X25869665Y-32405360D01*
X25869659Y-32405360D01*
X25686627Y-32396078D01*
X25686623Y-32396078D01*
X25681611Y-32395824D01*
X25676653Y-32396583D01*
X25676643Y-32396584D01*
X25495495Y-32424335D01*
X25495486Y-32424337D01*
X25490527Y-32425097D01*
X25485818Y-32426840D01*
X25485814Y-32426842D01*
X25313959Y-32490490D01*
X25313948Y-32490494D01*
X25309248Y-32492236D01*
X25304989Y-32494890D01*
X25304984Y-32494893D01*
X25149455Y-32591834D01*
X25149447Y-32591839D01*
X25145194Y-32594491D01*
X25141562Y-32597942D01*
X25141556Y-32597948D01*
X25008717Y-32724221D01*
X25008713Y-32724224D01*
X25005082Y-32727677D01*
X25002222Y-32731785D01*
X25002216Y-32731793D01*
X24897516Y-32882220D01*
X24897512Y-32882227D01*
X24894648Y-32886342D01*
X24892669Y-32890953D01*
X24892666Y-32890959D01*
X24820391Y-33059379D01*
X24820388Y-33059386D01*
X24818414Y-33063988D01*
X24817406Y-33068888D01*
X24817404Y-33068898D01*
X24798133Y-33162677D01*
X24779501Y-33253344D01*
X24779501Y-33598206D01*
X24779754Y-33600703D01*
X24779755Y-33600704D01*
X24793647Y-33737322D01*
X24793648Y-33737328D01*
X24794156Y-33742321D01*
X24795658Y-33747108D01*
X24795659Y-33747113D01*
X24849661Y-33919227D01*
X24852027Y-33926768D01*
X24854460Y-33931152D01*
X24854463Y-33931158D01*
X24943274Y-34091164D01*
X24945842Y-34095791D01*
X24949112Y-34099600D01*
X25068492Y-34238661D01*
X25068496Y-34238664D01*
X25071761Y-34242468D01*
X25224628Y-34360796D01*
X25398185Y-34445930D01*
X25403037Y-34447186D01*
X25403039Y-34447187D01*
X25444660Y-34457963D01*
X25585327Y-34494385D01*
X25778391Y-34504176D01*
X25969475Y-34474903D01*
X26150754Y-34407764D01*
X26314808Y-34305509D01*
X26454920Y-34172323D01*
X26565354Y-34013658D01*
X26641588Y-33836012D01*
X26680501Y-33646656D01*
X26680501Y-33598206D01*
X27319501Y-33598206D01*
X27319754Y-33600703D01*
X27319755Y-33600704D01*
X27333647Y-33737322D01*
X27333648Y-33737328D01*
X27334156Y-33742321D01*
X27335658Y-33747108D01*
X27335659Y-33747113D01*
X27389661Y-33919227D01*
X27392027Y-33926768D01*
X27394460Y-33931152D01*
X27394463Y-33931158D01*
X27483274Y-34091164D01*
X27485842Y-34095791D01*
X27489112Y-34099600D01*
X27608492Y-34238661D01*
X27608496Y-34238664D01*
X27611761Y-34242468D01*
X27764628Y-34360796D01*
X27938185Y-34445930D01*
X27943037Y-34447186D01*
X27943039Y-34447187D01*
X27984660Y-34457963D01*
X28125327Y-34494385D01*
X28318391Y-34504176D01*
X28509475Y-34474903D01*
X28690754Y-34407764D01*
X28854808Y-34305509D01*
X28994920Y-34172323D01*
X29105354Y-34013658D01*
X29181588Y-33836012D01*
X29220501Y-33646656D01*
X29220501Y-33301794D01*
X29205846Y-33157679D01*
X29147975Y-32973232D01*
X29134472Y-32948905D01*
X29088428Y-32865948D01*
X29054160Y-32804209D01*
X29001348Y-32742691D01*
X28931509Y-32661338D01*
X28931505Y-32661334D01*
X28928241Y-32657532D01*
X28775374Y-32539204D01*
X28770869Y-32536994D01*
X28606319Y-32456278D01*
X28606316Y-32456276D01*
X28601817Y-32454070D01*
X28596970Y-32452815D01*
X28596962Y-32452812D01*
X28419534Y-32406873D01*
X28419533Y-32406872D01*
X28414675Y-32405615D01*
X28409665Y-32405360D01*
X28409659Y-32405360D01*
X28271857Y-32398372D01*
X28236764Y-32385172D01*
X28211603Y-32397357D01*
X28035494Y-32424336D01*
X28035493Y-32424336D01*
X28030527Y-32425097D01*
X28025818Y-32426840D01*
X28025814Y-32426842D01*
X27853959Y-32490490D01*
X27853948Y-32490494D01*
X27849248Y-32492236D01*
X27844989Y-32494890D01*
X27844984Y-32494893D01*
X27689455Y-32591834D01*
X27689447Y-32591839D01*
X27685194Y-32594491D01*
X27681562Y-32597942D01*
X27681556Y-32597948D01*
X27548717Y-32724221D01*
X27548713Y-32724224D01*
X27545082Y-32727677D01*
X27542222Y-32731785D01*
X27542216Y-32731793D01*
X27437516Y-32882220D01*
X27437512Y-32882227D01*
X27434648Y-32886342D01*
X27432669Y-32890953D01*
X27432666Y-32890959D01*
X27360391Y-33059379D01*
X27360388Y-33059386D01*
X27358414Y-33063988D01*
X27357406Y-33068888D01*
X27357404Y-33068898D01*
X27338133Y-33162677D01*
X27319501Y-33253344D01*
X27319501Y-33598206D01*
X26680501Y-33598206D01*
X26680501Y-33301794D01*
X26665846Y-33157679D01*
X26656673Y-33128444D01*
X26631605Y-33048546D01*
X26629919Y-32995311D01*
X26656060Y-32948907D01*
X27375476Y-32229493D01*
X27407591Y-32208035D01*
X27445476Y-32200499D01*
X28196611Y-32200499D01*
X28237453Y-32213086D01*
X28276870Y-32200499D01*
X30736609Y-32200499D01*
X30777457Y-32213088D01*
X30816880Y-32200499D01*
X31395525Y-32200499D01*
X31450523Y-32217184D01*
X31486986Y-32261613D01*
X31492620Y-32318813D01*
X31465526Y-32369503D01*
X31352311Y-32482718D01*
X31298537Y-32510375D01*
X31238708Y-32501597D01*
X31146320Y-32456278D01*
X31146313Y-32456275D01*
X31141817Y-32454070D01*
X31136970Y-32452815D01*
X31136962Y-32452812D01*
X30959534Y-32406873D01*
X30959533Y-32406872D01*
X30954675Y-32405615D01*
X30949665Y-32405360D01*
X30949659Y-32405360D01*
X30811868Y-32398372D01*
X30776767Y-32385169D01*
X30751599Y-32397357D01*
X30575494Y-32424336D01*
X30575493Y-32424336D01*
X30570527Y-32425097D01*
X30565818Y-32426840D01*
X30565814Y-32426842D01*
X30393959Y-32490490D01*
X30393948Y-32490494D01*
X30389248Y-32492236D01*
X30384989Y-32494890D01*
X30384984Y-32494893D01*
X30229455Y-32591834D01*
X30229447Y-32591839D01*
X30225194Y-32594491D01*
X30221562Y-32597942D01*
X30221556Y-32597948D01*
X30088717Y-32724221D01*
X30088713Y-32724224D01*
X30085082Y-32727677D01*
X30082222Y-32731785D01*
X30082216Y-32731793D01*
X29977516Y-32882220D01*
X29977512Y-32882227D01*
X29974648Y-32886342D01*
X29972669Y-32890953D01*
X29972666Y-32890959D01*
X29900391Y-33059379D01*
X29900388Y-33059386D01*
X29898414Y-33063988D01*
X29897406Y-33068888D01*
X29897404Y-33068898D01*
X29878133Y-33162677D01*
X29859501Y-33253344D01*
X29859501Y-33598206D01*
X29859754Y-33600703D01*
X29859755Y-33600704D01*
X29873647Y-33737322D01*
X29873648Y-33737328D01*
X29874156Y-33742321D01*
X29875658Y-33747108D01*
X29875659Y-33747113D01*
X29929661Y-33919227D01*
X29932027Y-33926768D01*
X29934460Y-33931152D01*
X29934463Y-33931158D01*
X30023274Y-34091164D01*
X30025842Y-34095791D01*
X30029112Y-34099600D01*
X30148492Y-34238661D01*
X30148496Y-34238664D01*
X30151761Y-34242468D01*
X30304628Y-34360796D01*
X30478185Y-34445930D01*
X30483037Y-34447186D01*
X30483039Y-34447187D01*
X30524660Y-34457963D01*
X30665327Y-34494385D01*
X30858391Y-34504176D01*
X31049475Y-34474903D01*
X31230754Y-34407764D01*
X31394808Y-34305509D01*
X31534920Y-34172323D01*
X31645354Y-34013658D01*
X31721588Y-33836012D01*
X31760501Y-33646656D01*
X31760501Y-33301794D01*
X31745846Y-33157679D01*
X31744342Y-33152886D01*
X31744341Y-33152880D01*
X31711606Y-33048550D01*
X31709919Y-32995314D01*
X31736060Y-32948910D01*
X32055477Y-32629495D01*
X32087596Y-32608035D01*
X32125481Y-32600499D01*
X32524074Y-32600499D01*
X32575373Y-32614827D01*
X32611824Y-32653662D01*
X32622875Y-32705765D01*
X32605330Y-32756054D01*
X32517519Y-32882215D01*
X32517513Y-32882225D01*
X32514648Y-32886342D01*
X32512669Y-32890953D01*
X32512666Y-32890959D01*
X32440391Y-33059379D01*
X32440388Y-33059386D01*
X32438414Y-33063988D01*
X32437406Y-33068888D01*
X32437404Y-33068898D01*
X32418133Y-33162677D01*
X32399501Y-33253344D01*
X32399501Y-33598206D01*
X32399754Y-33600703D01*
X32399755Y-33600704D01*
X32413647Y-33737322D01*
X32413648Y-33737328D01*
X32414156Y-33742321D01*
X32415658Y-33747108D01*
X32415659Y-33747113D01*
X32469661Y-33919227D01*
X32472027Y-33926768D01*
X32474460Y-33931152D01*
X32474463Y-33931158D01*
X32563274Y-34091164D01*
X32565842Y-34095791D01*
X32569112Y-34099600D01*
X32688492Y-34238661D01*
X32688496Y-34238664D01*
X32691761Y-34242468D01*
X32844628Y-34360796D01*
X33018185Y-34445930D01*
X33023037Y-34447186D01*
X33023039Y-34447187D01*
X33064660Y-34457963D01*
X33205327Y-34494385D01*
X33398391Y-34504176D01*
X33589475Y-34474903D01*
X33770754Y-34407764D01*
X33934808Y-34305509D01*
X34074920Y-34172323D01*
X34185354Y-34013658D01*
X34261588Y-33836012D01*
X34300501Y-33646656D01*
X34300501Y-33598206D01*
X34939501Y-33598206D01*
X34939754Y-33600703D01*
X34939755Y-33600704D01*
X34953647Y-33737322D01*
X34953648Y-33737328D01*
X34954156Y-33742321D01*
X34955658Y-33747108D01*
X34955659Y-33747113D01*
X35009661Y-33919227D01*
X35012027Y-33926768D01*
X35014460Y-33931152D01*
X35014463Y-33931158D01*
X35103274Y-34091164D01*
X35105842Y-34095791D01*
X35109112Y-34099600D01*
X35228492Y-34238661D01*
X35228496Y-34238664D01*
X35231761Y-34242468D01*
X35384628Y-34360796D01*
X35558185Y-34445930D01*
X35563037Y-34447186D01*
X35563039Y-34447187D01*
X35604660Y-34457963D01*
X35745327Y-34494385D01*
X35938391Y-34504176D01*
X36129475Y-34474903D01*
X36310754Y-34407764D01*
X36474808Y-34305509D01*
X36614920Y-34172323D01*
X36725354Y-34013658D01*
X36801588Y-33836012D01*
X36840501Y-33646656D01*
X36840501Y-33301794D01*
X36825846Y-33157679D01*
X36767975Y-32973232D01*
X36754472Y-32948905D01*
X36708428Y-32865948D01*
X36674160Y-32804209D01*
X36621348Y-32742691D01*
X36551509Y-32661338D01*
X36551505Y-32661334D01*
X36548241Y-32657532D01*
X36395374Y-32539204D01*
X36390869Y-32536994D01*
X36226319Y-32456278D01*
X36226316Y-32456276D01*
X36221817Y-32454070D01*
X36216970Y-32452815D01*
X36216962Y-32452812D01*
X36039534Y-32406873D01*
X36039533Y-32406872D01*
X36034675Y-32405615D01*
X36029665Y-32405360D01*
X36029659Y-32405360D01*
X35846627Y-32396078D01*
X35846623Y-32396078D01*
X35841611Y-32395824D01*
X35836653Y-32396583D01*
X35836643Y-32396584D01*
X35655495Y-32424335D01*
X35655486Y-32424337D01*
X35650527Y-32425097D01*
X35645818Y-32426840D01*
X35645814Y-32426842D01*
X35473959Y-32490490D01*
X35473948Y-32490494D01*
X35469248Y-32492236D01*
X35464989Y-32494890D01*
X35464984Y-32494893D01*
X35309455Y-32591834D01*
X35309447Y-32591839D01*
X35305194Y-32594491D01*
X35301562Y-32597942D01*
X35301556Y-32597948D01*
X35168717Y-32724221D01*
X35168713Y-32724224D01*
X35165082Y-32727677D01*
X35162222Y-32731785D01*
X35162216Y-32731793D01*
X35057516Y-32882220D01*
X35057512Y-32882227D01*
X35054648Y-32886342D01*
X35052669Y-32890953D01*
X35052666Y-32890959D01*
X34980391Y-33059379D01*
X34980388Y-33059386D01*
X34978414Y-33063988D01*
X34977406Y-33068888D01*
X34977404Y-33068898D01*
X34958133Y-33162677D01*
X34939501Y-33253344D01*
X34939501Y-33598206D01*
X34300501Y-33598206D01*
X34300501Y-33301794D01*
X34285846Y-33157679D01*
X34227975Y-32973232D01*
X34214472Y-32948905D01*
X34168428Y-32865948D01*
X34134160Y-32804209D01*
X34130891Y-32800402D01*
X34130889Y-32800398D01*
X34099629Y-32763985D01*
X34076706Y-32713249D01*
X34084787Y-32658165D01*
X34121319Y-32616153D01*
X34174746Y-32600499D01*
X34646801Y-32600499D01*
X34652073Y-32600864D01*
X34657764Y-32602772D01*
X34704640Y-32600605D01*
X34709213Y-32600499D01*
X34723265Y-32600499D01*
X34727844Y-32600499D01*
X34732344Y-32599657D01*
X34736907Y-32599234D01*
X34736926Y-32599445D01*
X34741572Y-32598897D01*
X34769991Y-32597584D01*
X34778975Y-32593616D01*
X34800782Y-32586863D01*
X34810433Y-32585060D01*
X34834623Y-32570081D01*
X34846731Y-32563699D01*
X34872765Y-32552205D01*
X34879713Y-32545256D01*
X34897596Y-32531091D01*
X34905952Y-32525918D01*
X34923096Y-32503214D01*
X34932082Y-32492886D01*
X36274875Y-31150095D01*
X36278854Y-31146633D01*
X36284229Y-31143958D01*
X36315879Y-31109238D01*
X36318997Y-31105973D01*
X36332175Y-31092797D01*
X36334763Y-31089017D01*
X36337689Y-31085495D01*
X36337859Y-31085636D01*
X36340750Y-31081957D01*
X36359917Y-31060933D01*
X36363466Y-31051770D01*
X36374109Y-31031580D01*
X36374473Y-31031048D01*
X36379657Y-31023481D01*
X36386167Y-30995798D01*
X36390223Y-30982701D01*
X36400501Y-30956173D01*
X36400501Y-30946348D01*
X36403131Y-30923682D01*
X36403186Y-30923446D01*
X36405380Y-30914119D01*
X36401449Y-30885946D01*
X36400501Y-30872269D01*
X36400501Y-19018888D01*
X36400866Y-19013615D01*
X36402774Y-19007925D01*
X36400607Y-18961048D01*
X36400501Y-18956476D01*
X36400501Y-18942427D01*
X36400501Y-18937846D01*
X36399658Y-18933341D01*
X36399236Y-18928786D01*
X36399447Y-18928766D01*
X36398899Y-18924121D01*
X36397586Y-18895698D01*
X36393616Y-18886707D01*
X36386867Y-18864913D01*
X36385062Y-18855257D01*
X36370089Y-18831074D01*
X36363697Y-18818947D01*
X36355912Y-18801317D01*
X36352207Y-18792925D01*
X36345258Y-18785976D01*
X36331090Y-18768088D01*
X36330749Y-18767538D01*
X36325920Y-18759738D01*
X36318600Y-18754210D01*
X36318599Y-18754209D01*
X36303223Y-18742598D01*
X36292880Y-18733598D01*
X34084414Y-16525132D01*
X34080944Y-16521144D01*
X34078270Y-16515773D01*
X34057431Y-16496776D01*
X34043586Y-16484154D01*
X34040278Y-16480996D01*
X34030341Y-16471059D01*
X34027109Y-16467827D01*
X34023335Y-16465241D01*
X34019817Y-16462320D01*
X34019945Y-16462165D01*
X34016273Y-16459254D01*
X33995245Y-16440085D01*
X33986692Y-16436771D01*
X33986690Y-16436770D01*
X33986077Y-16436533D01*
X33965898Y-16425896D01*
X33965364Y-16425530D01*
X33965359Y-16425528D01*
X33957793Y-16420345D01*
X33948865Y-16418245D01*
X33948863Y-16418244D01*
X33930108Y-16413833D01*
X33917015Y-16409778D01*
X33899039Y-16402814D01*
X33899034Y-16402813D01*
X33890485Y-16399501D01*
X33881313Y-16399500D01*
X33881310Y-16399500D01*
X33880649Y-16399500D01*
X33857999Y-16396872D01*
X33857358Y-16396721D01*
X33857356Y-16396720D01*
X33848431Y-16394622D01*
X33839352Y-16395888D01*
X33839349Y-16395888D01*
X33820255Y-16398551D01*
X33806584Y-16399499D01*
X24873197Y-16399499D01*
X24867924Y-16399133D01*
X24862235Y-16397226D01*
X24853070Y-16397649D01*
X24853066Y-16397649D01*
X24815358Y-16399393D01*
X24810786Y-16399499D01*
X24792156Y-16399499D01*
X24787656Y-16400339D01*
X24783101Y-16400762D01*
X24783083Y-16400570D01*
X24778421Y-16401100D01*
X24759172Y-16401990D01*
X24759170Y-16401990D01*
X24750008Y-16402414D01*
X24741622Y-16406116D01*
X24741615Y-16406118D01*
X24741011Y-16406386D01*
X24719227Y-16413131D01*
X24718585Y-16413250D01*
X24718575Y-16413253D01*
X24709567Y-16414938D01*
X24701771Y-16419764D01*
X24701770Y-16419765D01*
X24685381Y-16429912D01*
X24673263Y-16436299D01*
X24655626Y-16444087D01*
X24655623Y-16444088D01*
X24647235Y-16447793D01*
X24640752Y-16454275D01*
X24640744Y-16454281D01*
X24640278Y-16454748D01*
X24622413Y-16468898D01*
X24621852Y-16469245D01*
X24621843Y-16469253D01*
X24614048Y-16474080D01*
X24608524Y-16481394D01*
X24608518Y-16481400D01*
X24596907Y-16496776D01*
X24587910Y-16507116D01*
X23227429Y-17867599D01*
X23179455Y-17894113D01*
X23124729Y-17891040D01*
X23054503Y-17866467D01*
X23054492Y-17866464D01*
X23049255Y-17864632D01*
X23043740Y-17864010D01*
X23043733Y-17864009D01*
X22875520Y-17845057D01*
X22870000Y-17844435D01*
X22864480Y-17845057D01*
X22696267Y-17864009D01*
X22696259Y-17864010D01*
X22690745Y-17864632D01*
X22685501Y-17866466D01*
X22685496Y-17866468D01*
X22525729Y-17922373D01*
X22525724Y-17922375D01*
X22520478Y-17924211D01*
X22515771Y-17927168D01*
X22515768Y-17927170D01*
X22372446Y-18017225D01*
X22372441Y-18017228D01*
X22367738Y-18020184D01*
X22363811Y-18024110D01*
X22363807Y-18024114D01*
X22244114Y-18143807D01*
X22244110Y-18143811D01*
X22240184Y-18147738D01*
X22237228Y-18152441D01*
X22237225Y-18152446D01*
X22147173Y-18295764D01*
X22144211Y-18300478D01*
X22142375Y-18305724D01*
X22142373Y-18305729D01*
X22086468Y-18465496D01*
X22086467Y-18465500D01*
X22084632Y-18470745D01*
X22084010Y-18476259D01*
X22084009Y-18476267D01*
X22078378Y-18526251D01*
X22055997Y-18578614D01*
X22008472Y-18609984D01*
X21951528Y-18609984D01*
X21904003Y-18578614D01*
X21881622Y-18526251D01*
X21875990Y-18476267D01*
X21875368Y-18470745D01*
X21815789Y-18300478D01*
X21719816Y-18147738D01*
X21592262Y-18020184D01*
X21439522Y-17924211D01*
X21434271Y-17922373D01*
X21434270Y-17922373D01*
X21274503Y-17866468D01*
X21274500Y-17866467D01*
X21269255Y-17864632D01*
X21263738Y-17864010D01*
X21263732Y-17864009D01*
X21095520Y-17845057D01*
X21090000Y-17844435D01*
X21084480Y-17845057D01*
X20916267Y-17864009D01*
X20916259Y-17864010D01*
X20910745Y-17864632D01*
X20905501Y-17866466D01*
X20905496Y-17866468D01*
X20745729Y-17922373D01*
X20745724Y-17922375D01*
X20740478Y-17924211D01*
X20735771Y-17927168D01*
X20735768Y-17927170D01*
X20592446Y-18017225D01*
X20592441Y-18017228D01*
X20587738Y-18020184D01*
X20583811Y-18024110D01*
X20583807Y-18024114D01*
X20464114Y-18143807D01*
X20464110Y-18143811D01*
X20460184Y-18147738D01*
X20457228Y-18152441D01*
X20457225Y-18152446D01*
X20367173Y-18295764D01*
X20364211Y-18300478D01*
X20362375Y-18305724D01*
X20362373Y-18305729D01*
X20306468Y-18465496D01*
X20306467Y-18465500D01*
X20304632Y-18470745D01*
X20304010Y-18476259D01*
X20304009Y-18476267D01*
X20298378Y-18526251D01*
X20275997Y-18578614D01*
X20228472Y-18609984D01*
X20171528Y-18609984D01*
X20124003Y-18578614D01*
X20101622Y-18526251D01*
X20095990Y-18476267D01*
X20095368Y-18470745D01*
X20035789Y-18300478D01*
X19939816Y-18147738D01*
X19812262Y-18020184D01*
X19659522Y-17924211D01*
X19654271Y-17922373D01*
X19654270Y-17922373D01*
X19494503Y-17866468D01*
X19494500Y-17866467D01*
X19489255Y-17864632D01*
X19483738Y-17864010D01*
X19483732Y-17864009D01*
X19315520Y-17845057D01*
X19310000Y-17844435D01*
X19304480Y-17845057D01*
X19136267Y-17864009D01*
X19136259Y-17864010D01*
X19130745Y-17864632D01*
X19125501Y-17866466D01*
X19125496Y-17866468D01*
X18965729Y-17922373D01*
X18965724Y-17922375D01*
X18960478Y-17924211D01*
X18955771Y-17927168D01*
X18955768Y-17927170D01*
X18812446Y-18017225D01*
X18812441Y-18017228D01*
X18807738Y-18020184D01*
X18803811Y-18024110D01*
X18803807Y-18024114D01*
X18684114Y-18143807D01*
X18684110Y-18143811D01*
X18680184Y-18147738D01*
X18677227Y-18152443D01*
X18677223Y-18152449D01*
X18627583Y-18231450D01*
X18583347Y-18269518D01*
X18525352Y-18276052D01*
X18473754Y-18248781D01*
X18183123Y-17958149D01*
X18161663Y-17926032D01*
X18156446Y-17899809D01*
X18155135Y-17899998D01*
X18136699Y-17771772D01*
X18082884Y-17653935D01*
X17998051Y-17556031D01*
X17889071Y-17485994D01*
X17882277Y-17483999D01*
X17771565Y-17451492D01*
X17764774Y-17449498D01*
X17635230Y-17449498D01*
X17628439Y-17451491D01*
X17628438Y-17451492D01*
X17517726Y-17483999D01*
X17517723Y-17484000D01*
X17510933Y-17485994D01*
X17504980Y-17489819D01*
X17504975Y-17489822D01*
X17407910Y-17552202D01*
X17407906Y-17552204D01*
X17401953Y-17556031D01*
X17397321Y-17561376D01*
X17397317Y-17561380D01*
X17321754Y-17648586D01*
X17321751Y-17648589D01*
X17317120Y-17653935D01*
X17314181Y-17660370D01*
X17314178Y-17660375D01*
X17266248Y-17765326D01*
X17266246Y-17765331D01*
X17263305Y-17771772D01*
X17262297Y-17778780D01*
X17262296Y-17778785D01*
X17252768Y-17845057D01*
X17244869Y-17899998D01*
X13025502Y-17899998D01*
X13025502Y-14849998D01*
X33944868Y-14849998D01*
X33945876Y-14857009D01*
X33962295Y-14971210D01*
X33962296Y-14971213D01*
X33963304Y-14978224D01*
X34017119Y-15096061D01*
X34021753Y-15101409D01*
X34072041Y-15159446D01*
X34101952Y-15193965D01*
X34210932Y-15264002D01*
X34335229Y-15300498D01*
X34457695Y-15300498D01*
X34464773Y-15300498D01*
X34589070Y-15264002D01*
X34698050Y-15193965D01*
X34706104Y-15184668D01*
X34739796Y-15159446D01*
X34780924Y-15150498D01*
X35880430Y-15150498D01*
X38288001Y-15150500D01*
X38337501Y-15163764D01*
X38373738Y-15200000D01*
X38387001Y-15249500D01*
X38387001Y-17579641D01*
X38380760Y-17614237D01*
X38362822Y-17644470D01*
X38359259Y-17648581D01*
X38359256Y-17648585D01*
X38354619Y-17653937D01*
X38351676Y-17660380D01*
X38351674Y-17660384D01*
X38303747Y-17765328D01*
X38303745Y-17765333D01*
X38300804Y-17771774D01*
X38299796Y-17778782D01*
X38299795Y-17778787D01*
X38287026Y-17867600D01*
X38282368Y-17900000D01*
X38283376Y-17907009D01*
X38283376Y-17907011D01*
X38299795Y-18021212D01*
X38299796Y-18021215D01*
X38300804Y-18028226D01*
X38303746Y-18034668D01*
X38303747Y-18034671D01*
X38351676Y-18139620D01*
X38354619Y-18146063D01*
X38359253Y-18151411D01*
X38434814Y-18238615D01*
X38439452Y-18243967D01*
X38548432Y-18314004D01*
X38672729Y-18350500D01*
X38795195Y-18350500D01*
X38802273Y-18350500D01*
X38926570Y-18314004D01*
X39035550Y-18243967D01*
X39120383Y-18146063D01*
X39174198Y-18028226D01*
X39192634Y-17900000D01*
X39174198Y-17771774D01*
X39120383Y-17653937D01*
X39112180Y-17644470D01*
X39094242Y-17614237D01*
X39088001Y-17579641D01*
X39088001Y-14782858D01*
X39094242Y-14748262D01*
X39112180Y-14718029D01*
X39112731Y-14717392D01*
X39120383Y-14708562D01*
X39174198Y-14590725D01*
X39192634Y-14462499D01*
X39174198Y-14334273D01*
X39120383Y-14216436D01*
X39035550Y-14118532D01*
X38990235Y-14089410D01*
X38932527Y-14052323D01*
X38932525Y-14052322D01*
X38926570Y-14048495D01*
X38919776Y-14046500D01*
X38809064Y-14013993D01*
X38802273Y-14011999D01*
X38672729Y-14011999D01*
X38665938Y-14013992D01*
X38665937Y-14013993D01*
X38555225Y-14046500D01*
X38555222Y-14046501D01*
X38548432Y-14048495D01*
X38542479Y-14052320D01*
X38542474Y-14052323D01*
X38445409Y-14114703D01*
X38445405Y-14114705D01*
X38439452Y-14118532D01*
X38434820Y-14123877D01*
X38434816Y-14123881D01*
X38359253Y-14211087D01*
X38359250Y-14211090D01*
X38354619Y-14216436D01*
X38351680Y-14222871D01*
X38351677Y-14222876D01*
X38303747Y-14327827D01*
X38303745Y-14327832D01*
X38300804Y-14334273D01*
X38299796Y-14341281D01*
X38299795Y-14341286D01*
X38282368Y-14462499D01*
X38280242Y-14462193D01*
X38270113Y-14499999D01*
X38233876Y-14536236D01*
X38184376Y-14549498D01*
X35769139Y-14549498D01*
X34780925Y-14549498D01*
X34739796Y-14540550D01*
X34706104Y-14515327D01*
X34698050Y-14506031D01*
X34692096Y-14502204D01*
X34692093Y-14502202D01*
X34595027Y-14439822D01*
X34595025Y-14439821D01*
X34589070Y-14435994D01*
X34582276Y-14433999D01*
X34471564Y-14401492D01*
X34464773Y-14399498D01*
X34335229Y-14399498D01*
X34328438Y-14401491D01*
X34328437Y-14401492D01*
X34217725Y-14433999D01*
X34217722Y-14434000D01*
X34210932Y-14435994D01*
X34204979Y-14439819D01*
X34204974Y-14439822D01*
X34107909Y-14502202D01*
X34107905Y-14502204D01*
X34101952Y-14506031D01*
X34097320Y-14511376D01*
X34097316Y-14511380D01*
X34021753Y-14598586D01*
X34021750Y-14598589D01*
X34017119Y-14603935D01*
X34014180Y-14610370D01*
X34014177Y-14610375D01*
X33966247Y-14715326D01*
X33966245Y-14715331D01*
X33963304Y-14721772D01*
X33962296Y-14728780D01*
X33962295Y-14728785D01*
X33959830Y-14745933D01*
X33944868Y-14849998D01*
X13025502Y-14849998D01*
X13025502Y-14254294D01*
X13025877Y-14245713D01*
X13039552Y-14089405D01*
X13042544Y-14072431D01*
X13082033Y-13925061D01*
X13087932Y-13908854D01*
X13152404Y-13770591D01*
X13161023Y-13755663D01*
X13248528Y-13630694D01*
X13259611Y-13617486D01*
X13367485Y-13509611D01*
X13380693Y-13498528D01*
X13505663Y-13411024D01*
X13520594Y-13402404D01*
X13658860Y-13337929D01*
X13675056Y-13332033D01*
X13822429Y-13292545D01*
X13839403Y-13289553D01*
X13982460Y-13277037D01*
X13995751Y-13275875D01*
X14004379Y-13275498D01*
X14008287Y-13275498D01*
X39991714Y-13275498D01*
X39995680Y-13275498D01*
X40004308Y-13275875D01*
G37*
%TD.AperFunction*%
%TD*%
M02*
