%TF.GenerationSoftware,KiCad,Pcbnew,(7.0.0)*%
%TF.CreationDate,2023-03-29T09:56:29+01:00*%
%TF.ProjectId,Ogen,4f67656e-2e6b-4696-9361-645f70636258,rev?*%
%TF.SameCoordinates,Original*%
%TF.FileFunction,Soldermask,Top*%
%TF.FilePolarity,Negative*%
%FSLAX46Y46*%
G04 Gerber Fmt 4.6, Leading zero omitted, Abs format (unit mm)*
G04 Created by KiCad (PCBNEW (7.0.0)) date 2023-03-29 09:56:29*
%MOMM*%
%LPD*%
G01*
G04 APERTURE LIST*
%ADD10R,1.700000X1.700000*%
%ADD11O,1.700000X1.700000*%
%ADD12R,1.200000X1.200000*%
%ADD13C,1.200000*%
%ADD14C,4.400000*%
G04 APERTURE END LIST*
%TO.C,A1*%
G36*
X14294571Y-15303502D02*
G01*
X14301334Y-15355330D01*
X14253995Y-15464757D01*
X14216667Y-15477334D01*
X14148542Y-15406208D01*
X14132000Y-15303003D01*
X14164593Y-15185933D01*
X14216667Y-15181000D01*
X14294571Y-15303502D01*
G37*
G36*
X14852268Y-14938380D02*
G01*
X14892704Y-15075167D01*
X14839947Y-15135840D01*
X14734149Y-15107486D01*
X14682334Y-15054000D01*
X14671370Y-14912532D01*
X14687920Y-14875628D01*
X14766485Y-14853364D01*
X14852268Y-14938380D01*
G37*
G36*
X15390763Y-14584987D02*
G01*
X15386125Y-14635959D01*
X15278930Y-14764271D01*
X15237959Y-14784125D01*
X15159238Y-14761013D01*
X15163875Y-14710042D01*
X15271071Y-14581730D01*
X15312042Y-14561875D01*
X15390763Y-14584987D01*
G37*
G36*
X15686524Y-14181413D02*
G01*
X15738942Y-14298000D01*
X15684726Y-14373724D01*
X15660997Y-14376667D01*
X15545513Y-14315455D01*
X15532616Y-14297850D01*
X15536662Y-14197350D01*
X15626170Y-14153603D01*
X15686524Y-14181413D01*
G37*
G36*
X17262207Y-14271763D02*
G01*
X17264667Y-14292000D01*
X17200238Y-14374207D01*
X17180000Y-14376667D01*
X17097794Y-14312238D01*
X17095334Y-14292000D01*
X17159763Y-14209794D01*
X17180000Y-14207334D01*
X17262207Y-14271763D01*
G37*
G36*
X20577786Y-14249667D02*
G01*
X20757352Y-14249667D01*
X20764167Y-14423918D01*
X20783353Y-14468892D01*
X20794173Y-14441154D01*
X20809943Y-14237833D01*
X20795882Y-14102487D01*
X20773578Y-14055562D01*
X20759548Y-14157327D01*
X20757352Y-14249667D01*
X20577786Y-14249667D01*
X20573836Y-14165735D01*
X20589570Y-13956932D01*
X20642020Y-13834176D01*
X20679919Y-13795409D01*
X20826517Y-13728212D01*
X20901625Y-13739375D01*
X20957940Y-13859134D01*
X20983321Y-14098315D01*
X20977750Y-14409852D01*
X20941208Y-14746678D01*
X20902083Y-14951526D01*
X20859118Y-15285844D01*
X20906443Y-15500249D01*
X21038204Y-15583191D01*
X21203281Y-15545859D01*
X21376548Y-15440925D01*
X21392146Y-15336726D01*
X21286333Y-15223333D01*
X21170149Y-15058498D01*
X21193488Y-14969862D01*
X21406281Y-14969862D01*
X21443466Y-15124096D01*
X21549704Y-15287832D01*
X21700273Y-15459667D01*
X21815139Y-15555098D01*
X21836667Y-15562000D01*
X21929723Y-15501072D01*
X22074011Y-15348903D01*
X22123629Y-15287832D01*
X22249821Y-15078608D01*
X22258793Y-14945254D01*
X22158315Y-14910924D01*
X22015090Y-14964469D01*
X21806958Y-15015975D01*
X21658244Y-14964469D01*
X21480464Y-14908936D01*
X21406281Y-14969862D01*
X21193488Y-14969862D01*
X21216866Y-14881076D01*
X21328667Y-14757667D01*
X21461786Y-14654832D01*
X21562200Y-14670256D01*
X21667334Y-14757667D01*
X21799704Y-14859982D01*
X21899981Y-14845373D01*
X22008988Y-14754963D01*
X22138037Y-14653891D01*
X22234155Y-14664389D01*
X22363534Y-14781237D01*
X22484094Y-14929790D01*
X22485534Y-15061869D01*
X22435226Y-15169991D01*
X22373370Y-15375931D01*
X22417169Y-15521178D01*
X22518997Y-15562000D01*
X22563030Y-15485530D01*
X22591964Y-15288650D01*
X22598667Y-15106148D01*
X22598667Y-14650297D01*
X22987768Y-14663394D01*
X23309400Y-14710598D01*
X23486728Y-14826731D01*
X23562010Y-14990687D01*
X23627088Y-15231720D01*
X23671135Y-15488571D01*
X23683326Y-15699978D01*
X23658748Y-15800141D01*
X23580001Y-15796056D01*
X23503521Y-15672887D01*
X23453796Y-15479421D01*
X23446630Y-15377548D01*
X23387035Y-15138277D01*
X23241223Y-14954746D01*
X23061265Y-14884667D01*
X22921689Y-14960333D01*
X22814116Y-15151367D01*
X22768153Y-15403819D01*
X22768000Y-15419067D01*
X22718124Y-15623754D01*
X22639412Y-15732652D01*
X22517750Y-15790690D01*
X22385998Y-15724758D01*
X22343079Y-15687563D01*
X22210444Y-15585692D01*
X22109623Y-15602573D01*
X22007588Y-15687563D01*
X21863327Y-15786382D01*
X21746799Y-15759549D01*
X21708509Y-15730373D01*
X21589708Y-15669203D01*
X21425430Y-15679315D01*
X21231271Y-15735535D01*
X21005526Y-15800160D01*
X20879206Y-15797860D01*
X20795074Y-15725983D01*
X20786844Y-15714957D01*
X20694876Y-15629348D01*
X20573162Y-15645188D01*
X20465697Y-15696866D01*
X20236348Y-15765083D01*
X19922346Y-15794719D01*
X19792112Y-15793154D01*
X19522367Y-15770762D01*
X19379664Y-15723793D01*
X19321893Y-15635520D01*
X19315613Y-15603898D01*
X19258042Y-15288986D01*
X19200528Y-15124630D01*
X19136047Y-15092204D01*
X19124851Y-15097868D01*
X19072340Y-15207816D01*
X19044179Y-15417716D01*
X19042667Y-15482330D01*
X19023626Y-15692551D01*
X18976141Y-15808238D01*
X18958000Y-15816000D01*
X18904658Y-15740962D01*
X18875303Y-15553822D01*
X18873334Y-15482330D01*
X18854246Y-15257336D01*
X18806834Y-15113700D01*
X18791149Y-15097868D01*
X18724675Y-15111713D01*
X18666331Y-15255473D01*
X18609230Y-15547438D01*
X18600469Y-15604334D01*
X18554919Y-15709861D01*
X18430357Y-15766099D01*
X18183420Y-15791544D01*
X18158806Y-15792724D01*
X17890502Y-15784935D01*
X17682837Y-15743511D01*
X17624181Y-15713502D01*
X17506383Y-15663052D01*
X17431073Y-15736070D01*
X17333832Y-15808669D01*
X17240389Y-15731312D01*
X17162687Y-15523182D01*
X17123834Y-15283219D01*
X17556585Y-15283219D01*
X17597664Y-15382073D01*
X17741830Y-15536811D01*
X17900439Y-15533794D01*
X18023688Y-15398233D01*
X18100868Y-15163295D01*
X18093033Y-14951053D01*
X18017863Y-14836892D01*
X17902338Y-14852119D01*
X17740080Y-14964623D01*
X17712881Y-14990635D01*
X17576215Y-15153521D01*
X17556585Y-15283219D01*
X17123834Y-15283219D01*
X17114945Y-15228317D01*
X17078301Y-14968025D01*
X17021232Y-14838264D01*
X16925465Y-14800249D01*
X16913133Y-14800000D01*
X16760625Y-14877744D01*
X16647153Y-15085950D01*
X16590560Y-15387078D01*
X16587334Y-15485503D01*
X16538962Y-15709962D01*
X16417909Y-15811005D01*
X16260262Y-15794990D01*
X16102114Y-15668278D01*
X15979553Y-15437230D01*
X15961500Y-15375207D01*
X15885999Y-15078001D01*
X15551838Y-15412163D01*
X15078123Y-15787980D01*
X14561724Y-16003982D01*
X14035547Y-16068141D01*
X13683991Y-16045384D01*
X13444583Y-15965674D01*
X13358213Y-15906677D01*
X13248566Y-15780662D01*
X13395766Y-15780662D01*
X13538948Y-15871444D01*
X13560500Y-15881998D01*
X13938365Y-15972692D01*
X14402763Y-15926205D01*
X14665371Y-15851015D01*
X15010489Y-15677970D01*
X15367560Y-15408210D01*
X15694080Y-15083606D01*
X15947549Y-14746029D01*
X16080549Y-14456818D01*
X16142872Y-14113797D01*
X16135838Y-13837810D01*
X16062554Y-13666227D01*
X16012141Y-13634076D01*
X15940229Y-13654674D01*
X15954743Y-13805790D01*
X15954966Y-13806677D01*
X15963050Y-14113623D01*
X15871583Y-14474221D01*
X15701509Y-14823147D01*
X15573600Y-14996150D01*
X15354580Y-15198579D01*
X15064027Y-15409359D01*
X14892298Y-15512422D01*
X14615941Y-15647838D01*
X14379736Y-15712935D01*
X14101434Y-15724770D01*
X13912801Y-15715538D01*
X13578911Y-15704495D01*
X13407826Y-15725608D01*
X13395766Y-15780662D01*
X13248566Y-15780662D01*
X13225963Y-15754685D01*
X13243000Y-15659320D01*
X13314503Y-15595418D01*
X13600973Y-15595418D01*
X13753638Y-15648654D01*
X14011367Y-15648003D01*
X14321162Y-15600323D01*
X14630027Y-15512472D01*
X14798603Y-15440438D01*
X15233578Y-15152609D01*
X15577958Y-14790038D01*
X15795980Y-14392105D01*
X15820243Y-14315481D01*
X15895231Y-13994934D01*
X15900360Y-13821564D01*
X15859424Y-13784000D01*
X15776433Y-13833339D01*
X15590332Y-13967060D01*
X15330202Y-14163719D01*
X15076257Y-14361471D01*
X14726564Y-14636134D01*
X14378625Y-14907749D01*
X14082437Y-15137359D01*
X13946695Y-15241555D01*
X13743972Y-15409940D01*
X13620435Y-15540067D01*
X13600973Y-15595418D01*
X13314503Y-15595418D01*
X13407845Y-15511999D01*
X13665143Y-15301378D01*
X13990093Y-15045897D01*
X14357893Y-14763996D01*
X14743744Y-14474116D01*
X15122844Y-14194697D01*
X15470391Y-13944179D01*
X15761585Y-13741001D01*
X15971624Y-13603604D01*
X16075707Y-13550429D01*
X16079334Y-13550454D01*
X16189602Y-13653341D01*
X16235113Y-13903094D01*
X16215153Y-14289819D01*
X16159031Y-14651848D01*
X16104389Y-15006257D01*
X16099821Y-15248069D01*
X16144814Y-15426290D01*
X16150777Y-15439789D01*
X16251490Y-15593728D01*
X16333617Y-15587947D01*
X16390891Y-15431609D01*
X16417045Y-15133879D01*
X16418000Y-15049003D01*
X16430967Y-14780458D01*
X16464780Y-14598612D01*
X16502667Y-14546000D01*
X16584893Y-14608485D01*
X16587334Y-14628010D01*
X16649193Y-14683503D01*
X16693167Y-14677415D01*
X16986469Y-14594795D01*
X17156888Y-14582577D01*
X17241289Y-14655000D01*
X17276536Y-14826301D01*
X17283544Y-14905447D01*
X17303716Y-15125686D01*
X17327562Y-15193646D01*
X17372109Y-15125853D01*
X17413731Y-15031793D01*
X17570294Y-14812495D01*
X17785176Y-14676674D01*
X18004337Y-14651546D01*
X18096742Y-14687781D01*
X18195859Y-14823305D01*
X18236336Y-15082524D01*
X18238334Y-15184145D01*
X18259955Y-15458178D01*
X18319449Y-15609045D01*
X18344167Y-15625500D01*
X18409178Y-15592589D01*
X18442691Y-15426126D01*
X18450000Y-15193052D01*
X18471630Y-14861861D01*
X18539452Y-14689261D01*
X18657863Y-14669748D01*
X18794002Y-14762495D01*
X18925523Y-14862052D01*
X19027406Y-14841636D01*
X19121998Y-14762495D01*
X19285782Y-14662169D01*
X19396343Y-14712029D01*
X19458251Y-14917278D01*
X19475277Y-15164830D01*
X19484553Y-15604334D01*
X19557070Y-15235471D01*
X19592296Y-15109679D01*
X19804667Y-15109679D01*
X19838144Y-15185244D01*
X19963119Y-15144468D01*
X19969285Y-15141190D01*
X20123710Y-15036459D01*
X20182333Y-14974729D01*
X20170639Y-14866861D01*
X20141006Y-14840895D01*
X20008814Y-14841999D01*
X19874584Y-14944050D01*
X19805423Y-15093420D01*
X19804667Y-15109679D01*
X19592296Y-15109679D01*
X19651858Y-14896980D01*
X19783098Y-14703632D01*
X19968082Y-14632326D01*
X20009767Y-14630667D01*
X20252977Y-14685052D01*
X20373226Y-14824047D01*
X20366162Y-15011413D01*
X20227437Y-15210907D01*
X20091748Y-15313718D01*
X19909222Y-15438119D01*
X19858851Y-15516298D01*
X19921647Y-15578392D01*
X19924123Y-15579787D01*
X20148637Y-15619558D01*
X20367286Y-15514388D01*
X20515922Y-15323167D01*
X20586136Y-15080722D01*
X20600920Y-14718423D01*
X20589622Y-14501198D01*
X20577786Y-14249667D01*
G37*
%TD*%
D10*
%TO.C,J1*%
X35639999Y-33199999D03*
D11*
X33099999Y-33199999D03*
X30559999Y-33199999D03*
X28019999Y-33199999D03*
X25479999Y-33199999D03*
X22939999Y-33199999D03*
X20399999Y-33199999D03*
X17859999Y-33199999D03*
%TD*%
D12*
%TO.C,U1*%
X32409999Y-29099999D03*
D13*
X30630000Y-29100000D03*
X28850000Y-29100000D03*
X27070000Y-29100000D03*
X25290000Y-29100000D03*
X23510000Y-29100000D03*
X21730000Y-29100000D03*
X19950000Y-29100000D03*
X19060000Y-18400000D03*
X20840000Y-18400000D03*
X22620000Y-18400000D03*
X24400000Y-18400000D03*
X26180000Y-18400000D03*
X27960000Y-18400000D03*
X29740000Y-18400000D03*
X31520000Y-18400000D03*
%TD*%
D14*
%TO.C,H1*%
X38749998Y-23750001D03*
%TD*%
%TO.C,H2*%
X14750002Y-23749999D03*
%TD*%
M02*
