%TF.GenerationSoftware,KiCad,Pcbnew,(7.0.0)*%
%TF.CreationDate,2023-03-29T09:56:29+01:00*%
%TF.ProjectId,Ogen,4f67656e-2e6b-4696-9361-645f70636258,rev?*%
%TF.SameCoordinates,Original*%
%TF.FileFunction,Copper,L2,Bot*%
%TF.FilePolarity,Positive*%
%FSLAX46Y46*%
G04 Gerber Fmt 4.6, Leading zero omitted, Abs format (unit mm)*
G04 Created by KiCad (PCBNEW (7.0.0)) date 2023-03-29 09:56:29*
%MOMM*%
%LPD*%
G01*
G04 APERTURE LIST*
G04 Aperture macros list*
%AMRoundRect*
0 Rectangle with rounded corners*
0 $1 Rounding radius*
0 $2 $3 $4 $5 $6 $7 $8 $9 X,Y pos of 4 corners*
0 Add a 4 corners polygon primitive as box body*
4,1,4,$2,$3,$4,$5,$6,$7,$8,$9,$2,$3,0*
0 Add four circle primitives for the rounded corners*
1,1,$1+$1,$2,$3*
1,1,$1+$1,$4,$5*
1,1,$1+$1,$6,$7*
1,1,$1+$1,$8,$9*
0 Add four rect primitives between the rounded corners*
20,1,$1+$1,$2,$3,$4,$5,0*
20,1,$1+$1,$4,$5,$6,$7,0*
20,1,$1+$1,$6,$7,$8,$9,0*
20,1,$1+$1,$8,$9,$2,$3,0*%
G04 Aperture macros list end*
%TA.AperFunction,ComponentPad*%
%ADD10R,1.700000X1.700000*%
%TD*%
%TA.AperFunction,ComponentPad*%
%ADD11O,1.700000X1.700000*%
%TD*%
%TA.AperFunction,ComponentPad*%
%ADD12R,1.200000X1.200000*%
%TD*%
%TA.AperFunction,ComponentPad*%
%ADD13C,1.200000*%
%TD*%
%TA.AperFunction,SMDPad,CuDef*%
%ADD14R,0.800000X0.300000*%
%TD*%
%TA.AperFunction,SMDPad,CuDef*%
%ADD15RoundRect,0.225000X0.225000X0.250000X-0.225000X0.250000X-0.225000X-0.250000X0.225000X-0.250000X0*%
%TD*%
%TA.AperFunction,SMDPad,CuDef*%
%ADD16R,0.300000X0.800000*%
%TD*%
%TA.AperFunction,SMDPad,CuDef*%
%ADD17RoundRect,0.140000X-0.140000X-0.170000X0.140000X-0.170000X0.140000X0.170000X-0.140000X0.170000X0*%
%TD*%
%TA.AperFunction,SMDPad,CuDef*%
%ADD18RoundRect,0.135000X0.135000X0.185000X-0.135000X0.185000X-0.135000X-0.185000X0.135000X-0.185000X0*%
%TD*%
%TA.AperFunction,SMDPad,CuDef*%
%ADD19RoundRect,0.140000X0.140000X0.170000X-0.140000X0.170000X-0.140000X-0.170000X0.140000X-0.170000X0*%
%TD*%
%TA.AperFunction,SMDPad,CuDef*%
%ADD20RoundRect,0.135000X0.185000X-0.135000X0.185000X0.135000X-0.185000X0.135000X-0.185000X-0.135000X0*%
%TD*%
%TA.AperFunction,SMDPad,CuDef*%
%ADD21R,1.000000X1.500000*%
%TD*%
%TA.AperFunction,SMDPad,CuDef*%
%ADD22RoundRect,0.150000X0.150000X-0.512500X0.150000X0.512500X-0.150000X0.512500X-0.150000X-0.512500X0*%
%TD*%
%TA.AperFunction,SMDPad,CuDef*%
%ADD23RoundRect,0.140000X0.170000X-0.140000X0.170000X0.140000X-0.170000X0.140000X-0.170000X-0.140000X0*%
%TD*%
%TA.AperFunction,ViaPad*%
%ADD24C,0.500000*%
%TD*%
%TA.AperFunction,Conductor*%
%ADD25C,0.300000*%
%TD*%
%TA.AperFunction,Conductor*%
%ADD26C,0.200000*%
%TD*%
G04 APERTURE END LIST*
D10*
%TO.P,J1,1,Pin_1*%
%TO.N,VCC*%
X35639999Y-33199999D03*
D11*
%TO.P,J1,2,Pin_2*%
%TO.N,MISO-H*%
X33099999Y-33199999D03*
%TO.P,J1,3,Pin_3*%
%TO.N,MOSI-H*%
X30559999Y-33199999D03*
%TO.P,J1,4,Pin_4*%
%TO.N,SCLK-H*%
X28019999Y-33199999D03*
%TO.P,J1,5,Pin_5*%
%TO.N,SS-H*%
X25479999Y-33199999D03*
%TO.P,J1,6,Pin_6*%
%TO.N,MOT-H*%
X22939999Y-33199999D03*
%TO.P,J1,7,Pin_7*%
%TO.N,GND*%
X20399999Y-33199999D03*
%TO.P,J1,8,Pin_8*%
%TO.N,NRESET-H*%
X17859999Y-33199999D03*
%TD*%
D12*
%TO.P,U1,1,NC*%
%TO.N,unconnected-(U1-NC-Pad1)*%
X32409999Y-29099999D03*
D13*
%TO.P,U1,2,NC*%
%TO.N,unconnected-(U1-NC-Pad2)*%
X30630000Y-29100000D03*
%TO.P,U1,3,VDDPIX*%
%TO.N,Net-(U1-VDDPIX)*%
X28850000Y-29100000D03*
%TO.P,U1,4,VDD*%
%TO.N,+2V*%
X27070000Y-29100000D03*
%TO.P,U1,5,VDDIO*%
X25290000Y-29100000D03*
%TO.P,U1,6,NC*%
%TO.N,unconnected-(U1-NC-Pad6)*%
X23510000Y-29100000D03*
%TO.P,U1,7,NRESET*%
%TO.N,NRESET*%
X21730000Y-29100000D03*
%TO.P,U1,8,GND*%
%TO.N,GND*%
X19950000Y-29100000D03*
%TO.P,U1,9,MOTION*%
%TO.N,MOT*%
X19060000Y-18400000D03*
%TO.P,U1,10,SCLK*%
%TO.N,SCLK*%
X20840000Y-18400000D03*
%TO.P,U1,11,MOSI*%
%TO.N,MOSI*%
X22620000Y-18400000D03*
%TO.P,U1,12,MISO*%
%TO.N,MISO*%
X24400000Y-18400000D03*
%TO.P,U1,13,NCS*%
%TO.N,SS*%
X26180000Y-18400000D03*
%TO.P,U1,14,NC*%
%TO.N,unconnected-(U1-NC-Pad14)*%
X27960000Y-18400000D03*
%TO.P,U1,15,LED_P*%
%TO.N,Net-(U1-LED_P)*%
X29740000Y-18400000D03*
%TO.P,U1,16,NC*%
%TO.N,unconnected-(U1-NC-Pad16)*%
X31520000Y-18400000D03*
%TD*%
D14*
%TO.P,U4,1,B2*%
%TO.N,MOSI-H*%
X23299999Y-15499999D03*
%TO.P,U4,2,GND*%
%TO.N,GND*%
X23299999Y-15999999D03*
%TO.P,U4,3,VCCA*%
%TO.N,+2V*%
X23299999Y-16499999D03*
%TO.P,U4,4,A2*%
%TO.N,MOSI*%
X23299999Y-16999999D03*
%TO.P,U4,5,A1*%
%TO.N,SCLK*%
X20199999Y-16999999D03*
%TO.P,U4,6,OE*%
%TO.N,+2V*%
X20199999Y-16499999D03*
%TO.P,U4,7,VCCB*%
%TO.N,VCC*%
X20199999Y-15999999D03*
%TO.P,U4,8,B1*%
%TO.N,SCLK-H*%
X20199999Y-15499999D03*
%TD*%
D15*
%TO.P,C1,1*%
%TO.N,Net-(U1-VDDPIX)*%
X28247000Y-30666000D03*
%TO.P,C1,2*%
%TO.N,GND*%
X26697000Y-30666000D03*
%TD*%
D16*
%TO.P,U3,1,B2*%
%TO.N,MOT-H*%
X13749999Y-27615999D03*
%TO.P,U3,2,GND*%
%TO.N,GND*%
X14249999Y-27615999D03*
%TO.P,U3,3,VCCA*%
%TO.N,+2V*%
X14749999Y-27615999D03*
%TO.P,U3,4,A2*%
%TO.N,MOT*%
X15249999Y-27615999D03*
%TO.P,U3,5,A1*%
%TO.N,NRESET*%
X15249999Y-30715999D03*
%TO.P,U3,6,OE*%
%TO.N,+2V*%
X14749999Y-30715999D03*
%TO.P,U3,7,VCCB*%
%TO.N,VCC*%
X14249999Y-30715999D03*
%TO.P,U3,8,B1*%
%TO.N,NRESET-H*%
X13749999Y-30715999D03*
%TD*%
D17*
%TO.P,C3,1*%
%TO.N,VCC*%
X37120000Y-20684000D03*
%TO.P,C3,2*%
%TO.N,GND*%
X38080000Y-20684000D03*
%TD*%
D18*
%TO.P,R2,1*%
%TO.N,+2V*%
X17532000Y-14400000D03*
%TO.P,R2,2*%
%TO.N,Net-(JP1-A)*%
X16512000Y-14400000D03*
%TD*%
D19*
%TO.P,C2,1*%
%TO.N,GND*%
X30480000Y-30500000D03*
%TO.P,C2,2*%
%TO.N,Net-(U1-VDDPIX)*%
X29520000Y-30500000D03*
%TD*%
D18*
%TO.P,R4,1*%
%TO.N,Net-(U2-ADJ)*%
X36810000Y-15300000D03*
%TO.P,R4,2*%
%TO.N,GND*%
X35790000Y-15300000D03*
%TD*%
D20*
%TO.P,R3,1*%
%TO.N,Net-(U1-LED_P)*%
X30300000Y-17160000D03*
%TO.P,R3,2*%
%TO.N,+2V*%
X30300000Y-16140000D03*
%TD*%
D21*
%TO.P,JP1,1,A*%
%TO.N,Net-(JP1-A)*%
X16371999Y-16265999D03*
%TO.P,JP1,2,B*%
%TO.N,MISO*%
X17671999Y-16265999D03*
%TD*%
D22*
%TO.P,U2,1,VIN*%
%TO.N,VCC*%
X39772000Y-19137500D03*
%TO.P,U2,2,GND*%
%TO.N,GND*%
X38822000Y-19137500D03*
%TO.P,U2,3,EN*%
%TO.N,VCC*%
X37872000Y-19137500D03*
%TO.P,U2,4,ADJ*%
%TO.N,Net-(U2-ADJ)*%
X37872000Y-16862500D03*
%TO.P,U2,5,VOUT*%
%TO.N,+2V*%
X39772000Y-16862500D03*
%TD*%
D14*
%TO.P,U5,1,B2*%
%TO.N,SS-H*%
X28049999Y-15499999D03*
%TO.P,U5,2,GND*%
%TO.N,GND*%
X28049999Y-15999999D03*
%TO.P,U5,3,VCCA*%
%TO.N,+2V*%
X28049999Y-16499999D03*
%TO.P,U5,4,A2*%
%TO.N,SS*%
X28049999Y-16999999D03*
%TO.P,U5,5,A1*%
%TO.N,MISO*%
X24949999Y-16999999D03*
%TO.P,U5,6,OE*%
%TO.N,+2V*%
X24949999Y-16499999D03*
%TO.P,U5,7,VCCB*%
%TO.N,VCC*%
X24949999Y-15999999D03*
%TO.P,U5,8,B1*%
%TO.N,MISO-H*%
X24949999Y-15499999D03*
%TD*%
D18*
%TO.P,R5,1*%
%TO.N,+2V*%
X38810000Y-15300000D03*
%TO.P,R5,2*%
%TO.N,Net-(U2-ADJ)*%
X37790000Y-15300000D03*
%TD*%
D23*
%TO.P,C4,1*%
%TO.N,+2V*%
X39900000Y-15280000D03*
%TO.P,C4,2*%
%TO.N,GND*%
X39900000Y-14320000D03*
%TD*%
D20*
%TO.P,R1,1*%
%TO.N,NRESET*%
X16700000Y-29676000D03*
%TO.P,R1,2*%
%TO.N,+2V*%
X16700000Y-28656000D03*
%TD*%
D24*
%TO.N,GND*%
X38700000Y-20800000D03*
X25922000Y-30666000D03*
X31100000Y-30500000D03*
X39000000Y-20200000D03*
X27172000Y-15816000D03*
X24100000Y-15900500D03*
X39900000Y-13700000D03*
X36000000Y-16000000D03*
X14250000Y-26932000D03*
%TO.N,VCC*%
X35372250Y-17300000D03*
X26200000Y-14100000D03*
X26200000Y-15800000D03*
X36700000Y-17300000D03*
%TO.N,MOT-H*%
X14022000Y-29766000D03*
X16622000Y-32366000D03*
%TO.N,SS-H*%
X16632875Y-17804875D03*
X24521989Y-31150489D03*
X18352496Y-30560004D03*
X29200000Y-15800000D03*
X16822000Y-27016000D03*
%TO.N,SCLK-H*%
X34022000Y-30896953D03*
%TO.N,MOSI-H*%
X34671750Y-30316000D03*
%TO.N,MISO-H*%
X34972250Y-18500000D03*
%TO.N,MISO*%
X17672000Y-17816000D03*
%TO.N,+2V*%
X35200000Y-14500000D03*
X33200000Y-17700000D03*
X22622000Y-30066000D03*
X20822000Y-30066000D03*
%TD*%
D25*
%TO.N,GND*%
X26697000Y-30666000D02*
X25922000Y-30666000D01*
X35790000Y-15300000D02*
X35790000Y-15790000D01*
X23300000Y-16000000D02*
X24000500Y-16000000D01*
X39900000Y-14320000D02*
X39900000Y-13700000D01*
X24000500Y-16000000D02*
X24100000Y-15900500D01*
X14250000Y-27616000D02*
X14250000Y-26932000D01*
X27356000Y-16000000D02*
X28050000Y-16000000D01*
X38080000Y-20684000D02*
X38584000Y-20684000D01*
X38822000Y-19137500D02*
X38822000Y-20022000D01*
X38584000Y-20684000D02*
X38700000Y-20800000D01*
X35790000Y-15790000D02*
X36000000Y-16000000D01*
X30480000Y-30500000D02*
X31100000Y-30500000D01*
X27172000Y-15816000D02*
X27356000Y-16000000D01*
X38822000Y-20022000D02*
X39000000Y-20200000D01*
%TO.N,Net-(U1-VDDPIX)*%
X28850000Y-30450000D02*
X28800000Y-30500000D01*
X28850000Y-29100000D02*
X28850000Y-30450000D01*
X29520000Y-30500000D02*
X28800000Y-30500000D01*
X28800000Y-30500000D02*
X28413000Y-30500000D01*
X28413000Y-30500000D02*
X28247000Y-30666000D01*
%TO.N,VCC*%
X39772000Y-18717893D02*
X39772000Y-19137500D01*
X36371750Y-31300250D02*
X35640000Y-32032000D01*
X36700000Y-17300000D02*
X36371750Y-17628250D01*
X38464893Y-18125000D02*
X39179107Y-18125000D01*
X36371750Y-20700000D02*
X36371750Y-19100000D01*
X14250000Y-31416000D02*
X14434489Y-31600489D01*
X36371750Y-20700000D02*
X36371750Y-31300250D01*
X37120000Y-20684000D02*
X36387750Y-20684000D01*
X26200000Y-15800000D02*
X26000000Y-16000000D01*
X22376396Y-32000000D02*
X35672000Y-32000000D01*
X36387750Y-20684000D02*
X36371750Y-20700000D01*
X14250000Y-30716000D02*
X14250000Y-31416000D01*
X37872000Y-19137500D02*
X37834500Y-19100000D01*
X14434489Y-31600489D02*
X21976885Y-31600489D01*
X35640000Y-32032000D02*
X35672000Y-32000000D01*
X39179107Y-18125000D02*
X39772000Y-18717893D01*
X21976885Y-31600489D02*
X22376396Y-32000000D01*
X26000000Y-16000000D02*
X24950000Y-16000000D01*
X37872000Y-19137500D02*
X37872000Y-18717893D01*
X32172250Y-14100000D02*
X35372250Y-17300000D01*
X37872000Y-18717893D02*
X38464893Y-18125000D01*
X37834500Y-19100000D02*
X36371750Y-19100000D01*
X20993198Y-16000000D02*
X20200000Y-16000000D01*
X20993198Y-16000000D02*
X22893198Y-14100000D01*
X22893198Y-14100000D02*
X26200000Y-14100000D01*
X35640000Y-33200000D02*
X35640000Y-32032000D01*
X26200000Y-14100000D02*
X32172250Y-14100000D01*
X36371750Y-17628250D02*
X36371750Y-19100000D01*
D26*
%TO.N,NRESET*%
X19320093Y-30750489D02*
X21237511Y-30750489D01*
X18560604Y-29991000D02*
X19320093Y-30750489D01*
X15250000Y-29950000D02*
X15250000Y-30716000D01*
X16672000Y-29676000D02*
X15524000Y-29676000D01*
X15524000Y-29676000D02*
X15250000Y-29950000D01*
X16672000Y-29676000D02*
X18245604Y-29676000D01*
X18245604Y-29676000D02*
X18560604Y-29991000D01*
X21237511Y-30750489D02*
X21730000Y-30258000D01*
X21730000Y-30258000D02*
X21730000Y-29100000D01*
%TO.N,MOT-H*%
X13750000Y-29494000D02*
X14022000Y-29766000D01*
X16937511Y-32050489D02*
X21790489Y-32050489D01*
X13750000Y-27616000D02*
X13750000Y-29494000D01*
X16622000Y-32366000D02*
X16937511Y-32050489D01*
X21790489Y-32050489D02*
X22940000Y-33200000D01*
%TO.N,SS-H*%
X28900000Y-15500000D02*
X29200000Y-15800000D01*
X17221750Y-18393750D02*
X17221750Y-26616250D01*
X16632875Y-17804875D02*
X17221750Y-18393750D01*
X18352496Y-30560004D02*
X18942981Y-31150489D01*
X28050000Y-15500000D02*
X28900000Y-15500000D01*
X17221750Y-26616250D02*
X16822000Y-27016000D01*
X18942981Y-31150489D02*
X24521989Y-31150489D01*
%TO.N,SCLK-H*%
X35341047Y-30896953D02*
X34022000Y-30896953D01*
X35921750Y-30316250D02*
X35341047Y-30896953D01*
X22856802Y-13500000D02*
X32400000Y-13500000D01*
X32400000Y-13500000D02*
X35921750Y-17021750D01*
X20200000Y-15500000D02*
X20856802Y-15500000D01*
X20856802Y-15500000D02*
X22856802Y-13500000D01*
X35921750Y-17021750D02*
X35921750Y-30316250D01*
%TO.N,MOSI-H*%
X35521750Y-18271682D02*
X31900068Y-14650000D01*
X35521750Y-29466000D02*
X35521750Y-18271682D01*
X31900068Y-14650000D02*
X23650000Y-14650000D01*
X23300000Y-15000000D02*
X23300000Y-15500000D01*
X23650000Y-14650000D02*
X23300000Y-15000000D01*
X34671750Y-30316000D02*
X35521750Y-29466000D01*
%TO.N,MISO-H*%
X25950000Y-15050000D02*
X31522250Y-15050000D01*
X24950000Y-15500000D02*
X25500000Y-15500000D01*
X25500000Y-15500000D02*
X25950000Y-15050000D01*
X31522250Y-15050000D02*
X34972250Y-18500000D01*
D25*
%TO.N,Net-(JP1-A)*%
X16372000Y-16266000D02*
X16372000Y-14540000D01*
X16372000Y-14540000D02*
X16512000Y-14400000D01*
D26*
%TO.N,MISO*%
X24950000Y-17850000D02*
X24400000Y-18400000D01*
X17672000Y-17816000D02*
X17672000Y-16250000D01*
X24950000Y-17000000D02*
X24950000Y-17850000D01*
%TO.N,MOT*%
X17621750Y-26994068D02*
X17621750Y-18916000D01*
X16999818Y-27616000D02*
X17621750Y-26994068D01*
X17621750Y-18916000D02*
X18137750Y-18400000D01*
X15250000Y-27616000D02*
X16999818Y-27616000D01*
X18137750Y-18400000D02*
X19060000Y-18400000D01*
%TO.N,SCLK*%
X20200000Y-17760000D02*
X20840000Y-18400000D01*
X20200000Y-17000000D02*
X20200000Y-17760000D01*
%TO.N,MOSI*%
X23300000Y-17000000D02*
X23300000Y-17720000D01*
X23300000Y-17720000D02*
X22620000Y-18400000D01*
%TO.N,SS*%
X28050000Y-17000000D02*
X27580000Y-17000000D01*
X27580000Y-17000000D02*
X26180000Y-18400000D01*
%TO.N,Net-(U1-LED_P)*%
X29740000Y-17720000D02*
X30300000Y-17160000D01*
X29740000Y-18400000D02*
X29740000Y-17720000D01*
%TO.N,NRESET-H*%
X15397604Y-33200000D02*
X13750000Y-31552396D01*
X13750000Y-31552396D02*
X13750000Y-30716000D01*
X17860000Y-33200000D02*
X15397604Y-33200000D01*
D25*
%TO.N,+2V*%
X31640000Y-16140000D02*
X33200000Y-17700000D01*
X14750000Y-28650000D02*
X14750000Y-30716000D01*
X25290000Y-30066000D02*
X25290000Y-31034000D01*
X25756000Y-31500000D02*
X32570424Y-31500000D01*
X35071750Y-19571750D02*
X33200000Y-17700000D01*
X24950000Y-16500000D02*
X28050000Y-16500000D01*
X23300000Y-16500000D02*
X20200000Y-16500000D01*
X38600000Y-14500000D02*
X38810000Y-14710000D01*
X20822000Y-30066000D02*
X19272000Y-30066000D01*
X39772000Y-15308000D02*
X39800000Y-15280000D01*
X19122000Y-16172000D02*
X19122000Y-14716250D01*
X35200000Y-14500000D02*
X38600000Y-14500000D01*
X23300000Y-16500000D02*
X24950000Y-16500000D01*
X25290000Y-31034000D02*
X25756000Y-31500000D01*
X39900000Y-15280000D02*
X38830000Y-15280000D01*
X29710000Y-16140000D02*
X30300000Y-16140000D01*
X17532000Y-14400000D02*
X18805750Y-14400000D01*
X17862000Y-28656000D02*
X19272000Y-30066000D01*
X38830000Y-15280000D02*
X38810000Y-15300000D01*
X25290000Y-29100000D02*
X27070000Y-29100000D01*
X38810000Y-14710000D02*
X38810000Y-15300000D01*
X28050000Y-16500000D02*
X29350000Y-16500000D01*
X32570424Y-31500000D02*
X35071750Y-28998674D01*
X18805750Y-14400000D02*
X19122000Y-14716250D01*
X29350000Y-16500000D02*
X29710000Y-16140000D01*
X25290000Y-29100000D02*
X25290000Y-30066000D01*
X16672000Y-28656000D02*
X14756000Y-28656000D01*
X35071750Y-28998674D02*
X35071750Y-19571750D01*
X20200000Y-16500000D02*
X19450000Y-16500000D01*
X16672000Y-28656000D02*
X17862000Y-28656000D01*
X39772000Y-16862500D02*
X39772000Y-15308000D01*
X14756000Y-28656000D02*
X14750000Y-28650000D01*
X30300000Y-16140000D02*
X31640000Y-16140000D01*
X14750000Y-27616000D02*
X14750000Y-28650000D01*
X22622000Y-30066000D02*
X25290000Y-30066000D01*
X19450000Y-16500000D02*
X19122000Y-16172000D01*
%TO.N,Net-(U2-ADJ)*%
X37790000Y-16780500D02*
X37872000Y-16862500D01*
X37790000Y-15300000D02*
X36810000Y-15300000D01*
X37790000Y-15300000D02*
X37790000Y-16780500D01*
%TD*%
M02*
