%TF.GenerationSoftware,KiCad,Pcbnew,(7.0.0)*%
%TF.CreationDate,2023-03-21T21:12:12+00:00*%
%TF.ProjectId,Ogen,4f67656e-2e6b-4696-9361-645f70636258,rev?*%
%TF.SameCoordinates,Original*%
%TF.FileFunction,Copper,L1,Top*%
%TF.FilePolarity,Positive*%
%FSLAX46Y46*%
G04 Gerber Fmt 4.6, Leading zero omitted, Abs format (unit mm)*
G04 Created by KiCad (PCBNEW (7.0.0)) date 2023-03-21 21:12:12*
%MOMM*%
%LPD*%
G01*
G04 APERTURE LIST*
%TA.AperFunction,ComponentPad*%
%ADD10R,1.700000X1.700000*%
%TD*%
%TA.AperFunction,ComponentPad*%
%ADD11O,1.700000X1.700000*%
%TD*%
%TA.AperFunction,ComponentPad*%
%ADD12R,1.200000X1.200000*%
%TD*%
%TA.AperFunction,ComponentPad*%
%ADD13C,1.200000*%
%TD*%
%TA.AperFunction,ViaPad*%
%ADD14C,0.500000*%
%TD*%
%TA.AperFunction,Conductor*%
%ADD15C,0.200000*%
%TD*%
%TA.AperFunction,Conductor*%
%ADD16C,0.300000*%
%TD*%
G04 APERTURE END LIST*
%TO.C,A1*%
G36*
X14294571Y-15303502D02*
G01*
X14301334Y-15355330D01*
X14253995Y-15464757D01*
X14216667Y-15477334D01*
X14148542Y-15406208D01*
X14132000Y-15303003D01*
X14164593Y-15185933D01*
X14216667Y-15181000D01*
X14294571Y-15303502D01*
G37*
G36*
X14852268Y-14938380D02*
G01*
X14892704Y-15075167D01*
X14839947Y-15135840D01*
X14734149Y-15107486D01*
X14682334Y-15054000D01*
X14671370Y-14912532D01*
X14687920Y-14875628D01*
X14766485Y-14853364D01*
X14852268Y-14938380D01*
G37*
G36*
X15390763Y-14584987D02*
G01*
X15386125Y-14635959D01*
X15278930Y-14764271D01*
X15237959Y-14784125D01*
X15159238Y-14761013D01*
X15163875Y-14710042D01*
X15271071Y-14581730D01*
X15312042Y-14561875D01*
X15390763Y-14584987D01*
G37*
G36*
X15686524Y-14181413D02*
G01*
X15738942Y-14298000D01*
X15684726Y-14373724D01*
X15660997Y-14376667D01*
X15545513Y-14315455D01*
X15532616Y-14297850D01*
X15536662Y-14197350D01*
X15626170Y-14153603D01*
X15686524Y-14181413D01*
G37*
G36*
X17262207Y-14271763D02*
G01*
X17264667Y-14292000D01*
X17200238Y-14374207D01*
X17180000Y-14376667D01*
X17097794Y-14312238D01*
X17095334Y-14292000D01*
X17159763Y-14209794D01*
X17180000Y-14207334D01*
X17262207Y-14271763D01*
G37*
G36*
X20577786Y-14249667D02*
G01*
X20757352Y-14249667D01*
X20764167Y-14423918D01*
X20783353Y-14468892D01*
X20794173Y-14441154D01*
X20809943Y-14237833D01*
X20795882Y-14102487D01*
X20773578Y-14055562D01*
X20759548Y-14157327D01*
X20757352Y-14249667D01*
X20577786Y-14249667D01*
X20573836Y-14165735D01*
X20589570Y-13956932D01*
X20642020Y-13834176D01*
X20679919Y-13795409D01*
X20826517Y-13728212D01*
X20901625Y-13739375D01*
X20957940Y-13859134D01*
X20983321Y-14098315D01*
X20977750Y-14409852D01*
X20941208Y-14746678D01*
X20902083Y-14951526D01*
X20859118Y-15285844D01*
X20906443Y-15500249D01*
X21038204Y-15583191D01*
X21203281Y-15545859D01*
X21376548Y-15440925D01*
X21392146Y-15336726D01*
X21286333Y-15223333D01*
X21170149Y-15058498D01*
X21193488Y-14969862D01*
X21406281Y-14969862D01*
X21443466Y-15124096D01*
X21549704Y-15287832D01*
X21700273Y-15459667D01*
X21815139Y-15555098D01*
X21836667Y-15562000D01*
X21929723Y-15501072D01*
X22074011Y-15348903D01*
X22123629Y-15287832D01*
X22249821Y-15078608D01*
X22258793Y-14945254D01*
X22158315Y-14910924D01*
X22015090Y-14964469D01*
X21806958Y-15015975D01*
X21658244Y-14964469D01*
X21480464Y-14908936D01*
X21406281Y-14969862D01*
X21193488Y-14969862D01*
X21216866Y-14881076D01*
X21328667Y-14757667D01*
X21461786Y-14654832D01*
X21562200Y-14670256D01*
X21667334Y-14757667D01*
X21799704Y-14859982D01*
X21899981Y-14845373D01*
X22008988Y-14754963D01*
X22138037Y-14653891D01*
X22234155Y-14664389D01*
X22363534Y-14781237D01*
X22484094Y-14929790D01*
X22485534Y-15061869D01*
X22435226Y-15169991D01*
X22373370Y-15375931D01*
X22417169Y-15521178D01*
X22518997Y-15562000D01*
X22563030Y-15485530D01*
X22591964Y-15288650D01*
X22598667Y-15106148D01*
X22598667Y-14650297D01*
X22987768Y-14663394D01*
X23309400Y-14710598D01*
X23486728Y-14826731D01*
X23562010Y-14990687D01*
X23627088Y-15231720D01*
X23671135Y-15488571D01*
X23683326Y-15699978D01*
X23658748Y-15800141D01*
X23580001Y-15796056D01*
X23503521Y-15672887D01*
X23453796Y-15479421D01*
X23446630Y-15377548D01*
X23387035Y-15138277D01*
X23241223Y-14954746D01*
X23061265Y-14884667D01*
X22921689Y-14960333D01*
X22814116Y-15151367D01*
X22768153Y-15403819D01*
X22768000Y-15419067D01*
X22718124Y-15623754D01*
X22639412Y-15732652D01*
X22517750Y-15790690D01*
X22385998Y-15724758D01*
X22343079Y-15687563D01*
X22210444Y-15585692D01*
X22109623Y-15602573D01*
X22007588Y-15687563D01*
X21863327Y-15786382D01*
X21746799Y-15759549D01*
X21708509Y-15730373D01*
X21589708Y-15669203D01*
X21425430Y-15679315D01*
X21231271Y-15735535D01*
X21005526Y-15800160D01*
X20879206Y-15797860D01*
X20795074Y-15725983D01*
X20786844Y-15714957D01*
X20694876Y-15629348D01*
X20573162Y-15645188D01*
X20465697Y-15696866D01*
X20236348Y-15765083D01*
X19922346Y-15794719D01*
X19792112Y-15793154D01*
X19522367Y-15770762D01*
X19379664Y-15723793D01*
X19321893Y-15635520D01*
X19315613Y-15603898D01*
X19258042Y-15288986D01*
X19200528Y-15124630D01*
X19136047Y-15092204D01*
X19124851Y-15097868D01*
X19072340Y-15207816D01*
X19044179Y-15417716D01*
X19042667Y-15482330D01*
X19023626Y-15692551D01*
X18976141Y-15808238D01*
X18958000Y-15816000D01*
X18904658Y-15740962D01*
X18875303Y-15553822D01*
X18873334Y-15482330D01*
X18854246Y-15257336D01*
X18806834Y-15113700D01*
X18791149Y-15097868D01*
X18724675Y-15111713D01*
X18666331Y-15255473D01*
X18609230Y-15547438D01*
X18600469Y-15604334D01*
X18554919Y-15709861D01*
X18430357Y-15766099D01*
X18183420Y-15791544D01*
X18158806Y-15792724D01*
X17890502Y-15784935D01*
X17682837Y-15743511D01*
X17624181Y-15713502D01*
X17506383Y-15663052D01*
X17431073Y-15736070D01*
X17333832Y-15808669D01*
X17240389Y-15731312D01*
X17162687Y-15523182D01*
X17123834Y-15283219D01*
X17556585Y-15283219D01*
X17597664Y-15382073D01*
X17741830Y-15536811D01*
X17900439Y-15533794D01*
X18023688Y-15398233D01*
X18100868Y-15163295D01*
X18093033Y-14951053D01*
X18017863Y-14836892D01*
X17902338Y-14852119D01*
X17740080Y-14964623D01*
X17712881Y-14990635D01*
X17576215Y-15153521D01*
X17556585Y-15283219D01*
X17123834Y-15283219D01*
X17114945Y-15228317D01*
X17078301Y-14968025D01*
X17021232Y-14838264D01*
X16925465Y-14800249D01*
X16913133Y-14800000D01*
X16760625Y-14877744D01*
X16647153Y-15085950D01*
X16590560Y-15387078D01*
X16587334Y-15485503D01*
X16538962Y-15709962D01*
X16417909Y-15811005D01*
X16260262Y-15794990D01*
X16102114Y-15668278D01*
X15979553Y-15437230D01*
X15961500Y-15375207D01*
X15885999Y-15078001D01*
X15551838Y-15412163D01*
X15078123Y-15787980D01*
X14561724Y-16003982D01*
X14035547Y-16068141D01*
X13683991Y-16045384D01*
X13444583Y-15965674D01*
X13358213Y-15906677D01*
X13248566Y-15780662D01*
X13395766Y-15780662D01*
X13538948Y-15871444D01*
X13560500Y-15881998D01*
X13938365Y-15972692D01*
X14402763Y-15926205D01*
X14665371Y-15851015D01*
X15010489Y-15677970D01*
X15367560Y-15408210D01*
X15694080Y-15083606D01*
X15947549Y-14746029D01*
X16080549Y-14456818D01*
X16142872Y-14113797D01*
X16135838Y-13837810D01*
X16062554Y-13666227D01*
X16012141Y-13634076D01*
X15940229Y-13654674D01*
X15954743Y-13805790D01*
X15954966Y-13806677D01*
X15963050Y-14113623D01*
X15871583Y-14474221D01*
X15701509Y-14823147D01*
X15573600Y-14996150D01*
X15354580Y-15198579D01*
X15064027Y-15409359D01*
X14892298Y-15512422D01*
X14615941Y-15647838D01*
X14379736Y-15712935D01*
X14101434Y-15724770D01*
X13912801Y-15715538D01*
X13578911Y-15704495D01*
X13407826Y-15725608D01*
X13395766Y-15780662D01*
X13248566Y-15780662D01*
X13225963Y-15754685D01*
X13243000Y-15659320D01*
X13314503Y-15595418D01*
X13600973Y-15595418D01*
X13753638Y-15648654D01*
X14011367Y-15648003D01*
X14321162Y-15600323D01*
X14630027Y-15512472D01*
X14798603Y-15440438D01*
X15233578Y-15152609D01*
X15577958Y-14790038D01*
X15795980Y-14392105D01*
X15820243Y-14315481D01*
X15895231Y-13994934D01*
X15900360Y-13821564D01*
X15859424Y-13784000D01*
X15776433Y-13833339D01*
X15590332Y-13967060D01*
X15330202Y-14163719D01*
X15076257Y-14361471D01*
X14726564Y-14636134D01*
X14378625Y-14907749D01*
X14082437Y-15137359D01*
X13946695Y-15241555D01*
X13743972Y-15409940D01*
X13620435Y-15540067D01*
X13600973Y-15595418D01*
X13314503Y-15595418D01*
X13407845Y-15511999D01*
X13665143Y-15301378D01*
X13990093Y-15045897D01*
X14357893Y-14763996D01*
X14743744Y-14474116D01*
X15122844Y-14194697D01*
X15470391Y-13944179D01*
X15761585Y-13741001D01*
X15971624Y-13603604D01*
X16075707Y-13550429D01*
X16079334Y-13550454D01*
X16189602Y-13653341D01*
X16235113Y-13903094D01*
X16215153Y-14289819D01*
X16159031Y-14651848D01*
X16104389Y-15006257D01*
X16099821Y-15248069D01*
X16144814Y-15426290D01*
X16150777Y-15439789D01*
X16251490Y-15593728D01*
X16333617Y-15587947D01*
X16390891Y-15431609D01*
X16417045Y-15133879D01*
X16418000Y-15049003D01*
X16430967Y-14780458D01*
X16464780Y-14598612D01*
X16502667Y-14546000D01*
X16584893Y-14608485D01*
X16587334Y-14628010D01*
X16649193Y-14683503D01*
X16693167Y-14677415D01*
X16986469Y-14594795D01*
X17156888Y-14582577D01*
X17241289Y-14655000D01*
X17276536Y-14826301D01*
X17283544Y-14905447D01*
X17303716Y-15125686D01*
X17327562Y-15193646D01*
X17372109Y-15125853D01*
X17413731Y-15031793D01*
X17570294Y-14812495D01*
X17785176Y-14676674D01*
X18004337Y-14651546D01*
X18096742Y-14687781D01*
X18195859Y-14823305D01*
X18236336Y-15082524D01*
X18238334Y-15184145D01*
X18259955Y-15458178D01*
X18319449Y-15609045D01*
X18344167Y-15625500D01*
X18409178Y-15592589D01*
X18442691Y-15426126D01*
X18450000Y-15193052D01*
X18471630Y-14861861D01*
X18539452Y-14689261D01*
X18657863Y-14669748D01*
X18794002Y-14762495D01*
X18925523Y-14862052D01*
X19027406Y-14841636D01*
X19121998Y-14762495D01*
X19285782Y-14662169D01*
X19396343Y-14712029D01*
X19458251Y-14917278D01*
X19475277Y-15164830D01*
X19484553Y-15604334D01*
X19557070Y-15235471D01*
X19592296Y-15109679D01*
X19804667Y-15109679D01*
X19838144Y-15185244D01*
X19963119Y-15144468D01*
X19969285Y-15141190D01*
X20123710Y-15036459D01*
X20182333Y-14974729D01*
X20170639Y-14866861D01*
X20141006Y-14840895D01*
X20008814Y-14841999D01*
X19874584Y-14944050D01*
X19805423Y-15093420D01*
X19804667Y-15109679D01*
X19592296Y-15109679D01*
X19651858Y-14896980D01*
X19783098Y-14703632D01*
X19968082Y-14632326D01*
X20009767Y-14630667D01*
X20252977Y-14685052D01*
X20373226Y-14824047D01*
X20366162Y-15011413D01*
X20227437Y-15210907D01*
X20091748Y-15313718D01*
X19909222Y-15438119D01*
X19858851Y-15516298D01*
X19921647Y-15578392D01*
X19924123Y-15579787D01*
X20148637Y-15619558D01*
X20367286Y-15514388D01*
X20515922Y-15323167D01*
X20586136Y-15080722D01*
X20600920Y-14718423D01*
X20589622Y-14501198D01*
X20577786Y-14249667D01*
G37*
%TD*%
D10*
%TO.P,J1,1,Pin_1*%
%TO.N,VCC*%
X35639999Y-33199999D03*
D11*
%TO.P,J1,2,Pin_2*%
%TO.N,MISO-H*%
X33099999Y-33199999D03*
%TO.P,J1,3,Pin_3*%
%TO.N,MOSI-H*%
X30559999Y-33199999D03*
%TO.P,J1,4,Pin_4*%
%TO.N,SCLK-H*%
X28019999Y-33199999D03*
%TO.P,J1,5,Pin_5*%
%TO.N,SS-H*%
X25479999Y-33199999D03*
%TO.P,J1,6,Pin_6*%
%TO.N,MOT-H*%
X22939999Y-33199999D03*
%TO.P,J1,7,Pin_7*%
%TO.N,GND*%
X20399999Y-33199999D03*
%TO.P,J1,8,Pin_8*%
%TO.N,NRESET-H*%
X17859999Y-33199999D03*
%TD*%
D12*
%TO.P,U1,1,NC*%
%TO.N,unconnected-(U1-NC-Pad1)*%
X32409999Y-29099999D03*
D13*
%TO.P,U1,2,NC*%
%TO.N,unconnected-(U1-NC-Pad2)*%
X30630000Y-29100000D03*
%TO.P,U1,3,VDDPIX*%
%TO.N,Net-(U1-VDDPIX)*%
X28850000Y-29100000D03*
%TO.P,U1,4,VDD*%
%TO.N,+2V*%
X27070000Y-29100000D03*
%TO.P,U1,5,VDDIO*%
X25290000Y-29100000D03*
%TO.P,U1,6,NC*%
%TO.N,unconnected-(U1-NC-Pad6)*%
X23510000Y-29100000D03*
%TO.P,U1,7,NRESET*%
%TO.N,NRESET*%
X21730000Y-29100000D03*
%TO.P,U1,8,GND*%
%TO.N,GND*%
X19950000Y-29100000D03*
%TO.P,U1,9,MOTION*%
%TO.N,MOT*%
X19060000Y-18400000D03*
%TO.P,U1,10,SCLK*%
%TO.N,SCLK*%
X20840000Y-18400000D03*
%TO.P,U1,11,MOSI*%
%TO.N,MOSI*%
X22620000Y-18400000D03*
%TO.P,U1,12,MISO*%
%TO.N,MISO*%
X24400000Y-18400000D03*
%TO.P,U1,13,NCS*%
%TO.N,SS*%
X26180000Y-18400000D03*
%TO.P,U1,14,NC*%
%TO.N,unconnected-(U1-NC-Pad14)*%
X27960000Y-18400000D03*
%TO.P,U1,15,LED_P*%
%TO.N,Net-(U1-LED_P)*%
X29740000Y-18400000D03*
%TO.P,U1,16,NC*%
%TO.N,unconnected-(U1-NC-Pad16)*%
X31520000Y-18400000D03*
%TD*%
D14*
%TO.N,GND*%
X36000000Y-16000000D03*
%TO.N,SS-H*%
X29200000Y-15800000D03*
%TO.N,GND*%
X31100000Y-30500000D03*
%TO.N,VCC*%
X26200000Y-15800000D03*
X26200000Y-14100000D03*
%TO.N,GND*%
X24100000Y-15900500D03*
%TO.N,+2V*%
X35200000Y-14500000D03*
%TO.N,VCC*%
X36700000Y-17300000D03*
X35372250Y-17300000D03*
%TO.N,+2V*%
X33200000Y-17700000D03*
%TO.N,GND*%
X39900000Y-13700000D03*
X38700000Y-20800000D03*
X39000000Y-20200000D03*
X25922000Y-30666000D03*
X27172000Y-15816000D03*
X14250000Y-26932000D03*
%TO.N,MOT-H*%
X14022000Y-29766000D03*
X16622000Y-32366000D03*
%TO.N,SS-H*%
X16632875Y-17804875D03*
X24521989Y-31150489D03*
X18352496Y-30560004D03*
X16822000Y-27016000D03*
%TO.N,SCLK-H*%
X34022000Y-30896953D03*
%TO.N,MOSI-H*%
X34671750Y-30316000D03*
%TO.N,MISO-H*%
X34972250Y-18500000D03*
%TO.N,MISO*%
X17672000Y-17816000D03*
%TO.N,+2V*%
X22622000Y-30066000D03*
X20822000Y-30066000D03*
%TD*%
D15*
%TO.N,SS-H*%
X27900000Y-17100000D02*
X29200000Y-15800000D01*
X27400000Y-17100000D02*
X27900000Y-17100000D01*
X27400000Y-17100000D02*
X17337750Y-17100000D01*
X27838000Y-17100000D02*
X27400000Y-17100000D01*
X17337750Y-17100000D02*
X16632875Y-17804875D01*
D16*
%TO.N,VCC*%
X26200000Y-15800000D02*
X26200000Y-14100000D01*
%TO.N,+2V*%
X33200000Y-16500000D02*
X33200000Y-17700000D01*
X35200000Y-14500000D02*
X33200000Y-16500000D01*
%TO.N,VCC*%
X36700000Y-17300000D02*
X35372250Y-17300000D01*
D15*
%TO.N,MISO-H*%
X36221750Y-19749500D02*
X36221750Y-30078250D01*
X36221750Y-30078250D02*
X33100000Y-33200000D01*
X34972250Y-18500000D02*
X36221750Y-19749500D01*
%TO.N,MOT-H*%
X14022000Y-29766000D02*
X16622000Y-32366000D01*
%TO.N,SS-H*%
X18352496Y-30560004D02*
X16822000Y-29029508D01*
X24521989Y-32241989D02*
X25480000Y-33200000D01*
X16822000Y-29029508D02*
X16822000Y-27016000D01*
X24521989Y-31150489D02*
X24521989Y-32241989D01*
%TO.N,SCLK-H*%
X33552953Y-31366000D02*
X34022000Y-30896953D01*
X29854000Y-31366000D02*
X33552953Y-31366000D01*
X29854000Y-31366000D02*
X28020000Y-33200000D01*
%TO.N,MOSI-H*%
X34671750Y-30316000D02*
X34671750Y-31062564D01*
X31994000Y-31766000D02*
X30560000Y-33200000D01*
X34671750Y-31062564D02*
X33968314Y-31766000D01*
X33968314Y-31766000D02*
X31994000Y-31766000D01*
%TO.N,MISO*%
X17988000Y-17500000D02*
X17672000Y-17816000D01*
X23500000Y-17500000D02*
X17988000Y-17500000D01*
X24400000Y-18400000D02*
X23500000Y-17500000D01*
D16*
%TO.N,+2V*%
X20822000Y-30066000D02*
X22622000Y-30066000D01*
%TD*%
%TA.AperFunction,Conductor*%
%TO.N,GND*%
G36*
X39754308Y-13025877D02*
G01*
X39771026Y-13027339D01*
X39910596Y-13039550D01*
X39927571Y-13042542D01*
X40074936Y-13082029D01*
X40091147Y-13087929D01*
X40229406Y-13152400D01*
X40244343Y-13161025D01*
X40369298Y-13248519D01*
X40382518Y-13259611D01*
X40490388Y-13367481D01*
X40501480Y-13380701D01*
X40588972Y-13505652D01*
X40597601Y-13520597D01*
X40662069Y-13658851D01*
X40667971Y-13675066D01*
X40683647Y-13733567D01*
X40707085Y-13821041D01*
X40707454Y-13822415D01*
X40710450Y-13839410D01*
X40724123Y-13995691D01*
X40724500Y-14004320D01*
X40724500Y-22418887D01*
X40705690Y-22476944D01*
X40656407Y-22512939D01*
X40595380Y-22513194D01*
X40545798Y-22477612D01*
X40545306Y-22476944D01*
X40434176Y-22326117D01*
X40229363Y-22114343D01*
X40226769Y-22112294D01*
X40226764Y-22112290D01*
X40000749Y-21933808D01*
X39998152Y-21931757D01*
X39995309Y-21930073D01*
X39995306Y-21930071D01*
X39747509Y-21783301D01*
X39747505Y-21783299D01*
X39744667Y-21781618D01*
X39741625Y-21780328D01*
X39741623Y-21780327D01*
X39476481Y-21667897D01*
X39476482Y-21667897D01*
X39473432Y-21666604D01*
X39442966Y-21658258D01*
X39192483Y-21589644D01*
X39192480Y-21589643D01*
X39189288Y-21588769D01*
X39185994Y-21588326D01*
X38900579Y-21549941D01*
X38900572Y-21549940D01*
X38897304Y-21549501D01*
X38676427Y-21549501D01*
X38674797Y-21549610D01*
X38674770Y-21549611D01*
X38459338Y-21564033D01*
X38459330Y-21564033D01*
X38456044Y-21564254D01*
X38452808Y-21564911D01*
X38452806Y-21564912D01*
X38170584Y-21622276D01*
X38170575Y-21622278D01*
X38167335Y-21622937D01*
X38164208Y-21624022D01*
X38164200Y-21624025D01*
X37892161Y-21718487D01*
X37892151Y-21718490D01*
X37889024Y-21719577D01*
X37886074Y-21721067D01*
X37886059Y-21721074D01*
X37629031Y-21850957D01*
X37629027Y-21850958D01*
X37626077Y-21852450D01*
X37623358Y-21854316D01*
X37623352Y-21854320D01*
X37385908Y-22017316D01*
X37385903Y-22017319D01*
X37383186Y-22019185D01*
X37380745Y-22021392D01*
X37380737Y-22021399D01*
X37167131Y-22214594D01*
X37167126Y-22214599D01*
X37164686Y-22216806D01*
X37162558Y-22219322D01*
X37162555Y-22219326D01*
X36976614Y-22439258D01*
X36976607Y-22439266D01*
X36974476Y-22441788D01*
X36972696Y-22444575D01*
X36972691Y-22444583D01*
X36817732Y-22687323D01*
X36817727Y-22687330D01*
X36815951Y-22690114D01*
X36814561Y-22693109D01*
X36814559Y-22693113D01*
X36711052Y-22916165D01*
X36676732Y-22956484D01*
X36626541Y-22973350D01*
X36574837Y-22961938D01*
X36536409Y-22925512D01*
X36522250Y-22874492D01*
X36522250Y-19802699D01*
X36522615Y-19797426D01*
X36524523Y-19791736D01*
X36522356Y-19744859D01*
X36522250Y-19740287D01*
X36522250Y-19726237D01*
X36522250Y-19721656D01*
X36521407Y-19717151D01*
X36520985Y-19712596D01*
X36521196Y-19712576D01*
X36520648Y-19707931D01*
X36519335Y-19679509D01*
X36515368Y-19670525D01*
X36508614Y-19648714D01*
X36506811Y-19639067D01*
X36501983Y-19631270D01*
X36501982Y-19631266D01*
X36491836Y-19614880D01*
X36485443Y-19602752D01*
X36473956Y-19576735D01*
X36467007Y-19569786D01*
X36452839Y-19551898D01*
X36452498Y-19551348D01*
X36447669Y-19543548D01*
X36440349Y-19538020D01*
X36440348Y-19538019D01*
X36424972Y-19526408D01*
X36414629Y-19517408D01*
X35455371Y-18558150D01*
X35433911Y-18526032D01*
X35428695Y-18499811D01*
X35427383Y-18500000D01*
X35408947Y-18371774D01*
X35355132Y-18253937D01*
X35270299Y-18156033D01*
X35264341Y-18152204D01*
X35167276Y-18089824D01*
X35167274Y-18089823D01*
X35161319Y-18085996D01*
X35154525Y-18084001D01*
X35043813Y-18051494D01*
X35037022Y-18049500D01*
X34907478Y-18049500D01*
X34900687Y-18051493D01*
X34900686Y-18051494D01*
X34789974Y-18084001D01*
X34789971Y-18084002D01*
X34783181Y-18085996D01*
X34777228Y-18089821D01*
X34777223Y-18089824D01*
X34680158Y-18152204D01*
X34680154Y-18152206D01*
X34674201Y-18156033D01*
X34669569Y-18161378D01*
X34669565Y-18161382D01*
X34594002Y-18248588D01*
X34593999Y-18248591D01*
X34589368Y-18253937D01*
X34586429Y-18260372D01*
X34586426Y-18260377D01*
X34538496Y-18365328D01*
X34538494Y-18365333D01*
X34535553Y-18371774D01*
X34534545Y-18378782D01*
X34534544Y-18378787D01*
X34530701Y-18405520D01*
X34517117Y-18500000D01*
X34518125Y-18507011D01*
X34534544Y-18621212D01*
X34534545Y-18621215D01*
X34535553Y-18628226D01*
X34589368Y-18746063D01*
X34594002Y-18751411D01*
X34596445Y-18754231D01*
X34674201Y-18843967D01*
X34783181Y-18914004D01*
X34907478Y-18950500D01*
X34956771Y-18950500D01*
X34994657Y-18958036D01*
X35026775Y-18979496D01*
X35892254Y-19844975D01*
X35913714Y-19877093D01*
X35921250Y-19914979D01*
X35921250Y-29912771D01*
X35913714Y-29950657D01*
X35892254Y-29982775D01*
X35225492Y-30649536D01*
X35177911Y-30675959D01*
X35123553Y-30673240D01*
X35078847Y-30642200D01*
X35057304Y-30592219D01*
X35065434Y-30538409D01*
X35108447Y-30444226D01*
X35126883Y-30316000D01*
X35108447Y-30187774D01*
X35054632Y-30069937D01*
X34969799Y-29972033D01*
X34936537Y-29950657D01*
X34866776Y-29905824D01*
X34866774Y-29905823D01*
X34860819Y-29901996D01*
X34854025Y-29900001D01*
X34743313Y-29867494D01*
X34736522Y-29865500D01*
X34606978Y-29865500D01*
X34600187Y-29867493D01*
X34600186Y-29867494D01*
X34489474Y-29900001D01*
X34489471Y-29900002D01*
X34482681Y-29901996D01*
X34476728Y-29905821D01*
X34476723Y-29905824D01*
X34379658Y-29968204D01*
X34379654Y-29968206D01*
X34373701Y-29972033D01*
X34369069Y-29977378D01*
X34369065Y-29977382D01*
X34293502Y-30064588D01*
X34293499Y-30064591D01*
X34288868Y-30069937D01*
X34285929Y-30076372D01*
X34285926Y-30076377D01*
X34237996Y-30181328D01*
X34237994Y-30181333D01*
X34235053Y-30187774D01*
X34234045Y-30194782D01*
X34234044Y-30194787D01*
X34218109Y-30305622D01*
X34216617Y-30316000D01*
X34217625Y-30323011D01*
X34220000Y-30339530D01*
X34214767Y-30388214D01*
X34186842Y-30428436D01*
X34143058Y-30450355D01*
X34100661Y-30448843D01*
X34100574Y-30449455D01*
X34094894Y-30448638D01*
X34094125Y-30448611D01*
X34093569Y-30448447D01*
X34093557Y-30448445D01*
X34086772Y-30446453D01*
X33957228Y-30446453D01*
X33950437Y-30448446D01*
X33950436Y-30448447D01*
X33839724Y-30480954D01*
X33839721Y-30480955D01*
X33832931Y-30482949D01*
X33826978Y-30486774D01*
X33826973Y-30486777D01*
X33729908Y-30549157D01*
X33729904Y-30549159D01*
X33723951Y-30552986D01*
X33719319Y-30558331D01*
X33719315Y-30558335D01*
X33643752Y-30645541D01*
X33643749Y-30645544D01*
X33639118Y-30650890D01*
X33636179Y-30657325D01*
X33636176Y-30657330D01*
X33588246Y-30762281D01*
X33588244Y-30762286D01*
X33585303Y-30768727D01*
X33584295Y-30775735D01*
X33584294Y-30775740D01*
X33566867Y-30896953D01*
X33565558Y-30896764D01*
X33560330Y-30923005D01*
X33538878Y-30955102D01*
X33457479Y-31036503D01*
X33425361Y-31057964D01*
X33387475Y-31065500D01*
X29907199Y-31065500D01*
X29901926Y-31065134D01*
X29896236Y-31063227D01*
X29887072Y-31063650D01*
X29887068Y-31063650D01*
X29849359Y-31065394D01*
X29844787Y-31065500D01*
X29826156Y-31065500D01*
X29821656Y-31066340D01*
X29817101Y-31066763D01*
X29817083Y-31066571D01*
X29812421Y-31067101D01*
X29793173Y-31067991D01*
X29793171Y-31067991D01*
X29784009Y-31068415D01*
X29775623Y-31072117D01*
X29775616Y-31072119D01*
X29775012Y-31072387D01*
X29753228Y-31079132D01*
X29752587Y-31079251D01*
X29752579Y-31079254D01*
X29743567Y-31080939D01*
X29735771Y-31085765D01*
X29735765Y-31085768D01*
X29719382Y-31095912D01*
X29707258Y-31102303D01*
X29689624Y-31110089D01*
X29689620Y-31110091D01*
X29681235Y-31113794D01*
X29674752Y-31120276D01*
X29674744Y-31120282D01*
X29674278Y-31120749D01*
X29656413Y-31134899D01*
X29655852Y-31135246D01*
X29655843Y-31135254D01*
X29648048Y-31140081D01*
X29642524Y-31147395D01*
X29642517Y-31147402D01*
X29630906Y-31162778D01*
X29621909Y-31173118D01*
X28571215Y-32223812D01*
X28536084Y-32246463D01*
X28494736Y-32252596D01*
X28454543Y-32241118D01*
X28428246Y-32227062D01*
X28428245Y-32227061D01*
X28423954Y-32224768D01*
X28419299Y-32223356D01*
X28419297Y-32223355D01*
X28230590Y-32166112D01*
X28230586Y-32166111D01*
X28225934Y-32164700D01*
X28020000Y-32144417D01*
X28015157Y-32144894D01*
X27818908Y-32164223D01*
X27818907Y-32164223D01*
X27814066Y-32164700D01*
X27809415Y-32166110D01*
X27809409Y-32166112D01*
X27620706Y-32223354D01*
X27620702Y-32223355D01*
X27616046Y-32224768D01*
X27611757Y-32227060D01*
X27611751Y-32227063D01*
X27437836Y-32320023D01*
X27437828Y-32320028D01*
X27433550Y-32322315D01*
X27429796Y-32325394D01*
X27429791Y-32325399D01*
X27277354Y-32450500D01*
X27277348Y-32450505D01*
X27273590Y-32453590D01*
X27270505Y-32457348D01*
X27270500Y-32457354D01*
X27145399Y-32609791D01*
X27145394Y-32609796D01*
X27142315Y-32613550D01*
X27140028Y-32617828D01*
X27140023Y-32617836D01*
X27047063Y-32791751D01*
X27047060Y-32791757D01*
X27044768Y-32796046D01*
X27043355Y-32800702D01*
X27043354Y-32800706D01*
X26986112Y-32989409D01*
X26986110Y-32989415D01*
X26984700Y-32994066D01*
X26964417Y-33200000D01*
X26984700Y-33405934D01*
X27044768Y-33603954D01*
X27047062Y-33608246D01*
X27047063Y-33608248D01*
X27140023Y-33782163D01*
X27140025Y-33782166D01*
X27142315Y-33786450D01*
X27273590Y-33946410D01*
X27433550Y-34077685D01*
X27616046Y-34175232D01*
X27814066Y-34235300D01*
X28020000Y-34255583D01*
X28225934Y-34235300D01*
X28423954Y-34175232D01*
X28606450Y-34077685D01*
X28766410Y-33946410D01*
X28897685Y-33786450D01*
X28995232Y-33603954D01*
X29055300Y-33405934D01*
X29075583Y-33200000D01*
X29055300Y-32994066D01*
X28995232Y-32796046D01*
X28978880Y-32765453D01*
X28967402Y-32725263D01*
X28973535Y-32683915D01*
X28996187Y-32648783D01*
X29949476Y-31695496D01*
X29981593Y-31674036D01*
X30019479Y-31666500D01*
X31429521Y-31666500D01*
X31484523Y-31683185D01*
X31520985Y-31727614D01*
X31526619Y-31784814D01*
X31499524Y-31835504D01*
X31111214Y-32223812D01*
X31076084Y-32246463D01*
X31034736Y-32252596D01*
X30994543Y-32241118D01*
X30968246Y-32227062D01*
X30968245Y-32227061D01*
X30963954Y-32224768D01*
X30959299Y-32223356D01*
X30959297Y-32223355D01*
X30770590Y-32166112D01*
X30770586Y-32166111D01*
X30765934Y-32164700D01*
X30560000Y-32144417D01*
X30555157Y-32144894D01*
X30358908Y-32164223D01*
X30358907Y-32164223D01*
X30354066Y-32164700D01*
X30349415Y-32166110D01*
X30349409Y-32166112D01*
X30160706Y-32223354D01*
X30160702Y-32223355D01*
X30156046Y-32224768D01*
X30151757Y-32227060D01*
X30151751Y-32227063D01*
X29977836Y-32320023D01*
X29977828Y-32320028D01*
X29973550Y-32322315D01*
X29969796Y-32325394D01*
X29969791Y-32325399D01*
X29817354Y-32450500D01*
X29817348Y-32450505D01*
X29813590Y-32453590D01*
X29810505Y-32457348D01*
X29810500Y-32457354D01*
X29685399Y-32609791D01*
X29685394Y-32609796D01*
X29682315Y-32613550D01*
X29680028Y-32617828D01*
X29680023Y-32617836D01*
X29587063Y-32791751D01*
X29587060Y-32791757D01*
X29584768Y-32796046D01*
X29583355Y-32800702D01*
X29583354Y-32800706D01*
X29526112Y-32989409D01*
X29526110Y-32989415D01*
X29524700Y-32994066D01*
X29504417Y-33200000D01*
X29524700Y-33405934D01*
X29584768Y-33603954D01*
X29587062Y-33608246D01*
X29587063Y-33608248D01*
X29680023Y-33782163D01*
X29680025Y-33782166D01*
X29682315Y-33786450D01*
X29813590Y-33946410D01*
X29973550Y-34077685D01*
X30156046Y-34175232D01*
X30354066Y-34235300D01*
X30560000Y-34255583D01*
X30765934Y-34235300D01*
X30963954Y-34175232D01*
X31146450Y-34077685D01*
X31306410Y-33946410D01*
X31437685Y-33786450D01*
X31535232Y-33603954D01*
X31595300Y-33405934D01*
X31615583Y-33200000D01*
X31595300Y-32994066D01*
X31535232Y-32796046D01*
X31518880Y-32765453D01*
X31507402Y-32725263D01*
X31513535Y-32683915D01*
X31536187Y-32648783D01*
X32089476Y-32095496D01*
X32121593Y-32074036D01*
X32159479Y-32066500D01*
X32596915Y-32066500D01*
X32646975Y-32080089D01*
X32683292Y-32117126D01*
X32695896Y-32167444D01*
X32681326Y-32217227D01*
X32643583Y-32252810D01*
X32517840Y-32320020D01*
X32517825Y-32320029D01*
X32513550Y-32322315D01*
X32509796Y-32325394D01*
X32509791Y-32325399D01*
X32357354Y-32450500D01*
X32357348Y-32450505D01*
X32353590Y-32453590D01*
X32350505Y-32457348D01*
X32350500Y-32457354D01*
X32225399Y-32609791D01*
X32225394Y-32609796D01*
X32222315Y-32613550D01*
X32220028Y-32617828D01*
X32220023Y-32617836D01*
X32127063Y-32791751D01*
X32127060Y-32791757D01*
X32124768Y-32796046D01*
X32123355Y-32800702D01*
X32123354Y-32800706D01*
X32066112Y-32989409D01*
X32066110Y-32989415D01*
X32064700Y-32994066D01*
X32044417Y-33200000D01*
X32064700Y-33405934D01*
X32124768Y-33603954D01*
X32127062Y-33608246D01*
X32127063Y-33608248D01*
X32220023Y-33782163D01*
X32220025Y-33782166D01*
X32222315Y-33786450D01*
X32353590Y-33946410D01*
X32513550Y-34077685D01*
X32696046Y-34175232D01*
X32894066Y-34235300D01*
X33100000Y-34255583D01*
X33305934Y-34235300D01*
X33503954Y-34175232D01*
X33686450Y-34077685D01*
X33846410Y-33946410D01*
X33977685Y-33786450D01*
X34075232Y-33603954D01*
X34135300Y-33405934D01*
X34155583Y-33200000D01*
X34135300Y-32994066D01*
X34075232Y-32796046D01*
X34058880Y-32765453D01*
X34047402Y-32725263D01*
X34053535Y-32683915D01*
X34076187Y-32648783D01*
X34420497Y-32304474D01*
X34471186Y-32277380D01*
X34528386Y-32283014D01*
X34572816Y-32319477D01*
X34589500Y-32374478D01*
X34589500Y-34069748D01*
X34590446Y-34074506D01*
X34590447Y-34074511D01*
X34599230Y-34118666D01*
X34601133Y-34128231D01*
X34606550Y-34136338D01*
X34606551Y-34136340D01*
X34640028Y-34186441D01*
X34645448Y-34194552D01*
X34711769Y-34238867D01*
X34770252Y-34250500D01*
X36504890Y-34250500D01*
X36509748Y-34250500D01*
X36568231Y-34238867D01*
X36634552Y-34194552D01*
X36678867Y-34128231D01*
X36690500Y-34069748D01*
X36690500Y-32330252D01*
X36678867Y-32271769D01*
X36634552Y-32205448D01*
X36626441Y-32200028D01*
X36576340Y-32166551D01*
X36576338Y-32166550D01*
X36568231Y-32161133D01*
X36558667Y-32159230D01*
X36558666Y-32159230D01*
X36514511Y-32150447D01*
X36514506Y-32150446D01*
X36509748Y-32149500D01*
X34814478Y-32149500D01*
X34759477Y-32132815D01*
X34723014Y-32088386D01*
X34717380Y-32031186D01*
X34744474Y-31980496D01*
X35567470Y-31157500D01*
X36396624Y-30328345D01*
X36400603Y-30324883D01*
X36405978Y-30322208D01*
X36437628Y-30287488D01*
X36440746Y-30284223D01*
X36453924Y-30271047D01*
X36456512Y-30267267D01*
X36459438Y-30263745D01*
X36459608Y-30263886D01*
X36462499Y-30260207D01*
X36481666Y-30239183D01*
X36485215Y-30230020D01*
X36495858Y-30209830D01*
X36496222Y-30209298D01*
X36501406Y-30201731D01*
X36507916Y-30174048D01*
X36511972Y-30160951D01*
X36522250Y-30134423D01*
X36522250Y-30124598D01*
X36524880Y-30101932D01*
X36524935Y-30101696D01*
X36527129Y-30092369D01*
X36523198Y-30064196D01*
X36522250Y-30050519D01*
X36522250Y-24620861D01*
X36537099Y-24568711D01*
X36577192Y-24532205D01*
X36630501Y-24522294D01*
X36681035Y-24541951D01*
X36713634Y-24585278D01*
X36749477Y-24678341D01*
X36751065Y-24681239D01*
X36751068Y-24681245D01*
X36875248Y-24907845D01*
X36891062Y-24936701D01*
X36893017Y-24939354D01*
X36893020Y-24939359D01*
X37062996Y-25170052D01*
X37065820Y-25173885D01*
X37270633Y-25385659D01*
X37501844Y-25568245D01*
X37755329Y-25718384D01*
X38026564Y-25833398D01*
X38310708Y-25911233D01*
X38602692Y-25950501D01*
X38821908Y-25950501D01*
X38823569Y-25950501D01*
X39043952Y-25935748D01*
X39332661Y-25877065D01*
X39610972Y-25780425D01*
X39873919Y-25647552D01*
X40116810Y-25480817D01*
X40335310Y-25283196D01*
X40525520Y-25058214D01*
X40542053Y-25032314D01*
X40579087Y-24998138D01*
X40628147Y-24986619D01*
X40676520Y-25000743D01*
X40711674Y-25036850D01*
X40724500Y-25085584D01*
X40724500Y-33495680D01*
X40724123Y-33504309D01*
X40710450Y-33660589D01*
X40707454Y-33677584D01*
X40667971Y-33824933D01*
X40662069Y-33841148D01*
X40597601Y-33979402D01*
X40588972Y-33994347D01*
X40501480Y-34119298D01*
X40490388Y-34132518D01*
X40382518Y-34240388D01*
X40369298Y-34251480D01*
X40244347Y-34338972D01*
X40229402Y-34347601D01*
X40091148Y-34412069D01*
X40074933Y-34417971D01*
X39952319Y-34450826D01*
X39927582Y-34457454D01*
X39910589Y-34460450D01*
X39754309Y-34474123D01*
X39745680Y-34474500D01*
X13754320Y-34474500D01*
X13745691Y-34474123D01*
X13589410Y-34460450D01*
X13572419Y-34457454D01*
X13481038Y-34432969D01*
X13425066Y-34417971D01*
X13408851Y-34412069D01*
X13270597Y-34347601D01*
X13255652Y-34338972D01*
X13130701Y-34251480D01*
X13117481Y-34240388D01*
X13009611Y-34132518D01*
X12998519Y-34119298D01*
X12911025Y-33994343D01*
X12902398Y-33979402D01*
X12888454Y-33949499D01*
X12837929Y-33841147D01*
X12832028Y-33824933D01*
X12792542Y-33677571D01*
X12789550Y-33660596D01*
X12775877Y-33504308D01*
X12775500Y-33495680D01*
X12775500Y-29766000D01*
X13566867Y-29766000D01*
X13567875Y-29773011D01*
X13584294Y-29887212D01*
X13584295Y-29887215D01*
X13585303Y-29894226D01*
X13588245Y-29900668D01*
X13588246Y-29900671D01*
X13623279Y-29977382D01*
X13639118Y-30012063D01*
X13643752Y-30017411D01*
X13716988Y-30101932D01*
X13723951Y-30109967D01*
X13832931Y-30180004D01*
X13957228Y-30216500D01*
X14006521Y-30216500D01*
X14044407Y-30224036D01*
X14076525Y-30245496D01*
X16138878Y-32307849D01*
X16160330Y-32339947D01*
X16165558Y-32366188D01*
X16166867Y-32366000D01*
X16184294Y-32487212D01*
X16184295Y-32487215D01*
X16185303Y-32494226D01*
X16239118Y-32612063D01*
X16243752Y-32617411D01*
X16301374Y-32683912D01*
X16323951Y-32709967D01*
X16432931Y-32780004D01*
X16557228Y-32816500D01*
X16679694Y-32816500D01*
X16686772Y-32816500D01*
X16721497Y-32806303D01*
X16774084Y-32805424D01*
X16819702Y-32831603D01*
X16845473Y-32877453D01*
X16844124Y-32930032D01*
X16826112Y-32989409D01*
X16826110Y-32989415D01*
X16824700Y-32994066D01*
X16804417Y-33200000D01*
X16824700Y-33405934D01*
X16884768Y-33603954D01*
X16887062Y-33608246D01*
X16887063Y-33608248D01*
X16980023Y-33782163D01*
X16980025Y-33782166D01*
X16982315Y-33786450D01*
X17113590Y-33946410D01*
X17273550Y-34077685D01*
X17456046Y-34175232D01*
X17654066Y-34235300D01*
X17860000Y-34255583D01*
X18065934Y-34235300D01*
X18263954Y-34175232D01*
X18446450Y-34077685D01*
X18606410Y-33946410D01*
X18737685Y-33786450D01*
X18835232Y-33603954D01*
X18895300Y-33405934D01*
X18915583Y-33200000D01*
X21884417Y-33200000D01*
X21904700Y-33405934D01*
X21964768Y-33603954D01*
X21967062Y-33608246D01*
X21967063Y-33608248D01*
X22060023Y-33782163D01*
X22060025Y-33782166D01*
X22062315Y-33786450D01*
X22193590Y-33946410D01*
X22353550Y-34077685D01*
X22536046Y-34175232D01*
X22734066Y-34235300D01*
X22940000Y-34255583D01*
X23145934Y-34235300D01*
X23343954Y-34175232D01*
X23526450Y-34077685D01*
X23686410Y-33946410D01*
X23817685Y-33786450D01*
X23915232Y-33603954D01*
X23975300Y-33405934D01*
X23995583Y-33200000D01*
X23975300Y-32994066D01*
X23915232Y-32796046D01*
X23817685Y-32613550D01*
X23686410Y-32453590D01*
X23669348Y-32439588D01*
X23530208Y-32325399D01*
X23530207Y-32325398D01*
X23526450Y-32322315D01*
X23522166Y-32320025D01*
X23522163Y-32320023D01*
X23348248Y-32227063D01*
X23348246Y-32227062D01*
X23343954Y-32224768D01*
X23339293Y-32223354D01*
X23150590Y-32166112D01*
X23150586Y-32166111D01*
X23145934Y-32164700D01*
X22940000Y-32144417D01*
X22935157Y-32144894D01*
X22738908Y-32164223D01*
X22738907Y-32164223D01*
X22734066Y-32164700D01*
X22729415Y-32166110D01*
X22729409Y-32166112D01*
X22540706Y-32223354D01*
X22540702Y-32223355D01*
X22536046Y-32224768D01*
X22531757Y-32227060D01*
X22531751Y-32227063D01*
X22357836Y-32320023D01*
X22357828Y-32320028D01*
X22353550Y-32322315D01*
X22349796Y-32325394D01*
X22349791Y-32325399D01*
X22197354Y-32450500D01*
X22197348Y-32450505D01*
X22193590Y-32453590D01*
X22190505Y-32457348D01*
X22190500Y-32457354D01*
X22065399Y-32609791D01*
X22065394Y-32609796D01*
X22062315Y-32613550D01*
X22060028Y-32617828D01*
X22060023Y-32617836D01*
X21967063Y-32791751D01*
X21967060Y-32791757D01*
X21964768Y-32796046D01*
X21963355Y-32800702D01*
X21963354Y-32800706D01*
X21906112Y-32989409D01*
X21906110Y-32989415D01*
X21904700Y-32994066D01*
X21884417Y-33200000D01*
X18915583Y-33200000D01*
X18895300Y-32994066D01*
X18835232Y-32796046D01*
X18737685Y-32613550D01*
X18606410Y-32453590D01*
X18589348Y-32439588D01*
X18450208Y-32325399D01*
X18450207Y-32325398D01*
X18446450Y-32322315D01*
X18442166Y-32320025D01*
X18442163Y-32320023D01*
X18268248Y-32227063D01*
X18268246Y-32227062D01*
X18263954Y-32224768D01*
X18259293Y-32223354D01*
X18070590Y-32166112D01*
X18070586Y-32166111D01*
X18065934Y-32164700D01*
X17860000Y-32144417D01*
X17855157Y-32144894D01*
X17658908Y-32164223D01*
X17658907Y-32164223D01*
X17654066Y-32164700D01*
X17649415Y-32166110D01*
X17649409Y-32166112D01*
X17460706Y-32223354D01*
X17460702Y-32223355D01*
X17456046Y-32224768D01*
X17451757Y-32227060D01*
X17451751Y-32227063D01*
X17277836Y-32320023D01*
X17277828Y-32320028D01*
X17273550Y-32322315D01*
X17269799Y-32325393D01*
X17269792Y-32325398D01*
X17228040Y-32359663D01*
X17180852Y-32380895D01*
X17129399Y-32375420D01*
X17087736Y-32344735D01*
X17067244Y-32297222D01*
X17058697Y-32237774D01*
X17004882Y-32119937D01*
X16920049Y-32022033D01*
X16811069Y-31951996D01*
X16804275Y-31950001D01*
X16693563Y-31917494D01*
X16686772Y-31915500D01*
X16679694Y-31915500D01*
X16637479Y-31915500D01*
X16599593Y-31907964D01*
X16567475Y-31886504D01*
X15831460Y-31150489D01*
X24066856Y-31150489D01*
X24067864Y-31157500D01*
X24084283Y-31271701D01*
X24084284Y-31271704D01*
X24085292Y-31278715D01*
X24139107Y-31396552D01*
X24143742Y-31401901D01*
X24143744Y-31401904D01*
X24197308Y-31463721D01*
X24215247Y-31493955D01*
X24221489Y-31528552D01*
X24221489Y-32188791D01*
X24221123Y-32194063D01*
X24219216Y-32199754D01*
X24219639Y-32208916D01*
X24219639Y-32208921D01*
X24221383Y-32246631D01*
X24221489Y-32251203D01*
X24221489Y-32269833D01*
X24222331Y-32274340D01*
X24222753Y-32278888D01*
X24222555Y-32278906D01*
X24223090Y-32283565D01*
X24223980Y-32302813D01*
X24224404Y-32311981D01*
X24228374Y-32320973D01*
X24235121Y-32342761D01*
X24236928Y-32352422D01*
X24241755Y-32360219D01*
X24241756Y-32360220D01*
X24251900Y-32376604D01*
X24258289Y-32388725D01*
X24269783Y-32414754D01*
X24276266Y-32421237D01*
X24276267Y-32421238D01*
X24276732Y-32421703D01*
X24290897Y-32439587D01*
X24296070Y-32447941D01*
X24303392Y-32453470D01*
X24318761Y-32465076D01*
X24329105Y-32474076D01*
X24503811Y-32648782D01*
X24526461Y-32683912D01*
X24532595Y-32725258D01*
X24521119Y-32765450D01*
X24507065Y-32791745D01*
X24507058Y-32791760D01*
X24504768Y-32796046D01*
X24503356Y-32800700D01*
X24503355Y-32800703D01*
X24446112Y-32989409D01*
X24446110Y-32989415D01*
X24444700Y-32994066D01*
X24424417Y-33200000D01*
X24444700Y-33405934D01*
X24504768Y-33603954D01*
X24507062Y-33608246D01*
X24507063Y-33608248D01*
X24600023Y-33782163D01*
X24600025Y-33782166D01*
X24602315Y-33786450D01*
X24733590Y-33946410D01*
X24893550Y-34077685D01*
X25076046Y-34175232D01*
X25274066Y-34235300D01*
X25480000Y-34255583D01*
X25685934Y-34235300D01*
X25883954Y-34175232D01*
X26066450Y-34077685D01*
X26226410Y-33946410D01*
X26357685Y-33786450D01*
X26455232Y-33603954D01*
X26515300Y-33405934D01*
X26535583Y-33200000D01*
X26515300Y-32994066D01*
X26455232Y-32796046D01*
X26357685Y-32613550D01*
X26226410Y-32453590D01*
X26209348Y-32439588D01*
X26070208Y-32325399D01*
X26070207Y-32325398D01*
X26066450Y-32322315D01*
X26062166Y-32320025D01*
X26062163Y-32320023D01*
X25888248Y-32227063D01*
X25888246Y-32227062D01*
X25883954Y-32224768D01*
X25879293Y-32223354D01*
X25690590Y-32166112D01*
X25690586Y-32166111D01*
X25685934Y-32164700D01*
X25480000Y-32144417D01*
X25475157Y-32144894D01*
X25278908Y-32164223D01*
X25278907Y-32164223D01*
X25274066Y-32164700D01*
X25269415Y-32166110D01*
X25269409Y-32166112D01*
X25080703Y-32223355D01*
X25080700Y-32223356D01*
X25076046Y-32224768D01*
X25071760Y-32227058D01*
X25071745Y-32227065D01*
X25045450Y-32241119D01*
X25005258Y-32252595D01*
X24963912Y-32246461D01*
X24928782Y-32223811D01*
X24851485Y-32146514D01*
X24830025Y-32114396D01*
X24822489Y-32076510D01*
X24822489Y-31528552D01*
X24828731Y-31493955D01*
X24846670Y-31463721D01*
X24875246Y-31430740D01*
X24904871Y-31396552D01*
X24958686Y-31278715D01*
X24977122Y-31150489D01*
X24958686Y-31022263D01*
X24904871Y-30904426D01*
X24820038Y-30806522D01*
X24761228Y-30768727D01*
X24717015Y-30740313D01*
X24717013Y-30740312D01*
X24711058Y-30736485D01*
X24704264Y-30734490D01*
X24593552Y-30701983D01*
X24586761Y-30699989D01*
X24457217Y-30699989D01*
X24450426Y-30701982D01*
X24450425Y-30701983D01*
X24339713Y-30734490D01*
X24339710Y-30734491D01*
X24332920Y-30736485D01*
X24326967Y-30740310D01*
X24326962Y-30740313D01*
X24229897Y-30802693D01*
X24229893Y-30802695D01*
X24223940Y-30806522D01*
X24219308Y-30811867D01*
X24219304Y-30811871D01*
X24143741Y-30899077D01*
X24143738Y-30899080D01*
X24139107Y-30904426D01*
X24136168Y-30910861D01*
X24136165Y-30910866D01*
X24088235Y-31015817D01*
X24088233Y-31015822D01*
X24085292Y-31022263D01*
X24084284Y-31029271D01*
X24084283Y-31029276D01*
X24072132Y-31113794D01*
X24066856Y-31150489D01*
X15831460Y-31150489D01*
X14505121Y-29824150D01*
X14483661Y-29792032D01*
X14478445Y-29765811D01*
X14477133Y-29766000D01*
X14458697Y-29637774D01*
X14404882Y-29519937D01*
X14320049Y-29422033D01*
X14211069Y-29351996D01*
X14204275Y-29350001D01*
X14093563Y-29317494D01*
X14086772Y-29315500D01*
X13957228Y-29315500D01*
X13950437Y-29317493D01*
X13950436Y-29317494D01*
X13839724Y-29350001D01*
X13839721Y-29350002D01*
X13832931Y-29351996D01*
X13826978Y-29355821D01*
X13826973Y-29355824D01*
X13729908Y-29418204D01*
X13729904Y-29418206D01*
X13723951Y-29422033D01*
X13719319Y-29427378D01*
X13719315Y-29427382D01*
X13643752Y-29514588D01*
X13643749Y-29514591D01*
X13639118Y-29519937D01*
X13636179Y-29526372D01*
X13636176Y-29526377D01*
X13588246Y-29631328D01*
X13588244Y-29631333D01*
X13585303Y-29637774D01*
X13584295Y-29644782D01*
X13584294Y-29644787D01*
X13572419Y-29727382D01*
X13566867Y-29766000D01*
X12775500Y-29766000D01*
X12775500Y-27016000D01*
X16366867Y-27016000D01*
X16367875Y-27023011D01*
X16384294Y-27137212D01*
X16384295Y-27137215D01*
X16385303Y-27144226D01*
X16439118Y-27262063D01*
X16443753Y-27267412D01*
X16443755Y-27267415D01*
X16497319Y-27329232D01*
X16515258Y-27359466D01*
X16521500Y-27394063D01*
X16521500Y-28976310D01*
X16521134Y-28981582D01*
X16519227Y-28987273D01*
X16519650Y-28996435D01*
X16519650Y-28996440D01*
X16521394Y-29034150D01*
X16521500Y-29038722D01*
X16521500Y-29057352D01*
X16522342Y-29061859D01*
X16522764Y-29066407D01*
X16522566Y-29066425D01*
X16523101Y-29071084D01*
X16524415Y-29099500D01*
X16528385Y-29108492D01*
X16535132Y-29130280D01*
X16536939Y-29139941D01*
X16541766Y-29147738D01*
X16541767Y-29147739D01*
X16551911Y-29164123D01*
X16558300Y-29176244D01*
X16569794Y-29202273D01*
X16576278Y-29208757D01*
X16576743Y-29209222D01*
X16590908Y-29227106D01*
X16596081Y-29235460D01*
X16603403Y-29240989D01*
X16618772Y-29252595D01*
X16629116Y-29261595D01*
X17869374Y-30501853D01*
X17890826Y-30533951D01*
X17896054Y-30560192D01*
X17897363Y-30560004D01*
X17914790Y-30681216D01*
X17914791Y-30681219D01*
X17915799Y-30688230D01*
X17918741Y-30694672D01*
X17918742Y-30694675D01*
X17939584Y-30740313D01*
X17969614Y-30806067D01*
X18054447Y-30903971D01*
X18163427Y-30974008D01*
X18287724Y-31010504D01*
X18410190Y-31010504D01*
X18417268Y-31010504D01*
X18541565Y-30974008D01*
X18650545Y-30903971D01*
X18735378Y-30806067D01*
X18789193Y-30688230D01*
X18807629Y-30560004D01*
X18789193Y-30431778D01*
X18735378Y-30313941D01*
X18650545Y-30216037D01*
X18617479Y-30194787D01*
X18547522Y-30149828D01*
X18547520Y-30149827D01*
X18541565Y-30146000D01*
X18534771Y-30144005D01*
X18424059Y-30111498D01*
X18417268Y-30109504D01*
X18410190Y-30109504D01*
X18367975Y-30109504D01*
X18330089Y-30101968D01*
X18297971Y-30080508D01*
X18283463Y-30066000D01*
X20366867Y-30066000D01*
X20367875Y-30073011D01*
X20384294Y-30187212D01*
X20384295Y-30187215D01*
X20385303Y-30194226D01*
X20388245Y-30200668D01*
X20388246Y-30200671D01*
X20427906Y-30287514D01*
X20439118Y-30312063D01*
X20523951Y-30409967D01*
X20632931Y-30480004D01*
X20757228Y-30516500D01*
X20879694Y-30516500D01*
X20886772Y-30516500D01*
X21011069Y-30480004D01*
X21085429Y-30432215D01*
X21138951Y-30416500D01*
X22305049Y-30416500D01*
X22358570Y-30432215D01*
X22432931Y-30480004D01*
X22557228Y-30516500D01*
X22679694Y-30516500D01*
X22686772Y-30516500D01*
X22811069Y-30480004D01*
X22920049Y-30409967D01*
X23004882Y-30312063D01*
X23058697Y-30194226D01*
X23077133Y-30066000D01*
X23059554Y-29943735D01*
X23065237Y-29893871D01*
X23094644Y-29853200D01*
X23140217Y-29832176D01*
X23190241Y-29836203D01*
X23330745Y-29885368D01*
X23510000Y-29905565D01*
X23689255Y-29885368D01*
X23859522Y-29825789D01*
X24012262Y-29729816D01*
X24139816Y-29602262D01*
X24235789Y-29449522D01*
X24295368Y-29279255D01*
X24301622Y-29223747D01*
X24324003Y-29171385D01*
X24371528Y-29140015D01*
X24428472Y-29140015D01*
X24475997Y-29171385D01*
X24498378Y-29223748D01*
X24504009Y-29273732D01*
X24504010Y-29273738D01*
X24504632Y-29279255D01*
X24506467Y-29284500D01*
X24506468Y-29284503D01*
X24553252Y-29418204D01*
X24564211Y-29449522D01*
X24660184Y-29602262D01*
X24787738Y-29729816D01*
X24940478Y-29825789D01*
X25110745Y-29885368D01*
X25290000Y-29905565D01*
X25469255Y-29885368D01*
X25639522Y-29825789D01*
X25792262Y-29729816D01*
X25919816Y-29602262D01*
X26015789Y-29449522D01*
X26075368Y-29279255D01*
X26081622Y-29223747D01*
X26104003Y-29171385D01*
X26151528Y-29140015D01*
X26208472Y-29140015D01*
X26255997Y-29171385D01*
X26278378Y-29223748D01*
X26284009Y-29273732D01*
X26284010Y-29273738D01*
X26284632Y-29279255D01*
X26286467Y-29284500D01*
X26286468Y-29284503D01*
X26333252Y-29418204D01*
X26344211Y-29449522D01*
X26440184Y-29602262D01*
X26567738Y-29729816D01*
X26720478Y-29825789D01*
X26890745Y-29885368D01*
X27070000Y-29905565D01*
X27249255Y-29885368D01*
X27419522Y-29825789D01*
X27572262Y-29729816D01*
X27699816Y-29602262D01*
X27795789Y-29449522D01*
X27855368Y-29279255D01*
X27861622Y-29223747D01*
X27884003Y-29171385D01*
X27931528Y-29140015D01*
X27988472Y-29140015D01*
X28035997Y-29171385D01*
X28058378Y-29223748D01*
X28064009Y-29273732D01*
X28064010Y-29273738D01*
X28064632Y-29279255D01*
X28066467Y-29284500D01*
X28066468Y-29284503D01*
X28113252Y-29418204D01*
X28124211Y-29449522D01*
X28220184Y-29602262D01*
X28347738Y-29729816D01*
X28500478Y-29825789D01*
X28670745Y-29885368D01*
X28850000Y-29905565D01*
X29029255Y-29885368D01*
X29199522Y-29825789D01*
X29352262Y-29729816D01*
X29479816Y-29602262D01*
X29575789Y-29449522D01*
X29635368Y-29279255D01*
X29641622Y-29223747D01*
X29664003Y-29171385D01*
X29711528Y-29140015D01*
X29768472Y-29140015D01*
X29815997Y-29171385D01*
X29838378Y-29223748D01*
X29844009Y-29273732D01*
X29844010Y-29273738D01*
X29844632Y-29279255D01*
X29846467Y-29284500D01*
X29846468Y-29284503D01*
X29893252Y-29418204D01*
X29904211Y-29449522D01*
X30000184Y-29602262D01*
X30127738Y-29729816D01*
X30280478Y-29825789D01*
X30450745Y-29885368D01*
X30630000Y-29905565D01*
X30809255Y-29885368D01*
X30979522Y-29825789D01*
X31132262Y-29729816D01*
X31259816Y-29602262D01*
X31355789Y-29449522D01*
X31415368Y-29279255D01*
X31415760Y-29279392D01*
X31442088Y-29233000D01*
X31492826Y-29207149D01*
X31549411Y-29213526D01*
X31593123Y-29250021D01*
X31609500Y-29304559D01*
X31609500Y-29719748D01*
X31610446Y-29724506D01*
X31610447Y-29724511D01*
X31618700Y-29766000D01*
X31621133Y-29778231D01*
X31626550Y-29786338D01*
X31626551Y-29786340D01*
X31654138Y-29827626D01*
X31665448Y-29844552D01*
X31731769Y-29888867D01*
X31790252Y-29900500D01*
X33024890Y-29900500D01*
X33029748Y-29900500D01*
X33088231Y-29888867D01*
X33154552Y-29844552D01*
X33198867Y-29778231D01*
X33210500Y-29719748D01*
X33210500Y-28480252D01*
X33198867Y-28421769D01*
X33154552Y-28355448D01*
X33146441Y-28350028D01*
X33096340Y-28316551D01*
X33096338Y-28316550D01*
X33088231Y-28311133D01*
X33078667Y-28309230D01*
X33078666Y-28309230D01*
X33034511Y-28300447D01*
X33034506Y-28300446D01*
X33029748Y-28299500D01*
X31790252Y-28299500D01*
X31785494Y-28300446D01*
X31785488Y-28300447D01*
X31741333Y-28309230D01*
X31741330Y-28309231D01*
X31731769Y-28311133D01*
X31723663Y-28316549D01*
X31723659Y-28316551D01*
X31673558Y-28350028D01*
X31673555Y-28350030D01*
X31665448Y-28355448D01*
X31660030Y-28363555D01*
X31660028Y-28363558D01*
X31626551Y-28413659D01*
X31626549Y-28413663D01*
X31621133Y-28421769D01*
X31619231Y-28431330D01*
X31619230Y-28431333D01*
X31610447Y-28475488D01*
X31610446Y-28475494D01*
X31609500Y-28480252D01*
X31609500Y-28485110D01*
X31609500Y-28895441D01*
X31593123Y-28949979D01*
X31549411Y-28986474D01*
X31492826Y-28992851D01*
X31442088Y-28967000D01*
X31415760Y-28920607D01*
X31415368Y-28920745D01*
X31414611Y-28918581D01*
X31414610Y-28918580D01*
X31355789Y-28750478D01*
X31259816Y-28597738D01*
X31132262Y-28470184D01*
X30979522Y-28374211D01*
X30974271Y-28372373D01*
X30974270Y-28372373D01*
X30814503Y-28316468D01*
X30814500Y-28316467D01*
X30809255Y-28314632D01*
X30803738Y-28314010D01*
X30803732Y-28314009D01*
X30635520Y-28295057D01*
X30630000Y-28294435D01*
X30624480Y-28295057D01*
X30456267Y-28314009D01*
X30456259Y-28314010D01*
X30450745Y-28314632D01*
X30445501Y-28316466D01*
X30445496Y-28316468D01*
X30285729Y-28372373D01*
X30285724Y-28372375D01*
X30280478Y-28374211D01*
X30275771Y-28377168D01*
X30275768Y-28377170D01*
X30132446Y-28467225D01*
X30132441Y-28467228D01*
X30127738Y-28470184D01*
X30123811Y-28474110D01*
X30123807Y-28474114D01*
X30004114Y-28593807D01*
X30004110Y-28593811D01*
X30000184Y-28597738D01*
X29997228Y-28602441D01*
X29997225Y-28602446D01*
X29907170Y-28745768D01*
X29904211Y-28750478D01*
X29902375Y-28755724D01*
X29902373Y-28755729D01*
X29846468Y-28915496D01*
X29846466Y-28915501D01*
X29844632Y-28920745D01*
X29844010Y-28926259D01*
X29844009Y-28926267D01*
X29838378Y-28976251D01*
X29815997Y-29028614D01*
X29768472Y-29059984D01*
X29711528Y-29059984D01*
X29664003Y-29028614D01*
X29641622Y-28976251D01*
X29635990Y-28926267D01*
X29635368Y-28920745D01*
X29575789Y-28750478D01*
X29479816Y-28597738D01*
X29352262Y-28470184D01*
X29199522Y-28374211D01*
X29194271Y-28372373D01*
X29194270Y-28372373D01*
X29034503Y-28316468D01*
X29034500Y-28316467D01*
X29029255Y-28314632D01*
X29023738Y-28314010D01*
X29023732Y-28314009D01*
X28855520Y-28295057D01*
X28850000Y-28294435D01*
X28844480Y-28295057D01*
X28676267Y-28314009D01*
X28676259Y-28314010D01*
X28670745Y-28314632D01*
X28665501Y-28316466D01*
X28665496Y-28316468D01*
X28505729Y-28372373D01*
X28505724Y-28372375D01*
X28500478Y-28374211D01*
X28495771Y-28377168D01*
X28495768Y-28377170D01*
X28352446Y-28467225D01*
X28352441Y-28467228D01*
X28347738Y-28470184D01*
X28343811Y-28474110D01*
X28343807Y-28474114D01*
X28224114Y-28593807D01*
X28224110Y-28593811D01*
X28220184Y-28597738D01*
X28217228Y-28602441D01*
X28217225Y-28602446D01*
X28127170Y-28745768D01*
X28124211Y-28750478D01*
X28122375Y-28755724D01*
X28122373Y-28755729D01*
X28066468Y-28915496D01*
X28066466Y-28915501D01*
X28064632Y-28920745D01*
X28064010Y-28926259D01*
X28064009Y-28926267D01*
X28058378Y-28976251D01*
X28035997Y-29028614D01*
X27988472Y-29059984D01*
X27931528Y-29059984D01*
X27884003Y-29028614D01*
X27861622Y-28976251D01*
X27855990Y-28926267D01*
X27855368Y-28920745D01*
X27795789Y-28750478D01*
X27699816Y-28597738D01*
X27572262Y-28470184D01*
X27419522Y-28374211D01*
X27414271Y-28372373D01*
X27414270Y-28372373D01*
X27254503Y-28316468D01*
X27254500Y-28316467D01*
X27249255Y-28314632D01*
X27243738Y-28314010D01*
X27243732Y-28314009D01*
X27075520Y-28295057D01*
X27070000Y-28294435D01*
X27064480Y-28295057D01*
X26896267Y-28314009D01*
X26896259Y-28314010D01*
X26890745Y-28314632D01*
X26885501Y-28316466D01*
X26885496Y-28316468D01*
X26725729Y-28372373D01*
X26725724Y-28372375D01*
X26720478Y-28374211D01*
X26715771Y-28377168D01*
X26715768Y-28377170D01*
X26572446Y-28467225D01*
X26572441Y-28467228D01*
X26567738Y-28470184D01*
X26563811Y-28474110D01*
X26563807Y-28474114D01*
X26444114Y-28593807D01*
X26444110Y-28593811D01*
X26440184Y-28597738D01*
X26437228Y-28602441D01*
X26437225Y-28602446D01*
X26347170Y-28745768D01*
X26344211Y-28750478D01*
X26342375Y-28755724D01*
X26342373Y-28755729D01*
X26286468Y-28915496D01*
X26286466Y-28915501D01*
X26284632Y-28920745D01*
X26284010Y-28926259D01*
X26284009Y-28926267D01*
X26278378Y-28976251D01*
X26255997Y-29028614D01*
X26208472Y-29059984D01*
X26151528Y-29059984D01*
X26104003Y-29028614D01*
X26081622Y-28976251D01*
X26075990Y-28926267D01*
X26075368Y-28920745D01*
X26015789Y-28750478D01*
X25919816Y-28597738D01*
X25792262Y-28470184D01*
X25639522Y-28374211D01*
X25634271Y-28372373D01*
X25634270Y-28372373D01*
X25474503Y-28316468D01*
X25474500Y-28316467D01*
X25469255Y-28314632D01*
X25463738Y-28314010D01*
X25463732Y-28314009D01*
X25295520Y-28295057D01*
X25290000Y-28294435D01*
X25284480Y-28295057D01*
X25116267Y-28314009D01*
X25116259Y-28314010D01*
X25110745Y-28314632D01*
X25105501Y-28316466D01*
X25105496Y-28316468D01*
X24945729Y-28372373D01*
X24945724Y-28372375D01*
X24940478Y-28374211D01*
X24935771Y-28377168D01*
X24935768Y-28377170D01*
X24792446Y-28467225D01*
X24792441Y-28467228D01*
X24787738Y-28470184D01*
X24783811Y-28474110D01*
X24783807Y-28474114D01*
X24664114Y-28593807D01*
X24664110Y-28593811D01*
X24660184Y-28597738D01*
X24657228Y-28602441D01*
X24657225Y-28602446D01*
X24567170Y-28745768D01*
X24564211Y-28750478D01*
X24562375Y-28755724D01*
X24562373Y-28755729D01*
X24506468Y-28915496D01*
X24506466Y-28915501D01*
X24504632Y-28920745D01*
X24504010Y-28926259D01*
X24504009Y-28926267D01*
X24498378Y-28976251D01*
X24475997Y-29028614D01*
X24428472Y-29059984D01*
X24371528Y-29059984D01*
X24324003Y-29028614D01*
X24301622Y-28976251D01*
X24295990Y-28926267D01*
X24295368Y-28920745D01*
X24235789Y-28750478D01*
X24139816Y-28597738D01*
X24012262Y-28470184D01*
X23859522Y-28374211D01*
X23854271Y-28372373D01*
X23854270Y-28372373D01*
X23694503Y-28316468D01*
X23694500Y-28316467D01*
X23689255Y-28314632D01*
X23683738Y-28314010D01*
X23683732Y-28314009D01*
X23515520Y-28295057D01*
X23510000Y-28294435D01*
X23504480Y-28295057D01*
X23336267Y-28314009D01*
X23336259Y-28314010D01*
X23330745Y-28314632D01*
X23325501Y-28316466D01*
X23325496Y-28316468D01*
X23165729Y-28372373D01*
X23165724Y-28372375D01*
X23160478Y-28374211D01*
X23155771Y-28377168D01*
X23155768Y-28377170D01*
X23012446Y-28467225D01*
X23012441Y-28467228D01*
X23007738Y-28470184D01*
X23003811Y-28474110D01*
X23003807Y-28474114D01*
X22884114Y-28593807D01*
X22884110Y-28593811D01*
X22880184Y-28597738D01*
X22877228Y-28602441D01*
X22877225Y-28602446D01*
X22787170Y-28745768D01*
X22784211Y-28750478D01*
X22782375Y-28755724D01*
X22782373Y-28755729D01*
X22726468Y-28915496D01*
X22726466Y-28915501D01*
X22724632Y-28920745D01*
X22724010Y-28926259D01*
X22724009Y-28926267D01*
X22718378Y-28976251D01*
X22695997Y-29028614D01*
X22648472Y-29059984D01*
X22591528Y-29059984D01*
X22544003Y-29028614D01*
X22521622Y-28976251D01*
X22515990Y-28926267D01*
X22515368Y-28920745D01*
X22455789Y-28750478D01*
X22359816Y-28597738D01*
X22232262Y-28470184D01*
X22079522Y-28374211D01*
X22074271Y-28372373D01*
X22074270Y-28372373D01*
X21914503Y-28316468D01*
X21914500Y-28316467D01*
X21909255Y-28314632D01*
X21903738Y-28314010D01*
X21903732Y-28314009D01*
X21735520Y-28295057D01*
X21730000Y-28294435D01*
X21724480Y-28295057D01*
X21556267Y-28314009D01*
X21556259Y-28314010D01*
X21550745Y-28314632D01*
X21545501Y-28316466D01*
X21545496Y-28316468D01*
X21385729Y-28372373D01*
X21385724Y-28372375D01*
X21380478Y-28374211D01*
X21375771Y-28377168D01*
X21375768Y-28377170D01*
X21232446Y-28467225D01*
X21232441Y-28467228D01*
X21227738Y-28470184D01*
X21223811Y-28474110D01*
X21223807Y-28474114D01*
X21104114Y-28593807D01*
X21104110Y-28593811D01*
X21100184Y-28597738D01*
X21097228Y-28602441D01*
X21097225Y-28602446D01*
X21007170Y-28745768D01*
X21004211Y-28750478D01*
X21002375Y-28755724D01*
X21002373Y-28755729D01*
X20946468Y-28915496D01*
X20946466Y-28915501D01*
X20944632Y-28920745D01*
X20944010Y-28926259D01*
X20944009Y-28926267D01*
X20929240Y-29057352D01*
X20924435Y-29100000D01*
X20925057Y-29105520D01*
X20944009Y-29273732D01*
X20944010Y-29273738D01*
X20944632Y-29279255D01*
X20946467Y-29284500D01*
X20946468Y-29284503D01*
X20993252Y-29418204D01*
X21004211Y-29449522D01*
X21015290Y-29467154D01*
X21019619Y-29474044D01*
X21034699Y-29531005D01*
X21014742Y-29586447D01*
X20966816Y-29620727D01*
X20907901Y-29621704D01*
X20893562Y-29617493D01*
X20893557Y-29617492D01*
X20886772Y-29615500D01*
X20757228Y-29615500D01*
X20750437Y-29617493D01*
X20750436Y-29617494D01*
X20639724Y-29650001D01*
X20639721Y-29650002D01*
X20632931Y-29651996D01*
X20626978Y-29655821D01*
X20626973Y-29655824D01*
X20529908Y-29718204D01*
X20529904Y-29718206D01*
X20523951Y-29722033D01*
X20519319Y-29727378D01*
X20519315Y-29727382D01*
X20443752Y-29814588D01*
X20443749Y-29814591D01*
X20439118Y-29819937D01*
X20436179Y-29826372D01*
X20436176Y-29826377D01*
X20388246Y-29931328D01*
X20388244Y-29931333D01*
X20385303Y-29937774D01*
X20384295Y-29944782D01*
X20384294Y-29944787D01*
X20375548Y-30005622D01*
X20366867Y-30066000D01*
X18283463Y-30066000D01*
X17151496Y-28934033D01*
X17130036Y-28901915D01*
X17122500Y-28864029D01*
X17122500Y-27559210D01*
X17904500Y-27559210D01*
X17905736Y-27564627D01*
X17905737Y-27564632D01*
X17919016Y-27622810D01*
X17930851Y-27674660D01*
X17982231Y-27781352D01*
X18056064Y-27873936D01*
X18148648Y-27947769D01*
X18255340Y-27999149D01*
X18370790Y-28025500D01*
X18424928Y-28025500D01*
X18430000Y-28025500D01*
X18438285Y-28025500D01*
X34171715Y-28025500D01*
X34185072Y-28025500D01*
X34233647Y-28025500D01*
X34239210Y-28025500D01*
X34354660Y-27999149D01*
X34461352Y-27947769D01*
X34553936Y-27873936D01*
X34627769Y-27781352D01*
X34679149Y-27674660D01*
X34705500Y-27559210D01*
X34705500Y-27500000D01*
X34705500Y-27491715D01*
X34705500Y-19994928D01*
X34705500Y-19940790D01*
X34679149Y-19825340D01*
X34627769Y-19718648D01*
X34553936Y-19626064D01*
X34461352Y-19552231D01*
X34354660Y-19500851D01*
X34334064Y-19496150D01*
X34244632Y-19475737D01*
X34244627Y-19475736D01*
X34239210Y-19474500D01*
X34185072Y-19474500D01*
X18438285Y-19474500D01*
X18430000Y-19474500D01*
X18370790Y-19474500D01*
X18365373Y-19475736D01*
X18365367Y-19475737D01*
X18260759Y-19499614D01*
X18260757Y-19499614D01*
X18255340Y-19500851D01*
X18250335Y-19503261D01*
X18250330Y-19503263D01*
X18153658Y-19549818D01*
X18153655Y-19549819D01*
X18148648Y-19552231D01*
X18144300Y-19555698D01*
X18144299Y-19555699D01*
X18060418Y-19622591D01*
X18060413Y-19622595D01*
X18056064Y-19626064D01*
X18052595Y-19630413D01*
X18052591Y-19630418D01*
X17987073Y-19712576D01*
X17982231Y-19718648D01*
X17979819Y-19723655D01*
X17979818Y-19723658D01*
X17933263Y-19820330D01*
X17933261Y-19820335D01*
X17930851Y-19825340D01*
X17929614Y-19830757D01*
X17929614Y-19830759D01*
X17905737Y-19935367D01*
X17905736Y-19935373D01*
X17904500Y-19940790D01*
X17904500Y-19994928D01*
X17904500Y-27491715D01*
X17904500Y-27500000D01*
X17904500Y-27559210D01*
X17122500Y-27559210D01*
X17122500Y-27394063D01*
X17128742Y-27359466D01*
X17146681Y-27329232D01*
X17175257Y-27296251D01*
X17204882Y-27262063D01*
X17258697Y-27144226D01*
X17277133Y-27016000D01*
X17258697Y-26887774D01*
X17204882Y-26769937D01*
X17120049Y-26672033D01*
X17011069Y-26601996D01*
X17004275Y-26600001D01*
X16893563Y-26567494D01*
X16886772Y-26565500D01*
X16757228Y-26565500D01*
X16750437Y-26567493D01*
X16750436Y-26567494D01*
X16639724Y-26600001D01*
X16639721Y-26600002D01*
X16632931Y-26601996D01*
X16626978Y-26605821D01*
X16626973Y-26605824D01*
X16529908Y-26668204D01*
X16529904Y-26668206D01*
X16523951Y-26672033D01*
X16519319Y-26677378D01*
X16519315Y-26677382D01*
X16443752Y-26764588D01*
X16443749Y-26764591D01*
X16439118Y-26769937D01*
X16436179Y-26776372D01*
X16436176Y-26776377D01*
X16388246Y-26881328D01*
X16388244Y-26881333D01*
X16385303Y-26887774D01*
X16384295Y-26894782D01*
X16384294Y-26894787D01*
X16367875Y-27008989D01*
X16366867Y-27016000D01*
X12775500Y-27016000D01*
X12775500Y-25081113D01*
X12794310Y-25023056D01*
X12843593Y-24987061D01*
X12904620Y-24986806D01*
X12954201Y-25022387D01*
X13065824Y-25173883D01*
X13270637Y-25385657D01*
X13501848Y-25568243D01*
X13755333Y-25718382D01*
X14026568Y-25833396D01*
X14310712Y-25911231D01*
X14602696Y-25950499D01*
X14821912Y-25950499D01*
X14823573Y-25950499D01*
X15043956Y-25935746D01*
X15332665Y-25877063D01*
X15610976Y-25780423D01*
X15873923Y-25647550D01*
X16116814Y-25480815D01*
X16335314Y-25283194D01*
X16525524Y-25058212D01*
X16684049Y-24809886D01*
X16808062Y-24542646D01*
X16895348Y-24261261D01*
X16944351Y-23970753D01*
X16954195Y-23676305D01*
X16924706Y-23383172D01*
X16856409Y-23096585D01*
X16750523Y-22821659D01*
X16608938Y-22563299D01*
X16572020Y-22513194D01*
X16499240Y-22414416D01*
X16434180Y-22326115D01*
X16229367Y-22114341D01*
X16226770Y-22112290D01*
X16226768Y-22112288D01*
X16000753Y-21933806D01*
X15998156Y-21931755D01*
X15995313Y-21930071D01*
X15995310Y-21930069D01*
X15747513Y-21783299D01*
X15747509Y-21783297D01*
X15744671Y-21781616D01*
X15741629Y-21780326D01*
X15741627Y-21780325D01*
X15476485Y-21667895D01*
X15476486Y-21667895D01*
X15473436Y-21666602D01*
X15318005Y-21624025D01*
X15192487Y-21589642D01*
X15192484Y-21589641D01*
X15189292Y-21588767D01*
X15186013Y-21588326D01*
X14900583Y-21549939D01*
X14900576Y-21549938D01*
X14897308Y-21549499D01*
X14676431Y-21549499D01*
X14674801Y-21549608D01*
X14674774Y-21549609D01*
X14459342Y-21564031D01*
X14459334Y-21564031D01*
X14456048Y-21564252D01*
X14452812Y-21564909D01*
X14452810Y-21564910D01*
X14170588Y-21622274D01*
X14170579Y-21622276D01*
X14167339Y-21622935D01*
X14164212Y-21624020D01*
X14164204Y-21624023D01*
X13892165Y-21718485D01*
X13892155Y-21718488D01*
X13889028Y-21719575D01*
X13886078Y-21721065D01*
X13886063Y-21721072D01*
X13629035Y-21850955D01*
X13629031Y-21850956D01*
X13626081Y-21852448D01*
X13623362Y-21854314D01*
X13623356Y-21854318D01*
X13385912Y-22017314D01*
X13385907Y-22017317D01*
X13383190Y-22019183D01*
X13380749Y-22021390D01*
X13380741Y-22021397D01*
X13167135Y-22214592D01*
X13167133Y-22214594D01*
X13164690Y-22216804D01*
X13162562Y-22219320D01*
X13162559Y-22219324D01*
X12976618Y-22439256D01*
X12976617Y-22439258D01*
X12974480Y-22441786D01*
X12972700Y-22444573D01*
X12972695Y-22444581D01*
X12957946Y-22467686D01*
X12920913Y-22501862D01*
X12871853Y-22513381D01*
X12823480Y-22499257D01*
X12788326Y-22463150D01*
X12775500Y-22414416D01*
X12775500Y-17804875D01*
X16177742Y-17804875D01*
X16178750Y-17811886D01*
X16195169Y-17926087D01*
X16195170Y-17926090D01*
X16196178Y-17933101D01*
X16199120Y-17939543D01*
X16199121Y-17939546D01*
X16245835Y-18041835D01*
X16249993Y-18050938D01*
X16254627Y-18056286D01*
X16280856Y-18086557D01*
X16334826Y-18148842D01*
X16443806Y-18218879D01*
X16568103Y-18255375D01*
X16690569Y-18255375D01*
X16697647Y-18255375D01*
X16821944Y-18218879D01*
X16930924Y-18148842D01*
X17015757Y-18050938D01*
X17059846Y-17954397D01*
X17096374Y-17912243D01*
X17149897Y-17896527D01*
X17203420Y-17912243D01*
X17239950Y-17954401D01*
X17283380Y-18049500D01*
X17289118Y-18062063D01*
X17293752Y-18067411D01*
X17359675Y-18143492D01*
X17373951Y-18159967D01*
X17482931Y-18230004D01*
X17607228Y-18266500D01*
X17729694Y-18266500D01*
X17736772Y-18266500D01*
X17861069Y-18230004D01*
X17970049Y-18159967D01*
X18054882Y-18062063D01*
X18108697Y-17944226D01*
X18117153Y-17885409D01*
X18134502Y-17842075D01*
X18169780Y-17811505D01*
X18215145Y-17800500D01*
X18312155Y-17800500D01*
X18362454Y-17814230D01*
X18398802Y-17851612D01*
X18411116Y-17902276D01*
X18395981Y-17952171D01*
X18337966Y-18044502D01*
X18334211Y-18050478D01*
X18332375Y-18055724D01*
X18332373Y-18055729D01*
X18276468Y-18215496D01*
X18276466Y-18215501D01*
X18274632Y-18220745D01*
X18274010Y-18226259D01*
X18274009Y-18226267D01*
X18257615Y-18371774D01*
X18254435Y-18400000D01*
X18255057Y-18405520D01*
X18274009Y-18573732D01*
X18274010Y-18573738D01*
X18274632Y-18579255D01*
X18276467Y-18584500D01*
X18276468Y-18584503D01*
X18294023Y-18634671D01*
X18334211Y-18749522D01*
X18430184Y-18902262D01*
X18557738Y-19029816D01*
X18710478Y-19125789D01*
X18880745Y-19185368D01*
X19060000Y-19205565D01*
X19239255Y-19185368D01*
X19409522Y-19125789D01*
X19562262Y-19029816D01*
X19689816Y-18902262D01*
X19785789Y-18749522D01*
X19845368Y-18579255D01*
X19851622Y-18523747D01*
X19874003Y-18471385D01*
X19921528Y-18440015D01*
X19978472Y-18440015D01*
X20025997Y-18471385D01*
X20048378Y-18523748D01*
X20054009Y-18573732D01*
X20054010Y-18573738D01*
X20054632Y-18579255D01*
X20056467Y-18584500D01*
X20056468Y-18584503D01*
X20074023Y-18634671D01*
X20114211Y-18749522D01*
X20210184Y-18902262D01*
X20337738Y-19029816D01*
X20490478Y-19125789D01*
X20660745Y-19185368D01*
X20840000Y-19205565D01*
X21019255Y-19185368D01*
X21189522Y-19125789D01*
X21342262Y-19029816D01*
X21469816Y-18902262D01*
X21565789Y-18749522D01*
X21625368Y-18579255D01*
X21631622Y-18523747D01*
X21654003Y-18471385D01*
X21701528Y-18440015D01*
X21758472Y-18440015D01*
X21805997Y-18471385D01*
X21828378Y-18523748D01*
X21834009Y-18573732D01*
X21834010Y-18573738D01*
X21834632Y-18579255D01*
X21836467Y-18584500D01*
X21836468Y-18584503D01*
X21854023Y-18634671D01*
X21894211Y-18749522D01*
X21990184Y-18902262D01*
X22117738Y-19029816D01*
X22270478Y-19125789D01*
X22440745Y-19185368D01*
X22620000Y-19205565D01*
X22799255Y-19185368D01*
X22969522Y-19125789D01*
X23122262Y-19029816D01*
X23249816Y-18902262D01*
X23345789Y-18749522D01*
X23405368Y-18579255D01*
X23411622Y-18523747D01*
X23434003Y-18471385D01*
X23481528Y-18440015D01*
X23538472Y-18440015D01*
X23585997Y-18471385D01*
X23608378Y-18523748D01*
X23614009Y-18573732D01*
X23614010Y-18573738D01*
X23614632Y-18579255D01*
X23616467Y-18584500D01*
X23616468Y-18584503D01*
X23634023Y-18634671D01*
X23674211Y-18749522D01*
X23770184Y-18902262D01*
X23897738Y-19029816D01*
X24050478Y-19125789D01*
X24220745Y-19185368D01*
X24400000Y-19205565D01*
X24579255Y-19185368D01*
X24749522Y-19125789D01*
X24902262Y-19029816D01*
X25029816Y-18902262D01*
X25125789Y-18749522D01*
X25185368Y-18579255D01*
X25191622Y-18523747D01*
X25214003Y-18471385D01*
X25261528Y-18440015D01*
X25318472Y-18440015D01*
X25365997Y-18471385D01*
X25388378Y-18523748D01*
X25394009Y-18573732D01*
X25394010Y-18573738D01*
X25394632Y-18579255D01*
X25396467Y-18584500D01*
X25396468Y-18584503D01*
X25414023Y-18634671D01*
X25454211Y-18749522D01*
X25550184Y-18902262D01*
X25677738Y-19029816D01*
X25830478Y-19125789D01*
X26000745Y-19185368D01*
X26180000Y-19205565D01*
X26359255Y-19185368D01*
X26529522Y-19125789D01*
X26682262Y-19029816D01*
X26809816Y-18902262D01*
X26905789Y-18749522D01*
X26965368Y-18579255D01*
X26971622Y-18523747D01*
X26994003Y-18471385D01*
X27041528Y-18440015D01*
X27098472Y-18440015D01*
X27145997Y-18471385D01*
X27168378Y-18523748D01*
X27174009Y-18573732D01*
X27174010Y-18573738D01*
X27174632Y-18579255D01*
X27176467Y-18584500D01*
X27176468Y-18584503D01*
X27194023Y-18634671D01*
X27234211Y-18749522D01*
X27330184Y-18902262D01*
X27457738Y-19029816D01*
X27610478Y-19125789D01*
X27780745Y-19185368D01*
X27960000Y-19205565D01*
X28139255Y-19185368D01*
X28309522Y-19125789D01*
X28462262Y-19029816D01*
X28589816Y-18902262D01*
X28685789Y-18749522D01*
X28745368Y-18579255D01*
X28751622Y-18523747D01*
X28774003Y-18471385D01*
X28821528Y-18440015D01*
X28878472Y-18440015D01*
X28925997Y-18471385D01*
X28948378Y-18523748D01*
X28954009Y-18573732D01*
X28954010Y-18573738D01*
X28954632Y-18579255D01*
X28956467Y-18584500D01*
X28956468Y-18584503D01*
X28974023Y-18634671D01*
X29014211Y-18749522D01*
X29110184Y-18902262D01*
X29237738Y-19029816D01*
X29390478Y-19125789D01*
X29560745Y-19185368D01*
X29740000Y-19205565D01*
X29919255Y-19185368D01*
X30089522Y-19125789D01*
X30242262Y-19029816D01*
X30369816Y-18902262D01*
X30465789Y-18749522D01*
X30525368Y-18579255D01*
X30531622Y-18523747D01*
X30554003Y-18471385D01*
X30601528Y-18440015D01*
X30658472Y-18440015D01*
X30705997Y-18471385D01*
X30728378Y-18523748D01*
X30734009Y-18573732D01*
X30734010Y-18573738D01*
X30734632Y-18579255D01*
X30736467Y-18584500D01*
X30736468Y-18584503D01*
X30754023Y-18634671D01*
X30794211Y-18749522D01*
X30890184Y-18902262D01*
X31017738Y-19029816D01*
X31170478Y-19125789D01*
X31340745Y-19185368D01*
X31520000Y-19205565D01*
X31699255Y-19185368D01*
X31869522Y-19125789D01*
X32022262Y-19029816D01*
X32149816Y-18902262D01*
X32245789Y-18749522D01*
X32305368Y-18579255D01*
X32325565Y-18400000D01*
X32305368Y-18220745D01*
X32245789Y-18050478D01*
X32149816Y-17897738D01*
X32022262Y-17770184D01*
X31910565Y-17700000D01*
X32744867Y-17700000D01*
X32745875Y-17707011D01*
X32762294Y-17821212D01*
X32762295Y-17821215D01*
X32763303Y-17828226D01*
X32766245Y-17834668D01*
X32766246Y-17834671D01*
X32814141Y-17939546D01*
X32817118Y-17946063D01*
X32901951Y-18043967D01*
X33010931Y-18114004D01*
X33135228Y-18150500D01*
X33257694Y-18150500D01*
X33264772Y-18150500D01*
X33389069Y-18114004D01*
X33498049Y-18043967D01*
X33582882Y-17946063D01*
X33636697Y-17828226D01*
X33655133Y-17700000D01*
X33636697Y-17571774D01*
X33582882Y-17453937D01*
X33574679Y-17444470D01*
X33556741Y-17414237D01*
X33550500Y-17379641D01*
X33550500Y-17300000D01*
X34917117Y-17300000D01*
X34918125Y-17307011D01*
X34934544Y-17421212D01*
X34934545Y-17421215D01*
X34935553Y-17428226D01*
X34938495Y-17434668D01*
X34938496Y-17434671D01*
X34976923Y-17518814D01*
X34989368Y-17546063D01*
X34994002Y-17551411D01*
X35048242Y-17614009D01*
X35074201Y-17643967D01*
X35183181Y-17714004D01*
X35307478Y-17750500D01*
X35429944Y-17750500D01*
X35437022Y-17750500D01*
X35561319Y-17714004D01*
X35635679Y-17666215D01*
X35689201Y-17650500D01*
X36383049Y-17650500D01*
X36436570Y-17666215D01*
X36510931Y-17714004D01*
X36635228Y-17750500D01*
X36757694Y-17750500D01*
X36764772Y-17750500D01*
X36889069Y-17714004D01*
X36998049Y-17643967D01*
X37082882Y-17546063D01*
X37136697Y-17428226D01*
X37155133Y-17300000D01*
X37136697Y-17171774D01*
X37082882Y-17053937D01*
X36998049Y-16956033D01*
X36992091Y-16952204D01*
X36895026Y-16889824D01*
X36895022Y-16889822D01*
X36889069Y-16885996D01*
X36882275Y-16884001D01*
X36771563Y-16851494D01*
X36764772Y-16849500D01*
X36635228Y-16849500D01*
X36628437Y-16851493D01*
X36628436Y-16851494D01*
X36517724Y-16884001D01*
X36517721Y-16884002D01*
X36510931Y-16885996D01*
X36504979Y-16889820D01*
X36504977Y-16889822D01*
X36485621Y-16902262D01*
X36436570Y-16933784D01*
X36383049Y-16949500D01*
X35689201Y-16949500D01*
X35635679Y-16933784D01*
X35561319Y-16885996D01*
X35554525Y-16884001D01*
X35443813Y-16851494D01*
X35437022Y-16849500D01*
X35307478Y-16849500D01*
X35300687Y-16851493D01*
X35300686Y-16851494D01*
X35189974Y-16884001D01*
X35189971Y-16884002D01*
X35183181Y-16885996D01*
X35177228Y-16889821D01*
X35177223Y-16889824D01*
X35080158Y-16952204D01*
X35080154Y-16952206D01*
X35074201Y-16956033D01*
X35069569Y-16961378D01*
X35069565Y-16961382D01*
X34994002Y-17048588D01*
X34993999Y-17048591D01*
X34989368Y-17053937D01*
X34986429Y-17060372D01*
X34986426Y-17060377D01*
X34938496Y-17165328D01*
X34938494Y-17165333D01*
X34935553Y-17171774D01*
X34934545Y-17178782D01*
X34934544Y-17178787D01*
X34918141Y-17292880D01*
X34917117Y-17300000D01*
X33550500Y-17300000D01*
X33550500Y-16686190D01*
X33558036Y-16648304D01*
X33579496Y-16616186D01*
X34399522Y-15796160D01*
X35219785Y-14975896D01*
X35245482Y-14957370D01*
X35264996Y-14951263D01*
X35264772Y-14950500D01*
X35389069Y-14914004D01*
X35498049Y-14843967D01*
X35582882Y-14746063D01*
X35636697Y-14628226D01*
X35655133Y-14500000D01*
X35636697Y-14371774D01*
X35582882Y-14253937D01*
X35520304Y-14181717D01*
X35502684Y-14161382D01*
X35502683Y-14161381D01*
X35498049Y-14156033D01*
X35484175Y-14147117D01*
X35395026Y-14089824D01*
X35395024Y-14089823D01*
X35389069Y-14085996D01*
X35382275Y-14084001D01*
X35271563Y-14051494D01*
X35264772Y-14049500D01*
X35135228Y-14049500D01*
X35128437Y-14051493D01*
X35128436Y-14051494D01*
X35017724Y-14084001D01*
X35017721Y-14084002D01*
X35010931Y-14085996D01*
X35004978Y-14089821D01*
X35004973Y-14089824D01*
X34907908Y-14152204D01*
X34907904Y-14152206D01*
X34901951Y-14156033D01*
X34897319Y-14161378D01*
X34897315Y-14161382D01*
X34821752Y-14248588D01*
X34821749Y-14248591D01*
X34817118Y-14253937D01*
X34814179Y-14260372D01*
X34814176Y-14260377D01*
X34766246Y-14365328D01*
X34766244Y-14365333D01*
X34763303Y-14371774D01*
X34762295Y-14378780D01*
X34762294Y-14378786D01*
X34756365Y-14420026D01*
X34746901Y-14450250D01*
X34728377Y-14475939D01*
X32985117Y-16219199D01*
X32969267Y-16232070D01*
X32966199Y-16234074D01*
X32966192Y-16234079D01*
X32959331Y-16238563D01*
X32954295Y-16245032D01*
X32954295Y-16245033D01*
X32940546Y-16262697D01*
X32937088Y-16266614D01*
X32937162Y-16266677D01*
X32934512Y-16269804D01*
X32931625Y-16272693D01*
X32929256Y-16276009D01*
X32929249Y-16276019D01*
X32920133Y-16288787D01*
X32917691Y-16292061D01*
X32892520Y-16324401D01*
X32892517Y-16324405D01*
X32887483Y-16330874D01*
X32885073Y-16337892D01*
X32880760Y-16343934D01*
X32878421Y-16351787D01*
X32878422Y-16351787D01*
X32866718Y-16391097D01*
X32865475Y-16394973D01*
X32849500Y-16441512D01*
X32849500Y-16448935D01*
X32847383Y-16456046D01*
X32847722Y-16464244D01*
X32847722Y-16464245D01*
X32849415Y-16505176D01*
X32849500Y-16509267D01*
X32849500Y-17379641D01*
X32843259Y-17414237D01*
X32825321Y-17444470D01*
X32821758Y-17448581D01*
X32821755Y-17448585D01*
X32817118Y-17453937D01*
X32814175Y-17460380D01*
X32814173Y-17460384D01*
X32766246Y-17565328D01*
X32766244Y-17565333D01*
X32763303Y-17571774D01*
X32762295Y-17578782D01*
X32762294Y-17578787D01*
X32757141Y-17614632D01*
X32744867Y-17700000D01*
X31910565Y-17700000D01*
X31869522Y-17674211D01*
X31864271Y-17672373D01*
X31864270Y-17672373D01*
X31704503Y-17616468D01*
X31704500Y-17616467D01*
X31699255Y-17614632D01*
X31693738Y-17614010D01*
X31693732Y-17614009D01*
X31525520Y-17595057D01*
X31520000Y-17594435D01*
X31514480Y-17595057D01*
X31346267Y-17614009D01*
X31346259Y-17614010D01*
X31340745Y-17614632D01*
X31335501Y-17616466D01*
X31335496Y-17616468D01*
X31175729Y-17672373D01*
X31175724Y-17672375D01*
X31170478Y-17674211D01*
X31165771Y-17677168D01*
X31165768Y-17677170D01*
X31022446Y-17767225D01*
X31022441Y-17767228D01*
X31017738Y-17770184D01*
X31013811Y-17774110D01*
X31013807Y-17774114D01*
X30894114Y-17893807D01*
X30894110Y-17893811D01*
X30890184Y-17897738D01*
X30887228Y-17902441D01*
X30887225Y-17902446D01*
X30797170Y-18045768D01*
X30794211Y-18050478D01*
X30792375Y-18055724D01*
X30792373Y-18055729D01*
X30736468Y-18215496D01*
X30736466Y-18215501D01*
X30734632Y-18220745D01*
X30734010Y-18226259D01*
X30734009Y-18226267D01*
X30728378Y-18276251D01*
X30705997Y-18328614D01*
X30658472Y-18359984D01*
X30601528Y-18359984D01*
X30554003Y-18328614D01*
X30531622Y-18276251D01*
X30525990Y-18226267D01*
X30525990Y-18226266D01*
X30525368Y-18220745D01*
X30465789Y-18050478D01*
X30369816Y-17897738D01*
X30242262Y-17770184D01*
X30089522Y-17674211D01*
X30084271Y-17672373D01*
X30084270Y-17672373D01*
X29924503Y-17616468D01*
X29924500Y-17616467D01*
X29919255Y-17614632D01*
X29913738Y-17614010D01*
X29913732Y-17614009D01*
X29745520Y-17595057D01*
X29740000Y-17594435D01*
X29734480Y-17595057D01*
X29566267Y-17614009D01*
X29566259Y-17614010D01*
X29560745Y-17614632D01*
X29555501Y-17616466D01*
X29555496Y-17616468D01*
X29395729Y-17672373D01*
X29395724Y-17672375D01*
X29390478Y-17674211D01*
X29385771Y-17677168D01*
X29385768Y-17677170D01*
X29242446Y-17767225D01*
X29242441Y-17767228D01*
X29237738Y-17770184D01*
X29233811Y-17774110D01*
X29233807Y-17774114D01*
X29114114Y-17893807D01*
X29114110Y-17893811D01*
X29110184Y-17897738D01*
X29107228Y-17902441D01*
X29107225Y-17902446D01*
X29017170Y-18045768D01*
X29014211Y-18050478D01*
X29012375Y-18055724D01*
X29012373Y-18055729D01*
X28956468Y-18215496D01*
X28956466Y-18215501D01*
X28954632Y-18220745D01*
X28954010Y-18226259D01*
X28954009Y-18226267D01*
X28948378Y-18276251D01*
X28925997Y-18328614D01*
X28878472Y-18359984D01*
X28821528Y-18359984D01*
X28774003Y-18328614D01*
X28751622Y-18276251D01*
X28745990Y-18226267D01*
X28745990Y-18226266D01*
X28745368Y-18220745D01*
X28685789Y-18050478D01*
X28589816Y-17897738D01*
X28462262Y-17770184D01*
X28309522Y-17674211D01*
X28304271Y-17672373D01*
X28304270Y-17672373D01*
X28144503Y-17616468D01*
X28144500Y-17616467D01*
X28139255Y-17614632D01*
X28133731Y-17614009D01*
X28133724Y-17614008D01*
X27963562Y-17594835D01*
X27949518Y-17589028D01*
X27929442Y-17597878D01*
X27786267Y-17614009D01*
X27786259Y-17614010D01*
X27780745Y-17614632D01*
X27775501Y-17616466D01*
X27775496Y-17616468D01*
X27615729Y-17672373D01*
X27615724Y-17672375D01*
X27610478Y-17674211D01*
X27605771Y-17677168D01*
X27605768Y-17677170D01*
X27462446Y-17767225D01*
X27462441Y-17767228D01*
X27457738Y-17770184D01*
X27453811Y-17774110D01*
X27453807Y-17774114D01*
X27334114Y-17893807D01*
X27334110Y-17893811D01*
X27330184Y-17897738D01*
X27327228Y-17902441D01*
X27327225Y-17902446D01*
X27237170Y-18045768D01*
X27234211Y-18050478D01*
X27232375Y-18055724D01*
X27232373Y-18055729D01*
X27176468Y-18215496D01*
X27176466Y-18215501D01*
X27174632Y-18220745D01*
X27174010Y-18226259D01*
X27174009Y-18226267D01*
X27168378Y-18276251D01*
X27145997Y-18328614D01*
X27098472Y-18359984D01*
X27041528Y-18359984D01*
X26994003Y-18328614D01*
X26971622Y-18276251D01*
X26965990Y-18226267D01*
X26965990Y-18226266D01*
X26965368Y-18220745D01*
X26905789Y-18050478D01*
X26809816Y-17897738D01*
X26682262Y-17770184D01*
X26529522Y-17674211D01*
X26524271Y-17672373D01*
X26524270Y-17672373D01*
X26364503Y-17616468D01*
X26364500Y-17616467D01*
X26359255Y-17614632D01*
X26353738Y-17614010D01*
X26353732Y-17614009D01*
X26210558Y-17597878D01*
X26180000Y-17584409D01*
X26149442Y-17597878D01*
X26006267Y-17614009D01*
X26006259Y-17614010D01*
X26000745Y-17614632D01*
X25995501Y-17616466D01*
X25995496Y-17616468D01*
X25835729Y-17672373D01*
X25835724Y-17672375D01*
X25830478Y-17674211D01*
X25825771Y-17677168D01*
X25825768Y-17677170D01*
X25682446Y-17767225D01*
X25682441Y-17767228D01*
X25677738Y-17770184D01*
X25673811Y-17774110D01*
X25673807Y-17774114D01*
X25554114Y-17893807D01*
X25554110Y-17893811D01*
X25550184Y-17897738D01*
X25547228Y-17902441D01*
X25547225Y-17902446D01*
X25457170Y-18045768D01*
X25454211Y-18050478D01*
X25452375Y-18055724D01*
X25452373Y-18055729D01*
X25396468Y-18215496D01*
X25396466Y-18215501D01*
X25394632Y-18220745D01*
X25394010Y-18226259D01*
X25394009Y-18226267D01*
X25388378Y-18276251D01*
X25365997Y-18328614D01*
X25318472Y-18359984D01*
X25261528Y-18359984D01*
X25214003Y-18328614D01*
X25191622Y-18276251D01*
X25185990Y-18226267D01*
X25185990Y-18226266D01*
X25185368Y-18220745D01*
X25125789Y-18050478D01*
X25029816Y-17897738D01*
X24902262Y-17770184D01*
X24749522Y-17674211D01*
X24744271Y-17672373D01*
X24744270Y-17672373D01*
X24584503Y-17616468D01*
X24584500Y-17616467D01*
X24579255Y-17614632D01*
X24573738Y-17614010D01*
X24573732Y-17614009D01*
X24430558Y-17597878D01*
X24400000Y-17584409D01*
X24369442Y-17597878D01*
X24226266Y-17614009D01*
X24226257Y-17614010D01*
X24220745Y-17614632D01*
X24215509Y-17616463D01*
X24215496Y-17616467D01*
X24145270Y-17641040D01*
X24090544Y-17644113D01*
X24042570Y-17617599D01*
X23994475Y-17569504D01*
X23967381Y-17518814D01*
X23973015Y-17461614D01*
X24009478Y-17417185D01*
X24064479Y-17400500D01*
X24358358Y-17400500D01*
X24400000Y-17413515D01*
X24441642Y-17400500D01*
X26138358Y-17400500D01*
X26180000Y-17413515D01*
X26221642Y-17400500D01*
X27343827Y-17400500D01*
X27427844Y-17400500D01*
X27846802Y-17400500D01*
X27852074Y-17400865D01*
X27857765Y-17402773D01*
X27904641Y-17400606D01*
X27909214Y-17400500D01*
X27918358Y-17400500D01*
X27939471Y-17407099D01*
X27951983Y-17400087D01*
X27960818Y-17398008D01*
X27969992Y-17397585D01*
X27978980Y-17393615D01*
X28000778Y-17386865D01*
X28010433Y-17385061D01*
X28034617Y-17370086D01*
X28046738Y-17363698D01*
X28053824Y-17360568D01*
X28072765Y-17352206D01*
X28079713Y-17345257D01*
X28097596Y-17331092D01*
X28105952Y-17325919D01*
X28123096Y-17303215D01*
X28132090Y-17292880D01*
X29145477Y-16279496D01*
X29177594Y-16258036D01*
X29215480Y-16250500D01*
X29257694Y-16250500D01*
X29264772Y-16250500D01*
X29389069Y-16214004D01*
X29498049Y-16143967D01*
X29582882Y-16046063D01*
X29636697Y-15928226D01*
X29655133Y-15800000D01*
X29636697Y-15671774D01*
X29582882Y-15553937D01*
X29528652Y-15491351D01*
X29502684Y-15461382D01*
X29502683Y-15461381D01*
X29498049Y-15456033D01*
X29488470Y-15449877D01*
X29395026Y-15389824D01*
X29395024Y-15389823D01*
X29389069Y-15385996D01*
X29382275Y-15384001D01*
X29290602Y-15357084D01*
X29264772Y-15349500D01*
X29135228Y-15349500D01*
X29128437Y-15351493D01*
X29128436Y-15351494D01*
X29017724Y-15384001D01*
X29017721Y-15384002D01*
X29010931Y-15385996D01*
X29004978Y-15389821D01*
X29004973Y-15389824D01*
X28907908Y-15452204D01*
X28907904Y-15452206D01*
X28901951Y-15456033D01*
X28897319Y-15461378D01*
X28897315Y-15461382D01*
X28821752Y-15548588D01*
X28821749Y-15548591D01*
X28817118Y-15553937D01*
X28814179Y-15560372D01*
X28814176Y-15560377D01*
X28766246Y-15665328D01*
X28766244Y-15665333D01*
X28763303Y-15671774D01*
X28762295Y-15678782D01*
X28762294Y-15678787D01*
X28744867Y-15800000D01*
X28743558Y-15799811D01*
X28738330Y-15826051D01*
X28716878Y-15858148D01*
X27804525Y-16770503D01*
X27772407Y-16791964D01*
X27734521Y-16799500D01*
X27456173Y-16799500D01*
X17390949Y-16799500D01*
X17385676Y-16799134D01*
X17379986Y-16797227D01*
X17370822Y-16797650D01*
X17370818Y-16797650D01*
X17333109Y-16799394D01*
X17328537Y-16799500D01*
X17309906Y-16799500D01*
X17305406Y-16800340D01*
X17300851Y-16800763D01*
X17300833Y-16800571D01*
X17296171Y-16801101D01*
X17276923Y-16801991D01*
X17276921Y-16801991D01*
X17267759Y-16802415D01*
X17259373Y-16806117D01*
X17259366Y-16806119D01*
X17258762Y-16806387D01*
X17236978Y-16813132D01*
X17236337Y-16813251D01*
X17236329Y-16813254D01*
X17227317Y-16814939D01*
X17219521Y-16819765D01*
X17219515Y-16819768D01*
X17203132Y-16829912D01*
X17191008Y-16836303D01*
X17173374Y-16844089D01*
X17173370Y-16844091D01*
X17164985Y-16847794D01*
X17158502Y-16854276D01*
X17158494Y-16854282D01*
X17158028Y-16854749D01*
X17140163Y-16868899D01*
X17139602Y-16869246D01*
X17139593Y-16869254D01*
X17131798Y-16874081D01*
X17126274Y-16881395D01*
X17126267Y-16881402D01*
X17114653Y-16896782D01*
X17105656Y-16907121D01*
X16687401Y-17325378D01*
X16655283Y-17346839D01*
X16617397Y-17354375D01*
X16568103Y-17354375D01*
X16561312Y-17356368D01*
X16561311Y-17356369D01*
X16450599Y-17388876D01*
X16450596Y-17388877D01*
X16443806Y-17390871D01*
X16437853Y-17394696D01*
X16437848Y-17394699D01*
X16340783Y-17457079D01*
X16340779Y-17457081D01*
X16334826Y-17460908D01*
X16330194Y-17466253D01*
X16330190Y-17466257D01*
X16254627Y-17553463D01*
X16254624Y-17553466D01*
X16249993Y-17558812D01*
X16247054Y-17565247D01*
X16247051Y-17565252D01*
X16199121Y-17670203D01*
X16199119Y-17670208D01*
X16196178Y-17676649D01*
X16195170Y-17683657D01*
X16195169Y-17683662D01*
X16178750Y-17797864D01*
X16177742Y-17804875D01*
X12775500Y-17804875D01*
X12775500Y-15717555D01*
X13023687Y-15717555D01*
X13024164Y-15728694D01*
X13024164Y-15728698D01*
X13024698Y-15741159D01*
X13024697Y-15741197D01*
X13024615Y-15741662D01*
X13024679Y-15743005D01*
X13024679Y-15743006D01*
X13025663Y-15763665D01*
X13025684Y-15764133D01*
X13027140Y-15798101D01*
X13027140Y-15798104D01*
X13027608Y-15808996D01*
X13027844Y-15809436D01*
X13027868Y-15809939D01*
X13049430Y-15849748D01*
X13049588Y-15850042D01*
X13056993Y-15863870D01*
X13059877Y-15869254D01*
X13060191Y-15869615D01*
X13060198Y-15869627D01*
X13071460Y-15890417D01*
X13080499Y-15896946D01*
X13083882Y-15900797D01*
X13087778Y-15908886D01*
X13096495Y-15915838D01*
X13096496Y-15915839D01*
X13102242Y-15920421D01*
X13115200Y-15932836D01*
X13127295Y-15946736D01*
X13178661Y-16005770D01*
X13178752Y-16005874D01*
X13179100Y-16006363D01*
X13180019Y-16009349D01*
X13185279Y-16015028D01*
X13185280Y-16015029D01*
X13207951Y-16039505D01*
X13210005Y-16041793D01*
X13218132Y-16051133D01*
X13221784Y-16055330D01*
X13224329Y-16057187D01*
X13226469Y-16059497D01*
X13231052Y-16062627D01*
X13231053Y-16062628D01*
X13241284Y-16069616D01*
X13243800Y-16071393D01*
X13270750Y-16091058D01*
X13270753Y-16091059D01*
X13277003Y-16095620D01*
X13280076Y-16096183D01*
X13280594Y-16096468D01*
X13297325Y-16107897D01*
X13298520Y-16108872D01*
X13301389Y-16113288D01*
X13310923Y-16119078D01*
X13310925Y-16119080D01*
X13333664Y-16132890D01*
X13338097Y-16135747D01*
X13350145Y-16143977D01*
X13354672Y-16145758D01*
X13354795Y-16145828D01*
X13355526Y-16146190D01*
X13355649Y-16146242D01*
X13359812Y-16148771D01*
X13365083Y-16150526D01*
X13365092Y-16150530D01*
X13373655Y-16153381D01*
X13378632Y-16155186D01*
X13413753Y-16169006D01*
X13419005Y-16168616D01*
X13420493Y-16168973D01*
X13579999Y-16222081D01*
X13580568Y-16222333D01*
X13582977Y-16224523D01*
X13622270Y-16236207D01*
X13625204Y-16237131D01*
X13642087Y-16242753D01*
X13645350Y-16243070D01*
X13648496Y-16244006D01*
X13666215Y-16245153D01*
X13669408Y-16245411D01*
X13710120Y-16249374D01*
X13713174Y-16248251D01*
X13713796Y-16248232D01*
X14016868Y-16267851D01*
X14020635Y-16268167D01*
X14037391Y-16269901D01*
X14041250Y-16269430D01*
X14045138Y-16269682D01*
X14061795Y-16266997D01*
X14065496Y-16266473D01*
X14544734Y-16208037D01*
X14546112Y-16207990D01*
X14550905Y-16209354D01*
X14588590Y-16202815D01*
X14593461Y-16202097D01*
X14608416Y-16200274D01*
X14613099Y-16198586D01*
X14613347Y-16198521D01*
X14618254Y-16197670D01*
X14632133Y-16191863D01*
X14636771Y-16190059D01*
X14672726Y-16177109D01*
X14676216Y-16173553D01*
X14677425Y-16172918D01*
X15117128Y-15988996D01*
X15118427Y-15988581D01*
X15123378Y-15988595D01*
X15157915Y-15972069D01*
X15162402Y-15970059D01*
X15176333Y-15964233D01*
X15180394Y-15961329D01*
X15180530Y-15961248D01*
X15185038Y-15959093D01*
X15196865Y-15949709D01*
X15200812Y-15946736D01*
X15201327Y-15946368D01*
X15231944Y-15924486D01*
X15234322Y-15920143D01*
X15235318Y-15919202D01*
X15238081Y-15917010D01*
X15663568Y-15579454D01*
X15672432Y-15573183D01*
X15672495Y-15573143D01*
X15677640Y-15569911D01*
X15681575Y-15565975D01*
X15685921Y-15562510D01*
X15687660Y-15564691D01*
X15731749Y-15541983D01*
X15791816Y-15550929D01*
X15835358Y-15593263D01*
X15906241Y-15726888D01*
X15910786Y-15739151D01*
X15914162Y-15746203D01*
X15916620Y-15757085D01*
X15923555Y-15765822D01*
X15923556Y-15765823D01*
X15932798Y-15777466D01*
X15933772Y-15778787D01*
X15935577Y-15782190D01*
X15939207Y-15786395D01*
X15939209Y-15786398D01*
X15946298Y-15794610D01*
X15948898Y-15797750D01*
X15955658Y-15806267D01*
X15955660Y-15806269D01*
X15959117Y-15810624D01*
X15962123Y-15813032D01*
X15963245Y-15814242D01*
X15972951Y-15825487D01*
X15972952Y-15825488D01*
X15980242Y-15833933D01*
X15990476Y-15838379D01*
X15996777Y-15843015D01*
X16007965Y-15849763D01*
X16045540Y-15879869D01*
X16122572Y-15941589D01*
X16123319Y-15942187D01*
X16130648Y-15948679D01*
X16152761Y-15970313D01*
X16171494Y-15976638D01*
X16178294Y-15978934D01*
X16189775Y-15983631D01*
X16214040Y-15995385D01*
X16244989Y-15995454D01*
X16254738Y-15995960D01*
X16356193Y-16006266D01*
X16366041Y-16007771D01*
X16366476Y-16007860D01*
X16376638Y-16012477D01*
X16403860Y-16011868D01*
X16412732Y-16012218D01*
X16414580Y-16012197D01*
X16420119Y-16012761D01*
X16427539Y-16011842D01*
X16437483Y-16011117D01*
X16468140Y-16010433D01*
X16476950Y-16005944D01*
X16478143Y-16005579D01*
X16487956Y-16004365D01*
X16513722Y-15987777D01*
X16522376Y-15982803D01*
X16529048Y-15979406D01*
X16533323Y-15975836D01*
X16534856Y-15974825D01*
X16542024Y-15969557D01*
X16564914Y-15954823D01*
X16570745Y-15945310D01*
X16571046Y-15945004D01*
X16578359Y-15938244D01*
X16666518Y-15864657D01*
X16667005Y-15864256D01*
X16701295Y-15836225D01*
X16707029Y-15823936D01*
X16717979Y-15805824D01*
X16726200Y-15795030D01*
X16735095Y-15751599D01*
X16735295Y-15750650D01*
X16773792Y-15572013D01*
X16799201Y-15524261D01*
X16845919Y-15496991D01*
X16899997Y-15498348D01*
X16945288Y-15527927D01*
X16963772Y-15567311D01*
X16965990Y-15566691D01*
X16966430Y-15568265D01*
X16966949Y-15572145D01*
X16967928Y-15574767D01*
X16968375Y-15577528D01*
X16970463Y-15582682D01*
X16975304Y-15594633D01*
X16976293Y-15597176D01*
X17021538Y-15718365D01*
X17043128Y-15776197D01*
X17044616Y-15780181D01*
X17048774Y-15794548D01*
X17049443Y-15797750D01*
X17053497Y-15817138D01*
X17074694Y-15844739D01*
X17078883Y-15850628D01*
X17098010Y-15879713D01*
X17107574Y-15885450D01*
X17107576Y-15885451D01*
X17117798Y-15891582D01*
X17130006Y-15900222D01*
X17171321Y-15934424D01*
X17178390Y-15940276D01*
X17192847Y-15955476D01*
X17193873Y-15956349D01*
X17200547Y-15965288D01*
X17222208Y-15976583D01*
X17222340Y-15976660D01*
X17223376Y-15977518D01*
X17241817Y-15986818D01*
X17242967Y-15987408D01*
X17247564Y-15989805D01*
X17281701Y-16007607D01*
X17283128Y-16007652D01*
X17284408Y-16008298D01*
X17328160Y-16009098D01*
X17329350Y-16009127D01*
X17373180Y-16010526D01*
X17374489Y-16009945D01*
X17375919Y-16009972D01*
X17415735Y-15991686D01*
X17416824Y-15991196D01*
X17432539Y-15984237D01*
X17432544Y-15984234D01*
X17435679Y-15982846D01*
X17436752Y-15982043D01*
X17436901Y-15981966D01*
X17459093Y-15971776D01*
X17466209Y-15963178D01*
X17467284Y-15962354D01*
X17482468Y-15947912D01*
X17497989Y-15936325D01*
X17548887Y-15917010D01*
X17602303Y-15927525D01*
X17611628Y-15932296D01*
X17616390Y-15933503D01*
X17616973Y-15933706D01*
X17621461Y-15935718D01*
X17636046Y-15938626D01*
X17641000Y-15939748D01*
X17649309Y-15941857D01*
X17667060Y-15946362D01*
X17667062Y-15946362D01*
X17677883Y-15949108D01*
X17682873Y-15948093D01*
X17684299Y-15948251D01*
X17842992Y-15979907D01*
X17848412Y-15981149D01*
X17862103Y-15984695D01*
X17867217Y-15984843D01*
X17867813Y-15984945D01*
X17868416Y-15984979D01*
X17873433Y-15985980D01*
X17887550Y-15985591D01*
X17893134Y-15985594D01*
X18130868Y-15992496D01*
X18134801Y-15992903D01*
X18134812Y-15992741D01*
X18140362Y-15993098D01*
X18145843Y-15994076D01*
X18156915Y-15993544D01*
X18164496Y-15993473D01*
X18175568Y-15993795D01*
X18179370Y-15993042D01*
X18181500Y-15993303D01*
X18187041Y-15992732D01*
X18187129Y-15992723D01*
X18187682Y-15992666D01*
X18195818Y-15991828D01*
X18201186Y-15991422D01*
X18215585Y-15990732D01*
X18220374Y-15989394D01*
X18223716Y-15988952D01*
X18410978Y-15969656D01*
X18416438Y-15969443D01*
X18425276Y-15971693D01*
X18455896Y-15965495D01*
X18465359Y-15964054D01*
X18473379Y-15963228D01*
X18478647Y-15961440D01*
X18481324Y-15960856D01*
X18484210Y-15960077D01*
X18486814Y-15959237D01*
X18492272Y-15958133D01*
X18499606Y-15954820D01*
X18508527Y-15951302D01*
X18538110Y-15941267D01*
X18544619Y-15934878D01*
X18549439Y-15932321D01*
X18600320Y-15909349D01*
X18602509Y-15908563D01*
X18608924Y-15908299D01*
X18640579Y-15891409D01*
X18646427Y-15888534D01*
X18646822Y-15888356D01*
X18650514Y-15886689D01*
X18658015Y-15883303D01*
X18658970Y-15885420D01*
X18702499Y-15874158D01*
X18755238Y-15891320D01*
X18778335Y-15919400D01*
X18780718Y-15917668D01*
X18787279Y-15926691D01*
X18791667Y-15936945D01*
X18800068Y-15944279D01*
X18800069Y-15944280D01*
X18824870Y-15965931D01*
X18825666Y-15966633D01*
X18850771Y-15989029D01*
X18850772Y-15989029D01*
X18858679Y-15996083D01*
X18859766Y-15996395D01*
X18860615Y-15997136D01*
X18899347Y-16007810D01*
X18903226Y-16008879D01*
X18904105Y-16009125D01*
X18946651Y-16021342D01*
X18947760Y-16021152D01*
X18948851Y-16021453D01*
X18992426Y-16013527D01*
X18993298Y-16013373D01*
X19036869Y-16005932D01*
X19045964Y-15999465D01*
X19046112Y-15999404D01*
X19054742Y-15993957D01*
X19060102Y-15990972D01*
X19069316Y-15986452D01*
X19075782Y-15983687D01*
X19080283Y-15980413D01*
X19081346Y-15979810D01*
X19089482Y-15974612D01*
X19113671Y-15961144D01*
X19120014Y-15952141D01*
X19121211Y-15951172D01*
X19122161Y-15949962D01*
X19131067Y-15943488D01*
X19136349Y-15933661D01*
X19143688Y-15925256D01*
X19144412Y-15925888D01*
X19172051Y-15896994D01*
X19222988Y-15883030D01*
X19269425Y-15896006D01*
X19273489Y-15899922D01*
X19291403Y-15905820D01*
X19295503Y-15907170D01*
X19295510Y-15907172D01*
X19295522Y-15907180D01*
X19321645Y-15915778D01*
X19360423Y-15928546D01*
X19360433Y-15928544D01*
X19417203Y-15947229D01*
X19417309Y-15947277D01*
X19418113Y-15948035D01*
X19460374Y-15961442D01*
X19461058Y-15961663D01*
X19481141Y-15968274D01*
X19482227Y-15968376D01*
X19483268Y-15968706D01*
X19494730Y-15969657D01*
X19504144Y-15970438D01*
X19505205Y-15970531D01*
X19549196Y-15974661D01*
X19550230Y-15974276D01*
X19550343Y-15974274D01*
X19753831Y-15991166D01*
X19757889Y-15991588D01*
X19761701Y-15992064D01*
X19767114Y-15993368D01*
X19779100Y-15993512D01*
X19786082Y-15993843D01*
X19798038Y-15994836D01*
X19803550Y-15994049D01*
X19807411Y-15993936D01*
X19811482Y-15993900D01*
X19902207Y-15994990D01*
X19912396Y-15995717D01*
X19913175Y-15995731D01*
X19918696Y-15996455D01*
X19925349Y-15995826D01*
X19935848Y-15995395D01*
X19942525Y-15995476D01*
X19947970Y-15994301D01*
X19948753Y-15994223D01*
X19958825Y-15992667D01*
X20250865Y-15965102D01*
X20253668Y-15964880D01*
X20271857Y-15963702D01*
X20274711Y-15962852D01*
X20277677Y-15962573D01*
X20294966Y-15956871D01*
X20297655Y-15956027D01*
X20513514Y-15891823D01*
X20519735Y-15890192D01*
X20532231Y-15887349D01*
X20537255Y-15884931D01*
X20538228Y-15884592D01*
X20539166Y-15884193D01*
X20544511Y-15882605D01*
X20555690Y-15876299D01*
X20561381Y-15873330D01*
X20565625Y-15871289D01*
X20621294Y-15862344D01*
X20672819Y-15885244D01*
X20714920Y-15921212D01*
X20715300Y-15921537D01*
X20715445Y-15921690D01*
X20716110Y-15923136D01*
X20719412Y-15925869D01*
X20719415Y-15925872D01*
X20729727Y-15934407D01*
X20749601Y-15950857D01*
X20750724Y-15951801D01*
X20766145Y-15964976D01*
X20767502Y-15965687D01*
X20767671Y-15965813D01*
X20786617Y-15981495D01*
X20797448Y-15984175D01*
X20798995Y-15984955D01*
X20815137Y-15991079D01*
X20816808Y-15991520D01*
X20826692Y-15996699D01*
X20851265Y-15997529D01*
X20851480Y-15997547D01*
X20852970Y-15997916D01*
X20873386Y-15998287D01*
X20874713Y-15998322D01*
X20918166Y-15999792D01*
X20919624Y-15999149D01*
X20919816Y-15999132D01*
X20961435Y-15999890D01*
X20964261Y-16000157D01*
X20970736Y-16002852D01*
X21005559Y-16000954D01*
X21012730Y-16000824D01*
X21024462Y-16001038D01*
X21029917Y-15999896D01*
X21031690Y-15999729D01*
X21033430Y-15999436D01*
X21038990Y-15999134D01*
X21050269Y-15995904D01*
X21057187Y-15994192D01*
X21091369Y-15987044D01*
X21096931Y-15982770D01*
X21099595Y-15981783D01*
X21265030Y-15934424D01*
X21265338Y-15934407D01*
X21286760Y-15928203D01*
X21308170Y-15922075D01*
X21308439Y-15921926D01*
X21430133Y-15886689D01*
X21449370Y-15881119D01*
X21470820Y-15877400D01*
X21519781Y-15874386D01*
X21571183Y-15885181D01*
X21583105Y-15891320D01*
X21584985Y-15892288D01*
X21601470Y-15905820D01*
X21602620Y-15904385D01*
X21611328Y-15911357D01*
X21618265Y-15920090D01*
X21640973Y-15931080D01*
X21641399Y-15931309D01*
X21643249Y-15932719D01*
X21660589Y-15940602D01*
X21662640Y-15941565D01*
X21679793Y-15949867D01*
X21682057Y-15950388D01*
X21682519Y-15950574D01*
X21683075Y-15950827D01*
X21705474Y-15961011D01*
X21716631Y-15960764D01*
X21720008Y-15961457D01*
X21738241Y-15963326D01*
X21752604Y-15966633D01*
X21774940Y-15971776D01*
X21774958Y-15971780D01*
X21782622Y-15974787D01*
X21782799Y-15974211D01*
X21793463Y-15977474D01*
X21803139Y-15983033D01*
X21825994Y-15984695D01*
X21827039Y-15984771D01*
X21831134Y-15985154D01*
X21834926Y-15985588D01*
X21840349Y-15986838D01*
X21852356Y-15986860D01*
X21859335Y-15987120D01*
X21894424Y-15989674D01*
X21901305Y-15986955D01*
X21908704Y-15986970D01*
X21940448Y-15971757D01*
X21946837Y-15968969D01*
X21957998Y-15964561D01*
X21962592Y-15961412D01*
X21965914Y-15959648D01*
X21969566Y-15957803D01*
X21991242Y-15947417D01*
X21998213Y-15938708D01*
X22006950Y-15931769D01*
X22007325Y-15932241D01*
X22013355Y-15926640D01*
X22104754Y-15864032D01*
X22110655Y-15860532D01*
X22113590Y-15858599D01*
X22118553Y-15856078D01*
X22120498Y-15854457D01*
X22157789Y-15839968D01*
X22199354Y-15842173D01*
X22236337Y-15861266D01*
X22255662Y-15877164D01*
X22257553Y-15878760D01*
X22271759Y-15891071D01*
X22274056Y-15892295D01*
X22276069Y-15893951D01*
X22292866Y-15902356D01*
X22295067Y-15903494D01*
X22326234Y-15920105D01*
X22326236Y-15920105D01*
X22332081Y-15923221D01*
X22334673Y-15923326D01*
X22335084Y-15923483D01*
X22343161Y-15927525D01*
X22399405Y-15955671D01*
X22417104Y-15967025D01*
X22427837Y-15975649D01*
X22470979Y-15985663D01*
X22471627Y-15985817D01*
X22514626Y-15996323D01*
X22515812Y-15996071D01*
X22516992Y-15996345D01*
X22560108Y-15986670D01*
X22561064Y-15986462D01*
X22604156Y-15977313D01*
X22615038Y-15968900D01*
X22632949Y-15957879D01*
X22702254Y-15924817D01*
X22718299Y-15918808D01*
X22737310Y-15913513D01*
X22765969Y-15888348D01*
X22769843Y-15885120D01*
X22790977Y-15868393D01*
X22790976Y-15868393D01*
X22799727Y-15861468D01*
X22808354Y-15843718D01*
X22817146Y-15829022D01*
X22855333Y-15776189D01*
X22861363Y-15769961D01*
X22861117Y-15769759D01*
X22868195Y-15761143D01*
X22877022Y-15754314D01*
X22888392Y-15731557D01*
X22890616Y-15727375D01*
X22893853Y-15722899D01*
X22899059Y-15710633D01*
X22901629Y-15705068D01*
X22907576Y-15693169D01*
X22908884Y-15687797D01*
X22910636Y-15683365D01*
X22920565Y-15659980D01*
X22920036Y-15648836D01*
X22922002Y-15637852D01*
X22922315Y-15637908D01*
X22923144Y-15629272D01*
X22952074Y-15510548D01*
X22952084Y-15510521D01*
X22952385Y-15510153D01*
X22962909Y-15466085D01*
X22968148Y-15444586D01*
X22968154Y-15444121D01*
X22968263Y-15443668D01*
X22968386Y-15431357D01*
X22969981Y-15414623D01*
X23001821Y-15239742D01*
X23026961Y-15189803D01*
X23075147Y-15161447D01*
X23131012Y-15163719D01*
X23176735Y-15195894D01*
X23181003Y-15201266D01*
X23189632Y-15212128D01*
X23208181Y-15249781D01*
X23245764Y-15400670D01*
X23248455Y-15417651D01*
X23253338Y-15487070D01*
X23253545Y-15491323D01*
X23253832Y-15501891D01*
X23253832Y-15501896D01*
X23253984Y-15507453D01*
X23255069Y-15511674D01*
X23255375Y-15516024D01*
X23256986Y-15521333D01*
X23256989Y-15521349D01*
X23260063Y-15531478D01*
X23261212Y-15535578D01*
X23299312Y-15683813D01*
X23299933Y-15687241D01*
X23299038Y-15694824D01*
X23302664Y-15705368D01*
X23302665Y-15705371D01*
X23310039Y-15726812D01*
X23312303Y-15734358D01*
X23313535Y-15739151D01*
X23314956Y-15744677D01*
X23317503Y-15749618D01*
X23318393Y-15751955D01*
X23319462Y-15754206D01*
X23321270Y-15759462D01*
X23324197Y-15764176D01*
X23324200Y-15764182D01*
X23326893Y-15768519D01*
X23330778Y-15775372D01*
X23341164Y-15795519D01*
X23341165Y-15795521D01*
X23346276Y-15805434D01*
X23352372Y-15810029D01*
X23354420Y-15812850D01*
X23397105Y-15881594D01*
X23404300Y-15895538D01*
X23408405Y-15905329D01*
X23412786Y-15915778D01*
X23421133Y-15923173D01*
X23421134Y-15923175D01*
X23426044Y-15927525D01*
X23439673Y-15939601D01*
X23444380Y-15944055D01*
X23469659Y-15969605D01*
X23476140Y-15971911D01*
X23481291Y-15976475D01*
X23507283Y-15983842D01*
X23515845Y-15986269D01*
X23522043Y-15988248D01*
X23545378Y-15996553D01*
X23545379Y-15996553D01*
X23555887Y-16000293D01*
X23577720Y-15997950D01*
X23593386Y-15997519D01*
X23620047Y-15998902D01*
X23638498Y-16001620D01*
X23655411Y-16005770D01*
X23694975Y-15997412D01*
X23698401Y-15996751D01*
X23738260Y-15989805D01*
X23741302Y-15987626D01*
X23744960Y-15986854D01*
X23776982Y-15962156D01*
X23779744Y-15960102D01*
X23812678Y-15936523D01*
X23814472Y-15933242D01*
X23817435Y-15930958D01*
X23835566Y-15894815D01*
X23837199Y-15891703D01*
X23846490Y-15874722D01*
X23856608Y-15856230D01*
X23857509Y-15838848D01*
X23860228Y-15820383D01*
X23860426Y-15819579D01*
X23865230Y-15800000D01*
X25744867Y-15800000D01*
X25745875Y-15807011D01*
X25762294Y-15921212D01*
X25762295Y-15921215D01*
X25763303Y-15928226D01*
X25766245Y-15934668D01*
X25766246Y-15934671D01*
X25805878Y-16021453D01*
X25817118Y-16046063D01*
X25821752Y-16051411D01*
X25894839Y-16135760D01*
X25901951Y-16143967D01*
X26010931Y-16214004D01*
X26135228Y-16250500D01*
X26257694Y-16250500D01*
X26264772Y-16250500D01*
X26389069Y-16214004D01*
X26498049Y-16143967D01*
X26582882Y-16046063D01*
X26636697Y-15928226D01*
X26655133Y-15800000D01*
X26636697Y-15671774D01*
X26582882Y-15553937D01*
X26577818Y-15548093D01*
X26574679Y-15544470D01*
X26556741Y-15514237D01*
X26550500Y-15479641D01*
X26550500Y-14420359D01*
X26556741Y-14385763D01*
X26574679Y-14355530D01*
X26575230Y-14354893D01*
X26582882Y-14346063D01*
X26636697Y-14228226D01*
X26655133Y-14100000D01*
X26636697Y-13971774D01*
X26582882Y-13853937D01*
X26536064Y-13799905D01*
X26502684Y-13761382D01*
X26502683Y-13761381D01*
X26498049Y-13756033D01*
X26476095Y-13741924D01*
X26395026Y-13689824D01*
X26395024Y-13689823D01*
X26389069Y-13685996D01*
X26382275Y-13684001D01*
X26271563Y-13651494D01*
X26264772Y-13649500D01*
X26135228Y-13649500D01*
X26128437Y-13651493D01*
X26128436Y-13651494D01*
X26017724Y-13684001D01*
X26017721Y-13684002D01*
X26010931Y-13685996D01*
X26004978Y-13689821D01*
X26004973Y-13689824D01*
X25907908Y-13752204D01*
X25907904Y-13752206D01*
X25901951Y-13756033D01*
X25897319Y-13761378D01*
X25897315Y-13761382D01*
X25821752Y-13848588D01*
X25821749Y-13848591D01*
X25817118Y-13853937D01*
X25814179Y-13860372D01*
X25814176Y-13860377D01*
X25766246Y-13965328D01*
X25766244Y-13965333D01*
X25763303Y-13971774D01*
X25762295Y-13978782D01*
X25762294Y-13978787D01*
X25746377Y-14089498D01*
X25744867Y-14100000D01*
X25745875Y-14107011D01*
X25762294Y-14221212D01*
X25762295Y-14221215D01*
X25763303Y-14228226D01*
X25766245Y-14234668D01*
X25766246Y-14234671D01*
X25814173Y-14339615D01*
X25817118Y-14346063D01*
X25821757Y-14351417D01*
X25821758Y-14351418D01*
X25825321Y-14355530D01*
X25843259Y-14385763D01*
X25849500Y-14420359D01*
X25849500Y-15479641D01*
X25843259Y-15514237D01*
X25825321Y-15544470D01*
X25821758Y-15548581D01*
X25821755Y-15548585D01*
X25817118Y-15553937D01*
X25814177Y-15560377D01*
X25814173Y-15560384D01*
X25766246Y-15665328D01*
X25766244Y-15665333D01*
X25763303Y-15671774D01*
X25762295Y-15678782D01*
X25762294Y-15678787D01*
X25747428Y-15782190D01*
X25744867Y-15800000D01*
X23865230Y-15800000D01*
X23868418Y-15787005D01*
X23869333Y-15784207D01*
X23873446Y-15778394D01*
X23879208Y-15744163D01*
X23880684Y-15737019D01*
X23883433Y-15725820D01*
X23883523Y-15720252D01*
X23883767Y-15718365D01*
X23883870Y-15716470D01*
X23884794Y-15710987D01*
X23884470Y-15705371D01*
X23884130Y-15699476D01*
X23883978Y-15692173D01*
X23884542Y-15657475D01*
X23881556Y-15651010D01*
X23881166Y-15648087D01*
X23873274Y-15511230D01*
X23872269Y-15493809D01*
X23872254Y-15482709D01*
X23872265Y-15482500D01*
X23872264Y-15482496D01*
X23872568Y-15476947D01*
X23871592Y-15471261D01*
X23870334Y-15460236D01*
X23870322Y-15460028D01*
X23870002Y-15454476D01*
X23868396Y-15448934D01*
X23865908Y-15438117D01*
X23828011Y-15217125D01*
X23827297Y-15210323D01*
X23826763Y-15206825D01*
X23826545Y-15201266D01*
X23824320Y-15193028D01*
X23822325Y-15183963D01*
X23821825Y-15181047D01*
X23821824Y-15181045D01*
X23820885Y-15175566D01*
X23818747Y-15170427D01*
X23817762Y-15167028D01*
X23815557Y-15160566D01*
X23757830Y-14946764D01*
X23756500Y-14941205D01*
X23753647Y-14927552D01*
X23751477Y-14922829D01*
X23751295Y-14922218D01*
X23751042Y-14921625D01*
X23749690Y-14916615D01*
X23743151Y-14904300D01*
X23740628Y-14899200D01*
X23675980Y-14758404D01*
X23671916Y-14748053D01*
X23662890Y-14720611D01*
X23642761Y-14699709D01*
X23635558Y-14691342D01*
X23617882Y-14668323D01*
X23607923Y-14663300D01*
X23607921Y-14663298D01*
X23592102Y-14655319D01*
X23582448Y-14649747D01*
X23449344Y-14562576D01*
X23433498Y-14549247D01*
X23432206Y-14548373D01*
X23424590Y-14540229D01*
X23414193Y-14536195D01*
X23414192Y-14536194D01*
X23401733Y-14531360D01*
X23401557Y-14531281D01*
X23400350Y-14530491D01*
X23396943Y-14529226D01*
X23396931Y-14529221D01*
X23381241Y-14523398D01*
X23379877Y-14522880D01*
X23364274Y-14516825D01*
X23364258Y-14516819D01*
X23360864Y-14515503D01*
X23359433Y-14515292D01*
X23359248Y-14515234D01*
X23346721Y-14510584D01*
X23346719Y-14510583D01*
X23336267Y-14506704D01*
X23325164Y-14507743D01*
X23323619Y-14507540D01*
X23302918Y-14506998D01*
X23033539Y-14467463D01*
X23022663Y-14465237D01*
X23022476Y-14465187D01*
X23022462Y-14465185D01*
X23017090Y-14463767D01*
X23011530Y-14463579D01*
X23011519Y-14463578D01*
X23011282Y-14463570D01*
X23000268Y-14462580D01*
X23000034Y-14462545D01*
X23000021Y-14462544D01*
X22994532Y-14461739D01*
X22988995Y-14462175D01*
X22988985Y-14462175D01*
X22988784Y-14462191D01*
X22977690Y-14462440D01*
X22648145Y-14451348D01*
X22647469Y-14451260D01*
X22644430Y-14449797D01*
X22636183Y-14449797D01*
X22603694Y-14449797D01*
X22600364Y-14449741D01*
X22588391Y-14449338D01*
X22582835Y-14449151D01*
X22579698Y-14449756D01*
X22578668Y-14449797D01*
X22552904Y-14449797D01*
X22542859Y-14454633D01*
X22537275Y-14455908D01*
X22531909Y-14457685D01*
X22526666Y-14459995D01*
X22515720Y-14462110D01*
X22506773Y-14468764D01*
X22506766Y-14468768D01*
X22501979Y-14472329D01*
X22485863Y-14482081D01*
X22480495Y-14484666D01*
X22480489Y-14484670D01*
X22470443Y-14489509D01*
X22466179Y-14494855D01*
X22413134Y-14515155D01*
X22355030Y-14500325D01*
X22350892Y-14497744D01*
X22342977Y-14489883D01*
X22332434Y-14486234D01*
X22332431Y-14486232D01*
X22324837Y-14483604D01*
X22308878Y-14476446D01*
X22301858Y-14472518D01*
X22301857Y-14472517D01*
X22292125Y-14467072D01*
X22280993Y-14466388D01*
X22253543Y-14464702D01*
X22248872Y-14464303D01*
X22232769Y-14462545D01*
X22199759Y-14458939D01*
X22193955Y-14457936D01*
X22185559Y-14453802D01*
X22174409Y-14453703D01*
X22174407Y-14453703D01*
X22154780Y-14453530D01*
X22144919Y-14452950D01*
X22142872Y-14452726D01*
X22142865Y-14452726D01*
X22137350Y-14452124D01*
X22131840Y-14452763D01*
X22129841Y-14452770D01*
X22121153Y-14453234D01*
X22105189Y-14453094D01*
X22105185Y-14453094D01*
X22094036Y-14452997D01*
X22083947Y-14457745D01*
X22083155Y-14457919D01*
X22082194Y-14458079D01*
X22081281Y-14458455D01*
X22080530Y-14458720D01*
X22069451Y-14460008D01*
X22060028Y-14465973D01*
X22060024Y-14465975D01*
X22046542Y-14474511D01*
X22038934Y-14478690D01*
X22037220Y-14479745D01*
X22032193Y-14482113D01*
X22027821Y-14485537D01*
X22027813Y-14485542D01*
X22026197Y-14486808D01*
X22018124Y-14492503D01*
X22001541Y-14503002D01*
X22001536Y-14503006D01*
X21992121Y-14508968D01*
X21987168Y-14516908D01*
X21982757Y-14520830D01*
X21901333Y-14584601D01*
X21900770Y-14585004D01*
X21898378Y-14586215D01*
X21894113Y-14589751D01*
X21891012Y-14591786D01*
X21852079Y-14606803D01*
X21810416Y-14604444D01*
X21773427Y-14585128D01*
X21772793Y-14584601D01*
X21705602Y-14528736D01*
X21696139Y-14519749D01*
X21686091Y-14508858D01*
X21686090Y-14508857D01*
X21678528Y-14500661D01*
X21668159Y-14496557D01*
X21668155Y-14496555D01*
X21648847Y-14488915D01*
X21640511Y-14485162D01*
X21621995Y-14475775D01*
X21621991Y-14475774D01*
X21612046Y-14470732D01*
X21600898Y-14470504D01*
X21600893Y-14470503D01*
X21586080Y-14470201D01*
X21573079Y-14469075D01*
X21535422Y-14463291D01*
X21526952Y-14461608D01*
X21520614Y-14460058D01*
X21510641Y-14455064D01*
X21499488Y-14454891D01*
X21499486Y-14454891D01*
X21485417Y-14454673D01*
X21480884Y-14454292D01*
X21475391Y-14454070D01*
X21469898Y-14453227D01*
X21464354Y-14453626D01*
X21464347Y-14453626D01*
X21460425Y-14453909D01*
X21451786Y-14454153D01*
X21430273Y-14453821D01*
X21419126Y-14453649D01*
X21410833Y-14457485D01*
X21401721Y-14458143D01*
X21392054Y-14463687D01*
X21392049Y-14463689D01*
X21373386Y-14474394D01*
X21365718Y-14478358D01*
X21362139Y-14480014D01*
X21362129Y-14480020D01*
X21357090Y-14482352D01*
X21352694Y-14485747D01*
X21347996Y-14488599D01*
X21344204Y-14491134D01*
X21327176Y-14500901D01*
X21277811Y-14514025D01*
X21228474Y-14500793D01*
X21192300Y-14464729D01*
X21178920Y-14415432D01*
X21178916Y-14414554D01*
X21179517Y-14409019D01*
X21178870Y-14403488D01*
X21178851Y-14398883D01*
X21178577Y-14393304D01*
X21178712Y-14385763D01*
X21183518Y-14116982D01*
X21184198Y-14107053D01*
X21185085Y-14099621D01*
X21184496Y-14094082D01*
X21184509Y-14092219D01*
X21184267Y-14086709D01*
X21184093Y-14084870D01*
X21184193Y-14079313D01*
X21182656Y-14071978D01*
X21181105Y-14062121D01*
X21179340Y-14045492D01*
X21161597Y-13878287D01*
X21161240Y-13870895D01*
X21163588Y-13861035D01*
X21157319Y-13832356D01*
X21155588Y-13821656D01*
X21154937Y-13815513D01*
X21153131Y-13810244D01*
X21153085Y-13810035D01*
X21150254Y-13799905D01*
X21150181Y-13799690D01*
X21148994Y-13794257D01*
X21146356Y-13788648D01*
X21142293Y-13778614D01*
X21139523Y-13770530D01*
X21132779Y-13750849D01*
X21125662Y-13743640D01*
X21122128Y-13737125D01*
X21104033Y-13698644D01*
X21091886Y-13672812D01*
X21086940Y-13660078D01*
X21079516Y-13636182D01*
X21057121Y-13612145D01*
X21051585Y-13605665D01*
X21048775Y-13602074D01*
X21031331Y-13579779D01*
X21023260Y-13575799D01*
X21017126Y-13569216D01*
X20986499Y-13557268D01*
X20978719Y-13553841D01*
X20949239Y-13539307D01*
X20938086Y-13539203D01*
X20938083Y-13539203D01*
X20924219Y-13539075D01*
X20910581Y-13538003D01*
X20870196Y-13532000D01*
X20860895Y-13530158D01*
X20841254Y-13525281D01*
X20841249Y-13525280D01*
X20830425Y-13522593D01*
X20819508Y-13524867D01*
X20819504Y-13524867D01*
X20804501Y-13527993D01*
X20791920Y-13529780D01*
X20776618Y-13530959D01*
X20776612Y-13530960D01*
X20765495Y-13531817D01*
X20755849Y-13537412D01*
X20755847Y-13537413D01*
X20738325Y-13547577D01*
X20729902Y-13551937D01*
X20637251Y-13594405D01*
X20629757Y-13597476D01*
X20620868Y-13600699D01*
X20609802Y-13602074D01*
X20600428Y-13608112D01*
X20600425Y-13608114D01*
X20589303Y-13615280D01*
X20585608Y-13617304D01*
X20585650Y-13617374D01*
X20580885Y-13620243D01*
X20575838Y-13622557D01*
X20571434Y-13625933D01*
X20571427Y-13625938D01*
X20567630Y-13628850D01*
X20561022Y-13633500D01*
X20557016Y-13636081D01*
X20557009Y-13636086D01*
X20552340Y-13639095D01*
X20548457Y-13643066D01*
X20544146Y-13646585D01*
X20544094Y-13646521D01*
X20540947Y-13649312D01*
X20530445Y-13657365D01*
X20530442Y-13657367D01*
X20521596Y-13664152D01*
X20517594Y-13672071D01*
X20514770Y-13674969D01*
X20506691Y-13679319D01*
X20500139Y-13688338D01*
X20500138Y-13688340D01*
X20492654Y-13698644D01*
X20490052Y-13701727D01*
X20490158Y-13701810D01*
X20486741Y-13706195D01*
X20482857Y-13710169D01*
X20479956Y-13714903D01*
X20479951Y-13714910D01*
X20477199Y-13719403D01*
X20472895Y-13725846D01*
X20469784Y-13730129D01*
X20469778Y-13730139D01*
X20466521Y-13734624D01*
X20464340Y-13739724D01*
X20461596Y-13744564D01*
X20461480Y-13744498D01*
X20459627Y-13748083D01*
X20452974Y-13758942D01*
X20452972Y-13758946D01*
X20447148Y-13768454D01*
X20446024Y-13779548D01*
X20442460Y-13790120D01*
X20441684Y-13789858D01*
X20439683Y-13797435D01*
X20421037Y-13841073D01*
X20418112Y-13846918D01*
X20411509Y-13854030D01*
X20404013Y-13878295D01*
X20402611Y-13882834D01*
X20399066Y-13892496D01*
X20398502Y-13893816D01*
X20398500Y-13893820D01*
X20396319Y-13898927D01*
X20395328Y-13904388D01*
X20394998Y-13905489D01*
X20393186Y-13912911D01*
X20392973Y-13914033D01*
X20391334Y-13919340D01*
X20390916Y-13924872D01*
X20390915Y-13924882D01*
X20390807Y-13926315D01*
X20389500Y-13936517D01*
X20386111Y-13955207D01*
X20386111Y-13955213D01*
X20384122Y-13966185D01*
X20386704Y-13975540D01*
X20386606Y-13982074D01*
X20375051Y-14135411D01*
X20373781Y-14145423D01*
X20373477Y-14147117D01*
X20373476Y-14147123D01*
X20372496Y-14152595D01*
X20372756Y-14158141D01*
X20372655Y-14159696D01*
X20372565Y-14166128D01*
X20372621Y-14167658D01*
X20372205Y-14173196D01*
X20373030Y-14178690D01*
X20373031Y-14178694D01*
X20373287Y-14180396D01*
X20374277Y-14190452D01*
X20376444Y-14236520D01*
X20376444Y-14236523D01*
X20376445Y-14236526D01*
X20376446Y-14236526D01*
X20376446Y-14236527D01*
X20377177Y-14252060D01*
X20377286Y-14256714D01*
X20377286Y-14295430D01*
X20379305Y-14299625D01*
X20379470Y-14300829D01*
X20383220Y-14380511D01*
X20367913Y-14438219D01*
X20322207Y-14476632D01*
X20262725Y-14481779D01*
X20095120Y-14444301D01*
X20094413Y-14444071D01*
X20091559Y-14441975D01*
X20083131Y-14440401D01*
X20083125Y-14440399D01*
X20051744Y-14434538D01*
X20048322Y-14433836D01*
X20036901Y-14431282D01*
X20036890Y-14431280D01*
X20031475Y-14430070D01*
X20027893Y-14430085D01*
X20024366Y-14429427D01*
X20018821Y-14429647D01*
X20018815Y-14429647D01*
X20007064Y-14430114D01*
X20003574Y-14430191D01*
X19994101Y-14430233D01*
X19993837Y-14430222D01*
X19984697Y-14427342D01*
X19963764Y-14430367D01*
X19963121Y-14430370D01*
X19962857Y-14430498D01*
X19962510Y-14430548D01*
X19961009Y-14430765D01*
X19954778Y-14431665D01*
X19944582Y-14432602D01*
X19943095Y-14432661D01*
X19943090Y-14432661D01*
X19937537Y-14432883D01*
X19932180Y-14434331D01*
X19930975Y-14434516D01*
X19923724Y-14436015D01*
X19922541Y-14436324D01*
X19917045Y-14437119D01*
X19911858Y-14439117D01*
X19911855Y-14439119D01*
X19910468Y-14439654D01*
X19900728Y-14442838D01*
X19882316Y-14447818D01*
X19882309Y-14447821D01*
X19871553Y-14450731D01*
X19864238Y-14457054D01*
X19858357Y-14459740D01*
X19720284Y-14512964D01*
X19714052Y-14515130D01*
X19690557Y-14522430D01*
X19690554Y-14522431D01*
X19679903Y-14525741D01*
X19671743Y-14533342D01*
X19671738Y-14533346D01*
X19663737Y-14540801D01*
X19651527Y-14550497D01*
X19638508Y-14559258D01*
X19582628Y-14576122D01*
X19526959Y-14558572D01*
X19515666Y-14550769D01*
X19512185Y-14548251D01*
X19503791Y-14541895D01*
X19503788Y-14541893D01*
X19499362Y-14538542D01*
X19495682Y-14536882D01*
X19494112Y-14535875D01*
X19481854Y-14527405D01*
X19481847Y-14527402D01*
X19472673Y-14521063D01*
X19461654Y-14519331D01*
X19453784Y-14516186D01*
X19441989Y-14512668D01*
X19388554Y-14488570D01*
X19375633Y-14481545D01*
X19365291Y-14474882D01*
X19365289Y-14474881D01*
X19355915Y-14468841D01*
X19344848Y-14467465D01*
X19344846Y-14467465D01*
X19321747Y-14464595D01*
X19314361Y-14463392D01*
X19291546Y-14458785D01*
X19291542Y-14458785D01*
X19280613Y-14456578D01*
X19272944Y-14458532D01*
X19265087Y-14457556D01*
X19254520Y-14461118D01*
X19254519Y-14461119D01*
X19232447Y-14468561D01*
X19225269Y-14470682D01*
X19202729Y-14476426D01*
X19202725Y-14476427D01*
X19191923Y-14479181D01*
X19183383Y-14486349D01*
X19183380Y-14486351D01*
X19173968Y-14494252D01*
X19162032Y-14502845D01*
X19027141Y-14585472D01*
X19020478Y-14589207D01*
X19015616Y-14591691D01*
X19015602Y-14591699D01*
X19010761Y-14594173D01*
X19010755Y-14594175D01*
X19010674Y-14594217D01*
X19010665Y-14594200D01*
X18954932Y-14610009D01*
X18907389Y-14593203D01*
X18906211Y-14595189D01*
X18901438Y-14592355D01*
X18897002Y-14588997D01*
X18892822Y-14587112D01*
X18890610Y-14585703D01*
X18803900Y-14526631D01*
X18800468Y-14523934D01*
X18795662Y-14517087D01*
X18785929Y-14511644D01*
X18785926Y-14511641D01*
X18767251Y-14501198D01*
X18759847Y-14496619D01*
X18752080Y-14491328D01*
X18746901Y-14489297D01*
X18742259Y-14486846D01*
X18737887Y-14484778D01*
X18725514Y-14477858D01*
X18725510Y-14477856D01*
X18715779Y-14472415D01*
X18704647Y-14471734D01*
X18701777Y-14470892D01*
X18698821Y-14470447D01*
X18688442Y-14466378D01*
X18677320Y-14467215D01*
X18677318Y-14467215D01*
X18663175Y-14468280D01*
X18658346Y-14468314D01*
X18653101Y-14468582D01*
X18647552Y-14468243D01*
X18642065Y-14469146D01*
X18642065Y-14469147D01*
X18638278Y-14469771D01*
X18629623Y-14470807D01*
X18608295Y-14472413D01*
X18608292Y-14472413D01*
X18597175Y-14473251D01*
X18589930Y-14477435D01*
X18585682Y-14478437D01*
X18519991Y-14489262D01*
X18511257Y-14490305D01*
X18490035Y-14491887D01*
X18490031Y-14491888D01*
X18478914Y-14492717D01*
X18469255Y-14498287D01*
X18469251Y-14498289D01*
X18456874Y-14505428D01*
X18444848Y-14511319D01*
X18431605Y-14516727D01*
X18431599Y-14516730D01*
X18421281Y-14520945D01*
X18413811Y-14529219D01*
X18411428Y-14530893D01*
X18409288Y-14532876D01*
X18399632Y-14538447D01*
X18393348Y-14547654D01*
X18385570Y-14554866D01*
X18340275Y-14578787D01*
X18289087Y-14576868D01*
X18250055Y-14552351D01*
X18247458Y-14547855D01*
X18224112Y-14531948D01*
X18214961Y-14524897D01*
X18207364Y-14518302D01*
X18193626Y-14506375D01*
X18182866Y-14503441D01*
X18182863Y-14503440D01*
X18165028Y-14498578D01*
X18154926Y-14495231D01*
X18103442Y-14475043D01*
X18087079Y-14466806D01*
X18071881Y-14457298D01*
X18060798Y-14456071D01*
X18060795Y-14456070D01*
X18032222Y-14452907D01*
X18028394Y-14452407D01*
X17999938Y-14448127D01*
X17999933Y-14448127D01*
X17988908Y-14446469D01*
X17978254Y-14449758D01*
X17978247Y-14449759D01*
X17971770Y-14451759D01*
X17953845Y-14455520D01*
X17795751Y-14473646D01*
X17773662Y-14473698D01*
X17772693Y-14473591D01*
X17772688Y-14473591D01*
X17761604Y-14472373D01*
X17751086Y-14476084D01*
X17751085Y-14476085D01*
X17724290Y-14485542D01*
X17719244Y-14487323D01*
X17717111Y-14488074D01*
X17686096Y-14498995D01*
X17675420Y-14502754D01*
X17667551Y-14510653D01*
X17667544Y-14510658D01*
X17666854Y-14511352D01*
X17649615Y-14525164D01*
X17595675Y-14559258D01*
X17553848Y-14585696D01*
X17553661Y-14585814D01*
X17500234Y-14601128D01*
X17446974Y-14585240D01*
X17410668Y-14543159D01*
X17404793Y-14530257D01*
X17407261Y-14529133D01*
X17397222Y-14506168D01*
X17400190Y-14459606D01*
X17413459Y-14437438D01*
X17411355Y-14436142D01*
X17425851Y-14412616D01*
X17426511Y-14411544D01*
X17432881Y-14402402D01*
X17436410Y-14397900D01*
X17438893Y-14392629D01*
X17444158Y-14382906D01*
X17459371Y-14358220D01*
X17460437Y-14347941D01*
X17460932Y-14346718D01*
X17461142Y-14345413D01*
X17465547Y-14336067D01*
X17465301Y-14307082D01*
X17465827Y-14296012D01*
X17466428Y-14290230D01*
X17465755Y-14284702D01*
X17465727Y-14281428D01*
X17465641Y-14280111D01*
X17467855Y-14270026D01*
X17465280Y-14259168D01*
X17465265Y-14257382D01*
X17464866Y-14255703D01*
X17464773Y-14244544D01*
X17460190Y-14235230D01*
X17459944Y-14233851D01*
X17459186Y-14230663D01*
X17458516Y-14225143D01*
X17456576Y-14219754D01*
X17453403Y-14209082D01*
X17449311Y-14191824D01*
X17449310Y-14191822D01*
X17446737Y-14180970D01*
X17440196Y-14172909D01*
X17439673Y-14171676D01*
X17438887Y-14170589D01*
X17435375Y-14160825D01*
X17414761Y-14140570D01*
X17407274Y-14132335D01*
X17403668Y-14127890D01*
X17399294Y-14124462D01*
X17399290Y-14124458D01*
X17399078Y-14124292D01*
X17390768Y-14116994D01*
X17370092Y-14096677D01*
X17360313Y-14093350D01*
X17353884Y-14088871D01*
X17335708Y-14074626D01*
X17329737Y-14069380D01*
X17324140Y-14060645D01*
X17299539Y-14045486D01*
X17290414Y-14039128D01*
X17285901Y-14035591D01*
X17280876Y-14033223D01*
X17280871Y-14033220D01*
X17280624Y-14033104D01*
X17270892Y-14027833D01*
X17255716Y-14018481D01*
X17255714Y-14018480D01*
X17246220Y-14012630D01*
X17235946Y-14011562D01*
X17234717Y-14011066D01*
X17233409Y-14010855D01*
X17224067Y-14006454D01*
X17212914Y-14006548D01*
X17195077Y-14006699D01*
X17184024Y-14006174D01*
X17183760Y-14006146D01*
X17183752Y-14006146D01*
X17178230Y-14005573D01*
X17172714Y-14006243D01*
X17169436Y-14006272D01*
X17168110Y-14006357D01*
X17158027Y-14004146D01*
X17147178Y-14006717D01*
X17145387Y-14006733D01*
X17143694Y-14007134D01*
X17132545Y-14007229D01*
X17123238Y-14011807D01*
X17121855Y-14012055D01*
X17118658Y-14012814D01*
X17113143Y-14013485D01*
X17107912Y-14015366D01*
X17107907Y-14015368D01*
X17107741Y-14015428D01*
X17097081Y-14018598D01*
X17079824Y-14022690D01*
X17079822Y-14022690D01*
X17068971Y-14025264D01*
X17060913Y-14031801D01*
X17059676Y-14032326D01*
X17058586Y-14033113D01*
X17048825Y-14036626D01*
X17041010Y-14044578D01*
X17041005Y-14044582D01*
X17028570Y-14057237D01*
X17020354Y-14064709D01*
X17020207Y-14064827D01*
X17020195Y-14064839D01*
X17015891Y-14068332D01*
X17012470Y-14072695D01*
X17012461Y-14072705D01*
X17012286Y-14072930D01*
X17004998Y-14081226D01*
X16984677Y-14101909D01*
X16981352Y-14111680D01*
X16976861Y-14118128D01*
X16962649Y-14136263D01*
X16957380Y-14142262D01*
X16948645Y-14147859D01*
X16942796Y-14157349D01*
X16942792Y-14157354D01*
X16933481Y-14172464D01*
X16927138Y-14181571D01*
X16927023Y-14181717D01*
X16927016Y-14181728D01*
X16923592Y-14186098D01*
X16921227Y-14191115D01*
X16921222Y-14191124D01*
X16921106Y-14191372D01*
X16915840Y-14201094D01*
X16906481Y-14216282D01*
X16906478Y-14216288D01*
X16900631Y-14225779D01*
X16899564Y-14236048D01*
X16899067Y-14237279D01*
X16898855Y-14238591D01*
X16894455Y-14247932D01*
X16894548Y-14259079D01*
X16894548Y-14259084D01*
X16894699Y-14276923D01*
X16894175Y-14287967D01*
X16894146Y-14288240D01*
X16894146Y-14288244D01*
X16893573Y-14293768D01*
X16894243Y-14299284D01*
X16894272Y-14302559D01*
X16894357Y-14303888D01*
X16892146Y-14313975D01*
X16894718Y-14324823D01*
X16894813Y-14335973D01*
X16891793Y-14335998D01*
X16891151Y-14364415D01*
X16865841Y-14407409D01*
X16822776Y-14432601D01*
X16771236Y-14447119D01*
X16730863Y-14449898D01*
X16697114Y-14437847D01*
X16692180Y-14433032D01*
X16681608Y-14429476D01*
X16681300Y-14429288D01*
X16673042Y-14423647D01*
X16658527Y-14412616D01*
X16658209Y-14412320D01*
X16656969Y-14410039D01*
X16622950Y-14385541D01*
X16620926Y-14384043D01*
X16610410Y-14376051D01*
X16610402Y-14376046D01*
X16605992Y-14372695D01*
X16603737Y-14371673D01*
X16603247Y-14371351D01*
X16591748Y-14363071D01*
X16591745Y-14363069D01*
X16582697Y-14356554D01*
X16571718Y-14354609D01*
X16568203Y-14353124D01*
X16557636Y-14349851D01*
X16553888Y-14349087D01*
X16543730Y-14344485D01*
X16532581Y-14344745D01*
X16532575Y-14344744D01*
X16527812Y-14344856D01*
X16508239Y-14343366D01*
X16500126Y-14341929D01*
X16456877Y-14322797D01*
X16427437Y-14285787D01*
X16418524Y-14239345D01*
X16433023Y-13958409D01*
X16433036Y-13958332D01*
X16433398Y-13957662D01*
X16435375Y-13912892D01*
X16435411Y-13912176D01*
X16435509Y-13910280D01*
X16436511Y-13890868D01*
X16436381Y-13890127D01*
X16436415Y-13889374D01*
X16432533Y-13868077D01*
X16432458Y-13867660D01*
X16424756Y-13823532D01*
X16424311Y-13822911D01*
X16424290Y-13822839D01*
X16424073Y-13821647D01*
X16387739Y-13622263D01*
X16387219Y-13619107D01*
X16381251Y-13578740D01*
X16374993Y-13569506D01*
X16374992Y-13569503D01*
X16371671Y-13564603D01*
X16362616Y-13548033D01*
X16360286Y-13542592D01*
X16360284Y-13542589D01*
X16355894Y-13532338D01*
X16325185Y-13505548D01*
X16322727Y-13503330D01*
X16245747Y-13431503D01*
X16243925Y-13429520D01*
X16241002Y-13423341D01*
X16223953Y-13409551D01*
X16213655Y-13401221D01*
X16208379Y-13396636D01*
X16203662Y-13392235D01*
X16203661Y-13392234D01*
X16199601Y-13388446D01*
X16194802Y-13385657D01*
X16191713Y-13383364D01*
X16188470Y-13380851D01*
X16178511Y-13372796D01*
X16178509Y-13372795D01*
X16169840Y-13365783D01*
X16161517Y-13363822D01*
X16160555Y-13363092D01*
X16157403Y-13362449D01*
X16154705Y-13361127D01*
X16150141Y-13359705D01*
X16140500Y-13354104D01*
X16129381Y-13353239D01*
X16129379Y-13353239D01*
X16116615Y-13352247D01*
X16112520Y-13351843D01*
X16108709Y-13351386D01*
X16103305Y-13350114D01*
X16098108Y-13350077D01*
X16091084Y-13348944D01*
X16081801Y-13347054D01*
X16081798Y-13347054D01*
X16070870Y-13344829D01*
X16060455Y-13347465D01*
X16060198Y-13347458D01*
X16058744Y-13347748D01*
X16049249Y-13347011D01*
X16038857Y-13351055D01*
X16038850Y-13351057D01*
X16033008Y-13353332D01*
X16018465Y-13357741D01*
X16003144Y-13361127D01*
X15987755Y-13364528D01*
X15978989Y-13371419D01*
X15978984Y-13371422D01*
X15974678Y-13374808D01*
X15969774Y-13377946D01*
X15963958Y-13380211D01*
X15960580Y-13383829D01*
X15958536Y-13385138D01*
X15896081Y-13417046D01*
X15886533Y-13421237D01*
X15885973Y-13421519D01*
X15880770Y-13423448D01*
X15876128Y-13426483D01*
X15876108Y-13426494D01*
X15875252Y-13427055D01*
X15866143Y-13432341D01*
X15865240Y-13432802D01*
X15865232Y-13432806D01*
X15860289Y-13435333D01*
X15856032Y-13438893D01*
X15855514Y-13439237D01*
X15847138Y-13445447D01*
X15668718Y-13562160D01*
X15668029Y-13562571D01*
X15665382Y-13563644D01*
X15660836Y-13566815D01*
X15660826Y-13566821D01*
X15650523Y-13574009D01*
X15648088Y-13575654D01*
X15637572Y-13582534D01*
X15637564Y-13582539D01*
X15632921Y-13585578D01*
X15630937Y-13587635D01*
X15630284Y-13588132D01*
X15373044Y-13767618D01*
X15372859Y-13767734D01*
X15371476Y-13768320D01*
X15368415Y-13770525D01*
X15368409Y-13770530D01*
X15355067Y-13780147D01*
X15353836Y-13781020D01*
X15340239Y-13790507D01*
X15340217Y-13790523D01*
X15337135Y-13792675D01*
X15336122Y-13793788D01*
X15335948Y-13793928D01*
X15023125Y-14019417D01*
X15023032Y-14019476D01*
X15022069Y-14019897D01*
X15019835Y-14021543D01*
X15019828Y-14021548D01*
X15005129Y-14032382D01*
X15004334Y-14032961D01*
X14987278Y-14045257D01*
X14986587Y-14046041D01*
X14986502Y-14046111D01*
X14642283Y-14299821D01*
X14642200Y-14299875D01*
X14641374Y-14300245D01*
X14639430Y-14301705D01*
X14639423Y-14301710D01*
X14624342Y-14313040D01*
X14623621Y-14313576D01*
X14608559Y-14324678D01*
X14608551Y-14324684D01*
X14606601Y-14326122D01*
X14606010Y-14326806D01*
X14605950Y-14326857D01*
X14254791Y-14590674D01*
X14254720Y-14590721D01*
X14253854Y-14591119D01*
X14251839Y-14592663D01*
X14251832Y-14592668D01*
X14237062Y-14603988D01*
X14236314Y-14604555D01*
X14221442Y-14615729D01*
X14221436Y-14615733D01*
X14219401Y-14617263D01*
X14218788Y-14617986D01*
X14218711Y-14618052D01*
X13885150Y-14873711D01*
X13885023Y-14873798D01*
X13883930Y-14874316D01*
X13881465Y-14876253D01*
X13881446Y-14876267D01*
X13867619Y-14887138D01*
X13866664Y-14887879D01*
X13852708Y-14898576D01*
X13852690Y-14898591D01*
X13850195Y-14900504D01*
X13849421Y-14901436D01*
X13849307Y-14901536D01*
X13557623Y-15130863D01*
X13557338Y-15131066D01*
X13555621Y-15131921D01*
X13552071Y-15134826D01*
X13552061Y-15134834D01*
X13540411Y-15144370D01*
X13538901Y-15145581D01*
X13527081Y-15154875D01*
X13527066Y-15154887D01*
X13523462Y-15157722D01*
X13522259Y-15159208D01*
X13521996Y-15159445D01*
X13296106Y-15344356D01*
X13294610Y-15345497D01*
X13291083Y-15347447D01*
X13286941Y-15351147D01*
X13286937Y-15351151D01*
X13279059Y-15358191D01*
X13275813Y-15360968D01*
X13267655Y-15367646D01*
X13267649Y-15367651D01*
X13263363Y-15371161D01*
X13260893Y-15374339D01*
X13259548Y-15375627D01*
X13197744Y-15430863D01*
X13197738Y-15430868D01*
X13187148Y-15440331D01*
X13182911Y-15443909D01*
X13162432Y-15460241D01*
X13162429Y-15460244D01*
X13153715Y-15467194D01*
X13151325Y-15472154D01*
X13150161Y-15473386D01*
X13110279Y-15509029D01*
X13109648Y-15509588D01*
X13084673Y-15531528D01*
X13084670Y-15531531D01*
X13076291Y-15538893D01*
X13071934Y-15549161D01*
X13071933Y-15549164D01*
X13071092Y-15551148D01*
X13060701Y-15569763D01*
X13059450Y-15571525D01*
X13059449Y-15571527D01*
X13052996Y-15580623D01*
X13051128Y-15591617D01*
X13051126Y-15591623D01*
X13045531Y-15624556D01*
X13045387Y-15625383D01*
X13034648Y-15685496D01*
X13028149Y-15707172D01*
X13028090Y-15707308D01*
X13028089Y-15707311D01*
X13023687Y-15717555D01*
X12775500Y-15717555D01*
X12775500Y-14004320D01*
X12775877Y-13995692D01*
X12781054Y-13936517D01*
X12789550Y-13839401D01*
X12792542Y-13822430D01*
X12832030Y-13675059D01*
X12837930Y-13658851D01*
X12841361Y-13651494D01*
X12902402Y-13520588D01*
X12911021Y-13505660D01*
X12998524Y-13380694D01*
X13009605Y-13367487D01*
X13117487Y-13259605D01*
X13130694Y-13248524D01*
X13255660Y-13161021D01*
X13270588Y-13152402D01*
X13408855Y-13087928D01*
X13425059Y-13082030D01*
X13572430Y-13042542D01*
X13589401Y-13039550D01*
X13730478Y-13027207D01*
X13745692Y-13025877D01*
X13754320Y-13025500D01*
X13758285Y-13025500D01*
X39741715Y-13025500D01*
X39745680Y-13025500D01*
X39754308Y-13025877D01*
G37*
%TD.AperFunction*%
%TD*%
M02*
