%TF.GenerationSoftware,KiCad,Pcbnew,(7.0.0)*%
%TF.CreationDate,2023-03-29T09:50:13+01:00*%
%TF.ProjectId,Ogen,4f67656e-2e6b-4696-9361-645f70636258,rev?*%
%TF.SameCoordinates,Original*%
%TF.FileFunction,Legend,Bot*%
%TF.FilePolarity,Positive*%
%FSLAX46Y46*%
G04 Gerber Fmt 4.6, Leading zero omitted, Abs format (unit mm)*
G04 Created by KiCad (PCBNEW (7.0.0)) date 2023-03-29 09:50:13*
%MOMM*%
%LPD*%
G01*
G04 APERTURE LIST*
G04 Aperture macros list*
%AMRoundRect*
0 Rectangle with rounded corners*
0 $1 Rounding radius*
0 $2 $3 $4 $5 $6 $7 $8 $9 X,Y pos of 4 corners*
0 Add a 4 corners polygon primitive as box body*
4,1,4,$2,$3,$4,$5,$6,$7,$8,$9,$2,$3,0*
0 Add four circle primitives for the rounded corners*
1,1,$1+$1,$2,$3*
1,1,$1+$1,$4,$5*
1,1,$1+$1,$6,$7*
1,1,$1+$1,$8,$9*
0 Add four rect primitives between the rounded corners*
20,1,$1+$1,$2,$3,$4,$5,0*
20,1,$1+$1,$4,$5,$6,$7,0*
20,1,$1+$1,$6,$7,$8,$9,0*
20,1,$1+$1,$8,$9,$2,$3,0*%
G04 Aperture macros list end*
%ADD10C,0.120000*%
%ADD11C,0.125000*%
%ADD12O,1.500000X1.700000*%
%ADD13R,1.200000X1.200000*%
%ADD14C,1.200000*%
%ADD15C,4.400000*%
%ADD16R,1.000000X1.500000*%
%ADD17RoundRect,0.140000X-0.140000X-0.170000X0.140000X-0.170000X0.140000X0.170000X-0.140000X0.170000X0*%
%ADD18RoundRect,0.135000X-0.135000X-0.185000X0.135000X-0.185000X0.135000X0.185000X-0.135000X0.185000X0*%
%ADD19RoundRect,0.140000X0.170000X-0.140000X0.170000X0.140000X-0.170000X0.140000X-0.170000X-0.140000X0*%
%ADD20RoundRect,0.225000X-0.225000X-0.250000X0.225000X-0.250000X0.225000X0.250000X-0.225000X0.250000X0*%
%ADD21RoundRect,0.150000X0.512500X0.150000X-0.512500X0.150000X-0.512500X-0.150000X0.512500X-0.150000X0*%
%ADD22RoundRect,0.135000X-0.185000X0.135000X-0.185000X-0.135000X0.185000X-0.135000X0.185000X0.135000X0*%
G04 APERTURE END LIST*
D10*
G36*
X35649997Y-30599999D02*
G01*
X34649995Y-29599999D01*
X35649997Y-28600000D01*
X35649997Y-30599999D01*
G37*
X35649997Y-30599999D02*
X34649995Y-29599999D01*
X35649997Y-28600000D01*
X35649997Y-30599999D01*
D11*
X36890000Y-31578533D02*
X36640000Y-32328533D01*
X36640000Y-32328533D02*
X36390000Y-31578533D01*
X35711429Y-32257105D02*
X35747143Y-32292819D01*
X35747143Y-32292819D02*
X35854286Y-32328533D01*
X35854286Y-32328533D02*
X35925714Y-32328533D01*
X35925714Y-32328533D02*
X36032857Y-32292819D01*
X36032857Y-32292819D02*
X36104286Y-32221390D01*
X36104286Y-32221390D02*
X36140000Y-32149962D01*
X36140000Y-32149962D02*
X36175714Y-32007105D01*
X36175714Y-32007105D02*
X36175714Y-31899962D01*
X36175714Y-31899962D02*
X36140000Y-31757105D01*
X36140000Y-31757105D02*
X36104286Y-31685676D01*
X36104286Y-31685676D02*
X36032857Y-31614248D01*
X36032857Y-31614248D02*
X35925714Y-31578533D01*
X35925714Y-31578533D02*
X35854286Y-31578533D01*
X35854286Y-31578533D02*
X35747143Y-31614248D01*
X35747143Y-31614248D02*
X35711429Y-31649962D01*
X34961429Y-32257105D02*
X34997143Y-32292819D01*
X34997143Y-32292819D02*
X35104286Y-32328533D01*
X35104286Y-32328533D02*
X35175714Y-32328533D01*
X35175714Y-32328533D02*
X35282857Y-32292819D01*
X35282857Y-32292819D02*
X35354286Y-32221390D01*
X35354286Y-32221390D02*
X35390000Y-32149962D01*
X35390000Y-32149962D02*
X35425714Y-32007105D01*
X35425714Y-32007105D02*
X35425714Y-31899962D01*
X35425714Y-31899962D02*
X35390000Y-31757105D01*
X35390000Y-31757105D02*
X35354286Y-31685676D01*
X35354286Y-31685676D02*
X35282857Y-31614248D01*
X35282857Y-31614248D02*
X35175714Y-31578533D01*
X35175714Y-31578533D02*
X35104286Y-31578533D01*
X35104286Y-31578533D02*
X34997143Y-31614248D01*
X34997143Y-31614248D02*
X34961429Y-31649962D01*
X39035714Y-28518035D02*
X38607143Y-28518035D01*
X38821428Y-29268035D02*
X38821428Y-28518035D01*
X38357142Y-29268035D02*
X38357142Y-28518035D01*
X38035714Y-29268035D02*
X38035714Y-28875178D01*
X38035714Y-28875178D02*
X38071428Y-28803750D01*
X38071428Y-28803750D02*
X38142856Y-28768035D01*
X38142856Y-28768035D02*
X38249999Y-28768035D01*
X38249999Y-28768035D02*
X38321428Y-28803750D01*
X38321428Y-28803750D02*
X38357142Y-28839464D01*
X37678571Y-29268035D02*
X37678571Y-28768035D01*
X37678571Y-28518035D02*
X37714285Y-28553750D01*
X37714285Y-28553750D02*
X37678571Y-28589464D01*
X37678571Y-28589464D02*
X37642857Y-28553750D01*
X37642857Y-28553750D02*
X37678571Y-28518035D01*
X37678571Y-28518035D02*
X37678571Y-28589464D01*
X37357142Y-29232321D02*
X37285714Y-29268035D01*
X37285714Y-29268035D02*
X37142857Y-29268035D01*
X37142857Y-29268035D02*
X37071428Y-29232321D01*
X37071428Y-29232321D02*
X37035714Y-29160892D01*
X37035714Y-29160892D02*
X37035714Y-29125178D01*
X37035714Y-29125178D02*
X37071428Y-29053750D01*
X37071428Y-29053750D02*
X37142857Y-29018035D01*
X37142857Y-29018035D02*
X37250000Y-29018035D01*
X37250000Y-29018035D02*
X37321428Y-28982321D01*
X37321428Y-28982321D02*
X37357142Y-28910892D01*
X37357142Y-28910892D02*
X37357142Y-28875178D01*
X37357142Y-28875178D02*
X37321428Y-28803750D01*
X37321428Y-28803750D02*
X37250000Y-28768035D01*
X37250000Y-28768035D02*
X37142857Y-28768035D01*
X37142857Y-28768035D02*
X37071428Y-28803750D01*
X39903571Y-29733035D02*
X39724999Y-30483035D01*
X39724999Y-30483035D02*
X39582142Y-29947321D01*
X39582142Y-29947321D02*
X39439285Y-30483035D01*
X39439285Y-30483035D02*
X39260714Y-29733035D01*
X38653571Y-30483035D02*
X38653571Y-30090178D01*
X38653571Y-30090178D02*
X38689285Y-30018750D01*
X38689285Y-30018750D02*
X38760713Y-29983035D01*
X38760713Y-29983035D02*
X38903571Y-29983035D01*
X38903571Y-29983035D02*
X38974999Y-30018750D01*
X38653571Y-30447321D02*
X38724999Y-30483035D01*
X38724999Y-30483035D02*
X38903571Y-30483035D01*
X38903571Y-30483035D02*
X38974999Y-30447321D01*
X38974999Y-30447321D02*
X39010713Y-30375892D01*
X39010713Y-30375892D02*
X39010713Y-30304464D01*
X39010713Y-30304464D02*
X38974999Y-30233035D01*
X38974999Y-30233035D02*
X38903571Y-30197321D01*
X38903571Y-30197321D02*
X38724999Y-30197321D01*
X38724999Y-30197321D02*
X38653571Y-30161607D01*
X38367857Y-29983035D02*
X38189285Y-30483035D01*
X38010714Y-29983035D02*
X38189285Y-30483035D01*
X38189285Y-30483035D02*
X38260714Y-30661607D01*
X38260714Y-30661607D02*
X38296428Y-30697321D01*
X38296428Y-30697321D02*
X38367857Y-30733035D01*
X37274999Y-29733035D02*
X37274999Y-30340178D01*
X37274999Y-30340178D02*
X37239285Y-30411607D01*
X37239285Y-30411607D02*
X37203571Y-30447321D01*
X37203571Y-30447321D02*
X37132142Y-30483035D01*
X37132142Y-30483035D02*
X36989285Y-30483035D01*
X36989285Y-30483035D02*
X36917856Y-30447321D01*
X36917856Y-30447321D02*
X36882142Y-30411607D01*
X36882142Y-30411607D02*
X36846428Y-30340178D01*
X36846428Y-30340178D02*
X36846428Y-29733035D01*
X36489285Y-29983035D02*
X36489285Y-30733035D01*
X36489285Y-30018750D02*
X36417857Y-29983035D01*
X36417857Y-29983035D02*
X36274999Y-29983035D01*
X36274999Y-29983035D02*
X36203571Y-30018750D01*
X36203571Y-30018750D02*
X36167857Y-30054464D01*
X36167857Y-30054464D02*
X36132142Y-30125892D01*
X36132142Y-30125892D02*
X36132142Y-30340178D01*
X36132142Y-30340178D02*
X36167857Y-30411607D01*
X36167857Y-30411607D02*
X36203571Y-30447321D01*
X36203571Y-30447321D02*
X36274999Y-30483035D01*
X36274999Y-30483035D02*
X36417857Y-30483035D01*
X36417857Y-30483035D02*
X36489285Y-30447321D01*
X31810000Y-32328535D02*
X31810000Y-31578535D01*
X31810000Y-31578535D02*
X31560000Y-32114250D01*
X31560000Y-32114250D02*
X31310000Y-31578535D01*
X31310000Y-31578535D02*
X31310000Y-32328535D01*
X30810000Y-31578535D02*
X30667143Y-31578535D01*
X30667143Y-31578535D02*
X30595714Y-31614250D01*
X30595714Y-31614250D02*
X30524286Y-31685678D01*
X30524286Y-31685678D02*
X30488571Y-31828535D01*
X30488571Y-31828535D02*
X30488571Y-32078535D01*
X30488571Y-32078535D02*
X30524286Y-32221392D01*
X30524286Y-32221392D02*
X30595714Y-32292821D01*
X30595714Y-32292821D02*
X30667143Y-32328535D01*
X30667143Y-32328535D02*
X30810000Y-32328535D01*
X30810000Y-32328535D02*
X30881429Y-32292821D01*
X30881429Y-32292821D02*
X30952857Y-32221392D01*
X30952857Y-32221392D02*
X30988571Y-32078535D01*
X30988571Y-32078535D02*
X30988571Y-31828535D01*
X30988571Y-31828535D02*
X30952857Y-31685678D01*
X30952857Y-31685678D02*
X30881429Y-31614250D01*
X30881429Y-31614250D02*
X30810000Y-31578535D01*
X30202857Y-32292821D02*
X30095715Y-32328535D01*
X30095715Y-32328535D02*
X29917143Y-32328535D01*
X29917143Y-32328535D02*
X29845715Y-32292821D01*
X29845715Y-32292821D02*
X29810000Y-32257107D01*
X29810000Y-32257107D02*
X29774286Y-32185678D01*
X29774286Y-32185678D02*
X29774286Y-32114250D01*
X29774286Y-32114250D02*
X29810000Y-32042821D01*
X29810000Y-32042821D02*
X29845715Y-32007107D01*
X29845715Y-32007107D02*
X29917143Y-31971392D01*
X29917143Y-31971392D02*
X30060000Y-31935678D01*
X30060000Y-31935678D02*
X30131429Y-31899964D01*
X30131429Y-31899964D02*
X30167143Y-31864250D01*
X30167143Y-31864250D02*
X30202857Y-31792821D01*
X30202857Y-31792821D02*
X30202857Y-31721392D01*
X30202857Y-31721392D02*
X30167143Y-31649964D01*
X30167143Y-31649964D02*
X30131429Y-31614250D01*
X30131429Y-31614250D02*
X30060000Y-31578535D01*
X30060000Y-31578535D02*
X29881429Y-31578535D01*
X29881429Y-31578535D02*
X29774286Y-31614250D01*
X29162857Y-32292819D02*
X29055715Y-32328533D01*
X29055715Y-32328533D02*
X28877143Y-32328533D01*
X28877143Y-32328533D02*
X28805715Y-32292819D01*
X28805715Y-32292819D02*
X28770000Y-32257105D01*
X28770000Y-32257105D02*
X28734286Y-32185676D01*
X28734286Y-32185676D02*
X28734286Y-32114248D01*
X28734286Y-32114248D02*
X28770000Y-32042819D01*
X28770000Y-32042819D02*
X28805715Y-32007105D01*
X28805715Y-32007105D02*
X28877143Y-31971390D01*
X28877143Y-31971390D02*
X29020000Y-31935676D01*
X29020000Y-31935676D02*
X29091429Y-31899962D01*
X29091429Y-31899962D02*
X29127143Y-31864248D01*
X29127143Y-31864248D02*
X29162857Y-31792819D01*
X29162857Y-31792819D02*
X29162857Y-31721390D01*
X29162857Y-31721390D02*
X29127143Y-31649962D01*
X29127143Y-31649962D02*
X29091429Y-31614248D01*
X29091429Y-31614248D02*
X29020000Y-31578533D01*
X29020000Y-31578533D02*
X28841429Y-31578533D01*
X28841429Y-31578533D02*
X28734286Y-31614248D01*
X27984286Y-32257105D02*
X28020000Y-32292819D01*
X28020000Y-32292819D02*
X28127143Y-32328533D01*
X28127143Y-32328533D02*
X28198571Y-32328533D01*
X28198571Y-32328533D02*
X28305714Y-32292819D01*
X28305714Y-32292819D02*
X28377143Y-32221390D01*
X28377143Y-32221390D02*
X28412857Y-32149962D01*
X28412857Y-32149962D02*
X28448571Y-32007105D01*
X28448571Y-32007105D02*
X28448571Y-31899962D01*
X28448571Y-31899962D02*
X28412857Y-31757105D01*
X28412857Y-31757105D02*
X28377143Y-31685676D01*
X28377143Y-31685676D02*
X28305714Y-31614248D01*
X28305714Y-31614248D02*
X28198571Y-31578533D01*
X28198571Y-31578533D02*
X28127143Y-31578533D01*
X28127143Y-31578533D02*
X28020000Y-31614248D01*
X28020000Y-31614248D02*
X27984286Y-31649962D01*
X27305714Y-32328533D02*
X27662857Y-32328533D01*
X27662857Y-32328533D02*
X27662857Y-31578533D01*
X34135713Y-32328533D02*
X34135713Y-31578533D01*
X34135713Y-31578533D02*
X33885713Y-32114248D01*
X33885713Y-32114248D02*
X33635713Y-31578533D01*
X33635713Y-31578533D02*
X33635713Y-32328533D01*
X33278570Y-32328533D02*
X33278570Y-31578533D01*
X32957141Y-32292819D02*
X32849999Y-32328533D01*
X32849999Y-32328533D02*
X32671427Y-32328533D01*
X32671427Y-32328533D02*
X32599999Y-32292819D01*
X32599999Y-32292819D02*
X32564284Y-32257105D01*
X32564284Y-32257105D02*
X32528570Y-32185676D01*
X32528570Y-32185676D02*
X32528570Y-32114248D01*
X32528570Y-32114248D02*
X32564284Y-32042819D01*
X32564284Y-32042819D02*
X32599999Y-32007105D01*
X32599999Y-32007105D02*
X32671427Y-31971390D01*
X32671427Y-31971390D02*
X32814284Y-31935676D01*
X32814284Y-31935676D02*
X32885713Y-31899962D01*
X32885713Y-31899962D02*
X32921427Y-31864248D01*
X32921427Y-31864248D02*
X32957141Y-31792819D01*
X32957141Y-31792819D02*
X32957141Y-31721390D01*
X32957141Y-31721390D02*
X32921427Y-31649962D01*
X32921427Y-31649962D02*
X32885713Y-31614248D01*
X32885713Y-31614248D02*
X32814284Y-31578533D01*
X32814284Y-31578533D02*
X32635713Y-31578533D01*
X32635713Y-31578533D02*
X32528570Y-31614248D01*
X24118572Y-32328535D02*
X24118572Y-31578535D01*
X24118572Y-31578535D02*
X23868572Y-32114250D01*
X23868572Y-32114250D02*
X23618572Y-31578535D01*
X23618572Y-31578535D02*
X23618572Y-32328535D01*
X23118572Y-31578535D02*
X22975715Y-31578535D01*
X22975715Y-31578535D02*
X22904286Y-31614250D01*
X22904286Y-31614250D02*
X22832858Y-31685678D01*
X22832858Y-31685678D02*
X22797143Y-31828535D01*
X22797143Y-31828535D02*
X22797143Y-32078535D01*
X22797143Y-32078535D02*
X22832858Y-32221392D01*
X22832858Y-32221392D02*
X22904286Y-32292821D01*
X22904286Y-32292821D02*
X22975715Y-32328535D01*
X22975715Y-32328535D02*
X23118572Y-32328535D01*
X23118572Y-32328535D02*
X23190001Y-32292821D01*
X23190001Y-32292821D02*
X23261429Y-32221392D01*
X23261429Y-32221392D02*
X23297143Y-32078535D01*
X23297143Y-32078535D02*
X23297143Y-31828535D01*
X23297143Y-31828535D02*
X23261429Y-31685678D01*
X23261429Y-31685678D02*
X23190001Y-31614250D01*
X23190001Y-31614250D02*
X23118572Y-31578535D01*
X22582858Y-31578535D02*
X22154287Y-31578535D01*
X22368572Y-32328535D02*
X22368572Y-31578535D01*
X18520715Y-32328533D02*
X18770715Y-31971390D01*
X18949286Y-32328533D02*
X18949286Y-31578533D01*
X18949286Y-31578533D02*
X18663572Y-31578533D01*
X18663572Y-31578533D02*
X18592143Y-31614248D01*
X18592143Y-31614248D02*
X18556429Y-31649962D01*
X18556429Y-31649962D02*
X18520715Y-31721390D01*
X18520715Y-31721390D02*
X18520715Y-31828533D01*
X18520715Y-31828533D02*
X18556429Y-31899962D01*
X18556429Y-31899962D02*
X18592143Y-31935676D01*
X18592143Y-31935676D02*
X18663572Y-31971390D01*
X18663572Y-31971390D02*
X18949286Y-31971390D01*
X18235000Y-32292819D02*
X18127858Y-32328533D01*
X18127858Y-32328533D02*
X17949286Y-32328533D01*
X17949286Y-32328533D02*
X17877858Y-32292819D01*
X17877858Y-32292819D02*
X17842143Y-32257105D01*
X17842143Y-32257105D02*
X17806429Y-32185676D01*
X17806429Y-32185676D02*
X17806429Y-32114248D01*
X17806429Y-32114248D02*
X17842143Y-32042819D01*
X17842143Y-32042819D02*
X17877858Y-32007105D01*
X17877858Y-32007105D02*
X17949286Y-31971390D01*
X17949286Y-31971390D02*
X18092143Y-31935676D01*
X18092143Y-31935676D02*
X18163572Y-31899962D01*
X18163572Y-31899962D02*
X18199286Y-31864248D01*
X18199286Y-31864248D02*
X18235000Y-31792819D01*
X18235000Y-31792819D02*
X18235000Y-31721390D01*
X18235000Y-31721390D02*
X18199286Y-31649962D01*
X18199286Y-31649962D02*
X18163572Y-31614248D01*
X18163572Y-31614248D02*
X18092143Y-31578533D01*
X18092143Y-31578533D02*
X17913572Y-31578533D01*
X17913572Y-31578533D02*
X17806429Y-31614248D01*
X17592143Y-31578533D02*
X17163572Y-31578533D01*
X17377857Y-32328533D02*
X17377857Y-31578533D01*
X25855000Y-32257106D02*
X25890714Y-32292820D01*
X25890714Y-32292820D02*
X25997857Y-32328534D01*
X25997857Y-32328534D02*
X26069285Y-32328534D01*
X26069285Y-32328534D02*
X26176428Y-32292820D01*
X26176428Y-32292820D02*
X26247857Y-32221391D01*
X26247857Y-32221391D02*
X26283571Y-32149963D01*
X26283571Y-32149963D02*
X26319285Y-32007106D01*
X26319285Y-32007106D02*
X26319285Y-31899963D01*
X26319285Y-31899963D02*
X26283571Y-31757106D01*
X26283571Y-31757106D02*
X26247857Y-31685677D01*
X26247857Y-31685677D02*
X26176428Y-31614249D01*
X26176428Y-31614249D02*
X26069285Y-31578534D01*
X26069285Y-31578534D02*
X25997857Y-31578534D01*
X25997857Y-31578534D02*
X25890714Y-31614249D01*
X25890714Y-31614249D02*
X25855000Y-31649963D01*
X25569285Y-32292820D02*
X25462143Y-32328534D01*
X25462143Y-32328534D02*
X25283571Y-32328534D01*
X25283571Y-32328534D02*
X25212143Y-32292820D01*
X25212143Y-32292820D02*
X25176428Y-32257106D01*
X25176428Y-32257106D02*
X25140714Y-32185677D01*
X25140714Y-32185677D02*
X25140714Y-32114249D01*
X25140714Y-32114249D02*
X25176428Y-32042820D01*
X25176428Y-32042820D02*
X25212143Y-32007106D01*
X25212143Y-32007106D02*
X25283571Y-31971391D01*
X25283571Y-31971391D02*
X25426428Y-31935677D01*
X25426428Y-31935677D02*
X25497857Y-31899963D01*
X25497857Y-31899963D02*
X25533571Y-31864249D01*
X25533571Y-31864249D02*
X25569285Y-31792820D01*
X25569285Y-31792820D02*
X25569285Y-31721391D01*
X25569285Y-31721391D02*
X25533571Y-31649963D01*
X25533571Y-31649963D02*
X25497857Y-31614249D01*
X25497857Y-31614249D02*
X25426428Y-31578534D01*
X25426428Y-31578534D02*
X25247857Y-31578534D01*
X25247857Y-31578534D02*
X25140714Y-31614249D01*
X21221430Y-31614248D02*
X21292859Y-31578533D01*
X21292859Y-31578533D02*
X21400001Y-31578533D01*
X21400001Y-31578533D02*
X21507144Y-31614248D01*
X21507144Y-31614248D02*
X21578573Y-31685676D01*
X21578573Y-31685676D02*
X21614287Y-31757105D01*
X21614287Y-31757105D02*
X21650001Y-31899962D01*
X21650001Y-31899962D02*
X21650001Y-32007105D01*
X21650001Y-32007105D02*
X21614287Y-32149962D01*
X21614287Y-32149962D02*
X21578573Y-32221390D01*
X21578573Y-32221390D02*
X21507144Y-32292819D01*
X21507144Y-32292819D02*
X21400001Y-32328533D01*
X21400001Y-32328533D02*
X21328573Y-32328533D01*
X21328573Y-32328533D02*
X21221430Y-32292819D01*
X21221430Y-32292819D02*
X21185716Y-32257105D01*
X21185716Y-32257105D02*
X21185716Y-32007105D01*
X21185716Y-32007105D02*
X21328573Y-32007105D01*
X20864287Y-32328533D02*
X20864287Y-31578533D01*
X20864287Y-31578533D02*
X20435716Y-32328533D01*
X20435716Y-32328533D02*
X20435716Y-31578533D01*
X20078573Y-32328533D02*
X20078573Y-31578533D01*
X20078573Y-31578533D02*
X19900002Y-31578533D01*
X19900002Y-31578533D02*
X19792859Y-31614248D01*
X19792859Y-31614248D02*
X19721430Y-31685676D01*
X19721430Y-31685676D02*
X19685716Y-31757105D01*
X19685716Y-31757105D02*
X19650002Y-31899962D01*
X19650002Y-31899962D02*
X19650002Y-32007105D01*
X19650002Y-32007105D02*
X19685716Y-32149962D01*
X19685716Y-32149962D02*
X19721430Y-32221390D01*
X19721430Y-32221390D02*
X19792859Y-32292819D01*
X19792859Y-32292819D02*
X19900002Y-32328533D01*
X19900002Y-32328533D02*
X20078573Y-32328533D01*
%TO.C,U1*%
X17871428Y-21325535D02*
X17871428Y-21932678D01*
X17871428Y-21932678D02*
X17835714Y-22004107D01*
X17835714Y-22004107D02*
X17800000Y-22039821D01*
X17800000Y-22039821D02*
X17728571Y-22075535D01*
X17728571Y-22075535D02*
X17585714Y-22075535D01*
X17585714Y-22075535D02*
X17514285Y-22039821D01*
X17514285Y-22039821D02*
X17478571Y-22004107D01*
X17478571Y-22004107D02*
X17442857Y-21932678D01*
X17442857Y-21932678D02*
X17442857Y-21325535D01*
X16692857Y-22075535D02*
X17121428Y-22075535D01*
X16907143Y-22075535D02*
X16907143Y-21325535D01*
X16907143Y-21325535D02*
X16978571Y-21432678D01*
X16978571Y-21432678D02*
X17050000Y-21504107D01*
X17050000Y-21504107D02*
X17121428Y-21539821D01*
%TO.C,JP1*%
X27924999Y-16225537D02*
X27924999Y-16761252D01*
X27924999Y-16761252D02*
X27960714Y-16868394D01*
X27960714Y-16868394D02*
X28032142Y-16939823D01*
X28032142Y-16939823D02*
X28139285Y-16975537D01*
X28139285Y-16975537D02*
X28210714Y-16975537D01*
X27567856Y-16975537D02*
X27567856Y-16225537D01*
X27567856Y-16225537D02*
X27282142Y-16225537D01*
X27282142Y-16225537D02*
X27210713Y-16261252D01*
X27210713Y-16261252D02*
X27174999Y-16296966D01*
X27174999Y-16296966D02*
X27139285Y-16368394D01*
X27139285Y-16368394D02*
X27139285Y-16475537D01*
X27139285Y-16475537D02*
X27174999Y-16546966D01*
X27174999Y-16546966D02*
X27210713Y-16582680D01*
X27210713Y-16582680D02*
X27282142Y-16618394D01*
X27282142Y-16618394D02*
X27567856Y-16618394D01*
X26424999Y-16975537D02*
X26853570Y-16975537D01*
X26639285Y-16975537D02*
X26639285Y-16225537D01*
X26639285Y-16225537D02*
X26710713Y-16332680D01*
X26710713Y-16332680D02*
X26782142Y-16404109D01*
X26782142Y-16404109D02*
X26853570Y-16439823D01*
%TO.C,C3*%
X26724999Y-31004109D02*
X26760713Y-31039823D01*
X26760713Y-31039823D02*
X26867856Y-31075537D01*
X26867856Y-31075537D02*
X26939284Y-31075537D01*
X26939284Y-31075537D02*
X27046427Y-31039823D01*
X27046427Y-31039823D02*
X27117856Y-30968394D01*
X27117856Y-30968394D02*
X27153570Y-30896966D01*
X27153570Y-30896966D02*
X27189284Y-30754109D01*
X27189284Y-30754109D02*
X27189284Y-30646966D01*
X27189284Y-30646966D02*
X27153570Y-30504109D01*
X27153570Y-30504109D02*
X27117856Y-30432680D01*
X27117856Y-30432680D02*
X27046427Y-30361252D01*
X27046427Y-30361252D02*
X26939284Y-30325537D01*
X26939284Y-30325537D02*
X26867856Y-30325537D01*
X26867856Y-30325537D02*
X26760713Y-30361252D01*
X26760713Y-30361252D02*
X26724999Y-30396966D01*
X26474999Y-30325537D02*
X26010713Y-30325537D01*
X26010713Y-30325537D02*
X26260713Y-30611252D01*
X26260713Y-30611252D02*
X26153570Y-30611252D01*
X26153570Y-30611252D02*
X26082142Y-30646966D01*
X26082142Y-30646966D02*
X26046427Y-30682680D01*
X26046427Y-30682680D02*
X26010713Y-30754109D01*
X26010713Y-30754109D02*
X26010713Y-30932680D01*
X26010713Y-30932680D02*
X26046427Y-31004109D01*
X26046427Y-31004109D02*
X26082142Y-31039823D01*
X26082142Y-31039823D02*
X26153570Y-31075537D01*
X26153570Y-31075537D02*
X26367856Y-31075537D01*
X26367856Y-31075537D02*
X26439284Y-31039823D01*
X26439284Y-31039823D02*
X26474999Y-31004109D01*
%TO.C,C4*%
X34925000Y-14404107D02*
X34960714Y-14439821D01*
X34960714Y-14439821D02*
X35067857Y-14475535D01*
X35067857Y-14475535D02*
X35139285Y-14475535D01*
X35139285Y-14475535D02*
X35246428Y-14439821D01*
X35246428Y-14439821D02*
X35317857Y-14368392D01*
X35317857Y-14368392D02*
X35353571Y-14296964D01*
X35353571Y-14296964D02*
X35389285Y-14154107D01*
X35389285Y-14154107D02*
X35389285Y-14046964D01*
X35389285Y-14046964D02*
X35353571Y-13904107D01*
X35353571Y-13904107D02*
X35317857Y-13832678D01*
X35317857Y-13832678D02*
X35246428Y-13761250D01*
X35246428Y-13761250D02*
X35139285Y-13725535D01*
X35139285Y-13725535D02*
X35067857Y-13725535D01*
X35067857Y-13725535D02*
X34960714Y-13761250D01*
X34960714Y-13761250D02*
X34925000Y-13796964D01*
X34282143Y-13975535D02*
X34282143Y-14475535D01*
X34460714Y-13689821D02*
X34639285Y-14225535D01*
X34639285Y-14225535D02*
X34175000Y-14225535D01*
%TO.C,R3*%
X30125000Y-14275535D02*
X30375000Y-13918392D01*
X30553571Y-14275535D02*
X30553571Y-13525535D01*
X30553571Y-13525535D02*
X30267857Y-13525535D01*
X30267857Y-13525535D02*
X30196428Y-13561250D01*
X30196428Y-13561250D02*
X30160714Y-13596964D01*
X30160714Y-13596964D02*
X30125000Y-13668392D01*
X30125000Y-13668392D02*
X30125000Y-13775535D01*
X30125000Y-13775535D02*
X30160714Y-13846964D01*
X30160714Y-13846964D02*
X30196428Y-13882678D01*
X30196428Y-13882678D02*
X30267857Y-13918392D01*
X30267857Y-13918392D02*
X30553571Y-13918392D01*
X29875000Y-13525535D02*
X29410714Y-13525535D01*
X29410714Y-13525535D02*
X29660714Y-13811250D01*
X29660714Y-13811250D02*
X29553571Y-13811250D01*
X29553571Y-13811250D02*
X29482143Y-13846964D01*
X29482143Y-13846964D02*
X29446428Y-13882678D01*
X29446428Y-13882678D02*
X29410714Y-13954107D01*
X29410714Y-13954107D02*
X29410714Y-14132678D01*
X29410714Y-14132678D02*
X29446428Y-14204107D01*
X29446428Y-14204107D02*
X29482143Y-14239821D01*
X29482143Y-14239821D02*
X29553571Y-14275535D01*
X29553571Y-14275535D02*
X29767857Y-14275535D01*
X29767857Y-14275535D02*
X29839285Y-14239821D01*
X29839285Y-14239821D02*
X29875000Y-14204107D01*
%TO.C,R2*%
X30625001Y-16675536D02*
X30875001Y-16318393D01*
X31053572Y-16675536D02*
X31053572Y-15925536D01*
X31053572Y-15925536D02*
X30767858Y-15925536D01*
X30767858Y-15925536D02*
X30696429Y-15961251D01*
X30696429Y-15961251D02*
X30660715Y-15996965D01*
X30660715Y-15996965D02*
X30625001Y-16068393D01*
X30625001Y-16068393D02*
X30625001Y-16175536D01*
X30625001Y-16175536D02*
X30660715Y-16246965D01*
X30660715Y-16246965D02*
X30696429Y-16282679D01*
X30696429Y-16282679D02*
X30767858Y-16318393D01*
X30767858Y-16318393D02*
X31053572Y-16318393D01*
X30339286Y-15996965D02*
X30303572Y-15961251D01*
X30303572Y-15961251D02*
X30232144Y-15925536D01*
X30232144Y-15925536D02*
X30053572Y-15925536D01*
X30053572Y-15925536D02*
X29982144Y-15961251D01*
X29982144Y-15961251D02*
X29946429Y-15996965D01*
X29946429Y-15996965D02*
X29910715Y-16068393D01*
X29910715Y-16068393D02*
X29910715Y-16139822D01*
X29910715Y-16139822D02*
X29946429Y-16246965D01*
X29946429Y-16246965D02*
X30375001Y-16675536D01*
X30375001Y-16675536D02*
X29910715Y-16675536D01*
%TO.C,R1*%
X22225002Y-31075535D02*
X22475002Y-30718392D01*
X22653573Y-31075535D02*
X22653573Y-30325535D01*
X22653573Y-30325535D02*
X22367859Y-30325535D01*
X22367859Y-30325535D02*
X22296430Y-30361250D01*
X22296430Y-30361250D02*
X22260716Y-30396964D01*
X22260716Y-30396964D02*
X22225002Y-30468392D01*
X22225002Y-30468392D02*
X22225002Y-30575535D01*
X22225002Y-30575535D02*
X22260716Y-30646964D01*
X22260716Y-30646964D02*
X22296430Y-30682678D01*
X22296430Y-30682678D02*
X22367859Y-30718392D01*
X22367859Y-30718392D02*
X22653573Y-30718392D01*
X21510716Y-31075535D02*
X21939287Y-31075535D01*
X21725002Y-31075535D02*
X21725002Y-30325535D01*
X21725002Y-30325535D02*
X21796430Y-30432678D01*
X21796430Y-30432678D02*
X21867859Y-30504107D01*
X21867859Y-30504107D02*
X21939287Y-30539821D01*
%TO.C,C1*%
X40325001Y-18304108D02*
X40360715Y-18339822D01*
X40360715Y-18339822D02*
X40467858Y-18375536D01*
X40467858Y-18375536D02*
X40539286Y-18375536D01*
X40539286Y-18375536D02*
X40646429Y-18339822D01*
X40646429Y-18339822D02*
X40717858Y-18268393D01*
X40717858Y-18268393D02*
X40753572Y-18196965D01*
X40753572Y-18196965D02*
X40789286Y-18054108D01*
X40789286Y-18054108D02*
X40789286Y-17946965D01*
X40789286Y-17946965D02*
X40753572Y-17804108D01*
X40753572Y-17804108D02*
X40717858Y-17732679D01*
X40717858Y-17732679D02*
X40646429Y-17661251D01*
X40646429Y-17661251D02*
X40539286Y-17625536D01*
X40539286Y-17625536D02*
X40467858Y-17625536D01*
X40467858Y-17625536D02*
X40360715Y-17661251D01*
X40360715Y-17661251D02*
X40325001Y-17696965D01*
X39610715Y-18375536D02*
X40039286Y-18375536D01*
X39825001Y-18375536D02*
X39825001Y-17625536D01*
X39825001Y-17625536D02*
X39896429Y-17732679D01*
X39896429Y-17732679D02*
X39967858Y-17804108D01*
X39967858Y-17804108D02*
X40039286Y-17839822D01*
%TO.C,C2*%
X33225001Y-31004108D02*
X33260715Y-31039822D01*
X33260715Y-31039822D02*
X33367858Y-31075536D01*
X33367858Y-31075536D02*
X33439286Y-31075536D01*
X33439286Y-31075536D02*
X33546429Y-31039822D01*
X33546429Y-31039822D02*
X33617858Y-30968393D01*
X33617858Y-30968393D02*
X33653572Y-30896965D01*
X33653572Y-30896965D02*
X33689286Y-30754108D01*
X33689286Y-30754108D02*
X33689286Y-30646965D01*
X33689286Y-30646965D02*
X33653572Y-30504108D01*
X33653572Y-30504108D02*
X33617858Y-30432679D01*
X33617858Y-30432679D02*
X33546429Y-30361251D01*
X33546429Y-30361251D02*
X33439286Y-30325536D01*
X33439286Y-30325536D02*
X33367858Y-30325536D01*
X33367858Y-30325536D02*
X33260715Y-30361251D01*
X33260715Y-30361251D02*
X33225001Y-30396965D01*
X32939286Y-30396965D02*
X32903572Y-30361251D01*
X32903572Y-30361251D02*
X32832144Y-30325536D01*
X32832144Y-30325536D02*
X32653572Y-30325536D01*
X32653572Y-30325536D02*
X32582144Y-30361251D01*
X32582144Y-30361251D02*
X32546429Y-30396965D01*
X32546429Y-30396965D02*
X32510715Y-30468393D01*
X32510715Y-30468393D02*
X32510715Y-30539822D01*
X32510715Y-30539822D02*
X32546429Y-30646965D01*
X32546429Y-30646965D02*
X32975001Y-31075536D01*
X32975001Y-31075536D02*
X32510715Y-31075536D01*
%TO.C,U2*%
X39071429Y-18025536D02*
X39071429Y-18632679D01*
X39071429Y-18632679D02*
X39035715Y-18704108D01*
X39035715Y-18704108D02*
X39000001Y-18739822D01*
X39000001Y-18739822D02*
X38928572Y-18775536D01*
X38928572Y-18775536D02*
X38785715Y-18775536D01*
X38785715Y-18775536D02*
X38714286Y-18739822D01*
X38714286Y-18739822D02*
X38678572Y-18704108D01*
X38678572Y-18704108D02*
X38642858Y-18632679D01*
X38642858Y-18632679D02*
X38642858Y-18025536D01*
X38321429Y-18096965D02*
X38285715Y-18061251D01*
X38285715Y-18061251D02*
X38214287Y-18025536D01*
X38214287Y-18025536D02*
X38035715Y-18025536D01*
X38035715Y-18025536D02*
X37964287Y-18061251D01*
X37964287Y-18061251D02*
X37928572Y-18096965D01*
X37928572Y-18096965D02*
X37892858Y-18168393D01*
X37892858Y-18168393D02*
X37892858Y-18239822D01*
X37892858Y-18239822D02*
X37928572Y-18346965D01*
X37928572Y-18346965D02*
X38357144Y-18775536D01*
X38357144Y-18775536D02*
X37892858Y-18775536D01*
%TO.C,R4*%
X36624998Y-19875537D02*
X36874998Y-19518394D01*
X37053569Y-19875537D02*
X37053569Y-19125537D01*
X37053569Y-19125537D02*
X36767855Y-19125537D01*
X36767855Y-19125537D02*
X36696426Y-19161252D01*
X36696426Y-19161252D02*
X36660712Y-19196966D01*
X36660712Y-19196966D02*
X36624998Y-19268394D01*
X36624998Y-19268394D02*
X36624998Y-19375537D01*
X36624998Y-19375537D02*
X36660712Y-19446966D01*
X36660712Y-19446966D02*
X36696426Y-19482680D01*
X36696426Y-19482680D02*
X36767855Y-19518394D01*
X36767855Y-19518394D02*
X37053569Y-19518394D01*
X35982141Y-19375537D02*
X35982141Y-19875537D01*
X36160712Y-19089823D02*
X36339283Y-19625537D01*
X36339283Y-19625537D02*
X35874998Y-19625537D01*
%TO.C,R5*%
X33825001Y-17025534D02*
X34075001Y-16668391D01*
X34253572Y-17025534D02*
X34253572Y-16275534D01*
X34253572Y-16275534D02*
X33967858Y-16275534D01*
X33967858Y-16275534D02*
X33896429Y-16311249D01*
X33896429Y-16311249D02*
X33860715Y-16346963D01*
X33860715Y-16346963D02*
X33825001Y-16418391D01*
X33825001Y-16418391D02*
X33825001Y-16525534D01*
X33825001Y-16525534D02*
X33860715Y-16596963D01*
X33860715Y-16596963D02*
X33896429Y-16632677D01*
X33896429Y-16632677D02*
X33967858Y-16668391D01*
X33967858Y-16668391D02*
X34253572Y-16668391D01*
X33146429Y-16275534D02*
X33503572Y-16275534D01*
X33503572Y-16275534D02*
X33539286Y-16632677D01*
X33539286Y-16632677D02*
X33503572Y-16596963D01*
X33503572Y-16596963D02*
X33432144Y-16561249D01*
X33432144Y-16561249D02*
X33253572Y-16561249D01*
X33253572Y-16561249D02*
X33182144Y-16596963D01*
X33182144Y-16596963D02*
X33146429Y-16632677D01*
X33146429Y-16632677D02*
X33110715Y-16704106D01*
X33110715Y-16704106D02*
X33110715Y-16882677D01*
X33110715Y-16882677D02*
X33146429Y-16954106D01*
X33146429Y-16954106D02*
X33182144Y-16989820D01*
X33182144Y-16989820D02*
X33253572Y-17025534D01*
X33253572Y-17025534D02*
X33432144Y-17025534D01*
X33432144Y-17025534D02*
X33503572Y-16989820D01*
X33503572Y-16989820D02*
X33539286Y-16954106D01*
D10*
%TO.C,JP1*%
X28699999Y-15850001D02*
X28699999Y-13850001D01*
X28699999Y-13850001D02*
X25899999Y-13850001D01*
X25899999Y-15850001D02*
X28699999Y-15850001D01*
X25899999Y-13850001D02*
X25899999Y-15850001D01*
%TO.C,C3*%
X28192163Y-30340000D02*
X28407835Y-30340000D01*
X28192163Y-31060000D02*
X28407835Y-31060000D01*
%TO.C,C4*%
X36392165Y-13539999D02*
X36607837Y-13539999D01*
X36392165Y-14259999D02*
X36607837Y-14259999D01*
%TO.C,R3*%
X29846359Y-14469998D02*
X30153641Y-14469998D01*
X29846359Y-15229998D02*
X30153641Y-15229998D01*
%TO.C,R2*%
X30346360Y-16920000D02*
X30653642Y-16920000D01*
X30346360Y-17680000D02*
X30653642Y-17680000D01*
%TO.C,R1*%
X23646362Y-30319999D02*
X23953644Y-30319999D01*
X23646362Y-31079999D02*
X23953644Y-31079999D01*
%TO.C,C1*%
X39840002Y-16807835D02*
X39840002Y-16592163D01*
X40560002Y-16807835D02*
X40560002Y-16592163D01*
%TO.C,C2*%
X30659422Y-30390000D02*
X30940582Y-30390000D01*
X30659422Y-31410000D02*
X30940582Y-31410000D01*
%TO.C,U2*%
X37600001Y-17760000D02*
X38400001Y-17760000D01*
X37600001Y-17760000D02*
X36800001Y-17760000D01*
X37600001Y-14640000D02*
X39400001Y-14640000D01*
X37600001Y-14640000D02*
X36800001Y-14640000D01*
%TO.C,R4*%
X36346356Y-18120001D02*
X36653638Y-18120001D01*
X36346356Y-18880001D02*
X36653638Y-18880001D01*
%TO.C,R5*%
X35280001Y-16596358D02*
X35280001Y-16903640D01*
X34520001Y-16596358D02*
X34520001Y-16903640D01*
%TD*%
%LPC*%
D12*
%TO.C,J1*%
X35890000Y-33449999D03*
X33350000Y-33449999D03*
X30810000Y-33449999D03*
X28270000Y-33449999D03*
X25730000Y-33449999D03*
X23190000Y-33449999D03*
X20650000Y-33449999D03*
X18110000Y-33449999D03*
%TD*%
D13*
%TO.C,U1*%
X32659999Y-29349999D03*
D14*
X30880000Y-29350000D03*
X29100000Y-29350000D03*
X27320000Y-29350000D03*
X25540000Y-29350000D03*
X23760000Y-29350000D03*
X21980000Y-29350000D03*
X20200000Y-29350000D03*
X19310000Y-18650000D03*
X21090000Y-18650000D03*
X22870000Y-18650000D03*
X24650000Y-18650000D03*
X26430000Y-18650000D03*
X28210000Y-18650000D03*
X29990000Y-18650000D03*
X31770000Y-18650000D03*
%TD*%
D15*
%TO.C,H1*%
X39000001Y-24000001D03*
%TD*%
%TO.C,H2*%
X15000001Y-23999999D03*
%TD*%
D16*
%TO.C,JP1*%
X27949998Y-14850000D03*
X26649998Y-14850000D03*
%TD*%
D17*
%TO.C,C3*%
X27819999Y-30700000D03*
X28779999Y-30700000D03*
%TD*%
%TO.C,C4*%
X36020001Y-13899999D03*
X36980001Y-13899999D03*
%TD*%
D18*
%TO.C,R3*%
X29490000Y-14849998D03*
X30510000Y-14849998D03*
%TD*%
%TO.C,R2*%
X29990001Y-17300000D03*
X31010001Y-17300000D03*
%TD*%
%TO.C,R1*%
X23290003Y-30699999D03*
X24310003Y-30699999D03*
%TD*%
D19*
%TO.C,C1*%
X40200002Y-17179999D03*
X40200002Y-16219999D03*
%TD*%
D20*
%TO.C,C2*%
X30025002Y-30900000D03*
X31575002Y-30900000D03*
%TD*%
D21*
%TO.C,U2*%
X38737501Y-15250000D03*
X38737501Y-16200000D03*
X38737501Y-17150000D03*
X36462501Y-17150000D03*
X36462501Y-15250000D03*
%TD*%
D18*
%TO.C,R4*%
X35989997Y-18500001D03*
X37009997Y-18500001D03*
%TD*%
D22*
%TO.C,R5*%
X34900001Y-16239999D03*
X34900001Y-17259999D03*
%TD*%
M02*
