%TF.GenerationSoftware,KiCad,Pcbnew,(7.0.0)*%
%TF.CreationDate,2023-03-29T09:50:13+01:00*%
%TF.ProjectId,Ogen,4f67656e-2e6b-4696-9361-645f70636258,rev?*%
%TF.SameCoordinates,Original*%
%TF.FileFunction,Soldermask,Bot*%
%TF.FilePolarity,Negative*%
%FSLAX46Y46*%
G04 Gerber Fmt 4.6, Leading zero omitted, Abs format (unit mm)*
G04 Created by KiCad (PCBNEW (7.0.0)) date 2023-03-29 09:50:13*
%MOMM*%
%LPD*%
G01*
G04 APERTURE LIST*
G04 Aperture macros list*
%AMRoundRect*
0 Rectangle with rounded corners*
0 $1 Rounding radius*
0 $2 $3 $4 $5 $6 $7 $8 $9 X,Y pos of 4 corners*
0 Add a 4 corners polygon primitive as box body*
4,1,4,$2,$3,$4,$5,$6,$7,$8,$9,$2,$3,0*
0 Add four circle primitives for the rounded corners*
1,1,$1+$1,$2,$3*
1,1,$1+$1,$4,$5*
1,1,$1+$1,$6,$7*
1,1,$1+$1,$8,$9*
0 Add four rect primitives between the rounded corners*
20,1,$1+$1,$2,$3,$4,$5,0*
20,1,$1+$1,$4,$5,$6,$7,0*
20,1,$1+$1,$6,$7,$8,$9,0*
20,1,$1+$1,$8,$9,$2,$3,0*%
G04 Aperture macros list end*
%ADD10O,1.500000X1.700000*%
%ADD11R,1.200000X1.200000*%
%ADD12C,1.200000*%
%ADD13C,4.400000*%
%ADD14R,1.000000X1.500000*%
%ADD15RoundRect,0.140000X-0.140000X-0.170000X0.140000X-0.170000X0.140000X0.170000X-0.140000X0.170000X0*%
%ADD16RoundRect,0.135000X-0.135000X-0.185000X0.135000X-0.185000X0.135000X0.185000X-0.135000X0.185000X0*%
%ADD17RoundRect,0.140000X0.170000X-0.140000X0.170000X0.140000X-0.170000X0.140000X-0.170000X-0.140000X0*%
%ADD18RoundRect,0.225000X-0.225000X-0.250000X0.225000X-0.250000X0.225000X0.250000X-0.225000X0.250000X0*%
%ADD19RoundRect,0.150000X0.512500X0.150000X-0.512500X0.150000X-0.512500X-0.150000X0.512500X-0.150000X0*%
%ADD20RoundRect,0.135000X-0.185000X0.135000X-0.185000X-0.135000X0.185000X-0.135000X0.185000X0.135000X0*%
G04 APERTURE END LIST*
D10*
%TO.C,J1*%
X35890000Y-33449999D03*
X33350000Y-33449999D03*
X30810000Y-33449999D03*
X28270000Y-33449999D03*
X25730000Y-33449999D03*
X23190000Y-33449999D03*
X20650000Y-33449999D03*
X18110000Y-33449999D03*
%TD*%
D11*
%TO.C,U1*%
X32659999Y-29349999D03*
D12*
X30880000Y-29350000D03*
X29100000Y-29350000D03*
X27320000Y-29350000D03*
X25540000Y-29350000D03*
X23760000Y-29350000D03*
X21980000Y-29350000D03*
X20200000Y-29350000D03*
X19310000Y-18650000D03*
X21090000Y-18650000D03*
X22870000Y-18650000D03*
X24650000Y-18650000D03*
X26430000Y-18650000D03*
X28210000Y-18650000D03*
X29990000Y-18650000D03*
X31770000Y-18650000D03*
%TD*%
D13*
%TO.C,H1*%
X39000001Y-24000001D03*
%TD*%
%TO.C,H2*%
X15000001Y-23999999D03*
%TD*%
D14*
%TO.C,JP1*%
X27949998Y-14850000D03*
X26649998Y-14850000D03*
%TD*%
D15*
%TO.C,C3*%
X27819999Y-30700000D03*
X28779999Y-30700000D03*
%TD*%
%TO.C,C4*%
X36020001Y-13899999D03*
X36980001Y-13899999D03*
%TD*%
D16*
%TO.C,R3*%
X29490000Y-14849998D03*
X30510000Y-14849998D03*
%TD*%
%TO.C,R2*%
X29990001Y-17300000D03*
X31010001Y-17300000D03*
%TD*%
%TO.C,R1*%
X23290003Y-30699999D03*
X24310003Y-30699999D03*
%TD*%
D17*
%TO.C,C1*%
X40200002Y-17179999D03*
X40200002Y-16219999D03*
%TD*%
D18*
%TO.C,C2*%
X30025002Y-30900000D03*
X31575002Y-30900000D03*
%TD*%
D19*
%TO.C,U2*%
X38737501Y-15250000D03*
X38737501Y-16200000D03*
X38737501Y-17150000D03*
X36462501Y-17150000D03*
X36462501Y-15250000D03*
%TD*%
D16*
%TO.C,R4*%
X35989997Y-18500001D03*
X37009997Y-18500001D03*
%TD*%
D20*
%TO.C,R5*%
X34900001Y-16239999D03*
X34900001Y-17259999D03*
%TD*%
M02*
