M48
; DRILL file {KiCad (7.0.0)} date Tue Mar 21 21:12:12 2023
; FORMAT={-:-/ absolute / inch / decimal}
; #@! TF.CreationDate,2023-03-21T21:12:12+00:00
; #@! TF.GenerationSoftware,Kicad,Pcbnew,(7.0.0)
; #@! TF.FileFunction,Plated,1,2,PTH
FMAT,2
INCH
; #@! TA.AperFunction,Plated,PTH,ViaDrill
T1C0.0118
; #@! TA.AperFunction,Plated,PTH,ComponentDrill
T2C0.0276
; #@! TA.AperFunction,Plated,PTH,ComponentDrill
T3C0.0394
%
G90
G05
T1
X0.552Y-1.1719
X0.561Y-1.0603
X0.6544Y-1.2743
X0.6548Y-0.701
X0.6623Y-1.0636
X0.6957Y-0.7014
X0.7225Y-1.2031
X0.8198Y-1.1837
X0.8906Y-1.1837
X0.9488Y-0.626
X0.9654Y-1.2264
X1.0206Y-1.2073
X1.0315Y-0.5551
X1.0315Y-0.622
X1.0698Y-0.6227
X1.1496Y-0.622
X1.2244Y-1.2008
X1.3071Y-0.6969
X1.3394Y-1.2164
X1.365Y-1.1935
X1.3769Y-0.7283
X1.3858Y-0.5709
X1.3926Y-0.6811
X1.4173Y-0.6299
X1.4449Y-0.6811
X1.5236Y-0.8189
X1.5354Y-0.7953
X1.5709Y-0.5394
T2
X0.7504Y-0.7244
X0.7854Y-1.1457
X0.8205Y-0.7244
X0.8555Y-1.1457
X0.8906Y-0.7244
X0.9256Y-1.1457
X0.9606Y-0.7244
X0.9957Y-1.1457
X1.0307Y-0.7244
X1.0657Y-1.1457
X1.1008Y-0.7244
X1.1358Y-1.1457
X1.1709Y-0.7244
X1.2059Y-1.1457
X1.2409Y-0.7244
X1.276Y-1.1457
T3
X0.7031Y-1.3071
X0.8031Y-1.3071
X0.9031Y-1.3071
X1.0031Y-1.3071
X1.1031Y-1.3071
X1.2031Y-1.3071
X1.3031Y-1.3071
X1.4031Y-1.3071
T0
M30
