%TF.GenerationSoftware,KiCad,Pcbnew,(7.0.0)*%
%TF.CreationDate,2023-03-29T09:50:13+01:00*%
%TF.ProjectId,Ogen,4f67656e-2e6b-4696-9361-645f70636258,rev?*%
%TF.SameCoordinates,Original*%
%TF.FileFunction,Soldermask,Top*%
%TF.FilePolarity,Negative*%
%FSLAX46Y46*%
G04 Gerber Fmt 4.6, Leading zero omitted, Abs format (unit mm)*
G04 Created by KiCad (PCBNEW (7.0.0)) date 2023-03-29 09:50:13*
%MOMM*%
%LPD*%
G01*
G04 APERTURE LIST*
%ADD10O,1.500000X1.700000*%
%ADD11R,1.200000X1.200000*%
%ADD12C,1.200000*%
%ADD13C,4.400000*%
G04 APERTURE END LIST*
%TO.C,A1*%
G36*
X15144571Y-15603502D02*
G01*
X15151334Y-15655330D01*
X15103995Y-15764757D01*
X15066667Y-15777334D01*
X14998542Y-15706208D01*
X14982000Y-15603003D01*
X15014593Y-15485933D01*
X15066667Y-15481000D01*
X15144571Y-15603502D01*
G37*
G36*
X15702268Y-15238380D02*
G01*
X15742704Y-15375167D01*
X15689947Y-15435840D01*
X15584149Y-15407486D01*
X15532334Y-15354000D01*
X15521370Y-15212532D01*
X15537920Y-15175628D01*
X15616485Y-15153364D01*
X15702268Y-15238380D01*
G37*
G36*
X16240763Y-14884987D02*
G01*
X16236125Y-14935959D01*
X16128930Y-15064271D01*
X16087959Y-15084125D01*
X16009238Y-15061013D01*
X16013875Y-15010042D01*
X16121071Y-14881730D01*
X16162042Y-14861875D01*
X16240763Y-14884987D01*
G37*
G36*
X16536524Y-14481413D02*
G01*
X16588942Y-14598000D01*
X16534726Y-14673724D01*
X16510997Y-14676667D01*
X16395513Y-14615455D01*
X16382616Y-14597850D01*
X16386662Y-14497350D01*
X16476170Y-14453603D01*
X16536524Y-14481413D01*
G37*
G36*
X18112207Y-14571763D02*
G01*
X18114667Y-14592000D01*
X18050238Y-14674207D01*
X18030000Y-14676667D01*
X17947794Y-14612238D01*
X17945334Y-14592000D01*
X18009763Y-14509794D01*
X18030000Y-14507334D01*
X18112207Y-14571763D01*
G37*
G36*
X21427786Y-14549667D02*
G01*
X21607352Y-14549667D01*
X21614167Y-14723918D01*
X21633353Y-14768892D01*
X21644173Y-14741154D01*
X21659943Y-14537833D01*
X21645882Y-14402487D01*
X21623578Y-14355562D01*
X21609548Y-14457327D01*
X21607352Y-14549667D01*
X21427786Y-14549667D01*
X21423836Y-14465735D01*
X21439570Y-14256932D01*
X21492020Y-14134176D01*
X21529919Y-14095409D01*
X21676517Y-14028212D01*
X21751625Y-14039375D01*
X21807940Y-14159134D01*
X21833321Y-14398315D01*
X21827750Y-14709852D01*
X21791208Y-15046678D01*
X21752083Y-15251526D01*
X21709118Y-15585844D01*
X21756443Y-15800249D01*
X21888204Y-15883191D01*
X22053281Y-15845859D01*
X22226548Y-15740925D01*
X22242146Y-15636726D01*
X22136333Y-15523333D01*
X22020149Y-15358498D01*
X22043488Y-15269862D01*
X22256281Y-15269862D01*
X22293466Y-15424096D01*
X22399704Y-15587832D01*
X22550273Y-15759667D01*
X22665139Y-15855098D01*
X22686667Y-15862000D01*
X22779723Y-15801072D01*
X22924011Y-15648903D01*
X22973629Y-15587832D01*
X23099821Y-15378608D01*
X23108793Y-15245254D01*
X23008315Y-15210924D01*
X22865090Y-15264469D01*
X22656958Y-15315975D01*
X22508244Y-15264469D01*
X22330464Y-15208936D01*
X22256281Y-15269862D01*
X22043488Y-15269862D01*
X22066866Y-15181076D01*
X22178667Y-15057667D01*
X22311786Y-14954832D01*
X22412200Y-14970256D01*
X22517334Y-15057667D01*
X22649704Y-15159982D01*
X22749981Y-15145373D01*
X22858988Y-15054963D01*
X22988037Y-14953891D01*
X23084155Y-14964389D01*
X23213534Y-15081237D01*
X23334094Y-15229790D01*
X23335534Y-15361869D01*
X23285226Y-15469991D01*
X23223370Y-15675931D01*
X23267169Y-15821178D01*
X23368997Y-15862000D01*
X23413030Y-15785530D01*
X23441964Y-15588650D01*
X23448667Y-15406148D01*
X23448667Y-14950297D01*
X23837768Y-14963394D01*
X24159400Y-15010598D01*
X24336728Y-15126731D01*
X24412010Y-15290687D01*
X24477088Y-15531720D01*
X24521135Y-15788571D01*
X24533326Y-15999978D01*
X24508748Y-16100141D01*
X24430001Y-16096056D01*
X24353521Y-15972887D01*
X24303796Y-15779421D01*
X24296630Y-15677548D01*
X24237035Y-15438277D01*
X24091223Y-15254746D01*
X23911265Y-15184667D01*
X23771689Y-15260333D01*
X23664116Y-15451367D01*
X23618153Y-15703819D01*
X23618000Y-15719067D01*
X23568124Y-15923754D01*
X23489412Y-16032652D01*
X23367750Y-16090690D01*
X23235998Y-16024758D01*
X23193079Y-15987563D01*
X23060444Y-15885692D01*
X22959623Y-15902573D01*
X22857588Y-15987563D01*
X22713327Y-16086382D01*
X22596799Y-16059549D01*
X22558509Y-16030373D01*
X22439708Y-15969203D01*
X22275430Y-15979315D01*
X22081271Y-16035535D01*
X21855526Y-16100160D01*
X21729206Y-16097860D01*
X21645074Y-16025983D01*
X21636844Y-16014957D01*
X21544876Y-15929348D01*
X21423162Y-15945188D01*
X21315697Y-15996866D01*
X21086348Y-16065083D01*
X20772346Y-16094719D01*
X20642112Y-16093154D01*
X20372367Y-16070762D01*
X20229664Y-16023793D01*
X20171893Y-15935520D01*
X20165613Y-15903898D01*
X20108042Y-15588986D01*
X20050528Y-15424630D01*
X19986047Y-15392204D01*
X19974851Y-15397868D01*
X19922340Y-15507816D01*
X19894179Y-15717716D01*
X19892667Y-15782330D01*
X19873626Y-15992551D01*
X19826141Y-16108238D01*
X19808000Y-16116000D01*
X19754658Y-16040962D01*
X19725303Y-15853822D01*
X19723334Y-15782330D01*
X19704246Y-15557336D01*
X19656834Y-15413700D01*
X19641149Y-15397868D01*
X19574675Y-15411713D01*
X19516331Y-15555473D01*
X19459230Y-15847438D01*
X19450469Y-15904334D01*
X19404919Y-16009861D01*
X19280357Y-16066099D01*
X19033420Y-16091544D01*
X19008806Y-16092724D01*
X18740502Y-16084935D01*
X18532837Y-16043511D01*
X18474181Y-16013502D01*
X18356383Y-15963052D01*
X18281073Y-16036070D01*
X18183832Y-16108669D01*
X18090389Y-16031312D01*
X18012687Y-15823182D01*
X17973834Y-15583219D01*
X18406585Y-15583219D01*
X18447664Y-15682073D01*
X18591830Y-15836811D01*
X18750439Y-15833794D01*
X18873688Y-15698233D01*
X18950868Y-15463295D01*
X18943033Y-15251053D01*
X18867863Y-15136892D01*
X18752338Y-15152119D01*
X18590080Y-15264623D01*
X18562881Y-15290635D01*
X18426215Y-15453521D01*
X18406585Y-15583219D01*
X17973834Y-15583219D01*
X17964945Y-15528317D01*
X17928301Y-15268025D01*
X17871232Y-15138264D01*
X17775465Y-15100249D01*
X17763133Y-15100000D01*
X17610625Y-15177744D01*
X17497153Y-15385950D01*
X17440560Y-15687078D01*
X17437334Y-15785503D01*
X17388962Y-16009962D01*
X17267909Y-16111005D01*
X17110262Y-16094990D01*
X16952114Y-15968278D01*
X16829553Y-15737230D01*
X16811500Y-15675207D01*
X16735999Y-15378001D01*
X16401838Y-15712163D01*
X15928123Y-16087980D01*
X15411724Y-16303982D01*
X14885547Y-16368141D01*
X14533991Y-16345384D01*
X14294583Y-16265674D01*
X14208213Y-16206677D01*
X14098566Y-16080662D01*
X14245766Y-16080662D01*
X14388948Y-16171444D01*
X14410500Y-16181998D01*
X14788365Y-16272692D01*
X15252763Y-16226205D01*
X15515371Y-16151015D01*
X15860489Y-15977970D01*
X16217560Y-15708210D01*
X16544080Y-15383606D01*
X16797549Y-15046029D01*
X16930549Y-14756818D01*
X16992872Y-14413797D01*
X16985838Y-14137810D01*
X16912554Y-13966227D01*
X16862141Y-13934076D01*
X16790229Y-13954674D01*
X16804743Y-14105790D01*
X16804966Y-14106677D01*
X16813050Y-14413623D01*
X16721583Y-14774221D01*
X16551509Y-15123147D01*
X16423600Y-15296150D01*
X16204580Y-15498579D01*
X15914027Y-15709359D01*
X15742298Y-15812422D01*
X15465941Y-15947838D01*
X15229736Y-16012935D01*
X14951434Y-16024770D01*
X14762801Y-16015538D01*
X14428911Y-16004495D01*
X14257826Y-16025608D01*
X14245766Y-16080662D01*
X14098566Y-16080662D01*
X14075963Y-16054685D01*
X14093000Y-15959320D01*
X14164503Y-15895418D01*
X14450973Y-15895418D01*
X14603638Y-15948654D01*
X14861367Y-15948003D01*
X15171162Y-15900323D01*
X15480027Y-15812472D01*
X15648603Y-15740438D01*
X16083578Y-15452609D01*
X16427958Y-15090038D01*
X16645980Y-14692105D01*
X16670243Y-14615481D01*
X16745231Y-14294934D01*
X16750360Y-14121564D01*
X16709424Y-14084000D01*
X16626433Y-14133339D01*
X16440332Y-14267060D01*
X16180202Y-14463719D01*
X15926257Y-14661471D01*
X15576564Y-14936134D01*
X15228625Y-15207749D01*
X14932437Y-15437359D01*
X14796695Y-15541555D01*
X14593972Y-15709940D01*
X14470435Y-15840067D01*
X14450973Y-15895418D01*
X14164503Y-15895418D01*
X14257845Y-15811999D01*
X14515143Y-15601378D01*
X14840093Y-15345897D01*
X15207893Y-15063996D01*
X15593744Y-14774116D01*
X15972844Y-14494697D01*
X16320391Y-14244179D01*
X16611585Y-14041001D01*
X16821624Y-13903604D01*
X16925707Y-13850429D01*
X16929334Y-13850454D01*
X17039602Y-13953341D01*
X17085113Y-14203094D01*
X17065153Y-14589819D01*
X17009031Y-14951848D01*
X16954389Y-15306257D01*
X16949821Y-15548069D01*
X16994814Y-15726290D01*
X17000777Y-15739789D01*
X17101490Y-15893728D01*
X17183617Y-15887947D01*
X17240891Y-15731609D01*
X17267045Y-15433879D01*
X17268000Y-15349003D01*
X17280967Y-15080458D01*
X17314780Y-14898612D01*
X17352667Y-14846000D01*
X17434893Y-14908485D01*
X17437334Y-14928010D01*
X17499193Y-14983503D01*
X17543167Y-14977415D01*
X17836469Y-14894795D01*
X18006888Y-14882577D01*
X18091289Y-14955000D01*
X18126536Y-15126301D01*
X18133544Y-15205447D01*
X18153716Y-15425686D01*
X18177562Y-15493646D01*
X18222109Y-15425853D01*
X18263731Y-15331793D01*
X18420294Y-15112495D01*
X18635176Y-14976674D01*
X18854337Y-14951546D01*
X18946742Y-14987781D01*
X19045859Y-15123305D01*
X19086336Y-15382524D01*
X19088334Y-15484145D01*
X19109955Y-15758178D01*
X19169449Y-15909045D01*
X19194167Y-15925500D01*
X19259178Y-15892589D01*
X19292691Y-15726126D01*
X19300000Y-15493052D01*
X19321630Y-15161861D01*
X19389452Y-14989261D01*
X19507863Y-14969748D01*
X19644002Y-15062495D01*
X19775523Y-15162052D01*
X19877406Y-15141636D01*
X19971998Y-15062495D01*
X20135782Y-14962169D01*
X20246343Y-15012029D01*
X20308251Y-15217278D01*
X20325277Y-15464830D01*
X20334553Y-15904334D01*
X20407070Y-15535471D01*
X20442296Y-15409679D01*
X20654667Y-15409679D01*
X20688144Y-15485244D01*
X20813119Y-15444468D01*
X20819285Y-15441190D01*
X20973710Y-15336459D01*
X21032333Y-15274729D01*
X21020639Y-15166861D01*
X20991006Y-15140895D01*
X20858814Y-15141999D01*
X20724584Y-15244050D01*
X20655423Y-15393420D01*
X20654667Y-15409679D01*
X20442296Y-15409679D01*
X20501858Y-15196980D01*
X20633098Y-15003632D01*
X20818082Y-14932326D01*
X20859767Y-14930667D01*
X21102977Y-14985052D01*
X21223226Y-15124047D01*
X21216162Y-15311413D01*
X21077437Y-15510907D01*
X20941748Y-15613718D01*
X20759222Y-15738119D01*
X20708851Y-15816298D01*
X20771647Y-15878392D01*
X20774123Y-15879787D01*
X20998637Y-15919558D01*
X21217286Y-15814388D01*
X21365922Y-15623167D01*
X21436136Y-15380722D01*
X21450920Y-15018423D01*
X21439622Y-14801198D01*
X21427786Y-14549667D01*
G37*
%TD*%
D10*
%TO.C,J1*%
X35890000Y-33449999D03*
X33350000Y-33449999D03*
X30810000Y-33449999D03*
X28270000Y-33449999D03*
X25730000Y-33449999D03*
X23190000Y-33449999D03*
X20650000Y-33449999D03*
X18110000Y-33449999D03*
%TD*%
D11*
%TO.C,U1*%
X32659999Y-29349999D03*
D12*
X30880000Y-29350000D03*
X29100000Y-29350000D03*
X27320000Y-29350000D03*
X25540000Y-29350000D03*
X23760000Y-29350000D03*
X21980000Y-29350000D03*
X20200000Y-29350000D03*
X19310000Y-18650000D03*
X21090000Y-18650000D03*
X22870000Y-18650000D03*
X24650000Y-18650000D03*
X26430000Y-18650000D03*
X28210000Y-18650000D03*
X29990000Y-18650000D03*
X31770000Y-18650000D03*
%TD*%
D13*
%TO.C,H1*%
X39000001Y-24000001D03*
%TD*%
%TO.C,H2*%
X15000001Y-23999999D03*
%TD*%
M02*
