%TF.GenerationSoftware,KiCad,Pcbnew,(7.0.0)*%
%TF.CreationDate,2023-03-21T01:36:38+00:00*%
%TF.ProjectId,Ogen,4f67656e-2e6b-4696-9361-645f70636258,rev?*%
%TF.SameCoordinates,Original*%
%TF.FileFunction,Soldermask,Top*%
%TF.FilePolarity,Negative*%
%FSLAX46Y46*%
G04 Gerber Fmt 4.6, Leading zero omitted, Abs format (unit mm)*
G04 Created by KiCad (PCBNEW (7.0.0)) date 2023-03-21 01:36:38*
%MOMM*%
%LPD*%
G01*
G04 APERTURE LIST*
%ADD10O,1.500000X1.700000*%
%ADD11R,1.200000X1.200000*%
%ADD12C,1.200000*%
%ADD13C,4.400000*%
G04 APERTURE END LIST*
%TO.C,A1*%
G36*
X22082573Y-15571505D02*
G01*
X22089336Y-15623333D01*
X22041997Y-15732760D01*
X22004669Y-15745337D01*
X21936544Y-15674211D01*
X21920002Y-15571006D01*
X21952595Y-15453936D01*
X22004669Y-15449003D01*
X22082573Y-15571505D01*
G37*
G36*
X22640270Y-15206383D02*
G01*
X22680706Y-15343170D01*
X22627949Y-15403843D01*
X22522151Y-15375489D01*
X22470336Y-15322003D01*
X22459372Y-15180535D01*
X22475922Y-15143631D01*
X22554487Y-15121367D01*
X22640270Y-15206383D01*
G37*
G36*
X23178765Y-14852990D02*
G01*
X23174127Y-14903962D01*
X23066932Y-15032274D01*
X23025961Y-15052128D01*
X22947240Y-15029016D01*
X22951877Y-14978045D01*
X23059073Y-14849733D01*
X23100044Y-14829878D01*
X23178765Y-14852990D01*
G37*
G36*
X23474526Y-14449416D02*
G01*
X23526944Y-14566003D01*
X23472728Y-14641727D01*
X23448999Y-14644670D01*
X23333515Y-14583458D01*
X23320618Y-14565853D01*
X23324664Y-14465353D01*
X23414172Y-14421606D01*
X23474526Y-14449416D01*
G37*
G36*
X25050209Y-14539766D02*
G01*
X25052669Y-14560003D01*
X24988240Y-14642210D01*
X24968002Y-14644670D01*
X24885796Y-14580241D01*
X24883336Y-14560003D01*
X24947765Y-14477797D01*
X24968002Y-14475337D01*
X25050209Y-14539766D01*
G37*
G36*
X28365788Y-14517670D02*
G01*
X28545354Y-14517670D01*
X28552169Y-14691921D01*
X28571355Y-14736895D01*
X28582175Y-14709157D01*
X28597945Y-14505836D01*
X28583884Y-14370490D01*
X28561580Y-14323565D01*
X28547550Y-14425330D01*
X28545354Y-14517670D01*
X28365788Y-14517670D01*
X28361838Y-14433738D01*
X28377572Y-14224935D01*
X28430022Y-14102179D01*
X28467921Y-14063412D01*
X28614519Y-13996215D01*
X28689627Y-14007378D01*
X28745942Y-14127137D01*
X28771323Y-14366318D01*
X28765752Y-14677855D01*
X28729210Y-15014681D01*
X28690085Y-15219529D01*
X28647120Y-15553847D01*
X28694445Y-15768252D01*
X28826206Y-15851194D01*
X28991283Y-15813862D01*
X29164550Y-15708928D01*
X29180148Y-15604729D01*
X29074335Y-15491336D01*
X28958151Y-15326501D01*
X28981490Y-15237865D01*
X29194283Y-15237865D01*
X29231468Y-15392099D01*
X29337706Y-15555835D01*
X29488275Y-15727670D01*
X29603141Y-15823101D01*
X29624669Y-15830003D01*
X29717725Y-15769075D01*
X29862013Y-15616906D01*
X29911631Y-15555835D01*
X30037823Y-15346611D01*
X30046795Y-15213257D01*
X29946317Y-15178927D01*
X29803092Y-15232472D01*
X29594960Y-15283978D01*
X29446246Y-15232472D01*
X29268466Y-15176939D01*
X29194283Y-15237865D01*
X28981490Y-15237865D01*
X29004868Y-15149079D01*
X29116669Y-15025670D01*
X29249788Y-14922835D01*
X29350202Y-14938259D01*
X29455336Y-15025670D01*
X29587706Y-15127985D01*
X29687983Y-15113376D01*
X29796990Y-15022966D01*
X29926039Y-14921894D01*
X30022157Y-14932392D01*
X30151536Y-15049240D01*
X30272096Y-15197793D01*
X30273536Y-15329872D01*
X30223228Y-15437994D01*
X30161372Y-15643934D01*
X30205171Y-15789181D01*
X30306999Y-15830003D01*
X30351032Y-15753533D01*
X30379966Y-15556653D01*
X30386669Y-15374151D01*
X30386669Y-14918300D01*
X30775770Y-14931397D01*
X31097402Y-14978601D01*
X31274730Y-15094734D01*
X31350012Y-15258690D01*
X31415090Y-15499723D01*
X31459137Y-15756574D01*
X31471328Y-15967981D01*
X31446750Y-16068144D01*
X31368003Y-16064059D01*
X31291523Y-15940890D01*
X31241798Y-15747424D01*
X31234632Y-15645551D01*
X31175037Y-15406280D01*
X31029225Y-15222749D01*
X30849267Y-15152670D01*
X30709691Y-15228336D01*
X30602118Y-15419370D01*
X30556155Y-15671822D01*
X30556002Y-15687070D01*
X30506126Y-15891757D01*
X30427414Y-16000655D01*
X30305752Y-16058693D01*
X30174000Y-15992761D01*
X30131081Y-15955566D01*
X29998446Y-15853695D01*
X29897625Y-15870576D01*
X29795590Y-15955566D01*
X29651329Y-16054385D01*
X29534801Y-16027552D01*
X29496511Y-15998376D01*
X29377710Y-15937206D01*
X29213432Y-15947318D01*
X29019273Y-16003538D01*
X28793528Y-16068163D01*
X28667208Y-16065863D01*
X28583076Y-15993986D01*
X28574846Y-15982960D01*
X28482878Y-15897351D01*
X28361164Y-15913191D01*
X28253699Y-15964869D01*
X28024350Y-16033086D01*
X27710348Y-16062722D01*
X27580114Y-16061157D01*
X27310369Y-16038765D01*
X27167666Y-15991796D01*
X27109895Y-15903523D01*
X27103615Y-15871901D01*
X27046044Y-15556989D01*
X26988530Y-15392633D01*
X26924049Y-15360207D01*
X26912853Y-15365871D01*
X26860342Y-15475819D01*
X26832181Y-15685719D01*
X26830669Y-15750333D01*
X26811628Y-15960554D01*
X26764143Y-16076241D01*
X26746002Y-16084003D01*
X26692660Y-16008965D01*
X26663305Y-15821825D01*
X26661336Y-15750333D01*
X26642248Y-15525339D01*
X26594836Y-15381703D01*
X26579151Y-15365871D01*
X26512677Y-15379716D01*
X26454333Y-15523476D01*
X26397232Y-15815441D01*
X26388471Y-15872337D01*
X26342921Y-15977864D01*
X26218359Y-16034102D01*
X25971422Y-16059547D01*
X25946808Y-16060727D01*
X25678504Y-16052938D01*
X25470839Y-16011514D01*
X25412183Y-15981505D01*
X25294385Y-15931055D01*
X25219075Y-16004073D01*
X25121834Y-16076672D01*
X25028391Y-15999315D01*
X24950689Y-15791185D01*
X24911836Y-15551222D01*
X25344587Y-15551222D01*
X25385666Y-15650076D01*
X25529832Y-15804814D01*
X25688441Y-15801797D01*
X25811690Y-15666236D01*
X25888870Y-15431298D01*
X25881035Y-15219056D01*
X25805865Y-15104895D01*
X25690340Y-15120122D01*
X25528082Y-15232626D01*
X25500883Y-15258638D01*
X25364217Y-15421524D01*
X25344587Y-15551222D01*
X24911836Y-15551222D01*
X24902947Y-15496320D01*
X24866303Y-15236028D01*
X24809234Y-15106267D01*
X24713467Y-15068252D01*
X24701135Y-15068003D01*
X24548627Y-15145747D01*
X24435155Y-15353953D01*
X24378562Y-15655081D01*
X24375336Y-15753506D01*
X24326964Y-15977965D01*
X24205911Y-16079008D01*
X24048264Y-16062993D01*
X23890116Y-15936281D01*
X23767555Y-15705233D01*
X23749502Y-15643210D01*
X23674001Y-15346004D01*
X23339840Y-15680166D01*
X22866125Y-16055983D01*
X22349726Y-16271985D01*
X21823549Y-16336144D01*
X21471993Y-16313387D01*
X21232585Y-16233677D01*
X21146215Y-16174680D01*
X21036568Y-16048665D01*
X21183768Y-16048665D01*
X21326950Y-16139447D01*
X21348502Y-16150001D01*
X21726367Y-16240695D01*
X22190765Y-16194208D01*
X22453373Y-16119018D01*
X22798491Y-15945973D01*
X23155562Y-15676213D01*
X23482082Y-15351609D01*
X23735551Y-15014032D01*
X23868551Y-14724821D01*
X23930874Y-14381800D01*
X23923840Y-14105813D01*
X23850556Y-13934230D01*
X23800143Y-13902079D01*
X23728231Y-13922677D01*
X23742745Y-14073793D01*
X23742968Y-14074680D01*
X23751052Y-14381626D01*
X23659585Y-14742224D01*
X23489511Y-15091150D01*
X23361602Y-15264153D01*
X23142582Y-15466582D01*
X22852029Y-15677362D01*
X22680300Y-15780425D01*
X22403943Y-15915841D01*
X22167738Y-15980938D01*
X21889436Y-15992773D01*
X21700803Y-15983541D01*
X21366913Y-15972498D01*
X21195828Y-15993611D01*
X21183768Y-16048665D01*
X21036568Y-16048665D01*
X21013965Y-16022688D01*
X21031002Y-15927323D01*
X21102505Y-15863421D01*
X21388975Y-15863421D01*
X21541640Y-15916657D01*
X21799369Y-15916006D01*
X22109164Y-15868326D01*
X22418029Y-15780475D01*
X22586605Y-15708441D01*
X23021580Y-15420612D01*
X23365960Y-15058041D01*
X23583982Y-14660108D01*
X23608245Y-14583484D01*
X23683233Y-14262937D01*
X23688362Y-14089567D01*
X23647426Y-14052003D01*
X23564435Y-14101342D01*
X23378334Y-14235063D01*
X23118204Y-14431722D01*
X22864259Y-14629474D01*
X22514566Y-14904137D01*
X22166627Y-15175752D01*
X21870439Y-15405362D01*
X21734697Y-15509558D01*
X21531974Y-15677943D01*
X21408437Y-15808070D01*
X21388975Y-15863421D01*
X21102505Y-15863421D01*
X21195847Y-15780002D01*
X21453145Y-15569381D01*
X21778095Y-15313900D01*
X22145895Y-15031999D01*
X22531746Y-14742119D01*
X22910846Y-14462700D01*
X23258393Y-14212182D01*
X23549587Y-14009004D01*
X23759626Y-13871607D01*
X23863709Y-13818432D01*
X23867336Y-13818457D01*
X23977604Y-13921344D01*
X24023115Y-14171097D01*
X24003155Y-14557822D01*
X23947033Y-14919851D01*
X23892391Y-15274260D01*
X23887823Y-15516072D01*
X23932816Y-15694293D01*
X23938779Y-15707792D01*
X24039492Y-15861731D01*
X24121619Y-15855950D01*
X24178893Y-15699612D01*
X24205047Y-15401882D01*
X24206002Y-15317006D01*
X24218969Y-15048461D01*
X24252782Y-14866615D01*
X24290669Y-14814003D01*
X24372895Y-14876488D01*
X24375336Y-14896013D01*
X24437195Y-14951506D01*
X24481169Y-14945418D01*
X24774471Y-14862798D01*
X24944890Y-14850580D01*
X25029291Y-14923003D01*
X25064538Y-15094304D01*
X25071546Y-15173450D01*
X25091718Y-15393689D01*
X25115564Y-15461649D01*
X25160111Y-15393856D01*
X25201733Y-15299796D01*
X25358296Y-15080498D01*
X25573178Y-14944677D01*
X25792339Y-14919549D01*
X25884744Y-14955784D01*
X25983861Y-15091308D01*
X26024338Y-15350527D01*
X26026336Y-15452148D01*
X26047957Y-15726181D01*
X26107451Y-15877048D01*
X26132169Y-15893503D01*
X26197180Y-15860592D01*
X26230693Y-15694129D01*
X26238002Y-15461055D01*
X26259632Y-15129864D01*
X26327454Y-14957264D01*
X26445865Y-14937751D01*
X26582004Y-15030498D01*
X26713525Y-15130055D01*
X26815408Y-15109639D01*
X26910000Y-15030498D01*
X27073784Y-14930172D01*
X27184345Y-14980032D01*
X27246253Y-15185281D01*
X27263279Y-15432833D01*
X27272555Y-15872337D01*
X27345072Y-15503474D01*
X27380298Y-15377682D01*
X27592669Y-15377682D01*
X27626146Y-15453247D01*
X27751121Y-15412471D01*
X27757287Y-15409193D01*
X27911712Y-15304462D01*
X27970335Y-15242732D01*
X27958641Y-15134864D01*
X27929008Y-15108898D01*
X27796816Y-15110002D01*
X27662586Y-15212053D01*
X27593425Y-15361423D01*
X27592669Y-15377682D01*
X27380298Y-15377682D01*
X27439860Y-15164983D01*
X27571100Y-14971635D01*
X27756084Y-14900329D01*
X27797769Y-14898670D01*
X28040979Y-14953055D01*
X28161228Y-15092050D01*
X28154164Y-15279416D01*
X28015439Y-15478910D01*
X27879750Y-15581721D01*
X27697224Y-15706122D01*
X27646853Y-15784301D01*
X27709649Y-15846395D01*
X27712125Y-15847790D01*
X27936639Y-15887561D01*
X28155288Y-15782391D01*
X28303924Y-15591170D01*
X28374138Y-15348725D01*
X28388922Y-14986426D01*
X28377624Y-14769201D01*
X28365788Y-14517670D01*
G37*
%TD*%
D10*
%TO.C,J1*%
X35890000Y-33449999D03*
X33350000Y-33449999D03*
X30810000Y-33449999D03*
X28270000Y-33449999D03*
X25730000Y-33449999D03*
X23190000Y-33449999D03*
X20650000Y-33449999D03*
X18110000Y-33449999D03*
%TD*%
D11*
%TO.C,U1*%
X32659999Y-29349999D03*
D12*
X30880000Y-29350000D03*
X29100000Y-29350000D03*
X27320000Y-29350000D03*
X25540000Y-29350000D03*
X23760000Y-29350000D03*
X21980000Y-29350000D03*
X20200000Y-29350000D03*
X19310000Y-18650000D03*
X21090000Y-18650000D03*
X22870000Y-18650000D03*
X24650000Y-18650000D03*
X26430000Y-18650000D03*
X28210000Y-18650000D03*
X29990000Y-18650000D03*
X31770000Y-18650000D03*
%TD*%
D13*
%TO.C,H1*%
X39000001Y-24000001D03*
%TD*%
%TO.C,H2*%
X15000001Y-23999999D03*
%TD*%
M02*
