%TF.GenerationSoftware,KiCad,Pcbnew,(7.0.0)*%
%TF.CreationDate,2023-03-29T09:56:29+01:00*%
%TF.ProjectId,Ogen,4f67656e-2e6b-4696-9361-645f70636258,rev?*%
%TF.SameCoordinates,Original*%
%TF.FileFunction,Paste,Bot*%
%TF.FilePolarity,Positive*%
%FSLAX46Y46*%
G04 Gerber Fmt 4.6, Leading zero omitted, Abs format (unit mm)*
G04 Created by KiCad (PCBNEW (7.0.0)) date 2023-03-29 09:56:29*
%MOMM*%
%LPD*%
G01*
G04 APERTURE LIST*
G04 Aperture macros list*
%AMRoundRect*
0 Rectangle with rounded corners*
0 $1 Rounding radius*
0 $2 $3 $4 $5 $6 $7 $8 $9 X,Y pos of 4 corners*
0 Add a 4 corners polygon primitive as box body*
4,1,4,$2,$3,$4,$5,$6,$7,$8,$9,$2,$3,0*
0 Add four circle primitives for the rounded corners*
1,1,$1+$1,$2,$3*
1,1,$1+$1,$4,$5*
1,1,$1+$1,$6,$7*
1,1,$1+$1,$8,$9*
0 Add four rect primitives between the rounded corners*
20,1,$1+$1,$2,$3,$4,$5,0*
20,1,$1+$1,$4,$5,$6,$7,0*
20,1,$1+$1,$6,$7,$8,$9,0*
20,1,$1+$1,$8,$9,$2,$3,0*%
G04 Aperture macros list end*
%ADD10R,0.800000X0.300000*%
%ADD11RoundRect,0.225000X0.225000X0.250000X-0.225000X0.250000X-0.225000X-0.250000X0.225000X-0.250000X0*%
%ADD12R,0.300000X0.800000*%
%ADD13RoundRect,0.140000X-0.140000X-0.170000X0.140000X-0.170000X0.140000X0.170000X-0.140000X0.170000X0*%
%ADD14RoundRect,0.135000X0.135000X0.185000X-0.135000X0.185000X-0.135000X-0.185000X0.135000X-0.185000X0*%
%ADD15RoundRect,0.140000X0.140000X0.170000X-0.140000X0.170000X-0.140000X-0.170000X0.140000X-0.170000X0*%
%ADD16RoundRect,0.135000X0.185000X-0.135000X0.185000X0.135000X-0.185000X0.135000X-0.185000X-0.135000X0*%
%ADD17RoundRect,0.150000X0.150000X-0.512500X0.150000X0.512500X-0.150000X0.512500X-0.150000X-0.512500X0*%
%ADD18RoundRect,0.140000X0.170000X-0.140000X0.170000X0.140000X-0.170000X0.140000X-0.170000X-0.140000X0*%
G04 APERTURE END LIST*
D10*
%TO.C,U4*%
X23299999Y-15499999D03*
X23299999Y-15999999D03*
X23299999Y-16499999D03*
X23299999Y-16999999D03*
X20199999Y-16999999D03*
X20199999Y-16499999D03*
X20199999Y-15999999D03*
X20199999Y-15499999D03*
%TD*%
D11*
%TO.C,C1*%
X28247000Y-30666000D03*
X26697000Y-30666000D03*
%TD*%
D12*
%TO.C,U3*%
X13749999Y-27615999D03*
X14249999Y-27615999D03*
X14749999Y-27615999D03*
X15249999Y-27615999D03*
X15249999Y-30715999D03*
X14749999Y-30715999D03*
X14249999Y-30715999D03*
X13749999Y-30715999D03*
%TD*%
D13*
%TO.C,C3*%
X37120000Y-20684000D03*
X38080000Y-20684000D03*
%TD*%
D14*
%TO.C,R2*%
X17532000Y-14400000D03*
X16512000Y-14400000D03*
%TD*%
D15*
%TO.C,C2*%
X30480000Y-30500000D03*
X29520000Y-30500000D03*
%TD*%
D14*
%TO.C,R4*%
X36810000Y-15300000D03*
X35790000Y-15300000D03*
%TD*%
D16*
%TO.C,R3*%
X30300000Y-17160000D03*
X30300000Y-16140000D03*
%TD*%
D17*
%TO.C,U2*%
X39772000Y-19137500D03*
X38822000Y-19137500D03*
X37872000Y-19137500D03*
X37872000Y-16862500D03*
X39772000Y-16862500D03*
%TD*%
D10*
%TO.C,U5*%
X28049999Y-15499999D03*
X28049999Y-15999999D03*
X28049999Y-16499999D03*
X28049999Y-16999999D03*
X24949999Y-16999999D03*
X24949999Y-16499999D03*
X24949999Y-15999999D03*
X24949999Y-15499999D03*
%TD*%
D14*
%TO.C,R5*%
X38810000Y-15300000D03*
X37790000Y-15300000D03*
%TD*%
D18*
%TO.C,C4*%
X39900000Y-15280000D03*
X39900000Y-14320000D03*
%TD*%
D16*
%TO.C,R1*%
X16700000Y-29676000D03*
X16700000Y-28656000D03*
%TD*%
M02*
