%TF.GenerationSoftware,KiCad,Pcbnew,(5.1.6)-1*%
%TF.CreationDate,2020-10-04T19:05:28+08:00*%
%TF.ProjectId,Ogen,4f67656e-2e6b-4696-9361-645f70636258,rev?*%
%TF.SameCoordinates,Original*%
%TF.FileFunction,Soldermask,Top*%
%TF.FilePolarity,Negative*%
%FSLAX46Y46*%
G04 Gerber Fmt 4.6, Leading zero omitted, Abs format (unit mm)*
G04 Created by KiCad (PCBNEW (5.1.6)-1) date 2020-10-04 19:05:28*
%MOMM*%
%LPD*%
G01*
G04 APERTURE LIST*
%ADD10C,2.300000*%
%ADD11O,1.800000X1.800000*%
%ADD12R,1.800000X1.800000*%
%ADD13R,0.750000X0.500000*%
%ADD14C,1.500000*%
%ADD15R,1.500000X1.500000*%
%ADD16R,1.160000X0.750000*%
%ADD17R,1.600000X1.100000*%
G04 APERTURE END LIST*
D10*
%TO.C,REF\u002A\u002A*%
X35000001Y-41999998D03*
%TD*%
%TO.C,REF\u002A\u002A*%
X34999999Y-18000002D03*
%TD*%
D11*
%TO.C,J1*%
X44450000Y-21110000D03*
X44450000Y-23650000D03*
X44450000Y-26190000D03*
X44450000Y-28730000D03*
X44450000Y-31270000D03*
X44450000Y-33810000D03*
X44450000Y-36350000D03*
D12*
X44450000Y-38890000D03*
%TD*%
%TO.C,R2*%
G36*
G01*
X30100001Y-17581252D02*
X30100001Y-17018752D01*
G75*
G02*
X30343751Y-16775002I243750J0D01*
G01*
X30831251Y-16775002D01*
G75*
G02*
X31075001Y-17018752I0J-243750D01*
G01*
X31075001Y-17581252D01*
G75*
G02*
X30831251Y-17825002I-243750J0D01*
G01*
X30343751Y-17825002D01*
G75*
G02*
X30100001Y-17581252I0J243750D01*
G01*
G37*
G36*
G01*
X28525001Y-17581252D02*
X28525001Y-17018752D01*
G75*
G02*
X28768751Y-16775002I243750J0D01*
G01*
X29256251Y-16775002D01*
G75*
G02*
X29500001Y-17018752I0J-243750D01*
G01*
X29500001Y-17581252D01*
G75*
G02*
X29256251Y-17825002I-243750J0D01*
G01*
X28768751Y-17825002D01*
G75*
G02*
X28525001Y-17581252I0J243750D01*
G01*
G37*
%TD*%
D13*
%TO.C,U3*%
X25250001Y-32650002D03*
X25250001Y-33950002D03*
X27150001Y-33300002D03*
X25250001Y-33300002D03*
X27150001Y-33950002D03*
X27150001Y-32650002D03*
%TD*%
D14*
%TO.C,U2*%
X29650000Y-22310000D03*
D15*
X40350000Y-35660000D03*
D14*
X29650000Y-24090000D03*
X40350000Y-33880000D03*
X29650000Y-25870000D03*
X40350000Y-32100000D03*
X29650000Y-27650000D03*
X40350000Y-30320000D03*
X29650000Y-29430000D03*
X40350000Y-28540000D03*
X29650000Y-31210000D03*
X40350000Y-26760000D03*
X29650000Y-32990000D03*
X40350000Y-24980000D03*
X29650000Y-34770000D03*
X40350000Y-23200000D03*
%TD*%
%TO.C,R3*%
G36*
G01*
X28449997Y-39831252D02*
X28449997Y-39268752D01*
G75*
G02*
X28693747Y-39025002I243750J0D01*
G01*
X29181247Y-39025002D01*
G75*
G02*
X29424997Y-39268752I0J-243750D01*
G01*
X29424997Y-39831252D01*
G75*
G02*
X29181247Y-40075002I-243750J0D01*
G01*
X28693747Y-40075002D01*
G75*
G02*
X28449997Y-39831252I0J243750D01*
G01*
G37*
G36*
G01*
X26874997Y-39831252D02*
X26874997Y-39268752D01*
G75*
G02*
X27118747Y-39025002I243750J0D01*
G01*
X27606247Y-39025002D01*
G75*
G02*
X27849997Y-39268752I0J-243750D01*
G01*
X27849997Y-39831252D01*
G75*
G02*
X27606247Y-40075002I-243750J0D01*
G01*
X27118747Y-40075002D01*
G75*
G02*
X26874997Y-39831252I0J243750D01*
G01*
G37*
%TD*%
D16*
%TO.C,U1*%
X39650000Y-42250001D03*
X39650000Y-40350001D03*
X41850000Y-40350001D03*
X41850000Y-41300001D03*
X41850000Y-42250001D03*
%TD*%
D13*
%TO.C,U7*%
X25250000Y-20650000D03*
X25250000Y-21950000D03*
X27150000Y-21300000D03*
X25250000Y-21300000D03*
X27150000Y-21950000D03*
X27150000Y-20650000D03*
%TD*%
%TO.C,U6*%
X25249999Y-23650000D03*
X25249999Y-24950000D03*
X27149999Y-24300000D03*
X25249999Y-24300000D03*
X27149999Y-24950000D03*
X27149999Y-23650000D03*
%TD*%
%TO.C,U5*%
X25250000Y-26650000D03*
X25250000Y-27950000D03*
X27150000Y-27300000D03*
X25250000Y-27300000D03*
X27150000Y-27950000D03*
X27150000Y-26650000D03*
%TD*%
%TO.C,U4*%
X25250001Y-29649999D03*
X25250001Y-30949999D03*
X27150001Y-30299999D03*
X25250001Y-30299999D03*
X27150001Y-30949999D03*
X27150001Y-29649999D03*
%TD*%
%TO.C,R1*%
G36*
G01*
X42424999Y-19218750D02*
X42424999Y-19781250D01*
G75*
G02*
X42181249Y-20025000I-243750J0D01*
G01*
X41693749Y-20025000D01*
G75*
G02*
X41449999Y-19781250I0J243750D01*
G01*
X41449999Y-19218750D01*
G75*
G02*
X41693749Y-18975000I243750J0D01*
G01*
X42181249Y-18975000D01*
G75*
G02*
X42424999Y-19218750I0J-243750D01*
G01*
G37*
G36*
G01*
X40849999Y-19218750D02*
X40849999Y-19781250D01*
G75*
G02*
X40606249Y-20025000I-243750J0D01*
G01*
X40118749Y-20025000D01*
G75*
G02*
X39874999Y-19781250I0J243750D01*
G01*
X39874999Y-19218750D01*
G75*
G02*
X40118749Y-18975000I243750J0D01*
G01*
X40606249Y-18975000D01*
G75*
G02*
X40849999Y-19218750I0J-243750D01*
G01*
G37*
%TD*%
D17*
%TO.C,JP1*%
X27099999Y-17300001D03*
X27099999Y-18600001D03*
%TD*%
%TO.C,C4*%
G36*
G01*
X27825000Y-40818750D02*
X27825000Y-41381250D01*
G75*
G02*
X27581250Y-41625000I-243750J0D01*
G01*
X27093750Y-41625000D01*
G75*
G02*
X26850000Y-41381250I0J243750D01*
G01*
X26850000Y-40818750D01*
G75*
G02*
X27093750Y-40575000I243750J0D01*
G01*
X27581250Y-40575000D01*
G75*
G02*
X27825000Y-40818750I0J-243750D01*
G01*
G37*
G36*
G01*
X26250000Y-40818750D02*
X26250000Y-41381250D01*
G75*
G02*
X26006250Y-41625000I-243750J0D01*
G01*
X25518750Y-41625000D01*
G75*
G02*
X25275000Y-41381250I0J243750D01*
G01*
X25275000Y-40818750D01*
G75*
G02*
X25518750Y-40575000I243750J0D01*
G01*
X26006250Y-40575000D01*
G75*
G02*
X26250000Y-40818750I0J-243750D01*
G01*
G37*
%TD*%
%TO.C,C3*%
G36*
G01*
X42875001Y-42518751D02*
X42875001Y-41956251D01*
G75*
G02*
X43118751Y-41712501I243750J0D01*
G01*
X43606251Y-41712501D01*
G75*
G02*
X43850001Y-41956251I0J-243750D01*
G01*
X43850001Y-42518751D01*
G75*
G02*
X43606251Y-42762501I-243750J0D01*
G01*
X43118751Y-42762501D01*
G75*
G02*
X42875001Y-42518751I0J243750D01*
G01*
G37*
G36*
G01*
X44450001Y-42518751D02*
X44450001Y-41956251D01*
G75*
G02*
X44693751Y-41712501I243750J0D01*
G01*
X45181251Y-41712501D01*
G75*
G02*
X45425001Y-41956251I0J-243750D01*
G01*
X45425001Y-42518751D01*
G75*
G02*
X45181251Y-42762501I-243750J0D01*
G01*
X44693751Y-42762501D01*
G75*
G02*
X44450001Y-42518751I0J243750D01*
G01*
G37*
%TD*%
%TO.C,C2*%
G36*
G01*
X41618749Y-33750002D02*
X42181249Y-33750002D01*
G75*
G02*
X42424999Y-33993752I0J-243750D01*
G01*
X42424999Y-34481252D01*
G75*
G02*
X42181249Y-34725002I-243750J0D01*
G01*
X41618749Y-34725002D01*
G75*
G02*
X41374999Y-34481252I0J243750D01*
G01*
X41374999Y-33993752D01*
G75*
G02*
X41618749Y-33750002I243750J0D01*
G01*
G37*
G36*
G01*
X41618749Y-32175002D02*
X42181249Y-32175002D01*
G75*
G02*
X42424999Y-32418752I0J-243750D01*
G01*
X42424999Y-32906252D01*
G75*
G02*
X42181249Y-33150002I-243750J0D01*
G01*
X41618749Y-33150002D01*
G75*
G02*
X41374999Y-32906252I0J243750D01*
G01*
X41374999Y-32418752D01*
G75*
G02*
X41618749Y-32175002I243750J0D01*
G01*
G37*
%TD*%
%TO.C,C1*%
G36*
G01*
X42181249Y-30149999D02*
X41618749Y-30149999D01*
G75*
G02*
X41374999Y-29906249I0J243750D01*
G01*
X41374999Y-29418749D01*
G75*
G02*
X41618749Y-29174999I243750J0D01*
G01*
X42181249Y-29174999D01*
G75*
G02*
X42424999Y-29418749I0J-243750D01*
G01*
X42424999Y-29906249D01*
G75*
G02*
X42181249Y-30149999I-243750J0D01*
G01*
G37*
G36*
G01*
X42181249Y-31724999D02*
X41618749Y-31724999D01*
G75*
G02*
X41374999Y-31481249I0J243750D01*
G01*
X41374999Y-30993749D01*
G75*
G02*
X41618749Y-30749999I243750J0D01*
G01*
X42181249Y-30749999D01*
G75*
G02*
X42424999Y-30993749I0J-243750D01*
G01*
X42424999Y-31481249D01*
G75*
G02*
X42181249Y-31724999I-243750J0D01*
G01*
G37*
%TD*%
M02*
