%TF.GenerationSoftware,KiCad,Pcbnew,(5.1.6)-1*%
%TF.CreationDate,2020-09-30T01:26:52+08:00*%
%TF.ProjectId,Ogen,4f67656e-2e6b-4696-9361-645f70636258,rev?*%
%TF.SameCoordinates,Original*%
%TF.FileFunction,Soldermask,Top*%
%TF.FilePolarity,Negative*%
%FSLAX46Y46*%
G04 Gerber Fmt 4.6, Leading zero omitted, Abs format (unit mm)*
G04 Created by KiCad (PCBNEW (5.1.6)-1) date 2020-09-30 01:26:52*
%MOMM*%
%LPD*%
G01*
G04 APERTURE LIST*
%ADD10O,1.800000X1.800000*%
%ADD11R,1.800000X1.800000*%
%ADD12C,2.300000*%
%ADD13R,1.160000X0.750000*%
%ADD14R,0.750000X0.500000*%
%ADD15C,1.500000*%
%ADD16R,1.500000X1.500000*%
%ADD17R,1.600000X1.100000*%
G04 APERTURE END LIST*
D10*
%TO.C,J1*%
X25550000Y-33890000D03*
X25550000Y-31350000D03*
X25550000Y-28810000D03*
X25550000Y-26270000D03*
X25550000Y-23730000D03*
X25550000Y-21190000D03*
X25550000Y-18650000D03*
D11*
X25550000Y-16110000D03*
%TD*%
D12*
%TO.C,REF\u002A\u002A*%
X35000000Y-37000000D03*
%TD*%
%TO.C,REF\u002A\u002A*%
X35000000Y-13000000D03*
%TD*%
%TO.C,R3*%
G36*
G01*
X43325000Y-14618750D02*
X43325000Y-15181250D01*
G75*
G02*
X43081250Y-15425000I-243750J0D01*
G01*
X42593750Y-15425000D01*
G75*
G02*
X42350000Y-15181250I0J243750D01*
G01*
X42350000Y-14618750D01*
G75*
G02*
X42593750Y-14375000I243750J0D01*
G01*
X43081250Y-14375000D01*
G75*
G02*
X43325000Y-14618750I0J-243750D01*
G01*
G37*
G36*
G01*
X41750000Y-14618750D02*
X41750000Y-15181250D01*
G75*
G02*
X41506250Y-15425000I-243750J0D01*
G01*
X41018750Y-15425000D01*
G75*
G02*
X40775000Y-15181250I0J243750D01*
G01*
X40775000Y-14618750D01*
G75*
G02*
X41018750Y-14375000I243750J0D01*
G01*
X41506250Y-14375000D01*
G75*
G02*
X41750000Y-14618750I0J-243750D01*
G01*
G37*
%TD*%
D13*
%TO.C,U1*%
X31350000Y-12800000D03*
X31350000Y-14700000D03*
X29150000Y-14700000D03*
X29150000Y-13750000D03*
X29150000Y-12800000D03*
%TD*%
D14*
%TO.C,U7*%
X45000000Y-32050000D03*
X45000000Y-30750000D03*
X43100000Y-31400000D03*
X45000000Y-31400000D03*
X43100000Y-30750000D03*
X43100000Y-32050000D03*
%TD*%
%TO.C,U6*%
X45000000Y-29050000D03*
X45000000Y-27750000D03*
X43100000Y-28400000D03*
X45000000Y-28400000D03*
X43100000Y-27750000D03*
X43100000Y-29050000D03*
%TD*%
%TO.C,U5*%
X45000000Y-26050000D03*
X45000000Y-24750000D03*
X43100000Y-25400000D03*
X45000000Y-25400000D03*
X43100000Y-24750000D03*
X43100000Y-26050000D03*
%TD*%
%TO.C,U4*%
X45000000Y-23050000D03*
X45000000Y-21750000D03*
X43100000Y-22400000D03*
X45000000Y-22400000D03*
X43100000Y-21750000D03*
X43100000Y-23050000D03*
%TD*%
%TO.C,U3*%
X45000000Y-20050000D03*
X45000000Y-18750000D03*
X43100000Y-19400000D03*
X45000000Y-19400000D03*
X43100000Y-18750000D03*
X43100000Y-20050000D03*
%TD*%
D15*
%TO.C,U2*%
X40350000Y-31230000D03*
D16*
X29650000Y-18770000D03*
D15*
X40350000Y-29450000D03*
X29650000Y-20550000D03*
X40350000Y-27670000D03*
X29650000Y-22330000D03*
X40350000Y-25890000D03*
X29650000Y-24110000D03*
X40350000Y-24110000D03*
X29650000Y-25890000D03*
X40350000Y-22330000D03*
X29650000Y-27670000D03*
X40350000Y-20550000D03*
X29650000Y-29450000D03*
X40350000Y-18770000D03*
X29650000Y-31230000D03*
%TD*%
%TO.C,R2*%
G36*
G01*
X39900000Y-35518750D02*
X39900000Y-36081250D01*
G75*
G02*
X39656250Y-36325000I-243750J0D01*
G01*
X39168750Y-36325000D01*
G75*
G02*
X38925000Y-36081250I0J243750D01*
G01*
X38925000Y-35518750D01*
G75*
G02*
X39168750Y-35275000I243750J0D01*
G01*
X39656250Y-35275000D01*
G75*
G02*
X39900000Y-35518750I0J-243750D01*
G01*
G37*
G36*
G01*
X41475000Y-35518750D02*
X41475000Y-36081250D01*
G75*
G02*
X41231250Y-36325000I-243750J0D01*
G01*
X40743750Y-36325000D01*
G75*
G02*
X40500000Y-36081250I0J243750D01*
G01*
X40500000Y-35518750D01*
G75*
G02*
X40743750Y-35275000I243750J0D01*
G01*
X41231250Y-35275000D01*
G75*
G02*
X41475000Y-35518750I0J-243750D01*
G01*
G37*
%TD*%
%TO.C,R1*%
G36*
G01*
X27575000Y-35781250D02*
X27575000Y-35218750D01*
G75*
G02*
X27818750Y-34975000I243750J0D01*
G01*
X28306250Y-34975000D01*
G75*
G02*
X28550000Y-35218750I0J-243750D01*
G01*
X28550000Y-35781250D01*
G75*
G02*
X28306250Y-36025000I-243750J0D01*
G01*
X27818750Y-36025000D01*
G75*
G02*
X27575000Y-35781250I0J243750D01*
G01*
G37*
G36*
G01*
X29150000Y-35781250D02*
X29150000Y-35218750D01*
G75*
G02*
X29393750Y-34975000I243750J0D01*
G01*
X29881250Y-34975000D01*
G75*
G02*
X30125000Y-35218750I0J-243750D01*
G01*
X30125000Y-35781250D01*
G75*
G02*
X29881250Y-36025000I-243750J0D01*
G01*
X29393750Y-36025000D01*
G75*
G02*
X29150000Y-35781250I0J243750D01*
G01*
G37*
%TD*%
D17*
%TO.C,JP1*%
X42900000Y-35800000D03*
X42900000Y-34500000D03*
%TD*%
%TO.C,C4*%
G36*
G01*
X43900000Y-13631250D02*
X43900000Y-13068750D01*
G75*
G02*
X44143750Y-12825000I243750J0D01*
G01*
X44631250Y-12825000D01*
G75*
G02*
X44875000Y-13068750I0J-243750D01*
G01*
X44875000Y-13631250D01*
G75*
G02*
X44631250Y-13875000I-243750J0D01*
G01*
X44143750Y-13875000D01*
G75*
G02*
X43900000Y-13631250I0J243750D01*
G01*
G37*
G36*
G01*
X42325000Y-13631250D02*
X42325000Y-13068750D01*
G75*
G02*
X42568750Y-12825000I243750J0D01*
G01*
X43056250Y-12825000D01*
G75*
G02*
X43300000Y-13068750I0J-243750D01*
G01*
X43300000Y-13631250D01*
G75*
G02*
X43056250Y-13875000I-243750J0D01*
G01*
X42568750Y-13875000D01*
G75*
G02*
X42325000Y-13631250I0J243750D01*
G01*
G37*
%TD*%
%TO.C,C3*%
G36*
G01*
X26550000Y-12518750D02*
X26550000Y-13081250D01*
G75*
G02*
X26306250Y-13325000I-243750J0D01*
G01*
X25818750Y-13325000D01*
G75*
G02*
X25575000Y-13081250I0J243750D01*
G01*
X25575000Y-12518750D01*
G75*
G02*
X25818750Y-12275000I243750J0D01*
G01*
X26306250Y-12275000D01*
G75*
G02*
X26550000Y-12518750I0J-243750D01*
G01*
G37*
G36*
G01*
X28125000Y-12518750D02*
X28125000Y-13081250D01*
G75*
G02*
X27881250Y-13325000I-243750J0D01*
G01*
X27393750Y-13325000D01*
G75*
G02*
X27150000Y-13081250I0J243750D01*
G01*
X27150000Y-12518750D01*
G75*
G02*
X27393750Y-12275000I243750J0D01*
G01*
X27881250Y-12275000D01*
G75*
G02*
X28125000Y-12518750I0J-243750D01*
G01*
G37*
%TD*%
%TO.C,C2*%
G36*
G01*
X28381250Y-21250000D02*
X27818750Y-21250000D01*
G75*
G02*
X27575000Y-21006250I0J243750D01*
G01*
X27575000Y-20518750D01*
G75*
G02*
X27818750Y-20275000I243750J0D01*
G01*
X28381250Y-20275000D01*
G75*
G02*
X28625000Y-20518750I0J-243750D01*
G01*
X28625000Y-21006250D01*
G75*
G02*
X28381250Y-21250000I-243750J0D01*
G01*
G37*
G36*
G01*
X28381250Y-22825000D02*
X27818750Y-22825000D01*
G75*
G02*
X27575000Y-22581250I0J243750D01*
G01*
X27575000Y-22093750D01*
G75*
G02*
X27818750Y-21850000I243750J0D01*
G01*
X28381250Y-21850000D01*
G75*
G02*
X28625000Y-22093750I0J-243750D01*
G01*
X28625000Y-22581250D01*
G75*
G02*
X28381250Y-22825000I-243750J0D01*
G01*
G37*
%TD*%
%TO.C,C1*%
G36*
G01*
X27818750Y-24850000D02*
X28381250Y-24850000D01*
G75*
G02*
X28625000Y-25093750I0J-243750D01*
G01*
X28625000Y-25581250D01*
G75*
G02*
X28381250Y-25825000I-243750J0D01*
G01*
X27818750Y-25825000D01*
G75*
G02*
X27575000Y-25581250I0J243750D01*
G01*
X27575000Y-25093750D01*
G75*
G02*
X27818750Y-24850000I243750J0D01*
G01*
G37*
G36*
G01*
X27818750Y-23275000D02*
X28381250Y-23275000D01*
G75*
G02*
X28625000Y-23518750I0J-243750D01*
G01*
X28625000Y-24006250D01*
G75*
G02*
X28381250Y-24250000I-243750J0D01*
G01*
X27818750Y-24250000D01*
G75*
G02*
X27575000Y-24006250I0J243750D01*
G01*
X27575000Y-23518750D01*
G75*
G02*
X27818750Y-23275000I243750J0D01*
G01*
G37*
%TD*%
M02*
