%TF.GenerationSoftware,KiCad,Pcbnew,(5.1.6)-1*%
%TF.CreationDate,2020-09-30T00:52:58+08:00*%
%TF.ProjectId,Ogen,4f67656e-2e6b-4696-9361-645f70636258,rev?*%
%TF.SameCoordinates,Original*%
%TF.FileFunction,Copper,L2,Bot*%
%TF.FilePolarity,Positive*%
%FSLAX46Y46*%
G04 Gerber Fmt 4.6, Leading zero omitted, Abs format (unit mm)*
G04 Created by KiCad (PCBNEW (5.1.6)-1) date 2020-09-30 00:52:58*
%MOMM*%
%LPD*%
G01*
G04 APERTURE LIST*
%TA.AperFunction,ComponentPad*%
%ADD10O,1.700000X1.700000*%
%TD*%
%TA.AperFunction,ComponentPad*%
%ADD11R,1.700000X1.700000*%
%TD*%
%TA.AperFunction,ComponentPad*%
%ADD12C,1.400000*%
%TD*%
%TA.AperFunction,ComponentPad*%
%ADD13R,1.400000X1.400000*%
%TD*%
%TA.AperFunction,ViaPad*%
%ADD14C,0.600000*%
%TD*%
%TA.AperFunction,Conductor*%
%ADD15C,0.400000*%
%TD*%
%TA.AperFunction,Conductor*%
%ADD16C,0.250000*%
%TD*%
%TA.AperFunction,Conductor*%
%ADD17C,0.200000*%
%TD*%
G04 APERTURE END LIST*
D10*
%TO.P,J1,8*%
%TO.N,NRESET*%
X25550000Y-33890000D03*
%TO.P,J1,7*%
%TO.N,GND*%
X25550000Y-31350000D03*
%TO.P,J1,6*%
%TO.N,MOT-H*%
X25550000Y-28810000D03*
%TO.P,J1,5*%
%TO.N,SS-H*%
X25550000Y-26270000D03*
%TO.P,J1,4*%
%TO.N,SCLK-H*%
X25550000Y-23730000D03*
%TO.P,J1,3*%
%TO.N,MOSI-H*%
X25550000Y-21190000D03*
%TO.P,J1,2*%
%TO.N,MISO-H*%
X25550000Y-18650000D03*
D11*
%TO.P,J1,1*%
%TO.N,VCC*%
X25550000Y-16110000D03*
%TD*%
D12*
%TO.P,U2,9*%
%TO.N,MOT*%
X40350000Y-31230000D03*
D13*
%TO.P,U2,1*%
%TO.N,Net-(U2-Pad1)*%
X29650000Y-18770000D03*
D12*
%TO.P,U2,10*%
%TO.N,SCLK*%
X40350000Y-29450000D03*
%TO.P,U2,2*%
%TO.N,Net-(U2-Pad2)*%
X29650000Y-20550000D03*
%TO.P,U2,11*%
%TO.N,MOSI*%
X40350000Y-27670000D03*
%TO.P,U2,3*%
%TO.N,Net-(C1-Pad1)*%
X29650000Y-22330000D03*
%TO.P,U2,12*%
%TO.N,MISO*%
X40350000Y-25890000D03*
%TO.P,U2,4*%
%TO.N,VDD*%
X29650000Y-24110000D03*
%TO.P,U2,13*%
%TO.N,SS*%
X40350000Y-24110000D03*
%TO.P,U2,5*%
%TO.N,VDD*%
X29650000Y-25890000D03*
%TO.P,U2,14*%
%TO.N,Net-(U2-Pad14)*%
X40350000Y-22330000D03*
%TO.P,U2,6*%
%TO.N,Net-(U2-Pad6)*%
X29650000Y-27670000D03*
%TO.P,U2,15*%
%TO.N,Net-(R3-Pad2)*%
X40350000Y-20550000D03*
%TO.P,U2,7*%
%TO.N,NRESET*%
X29650000Y-29450000D03*
%TO.P,U2,16*%
%TO.N,Net-(U2-Pad16)*%
X40350000Y-18770000D03*
%TO.P,U2,8*%
%TO.N,GND*%
X29650000Y-31230000D03*
%TD*%
D14*
%TO.N,GND*%
X31650000Y-13750000D03*
X31000000Y-13750000D03*
X30350000Y-13750000D03*
X25400000Y-37100000D03*
X45200000Y-37300000D03*
X31100000Y-37250000D03*
X42200000Y-31750000D03*
X42300000Y-29650000D03*
X44100000Y-25400000D03*
X27600000Y-33650000D03*
X40150000Y-32900000D03*
X30900000Y-34100000D03*
X45250000Y-34600000D03*
X43450000Y-37750000D03*
X28350000Y-37850000D03*
X31700000Y-11750000D03*
X28800000Y-11750000D03*
X43900000Y-11750000D03*
X24800000Y-13800000D03*
X40600000Y-37700000D03*
X37450000Y-36950000D03*
X26200000Y-12050000D03*
X39700000Y-11800000D03*
X27350000Y-29400000D03*
X27250000Y-27350000D03*
X26800000Y-22450000D03*
X29650000Y-16900000D03*
X38100000Y-13300000D03*
%TO.N,VCC*%
X45000000Y-26600000D03*
X45000000Y-23600000D03*
X45000000Y-29600000D03*
X42400000Y-25400000D03*
X42400000Y-28400000D03*
X45000000Y-20600000D03*
X42050000Y-20550000D03*
X45000000Y-32600000D03*
X40050000Y-16850000D03*
X40050000Y-15050000D03*
%TO.N,SS-H*%
X45000000Y-17950000D03*
X42150000Y-18200000D03*
X42400000Y-24125000D03*
X43900000Y-16450000D03*
%TO.N,SCLK-H*%
X44300000Y-27750000D03*
%TO.N,MOSI-H*%
X44784457Y-14857771D03*
%TO.N,MISO-H*%
X45500000Y-14500000D03*
%TO.N,MISO*%
X41550000Y-33300000D03*
%TO.N,VDD*%
X43100000Y-32600000D03*
X43100000Y-29550000D03*
X43100000Y-26600000D03*
X43100000Y-23600000D03*
X43274989Y-21049998D03*
X42054443Y-17045557D03*
%TD*%
D15*
%TO.N,VCC*%
X42400000Y-28400000D02*
X42400000Y-27197524D01*
X41450001Y-18241999D02*
X40058002Y-16850000D01*
X40058002Y-16850000D02*
X40050000Y-16850000D01*
X45000000Y-32600000D02*
X45000000Y-20600000D01*
X41699999Y-20900001D02*
X42050000Y-20550000D01*
X42400000Y-25400000D02*
X41699999Y-24699999D01*
X41699999Y-24699999D02*
X41699999Y-20900001D01*
X41450001Y-19950001D02*
X42050000Y-20550000D01*
X41450001Y-18241999D02*
X41450001Y-19950001D01*
X42400000Y-25400000D02*
X42400000Y-27197524D01*
X41094888Y-15050000D02*
X40050000Y-15050000D01*
X45000000Y-20600000D02*
X45000000Y-18955112D01*
X45000000Y-18955112D02*
X41094888Y-15050000D01*
D16*
%TO.N,NRESET*%
X25550000Y-33974998D02*
X25550000Y-33980000D01*
X25550000Y-33890000D02*
X27400000Y-32040000D01*
X27400000Y-31700000D02*
X29650000Y-29450000D01*
X27400000Y-32040000D02*
X27400000Y-31700000D01*
%TO.N,SS-H*%
X42150000Y-18024998D02*
X39764992Y-15639990D01*
X39764992Y-15639990D02*
X29385008Y-15639990D01*
X42150000Y-18200000D02*
X42150000Y-18024998D01*
X42675001Y-18725001D02*
X42150000Y-18200000D01*
X42675001Y-20850001D02*
X42675001Y-18725001D01*
X42400000Y-21125002D02*
X42675001Y-20850001D01*
X42400000Y-24125000D02*
X42400000Y-21125002D01*
X42400000Y-21125002D02*
X42400000Y-21250000D01*
X29385008Y-15639990D02*
X27625021Y-17399977D01*
X27625021Y-17399977D02*
X27625021Y-24194979D01*
X27625021Y-24194979D02*
X25550000Y-26270000D01*
X43900000Y-16450000D02*
X44500000Y-16450000D01*
X45000000Y-16950000D02*
X45000000Y-17950000D01*
X44500000Y-16450000D02*
X45000000Y-16950000D01*
%TO.N,SCLK-H*%
X44300000Y-32600000D02*
X44300000Y-27750000D01*
X24374999Y-24905001D02*
X24374999Y-34454001D01*
X44300000Y-33900000D02*
X44300000Y-32600000D01*
X25550000Y-23730000D02*
X24374999Y-24905001D01*
X24374999Y-34454001D02*
X24985999Y-35065001D01*
X24985999Y-35065001D02*
X43134999Y-35065001D01*
X43134999Y-35065001D02*
X44300000Y-33900000D01*
%TO.N,MOSI-H*%
X39772933Y-14343099D02*
X44269785Y-14343099D01*
X44269785Y-14343099D02*
X44784457Y-14857771D01*
X39772933Y-14343099D02*
X38926052Y-15189980D01*
X38926052Y-15189980D02*
X29198608Y-15189980D01*
X27175011Y-19564989D02*
X25550000Y-21190000D01*
X27175012Y-17213576D02*
X27175011Y-19564989D01*
X29198608Y-15189980D02*
X27175012Y-17213576D01*
%TO.N,MISO-H*%
X40356911Y-13893089D02*
X44893089Y-13893089D01*
X44893089Y-13893089D02*
X45500000Y-14500000D01*
X39586533Y-13893089D02*
X40356911Y-13893089D01*
X26725001Y-17474999D02*
X25550000Y-18650000D01*
X26725001Y-17474999D02*
X26725003Y-17027175D01*
X26725003Y-17027175D02*
X29012208Y-14739970D01*
X29012208Y-14739970D02*
X38739652Y-14739970D01*
X38739652Y-14739970D02*
X39586533Y-13893089D01*
%TO.N,MISO*%
X41550000Y-27090000D02*
X40350000Y-25890000D01*
X41550000Y-33300000D02*
X41550000Y-27090000D01*
D15*
%TO.N,VDD*%
X43100000Y-23600000D02*
X43100000Y-32600000D01*
X43274989Y-18266103D02*
X42054443Y-17045557D01*
X43274989Y-21049998D02*
X43274989Y-18266103D01*
X43100000Y-22499978D02*
X43274989Y-22324989D01*
X43100000Y-23600000D02*
X43100000Y-22499978D01*
X43274989Y-21049998D02*
X43274989Y-22324989D01*
%TD*%
D17*
%TO.N,GND*%
G36*
X44184457Y-14858811D02*
G01*
X44184457Y-14916866D01*
X44207515Y-15032785D01*
X44252744Y-15141978D01*
X44318407Y-15240249D01*
X44401979Y-15323821D01*
X44500250Y-15389484D01*
X44609443Y-15434713D01*
X44725362Y-15457771D01*
X44843552Y-15457771D01*
X44959471Y-15434713D01*
X45068664Y-15389484D01*
X45166935Y-15323821D01*
X45250507Y-15240249D01*
X45316170Y-15141978D01*
X45341729Y-15080272D01*
X45440905Y-15100000D01*
X45559095Y-15100000D01*
X45675001Y-15076945D01*
X45675000Y-37984104D01*
X45660616Y-38130805D01*
X45622627Y-38256629D01*
X45560924Y-38372675D01*
X45477853Y-38474531D01*
X45376586Y-38558307D01*
X45260973Y-38620819D01*
X45135410Y-38659687D01*
X44989716Y-38675000D01*
X25015896Y-38675000D01*
X24869195Y-38660616D01*
X24743371Y-38622627D01*
X24627325Y-38560924D01*
X24525469Y-38477853D01*
X24441693Y-38376586D01*
X24379181Y-38260973D01*
X24340313Y-38135410D01*
X24325000Y-37989716D01*
X24325000Y-36862112D01*
X33600000Y-36862112D01*
X33600000Y-37137888D01*
X33653801Y-37408365D01*
X33759336Y-37663149D01*
X33912549Y-37892448D01*
X34107552Y-38087451D01*
X34336851Y-38240664D01*
X34591635Y-38346199D01*
X34862112Y-38400000D01*
X35137888Y-38400000D01*
X35408365Y-38346199D01*
X35663149Y-38240664D01*
X35892448Y-38087451D01*
X36087451Y-37892448D01*
X36240664Y-37663149D01*
X36346199Y-37408365D01*
X36400000Y-37137888D01*
X36400000Y-36862112D01*
X36346199Y-36591635D01*
X36240664Y-36336851D01*
X36087451Y-36107552D01*
X35892448Y-35912549D01*
X35663149Y-35759336D01*
X35408365Y-35653801D01*
X35137888Y-35600000D01*
X34862112Y-35600000D01*
X34591635Y-35653801D01*
X34336851Y-35759336D01*
X34107552Y-35912549D01*
X33912549Y-36107552D01*
X33759336Y-36336851D01*
X33653801Y-36591635D01*
X33600000Y-36862112D01*
X24325000Y-36862112D01*
X24325000Y-35005042D01*
X24670720Y-35350763D01*
X24684025Y-35366975D01*
X24748739Y-35420085D01*
X24822572Y-35459549D01*
X24878382Y-35476479D01*
X24902684Y-35483851D01*
X24911097Y-35484680D01*
X24965125Y-35490001D01*
X24965131Y-35490001D01*
X24985998Y-35492056D01*
X25006865Y-35490001D01*
X43114132Y-35490001D01*
X43134999Y-35492056D01*
X43155866Y-35490001D01*
X43155873Y-35490001D01*
X43218313Y-35483851D01*
X43298426Y-35459549D01*
X43372259Y-35420085D01*
X43436973Y-35366975D01*
X43450282Y-35350758D01*
X44585763Y-34215278D01*
X44601974Y-34201974D01*
X44655084Y-34137260D01*
X44694548Y-34063427D01*
X44718850Y-33983314D01*
X44725000Y-33920874D01*
X44725000Y-33920868D01*
X44727055Y-33900001D01*
X44725000Y-33879134D01*
X44725000Y-33135527D01*
X44824986Y-33176942D01*
X44940905Y-33200000D01*
X45059095Y-33200000D01*
X45175014Y-33176942D01*
X45284207Y-33131713D01*
X45382478Y-33066050D01*
X45466050Y-32982478D01*
X45531713Y-32884207D01*
X45576942Y-32775014D01*
X45600000Y-32659095D01*
X45600000Y-32540905D01*
X45576942Y-32424986D01*
X45531713Y-32315793D01*
X45500000Y-32268331D01*
X45500000Y-29931669D01*
X45531713Y-29884207D01*
X45576942Y-29775014D01*
X45600000Y-29659095D01*
X45600000Y-29540905D01*
X45576942Y-29424986D01*
X45531713Y-29315793D01*
X45500000Y-29268331D01*
X45500000Y-26931669D01*
X45531713Y-26884207D01*
X45576942Y-26775014D01*
X45600000Y-26659095D01*
X45600000Y-26540905D01*
X45576942Y-26424986D01*
X45531713Y-26315793D01*
X45500000Y-26268331D01*
X45500000Y-23931669D01*
X45531713Y-23884207D01*
X45576942Y-23775014D01*
X45600000Y-23659095D01*
X45600000Y-23540905D01*
X45576942Y-23424986D01*
X45531713Y-23315793D01*
X45500000Y-23268331D01*
X45500000Y-20931669D01*
X45531713Y-20884207D01*
X45576942Y-20775014D01*
X45600000Y-20659095D01*
X45600000Y-20540905D01*
X45576942Y-20424986D01*
X45531713Y-20315793D01*
X45500000Y-20268331D01*
X45500000Y-18979661D01*
X45502418Y-18955111D01*
X45500000Y-18930561D01*
X45500000Y-18930552D01*
X45492765Y-18857095D01*
X45464175Y-18762845D01*
X45417746Y-18675983D01*
X45355264Y-18599848D01*
X45336187Y-18584192D01*
X45248499Y-18496504D01*
X45284207Y-18481713D01*
X45382478Y-18416050D01*
X45466050Y-18332478D01*
X45531713Y-18234207D01*
X45576942Y-18125014D01*
X45600000Y-18009095D01*
X45600000Y-17890905D01*
X45576942Y-17774986D01*
X45531713Y-17665793D01*
X45466050Y-17567522D01*
X45425000Y-17526472D01*
X45425000Y-16970867D01*
X45427055Y-16950000D01*
X45425000Y-16929133D01*
X45425000Y-16929126D01*
X45418850Y-16866686D01*
X45408473Y-16832478D01*
X45394548Y-16786572D01*
X45380801Y-16760855D01*
X45355084Y-16712740D01*
X45301974Y-16648026D01*
X45285763Y-16634722D01*
X44815283Y-16164243D01*
X44801974Y-16148026D01*
X44737260Y-16094916D01*
X44663427Y-16055452D01*
X44583314Y-16031150D01*
X44520874Y-16025000D01*
X44520867Y-16025000D01*
X44500000Y-16022945D01*
X44479133Y-16025000D01*
X44323528Y-16025000D01*
X44282478Y-15983950D01*
X44184207Y-15918287D01*
X44075014Y-15873058D01*
X43959095Y-15850000D01*
X43840905Y-15850000D01*
X43724986Y-15873058D01*
X43615793Y-15918287D01*
X43517522Y-15983950D01*
X43433950Y-16067522D01*
X43368287Y-16165793D01*
X43323058Y-16274986D01*
X43300000Y-16390905D01*
X43300000Y-16509095D01*
X43309662Y-16557668D01*
X41520092Y-14768099D01*
X44093745Y-14768099D01*
X44184457Y-14858811D01*
G37*
X44184457Y-14858811D02*
X44184457Y-14916866D01*
X44207515Y-15032785D01*
X44252744Y-15141978D01*
X44318407Y-15240249D01*
X44401979Y-15323821D01*
X44500250Y-15389484D01*
X44609443Y-15434713D01*
X44725362Y-15457771D01*
X44843552Y-15457771D01*
X44959471Y-15434713D01*
X45068664Y-15389484D01*
X45166935Y-15323821D01*
X45250507Y-15240249D01*
X45316170Y-15141978D01*
X45341729Y-15080272D01*
X45440905Y-15100000D01*
X45559095Y-15100000D01*
X45675001Y-15076945D01*
X45675000Y-37984104D01*
X45660616Y-38130805D01*
X45622627Y-38256629D01*
X45560924Y-38372675D01*
X45477853Y-38474531D01*
X45376586Y-38558307D01*
X45260973Y-38620819D01*
X45135410Y-38659687D01*
X44989716Y-38675000D01*
X25015896Y-38675000D01*
X24869195Y-38660616D01*
X24743371Y-38622627D01*
X24627325Y-38560924D01*
X24525469Y-38477853D01*
X24441693Y-38376586D01*
X24379181Y-38260973D01*
X24340313Y-38135410D01*
X24325000Y-37989716D01*
X24325000Y-36862112D01*
X33600000Y-36862112D01*
X33600000Y-37137888D01*
X33653801Y-37408365D01*
X33759336Y-37663149D01*
X33912549Y-37892448D01*
X34107552Y-38087451D01*
X34336851Y-38240664D01*
X34591635Y-38346199D01*
X34862112Y-38400000D01*
X35137888Y-38400000D01*
X35408365Y-38346199D01*
X35663149Y-38240664D01*
X35892448Y-38087451D01*
X36087451Y-37892448D01*
X36240664Y-37663149D01*
X36346199Y-37408365D01*
X36400000Y-37137888D01*
X36400000Y-36862112D01*
X36346199Y-36591635D01*
X36240664Y-36336851D01*
X36087451Y-36107552D01*
X35892448Y-35912549D01*
X35663149Y-35759336D01*
X35408365Y-35653801D01*
X35137888Y-35600000D01*
X34862112Y-35600000D01*
X34591635Y-35653801D01*
X34336851Y-35759336D01*
X34107552Y-35912549D01*
X33912549Y-36107552D01*
X33759336Y-36336851D01*
X33653801Y-36591635D01*
X33600000Y-36862112D01*
X24325000Y-36862112D01*
X24325000Y-35005042D01*
X24670720Y-35350763D01*
X24684025Y-35366975D01*
X24748739Y-35420085D01*
X24822572Y-35459549D01*
X24878382Y-35476479D01*
X24902684Y-35483851D01*
X24911097Y-35484680D01*
X24965125Y-35490001D01*
X24965131Y-35490001D01*
X24985998Y-35492056D01*
X25006865Y-35490001D01*
X43114132Y-35490001D01*
X43134999Y-35492056D01*
X43155866Y-35490001D01*
X43155873Y-35490001D01*
X43218313Y-35483851D01*
X43298426Y-35459549D01*
X43372259Y-35420085D01*
X43436973Y-35366975D01*
X43450282Y-35350758D01*
X44585763Y-34215278D01*
X44601974Y-34201974D01*
X44655084Y-34137260D01*
X44694548Y-34063427D01*
X44718850Y-33983314D01*
X44725000Y-33920874D01*
X44725000Y-33920868D01*
X44727055Y-33900001D01*
X44725000Y-33879134D01*
X44725000Y-33135527D01*
X44824986Y-33176942D01*
X44940905Y-33200000D01*
X45059095Y-33200000D01*
X45175014Y-33176942D01*
X45284207Y-33131713D01*
X45382478Y-33066050D01*
X45466050Y-32982478D01*
X45531713Y-32884207D01*
X45576942Y-32775014D01*
X45600000Y-32659095D01*
X45600000Y-32540905D01*
X45576942Y-32424986D01*
X45531713Y-32315793D01*
X45500000Y-32268331D01*
X45500000Y-29931669D01*
X45531713Y-29884207D01*
X45576942Y-29775014D01*
X45600000Y-29659095D01*
X45600000Y-29540905D01*
X45576942Y-29424986D01*
X45531713Y-29315793D01*
X45500000Y-29268331D01*
X45500000Y-26931669D01*
X45531713Y-26884207D01*
X45576942Y-26775014D01*
X45600000Y-26659095D01*
X45600000Y-26540905D01*
X45576942Y-26424986D01*
X45531713Y-26315793D01*
X45500000Y-26268331D01*
X45500000Y-23931669D01*
X45531713Y-23884207D01*
X45576942Y-23775014D01*
X45600000Y-23659095D01*
X45600000Y-23540905D01*
X45576942Y-23424986D01*
X45531713Y-23315793D01*
X45500000Y-23268331D01*
X45500000Y-20931669D01*
X45531713Y-20884207D01*
X45576942Y-20775014D01*
X45600000Y-20659095D01*
X45600000Y-20540905D01*
X45576942Y-20424986D01*
X45531713Y-20315793D01*
X45500000Y-20268331D01*
X45500000Y-18979661D01*
X45502418Y-18955111D01*
X45500000Y-18930561D01*
X45500000Y-18930552D01*
X45492765Y-18857095D01*
X45464175Y-18762845D01*
X45417746Y-18675983D01*
X45355264Y-18599848D01*
X45336187Y-18584192D01*
X45248499Y-18496504D01*
X45284207Y-18481713D01*
X45382478Y-18416050D01*
X45466050Y-18332478D01*
X45531713Y-18234207D01*
X45576942Y-18125014D01*
X45600000Y-18009095D01*
X45600000Y-17890905D01*
X45576942Y-17774986D01*
X45531713Y-17665793D01*
X45466050Y-17567522D01*
X45425000Y-17526472D01*
X45425000Y-16970867D01*
X45427055Y-16950000D01*
X45425000Y-16929133D01*
X45425000Y-16929126D01*
X45418850Y-16866686D01*
X45408473Y-16832478D01*
X45394548Y-16786572D01*
X45380801Y-16760855D01*
X45355084Y-16712740D01*
X45301974Y-16648026D01*
X45285763Y-16634722D01*
X44815283Y-16164243D01*
X44801974Y-16148026D01*
X44737260Y-16094916D01*
X44663427Y-16055452D01*
X44583314Y-16031150D01*
X44520874Y-16025000D01*
X44520867Y-16025000D01*
X44500000Y-16022945D01*
X44479133Y-16025000D01*
X44323528Y-16025000D01*
X44282478Y-15983950D01*
X44184207Y-15918287D01*
X44075014Y-15873058D01*
X43959095Y-15850000D01*
X43840905Y-15850000D01*
X43724986Y-15873058D01*
X43615793Y-15918287D01*
X43517522Y-15983950D01*
X43433950Y-16067522D01*
X43368287Y-16165793D01*
X43323058Y-16274986D01*
X43300000Y-16390905D01*
X43300000Y-16509095D01*
X43309662Y-16557668D01*
X41520092Y-14768099D01*
X44093745Y-14768099D01*
X44184457Y-14858811D01*
G36*
X44500001Y-19162220D02*
G01*
X44500000Y-20268331D01*
X44468287Y-20315793D01*
X44423058Y-20424986D01*
X44400000Y-20540905D01*
X44400000Y-20659095D01*
X44423058Y-20775014D01*
X44468287Y-20884207D01*
X44500001Y-20931670D01*
X44500001Y-23268330D01*
X44468287Y-23315793D01*
X44423058Y-23424986D01*
X44400000Y-23540905D01*
X44400000Y-23659095D01*
X44423058Y-23775014D01*
X44468287Y-23884207D01*
X44500001Y-23931670D01*
X44500001Y-26268331D01*
X44468287Y-26315793D01*
X44423058Y-26424986D01*
X44400000Y-26540905D01*
X44400000Y-26659095D01*
X44423058Y-26775014D01*
X44468287Y-26884207D01*
X44500000Y-26931669D01*
X44500000Y-27183408D01*
X44475014Y-27173058D01*
X44359095Y-27150000D01*
X44240905Y-27150000D01*
X44124986Y-27173058D01*
X44015793Y-27218287D01*
X43917522Y-27283950D01*
X43833950Y-27367522D01*
X43768287Y-27465793D01*
X43723058Y-27574986D01*
X43700000Y-27690905D01*
X43700000Y-27809095D01*
X43723058Y-27925014D01*
X43768287Y-28034207D01*
X43833950Y-28132478D01*
X43875001Y-28173529D01*
X43875000Y-32620873D01*
X43875001Y-32620883D01*
X43875000Y-33723959D01*
X42958959Y-34640001D01*
X26426344Y-34640001D01*
X26443263Y-34623082D01*
X26569116Y-34434729D01*
X26655806Y-34225443D01*
X26700000Y-34003265D01*
X26700000Y-33776735D01*
X26655806Y-33554557D01*
X26606212Y-33434828D01*
X27685763Y-32355278D01*
X27701974Y-32341974D01*
X27755084Y-32277260D01*
X27794548Y-32203427D01*
X27818850Y-32123314D01*
X27825000Y-32060874D01*
X27825000Y-32060868D01*
X27827055Y-32040001D01*
X27825000Y-32019134D01*
X27825000Y-31984950D01*
X29107182Y-31984950D01*
X29187341Y-32121990D01*
X29370249Y-32195111D01*
X29563908Y-32231143D01*
X29760876Y-32228702D01*
X29953583Y-32187881D01*
X30112659Y-32121990D01*
X30192818Y-31984950D01*
X29650000Y-31442132D01*
X29107182Y-31984950D01*
X27825000Y-31984950D01*
X27825000Y-31876040D01*
X28669824Y-31031216D01*
X28648857Y-31143908D01*
X28651298Y-31340876D01*
X28692119Y-31533583D01*
X28758010Y-31692659D01*
X28895050Y-31772818D01*
X29437868Y-31230000D01*
X29423726Y-31215858D01*
X29635858Y-31003726D01*
X29650000Y-31017868D01*
X30192818Y-30475050D01*
X30113951Y-30340218D01*
X30123678Y-30336189D01*
X30287463Y-30226751D01*
X30375001Y-30139213D01*
X30375001Y-30717131D01*
X29862132Y-31230000D01*
X30375001Y-31742869D01*
X30375001Y-33234029D01*
X30373428Y-33250000D01*
X30379703Y-33313711D01*
X30398287Y-33374974D01*
X30428465Y-33431434D01*
X30469079Y-33480921D01*
X30518566Y-33521535D01*
X30575026Y-33551713D01*
X30636289Y-33570297D01*
X30684039Y-33575000D01*
X30684040Y-33575000D01*
X30700000Y-33576572D01*
X30715961Y-33575000D01*
X39284040Y-33575000D01*
X39300000Y-33576572D01*
X39363711Y-33570297D01*
X39424974Y-33551713D01*
X39481434Y-33521535D01*
X39530921Y-33480921D01*
X39571535Y-33431434D01*
X39601713Y-33374974D01*
X39620297Y-33313711D01*
X39625000Y-33265961D01*
X39626572Y-33250000D01*
X39625000Y-33234039D01*
X39625000Y-31919214D01*
X39712537Y-32006751D01*
X39876322Y-32116189D01*
X40058311Y-32191571D01*
X40251509Y-32230000D01*
X40448491Y-32230000D01*
X40641689Y-32191571D01*
X40823678Y-32116189D01*
X40987463Y-32006751D01*
X41125000Y-31869214D01*
X41125000Y-32876472D01*
X41083950Y-32917522D01*
X41018287Y-33015793D01*
X40973058Y-33124986D01*
X40950000Y-33240905D01*
X40950000Y-33359095D01*
X40973058Y-33475014D01*
X41018287Y-33584207D01*
X41083950Y-33682478D01*
X41167522Y-33766050D01*
X41265793Y-33831713D01*
X41374986Y-33876942D01*
X41490905Y-33900000D01*
X41609095Y-33900000D01*
X41725014Y-33876942D01*
X41834207Y-33831713D01*
X41932478Y-33766050D01*
X42016050Y-33682478D01*
X42081713Y-33584207D01*
X42126942Y-33475014D01*
X42150000Y-33359095D01*
X42150000Y-33240905D01*
X42126942Y-33124986D01*
X42081713Y-33015793D01*
X42016050Y-32917522D01*
X41975000Y-32876472D01*
X41975000Y-28823528D01*
X42017522Y-28866050D01*
X42115793Y-28931713D01*
X42224986Y-28976942D01*
X42340905Y-29000000D01*
X42459095Y-29000000D01*
X42575014Y-28976942D01*
X42600001Y-28966592D01*
X42600001Y-29218331D01*
X42568287Y-29265793D01*
X42523058Y-29374986D01*
X42500000Y-29490905D01*
X42500000Y-29609095D01*
X42523058Y-29725014D01*
X42568287Y-29834207D01*
X42600001Y-29881670D01*
X42600001Y-32268330D01*
X42568287Y-32315793D01*
X42523058Y-32424986D01*
X42500000Y-32540905D01*
X42500000Y-32659095D01*
X42523058Y-32775014D01*
X42568287Y-32884207D01*
X42633950Y-32982478D01*
X42717522Y-33066050D01*
X42815793Y-33131713D01*
X42924986Y-33176942D01*
X43040905Y-33200000D01*
X43159095Y-33200000D01*
X43275014Y-33176942D01*
X43384207Y-33131713D01*
X43482478Y-33066050D01*
X43566050Y-32982478D01*
X43631713Y-32884207D01*
X43676942Y-32775014D01*
X43700000Y-32659095D01*
X43700000Y-32540905D01*
X43676942Y-32424986D01*
X43631713Y-32315793D01*
X43600000Y-32268331D01*
X43600000Y-29881669D01*
X43631713Y-29834207D01*
X43676942Y-29725014D01*
X43700000Y-29609095D01*
X43700000Y-29490905D01*
X43676942Y-29374986D01*
X43631713Y-29265793D01*
X43600000Y-29218331D01*
X43600000Y-26931669D01*
X43631713Y-26884207D01*
X43676942Y-26775014D01*
X43700000Y-26659095D01*
X43700000Y-26540905D01*
X43676942Y-26424986D01*
X43631713Y-26315793D01*
X43600000Y-26268331D01*
X43600000Y-23931669D01*
X43631713Y-23884207D01*
X43676942Y-23775014D01*
X43700000Y-23659095D01*
X43700000Y-23540905D01*
X43676942Y-23424986D01*
X43631713Y-23315793D01*
X43600000Y-23268331D01*
X43600000Y-22707084D01*
X43611170Y-22695914D01*
X43630253Y-22680253D01*
X43692735Y-22604118D01*
X43739164Y-22517256D01*
X43767754Y-22423006D01*
X43774989Y-22349549D01*
X43777408Y-22324989D01*
X43774989Y-22300429D01*
X43774989Y-21381667D01*
X43806702Y-21334205D01*
X43851931Y-21225012D01*
X43874989Y-21109093D01*
X43874989Y-20990903D01*
X43851931Y-20874984D01*
X43806702Y-20765791D01*
X43774989Y-20718329D01*
X43774989Y-18437208D01*
X44500001Y-19162220D01*
G37*
X44500001Y-19162220D02*
X44500000Y-20268331D01*
X44468287Y-20315793D01*
X44423058Y-20424986D01*
X44400000Y-20540905D01*
X44400000Y-20659095D01*
X44423058Y-20775014D01*
X44468287Y-20884207D01*
X44500001Y-20931670D01*
X44500001Y-23268330D01*
X44468287Y-23315793D01*
X44423058Y-23424986D01*
X44400000Y-23540905D01*
X44400000Y-23659095D01*
X44423058Y-23775014D01*
X44468287Y-23884207D01*
X44500001Y-23931670D01*
X44500001Y-26268331D01*
X44468287Y-26315793D01*
X44423058Y-26424986D01*
X44400000Y-26540905D01*
X44400000Y-26659095D01*
X44423058Y-26775014D01*
X44468287Y-26884207D01*
X44500000Y-26931669D01*
X44500000Y-27183408D01*
X44475014Y-27173058D01*
X44359095Y-27150000D01*
X44240905Y-27150000D01*
X44124986Y-27173058D01*
X44015793Y-27218287D01*
X43917522Y-27283950D01*
X43833950Y-27367522D01*
X43768287Y-27465793D01*
X43723058Y-27574986D01*
X43700000Y-27690905D01*
X43700000Y-27809095D01*
X43723058Y-27925014D01*
X43768287Y-28034207D01*
X43833950Y-28132478D01*
X43875001Y-28173529D01*
X43875000Y-32620873D01*
X43875001Y-32620883D01*
X43875000Y-33723959D01*
X42958959Y-34640001D01*
X26426344Y-34640001D01*
X26443263Y-34623082D01*
X26569116Y-34434729D01*
X26655806Y-34225443D01*
X26700000Y-34003265D01*
X26700000Y-33776735D01*
X26655806Y-33554557D01*
X26606212Y-33434828D01*
X27685763Y-32355278D01*
X27701974Y-32341974D01*
X27755084Y-32277260D01*
X27794548Y-32203427D01*
X27818850Y-32123314D01*
X27825000Y-32060874D01*
X27825000Y-32060868D01*
X27827055Y-32040001D01*
X27825000Y-32019134D01*
X27825000Y-31984950D01*
X29107182Y-31984950D01*
X29187341Y-32121990D01*
X29370249Y-32195111D01*
X29563908Y-32231143D01*
X29760876Y-32228702D01*
X29953583Y-32187881D01*
X30112659Y-32121990D01*
X30192818Y-31984950D01*
X29650000Y-31442132D01*
X29107182Y-31984950D01*
X27825000Y-31984950D01*
X27825000Y-31876040D01*
X28669824Y-31031216D01*
X28648857Y-31143908D01*
X28651298Y-31340876D01*
X28692119Y-31533583D01*
X28758010Y-31692659D01*
X28895050Y-31772818D01*
X29437868Y-31230000D01*
X29423726Y-31215858D01*
X29635858Y-31003726D01*
X29650000Y-31017868D01*
X30192818Y-30475050D01*
X30113951Y-30340218D01*
X30123678Y-30336189D01*
X30287463Y-30226751D01*
X30375001Y-30139213D01*
X30375001Y-30717131D01*
X29862132Y-31230000D01*
X30375001Y-31742869D01*
X30375001Y-33234029D01*
X30373428Y-33250000D01*
X30379703Y-33313711D01*
X30398287Y-33374974D01*
X30428465Y-33431434D01*
X30469079Y-33480921D01*
X30518566Y-33521535D01*
X30575026Y-33551713D01*
X30636289Y-33570297D01*
X30684039Y-33575000D01*
X30684040Y-33575000D01*
X30700000Y-33576572D01*
X30715961Y-33575000D01*
X39284040Y-33575000D01*
X39300000Y-33576572D01*
X39363711Y-33570297D01*
X39424974Y-33551713D01*
X39481434Y-33521535D01*
X39530921Y-33480921D01*
X39571535Y-33431434D01*
X39601713Y-33374974D01*
X39620297Y-33313711D01*
X39625000Y-33265961D01*
X39626572Y-33250000D01*
X39625000Y-33234039D01*
X39625000Y-31919214D01*
X39712537Y-32006751D01*
X39876322Y-32116189D01*
X40058311Y-32191571D01*
X40251509Y-32230000D01*
X40448491Y-32230000D01*
X40641689Y-32191571D01*
X40823678Y-32116189D01*
X40987463Y-32006751D01*
X41125000Y-31869214D01*
X41125000Y-32876472D01*
X41083950Y-32917522D01*
X41018287Y-33015793D01*
X40973058Y-33124986D01*
X40950000Y-33240905D01*
X40950000Y-33359095D01*
X40973058Y-33475014D01*
X41018287Y-33584207D01*
X41083950Y-33682478D01*
X41167522Y-33766050D01*
X41265793Y-33831713D01*
X41374986Y-33876942D01*
X41490905Y-33900000D01*
X41609095Y-33900000D01*
X41725014Y-33876942D01*
X41834207Y-33831713D01*
X41932478Y-33766050D01*
X42016050Y-33682478D01*
X42081713Y-33584207D01*
X42126942Y-33475014D01*
X42150000Y-33359095D01*
X42150000Y-33240905D01*
X42126942Y-33124986D01*
X42081713Y-33015793D01*
X42016050Y-32917522D01*
X41975000Y-32876472D01*
X41975000Y-28823528D01*
X42017522Y-28866050D01*
X42115793Y-28931713D01*
X42224986Y-28976942D01*
X42340905Y-29000000D01*
X42459095Y-29000000D01*
X42575014Y-28976942D01*
X42600001Y-28966592D01*
X42600001Y-29218331D01*
X42568287Y-29265793D01*
X42523058Y-29374986D01*
X42500000Y-29490905D01*
X42500000Y-29609095D01*
X42523058Y-29725014D01*
X42568287Y-29834207D01*
X42600001Y-29881670D01*
X42600001Y-32268330D01*
X42568287Y-32315793D01*
X42523058Y-32424986D01*
X42500000Y-32540905D01*
X42500000Y-32659095D01*
X42523058Y-32775014D01*
X42568287Y-32884207D01*
X42633950Y-32982478D01*
X42717522Y-33066050D01*
X42815793Y-33131713D01*
X42924986Y-33176942D01*
X43040905Y-33200000D01*
X43159095Y-33200000D01*
X43275014Y-33176942D01*
X43384207Y-33131713D01*
X43482478Y-33066050D01*
X43566050Y-32982478D01*
X43631713Y-32884207D01*
X43676942Y-32775014D01*
X43700000Y-32659095D01*
X43700000Y-32540905D01*
X43676942Y-32424986D01*
X43631713Y-32315793D01*
X43600000Y-32268331D01*
X43600000Y-29881669D01*
X43631713Y-29834207D01*
X43676942Y-29725014D01*
X43700000Y-29609095D01*
X43700000Y-29490905D01*
X43676942Y-29374986D01*
X43631713Y-29265793D01*
X43600000Y-29218331D01*
X43600000Y-26931669D01*
X43631713Y-26884207D01*
X43676942Y-26775014D01*
X43700000Y-26659095D01*
X43700000Y-26540905D01*
X43676942Y-26424986D01*
X43631713Y-26315793D01*
X43600000Y-26268331D01*
X43600000Y-23931669D01*
X43631713Y-23884207D01*
X43676942Y-23775014D01*
X43700000Y-23659095D01*
X43700000Y-23540905D01*
X43676942Y-23424986D01*
X43631713Y-23315793D01*
X43600000Y-23268331D01*
X43600000Y-22707084D01*
X43611170Y-22695914D01*
X43630253Y-22680253D01*
X43692735Y-22604118D01*
X43739164Y-22517256D01*
X43767754Y-22423006D01*
X43774989Y-22349549D01*
X43777408Y-22324989D01*
X43774989Y-22300429D01*
X43774989Y-21381667D01*
X43806702Y-21334205D01*
X43851931Y-21225012D01*
X43874989Y-21109093D01*
X43874989Y-20990903D01*
X43851931Y-20874984D01*
X43806702Y-20765791D01*
X43774989Y-20718329D01*
X43774989Y-18437208D01*
X44500001Y-19162220D01*
G36*
X30375000Y-17771011D02*
G01*
X30350000Y-17768549D01*
X28950000Y-17768549D01*
X28891190Y-17774341D01*
X28834640Y-17791496D01*
X28782523Y-17819353D01*
X28736842Y-17856842D01*
X28699353Y-17902523D01*
X28671496Y-17954640D01*
X28654341Y-18011190D01*
X28648549Y-18070000D01*
X28648549Y-19470000D01*
X28654341Y-19528810D01*
X28671496Y-19585360D01*
X28699353Y-19637477D01*
X28736842Y-19683158D01*
X28782523Y-19720647D01*
X28834640Y-19748504D01*
X28891190Y-19765659D01*
X28950000Y-19771451D01*
X29015228Y-19771451D01*
X29012537Y-19773249D01*
X28873249Y-19912537D01*
X28763811Y-20076322D01*
X28688429Y-20258311D01*
X28650000Y-20451509D01*
X28650000Y-20648491D01*
X28688429Y-20841689D01*
X28763811Y-21023678D01*
X28873249Y-21187463D01*
X29012537Y-21326751D01*
X29176322Y-21436189D01*
X29185523Y-21440000D01*
X29176322Y-21443811D01*
X29012537Y-21553249D01*
X28873249Y-21692537D01*
X28763811Y-21856322D01*
X28688429Y-22038311D01*
X28650000Y-22231509D01*
X28650000Y-22428491D01*
X28688429Y-22621689D01*
X28763811Y-22803678D01*
X28873249Y-22967463D01*
X29012537Y-23106751D01*
X29176322Y-23216189D01*
X29185523Y-23220000D01*
X29176322Y-23223811D01*
X29012537Y-23333249D01*
X28873249Y-23472537D01*
X28763811Y-23636322D01*
X28688429Y-23818311D01*
X28650000Y-24011509D01*
X28650000Y-24208491D01*
X28688429Y-24401689D01*
X28763811Y-24583678D01*
X28873249Y-24747463D01*
X29012537Y-24886751D01*
X29176322Y-24996189D01*
X29185523Y-25000000D01*
X29176322Y-25003811D01*
X29012537Y-25113249D01*
X28873249Y-25252537D01*
X28763811Y-25416322D01*
X28688429Y-25598311D01*
X28650000Y-25791509D01*
X28650000Y-25988491D01*
X28688429Y-26181689D01*
X28763811Y-26363678D01*
X28873249Y-26527463D01*
X29012537Y-26666751D01*
X29176322Y-26776189D01*
X29185523Y-26780000D01*
X29176322Y-26783811D01*
X29012537Y-26893249D01*
X28873249Y-27032537D01*
X28763811Y-27196322D01*
X28688429Y-27378311D01*
X28650000Y-27571509D01*
X28650000Y-27768491D01*
X28688429Y-27961689D01*
X28763811Y-28143678D01*
X28873249Y-28307463D01*
X29012537Y-28446751D01*
X29176322Y-28556189D01*
X29185523Y-28560000D01*
X29176322Y-28563811D01*
X29012537Y-28673249D01*
X28873249Y-28812537D01*
X28763811Y-28976322D01*
X28688429Y-29158311D01*
X28650000Y-29351509D01*
X28650000Y-29548491D01*
X28688429Y-29741689D01*
X28708592Y-29790368D01*
X27114239Y-31384721D01*
X27098027Y-31398026D01*
X27044917Y-31462740D01*
X27005453Y-31536573D01*
X26981150Y-31616686D01*
X26975000Y-31679126D01*
X26975000Y-31679133D01*
X26972945Y-31700000D01*
X26975000Y-31720867D01*
X26975000Y-31863959D01*
X26005172Y-32833788D01*
X25885443Y-32784194D01*
X25663265Y-32740000D01*
X25436735Y-32740000D01*
X25214557Y-32784194D01*
X25005271Y-32870884D01*
X24816918Y-32996737D01*
X24799999Y-33013656D01*
X24799999Y-32217777D01*
X24826361Y-32243791D01*
X25014635Y-32367792D01*
X25223483Y-32452680D01*
X25400000Y-32415183D01*
X25400000Y-31500000D01*
X25700000Y-31500000D01*
X25700000Y-32415183D01*
X25876517Y-32452680D01*
X26085365Y-32367792D01*
X26273639Y-32243791D01*
X26434104Y-32085442D01*
X26560594Y-31898831D01*
X26648247Y-31691128D01*
X26652672Y-31676516D01*
X26614483Y-31500000D01*
X25700000Y-31500000D01*
X25400000Y-31500000D01*
X25380000Y-31500000D01*
X25380000Y-31200000D01*
X25400000Y-31200000D01*
X25400000Y-30284817D01*
X25700000Y-30284817D01*
X25700000Y-31200000D01*
X26614483Y-31200000D01*
X26652672Y-31023484D01*
X26648247Y-31008872D01*
X26560594Y-30801169D01*
X26434104Y-30614558D01*
X26273639Y-30456209D01*
X26085365Y-30332208D01*
X25876517Y-30247320D01*
X25700000Y-30284817D01*
X25400000Y-30284817D01*
X25223483Y-30247320D01*
X25014635Y-30332208D01*
X24826361Y-30456209D01*
X24799999Y-30482223D01*
X24799999Y-29686344D01*
X24816918Y-29703263D01*
X25005271Y-29829116D01*
X25214557Y-29915806D01*
X25436735Y-29960000D01*
X25663265Y-29960000D01*
X25885443Y-29915806D01*
X26094729Y-29829116D01*
X26283082Y-29703263D01*
X26443263Y-29543082D01*
X26569116Y-29354729D01*
X26655806Y-29145443D01*
X26700000Y-28923265D01*
X26700000Y-28696735D01*
X26655806Y-28474557D01*
X26569116Y-28265271D01*
X26443263Y-28076918D01*
X26283082Y-27916737D01*
X26094729Y-27790884D01*
X25885443Y-27704194D01*
X25663265Y-27660000D01*
X25436735Y-27660000D01*
X25214557Y-27704194D01*
X25005271Y-27790884D01*
X24816918Y-27916737D01*
X24799999Y-27933656D01*
X24799999Y-27146344D01*
X24816918Y-27163263D01*
X25005271Y-27289116D01*
X25214557Y-27375806D01*
X25436735Y-27420000D01*
X25663265Y-27420000D01*
X25885443Y-27375806D01*
X26094729Y-27289116D01*
X26283082Y-27163263D01*
X26443263Y-27003082D01*
X26569116Y-26814729D01*
X26655806Y-26605443D01*
X26700000Y-26383265D01*
X26700000Y-26156735D01*
X26655806Y-25934557D01*
X26606212Y-25814828D01*
X27910783Y-24510258D01*
X27926995Y-24496953D01*
X27980105Y-24432239D01*
X28017510Y-24362259D01*
X28019569Y-24358407D01*
X28043871Y-24278294D01*
X28044624Y-24270652D01*
X28050021Y-24215853D01*
X28050021Y-24215846D01*
X28052076Y-24194979D01*
X28050021Y-24174112D01*
X28050021Y-17576017D01*
X29561049Y-16064990D01*
X30375000Y-16064990D01*
X30375000Y-17771011D01*
G37*
X30375000Y-17771011D02*
X30350000Y-17768549D01*
X28950000Y-17768549D01*
X28891190Y-17774341D01*
X28834640Y-17791496D01*
X28782523Y-17819353D01*
X28736842Y-17856842D01*
X28699353Y-17902523D01*
X28671496Y-17954640D01*
X28654341Y-18011190D01*
X28648549Y-18070000D01*
X28648549Y-19470000D01*
X28654341Y-19528810D01*
X28671496Y-19585360D01*
X28699353Y-19637477D01*
X28736842Y-19683158D01*
X28782523Y-19720647D01*
X28834640Y-19748504D01*
X28891190Y-19765659D01*
X28950000Y-19771451D01*
X29015228Y-19771451D01*
X29012537Y-19773249D01*
X28873249Y-19912537D01*
X28763811Y-20076322D01*
X28688429Y-20258311D01*
X28650000Y-20451509D01*
X28650000Y-20648491D01*
X28688429Y-20841689D01*
X28763811Y-21023678D01*
X28873249Y-21187463D01*
X29012537Y-21326751D01*
X29176322Y-21436189D01*
X29185523Y-21440000D01*
X29176322Y-21443811D01*
X29012537Y-21553249D01*
X28873249Y-21692537D01*
X28763811Y-21856322D01*
X28688429Y-22038311D01*
X28650000Y-22231509D01*
X28650000Y-22428491D01*
X28688429Y-22621689D01*
X28763811Y-22803678D01*
X28873249Y-22967463D01*
X29012537Y-23106751D01*
X29176322Y-23216189D01*
X29185523Y-23220000D01*
X29176322Y-23223811D01*
X29012537Y-23333249D01*
X28873249Y-23472537D01*
X28763811Y-23636322D01*
X28688429Y-23818311D01*
X28650000Y-24011509D01*
X28650000Y-24208491D01*
X28688429Y-24401689D01*
X28763811Y-24583678D01*
X28873249Y-24747463D01*
X29012537Y-24886751D01*
X29176322Y-24996189D01*
X29185523Y-25000000D01*
X29176322Y-25003811D01*
X29012537Y-25113249D01*
X28873249Y-25252537D01*
X28763811Y-25416322D01*
X28688429Y-25598311D01*
X28650000Y-25791509D01*
X28650000Y-25988491D01*
X28688429Y-26181689D01*
X28763811Y-26363678D01*
X28873249Y-26527463D01*
X29012537Y-26666751D01*
X29176322Y-26776189D01*
X29185523Y-26780000D01*
X29176322Y-26783811D01*
X29012537Y-26893249D01*
X28873249Y-27032537D01*
X28763811Y-27196322D01*
X28688429Y-27378311D01*
X28650000Y-27571509D01*
X28650000Y-27768491D01*
X28688429Y-27961689D01*
X28763811Y-28143678D01*
X28873249Y-28307463D01*
X29012537Y-28446751D01*
X29176322Y-28556189D01*
X29185523Y-28560000D01*
X29176322Y-28563811D01*
X29012537Y-28673249D01*
X28873249Y-28812537D01*
X28763811Y-28976322D01*
X28688429Y-29158311D01*
X28650000Y-29351509D01*
X28650000Y-29548491D01*
X28688429Y-29741689D01*
X28708592Y-29790368D01*
X27114239Y-31384721D01*
X27098027Y-31398026D01*
X27044917Y-31462740D01*
X27005453Y-31536573D01*
X26981150Y-31616686D01*
X26975000Y-31679126D01*
X26975000Y-31679133D01*
X26972945Y-31700000D01*
X26975000Y-31720867D01*
X26975000Y-31863959D01*
X26005172Y-32833788D01*
X25885443Y-32784194D01*
X25663265Y-32740000D01*
X25436735Y-32740000D01*
X25214557Y-32784194D01*
X25005271Y-32870884D01*
X24816918Y-32996737D01*
X24799999Y-33013656D01*
X24799999Y-32217777D01*
X24826361Y-32243791D01*
X25014635Y-32367792D01*
X25223483Y-32452680D01*
X25400000Y-32415183D01*
X25400000Y-31500000D01*
X25700000Y-31500000D01*
X25700000Y-32415183D01*
X25876517Y-32452680D01*
X26085365Y-32367792D01*
X26273639Y-32243791D01*
X26434104Y-32085442D01*
X26560594Y-31898831D01*
X26648247Y-31691128D01*
X26652672Y-31676516D01*
X26614483Y-31500000D01*
X25700000Y-31500000D01*
X25400000Y-31500000D01*
X25380000Y-31500000D01*
X25380000Y-31200000D01*
X25400000Y-31200000D01*
X25400000Y-30284817D01*
X25700000Y-30284817D01*
X25700000Y-31200000D01*
X26614483Y-31200000D01*
X26652672Y-31023484D01*
X26648247Y-31008872D01*
X26560594Y-30801169D01*
X26434104Y-30614558D01*
X26273639Y-30456209D01*
X26085365Y-30332208D01*
X25876517Y-30247320D01*
X25700000Y-30284817D01*
X25400000Y-30284817D01*
X25223483Y-30247320D01*
X25014635Y-30332208D01*
X24826361Y-30456209D01*
X24799999Y-30482223D01*
X24799999Y-29686344D01*
X24816918Y-29703263D01*
X25005271Y-29829116D01*
X25214557Y-29915806D01*
X25436735Y-29960000D01*
X25663265Y-29960000D01*
X25885443Y-29915806D01*
X26094729Y-29829116D01*
X26283082Y-29703263D01*
X26443263Y-29543082D01*
X26569116Y-29354729D01*
X26655806Y-29145443D01*
X26700000Y-28923265D01*
X26700000Y-28696735D01*
X26655806Y-28474557D01*
X26569116Y-28265271D01*
X26443263Y-28076918D01*
X26283082Y-27916737D01*
X26094729Y-27790884D01*
X25885443Y-27704194D01*
X25663265Y-27660000D01*
X25436735Y-27660000D01*
X25214557Y-27704194D01*
X25005271Y-27790884D01*
X24816918Y-27916737D01*
X24799999Y-27933656D01*
X24799999Y-27146344D01*
X24816918Y-27163263D01*
X25005271Y-27289116D01*
X25214557Y-27375806D01*
X25436735Y-27420000D01*
X25663265Y-27420000D01*
X25885443Y-27375806D01*
X26094729Y-27289116D01*
X26283082Y-27163263D01*
X26443263Y-27003082D01*
X26569116Y-26814729D01*
X26655806Y-26605443D01*
X26700000Y-26383265D01*
X26700000Y-26156735D01*
X26655806Y-25934557D01*
X26606212Y-25814828D01*
X27910783Y-24510258D01*
X27926995Y-24496953D01*
X27980105Y-24432239D01*
X28017510Y-24362259D01*
X28019569Y-24358407D01*
X28043871Y-24278294D01*
X28044624Y-24270652D01*
X28050021Y-24215853D01*
X28050021Y-24215846D01*
X28052076Y-24194979D01*
X28050021Y-24174112D01*
X28050021Y-17576017D01*
X29561049Y-16064990D01*
X30375000Y-16064990D01*
X30375000Y-17771011D01*
G36*
X45130805Y-11339384D02*
G01*
X45256629Y-11377373D01*
X45372675Y-11439076D01*
X45474532Y-11522148D01*
X45558310Y-11623418D01*
X45620819Y-11739027D01*
X45659686Y-11864586D01*
X45675001Y-12010295D01*
X45675001Y-13923055D01*
X45559095Y-13900000D01*
X45501041Y-13900000D01*
X45208372Y-13607332D01*
X45195063Y-13591115D01*
X45130349Y-13538005D01*
X45056516Y-13498541D01*
X44976403Y-13474239D01*
X44913963Y-13468089D01*
X44913956Y-13468089D01*
X44893089Y-13466034D01*
X44872222Y-13468089D01*
X39607407Y-13468089D01*
X39586533Y-13466033D01*
X39565659Y-13468089D01*
X39503219Y-13474239D01*
X39423106Y-13498541D01*
X39349273Y-13538005D01*
X39284559Y-13591115D01*
X39271249Y-13607333D01*
X38563612Y-14314970D01*
X35483758Y-14314970D01*
X35663149Y-14240664D01*
X35892448Y-14087451D01*
X36087451Y-13892448D01*
X36240664Y-13663149D01*
X36346199Y-13408365D01*
X36400000Y-13137888D01*
X36400000Y-12862112D01*
X36346199Y-12591635D01*
X36240664Y-12336851D01*
X36087451Y-12107552D01*
X35892448Y-11912549D01*
X35663149Y-11759336D01*
X35408365Y-11653801D01*
X35137888Y-11600000D01*
X34862112Y-11600000D01*
X34591635Y-11653801D01*
X34336851Y-11759336D01*
X34107552Y-11912549D01*
X33912549Y-12107552D01*
X33759336Y-12336851D01*
X33653801Y-12591635D01*
X33600000Y-12862112D01*
X33600000Y-13137888D01*
X33653801Y-13408365D01*
X33759336Y-13663149D01*
X33912549Y-13892448D01*
X34107552Y-14087451D01*
X34336851Y-14240664D01*
X34516242Y-14314970D01*
X29033074Y-14314970D01*
X29012207Y-14312915D01*
X28991340Y-14314970D01*
X28991334Y-14314970D01*
X28937306Y-14320291D01*
X28928893Y-14321120D01*
X28904591Y-14328492D01*
X28848781Y-14345422D01*
X28774948Y-14384886D01*
X28710234Y-14437996D01*
X28696929Y-14454208D01*
X26701451Y-16449687D01*
X26701451Y-15260000D01*
X26695659Y-15201190D01*
X26678504Y-15144640D01*
X26650647Y-15092523D01*
X26613158Y-15046842D01*
X26567477Y-15009353D01*
X26515360Y-14981496D01*
X26458810Y-14964341D01*
X26400000Y-14958549D01*
X24700000Y-14958549D01*
X24641190Y-14964341D01*
X24584640Y-14981496D01*
X24532523Y-15009353D01*
X24486842Y-15046842D01*
X24449353Y-15092523D01*
X24421496Y-15144640D01*
X24404341Y-15201190D01*
X24398549Y-15260000D01*
X24398549Y-16960000D01*
X24404341Y-17018810D01*
X24421496Y-17075360D01*
X24449353Y-17127477D01*
X24486842Y-17173158D01*
X24532523Y-17210647D01*
X24584640Y-17238504D01*
X24641190Y-17255659D01*
X24700000Y-17261451D01*
X26300002Y-17261451D01*
X26300002Y-17298957D01*
X26005172Y-17593788D01*
X25885443Y-17544194D01*
X25663265Y-17500000D01*
X25436735Y-17500000D01*
X25214557Y-17544194D01*
X25005271Y-17630884D01*
X24816918Y-17756737D01*
X24656737Y-17916918D01*
X24530884Y-18105271D01*
X24444194Y-18314557D01*
X24400000Y-18536735D01*
X24400000Y-18763265D01*
X24444194Y-18985443D01*
X24530884Y-19194729D01*
X24656737Y-19383082D01*
X24816918Y-19543263D01*
X25005271Y-19669116D01*
X25214557Y-19755806D01*
X25436735Y-19800000D01*
X25663265Y-19800000D01*
X25885443Y-19755806D01*
X26094729Y-19669116D01*
X26283082Y-19543263D01*
X26443263Y-19383082D01*
X26569116Y-19194729D01*
X26655806Y-18985443D01*
X26700000Y-18763265D01*
X26700000Y-18536735D01*
X26655806Y-18314557D01*
X26606212Y-18194828D01*
X26750012Y-18051028D01*
X26750011Y-19388949D01*
X26005172Y-20133788D01*
X25885443Y-20084194D01*
X25663265Y-20040000D01*
X25436735Y-20040000D01*
X25214557Y-20084194D01*
X25005271Y-20170884D01*
X24816918Y-20296737D01*
X24656737Y-20456918D01*
X24530884Y-20645271D01*
X24444194Y-20854557D01*
X24400000Y-21076735D01*
X24400000Y-21303265D01*
X24444194Y-21525443D01*
X24530884Y-21734729D01*
X24656737Y-21923082D01*
X24816918Y-22083263D01*
X25005271Y-22209116D01*
X25214557Y-22295806D01*
X25436735Y-22340000D01*
X25663265Y-22340000D01*
X25885443Y-22295806D01*
X26094729Y-22209116D01*
X26283082Y-22083263D01*
X26443263Y-21923082D01*
X26569116Y-21734729D01*
X26655806Y-21525443D01*
X26700000Y-21303265D01*
X26700000Y-21076735D01*
X26655806Y-20854557D01*
X26606212Y-20734828D01*
X27200021Y-20141019D01*
X27200022Y-24018937D01*
X26005172Y-25213788D01*
X25885443Y-25164194D01*
X25663265Y-25120000D01*
X25436735Y-25120000D01*
X25214557Y-25164194D01*
X25005271Y-25250884D01*
X24816918Y-25376737D01*
X24799999Y-25393656D01*
X24799999Y-25081041D01*
X25094828Y-24786212D01*
X25214557Y-24835806D01*
X25436735Y-24880000D01*
X25663265Y-24880000D01*
X25885443Y-24835806D01*
X26094729Y-24749116D01*
X26283082Y-24623263D01*
X26443263Y-24463082D01*
X26569116Y-24274729D01*
X26655806Y-24065443D01*
X26700000Y-23843265D01*
X26700000Y-23616735D01*
X26655806Y-23394557D01*
X26569116Y-23185271D01*
X26443263Y-22996918D01*
X26283082Y-22836737D01*
X26094729Y-22710884D01*
X25885443Y-22624194D01*
X25663265Y-22580000D01*
X25436735Y-22580000D01*
X25214557Y-22624194D01*
X25005271Y-22710884D01*
X24816918Y-22836737D01*
X24656737Y-22996918D01*
X24530884Y-23185271D01*
X24444194Y-23394557D01*
X24400000Y-23616735D01*
X24400000Y-23843265D01*
X24444194Y-24065443D01*
X24493788Y-24185172D01*
X24325000Y-24353960D01*
X24325000Y-12015897D01*
X24339384Y-11869195D01*
X24377373Y-11743371D01*
X24439076Y-11627325D01*
X24522148Y-11525468D01*
X24623418Y-11441690D01*
X24739027Y-11379181D01*
X24864586Y-11340314D01*
X25010285Y-11325000D01*
X44984103Y-11325000D01*
X45130805Y-11339384D01*
G37*
X45130805Y-11339384D02*
X45256629Y-11377373D01*
X45372675Y-11439076D01*
X45474532Y-11522148D01*
X45558310Y-11623418D01*
X45620819Y-11739027D01*
X45659686Y-11864586D01*
X45675001Y-12010295D01*
X45675001Y-13923055D01*
X45559095Y-13900000D01*
X45501041Y-13900000D01*
X45208372Y-13607332D01*
X45195063Y-13591115D01*
X45130349Y-13538005D01*
X45056516Y-13498541D01*
X44976403Y-13474239D01*
X44913963Y-13468089D01*
X44913956Y-13468089D01*
X44893089Y-13466034D01*
X44872222Y-13468089D01*
X39607407Y-13468089D01*
X39586533Y-13466033D01*
X39565659Y-13468089D01*
X39503219Y-13474239D01*
X39423106Y-13498541D01*
X39349273Y-13538005D01*
X39284559Y-13591115D01*
X39271249Y-13607333D01*
X38563612Y-14314970D01*
X35483758Y-14314970D01*
X35663149Y-14240664D01*
X35892448Y-14087451D01*
X36087451Y-13892448D01*
X36240664Y-13663149D01*
X36346199Y-13408365D01*
X36400000Y-13137888D01*
X36400000Y-12862112D01*
X36346199Y-12591635D01*
X36240664Y-12336851D01*
X36087451Y-12107552D01*
X35892448Y-11912549D01*
X35663149Y-11759336D01*
X35408365Y-11653801D01*
X35137888Y-11600000D01*
X34862112Y-11600000D01*
X34591635Y-11653801D01*
X34336851Y-11759336D01*
X34107552Y-11912549D01*
X33912549Y-12107552D01*
X33759336Y-12336851D01*
X33653801Y-12591635D01*
X33600000Y-12862112D01*
X33600000Y-13137888D01*
X33653801Y-13408365D01*
X33759336Y-13663149D01*
X33912549Y-13892448D01*
X34107552Y-14087451D01*
X34336851Y-14240664D01*
X34516242Y-14314970D01*
X29033074Y-14314970D01*
X29012207Y-14312915D01*
X28991340Y-14314970D01*
X28991334Y-14314970D01*
X28937306Y-14320291D01*
X28928893Y-14321120D01*
X28904591Y-14328492D01*
X28848781Y-14345422D01*
X28774948Y-14384886D01*
X28710234Y-14437996D01*
X28696929Y-14454208D01*
X26701451Y-16449687D01*
X26701451Y-15260000D01*
X26695659Y-15201190D01*
X26678504Y-15144640D01*
X26650647Y-15092523D01*
X26613158Y-15046842D01*
X26567477Y-15009353D01*
X26515360Y-14981496D01*
X26458810Y-14964341D01*
X26400000Y-14958549D01*
X24700000Y-14958549D01*
X24641190Y-14964341D01*
X24584640Y-14981496D01*
X24532523Y-15009353D01*
X24486842Y-15046842D01*
X24449353Y-15092523D01*
X24421496Y-15144640D01*
X24404341Y-15201190D01*
X24398549Y-15260000D01*
X24398549Y-16960000D01*
X24404341Y-17018810D01*
X24421496Y-17075360D01*
X24449353Y-17127477D01*
X24486842Y-17173158D01*
X24532523Y-17210647D01*
X24584640Y-17238504D01*
X24641190Y-17255659D01*
X24700000Y-17261451D01*
X26300002Y-17261451D01*
X26300002Y-17298957D01*
X26005172Y-17593788D01*
X25885443Y-17544194D01*
X25663265Y-17500000D01*
X25436735Y-17500000D01*
X25214557Y-17544194D01*
X25005271Y-17630884D01*
X24816918Y-17756737D01*
X24656737Y-17916918D01*
X24530884Y-18105271D01*
X24444194Y-18314557D01*
X24400000Y-18536735D01*
X24400000Y-18763265D01*
X24444194Y-18985443D01*
X24530884Y-19194729D01*
X24656737Y-19383082D01*
X24816918Y-19543263D01*
X25005271Y-19669116D01*
X25214557Y-19755806D01*
X25436735Y-19800000D01*
X25663265Y-19800000D01*
X25885443Y-19755806D01*
X26094729Y-19669116D01*
X26283082Y-19543263D01*
X26443263Y-19383082D01*
X26569116Y-19194729D01*
X26655806Y-18985443D01*
X26700000Y-18763265D01*
X26700000Y-18536735D01*
X26655806Y-18314557D01*
X26606212Y-18194828D01*
X26750012Y-18051028D01*
X26750011Y-19388949D01*
X26005172Y-20133788D01*
X25885443Y-20084194D01*
X25663265Y-20040000D01*
X25436735Y-20040000D01*
X25214557Y-20084194D01*
X25005271Y-20170884D01*
X24816918Y-20296737D01*
X24656737Y-20456918D01*
X24530884Y-20645271D01*
X24444194Y-20854557D01*
X24400000Y-21076735D01*
X24400000Y-21303265D01*
X24444194Y-21525443D01*
X24530884Y-21734729D01*
X24656737Y-21923082D01*
X24816918Y-22083263D01*
X25005271Y-22209116D01*
X25214557Y-22295806D01*
X25436735Y-22340000D01*
X25663265Y-22340000D01*
X25885443Y-22295806D01*
X26094729Y-22209116D01*
X26283082Y-22083263D01*
X26443263Y-21923082D01*
X26569116Y-21734729D01*
X26655806Y-21525443D01*
X26700000Y-21303265D01*
X26700000Y-21076735D01*
X26655806Y-20854557D01*
X26606212Y-20734828D01*
X27200021Y-20141019D01*
X27200022Y-24018937D01*
X26005172Y-25213788D01*
X25885443Y-25164194D01*
X25663265Y-25120000D01*
X25436735Y-25120000D01*
X25214557Y-25164194D01*
X25005271Y-25250884D01*
X24816918Y-25376737D01*
X24799999Y-25393656D01*
X24799999Y-25081041D01*
X25094828Y-24786212D01*
X25214557Y-24835806D01*
X25436735Y-24880000D01*
X25663265Y-24880000D01*
X25885443Y-24835806D01*
X26094729Y-24749116D01*
X26283082Y-24623263D01*
X26443263Y-24463082D01*
X26569116Y-24274729D01*
X26655806Y-24065443D01*
X26700000Y-23843265D01*
X26700000Y-23616735D01*
X26655806Y-23394557D01*
X26569116Y-23185271D01*
X26443263Y-22996918D01*
X26283082Y-22836737D01*
X26094729Y-22710884D01*
X25885443Y-22624194D01*
X25663265Y-22580000D01*
X25436735Y-22580000D01*
X25214557Y-22624194D01*
X25005271Y-22710884D01*
X24816918Y-22836737D01*
X24656737Y-22996918D01*
X24530884Y-23185271D01*
X24444194Y-23394557D01*
X24400000Y-23616735D01*
X24400000Y-23843265D01*
X24444194Y-24065443D01*
X24493788Y-24185172D01*
X24325000Y-24353960D01*
X24325000Y-12015897D01*
X24339384Y-11869195D01*
X24377373Y-11743371D01*
X24439076Y-11627325D01*
X24522148Y-11525468D01*
X24623418Y-11441690D01*
X24739027Y-11379181D01*
X24864586Y-11340314D01*
X25010285Y-11325000D01*
X44984103Y-11325000D01*
X45130805Y-11339384D01*
%TD*%
M02*
