M48
; DRILL file {KiCad (5.1.6)-1} date 09/30/20 01:26:53
; FORMAT={-:-/ absolute / inch / decimal}
; #@! TF.CreationDate,2020-09-30T01:26:53+08:00
; #@! TF.GenerationSoftware,Kicad,Pcbnew,(5.1.6)-1
; #@! TF.FileFunction,Plated,1,2,PTH
FMAT,2
INCH
T1C0.0130
T2C0.0276
T3C0.0394
%
G90
G05
T1
X0.9764Y-0.5433
X1.0Y-1.4606
X1.0315Y-0.4744
X1.0551Y-0.8839
X1.0728Y-1.0768
X1.0768Y-1.1575
X1.0866Y-1.3248
X1.1161Y-1.4902
X1.1339Y-0.4626
X1.1673Y-0.6654
X1.1949Y-0.5413
X1.2165Y-1.3425
X1.2205Y-0.5413
X1.2244Y-1.4665
X1.2461Y-0.5413
X1.248Y-0.4626
X1.4744Y-0.5217
X1.4744Y-1.4547
X1.563Y-0.4646
X1.5768Y-0.5925
X1.5768Y-0.6634
X1.5807Y-1.2953
X1.5866Y-1.3642
X1.5984Y-1.4843
X1.6299Y-1.3583
X1.6545Y-0.8268
X1.6594Y-1.1673
X1.6614Y-1.25
X1.6634Y-1.315
X1.6693Y-0.9498
X1.6693Y-1.0
X1.6693Y-1.1181
X1.6715Y-0.6907
X1.6732Y-0.6535
X1.6969Y-0.9291
X1.6969Y-1.0472
X1.6969Y-1.1634
X1.6969Y-1.2835
X1.7037Y-0.8287
X1.7106Y-1.4862
X1.7185Y-1.313
X1.7282Y-0.6278
X1.7283Y-0.4626
X1.7284Y-0.5963
X1.7362Y-1.0
X1.7441Y-1.0925
X1.7507Y-0.5741
X1.7717Y-0.811
X1.7717Y-0.9291
X1.7717Y-1.0472
X1.7717Y-1.1654
X1.7717Y-1.2835
X1.7795Y-1.4685
X1.7815Y-1.3622
X1.7854Y-0.563
X1.7894Y-0.689
T2
X1.1673Y-0.739
X1.1673Y-0.8091
X1.1673Y-0.8791
X1.1673Y-0.9492
X1.1673Y-1.0193
X1.1673Y-1.0894
X1.1673Y-1.1594
X1.1673Y-1.2295
X1.5886Y-0.739
X1.5886Y-0.8091
X1.5886Y-0.8791
X1.5886Y-0.9492
X1.5886Y-1.0193
X1.5886Y-1.0894
X1.5886Y-1.1594
X1.5886Y-1.2295
T3
X1.0059Y-0.6343
X1.0059Y-0.7343
X1.0059Y-0.8343
X1.0059Y-0.9343
X1.0059Y-1.0343
X1.0059Y-1.1343
X1.0059Y-1.2343
X1.0059Y-1.3343
T0
M30
