%TF.GenerationSoftware,KiCad,Pcbnew,(5.1.6)-1*%
%TF.CreationDate,2020-10-04T19:05:28+08:00*%
%TF.ProjectId,Ogen,4f67656e-2e6b-4696-9361-645f70636258,rev?*%
%TF.SameCoordinates,Original*%
%TF.FileFunction,Legend,Bot*%
%TF.FilePolarity,Positive*%
%FSLAX46Y46*%
G04 Gerber Fmt 4.6, Leading zero omitted, Abs format (unit mm)*
G04 Created by KiCad (PCBNEW (5.1.6)-1) date 2020-10-04 19:05:28*
%MOMM*%
%LPD*%
G01*
G04 APERTURE LIST*
%ADD10C,0.080000*%
%ADD11C,0.100000*%
%ADD12C,0.010000*%
G04 APERTURE END LIST*
D10*
X45166666Y-17566666D02*
X44766666Y-17566666D01*
X44966666Y-18266666D02*
X44966666Y-17566666D01*
X44533333Y-18266666D02*
X44533333Y-17566666D01*
X44233333Y-18266666D02*
X44233333Y-17900000D01*
X44266666Y-17833333D01*
X44333333Y-17800000D01*
X44433333Y-17800000D01*
X44500000Y-17833333D01*
X44533333Y-17866666D01*
X43900000Y-18266666D02*
X43900000Y-17800000D01*
X43900000Y-17566666D02*
X43933333Y-17600000D01*
X43900000Y-17633333D01*
X43866666Y-17600000D01*
X43900000Y-17566666D01*
X43900000Y-17633333D01*
X43600000Y-18233333D02*
X43533333Y-18266666D01*
X43400000Y-18266666D01*
X43333333Y-18233333D01*
X43300000Y-18166666D01*
X43300000Y-18133333D01*
X43333333Y-18066666D01*
X43400000Y-18033333D01*
X43500000Y-18033333D01*
X43566666Y-18000000D01*
X43600000Y-17933333D01*
X43600000Y-17900000D01*
X43566666Y-17833333D01*
X43500000Y-17800000D01*
X43400000Y-17800000D01*
X43333333Y-17833333D01*
X42533333Y-17566666D02*
X42366666Y-18266666D01*
X42233333Y-17766666D01*
X42100000Y-18266666D01*
X41933333Y-17566666D01*
X41366666Y-18266666D02*
X41366666Y-17900000D01*
X41400000Y-17833333D01*
X41466666Y-17800000D01*
X41600000Y-17800000D01*
X41666666Y-17833333D01*
X41366666Y-18233333D02*
X41433333Y-18266666D01*
X41600000Y-18266666D01*
X41666666Y-18233333D01*
X41700000Y-18166666D01*
X41700000Y-18100000D01*
X41666666Y-18033333D01*
X41600000Y-18000000D01*
X41433333Y-18000000D01*
X41366666Y-17966666D01*
X41100000Y-17800000D02*
X40933333Y-18266666D01*
X40766666Y-17800000D02*
X40933333Y-18266666D01*
X41000000Y-18433333D01*
X41033333Y-18466666D01*
X41100000Y-18500000D01*
X39966666Y-17566666D02*
X39966666Y-18133333D01*
X39933333Y-18200000D01*
X39900000Y-18233333D01*
X39833333Y-18266666D01*
X39700000Y-18266666D01*
X39633333Y-18233333D01*
X39600000Y-18200000D01*
X39566666Y-18133333D01*
X39566666Y-17566666D01*
X39233333Y-17800000D02*
X39233333Y-18500000D01*
X39233333Y-17833333D02*
X39166666Y-17800000D01*
X39033333Y-17800000D01*
X38966666Y-17833333D01*
X38933333Y-17866666D01*
X38900000Y-17933333D01*
X38900000Y-18133333D01*
X38933333Y-18200000D01*
X38966666Y-18233333D01*
X39033333Y-18266666D01*
X39166666Y-18266666D01*
X39233333Y-18233333D01*
D11*
G36*
X43000000Y-17300000D02*
G01*
X41000000Y-17300000D01*
X42000001Y-16299998D01*
X43000000Y-17300000D01*
G37*
X43000000Y-17300000D02*
X41000000Y-17300000D01*
X42000001Y-16299998D01*
X43000000Y-17300000D01*
D10*
X43033332Y-38496666D02*
X42799999Y-39196666D01*
X42566665Y-38496666D01*
X41933332Y-39130000D02*
X41966665Y-39163333D01*
X42066665Y-39196666D01*
X42133332Y-39196666D01*
X42233332Y-39163333D01*
X42299999Y-39096666D01*
X42333332Y-39030000D01*
X42366665Y-38896666D01*
X42366665Y-38796666D01*
X42333332Y-38663333D01*
X42299999Y-38596666D01*
X42233332Y-38530000D01*
X42133332Y-38496666D01*
X42066665Y-38496666D01*
X41966665Y-38530000D01*
X41933332Y-38563333D01*
X41233332Y-39130000D02*
X41266665Y-39163333D01*
X41366665Y-39196666D01*
X41433332Y-39196666D01*
X41533332Y-39163333D01*
X41599999Y-39096666D01*
X41633332Y-39030000D01*
X41666665Y-38896666D01*
X41666665Y-38796666D01*
X41633332Y-38663333D01*
X41599999Y-38596666D01*
X41533332Y-38530000D01*
X41433332Y-38496666D01*
X41366665Y-38496666D01*
X41266665Y-38530000D01*
X41233332Y-38563333D01*
X42833332Y-36656664D02*
X42833332Y-35956664D01*
X42599999Y-36456664D01*
X42366665Y-35956664D01*
X42366665Y-36656664D01*
X42033332Y-36656664D02*
X42033332Y-35956664D01*
X41733332Y-36623331D02*
X41633332Y-36656664D01*
X41466665Y-36656664D01*
X41399999Y-36623331D01*
X41366665Y-36589998D01*
X41333332Y-36523331D01*
X41333332Y-36456664D01*
X41366665Y-36389998D01*
X41399999Y-36356664D01*
X41466665Y-36323331D01*
X41599999Y-36289998D01*
X41666665Y-36256664D01*
X41699999Y-36223331D01*
X41733332Y-36156664D01*
X41733332Y-36089998D01*
X41699999Y-36023331D01*
X41666665Y-35989998D01*
X41599999Y-35956664D01*
X41433332Y-35956664D01*
X41333332Y-35989998D01*
X43033331Y-34116667D02*
X43033331Y-33416667D01*
X42799998Y-33916667D01*
X42566664Y-33416667D01*
X42566664Y-34116667D01*
X42099998Y-33416667D02*
X41966664Y-33416667D01*
X41899998Y-33450001D01*
X41833331Y-33516667D01*
X41799998Y-33650001D01*
X41799998Y-33883334D01*
X41833331Y-34016667D01*
X41899998Y-34083334D01*
X41966664Y-34116667D01*
X42099998Y-34116667D01*
X42166664Y-34083334D01*
X42233331Y-34016667D01*
X42266664Y-33883334D01*
X42266664Y-33650001D01*
X42233331Y-33516667D01*
X42166664Y-33450001D01*
X42099998Y-33416667D01*
X41533331Y-34083334D02*
X41433331Y-34116667D01*
X41266664Y-34116667D01*
X41199998Y-34083334D01*
X41166664Y-34050001D01*
X41133331Y-33983334D01*
X41133331Y-33916667D01*
X41166664Y-33850001D01*
X41199998Y-33816667D01*
X41266664Y-33783334D01*
X41399998Y-33750001D01*
X41466664Y-33716667D01*
X41499998Y-33683334D01*
X41533331Y-33616667D01*
X41533331Y-33550001D01*
X41499998Y-33483334D01*
X41466664Y-33450001D01*
X41399998Y-33416667D01*
X41233331Y-33416667D01*
X41133331Y-33450001D01*
X42933333Y-31543332D02*
X42833333Y-31576665D01*
X42666666Y-31576665D01*
X42600000Y-31543332D01*
X42566666Y-31509999D01*
X42533333Y-31443332D01*
X42533333Y-31376665D01*
X42566666Y-31309999D01*
X42600000Y-31276665D01*
X42666666Y-31243332D01*
X42800000Y-31209999D01*
X42866666Y-31176665D01*
X42900000Y-31143332D01*
X42933333Y-31076665D01*
X42933333Y-31009999D01*
X42900000Y-30943332D01*
X42866666Y-30909999D01*
X42800000Y-30876665D01*
X42633333Y-30876665D01*
X42533333Y-30909999D01*
X41833333Y-31509999D02*
X41866666Y-31543332D01*
X41966666Y-31576665D01*
X42033333Y-31576665D01*
X42133333Y-31543332D01*
X42200000Y-31476665D01*
X42233333Y-31409999D01*
X42266666Y-31276665D01*
X42266666Y-31176665D01*
X42233333Y-31043332D01*
X42200000Y-30976665D01*
X42133333Y-30909999D01*
X42033333Y-30876665D01*
X41966666Y-30876665D01*
X41866666Y-30909999D01*
X41833333Y-30943332D01*
X41200000Y-31576665D02*
X41533333Y-31576665D01*
X41533333Y-30876665D01*
X42633332Y-29003331D02*
X42533332Y-29036664D01*
X42366665Y-29036664D01*
X42299999Y-29003331D01*
X42266665Y-28969998D01*
X42233332Y-28903331D01*
X42233332Y-28836664D01*
X42266665Y-28769998D01*
X42299999Y-28736664D01*
X42366665Y-28703331D01*
X42499999Y-28669998D01*
X42566665Y-28636664D01*
X42599999Y-28603331D01*
X42633332Y-28536664D01*
X42633332Y-28469998D01*
X42599999Y-28403331D01*
X42566665Y-28369998D01*
X42499999Y-28336664D01*
X42333332Y-28336664D01*
X42233332Y-28369998D01*
X41966665Y-29003331D02*
X41866665Y-29036664D01*
X41699999Y-29036664D01*
X41633332Y-29003331D01*
X41599999Y-28969998D01*
X41566665Y-28903331D01*
X41566665Y-28836664D01*
X41599999Y-28769998D01*
X41633332Y-28736664D01*
X41699999Y-28703331D01*
X41833332Y-28669998D01*
X41899999Y-28636664D01*
X41933332Y-28603331D01*
X41966665Y-28536664D01*
X41966665Y-28469998D01*
X41933332Y-28403331D01*
X41899999Y-28369998D01*
X41833332Y-28336664D01*
X41666665Y-28336664D01*
X41566665Y-28369998D01*
X42966669Y-26496667D02*
X42966669Y-25796667D01*
X42733336Y-26296667D01*
X42500003Y-25796667D01*
X42500003Y-26496667D01*
X42033336Y-25796667D02*
X41900003Y-25796667D01*
X41833336Y-25830001D01*
X41766669Y-25896667D01*
X41733336Y-26030001D01*
X41733336Y-26263334D01*
X41766669Y-26396667D01*
X41833336Y-26463334D01*
X41900003Y-26496667D01*
X42033336Y-26496667D01*
X42100003Y-26463334D01*
X42166669Y-26396667D01*
X42200003Y-26263334D01*
X42200003Y-26030001D01*
X42166669Y-25896667D01*
X42100003Y-25830001D01*
X42033336Y-25796667D01*
X41533336Y-25796667D02*
X41133336Y-25796667D01*
X41333336Y-26496667D02*
X41333336Y-25796667D01*
X42633333Y-23290000D02*
X42700000Y-23256666D01*
X42800000Y-23256666D01*
X42900000Y-23290000D01*
X42966666Y-23356666D01*
X43000000Y-23423333D01*
X43033333Y-23556666D01*
X43033333Y-23656666D01*
X43000000Y-23790000D01*
X42966666Y-23856666D01*
X42900000Y-23923333D01*
X42800000Y-23956666D01*
X42733333Y-23956666D01*
X42633333Y-23923333D01*
X42600000Y-23890000D01*
X42600000Y-23656666D01*
X42733333Y-23656666D01*
X42300000Y-23956666D02*
X42300000Y-23256666D01*
X41900000Y-23956666D01*
X41900000Y-23256666D01*
X41566666Y-23956666D02*
X41566666Y-23256666D01*
X41400000Y-23256666D01*
X41300000Y-23290000D01*
X41233333Y-23356666D01*
X41200000Y-23423333D01*
X41166666Y-23556666D01*
X41166666Y-23656666D01*
X41200000Y-23790000D01*
X41233333Y-23856666D01*
X41300000Y-23923333D01*
X41400000Y-23956666D01*
X41566666Y-23956666D01*
X42533334Y-21416665D02*
X42766667Y-21083332D01*
X42933334Y-21416665D02*
X42933334Y-20716665D01*
X42666667Y-20716665D01*
X42600001Y-20749999D01*
X42566667Y-20783332D01*
X42533334Y-20849999D01*
X42533334Y-20949999D01*
X42566667Y-21016665D01*
X42600001Y-21049999D01*
X42666667Y-21083332D01*
X42933334Y-21083332D01*
X42233334Y-21049999D02*
X42000001Y-21049999D01*
X41900001Y-21416665D02*
X42233334Y-21416665D01*
X42233334Y-20716665D01*
X41900001Y-20716665D01*
X41633334Y-21383332D02*
X41533334Y-21416665D01*
X41366667Y-21416665D01*
X41300001Y-21383332D01*
X41266667Y-21349999D01*
X41233334Y-21283332D01*
X41233334Y-21216665D01*
X41266667Y-21149999D01*
X41300001Y-21116665D01*
X41366667Y-21083332D01*
X41500001Y-21049999D01*
X41566667Y-21016665D01*
X41600001Y-20983332D01*
X41633334Y-20916665D01*
X41633334Y-20849999D01*
X41600001Y-20783332D01*
X41566667Y-20749999D01*
X41500001Y-20716665D01*
X41333334Y-20716665D01*
X41233334Y-20749999D01*
X28013333Y-34266666D02*
X28013333Y-34133333D01*
X27980000Y-34066666D01*
X27913333Y-34000000D01*
X27780000Y-33966666D01*
X27546666Y-33966666D01*
X27413333Y-34000000D01*
X27346666Y-34066666D01*
X27313333Y-34133333D01*
X27313333Y-34266666D01*
X27346666Y-34333333D01*
X27413333Y-34400000D01*
X27546666Y-34433333D01*
X27780000Y-34433333D01*
X27913333Y-34400000D01*
X27980000Y-34333333D01*
X28013333Y-34266666D01*
X27780000Y-33366666D02*
X27213333Y-33366666D01*
X27146666Y-33400000D01*
X27113333Y-33433333D01*
X27080000Y-33500000D01*
X27080000Y-33600000D01*
X27113333Y-33666666D01*
X27346666Y-33366666D02*
X27313333Y-33433333D01*
X27313333Y-33566666D01*
X27346666Y-33633333D01*
X27380000Y-33666666D01*
X27446666Y-33700000D01*
X27646666Y-33700000D01*
X27713333Y-33666666D01*
X27746666Y-33633333D01*
X27780000Y-33566666D01*
X27780000Y-33433333D01*
X27746666Y-33366666D01*
X27346666Y-32766666D02*
X27313333Y-32833333D01*
X27313333Y-32966666D01*
X27346666Y-33033333D01*
X27413333Y-33066666D01*
X27680000Y-33066666D01*
X27746666Y-33033333D01*
X27780000Y-32966666D01*
X27780000Y-32833333D01*
X27746666Y-32766666D01*
X27680000Y-32733333D01*
X27613333Y-32733333D01*
X27546666Y-33066666D01*
X27780000Y-32433333D02*
X27313333Y-32433333D01*
X27713333Y-32433333D02*
X27746666Y-32400000D01*
X27780000Y-32333333D01*
X27780000Y-32233333D01*
X27746666Y-32166666D01*
X27680000Y-32133333D01*
X27313333Y-32133333D01*
X27313333Y-31266666D02*
X28013333Y-31266666D01*
X28013333Y-30999999D01*
X27980000Y-30933333D01*
X27946666Y-30899999D01*
X27880000Y-30866666D01*
X27780000Y-30866666D01*
X27713333Y-30899999D01*
X27680000Y-30933333D01*
X27646666Y-30999999D01*
X27646666Y-31266666D01*
X27313333Y-30566666D02*
X28013333Y-30566666D01*
X27513333Y-30333333D01*
X28013333Y-30099999D01*
X27313333Y-30099999D01*
X28013333Y-29833333D02*
X27313333Y-29666666D01*
X27813333Y-29533333D01*
X27313333Y-29399999D01*
X28013333Y-29233333D01*
X28013333Y-29033333D02*
X28013333Y-28599999D01*
X27746666Y-28833333D01*
X27746666Y-28733333D01*
X27713333Y-28666666D01*
X27680000Y-28633333D01*
X27613333Y-28599999D01*
X27446666Y-28599999D01*
X27380000Y-28633333D01*
X27346666Y-28666666D01*
X27313333Y-28733333D01*
X27313333Y-28933333D01*
X27346666Y-28999999D01*
X27380000Y-29033333D01*
X28013333Y-28366666D02*
X28013333Y-27933333D01*
X27746666Y-28166666D01*
X27746666Y-28066666D01*
X27713333Y-27999999D01*
X27680000Y-27966666D01*
X27613333Y-27933333D01*
X27446666Y-27933333D01*
X27380000Y-27966666D01*
X27346666Y-27999999D01*
X27313333Y-28066666D01*
X27313333Y-28266666D01*
X27346666Y-28333333D01*
X27380000Y-28366666D01*
X28013333Y-27333333D02*
X28013333Y-27466666D01*
X27980000Y-27533333D01*
X27946666Y-27566666D01*
X27846666Y-27633333D01*
X27713333Y-27666666D01*
X27446666Y-27666666D01*
X27380000Y-27633333D01*
X27346666Y-27599999D01*
X27313333Y-27533333D01*
X27313333Y-27399999D01*
X27346666Y-27333333D01*
X27380000Y-27299999D01*
X27446666Y-27266666D01*
X27613333Y-27266666D01*
X27680000Y-27299999D01*
X27713333Y-27333333D01*
X27746666Y-27399999D01*
X27746666Y-27533333D01*
X27713333Y-27599999D01*
X27680000Y-27633333D01*
X27613333Y-27666666D01*
X28013333Y-26833333D02*
X28013333Y-26766666D01*
X27980000Y-26699999D01*
X27946666Y-26666666D01*
X27880000Y-26633333D01*
X27746666Y-26599999D01*
X27580000Y-26599999D01*
X27446666Y-26633333D01*
X27380000Y-26666666D01*
X27346666Y-26699999D01*
X27313333Y-26766666D01*
X27313333Y-26833333D01*
X27346666Y-26899999D01*
X27380000Y-26933333D01*
X27446666Y-26966666D01*
X27580000Y-26999999D01*
X27746666Y-26999999D01*
X27880000Y-26966666D01*
X27946666Y-26933333D01*
X27980000Y-26899999D01*
X28013333Y-26833333D01*
X27313333Y-26299999D02*
X28013333Y-26299999D01*
X28013333Y-26133333D01*
X27980000Y-26033333D01*
X27913333Y-25966666D01*
X27846666Y-25933333D01*
X27713333Y-25899999D01*
X27613333Y-25899999D01*
X27480000Y-25933333D01*
X27413333Y-25966666D01*
X27346666Y-26033333D01*
X27313333Y-26133333D01*
X27313333Y-26299999D01*
X27313333Y-25599999D02*
X28013333Y-25599999D01*
X27513333Y-25366666D01*
X28013333Y-25133333D01*
X27313333Y-25133333D01*
X27580000Y-24799999D02*
X27580000Y-24266666D01*
X28013333Y-24033333D02*
X28013333Y-23633333D01*
X27313333Y-23833333D02*
X28013333Y-23833333D01*
X27946666Y-23433333D02*
X27980000Y-23399999D01*
X28013333Y-23333333D01*
X28013333Y-23166666D01*
X27980000Y-23099999D01*
X27946666Y-23066666D01*
X27880000Y-23033333D01*
X27813333Y-23033333D01*
X27713333Y-23066666D01*
X27313333Y-23466666D01*
X27313333Y-23033333D01*
X27246666Y-22266666D02*
X27280000Y-22333333D01*
X27346666Y-22399999D01*
X27446666Y-22499999D01*
X27480000Y-22566666D01*
X27480000Y-22633333D01*
X27313333Y-22599999D02*
X27346666Y-22666666D01*
X27413333Y-22733333D01*
X27546666Y-22766666D01*
X27780000Y-22766666D01*
X27913333Y-22733333D01*
X27980000Y-22666666D01*
X28013333Y-22599999D01*
X28013333Y-22466666D01*
X27980000Y-22399999D01*
X27913333Y-22333333D01*
X27780000Y-22299999D01*
X27546666Y-22299999D01*
X27413333Y-22333333D01*
X27346666Y-22399999D01*
X27313333Y-22466666D01*
X27313333Y-22599999D01*
X28013333Y-21999999D02*
X27446666Y-21999999D01*
X27380000Y-21966666D01*
X27346666Y-21933333D01*
X27313333Y-21866666D01*
X27313333Y-21733333D01*
X27346666Y-21666666D01*
X27380000Y-21633333D01*
X27446666Y-21599999D01*
X28013333Y-21599999D01*
X26216666Y-33066666D02*
X26183333Y-32966666D01*
X26183333Y-32800000D01*
X26216666Y-32733333D01*
X26250000Y-32700000D01*
X26316666Y-32666666D01*
X26383333Y-32666666D01*
X26450000Y-32700000D01*
X26483333Y-32733333D01*
X26516666Y-32800000D01*
X26550000Y-32933333D01*
X26583333Y-33000000D01*
X26616666Y-33033333D01*
X26683333Y-33066666D01*
X26750000Y-33066666D01*
X26816666Y-33033333D01*
X26850000Y-33000000D01*
X26883333Y-32933333D01*
X26883333Y-32766666D01*
X26850000Y-32666666D01*
X26183333Y-32366666D02*
X26883333Y-32366666D01*
X26883333Y-32100000D01*
X26850000Y-32033333D01*
X26816666Y-32000000D01*
X26750000Y-31966666D01*
X26650000Y-31966666D01*
X26583333Y-32000000D01*
X26550000Y-32033333D01*
X26516666Y-32100000D01*
X26516666Y-32366666D01*
X26183333Y-31666666D02*
X26883333Y-31666666D01*
X26550000Y-30566666D02*
X26516666Y-30466666D01*
X26483333Y-30433333D01*
X26416666Y-30400000D01*
X26316666Y-30400000D01*
X26250000Y-30433333D01*
X26216666Y-30466666D01*
X26183333Y-30533333D01*
X26183333Y-30800000D01*
X26883333Y-30800000D01*
X26883333Y-30566666D01*
X26850000Y-30500000D01*
X26816666Y-30466666D01*
X26750000Y-30433333D01*
X26683333Y-30433333D01*
X26616666Y-30466666D01*
X26583333Y-30500000D01*
X26550000Y-30566666D01*
X26550000Y-30800000D01*
X26183333Y-30100000D02*
X26650000Y-30100000D01*
X26516666Y-30100000D02*
X26583333Y-30066666D01*
X26616666Y-30033333D01*
X26650000Y-29966666D01*
X26650000Y-29900000D01*
X26216666Y-29400000D02*
X26183333Y-29466666D01*
X26183333Y-29600000D01*
X26216666Y-29666666D01*
X26283333Y-29700000D01*
X26550000Y-29700000D01*
X26616666Y-29666666D01*
X26650000Y-29600000D01*
X26650000Y-29466666D01*
X26616666Y-29400000D01*
X26550000Y-29366666D01*
X26483333Y-29366666D01*
X26416666Y-29700000D01*
X26183333Y-28766666D02*
X26550000Y-28766666D01*
X26616666Y-28800000D01*
X26650000Y-28866666D01*
X26650000Y-29000000D01*
X26616666Y-29066666D01*
X26216666Y-28766666D02*
X26183333Y-28833333D01*
X26183333Y-29000000D01*
X26216666Y-29066666D01*
X26283333Y-29100000D01*
X26350000Y-29100000D01*
X26416666Y-29066666D01*
X26450000Y-29000000D01*
X26450000Y-28833333D01*
X26483333Y-28766666D01*
X26183333Y-28433333D02*
X26883333Y-28433333D01*
X26450000Y-28366666D02*
X26183333Y-28166666D01*
X26650000Y-28166666D02*
X26383333Y-28433333D01*
X26183333Y-27766666D02*
X26216666Y-27833333D01*
X26250000Y-27866666D01*
X26316666Y-27900000D01*
X26516666Y-27900000D01*
X26583333Y-27866666D01*
X26616666Y-27833333D01*
X26650000Y-27766666D01*
X26650000Y-27666666D01*
X26616666Y-27600000D01*
X26583333Y-27566666D01*
X26516666Y-27533333D01*
X26316666Y-27533333D01*
X26250000Y-27566666D01*
X26216666Y-27600000D01*
X26183333Y-27666666D01*
X26183333Y-27766666D01*
X26650000Y-26933333D02*
X26183333Y-26933333D01*
X26650000Y-27233333D02*
X26283333Y-27233333D01*
X26216666Y-27200000D01*
X26183333Y-27133333D01*
X26183333Y-27033333D01*
X26216666Y-26966666D01*
X26250000Y-26933333D01*
X26650000Y-26700000D02*
X26650000Y-26433333D01*
X26883333Y-26600000D02*
X26283333Y-26600000D01*
X26216666Y-26566666D01*
X26183333Y-26500000D01*
X26183333Y-26433333D01*
X26550000Y-25433333D02*
X26516666Y-25333333D01*
X26483333Y-25300000D01*
X26416666Y-25266666D01*
X26316666Y-25266666D01*
X26250000Y-25300000D01*
X26216666Y-25333333D01*
X26183333Y-25400000D01*
X26183333Y-25666666D01*
X26883333Y-25666666D01*
X26883333Y-25433333D01*
X26850000Y-25366666D01*
X26816666Y-25333333D01*
X26750000Y-25300000D01*
X26683333Y-25300000D01*
X26616666Y-25333333D01*
X26583333Y-25366666D01*
X26550000Y-25433333D01*
X26550000Y-25666666D01*
X26183333Y-24866666D02*
X26216666Y-24933333D01*
X26250000Y-24966666D01*
X26316666Y-25000000D01*
X26516666Y-25000000D01*
X26583333Y-24966666D01*
X26616666Y-24933333D01*
X26650000Y-24866666D01*
X26650000Y-24766666D01*
X26616666Y-24700000D01*
X26583333Y-24666666D01*
X26516666Y-24633333D01*
X26316666Y-24633333D01*
X26250000Y-24666666D01*
X26216666Y-24700000D01*
X26183333Y-24766666D01*
X26183333Y-24866666D01*
X26183333Y-24033333D02*
X26550000Y-24033333D01*
X26616666Y-24066666D01*
X26650000Y-24133333D01*
X26650000Y-24266666D01*
X26616666Y-24333333D01*
X26216666Y-24033333D02*
X26183333Y-24100000D01*
X26183333Y-24266666D01*
X26216666Y-24333333D01*
X26283333Y-24366666D01*
X26350000Y-24366666D01*
X26416666Y-24333333D01*
X26450000Y-24266666D01*
X26450000Y-24100000D01*
X26483333Y-24033333D01*
X26183333Y-23700000D02*
X26650000Y-23700000D01*
X26516666Y-23700000D02*
X26583333Y-23666666D01*
X26616666Y-23633333D01*
X26650000Y-23566666D01*
X26650000Y-23500000D01*
X26183333Y-22966666D02*
X26883333Y-22966666D01*
X26216666Y-22966666D02*
X26183333Y-23033333D01*
X26183333Y-23166666D01*
X26216666Y-23233333D01*
X26250000Y-23266666D01*
X26316666Y-23300000D01*
X26516666Y-23300000D01*
X26583333Y-23266666D01*
X26616666Y-23233333D01*
X26650000Y-23166666D01*
X26650000Y-23033333D01*
X26616666Y-22966666D01*
X25753333Y-33800000D02*
X25053333Y-33566666D01*
X25753333Y-33333333D01*
X25053333Y-32733333D02*
X25053333Y-33133333D01*
X25053333Y-32933333D02*
X25753333Y-32933333D01*
X25653333Y-33000000D01*
X25586666Y-33066666D01*
X25553333Y-33133333D01*
X25120000Y-32433333D02*
X25086666Y-32400000D01*
X25053333Y-32433333D01*
X25086666Y-32466666D01*
X25120000Y-32433333D01*
X25053333Y-32433333D01*
X25753333Y-31966666D02*
X25753333Y-31900000D01*
X25720000Y-31833333D01*
X25686666Y-31800000D01*
X25620000Y-31766666D01*
X25486666Y-31733333D01*
X25320000Y-31733333D01*
X25186666Y-31766666D01*
X25120000Y-31800000D01*
X25086666Y-31833333D01*
X25053333Y-31900000D01*
X25053333Y-31966666D01*
X25086666Y-32033333D01*
X25120000Y-32066666D01*
X25186666Y-32100000D01*
X25320000Y-32133333D01*
X25486666Y-32133333D01*
X25620000Y-32100000D01*
X25686666Y-32066666D01*
X25720000Y-32033333D01*
X25753333Y-31966666D01*
X25053333Y-30900000D02*
X25753333Y-30900000D01*
X25753333Y-30733333D01*
X25720000Y-30633333D01*
X25653333Y-30566666D01*
X25586666Y-30533333D01*
X25453333Y-30500000D01*
X25353333Y-30500000D01*
X25220000Y-30533333D01*
X25153333Y-30566666D01*
X25086666Y-30633333D01*
X25053333Y-30733333D01*
X25053333Y-30900000D01*
X25086666Y-29933333D02*
X25053333Y-30000000D01*
X25053333Y-30133333D01*
X25086666Y-30200000D01*
X25153333Y-30233333D01*
X25420000Y-30233333D01*
X25486666Y-30200000D01*
X25520000Y-30133333D01*
X25520000Y-30000000D01*
X25486666Y-29933333D01*
X25420000Y-29900000D01*
X25353333Y-29900000D01*
X25286666Y-30233333D01*
X25086666Y-29633333D02*
X25053333Y-29566666D01*
X25053333Y-29433333D01*
X25086666Y-29366666D01*
X25153333Y-29333333D01*
X25186666Y-29333333D01*
X25253333Y-29366666D01*
X25286666Y-29433333D01*
X25286666Y-29533333D01*
X25320000Y-29600000D01*
X25386666Y-29633333D01*
X25420000Y-29633333D01*
X25486666Y-29600000D01*
X25520000Y-29533333D01*
X25520000Y-29433333D01*
X25486666Y-29366666D01*
X25053333Y-29033333D02*
X25520000Y-29033333D01*
X25753333Y-29033333D02*
X25720000Y-29066666D01*
X25686666Y-29033333D01*
X25720000Y-29000000D01*
X25753333Y-29033333D01*
X25686666Y-29033333D01*
X25520000Y-28400000D02*
X24953333Y-28400000D01*
X24886666Y-28433333D01*
X24853333Y-28466666D01*
X24820000Y-28533333D01*
X24820000Y-28633333D01*
X24853333Y-28700000D01*
X25086666Y-28400000D02*
X25053333Y-28466666D01*
X25053333Y-28600000D01*
X25086666Y-28666666D01*
X25120000Y-28700000D01*
X25186666Y-28733333D01*
X25386666Y-28733333D01*
X25453333Y-28700000D01*
X25486666Y-28666666D01*
X25520000Y-28600000D01*
X25520000Y-28466666D01*
X25486666Y-28400000D01*
X25520000Y-28066666D02*
X25053333Y-28066666D01*
X25453333Y-28066666D02*
X25486666Y-28033333D01*
X25520000Y-27966666D01*
X25520000Y-27866666D01*
X25486666Y-27800000D01*
X25420000Y-27766666D01*
X25053333Y-27766666D01*
X25086666Y-27166666D02*
X25053333Y-27233333D01*
X25053333Y-27366666D01*
X25086666Y-27433333D01*
X25153333Y-27466666D01*
X25420000Y-27466666D01*
X25486666Y-27433333D01*
X25520000Y-27366666D01*
X25520000Y-27233333D01*
X25486666Y-27166666D01*
X25420000Y-27133333D01*
X25353333Y-27133333D01*
X25286666Y-27466666D01*
X25053333Y-26533333D02*
X25753333Y-26533333D01*
X25086666Y-26533333D02*
X25053333Y-26600000D01*
X25053333Y-26733333D01*
X25086666Y-26800000D01*
X25120000Y-26833333D01*
X25186666Y-26866666D01*
X25386666Y-26866666D01*
X25453333Y-26833333D01*
X25486666Y-26800000D01*
X25520000Y-26733333D01*
X25520000Y-26600000D01*
X25486666Y-26533333D01*
X25053333Y-25666666D02*
X25753333Y-25666666D01*
X25486666Y-25666666D02*
X25520000Y-25600000D01*
X25520000Y-25466666D01*
X25486666Y-25400000D01*
X25453333Y-25366666D01*
X25386666Y-25333333D01*
X25186666Y-25333333D01*
X25120000Y-25366666D01*
X25086666Y-25400000D01*
X25053333Y-25466666D01*
X25053333Y-25600000D01*
X25086666Y-25666666D01*
X25520000Y-25100000D02*
X25053333Y-24933333D01*
X25520000Y-24766666D02*
X25053333Y-24933333D01*
X24886666Y-25000000D01*
X24853333Y-25033333D01*
X24820000Y-25100000D01*
X25253333Y-24000000D02*
X25253333Y-23666666D01*
X25053333Y-24066666D02*
X25753333Y-23833333D01*
X25053333Y-23600000D01*
X25053333Y-23366666D02*
X25520000Y-23366666D01*
X25386666Y-23366666D02*
X25453333Y-23333333D01*
X25486666Y-23300000D01*
X25520000Y-23233333D01*
X25520000Y-23166666D01*
X25053333Y-22933333D02*
X25520000Y-22933333D01*
X25753333Y-22933333D02*
X25720000Y-22966666D01*
X25686666Y-22933333D01*
X25720000Y-22900000D01*
X25753333Y-22933333D01*
X25686666Y-22933333D01*
X25053333Y-22300000D02*
X25420000Y-22300000D01*
X25486666Y-22333333D01*
X25520000Y-22400000D01*
X25520000Y-22533333D01*
X25486666Y-22600000D01*
X25086666Y-22300000D02*
X25053333Y-22366666D01*
X25053333Y-22533333D01*
X25086666Y-22600000D01*
X25153333Y-22633333D01*
X25220000Y-22633333D01*
X25286666Y-22600000D01*
X25320000Y-22533333D01*
X25320000Y-22366666D01*
X25353333Y-22300000D01*
D12*
%TO.C,G\u002A\u002A\u002A*%
G36*
X25024808Y-41383035D02*
G01*
X25017388Y-41438769D01*
X25014095Y-41523644D01*
X25014000Y-41542916D01*
X25016084Y-41624217D01*
X25021645Y-41686398D01*
X25029646Y-41719743D01*
X25033186Y-41722833D01*
X25044169Y-41739655D01*
X25041487Y-41764453D01*
X25039850Y-41811442D01*
X25049007Y-41879175D01*
X25065417Y-41952017D01*
X25085542Y-42014330D01*
X25105843Y-42050481D01*
X25106325Y-42050916D01*
X25129191Y-42089437D01*
X25133380Y-42109262D01*
X25146191Y-42152380D01*
X25175978Y-42215635D01*
X25216924Y-42289636D01*
X25263214Y-42364997D01*
X25309029Y-42432327D01*
X25348555Y-42482239D01*
X25375974Y-42505343D01*
X25379121Y-42505930D01*
X25396428Y-42510070D01*
X25406695Y-42527623D01*
X25411095Y-42566409D01*
X25410801Y-42634246D01*
X25408484Y-42701791D01*
X25408746Y-42909081D01*
X25424622Y-43112312D01*
X25454681Y-43297510D01*
X25479706Y-43396798D01*
X25528165Y-43513585D01*
X25598356Y-43623086D01*
X25681188Y-43713155D01*
X25756206Y-43766126D01*
X25832685Y-43789927D01*
X25920211Y-43794792D01*
X25998359Y-43780424D01*
X26021180Y-43769958D01*
X26119646Y-43698822D01*
X26196681Y-43608356D01*
X26236932Y-43541336D01*
X26274805Y-43459270D01*
X26310692Y-43360823D01*
X26340749Y-43259199D01*
X26361137Y-43167601D01*
X26365557Y-43123646D01*
X26276467Y-43123646D01*
X26271968Y-43205369D01*
X26262418Y-43269714D01*
X26262090Y-43271100D01*
X26211744Y-43429124D01*
X26143645Y-43564230D01*
X26062320Y-43667698D01*
X26050383Y-43678940D01*
X25973440Y-43734899D01*
X25902303Y-43753191D01*
X25827942Y-43734004D01*
X25751188Y-43685143D01*
X25654861Y-43585534D01*
X25579514Y-43449366D01*
X25525223Y-43276891D01*
X25492066Y-43068363D01*
X25480121Y-42824035D01*
X25480090Y-42799934D01*
X25484470Y-42677670D01*
X25495973Y-42550451D01*
X25512979Y-42429081D01*
X25533867Y-42324364D01*
X25557017Y-42247105D01*
X25565994Y-42227336D01*
X25601994Y-42183234D01*
X25663582Y-42128856D01*
X25738670Y-42073236D01*
X25815173Y-42025405D01*
X25874608Y-41996723D01*
X25931943Y-41983770D01*
X25978494Y-41997305D01*
X26020608Y-42041961D01*
X26064632Y-42122368D01*
X26073723Y-42142040D01*
X26110419Y-42236167D01*
X26146511Y-42351363D01*
X26178702Y-42474363D01*
X26203696Y-42591901D01*
X26218194Y-42690711D01*
X26220500Y-42732550D01*
X26225617Y-42779788D01*
X26238103Y-42802073D01*
X26239767Y-42802333D01*
X26253422Y-42821814D01*
X26264393Y-42873628D01*
X26272206Y-42947832D01*
X26276389Y-43034486D01*
X26276467Y-43123646D01*
X26365557Y-43123646D01*
X26368013Y-43099231D01*
X26367658Y-43091995D01*
X26366264Y-43049267D01*
X26377029Y-43031213D01*
X26409000Y-43034810D01*
X26471225Y-43057036D01*
X26471738Y-43057230D01*
X26535827Y-43076804D01*
X26628123Y-43098959D01*
X26734878Y-43120605D01*
X26815696Y-43134572D01*
X26936298Y-43149346D01*
X27083003Y-43160480D01*
X27247148Y-43167958D01*
X27420070Y-43171764D01*
X27593108Y-43171879D01*
X27757599Y-43168288D01*
X27904879Y-43160974D01*
X28026288Y-43149920D01*
X28104910Y-43137071D01*
X28243069Y-43105812D01*
X28301433Y-43259739D01*
X28379677Y-43431337D01*
X28471281Y-43565174D01*
X28579489Y-43664598D01*
X28707546Y-43732955D01*
X28784015Y-43757586D01*
X28849733Y-43771418D01*
X28898138Y-43768523D01*
X28951653Y-43746772D01*
X28963932Y-43740496D01*
X29025105Y-43698681D01*
X29073917Y-43648355D01*
X29081852Y-43636352D01*
X29121171Y-43547165D01*
X29155888Y-43428800D01*
X29183229Y-43294373D01*
X29200420Y-43156997D01*
X29205000Y-43054073D01*
X29205000Y-42943518D01*
X29138293Y-42943518D01*
X29135933Y-43043280D01*
X29134944Y-43066916D01*
X29123828Y-43218631D01*
X29103392Y-43346354D01*
X29070759Y-43467935D01*
X29069795Y-43470948D01*
X29024902Y-43590424D01*
X28976858Y-43670413D01*
X28920601Y-43713715D01*
X28851072Y-43723132D01*
X28763211Y-43701468D01*
X28700801Y-43675276D01*
X28617566Y-43625125D01*
X28544393Y-43554003D01*
X28477946Y-43456859D01*
X28414889Y-43328641D01*
X28351889Y-43164297D01*
X28339463Y-43128015D01*
X28257270Y-42854199D01*
X28205318Y-42609947D01*
X28183606Y-42395195D01*
X28192132Y-42209883D01*
X28230896Y-42053948D01*
X28299898Y-41927330D01*
X28326578Y-41894960D01*
X28420497Y-41814278D01*
X28516671Y-41775473D01*
X28612287Y-41778393D01*
X28704530Y-41822885D01*
X28790587Y-41908798D01*
X28799360Y-41920504D01*
X28887542Y-42049215D01*
X28954965Y-42168943D01*
X29007773Y-42293530D01*
X29052106Y-42436816D01*
X29081558Y-42556398D01*
X29108601Y-42679434D01*
X29126094Y-42775618D01*
X29135502Y-42858972D01*
X29138293Y-42943518D01*
X29205000Y-42943518D01*
X29205000Y-42869286D01*
X29284375Y-42820299D01*
X29391144Y-42743594D01*
X29489588Y-42653418D01*
X29565589Y-42563004D01*
X29576710Y-42546284D01*
X29689204Y-42355399D01*
X29781751Y-42172100D01*
X29850438Y-42004618D01*
X29880892Y-41906394D01*
X29909025Y-41772572D01*
X29921339Y-41653040D01*
X29918307Y-41553356D01*
X29900403Y-41479075D01*
X29868100Y-41435753D01*
X29840000Y-41426838D01*
X29835662Y-41446432D01*
X29832092Y-41499731D01*
X29829711Y-41578107D01*
X29828942Y-41654056D01*
X29825939Y-41775818D01*
X29815404Y-41879156D01*
X29794210Y-41974521D01*
X29759227Y-42072360D01*
X29707326Y-42183123D01*
X29635380Y-42317259D01*
X29624555Y-42336666D01*
X29564121Y-42435684D01*
X29495573Y-42533489D01*
X29424182Y-42624080D01*
X29355220Y-42701455D01*
X29293960Y-42759615D01*
X29245674Y-42792557D01*
X29220283Y-42796844D01*
X29206123Y-42773684D01*
X29189346Y-42719123D01*
X29173026Y-42643709D01*
X29169083Y-42621055D01*
X29134409Y-42459048D01*
X29086928Y-42306031D01*
X29031145Y-42175451D01*
X29002934Y-42125000D01*
X28964320Y-42060997D01*
X28919522Y-41984290D01*
X28900497Y-41950937D01*
X28826117Y-41854225D01*
X28754646Y-41799554D01*
X28655635Y-41750974D01*
X28572204Y-41732146D01*
X28491263Y-41741672D01*
X28428433Y-41764748D01*
X28328811Y-41816960D01*
X28255518Y-41877835D01*
X28202112Y-41956254D01*
X28162150Y-42061098D01*
X28135966Y-42167894D01*
X28115495Y-42283179D01*
X28107065Y-42387258D01*
X28111306Y-42492286D01*
X28128844Y-42610423D01*
X28160309Y-42753824D01*
X28167834Y-42784610D01*
X28192017Y-42883414D01*
X28211960Y-42966838D01*
X28225706Y-43026554D01*
X28231297Y-43054234D01*
X28231334Y-43054841D01*
X28211262Y-43066569D01*
X28155159Y-43080659D01*
X28069197Y-43096126D01*
X27959545Y-43111986D01*
X27832374Y-43127255D01*
X27693854Y-43140950D01*
X27688359Y-43141434D01*
X27583770Y-43149505D01*
X27493249Y-43153194D01*
X27405216Y-43152089D01*
X27308089Y-43145778D01*
X27190287Y-43133850D01*
X27068727Y-43119415D01*
X26843655Y-43088518D01*
X26660758Y-43056360D01*
X26519895Y-43022904D01*
X26420923Y-42988108D01*
X26363702Y-42951934D01*
X26347772Y-42918862D01*
X26343682Y-42878094D01*
X26332642Y-42809871D01*
X26316925Y-42728054D01*
X26314767Y-42717666D01*
X26294829Y-42622170D01*
X26274938Y-42526294D01*
X26259871Y-42453083D01*
X26214247Y-42272423D01*
X26157916Y-42128137D01*
X26088791Y-42015152D01*
X26070563Y-41992708D01*
X26019440Y-41939698D01*
X25973449Y-41903267D01*
X25946839Y-41892166D01*
X25893518Y-41905127D01*
X25822541Y-41939715D01*
X25742510Y-41989492D01*
X25662028Y-42048016D01*
X25589697Y-42108848D01*
X25534119Y-42165547D01*
X25503898Y-42211674D01*
X25500834Y-42226060D01*
X25494574Y-42261657D01*
X25478604Y-42320808D01*
X25466782Y-42358735D01*
X25445530Y-42418623D01*
X25428781Y-42445003D01*
X25409480Y-42445092D01*
X25392542Y-42434693D01*
X25366387Y-42404629D01*
X25327769Y-42345893D01*
X25282605Y-42267948D01*
X25250539Y-42207564D01*
X25169029Y-42020400D01*
X25109384Y-41824773D01*
X25075820Y-41635747D01*
X25070627Y-41564977D01*
X25064841Y-41507834D01*
X25054443Y-41473396D01*
X25048748Y-41468833D01*
X25039678Y-41451484D01*
X25043859Y-41415916D01*
X25046839Y-41375782D01*
X25035570Y-41363000D01*
X25024808Y-41383035D01*
G37*
X25024808Y-41383035D02*
X25017388Y-41438769D01*
X25014095Y-41523644D01*
X25014000Y-41542916D01*
X25016084Y-41624217D01*
X25021645Y-41686398D01*
X25029646Y-41719743D01*
X25033186Y-41722833D01*
X25044169Y-41739655D01*
X25041487Y-41764453D01*
X25039850Y-41811442D01*
X25049007Y-41879175D01*
X25065417Y-41952017D01*
X25085542Y-42014330D01*
X25105843Y-42050481D01*
X25106325Y-42050916D01*
X25129191Y-42089437D01*
X25133380Y-42109262D01*
X25146191Y-42152380D01*
X25175978Y-42215635D01*
X25216924Y-42289636D01*
X25263214Y-42364997D01*
X25309029Y-42432327D01*
X25348555Y-42482239D01*
X25375974Y-42505343D01*
X25379121Y-42505930D01*
X25396428Y-42510070D01*
X25406695Y-42527623D01*
X25411095Y-42566409D01*
X25410801Y-42634246D01*
X25408484Y-42701791D01*
X25408746Y-42909081D01*
X25424622Y-43112312D01*
X25454681Y-43297510D01*
X25479706Y-43396798D01*
X25528165Y-43513585D01*
X25598356Y-43623086D01*
X25681188Y-43713155D01*
X25756206Y-43766126D01*
X25832685Y-43789927D01*
X25920211Y-43794792D01*
X25998359Y-43780424D01*
X26021180Y-43769958D01*
X26119646Y-43698822D01*
X26196681Y-43608356D01*
X26236932Y-43541336D01*
X26274805Y-43459270D01*
X26310692Y-43360823D01*
X26340749Y-43259199D01*
X26361137Y-43167601D01*
X26365557Y-43123646D01*
X26276467Y-43123646D01*
X26271968Y-43205369D01*
X26262418Y-43269714D01*
X26262090Y-43271100D01*
X26211744Y-43429124D01*
X26143645Y-43564230D01*
X26062320Y-43667698D01*
X26050383Y-43678940D01*
X25973440Y-43734899D01*
X25902303Y-43753191D01*
X25827942Y-43734004D01*
X25751188Y-43685143D01*
X25654861Y-43585534D01*
X25579514Y-43449366D01*
X25525223Y-43276891D01*
X25492066Y-43068363D01*
X25480121Y-42824035D01*
X25480090Y-42799934D01*
X25484470Y-42677670D01*
X25495973Y-42550451D01*
X25512979Y-42429081D01*
X25533867Y-42324364D01*
X25557017Y-42247105D01*
X25565994Y-42227336D01*
X25601994Y-42183234D01*
X25663582Y-42128856D01*
X25738670Y-42073236D01*
X25815173Y-42025405D01*
X25874608Y-41996723D01*
X25931943Y-41983770D01*
X25978494Y-41997305D01*
X26020608Y-42041961D01*
X26064632Y-42122368D01*
X26073723Y-42142040D01*
X26110419Y-42236167D01*
X26146511Y-42351363D01*
X26178702Y-42474363D01*
X26203696Y-42591901D01*
X26218194Y-42690711D01*
X26220500Y-42732550D01*
X26225617Y-42779788D01*
X26238103Y-42802073D01*
X26239767Y-42802333D01*
X26253422Y-42821814D01*
X26264393Y-42873628D01*
X26272206Y-42947832D01*
X26276389Y-43034486D01*
X26276467Y-43123646D01*
X26365557Y-43123646D01*
X26368013Y-43099231D01*
X26367658Y-43091995D01*
X26366264Y-43049267D01*
X26377029Y-43031213D01*
X26409000Y-43034810D01*
X26471225Y-43057036D01*
X26471738Y-43057230D01*
X26535827Y-43076804D01*
X26628123Y-43098959D01*
X26734878Y-43120605D01*
X26815696Y-43134572D01*
X26936298Y-43149346D01*
X27083003Y-43160480D01*
X27247148Y-43167958D01*
X27420070Y-43171764D01*
X27593108Y-43171879D01*
X27757599Y-43168288D01*
X27904879Y-43160974D01*
X28026288Y-43149920D01*
X28104910Y-43137071D01*
X28243069Y-43105812D01*
X28301433Y-43259739D01*
X28379677Y-43431337D01*
X28471281Y-43565174D01*
X28579489Y-43664598D01*
X28707546Y-43732955D01*
X28784015Y-43757586D01*
X28849733Y-43771418D01*
X28898138Y-43768523D01*
X28951653Y-43746772D01*
X28963932Y-43740496D01*
X29025105Y-43698681D01*
X29073917Y-43648355D01*
X29081852Y-43636352D01*
X29121171Y-43547165D01*
X29155888Y-43428800D01*
X29183229Y-43294373D01*
X29200420Y-43156997D01*
X29205000Y-43054073D01*
X29205000Y-42943518D01*
X29138293Y-42943518D01*
X29135933Y-43043280D01*
X29134944Y-43066916D01*
X29123828Y-43218631D01*
X29103392Y-43346354D01*
X29070759Y-43467935D01*
X29069795Y-43470948D01*
X29024902Y-43590424D01*
X28976858Y-43670413D01*
X28920601Y-43713715D01*
X28851072Y-43723132D01*
X28763211Y-43701468D01*
X28700801Y-43675276D01*
X28617566Y-43625125D01*
X28544393Y-43554003D01*
X28477946Y-43456859D01*
X28414889Y-43328641D01*
X28351889Y-43164297D01*
X28339463Y-43128015D01*
X28257270Y-42854199D01*
X28205318Y-42609947D01*
X28183606Y-42395195D01*
X28192132Y-42209883D01*
X28230896Y-42053948D01*
X28299898Y-41927330D01*
X28326578Y-41894960D01*
X28420497Y-41814278D01*
X28516671Y-41775473D01*
X28612287Y-41778393D01*
X28704530Y-41822885D01*
X28790587Y-41908798D01*
X28799360Y-41920504D01*
X28887542Y-42049215D01*
X28954965Y-42168943D01*
X29007773Y-42293530D01*
X29052106Y-42436816D01*
X29081558Y-42556398D01*
X29108601Y-42679434D01*
X29126094Y-42775618D01*
X29135502Y-42858972D01*
X29138293Y-42943518D01*
X29205000Y-42943518D01*
X29205000Y-42869286D01*
X29284375Y-42820299D01*
X29391144Y-42743594D01*
X29489588Y-42653418D01*
X29565589Y-42563004D01*
X29576710Y-42546284D01*
X29689204Y-42355399D01*
X29781751Y-42172100D01*
X29850438Y-42004618D01*
X29880892Y-41906394D01*
X29909025Y-41772572D01*
X29921339Y-41653040D01*
X29918307Y-41553356D01*
X29900403Y-41479075D01*
X29868100Y-41435753D01*
X29840000Y-41426838D01*
X29835662Y-41446432D01*
X29832092Y-41499731D01*
X29829711Y-41578107D01*
X29828942Y-41654056D01*
X29825939Y-41775818D01*
X29815404Y-41879156D01*
X29794210Y-41974521D01*
X29759227Y-42072360D01*
X29707326Y-42183123D01*
X29635380Y-42317259D01*
X29624555Y-42336666D01*
X29564121Y-42435684D01*
X29495573Y-42533489D01*
X29424182Y-42624080D01*
X29355220Y-42701455D01*
X29293960Y-42759615D01*
X29245674Y-42792557D01*
X29220283Y-42796844D01*
X29206123Y-42773684D01*
X29189346Y-42719123D01*
X29173026Y-42643709D01*
X29169083Y-42621055D01*
X29134409Y-42459048D01*
X29086928Y-42306031D01*
X29031145Y-42175451D01*
X29002934Y-42125000D01*
X28964320Y-42060997D01*
X28919522Y-41984290D01*
X28900497Y-41950937D01*
X28826117Y-41854225D01*
X28754646Y-41799554D01*
X28655635Y-41750974D01*
X28572204Y-41732146D01*
X28491263Y-41741672D01*
X28428433Y-41764748D01*
X28328811Y-41816960D01*
X28255518Y-41877835D01*
X28202112Y-41956254D01*
X28162150Y-42061098D01*
X28135966Y-42167894D01*
X28115495Y-42283179D01*
X28107065Y-42387258D01*
X28111306Y-42492286D01*
X28128844Y-42610423D01*
X28160309Y-42753824D01*
X28167834Y-42784610D01*
X28192017Y-42883414D01*
X28211960Y-42966838D01*
X28225706Y-43026554D01*
X28231297Y-43054234D01*
X28231334Y-43054841D01*
X28211262Y-43066569D01*
X28155159Y-43080659D01*
X28069197Y-43096126D01*
X27959545Y-43111986D01*
X27832374Y-43127255D01*
X27693854Y-43140950D01*
X27688359Y-43141434D01*
X27583770Y-43149505D01*
X27493249Y-43153194D01*
X27405216Y-43152089D01*
X27308089Y-43145778D01*
X27190287Y-43133850D01*
X27068727Y-43119415D01*
X26843655Y-43088518D01*
X26660758Y-43056360D01*
X26519895Y-43022904D01*
X26420923Y-42988108D01*
X26363702Y-42951934D01*
X26347772Y-42918862D01*
X26343682Y-42878094D01*
X26332642Y-42809871D01*
X26316925Y-42728054D01*
X26314767Y-42717666D01*
X26294829Y-42622170D01*
X26274938Y-42526294D01*
X26259871Y-42453083D01*
X26214247Y-42272423D01*
X26157916Y-42128137D01*
X26088791Y-42015152D01*
X26070563Y-41992708D01*
X26019440Y-41939698D01*
X25973449Y-41903267D01*
X25946839Y-41892166D01*
X25893518Y-41905127D01*
X25822541Y-41939715D01*
X25742510Y-41989492D01*
X25662028Y-42048016D01*
X25589697Y-42108848D01*
X25534119Y-42165547D01*
X25503898Y-42211674D01*
X25500834Y-42226060D01*
X25494574Y-42261657D01*
X25478604Y-42320808D01*
X25466782Y-42358735D01*
X25445530Y-42418623D01*
X25428781Y-42445003D01*
X25409480Y-42445092D01*
X25392542Y-42434693D01*
X25366387Y-42404629D01*
X25327769Y-42345893D01*
X25282605Y-42267948D01*
X25250539Y-42207564D01*
X25169029Y-42020400D01*
X25109384Y-41824773D01*
X25075820Y-41635747D01*
X25070627Y-41564977D01*
X25064841Y-41507834D01*
X25054443Y-41473396D01*
X25048748Y-41468833D01*
X25039678Y-41451484D01*
X25043859Y-41415916D01*
X25046839Y-41375782D01*
X25035570Y-41363000D01*
X25024808Y-41383035D01*
G36*
X29822522Y-41358776D02*
G01*
X29818834Y-41373583D01*
X29835777Y-41401645D01*
X29850584Y-41405333D01*
X29878646Y-41388390D01*
X29882334Y-41373583D01*
X29865391Y-41345521D01*
X29850584Y-41341833D01*
X29822522Y-41358776D01*
G37*
X29822522Y-41358776D02*
X29818834Y-41373583D01*
X29835777Y-41401645D01*
X29850584Y-41405333D01*
X29878646Y-41388390D01*
X29882334Y-41373583D01*
X29865391Y-41345521D01*
X29850584Y-41341833D01*
X29822522Y-41358776D01*
G36*
X29784335Y-36317473D02*
G01*
X29776500Y-36337479D01*
X29767412Y-36368983D01*
X29742761Y-36429028D01*
X29706467Y-36508572D01*
X29668677Y-36586187D01*
X29587629Y-36737975D01*
X29504428Y-36869932D01*
X29407596Y-36999146D01*
X29325437Y-37097255D01*
X29252744Y-37181260D01*
X29018187Y-37059390D01*
X28806340Y-36962061D01*
X28578757Y-36880312D01*
X28342472Y-36815209D01*
X28104517Y-36767817D01*
X27871927Y-36739204D01*
X27651734Y-36730435D01*
X27450974Y-36742576D01*
X27276679Y-36776694D01*
X27236500Y-36789318D01*
X27192999Y-36803468D01*
X27121402Y-36825923D01*
X27034156Y-36852798D01*
X26993084Y-36865305D01*
X26835599Y-36917295D01*
X26686642Y-36974362D01*
X26554768Y-37032768D01*
X26448527Y-37088772D01*
X26385783Y-37130879D01*
X26333064Y-37168120D01*
X26289959Y-37190380D01*
X26277592Y-37193166D01*
X26252581Y-37177227D01*
X26209869Y-37134374D01*
X26156485Y-37072054D01*
X26122893Y-37029254D01*
X26047732Y-36932980D01*
X25961469Y-36826341D01*
X25880481Y-36729514D01*
X25865959Y-36712643D01*
X25808723Y-36644248D01*
X25763955Y-36586316D01*
X25737839Y-36547086D01*
X25733667Y-36536416D01*
X25716268Y-36520522D01*
X25688270Y-36519652D01*
X25654944Y-36537251D01*
X25624192Y-36584028D01*
X25599606Y-36642833D01*
X25565251Y-36722549D01*
X25518097Y-36816203D01*
X25472303Y-36896833D01*
X25369802Y-37066702D01*
X25290559Y-37202585D01*
X25234709Y-37304237D01*
X25202387Y-37371413D01*
X25193725Y-37403867D01*
X25194366Y-37405559D01*
X25191127Y-37433321D01*
X25169349Y-37481327D01*
X25155692Y-37504587D01*
X25111984Y-37585439D01*
X25063935Y-37692220D01*
X25017742Y-37809861D01*
X24979603Y-37923291D01*
X24970406Y-37955166D01*
X24958937Y-38016838D01*
X24948927Y-38106925D01*
X24941707Y-38211509D01*
X24939093Y-38282743D01*
X24933925Y-38515069D01*
X24735838Y-38551540D01*
X24655894Y-38568147D01*
X24567376Y-38589567D01*
X24476586Y-38613831D01*
X24389829Y-38638968D01*
X24313410Y-38663007D01*
X24253634Y-38683978D01*
X24216804Y-38699909D01*
X24209226Y-38708830D01*
X24230834Y-38709399D01*
X24283879Y-38701041D01*
X24364150Y-38684058D01*
X24458159Y-38661415D01*
X24506000Y-38648923D01*
X24603592Y-38623613D01*
X24695815Y-38601245D01*
X24768360Y-38585228D01*
X24791750Y-38580836D01*
X24855125Y-38569222D01*
X24904604Y-38558353D01*
X24911547Y-38556468D01*
X24940559Y-38562131D01*
X24964678Y-38602457D01*
X24971865Y-38622515D01*
X24986319Y-38673234D01*
X24990572Y-38703284D01*
X24989652Y-38705776D01*
X24967798Y-38716950D01*
X24917926Y-38739360D01*
X24855250Y-38766277D01*
X24759947Y-38807921D01*
X24657779Y-38855003D01*
X24554493Y-38904563D01*
X24455833Y-38953638D01*
X24367543Y-38999268D01*
X24295367Y-39038491D01*
X24245052Y-39068347D01*
X24222340Y-39085875D01*
X24229615Y-39088772D01*
X24275914Y-39074912D01*
X24350195Y-39045887D01*
X24442724Y-39005761D01*
X24543769Y-38958595D01*
X24557699Y-38951828D01*
X24717965Y-38874593D01*
X24841587Y-38817282D01*
X24929134Y-38779645D01*
X24981176Y-38761428D01*
X24993154Y-38759500D01*
X25015707Y-38776695D01*
X25024845Y-38814351D01*
X25016203Y-38851574D01*
X25013246Y-38855658D01*
X24985996Y-38879469D01*
X24933077Y-38919189D01*
X24864267Y-38967578D01*
X24838256Y-38985212D01*
X24739180Y-39052631D01*
X24631395Y-39127509D01*
X24521545Y-39205062D01*
X24416273Y-39280508D01*
X24322223Y-39349064D01*
X24246039Y-39405948D01*
X24194366Y-39446376D01*
X24178505Y-39460146D01*
X24148600Y-39492917D01*
X24149025Y-39503584D01*
X24175727Y-39494739D01*
X24224654Y-39468976D01*
X24291752Y-39428887D01*
X24372970Y-39377065D01*
X24464256Y-39316104D01*
X24561555Y-39248596D01*
X24660816Y-39177134D01*
X24757986Y-39104311D01*
X24849012Y-39032720D01*
X24858156Y-39025293D01*
X24905082Y-38990949D01*
X24939899Y-38972289D01*
X24945522Y-38971166D01*
X24975237Y-38956582D01*
X24992834Y-38939416D01*
X25027075Y-38915795D01*
X25066706Y-38908183D01*
X25094541Y-38918134D01*
X25098667Y-38929850D01*
X25113765Y-38977539D01*
X25154106Y-39042989D01*
X25212256Y-39117044D01*
X25280785Y-39190547D01*
X25352261Y-39254343D01*
X25377383Y-39273241D01*
X25486589Y-39346322D01*
X25586910Y-39405323D01*
X25673232Y-39447994D01*
X25740441Y-39472083D01*
X25783421Y-39475339D01*
X25797167Y-39458000D01*
X25814311Y-39439221D01*
X25828917Y-39436833D01*
X25855423Y-39442469D01*
X25853584Y-39462551D01*
X25821547Y-39501841D01*
X25791875Y-39531896D01*
X25747224Y-39586102D01*
X25687095Y-39675173D01*
X25613630Y-39795484D01*
X25528973Y-39943407D01*
X25435267Y-40115316D01*
X25342632Y-40292074D01*
X25296972Y-40389363D01*
X25249584Y-40505420D01*
X25202380Y-40633755D01*
X25157270Y-40767877D01*
X25116165Y-40901296D01*
X25080974Y-41027522D01*
X25053608Y-41140063D01*
X25035978Y-41232428D01*
X25029994Y-41298128D01*
X25037077Y-41330191D01*
X25052169Y-41330646D01*
X25056334Y-41303733D01*
X25055592Y-41260643D01*
X25054526Y-41243658D01*
X25068074Y-41222087D01*
X25079337Y-41213698D01*
X25103579Y-41183535D01*
X25126946Y-41132114D01*
X25128770Y-41126664D01*
X25146274Y-41084015D01*
X25171980Y-41061140D01*
X25219396Y-41049457D01*
X25257417Y-41044924D01*
X25344102Y-41023043D01*
X25443262Y-40979139D01*
X25538452Y-40922102D01*
X25613228Y-40860824D01*
X25627834Y-40844644D01*
X25659139Y-40816528D01*
X25716518Y-40773358D01*
X25790076Y-40722401D01*
X25829802Y-40696292D01*
X25913701Y-40637782D01*
X25991417Y-40575951D01*
X26050282Y-40521146D01*
X26065501Y-40503776D01*
X26115652Y-40435203D01*
X26167824Y-40355366D01*
X26216296Y-40274142D01*
X26255353Y-40201403D01*
X26279274Y-40147025D01*
X26284000Y-40126480D01*
X26285915Y-40109876D01*
X26220500Y-40109876D01*
X26204644Y-40178721D01*
X26161148Y-40265232D01*
X26096128Y-40361525D01*
X26015695Y-40459713D01*
X25925964Y-40551911D01*
X25833047Y-40630232D01*
X25798097Y-40654767D01*
X25713432Y-40713450D01*
X25627804Y-40777485D01*
X25559546Y-40833155D01*
X25558725Y-40833876D01*
X25460201Y-40908496D01*
X25358267Y-40964872D01*
X25264539Y-40997226D01*
X25219416Y-41002701D01*
X25181472Y-41000086D01*
X25167812Y-40983345D01*
X25171532Y-40940368D01*
X25174425Y-40923791D01*
X25196536Y-40833070D01*
X25232711Y-40721538D01*
X25279240Y-40597633D01*
X25332412Y-40469786D01*
X25388516Y-40346435D01*
X25443843Y-40236013D01*
X25494682Y-40146955D01*
X25537322Y-40087696D01*
X25546258Y-40078533D01*
X25596063Y-40043287D01*
X25672561Y-40001076D01*
X25762259Y-39958252D01*
X25851666Y-39921166D01*
X25927291Y-39896171D01*
X25940311Y-39893019D01*
X26017699Y-39895160D01*
X26095565Y-39928031D01*
X26162673Y-39982935D01*
X26207790Y-40051177D01*
X26220500Y-40109876D01*
X26285915Y-40109876D01*
X26286639Y-40103608D01*
X26298702Y-40097078D01*
X26326410Y-40109438D01*
X26375981Y-40143238D01*
X26439030Y-40190037D01*
X26566614Y-40274421D01*
X26720356Y-40358258D01*
X26884648Y-40434073D01*
X27043884Y-40494394D01*
X27125222Y-40518669D01*
X27242434Y-40540864D01*
X27389545Y-40555760D01*
X27554711Y-40563097D01*
X27726086Y-40562612D01*
X27891826Y-40554045D01*
X28030250Y-40538636D01*
X28177027Y-40511170D01*
X28340820Y-40471431D01*
X28506542Y-40423735D01*
X28659104Y-40372396D01*
X28774518Y-40325814D01*
X28845100Y-40294739D01*
X28900392Y-40272113D01*
X28929390Y-40262419D01*
X28930406Y-40262333D01*
X28944158Y-40280857D01*
X28958136Y-40326705D01*
X28960827Y-40339828D01*
X28971324Y-40372806D01*
X28993547Y-40411923D01*
X29031289Y-40461785D01*
X29088344Y-40526998D01*
X29168505Y-40612167D01*
X29275391Y-40721720D01*
X29381999Y-40828926D01*
X29464652Y-40909337D01*
X29528296Y-40967097D01*
X29577874Y-41006347D01*
X29618329Y-41031230D01*
X29654605Y-41045889D01*
X29666069Y-41049079D01*
X29730101Y-41071084D01*
X29769462Y-41104456D01*
X29793545Y-41160644D01*
X29806424Y-41220125D01*
X29820347Y-41271032D01*
X29836986Y-41298137D01*
X29840960Y-41299500D01*
X29855990Y-41280194D01*
X29859994Y-41226171D01*
X29854073Y-41143274D01*
X29839327Y-41037346D01*
X29822655Y-40945997D01*
X29795763Y-40945997D01*
X29790681Y-40969675D01*
X29778476Y-41011053D01*
X29776500Y-41026064D01*
X29763357Y-41044448D01*
X29725327Y-41030747D01*
X29686058Y-41003166D01*
X29643248Y-40973717D01*
X29613913Y-40960854D01*
X29613284Y-40960833D01*
X29593072Y-40946554D01*
X29549437Y-40907639D01*
X29488296Y-40849969D01*
X29415565Y-40779428D01*
X29337158Y-40701896D01*
X29258992Y-40623257D01*
X29186982Y-40549392D01*
X29127045Y-40486184D01*
X29085096Y-40439515D01*
X29070449Y-40421083D01*
X29044870Y-40369777D01*
X29025943Y-40309212D01*
X29020419Y-40264196D01*
X29032123Y-40228706D01*
X29067758Y-40187993D01*
X29090874Y-40166337D01*
X29145823Y-40123723D01*
X29196154Y-40097270D01*
X29215897Y-40093000D01*
X29255455Y-40105213D01*
X29314418Y-40137092D01*
X29374334Y-40177666D01*
X29437744Y-40221121D01*
X29492184Y-40251666D01*
X29524021Y-40262333D01*
X29545372Y-40274031D01*
X29570017Y-40312388D01*
X29600481Y-40382292D01*
X29636034Y-40479291D01*
X29669303Y-40578398D01*
X29698338Y-40671987D01*
X29719277Y-40747226D01*
X29726841Y-40780916D01*
X29736967Y-40831973D01*
X29744842Y-40845317D01*
X29754611Y-40825082D01*
X29758662Y-40812666D01*
X29766815Y-40796423D01*
X29767739Y-40820466D01*
X29763771Y-40862551D01*
X29759081Y-40924005D01*
X29764204Y-40950351D01*
X29778462Y-40949037D01*
X29795763Y-40945997D01*
X29822655Y-40945997D01*
X29816856Y-40914228D01*
X29787762Y-40779764D01*
X29753146Y-40639795D01*
X29714108Y-40500165D01*
X29671748Y-40366715D01*
X29657516Y-40325833D01*
X29615350Y-40207961D01*
X29538750Y-40207961D01*
X29526590Y-40216394D01*
X29491083Y-40197085D01*
X29440880Y-40159562D01*
X29382389Y-40116452D01*
X29329111Y-40081516D01*
X29315674Y-40073909D01*
X29267597Y-40048693D01*
X29329313Y-39996763D01*
X29374587Y-39962964D01*
X29407967Y-39945493D01*
X29412100Y-39944833D01*
X29432249Y-39962788D01*
X29461129Y-40009081D01*
X29492766Y-40072352D01*
X29521186Y-40141239D01*
X29531749Y-40172375D01*
X29538750Y-40207961D01*
X29615350Y-40207961D01*
X29610126Y-40193359D01*
X29574420Y-40095308D01*
X29547944Y-40026198D01*
X29528240Y-39980549D01*
X29512853Y-39952881D01*
X29499328Y-39937713D01*
X29485207Y-39929567D01*
X29478800Y-39927030D01*
X29465601Y-39916112D01*
X29468544Y-39894672D01*
X29490805Y-39856803D01*
X29535562Y-39796599D01*
X29577376Y-39743750D01*
X29637751Y-39672433D01*
X29692200Y-39615488D01*
X29733406Y-39580185D01*
X29750002Y-39572258D01*
X29803365Y-39568873D01*
X29831080Y-39566967D01*
X29908107Y-39542860D01*
X29994138Y-39484219D01*
X30084082Y-39396430D01*
X30172849Y-39284876D01*
X30255349Y-39154943D01*
X30298934Y-39072028D01*
X30335018Y-39003281D01*
X30366642Y-38952570D01*
X30387792Y-38929362D01*
X30389878Y-38928833D01*
X30401408Y-38931281D01*
X30420321Y-38940819D01*
X30451376Y-38960738D01*
X30499334Y-38994329D01*
X30568953Y-39044883D01*
X30664994Y-39115691D01*
X30732613Y-39165804D01*
X30901738Y-39295893D01*
X31043788Y-39416294D01*
X31169370Y-39536605D01*
X31289092Y-39666427D01*
X31301105Y-39680250D01*
X31350053Y-39733288D01*
X31389377Y-39769454D01*
X31410071Y-39780791D01*
X31426862Y-39791192D01*
X31427500Y-39796666D01*
X31443681Y-39817133D01*
X31449211Y-39817833D01*
X31457544Y-39803091D01*
X31441641Y-39763315D01*
X31405314Y-39705175D01*
X31352376Y-39635344D01*
X31328988Y-39607467D01*
X31271691Y-39548053D01*
X31187684Y-39470123D01*
X31084561Y-39379966D01*
X30969916Y-39283871D01*
X30851343Y-39188127D01*
X30736436Y-39099024D01*
X30632790Y-39022851D01*
X30576019Y-38983886D01*
X30489120Y-38922466D01*
X30433170Y-38873958D01*
X30410050Y-38840501D01*
X30421646Y-38824235D01*
X30434382Y-38823000D01*
X30467923Y-38832924D01*
X30527247Y-38859039D01*
X30601774Y-38895858D01*
X30680926Y-38937897D01*
X30754122Y-38979667D01*
X30810784Y-39015684D01*
X30822846Y-39024447D01*
X30872075Y-39057745D01*
X30909731Y-39075883D01*
X30916207Y-39077000D01*
X30939336Y-39091023D01*
X30940667Y-39097763D01*
X30958610Y-39117899D01*
X30992878Y-39131630D01*
X31030332Y-39147041D01*
X31040503Y-39161421D01*
X31052120Y-39185607D01*
X31087616Y-39227198D01*
X31137604Y-39277415D01*
X31192696Y-39327481D01*
X31243505Y-39368618D01*
X31280644Y-39392049D01*
X31289772Y-39394500D01*
X31308465Y-39383460D01*
X31296430Y-39352865D01*
X31258258Y-39306502D01*
X31198537Y-39248157D01*
X31121857Y-39181618D01*
X31032807Y-39110669D01*
X30935976Y-39039099D01*
X30835954Y-38970694D01*
X30737331Y-38909241D01*
X30644696Y-38858525D01*
X30633443Y-38852972D01*
X30550948Y-38811506D01*
X30514664Y-38791873D01*
X30340845Y-38791873D01*
X30340158Y-38799616D01*
X30312208Y-38801083D01*
X30269128Y-38792443D01*
X30251880Y-38779258D01*
X30243750Y-38752837D01*
X30267256Y-38752919D01*
X30305699Y-38771065D01*
X30340845Y-38791873D01*
X30514664Y-38791873D01*
X30484890Y-38775763D01*
X30443191Y-38750188D01*
X30432667Y-38740279D01*
X30444065Y-38713388D01*
X30463401Y-38684170D01*
X30484516Y-38659615D01*
X30506155Y-38654673D01*
X30542617Y-38669675D01*
X30574526Y-38686740D01*
X30710372Y-38760813D01*
X30815243Y-38818827D01*
X30895584Y-38864518D01*
X30957839Y-38901625D01*
X31008452Y-38933886D01*
X31051841Y-38963605D01*
X31112972Y-39002354D01*
X31165179Y-39027792D01*
X31189424Y-39033785D01*
X31205910Y-39023847D01*
X31187747Y-38997117D01*
X31138154Y-38955729D01*
X31060351Y-38901816D01*
X30957556Y-38837512D01*
X30832989Y-38764950D01*
X30689867Y-38686265D01*
X30570891Y-38623796D01*
X30508032Y-38591423D01*
X30505437Y-38331503D01*
X30503973Y-38296434D01*
X30434664Y-38296434D01*
X30434521Y-38404929D01*
X30428505Y-38475610D01*
X30411254Y-38512991D01*
X30377405Y-38521587D01*
X30321597Y-38505914D01*
X30238466Y-38470486D01*
X30231584Y-38467427D01*
X30130582Y-38428326D01*
X30030091Y-38399446D01*
X29938839Y-38382238D01*
X29865552Y-38378153D01*
X29818959Y-38388640D01*
X29809702Y-38397317D01*
X29816835Y-38412510D01*
X29863138Y-38419915D01*
X29901911Y-38420833D01*
X29979746Y-38428392D01*
X30071107Y-38452989D01*
X30186370Y-38497502D01*
X30201492Y-38503970D01*
X30284012Y-38540015D01*
X30350766Y-38570054D01*
X30392963Y-38590083D01*
X30403011Y-38595788D01*
X30402630Y-38619461D01*
X30390225Y-38665881D01*
X30387907Y-38672697D01*
X30364543Y-38719624D01*
X30337259Y-38729957D01*
X30329936Y-38727808D01*
X30276810Y-38709617D01*
X30198835Y-38685587D01*
X30105735Y-38658409D01*
X30007231Y-38630775D01*
X29913048Y-38605373D01*
X29832907Y-38584897D01*
X29776533Y-38572035D01*
X29756071Y-38569000D01*
X29717945Y-38574776D01*
X29715304Y-38588606D01*
X29743445Y-38605243D01*
X29797662Y-38619437D01*
X29801909Y-38620139D01*
X29862570Y-38632865D01*
X29905848Y-38647342D01*
X29913034Y-38651523D01*
X29947919Y-38670127D01*
X29999356Y-38690194D01*
X30040813Y-38708599D01*
X30099893Y-38740069D01*
X30166187Y-38778346D01*
X30229285Y-38817172D01*
X30278778Y-38850288D01*
X30304255Y-38871436D01*
X30305667Y-38874350D01*
X30298020Y-38896076D01*
X30277713Y-38946903D01*
X30248703Y-39016994D01*
X30239977Y-39037741D01*
X30152360Y-39210604D01*
X30049312Y-39353189D01*
X29934764Y-39460242D01*
X29912096Y-39476085D01*
X29844761Y-39518747D01*
X29803173Y-39538029D01*
X29779053Y-39535734D01*
X29764122Y-39513669D01*
X29762169Y-39508780D01*
X29765072Y-39470929D01*
X29777832Y-39457176D01*
X29787033Y-39439877D01*
X29774929Y-39407157D01*
X29738545Y-39352819D01*
X29709180Y-39314140D01*
X29657911Y-39246267D01*
X29614741Y-39185805D01*
X29600560Y-39163829D01*
X29446871Y-39163829D01*
X29441673Y-39183068D01*
X29418767Y-39216739D01*
X29374915Y-39271818D01*
X29331681Y-39324814D01*
X29312730Y-39360948D01*
X29310834Y-39372439D01*
X29295264Y-39393712D01*
X29289667Y-39394500D01*
X29269340Y-39410792D01*
X29268500Y-39417078D01*
X29256674Y-39448873D01*
X29227869Y-39492643D01*
X29192095Y-39536119D01*
X29159360Y-39567028D01*
X29140608Y-39573865D01*
X29115939Y-39578557D01*
X29107943Y-39587925D01*
X29105092Y-39602770D01*
X29117063Y-39597604D01*
X29138915Y-39594807D01*
X29141500Y-39601841D01*
X29126674Y-39627086D01*
X29089254Y-39666257D01*
X29039832Y-39710407D01*
X28989000Y-39750591D01*
X28947349Y-39777863D01*
X28926101Y-39783776D01*
X28912557Y-39785702D01*
X28913434Y-39791367D01*
X28902433Y-39814937D01*
X28867972Y-39857078D01*
X28826029Y-39900249D01*
X28768304Y-39951680D01*
X28726365Y-39976179D01*
X28689122Y-39979522D01*
X28677862Y-39977416D01*
X28644839Y-39972865D01*
X28649799Y-39982692D01*
X28650638Y-39983261D01*
X28662882Y-40002154D01*
X28639781Y-40025845D01*
X28629472Y-40032600D01*
X28569047Y-40065804D01*
X28489808Y-40103081D01*
X28405526Y-40138648D01*
X28329971Y-40166721D01*
X28276916Y-40181519D01*
X28273667Y-40182009D01*
X28216285Y-40199676D01*
X28168416Y-40225663D01*
X28111482Y-40253493D01*
X28062582Y-40263821D01*
X28002490Y-40272328D01*
X27966750Y-40283355D01*
X27913590Y-40293375D01*
X27827424Y-40294965D01*
X27716606Y-40288741D01*
X27589486Y-40275318D01*
X27454414Y-40255312D01*
X27366309Y-40239070D01*
X27243516Y-40214432D01*
X27156663Y-40196566D01*
X27100166Y-40183997D01*
X27068443Y-40175249D01*
X27055911Y-40168847D01*
X27056987Y-40163315D01*
X27063200Y-40158952D01*
X27057984Y-40150968D01*
X27020221Y-40146039D01*
X26996354Y-40145354D01*
X26900482Y-40129272D01*
X26790202Y-40085973D01*
X26677609Y-40021254D01*
X26580334Y-39945947D01*
X26533253Y-39901325D01*
X26505308Y-39870310D01*
X26502049Y-39860195D01*
X26499737Y-39847901D01*
X26476943Y-39822265D01*
X26064642Y-39822265D01*
X26047109Y-39847644D01*
X25992113Y-39859521D01*
X25969776Y-39860166D01*
X25906968Y-39868321D01*
X25826162Y-39889412D01*
X25764650Y-39911213D01*
X25680695Y-39944269D01*
X25629676Y-39960218D01*
X25605562Y-39958497D01*
X25602321Y-39938540D01*
X25613923Y-39899786D01*
X25614832Y-39897208D01*
X25641671Y-39839344D01*
X25682747Y-39769041D01*
X25706796Y-39733166D01*
X25751839Y-39669646D01*
X25791966Y-39612939D01*
X25807946Y-39590291D01*
X25849091Y-39550069D01*
X25887989Y-39551243D01*
X25926238Y-39594192D01*
X25941176Y-39622041D01*
X25971050Y-39669895D01*
X25999617Y-39694399D01*
X26007440Y-39695259D01*
X26025891Y-39703507D01*
X26022913Y-39721105D01*
X26026335Y-39760390D01*
X26042833Y-39785308D01*
X26064642Y-39822265D01*
X26476943Y-39822265D01*
X26472683Y-39817474D01*
X26463088Y-39808335D01*
X26429827Y-39768635D01*
X26419805Y-39737485D01*
X26421237Y-39733727D01*
X26421540Y-39716531D01*
X26413373Y-39716767D01*
X26393114Y-39702582D01*
X26358996Y-39659751D01*
X26317550Y-39596726D01*
X26306971Y-39579079D01*
X26270289Y-39514222D01*
X26247047Y-39467995D01*
X26240960Y-39448005D01*
X26243089Y-39448295D01*
X26274952Y-39456625D01*
X26332886Y-39463529D01*
X26368750Y-39465841D01*
X26423733Y-39466128D01*
X26451818Y-39461671D01*
X26451210Y-39456687D01*
X26450660Y-39441276D01*
X26492055Y-39421789D01*
X26538000Y-39407897D01*
X26560416Y-39394874D01*
X26603188Y-39365997D01*
X26617551Y-39355859D01*
X26665984Y-39311499D01*
X26673334Y-39276672D01*
X26639538Y-39251310D01*
X26564534Y-39235342D01*
X26506548Y-39230584D01*
X26382577Y-39232012D01*
X26288504Y-39250143D01*
X26228106Y-39283906D01*
X26208267Y-39315032D01*
X26197011Y-39342974D01*
X26184657Y-39338765D01*
X26162619Y-39300034D01*
X26140071Y-39236411D01*
X26129691Y-39172250D01*
X25945334Y-39172250D01*
X25934750Y-39182833D01*
X25924167Y-39172250D01*
X25934750Y-39161666D01*
X25945334Y-39172250D01*
X26129691Y-39172250D01*
X26128398Y-39164258D01*
X26128238Y-39160735D01*
X26123011Y-39112186D01*
X26121577Y-39108750D01*
X25987667Y-39108750D01*
X25977084Y-39119333D01*
X25966500Y-39108750D01*
X25977084Y-39098166D01*
X25987667Y-39108750D01*
X26121577Y-39108750D01*
X26113720Y-39089930D01*
X26110838Y-39090104D01*
X26088475Y-39084193D01*
X26083362Y-39077719D01*
X26098439Y-39069274D01*
X26154611Y-39062965D01*
X26250687Y-39058862D01*
X26385480Y-39057033D01*
X26442013Y-39056944D01*
X26813728Y-39057306D01*
X26803661Y-39112824D01*
X26785570Y-39218214D01*
X26776470Y-39288686D01*
X26776128Y-39330637D01*
X26784313Y-39350467D01*
X26794889Y-39354604D01*
X26885337Y-39347590D01*
X26943774Y-39316693D01*
X26972905Y-39297424D01*
X26993046Y-39312371D01*
X27002727Y-39329243D01*
X27015518Y-39362736D01*
X27011715Y-39373333D01*
X27012564Y-39386291D01*
X27032183Y-39412092D01*
X27055372Y-39444760D01*
X27057638Y-39460473D01*
X27066663Y-39468330D01*
X27087788Y-39470095D01*
X27115858Y-39463074D01*
X27117281Y-39453464D01*
X27122664Y-39437749D01*
X27129418Y-39436833D01*
X27150771Y-39453204D01*
X27151834Y-39460344D01*
X27162706Y-39463339D01*
X27188953Y-39438010D01*
X27189848Y-39436910D01*
X27227863Y-39389964D01*
X27295248Y-39446666D01*
X27341811Y-39478980D01*
X27377188Y-39491562D01*
X27384234Y-39490017D01*
X27404093Y-39490296D01*
X27405834Y-39497320D01*
X27389270Y-39523149D01*
X27379375Y-39528648D01*
X27364656Y-39538309D01*
X27378631Y-39540995D01*
X27407975Y-39525794D01*
X27426579Y-39501121D01*
X27459952Y-39470686D01*
X27485532Y-39471368D01*
X27507886Y-39475946D01*
X27494565Y-39463280D01*
X27476679Y-39425412D01*
X27481147Y-39386553D01*
X27498034Y-39346591D01*
X27526977Y-39340018D01*
X27540582Y-39343440D01*
X27594148Y-39368629D01*
X27619565Y-39386780D01*
X27666385Y-39407202D01*
X27704231Y-39408582D01*
X27742895Y-39392218D01*
X27750621Y-39352329D01*
X27750423Y-39350014D01*
X27741450Y-39282740D01*
X27726450Y-39196936D01*
X27709073Y-39111632D01*
X27692969Y-39045856D01*
X27690499Y-39037598D01*
X27683399Y-39003397D01*
X27699606Y-38994676D01*
X27736123Y-39000872D01*
X27809735Y-39012387D01*
X27917850Y-39023388D01*
X28052639Y-39033436D01*
X28206272Y-39042092D01*
X28370920Y-39048921D01*
X28538753Y-39053482D01*
X28701941Y-39055338D01*
X28709986Y-39055353D01*
X28901585Y-39057872D01*
X29060488Y-39064765D01*
X29184578Y-39075809D01*
X29271737Y-39090785D01*
X29319850Y-39109470D01*
X29328517Y-39119878D01*
X29348566Y-39131604D01*
X29354538Y-39129069D01*
X29386020Y-39128805D01*
X29417095Y-39140728D01*
X29437599Y-39152041D01*
X29446871Y-39163829D01*
X29600560Y-39163829D01*
X29588526Y-39145183D01*
X29587603Y-39143493D01*
X29552684Y-39108075D01*
X29521088Y-39098166D01*
X29479581Y-39091503D01*
X29413599Y-39074149D01*
X29347208Y-39053106D01*
X29306349Y-39040251D01*
X29263100Y-39029774D01*
X29212168Y-39021264D01*
X29148259Y-39014308D01*
X29066079Y-39008495D01*
X28960336Y-39003413D01*
X28825735Y-38998650D01*
X28656983Y-38993793D01*
X28548834Y-38990961D01*
X28379680Y-38985979D01*
X28219636Y-38980045D01*
X28074842Y-38973481D01*
X27951441Y-38966606D01*
X27855573Y-38959742D01*
X27793380Y-38953211D01*
X27779074Y-38950712D01*
X27709610Y-38939682D01*
X27651204Y-38938184D01*
X27632751Y-38941294D01*
X27602808Y-38953758D01*
X27611908Y-38967223D01*
X27627175Y-38976160D01*
X27651148Y-38996656D01*
X27637891Y-39013979D01*
X27624106Y-39031467D01*
X27622076Y-39066272D01*
X27631797Y-39128370D01*
X27637805Y-39157604D01*
X27650909Y-39228347D01*
X27657591Y-39283189D01*
X27656996Y-39306673D01*
X27635112Y-39311115D01*
X27585767Y-39295077D01*
X27548991Y-39277856D01*
X27490427Y-39249224D01*
X27457868Y-39239283D01*
X27439859Y-39247006D01*
X27427283Y-39266973D01*
X27409103Y-39320945D01*
X27405834Y-39349525D01*
X27396437Y-39393710D01*
X27369381Y-39399998D01*
X27326370Y-39368137D01*
X27320554Y-39362097D01*
X27266935Y-39319194D01*
X27217655Y-39315837D01*
X27163051Y-39351623D01*
X27159042Y-39355337D01*
X27130077Y-39379426D01*
X27110388Y-39382643D01*
X27096336Y-39359532D01*
X27084285Y-39304637D01*
X27072403Y-39225407D01*
X27054336Y-39148390D01*
X27028847Y-39105431D01*
X26999668Y-39098875D01*
X26970533Y-39131063D01*
X26959922Y-39154796D01*
X26930747Y-39213061D01*
X26901834Y-39253607D01*
X26874852Y-39279520D01*
X26861802Y-39270245D01*
X26854151Y-39243062D01*
X26854594Y-39185992D01*
X26867265Y-39151083D01*
X26889138Y-39100046D01*
X26905801Y-39037497D01*
X26912469Y-38990211D01*
X26902615Y-38974689D01*
X26868148Y-38981211D01*
X26860755Y-38983372D01*
X26821384Y-38988982D01*
X26747637Y-38994084D01*
X26647474Y-38998332D01*
X26528851Y-39001383D01*
X26411000Y-39002832D01*
X26019417Y-39005166D01*
X25886095Y-39136814D01*
X25822830Y-39200636D01*
X25786247Y-39242682D01*
X25772030Y-39270007D01*
X25775865Y-39289669D01*
X25785553Y-39301242D01*
X25813026Y-39335827D01*
X25810519Y-39367002D01*
X25787254Y-39401999D01*
X25770842Y-39419642D01*
X25750879Y-39424874D01*
X25718848Y-39415365D01*
X25666230Y-39388787D01*
X25597136Y-39349997D01*
X25446314Y-39253205D01*
X25326422Y-39149431D01*
X25226194Y-39028333D01*
X25193321Y-38979390D01*
X25152059Y-38909815D01*
X25134705Y-38865098D01*
X25138435Y-38837267D01*
X25141476Y-38833010D01*
X25175998Y-38808225D01*
X25240317Y-38775486D01*
X25323731Y-38739170D01*
X25415540Y-38703655D01*
X25505043Y-38673320D01*
X25551878Y-38660599D01*
X25345845Y-38660599D01*
X25325581Y-38683120D01*
X25266704Y-38720636D01*
X25257417Y-38725882D01*
X25174183Y-38770450D01*
X25120554Y-38793112D01*
X25090663Y-38795071D01*
X25078644Y-38777526D01*
X25077500Y-38762715D01*
X25091332Y-38733206D01*
X25137005Y-38706366D01*
X25185764Y-38688632D01*
X25274855Y-38662792D01*
X25328575Y-38653635D01*
X25345845Y-38660599D01*
X25551878Y-38660599D01*
X25581539Y-38652543D01*
X25583718Y-38652071D01*
X25642072Y-38636306D01*
X25676687Y-38620529D01*
X25681240Y-38612125D01*
X25691808Y-38597029D01*
X25731564Y-38583208D01*
X25735121Y-38582467D01*
X25799388Y-38569614D01*
X25770095Y-38538171D01*
X25680750Y-38538171D01*
X25500834Y-38575097D01*
X25404039Y-38596220D01*
X25310229Y-38618802D01*
X25236866Y-38638598D01*
X25225667Y-38642012D01*
X25142971Y-38665314D01*
X25090877Y-38671110D01*
X25061022Y-38658431D01*
X25045038Y-38626308D01*
X25043612Y-38620930D01*
X25038517Y-38575385D01*
X25044920Y-38552139D01*
X25072910Y-38543787D01*
X25133160Y-38536115D01*
X25215600Y-38529603D01*
X25310156Y-38524733D01*
X25406758Y-38521986D01*
X25495334Y-38521842D01*
X25565810Y-38524781D01*
X25582935Y-38526456D01*
X25680750Y-38538171D01*
X25770095Y-38538171D01*
X25757791Y-38524964D01*
X25737827Y-38506791D01*
X25712668Y-38494420D01*
X25674556Y-38486823D01*
X25615735Y-38482974D01*
X25528448Y-38481846D01*
X25434725Y-38482200D01*
X25323544Y-38483839D01*
X25222155Y-38486962D01*
X25140973Y-38491138D01*
X25090415Y-38495937D01*
X25086786Y-38496556D01*
X25020315Y-38509026D01*
X25006758Y-38396138D01*
X24998607Y-38311135D01*
X24997595Y-38293833D01*
X24971667Y-38293833D01*
X24963923Y-38311255D01*
X24957556Y-38307944D01*
X24955023Y-38282824D01*
X24957556Y-38279722D01*
X24970140Y-38282627D01*
X24971667Y-38293833D01*
X24997595Y-38293833D01*
X24993671Y-38226757D01*
X24993018Y-38196234D01*
X25001986Y-38117108D01*
X25026661Y-38011271D01*
X25063305Y-37889615D01*
X25108181Y-37763033D01*
X25157550Y-37642417D01*
X25207676Y-37538661D01*
X25234667Y-37492008D01*
X25263630Y-37441247D01*
X25277528Y-37406862D01*
X25277104Y-37399825D01*
X25277251Y-37372149D01*
X25298315Y-37316312D01*
X25337033Y-37238900D01*
X25390138Y-37146496D01*
X25447784Y-37055583D01*
X25506466Y-36962295D01*
X25563893Y-36863195D01*
X25610027Y-36775816D01*
X25620317Y-36754178D01*
X25652699Y-36688162D01*
X25680110Y-36640734D01*
X25696748Y-36621905D01*
X25696999Y-36621887D01*
X25721857Y-36638092D01*
X25771336Y-36685987D01*
X25843873Y-36763998D01*
X25891521Y-36817458D01*
X25917087Y-36851023D01*
X25924167Y-36866495D01*
X25936943Y-36896368D01*
X25967869Y-36937442D01*
X26005841Y-36977722D01*
X26039757Y-37005213D01*
X26056793Y-37009773D01*
X26068757Y-37009710D01*
X26064069Y-37020081D01*
X26068488Y-37048275D01*
X26096363Y-37093310D01*
X26119007Y-37120481D01*
X26164106Y-37172292D01*
X26198054Y-37215521D01*
X26206674Y-37228576D01*
X26240916Y-37250141D01*
X26300217Y-37237950D01*
X26384721Y-37191961D01*
X26430074Y-37160899D01*
X26543802Y-37089455D01*
X26668839Y-37027434D01*
X26785946Y-36984197D01*
X26802584Y-36979667D01*
X26849514Y-36965641D01*
X26924151Y-36941106D01*
X27014442Y-36910087D01*
X27071649Y-36889846D01*
X27179952Y-36854179D01*
X27294446Y-36821480D01*
X27396367Y-36796946D01*
X27431482Y-36790228D01*
X27589162Y-36775378D01*
X27775484Y-36777433D01*
X27980749Y-36795355D01*
X28195257Y-36828109D01*
X28409306Y-36874656D01*
X28529740Y-36907659D01*
X28599658Y-36931670D01*
X28688432Y-36966893D01*
X28788779Y-37009880D01*
X28893419Y-37057183D01*
X28995069Y-37105356D01*
X29086448Y-37150950D01*
X29160273Y-37190518D01*
X29209262Y-37220613D01*
X29226167Y-37237379D01*
X29242734Y-37245384D01*
X29263209Y-37242087D01*
X29297241Y-37219404D01*
X29346846Y-37170287D01*
X29406424Y-37102168D01*
X29470375Y-37022482D01*
X29533100Y-36938663D01*
X29588999Y-36858144D01*
X29632471Y-36788359D01*
X29657917Y-36736742D01*
X29661478Y-36713376D01*
X29668632Y-36684781D01*
X29678457Y-36678584D01*
X29700769Y-36653705D01*
X29725521Y-36603236D01*
X29733775Y-36580521D01*
X29763623Y-36508591D01*
X29791393Y-36478843D01*
X29816561Y-36491156D01*
X29838605Y-36545407D01*
X29851873Y-36608131D01*
X29863599Y-36658486D01*
X29876671Y-36670755D01*
X29886375Y-36661480D01*
X29899051Y-36650741D01*
X29897073Y-36677549D01*
X29895251Y-36686376D01*
X29896110Y-36730285D01*
X29908404Y-36804181D01*
X29930197Y-36897886D01*
X29947650Y-36961542D01*
X29975932Y-37064593D01*
X30000506Y-37164130D01*
X30018048Y-37246173D01*
X30024060Y-37283125D01*
X30034295Y-37344560D01*
X30049524Y-37374415D01*
X30076279Y-37383417D01*
X30085288Y-37383666D01*
X30138624Y-37403721D01*
X30193731Y-37459836D01*
X30248284Y-37545936D01*
X30299956Y-37655946D01*
X30346424Y-37783792D01*
X30385362Y-37923398D01*
X30414445Y-38068690D01*
X30431347Y-38213594D01*
X30434664Y-38296434D01*
X30503973Y-38296434D01*
X30497524Y-38142056D01*
X30496595Y-38135083D01*
X30475000Y-38135083D01*
X30464417Y-38145666D01*
X30453834Y-38135083D01*
X30464417Y-38124500D01*
X30475000Y-38135083D01*
X30496595Y-38135083D01*
X30475787Y-37978927D01*
X30437016Y-37827450D01*
X30378002Y-37672963D01*
X30345888Y-37602557D01*
X30274208Y-37471586D01*
X30201711Y-37378241D01*
X30180869Y-37358711D01*
X30118382Y-37292498D01*
X30086718Y-37222450D01*
X30082608Y-37203321D01*
X30070372Y-37148934D01*
X30048812Y-37066109D01*
X30021152Y-36966843D01*
X29995480Y-36879252D01*
X29964254Y-36772635D01*
X29935441Y-36669637D01*
X29912643Y-36583396D01*
X29901126Y-36535148D01*
X29885833Y-36477790D01*
X29870960Y-36444172D01*
X29863806Y-36440119D01*
X29862572Y-36438222D01*
X29790612Y-36438222D01*
X29787706Y-36450805D01*
X29776500Y-36452333D01*
X29759078Y-36444588D01*
X29762389Y-36438222D01*
X29787509Y-36435688D01*
X29790612Y-36438222D01*
X29862572Y-36438222D01*
X29856083Y-36428254D01*
X29856256Y-36387146D01*
X29857323Y-36376765D01*
X29859378Y-36327471D01*
X29845695Y-36307349D01*
X29821150Y-36304166D01*
X29784335Y-36317473D01*
G37*
X29784335Y-36317473D02*
X29776500Y-36337479D01*
X29767412Y-36368983D01*
X29742761Y-36429028D01*
X29706467Y-36508572D01*
X29668677Y-36586187D01*
X29587629Y-36737975D01*
X29504428Y-36869932D01*
X29407596Y-36999146D01*
X29325437Y-37097255D01*
X29252744Y-37181260D01*
X29018187Y-37059390D01*
X28806340Y-36962061D01*
X28578757Y-36880312D01*
X28342472Y-36815209D01*
X28104517Y-36767817D01*
X27871927Y-36739204D01*
X27651734Y-36730435D01*
X27450974Y-36742576D01*
X27276679Y-36776694D01*
X27236500Y-36789318D01*
X27192999Y-36803468D01*
X27121402Y-36825923D01*
X27034156Y-36852798D01*
X26993084Y-36865305D01*
X26835599Y-36917295D01*
X26686642Y-36974362D01*
X26554768Y-37032768D01*
X26448527Y-37088772D01*
X26385783Y-37130879D01*
X26333064Y-37168120D01*
X26289959Y-37190380D01*
X26277592Y-37193166D01*
X26252581Y-37177227D01*
X26209869Y-37134374D01*
X26156485Y-37072054D01*
X26122893Y-37029254D01*
X26047732Y-36932980D01*
X25961469Y-36826341D01*
X25880481Y-36729514D01*
X25865959Y-36712643D01*
X25808723Y-36644248D01*
X25763955Y-36586316D01*
X25737839Y-36547086D01*
X25733667Y-36536416D01*
X25716268Y-36520522D01*
X25688270Y-36519652D01*
X25654944Y-36537251D01*
X25624192Y-36584028D01*
X25599606Y-36642833D01*
X25565251Y-36722549D01*
X25518097Y-36816203D01*
X25472303Y-36896833D01*
X25369802Y-37066702D01*
X25290559Y-37202585D01*
X25234709Y-37304237D01*
X25202387Y-37371413D01*
X25193725Y-37403867D01*
X25194366Y-37405559D01*
X25191127Y-37433321D01*
X25169349Y-37481327D01*
X25155692Y-37504587D01*
X25111984Y-37585439D01*
X25063935Y-37692220D01*
X25017742Y-37809861D01*
X24979603Y-37923291D01*
X24970406Y-37955166D01*
X24958937Y-38016838D01*
X24948927Y-38106925D01*
X24941707Y-38211509D01*
X24939093Y-38282743D01*
X24933925Y-38515069D01*
X24735838Y-38551540D01*
X24655894Y-38568147D01*
X24567376Y-38589567D01*
X24476586Y-38613831D01*
X24389829Y-38638968D01*
X24313410Y-38663007D01*
X24253634Y-38683978D01*
X24216804Y-38699909D01*
X24209226Y-38708830D01*
X24230834Y-38709399D01*
X24283879Y-38701041D01*
X24364150Y-38684058D01*
X24458159Y-38661415D01*
X24506000Y-38648923D01*
X24603592Y-38623613D01*
X24695815Y-38601245D01*
X24768360Y-38585228D01*
X24791750Y-38580836D01*
X24855125Y-38569222D01*
X24904604Y-38558353D01*
X24911547Y-38556468D01*
X24940559Y-38562131D01*
X24964678Y-38602457D01*
X24971865Y-38622515D01*
X24986319Y-38673234D01*
X24990572Y-38703284D01*
X24989652Y-38705776D01*
X24967798Y-38716950D01*
X24917926Y-38739360D01*
X24855250Y-38766277D01*
X24759947Y-38807921D01*
X24657779Y-38855003D01*
X24554493Y-38904563D01*
X24455833Y-38953638D01*
X24367543Y-38999268D01*
X24295367Y-39038491D01*
X24245052Y-39068347D01*
X24222340Y-39085875D01*
X24229615Y-39088772D01*
X24275914Y-39074912D01*
X24350195Y-39045887D01*
X24442724Y-39005761D01*
X24543769Y-38958595D01*
X24557699Y-38951828D01*
X24717965Y-38874593D01*
X24841587Y-38817282D01*
X24929134Y-38779645D01*
X24981176Y-38761428D01*
X24993154Y-38759500D01*
X25015707Y-38776695D01*
X25024845Y-38814351D01*
X25016203Y-38851574D01*
X25013246Y-38855658D01*
X24985996Y-38879469D01*
X24933077Y-38919189D01*
X24864267Y-38967578D01*
X24838256Y-38985212D01*
X24739180Y-39052631D01*
X24631395Y-39127509D01*
X24521545Y-39205062D01*
X24416273Y-39280508D01*
X24322223Y-39349064D01*
X24246039Y-39405948D01*
X24194366Y-39446376D01*
X24178505Y-39460146D01*
X24148600Y-39492917D01*
X24149025Y-39503584D01*
X24175727Y-39494739D01*
X24224654Y-39468976D01*
X24291752Y-39428887D01*
X24372970Y-39377065D01*
X24464256Y-39316104D01*
X24561555Y-39248596D01*
X24660816Y-39177134D01*
X24757986Y-39104311D01*
X24849012Y-39032720D01*
X24858156Y-39025293D01*
X24905082Y-38990949D01*
X24939899Y-38972289D01*
X24945522Y-38971166D01*
X24975237Y-38956582D01*
X24992834Y-38939416D01*
X25027075Y-38915795D01*
X25066706Y-38908183D01*
X25094541Y-38918134D01*
X25098667Y-38929850D01*
X25113765Y-38977539D01*
X25154106Y-39042989D01*
X25212256Y-39117044D01*
X25280785Y-39190547D01*
X25352261Y-39254343D01*
X25377383Y-39273241D01*
X25486589Y-39346322D01*
X25586910Y-39405323D01*
X25673232Y-39447994D01*
X25740441Y-39472083D01*
X25783421Y-39475339D01*
X25797167Y-39458000D01*
X25814311Y-39439221D01*
X25828917Y-39436833D01*
X25855423Y-39442469D01*
X25853584Y-39462551D01*
X25821547Y-39501841D01*
X25791875Y-39531896D01*
X25747224Y-39586102D01*
X25687095Y-39675173D01*
X25613630Y-39795484D01*
X25528973Y-39943407D01*
X25435267Y-40115316D01*
X25342632Y-40292074D01*
X25296972Y-40389363D01*
X25249584Y-40505420D01*
X25202380Y-40633755D01*
X25157270Y-40767877D01*
X25116165Y-40901296D01*
X25080974Y-41027522D01*
X25053608Y-41140063D01*
X25035978Y-41232428D01*
X25029994Y-41298128D01*
X25037077Y-41330191D01*
X25052169Y-41330646D01*
X25056334Y-41303733D01*
X25055592Y-41260643D01*
X25054526Y-41243658D01*
X25068074Y-41222087D01*
X25079337Y-41213698D01*
X25103579Y-41183535D01*
X25126946Y-41132114D01*
X25128770Y-41126664D01*
X25146274Y-41084015D01*
X25171980Y-41061140D01*
X25219396Y-41049457D01*
X25257417Y-41044924D01*
X25344102Y-41023043D01*
X25443262Y-40979139D01*
X25538452Y-40922102D01*
X25613228Y-40860824D01*
X25627834Y-40844644D01*
X25659139Y-40816528D01*
X25716518Y-40773358D01*
X25790076Y-40722401D01*
X25829802Y-40696292D01*
X25913701Y-40637782D01*
X25991417Y-40575951D01*
X26050282Y-40521146D01*
X26065501Y-40503776D01*
X26115652Y-40435203D01*
X26167824Y-40355366D01*
X26216296Y-40274142D01*
X26255353Y-40201403D01*
X26279274Y-40147025D01*
X26284000Y-40126480D01*
X26285915Y-40109876D01*
X26220500Y-40109876D01*
X26204644Y-40178721D01*
X26161148Y-40265232D01*
X26096128Y-40361525D01*
X26015695Y-40459713D01*
X25925964Y-40551911D01*
X25833047Y-40630232D01*
X25798097Y-40654767D01*
X25713432Y-40713450D01*
X25627804Y-40777485D01*
X25559546Y-40833155D01*
X25558725Y-40833876D01*
X25460201Y-40908496D01*
X25358267Y-40964872D01*
X25264539Y-40997226D01*
X25219416Y-41002701D01*
X25181472Y-41000086D01*
X25167812Y-40983345D01*
X25171532Y-40940368D01*
X25174425Y-40923791D01*
X25196536Y-40833070D01*
X25232711Y-40721538D01*
X25279240Y-40597633D01*
X25332412Y-40469786D01*
X25388516Y-40346435D01*
X25443843Y-40236013D01*
X25494682Y-40146955D01*
X25537322Y-40087696D01*
X25546258Y-40078533D01*
X25596063Y-40043287D01*
X25672561Y-40001076D01*
X25762259Y-39958252D01*
X25851666Y-39921166D01*
X25927291Y-39896171D01*
X25940311Y-39893019D01*
X26017699Y-39895160D01*
X26095565Y-39928031D01*
X26162673Y-39982935D01*
X26207790Y-40051177D01*
X26220500Y-40109876D01*
X26285915Y-40109876D01*
X26286639Y-40103608D01*
X26298702Y-40097078D01*
X26326410Y-40109438D01*
X26375981Y-40143238D01*
X26439030Y-40190037D01*
X26566614Y-40274421D01*
X26720356Y-40358258D01*
X26884648Y-40434073D01*
X27043884Y-40494394D01*
X27125222Y-40518669D01*
X27242434Y-40540864D01*
X27389545Y-40555760D01*
X27554711Y-40563097D01*
X27726086Y-40562612D01*
X27891826Y-40554045D01*
X28030250Y-40538636D01*
X28177027Y-40511170D01*
X28340820Y-40471431D01*
X28506542Y-40423735D01*
X28659104Y-40372396D01*
X28774518Y-40325814D01*
X28845100Y-40294739D01*
X28900392Y-40272113D01*
X28929390Y-40262419D01*
X28930406Y-40262333D01*
X28944158Y-40280857D01*
X28958136Y-40326705D01*
X28960827Y-40339828D01*
X28971324Y-40372806D01*
X28993547Y-40411923D01*
X29031289Y-40461785D01*
X29088344Y-40526998D01*
X29168505Y-40612167D01*
X29275391Y-40721720D01*
X29381999Y-40828926D01*
X29464652Y-40909337D01*
X29528296Y-40967097D01*
X29577874Y-41006347D01*
X29618329Y-41031230D01*
X29654605Y-41045889D01*
X29666069Y-41049079D01*
X29730101Y-41071084D01*
X29769462Y-41104456D01*
X29793545Y-41160644D01*
X29806424Y-41220125D01*
X29820347Y-41271032D01*
X29836986Y-41298137D01*
X29840960Y-41299500D01*
X29855990Y-41280194D01*
X29859994Y-41226171D01*
X29854073Y-41143274D01*
X29839327Y-41037346D01*
X29822655Y-40945997D01*
X29795763Y-40945997D01*
X29790681Y-40969675D01*
X29778476Y-41011053D01*
X29776500Y-41026064D01*
X29763357Y-41044448D01*
X29725327Y-41030747D01*
X29686058Y-41003166D01*
X29643248Y-40973717D01*
X29613913Y-40960854D01*
X29613284Y-40960833D01*
X29593072Y-40946554D01*
X29549437Y-40907639D01*
X29488296Y-40849969D01*
X29415565Y-40779428D01*
X29337158Y-40701896D01*
X29258992Y-40623257D01*
X29186982Y-40549392D01*
X29127045Y-40486184D01*
X29085096Y-40439515D01*
X29070449Y-40421083D01*
X29044870Y-40369777D01*
X29025943Y-40309212D01*
X29020419Y-40264196D01*
X29032123Y-40228706D01*
X29067758Y-40187993D01*
X29090874Y-40166337D01*
X29145823Y-40123723D01*
X29196154Y-40097270D01*
X29215897Y-40093000D01*
X29255455Y-40105213D01*
X29314418Y-40137092D01*
X29374334Y-40177666D01*
X29437744Y-40221121D01*
X29492184Y-40251666D01*
X29524021Y-40262333D01*
X29545372Y-40274031D01*
X29570017Y-40312388D01*
X29600481Y-40382292D01*
X29636034Y-40479291D01*
X29669303Y-40578398D01*
X29698338Y-40671987D01*
X29719277Y-40747226D01*
X29726841Y-40780916D01*
X29736967Y-40831973D01*
X29744842Y-40845317D01*
X29754611Y-40825082D01*
X29758662Y-40812666D01*
X29766815Y-40796423D01*
X29767739Y-40820466D01*
X29763771Y-40862551D01*
X29759081Y-40924005D01*
X29764204Y-40950351D01*
X29778462Y-40949037D01*
X29795763Y-40945997D01*
X29822655Y-40945997D01*
X29816856Y-40914228D01*
X29787762Y-40779764D01*
X29753146Y-40639795D01*
X29714108Y-40500165D01*
X29671748Y-40366715D01*
X29657516Y-40325833D01*
X29615350Y-40207961D01*
X29538750Y-40207961D01*
X29526590Y-40216394D01*
X29491083Y-40197085D01*
X29440880Y-40159562D01*
X29382389Y-40116452D01*
X29329111Y-40081516D01*
X29315674Y-40073909D01*
X29267597Y-40048693D01*
X29329313Y-39996763D01*
X29374587Y-39962964D01*
X29407967Y-39945493D01*
X29412100Y-39944833D01*
X29432249Y-39962788D01*
X29461129Y-40009081D01*
X29492766Y-40072352D01*
X29521186Y-40141239D01*
X29531749Y-40172375D01*
X29538750Y-40207961D01*
X29615350Y-40207961D01*
X29610126Y-40193359D01*
X29574420Y-40095308D01*
X29547944Y-40026198D01*
X29528240Y-39980549D01*
X29512853Y-39952881D01*
X29499328Y-39937713D01*
X29485207Y-39929567D01*
X29478800Y-39927030D01*
X29465601Y-39916112D01*
X29468544Y-39894672D01*
X29490805Y-39856803D01*
X29535562Y-39796599D01*
X29577376Y-39743750D01*
X29637751Y-39672433D01*
X29692200Y-39615488D01*
X29733406Y-39580185D01*
X29750002Y-39572258D01*
X29803365Y-39568873D01*
X29831080Y-39566967D01*
X29908107Y-39542860D01*
X29994138Y-39484219D01*
X30084082Y-39396430D01*
X30172849Y-39284876D01*
X30255349Y-39154943D01*
X30298934Y-39072028D01*
X30335018Y-39003281D01*
X30366642Y-38952570D01*
X30387792Y-38929362D01*
X30389878Y-38928833D01*
X30401408Y-38931281D01*
X30420321Y-38940819D01*
X30451376Y-38960738D01*
X30499334Y-38994329D01*
X30568953Y-39044883D01*
X30664994Y-39115691D01*
X30732613Y-39165804D01*
X30901738Y-39295893D01*
X31043788Y-39416294D01*
X31169370Y-39536605D01*
X31289092Y-39666427D01*
X31301105Y-39680250D01*
X31350053Y-39733288D01*
X31389377Y-39769454D01*
X31410071Y-39780791D01*
X31426862Y-39791192D01*
X31427500Y-39796666D01*
X31443681Y-39817133D01*
X31449211Y-39817833D01*
X31457544Y-39803091D01*
X31441641Y-39763315D01*
X31405314Y-39705175D01*
X31352376Y-39635344D01*
X31328988Y-39607467D01*
X31271691Y-39548053D01*
X31187684Y-39470123D01*
X31084561Y-39379966D01*
X30969916Y-39283871D01*
X30851343Y-39188127D01*
X30736436Y-39099024D01*
X30632790Y-39022851D01*
X30576019Y-38983886D01*
X30489120Y-38922466D01*
X30433170Y-38873958D01*
X30410050Y-38840501D01*
X30421646Y-38824235D01*
X30434382Y-38823000D01*
X30467923Y-38832924D01*
X30527247Y-38859039D01*
X30601774Y-38895858D01*
X30680926Y-38937897D01*
X30754122Y-38979667D01*
X30810784Y-39015684D01*
X30822846Y-39024447D01*
X30872075Y-39057745D01*
X30909731Y-39075883D01*
X30916207Y-39077000D01*
X30939336Y-39091023D01*
X30940667Y-39097763D01*
X30958610Y-39117899D01*
X30992878Y-39131630D01*
X31030332Y-39147041D01*
X31040503Y-39161421D01*
X31052120Y-39185607D01*
X31087616Y-39227198D01*
X31137604Y-39277415D01*
X31192696Y-39327481D01*
X31243505Y-39368618D01*
X31280644Y-39392049D01*
X31289772Y-39394500D01*
X31308465Y-39383460D01*
X31296430Y-39352865D01*
X31258258Y-39306502D01*
X31198537Y-39248157D01*
X31121857Y-39181618D01*
X31032807Y-39110669D01*
X30935976Y-39039099D01*
X30835954Y-38970694D01*
X30737331Y-38909241D01*
X30644696Y-38858525D01*
X30633443Y-38852972D01*
X30550948Y-38811506D01*
X30514664Y-38791873D01*
X30340845Y-38791873D01*
X30340158Y-38799616D01*
X30312208Y-38801083D01*
X30269128Y-38792443D01*
X30251880Y-38779258D01*
X30243750Y-38752837D01*
X30267256Y-38752919D01*
X30305699Y-38771065D01*
X30340845Y-38791873D01*
X30514664Y-38791873D01*
X30484890Y-38775763D01*
X30443191Y-38750188D01*
X30432667Y-38740279D01*
X30444065Y-38713388D01*
X30463401Y-38684170D01*
X30484516Y-38659615D01*
X30506155Y-38654673D01*
X30542617Y-38669675D01*
X30574526Y-38686740D01*
X30710372Y-38760813D01*
X30815243Y-38818827D01*
X30895584Y-38864518D01*
X30957839Y-38901625D01*
X31008452Y-38933886D01*
X31051841Y-38963605D01*
X31112972Y-39002354D01*
X31165179Y-39027792D01*
X31189424Y-39033785D01*
X31205910Y-39023847D01*
X31187747Y-38997117D01*
X31138154Y-38955729D01*
X31060351Y-38901816D01*
X30957556Y-38837512D01*
X30832989Y-38764950D01*
X30689867Y-38686265D01*
X30570891Y-38623796D01*
X30508032Y-38591423D01*
X30505437Y-38331503D01*
X30503973Y-38296434D01*
X30434664Y-38296434D01*
X30434521Y-38404929D01*
X30428505Y-38475610D01*
X30411254Y-38512991D01*
X30377405Y-38521587D01*
X30321597Y-38505914D01*
X30238466Y-38470486D01*
X30231584Y-38467427D01*
X30130582Y-38428326D01*
X30030091Y-38399446D01*
X29938839Y-38382238D01*
X29865552Y-38378153D01*
X29818959Y-38388640D01*
X29809702Y-38397317D01*
X29816835Y-38412510D01*
X29863138Y-38419915D01*
X29901911Y-38420833D01*
X29979746Y-38428392D01*
X30071107Y-38452989D01*
X30186370Y-38497502D01*
X30201492Y-38503970D01*
X30284012Y-38540015D01*
X30350766Y-38570054D01*
X30392963Y-38590083D01*
X30403011Y-38595788D01*
X30402630Y-38619461D01*
X30390225Y-38665881D01*
X30387907Y-38672697D01*
X30364543Y-38719624D01*
X30337259Y-38729957D01*
X30329936Y-38727808D01*
X30276810Y-38709617D01*
X30198835Y-38685587D01*
X30105735Y-38658409D01*
X30007231Y-38630775D01*
X29913048Y-38605373D01*
X29832907Y-38584897D01*
X29776533Y-38572035D01*
X29756071Y-38569000D01*
X29717945Y-38574776D01*
X29715304Y-38588606D01*
X29743445Y-38605243D01*
X29797662Y-38619437D01*
X29801909Y-38620139D01*
X29862570Y-38632865D01*
X29905848Y-38647342D01*
X29913034Y-38651523D01*
X29947919Y-38670127D01*
X29999356Y-38690194D01*
X30040813Y-38708599D01*
X30099893Y-38740069D01*
X30166187Y-38778346D01*
X30229285Y-38817172D01*
X30278778Y-38850288D01*
X30304255Y-38871436D01*
X30305667Y-38874350D01*
X30298020Y-38896076D01*
X30277713Y-38946903D01*
X30248703Y-39016994D01*
X30239977Y-39037741D01*
X30152360Y-39210604D01*
X30049312Y-39353189D01*
X29934764Y-39460242D01*
X29912096Y-39476085D01*
X29844761Y-39518747D01*
X29803173Y-39538029D01*
X29779053Y-39535734D01*
X29764122Y-39513669D01*
X29762169Y-39508780D01*
X29765072Y-39470929D01*
X29777832Y-39457176D01*
X29787033Y-39439877D01*
X29774929Y-39407157D01*
X29738545Y-39352819D01*
X29709180Y-39314140D01*
X29657911Y-39246267D01*
X29614741Y-39185805D01*
X29600560Y-39163829D01*
X29446871Y-39163829D01*
X29441673Y-39183068D01*
X29418767Y-39216739D01*
X29374915Y-39271818D01*
X29331681Y-39324814D01*
X29312730Y-39360948D01*
X29310834Y-39372439D01*
X29295264Y-39393712D01*
X29289667Y-39394500D01*
X29269340Y-39410792D01*
X29268500Y-39417078D01*
X29256674Y-39448873D01*
X29227869Y-39492643D01*
X29192095Y-39536119D01*
X29159360Y-39567028D01*
X29140608Y-39573865D01*
X29115939Y-39578557D01*
X29107943Y-39587925D01*
X29105092Y-39602770D01*
X29117063Y-39597604D01*
X29138915Y-39594807D01*
X29141500Y-39601841D01*
X29126674Y-39627086D01*
X29089254Y-39666257D01*
X29039832Y-39710407D01*
X28989000Y-39750591D01*
X28947349Y-39777863D01*
X28926101Y-39783776D01*
X28912557Y-39785702D01*
X28913434Y-39791367D01*
X28902433Y-39814937D01*
X28867972Y-39857078D01*
X28826029Y-39900249D01*
X28768304Y-39951680D01*
X28726365Y-39976179D01*
X28689122Y-39979522D01*
X28677862Y-39977416D01*
X28644839Y-39972865D01*
X28649799Y-39982692D01*
X28650638Y-39983261D01*
X28662882Y-40002154D01*
X28639781Y-40025845D01*
X28629472Y-40032600D01*
X28569047Y-40065804D01*
X28489808Y-40103081D01*
X28405526Y-40138648D01*
X28329971Y-40166721D01*
X28276916Y-40181519D01*
X28273667Y-40182009D01*
X28216285Y-40199676D01*
X28168416Y-40225663D01*
X28111482Y-40253493D01*
X28062582Y-40263821D01*
X28002490Y-40272328D01*
X27966750Y-40283355D01*
X27913590Y-40293375D01*
X27827424Y-40294965D01*
X27716606Y-40288741D01*
X27589486Y-40275318D01*
X27454414Y-40255312D01*
X27366309Y-40239070D01*
X27243516Y-40214432D01*
X27156663Y-40196566D01*
X27100166Y-40183997D01*
X27068443Y-40175249D01*
X27055911Y-40168847D01*
X27056987Y-40163315D01*
X27063200Y-40158952D01*
X27057984Y-40150968D01*
X27020221Y-40146039D01*
X26996354Y-40145354D01*
X26900482Y-40129272D01*
X26790202Y-40085973D01*
X26677609Y-40021254D01*
X26580334Y-39945947D01*
X26533253Y-39901325D01*
X26505308Y-39870310D01*
X26502049Y-39860195D01*
X26499737Y-39847901D01*
X26476943Y-39822265D01*
X26064642Y-39822265D01*
X26047109Y-39847644D01*
X25992113Y-39859521D01*
X25969776Y-39860166D01*
X25906968Y-39868321D01*
X25826162Y-39889412D01*
X25764650Y-39911213D01*
X25680695Y-39944269D01*
X25629676Y-39960218D01*
X25605562Y-39958497D01*
X25602321Y-39938540D01*
X25613923Y-39899786D01*
X25614832Y-39897208D01*
X25641671Y-39839344D01*
X25682747Y-39769041D01*
X25706796Y-39733166D01*
X25751839Y-39669646D01*
X25791966Y-39612939D01*
X25807946Y-39590291D01*
X25849091Y-39550069D01*
X25887989Y-39551243D01*
X25926238Y-39594192D01*
X25941176Y-39622041D01*
X25971050Y-39669895D01*
X25999617Y-39694399D01*
X26007440Y-39695259D01*
X26025891Y-39703507D01*
X26022913Y-39721105D01*
X26026335Y-39760390D01*
X26042833Y-39785308D01*
X26064642Y-39822265D01*
X26476943Y-39822265D01*
X26472683Y-39817474D01*
X26463088Y-39808335D01*
X26429827Y-39768635D01*
X26419805Y-39737485D01*
X26421237Y-39733727D01*
X26421540Y-39716531D01*
X26413373Y-39716767D01*
X26393114Y-39702582D01*
X26358996Y-39659751D01*
X26317550Y-39596726D01*
X26306971Y-39579079D01*
X26270289Y-39514222D01*
X26247047Y-39467995D01*
X26240960Y-39448005D01*
X26243089Y-39448295D01*
X26274952Y-39456625D01*
X26332886Y-39463529D01*
X26368750Y-39465841D01*
X26423733Y-39466128D01*
X26451818Y-39461671D01*
X26451210Y-39456687D01*
X26450660Y-39441276D01*
X26492055Y-39421789D01*
X26538000Y-39407897D01*
X26560416Y-39394874D01*
X26603188Y-39365997D01*
X26617551Y-39355859D01*
X26665984Y-39311499D01*
X26673334Y-39276672D01*
X26639538Y-39251310D01*
X26564534Y-39235342D01*
X26506548Y-39230584D01*
X26382577Y-39232012D01*
X26288504Y-39250143D01*
X26228106Y-39283906D01*
X26208267Y-39315032D01*
X26197011Y-39342974D01*
X26184657Y-39338765D01*
X26162619Y-39300034D01*
X26140071Y-39236411D01*
X26129691Y-39172250D01*
X25945334Y-39172250D01*
X25934750Y-39182833D01*
X25924167Y-39172250D01*
X25934750Y-39161666D01*
X25945334Y-39172250D01*
X26129691Y-39172250D01*
X26128398Y-39164258D01*
X26128238Y-39160735D01*
X26123011Y-39112186D01*
X26121577Y-39108750D01*
X25987667Y-39108750D01*
X25977084Y-39119333D01*
X25966500Y-39108750D01*
X25977084Y-39098166D01*
X25987667Y-39108750D01*
X26121577Y-39108750D01*
X26113720Y-39089930D01*
X26110838Y-39090104D01*
X26088475Y-39084193D01*
X26083362Y-39077719D01*
X26098439Y-39069274D01*
X26154611Y-39062965D01*
X26250687Y-39058862D01*
X26385480Y-39057033D01*
X26442013Y-39056944D01*
X26813728Y-39057306D01*
X26803661Y-39112824D01*
X26785570Y-39218214D01*
X26776470Y-39288686D01*
X26776128Y-39330637D01*
X26784313Y-39350467D01*
X26794889Y-39354604D01*
X26885337Y-39347590D01*
X26943774Y-39316693D01*
X26972905Y-39297424D01*
X26993046Y-39312371D01*
X27002727Y-39329243D01*
X27015518Y-39362736D01*
X27011715Y-39373333D01*
X27012564Y-39386291D01*
X27032183Y-39412092D01*
X27055372Y-39444760D01*
X27057638Y-39460473D01*
X27066663Y-39468330D01*
X27087788Y-39470095D01*
X27115858Y-39463074D01*
X27117281Y-39453464D01*
X27122664Y-39437749D01*
X27129418Y-39436833D01*
X27150771Y-39453204D01*
X27151834Y-39460344D01*
X27162706Y-39463339D01*
X27188953Y-39438010D01*
X27189848Y-39436910D01*
X27227863Y-39389964D01*
X27295248Y-39446666D01*
X27341811Y-39478980D01*
X27377188Y-39491562D01*
X27384234Y-39490017D01*
X27404093Y-39490296D01*
X27405834Y-39497320D01*
X27389270Y-39523149D01*
X27379375Y-39528648D01*
X27364656Y-39538309D01*
X27378631Y-39540995D01*
X27407975Y-39525794D01*
X27426579Y-39501121D01*
X27459952Y-39470686D01*
X27485532Y-39471368D01*
X27507886Y-39475946D01*
X27494565Y-39463280D01*
X27476679Y-39425412D01*
X27481147Y-39386553D01*
X27498034Y-39346591D01*
X27526977Y-39340018D01*
X27540582Y-39343440D01*
X27594148Y-39368629D01*
X27619565Y-39386780D01*
X27666385Y-39407202D01*
X27704231Y-39408582D01*
X27742895Y-39392218D01*
X27750621Y-39352329D01*
X27750423Y-39350014D01*
X27741450Y-39282740D01*
X27726450Y-39196936D01*
X27709073Y-39111632D01*
X27692969Y-39045856D01*
X27690499Y-39037598D01*
X27683399Y-39003397D01*
X27699606Y-38994676D01*
X27736123Y-39000872D01*
X27809735Y-39012387D01*
X27917850Y-39023388D01*
X28052639Y-39033436D01*
X28206272Y-39042092D01*
X28370920Y-39048921D01*
X28538753Y-39053482D01*
X28701941Y-39055338D01*
X28709986Y-39055353D01*
X28901585Y-39057872D01*
X29060488Y-39064765D01*
X29184578Y-39075809D01*
X29271737Y-39090785D01*
X29319850Y-39109470D01*
X29328517Y-39119878D01*
X29348566Y-39131604D01*
X29354538Y-39129069D01*
X29386020Y-39128805D01*
X29417095Y-39140728D01*
X29437599Y-39152041D01*
X29446871Y-39163829D01*
X29600560Y-39163829D01*
X29588526Y-39145183D01*
X29587603Y-39143493D01*
X29552684Y-39108075D01*
X29521088Y-39098166D01*
X29479581Y-39091503D01*
X29413599Y-39074149D01*
X29347208Y-39053106D01*
X29306349Y-39040251D01*
X29263100Y-39029774D01*
X29212168Y-39021264D01*
X29148259Y-39014308D01*
X29066079Y-39008495D01*
X28960336Y-39003413D01*
X28825735Y-38998650D01*
X28656983Y-38993793D01*
X28548834Y-38990961D01*
X28379680Y-38985979D01*
X28219636Y-38980045D01*
X28074842Y-38973481D01*
X27951441Y-38966606D01*
X27855573Y-38959742D01*
X27793380Y-38953211D01*
X27779074Y-38950712D01*
X27709610Y-38939682D01*
X27651204Y-38938184D01*
X27632751Y-38941294D01*
X27602808Y-38953758D01*
X27611908Y-38967223D01*
X27627175Y-38976160D01*
X27651148Y-38996656D01*
X27637891Y-39013979D01*
X27624106Y-39031467D01*
X27622076Y-39066272D01*
X27631797Y-39128370D01*
X27637805Y-39157604D01*
X27650909Y-39228347D01*
X27657591Y-39283189D01*
X27656996Y-39306673D01*
X27635112Y-39311115D01*
X27585767Y-39295077D01*
X27548991Y-39277856D01*
X27490427Y-39249224D01*
X27457868Y-39239283D01*
X27439859Y-39247006D01*
X27427283Y-39266973D01*
X27409103Y-39320945D01*
X27405834Y-39349525D01*
X27396437Y-39393710D01*
X27369381Y-39399998D01*
X27326370Y-39368137D01*
X27320554Y-39362097D01*
X27266935Y-39319194D01*
X27217655Y-39315837D01*
X27163051Y-39351623D01*
X27159042Y-39355337D01*
X27130077Y-39379426D01*
X27110388Y-39382643D01*
X27096336Y-39359532D01*
X27084285Y-39304637D01*
X27072403Y-39225407D01*
X27054336Y-39148390D01*
X27028847Y-39105431D01*
X26999668Y-39098875D01*
X26970533Y-39131063D01*
X26959922Y-39154796D01*
X26930747Y-39213061D01*
X26901834Y-39253607D01*
X26874852Y-39279520D01*
X26861802Y-39270245D01*
X26854151Y-39243062D01*
X26854594Y-39185992D01*
X26867265Y-39151083D01*
X26889138Y-39100046D01*
X26905801Y-39037497D01*
X26912469Y-38990211D01*
X26902615Y-38974689D01*
X26868148Y-38981211D01*
X26860755Y-38983372D01*
X26821384Y-38988982D01*
X26747637Y-38994084D01*
X26647474Y-38998332D01*
X26528851Y-39001383D01*
X26411000Y-39002832D01*
X26019417Y-39005166D01*
X25886095Y-39136814D01*
X25822830Y-39200636D01*
X25786247Y-39242682D01*
X25772030Y-39270007D01*
X25775865Y-39289669D01*
X25785553Y-39301242D01*
X25813026Y-39335827D01*
X25810519Y-39367002D01*
X25787254Y-39401999D01*
X25770842Y-39419642D01*
X25750879Y-39424874D01*
X25718848Y-39415365D01*
X25666230Y-39388787D01*
X25597136Y-39349997D01*
X25446314Y-39253205D01*
X25326422Y-39149431D01*
X25226194Y-39028333D01*
X25193321Y-38979390D01*
X25152059Y-38909815D01*
X25134705Y-38865098D01*
X25138435Y-38837267D01*
X25141476Y-38833010D01*
X25175998Y-38808225D01*
X25240317Y-38775486D01*
X25323731Y-38739170D01*
X25415540Y-38703655D01*
X25505043Y-38673320D01*
X25551878Y-38660599D01*
X25345845Y-38660599D01*
X25325581Y-38683120D01*
X25266704Y-38720636D01*
X25257417Y-38725882D01*
X25174183Y-38770450D01*
X25120554Y-38793112D01*
X25090663Y-38795071D01*
X25078644Y-38777526D01*
X25077500Y-38762715D01*
X25091332Y-38733206D01*
X25137005Y-38706366D01*
X25185764Y-38688632D01*
X25274855Y-38662792D01*
X25328575Y-38653635D01*
X25345845Y-38660599D01*
X25551878Y-38660599D01*
X25581539Y-38652543D01*
X25583718Y-38652071D01*
X25642072Y-38636306D01*
X25676687Y-38620529D01*
X25681240Y-38612125D01*
X25691808Y-38597029D01*
X25731564Y-38583208D01*
X25735121Y-38582467D01*
X25799388Y-38569614D01*
X25770095Y-38538171D01*
X25680750Y-38538171D01*
X25500834Y-38575097D01*
X25404039Y-38596220D01*
X25310229Y-38618802D01*
X25236866Y-38638598D01*
X25225667Y-38642012D01*
X25142971Y-38665314D01*
X25090877Y-38671110D01*
X25061022Y-38658431D01*
X25045038Y-38626308D01*
X25043612Y-38620930D01*
X25038517Y-38575385D01*
X25044920Y-38552139D01*
X25072910Y-38543787D01*
X25133160Y-38536115D01*
X25215600Y-38529603D01*
X25310156Y-38524733D01*
X25406758Y-38521986D01*
X25495334Y-38521842D01*
X25565810Y-38524781D01*
X25582935Y-38526456D01*
X25680750Y-38538171D01*
X25770095Y-38538171D01*
X25757791Y-38524964D01*
X25737827Y-38506791D01*
X25712668Y-38494420D01*
X25674556Y-38486823D01*
X25615735Y-38482974D01*
X25528448Y-38481846D01*
X25434725Y-38482200D01*
X25323544Y-38483839D01*
X25222155Y-38486962D01*
X25140973Y-38491138D01*
X25090415Y-38495937D01*
X25086786Y-38496556D01*
X25020315Y-38509026D01*
X25006758Y-38396138D01*
X24998607Y-38311135D01*
X24997595Y-38293833D01*
X24971667Y-38293833D01*
X24963923Y-38311255D01*
X24957556Y-38307944D01*
X24955023Y-38282824D01*
X24957556Y-38279722D01*
X24970140Y-38282627D01*
X24971667Y-38293833D01*
X24997595Y-38293833D01*
X24993671Y-38226757D01*
X24993018Y-38196234D01*
X25001986Y-38117108D01*
X25026661Y-38011271D01*
X25063305Y-37889615D01*
X25108181Y-37763033D01*
X25157550Y-37642417D01*
X25207676Y-37538661D01*
X25234667Y-37492008D01*
X25263630Y-37441247D01*
X25277528Y-37406862D01*
X25277104Y-37399825D01*
X25277251Y-37372149D01*
X25298315Y-37316312D01*
X25337033Y-37238900D01*
X25390138Y-37146496D01*
X25447784Y-37055583D01*
X25506466Y-36962295D01*
X25563893Y-36863195D01*
X25610027Y-36775816D01*
X25620317Y-36754178D01*
X25652699Y-36688162D01*
X25680110Y-36640734D01*
X25696748Y-36621905D01*
X25696999Y-36621887D01*
X25721857Y-36638092D01*
X25771336Y-36685987D01*
X25843873Y-36763998D01*
X25891521Y-36817458D01*
X25917087Y-36851023D01*
X25924167Y-36866495D01*
X25936943Y-36896368D01*
X25967869Y-36937442D01*
X26005841Y-36977722D01*
X26039757Y-37005213D01*
X26056793Y-37009773D01*
X26068757Y-37009710D01*
X26064069Y-37020081D01*
X26068488Y-37048275D01*
X26096363Y-37093310D01*
X26119007Y-37120481D01*
X26164106Y-37172292D01*
X26198054Y-37215521D01*
X26206674Y-37228576D01*
X26240916Y-37250141D01*
X26300217Y-37237950D01*
X26384721Y-37191961D01*
X26430074Y-37160899D01*
X26543802Y-37089455D01*
X26668839Y-37027434D01*
X26785946Y-36984197D01*
X26802584Y-36979667D01*
X26849514Y-36965641D01*
X26924151Y-36941106D01*
X27014442Y-36910087D01*
X27071649Y-36889846D01*
X27179952Y-36854179D01*
X27294446Y-36821480D01*
X27396367Y-36796946D01*
X27431482Y-36790228D01*
X27589162Y-36775378D01*
X27775484Y-36777433D01*
X27980749Y-36795355D01*
X28195257Y-36828109D01*
X28409306Y-36874656D01*
X28529740Y-36907659D01*
X28599658Y-36931670D01*
X28688432Y-36966893D01*
X28788779Y-37009880D01*
X28893419Y-37057183D01*
X28995069Y-37105356D01*
X29086448Y-37150950D01*
X29160273Y-37190518D01*
X29209262Y-37220613D01*
X29226167Y-37237379D01*
X29242734Y-37245384D01*
X29263209Y-37242087D01*
X29297241Y-37219404D01*
X29346846Y-37170287D01*
X29406424Y-37102168D01*
X29470375Y-37022482D01*
X29533100Y-36938663D01*
X29588999Y-36858144D01*
X29632471Y-36788359D01*
X29657917Y-36736742D01*
X29661478Y-36713376D01*
X29668632Y-36684781D01*
X29678457Y-36678584D01*
X29700769Y-36653705D01*
X29725521Y-36603236D01*
X29733775Y-36580521D01*
X29763623Y-36508591D01*
X29791393Y-36478843D01*
X29816561Y-36491156D01*
X29838605Y-36545407D01*
X29851873Y-36608131D01*
X29863599Y-36658486D01*
X29876671Y-36670755D01*
X29886375Y-36661480D01*
X29899051Y-36650741D01*
X29897073Y-36677549D01*
X29895251Y-36686376D01*
X29896110Y-36730285D01*
X29908404Y-36804181D01*
X29930197Y-36897886D01*
X29947650Y-36961542D01*
X29975932Y-37064593D01*
X30000506Y-37164130D01*
X30018048Y-37246173D01*
X30024060Y-37283125D01*
X30034295Y-37344560D01*
X30049524Y-37374415D01*
X30076279Y-37383417D01*
X30085288Y-37383666D01*
X30138624Y-37403721D01*
X30193731Y-37459836D01*
X30248284Y-37545936D01*
X30299956Y-37655946D01*
X30346424Y-37783792D01*
X30385362Y-37923398D01*
X30414445Y-38068690D01*
X30431347Y-38213594D01*
X30434664Y-38296434D01*
X30503973Y-38296434D01*
X30497524Y-38142056D01*
X30496595Y-38135083D01*
X30475000Y-38135083D01*
X30464417Y-38145666D01*
X30453834Y-38135083D01*
X30464417Y-38124500D01*
X30475000Y-38135083D01*
X30496595Y-38135083D01*
X30475787Y-37978927D01*
X30437016Y-37827450D01*
X30378002Y-37672963D01*
X30345888Y-37602557D01*
X30274208Y-37471586D01*
X30201711Y-37378241D01*
X30180869Y-37358711D01*
X30118382Y-37292498D01*
X30086718Y-37222450D01*
X30082608Y-37203321D01*
X30070372Y-37148934D01*
X30048812Y-37066109D01*
X30021152Y-36966843D01*
X29995480Y-36879252D01*
X29964254Y-36772635D01*
X29935441Y-36669637D01*
X29912643Y-36583396D01*
X29901126Y-36535148D01*
X29885833Y-36477790D01*
X29870960Y-36444172D01*
X29863806Y-36440119D01*
X29862572Y-36438222D01*
X29790612Y-36438222D01*
X29787706Y-36450805D01*
X29776500Y-36452333D01*
X29759078Y-36444588D01*
X29762389Y-36438222D01*
X29787509Y-36435688D01*
X29790612Y-36438222D01*
X29862572Y-36438222D01*
X29856083Y-36428254D01*
X29856256Y-36387146D01*
X29857323Y-36376765D01*
X29859378Y-36327471D01*
X29845695Y-36307349D01*
X29821150Y-36304166D01*
X29784335Y-36317473D01*
G36*
X27751556Y-40269388D02*
G01*
X27754462Y-40281972D01*
X27765667Y-40283500D01*
X27783090Y-40275755D01*
X27779778Y-40269388D01*
X27754658Y-40266855D01*
X27751556Y-40269388D01*
G37*
X27751556Y-40269388D02*
X27754462Y-40281972D01*
X27765667Y-40283500D01*
X27783090Y-40275755D01*
X27779778Y-40269388D01*
X27754658Y-40266855D01*
X27751556Y-40269388D01*
G36*
X28083167Y-40230583D02*
G01*
X28093750Y-40241166D01*
X28104334Y-40230583D01*
X28093750Y-40220000D01*
X28083167Y-40230583D01*
G37*
X28083167Y-40230583D02*
X28093750Y-40241166D01*
X28104334Y-40230583D01*
X28093750Y-40220000D01*
X28083167Y-40230583D01*
G36*
X27723334Y-40230583D02*
G01*
X27733917Y-40241166D01*
X27744500Y-40230583D01*
X27733917Y-40220000D01*
X27723334Y-40230583D01*
G37*
X27723334Y-40230583D02*
X27733917Y-40241166D01*
X27744500Y-40230583D01*
X27733917Y-40220000D01*
X27723334Y-40230583D01*
G36*
X28231334Y-40145916D02*
G01*
X28241917Y-40156500D01*
X28252500Y-40145916D01*
X28241917Y-40135333D01*
X28231334Y-40145916D01*
G37*
X28231334Y-40145916D02*
X28241917Y-40156500D01*
X28252500Y-40145916D01*
X28241917Y-40135333D01*
X28231334Y-40145916D01*
G36*
X28391183Y-40106090D02*
G01*
X28361390Y-40123170D01*
X28366381Y-40134215D01*
X28378251Y-40135333D01*
X28406954Y-40119960D01*
X28411101Y-40114409D01*
X28407694Y-40102381D01*
X28391183Y-40106090D01*
G37*
X28391183Y-40106090D02*
X28361390Y-40123170D01*
X28366381Y-40134215D01*
X28378251Y-40135333D01*
X28406954Y-40119960D01*
X28411101Y-40114409D01*
X28407694Y-40102381D01*
X28391183Y-40106090D01*
G36*
X27688056Y-40121222D02*
G01*
X27690962Y-40133805D01*
X27702167Y-40135333D01*
X27719590Y-40127588D01*
X27716278Y-40121222D01*
X27691158Y-40118688D01*
X27688056Y-40121222D01*
G37*
X27688056Y-40121222D02*
X27690962Y-40133805D01*
X27702167Y-40135333D01*
X27719590Y-40127588D01*
X27716278Y-40121222D01*
X27691158Y-40118688D01*
X27688056Y-40121222D01*
G36*
X27575167Y-40124750D02*
G01*
X27585750Y-40135333D01*
X27596334Y-40124750D01*
X27585750Y-40114166D01*
X27575167Y-40124750D01*
G37*
X27575167Y-40124750D02*
X27585750Y-40135333D01*
X27596334Y-40124750D01*
X27585750Y-40114166D01*
X27575167Y-40124750D01*
G36*
X26961334Y-40124750D02*
G01*
X26971917Y-40135333D01*
X26982500Y-40124750D01*
X26971917Y-40114166D01*
X26961334Y-40124750D01*
G37*
X26961334Y-40124750D02*
X26971917Y-40135333D01*
X26982500Y-40124750D01*
X26971917Y-40114166D01*
X26961334Y-40124750D01*
G36*
X26876667Y-40103583D02*
G01*
X26887250Y-40114166D01*
X26897834Y-40103583D01*
X26887250Y-40093000D01*
X26876667Y-40103583D01*
G37*
X26876667Y-40103583D02*
X26887250Y-40114166D01*
X26897834Y-40103583D01*
X26887250Y-40093000D01*
X26876667Y-40103583D01*
G36*
X27627783Y-39606416D02*
G01*
X27592241Y-39620881D01*
X27576337Y-39617472D01*
X27562815Y-39619655D01*
X27565518Y-39632719D01*
X27559950Y-39665974D01*
X27532292Y-39712276D01*
X27522968Y-39723777D01*
X27485433Y-39781728D01*
X27470527Y-39850568D01*
X27469360Y-39886625D01*
X27473875Y-39949278D01*
X27485958Y-39983556D01*
X27492765Y-39987166D01*
X27506689Y-40002649D01*
X27503591Y-40020016D01*
X27501434Y-40042282D01*
X27509511Y-40041415D01*
X27536172Y-40045847D01*
X27554751Y-40062154D01*
X27597955Y-40085933D01*
X27659445Y-40090867D01*
X27721053Y-40078583D01*
X27764608Y-40050703D01*
X27769807Y-40042931D01*
X27780773Y-39996520D01*
X27782610Y-39925079D01*
X27779579Y-39883117D01*
X27769374Y-39793400D01*
X27759482Y-39734418D01*
X27746447Y-39694744D01*
X27726811Y-39662949D01*
X27705037Y-39636666D01*
X27667835Y-39601427D01*
X27640358Y-39598294D01*
X27627783Y-39606416D01*
G37*
X27627783Y-39606416D02*
X27592241Y-39620881D01*
X27576337Y-39617472D01*
X27562815Y-39619655D01*
X27565518Y-39632719D01*
X27559950Y-39665974D01*
X27532292Y-39712276D01*
X27522968Y-39723777D01*
X27485433Y-39781728D01*
X27470527Y-39850568D01*
X27469360Y-39886625D01*
X27473875Y-39949278D01*
X27485958Y-39983556D01*
X27492765Y-39987166D01*
X27506689Y-40002649D01*
X27503591Y-40020016D01*
X27501434Y-40042282D01*
X27509511Y-40041415D01*
X27536172Y-40045847D01*
X27554751Y-40062154D01*
X27597955Y-40085933D01*
X27659445Y-40090867D01*
X27721053Y-40078583D01*
X27764608Y-40050703D01*
X27769807Y-40042931D01*
X27780773Y-39996520D01*
X27782610Y-39925079D01*
X27779579Y-39883117D01*
X27769374Y-39793400D01*
X27759482Y-39734418D01*
X27746447Y-39694744D01*
X27726811Y-39662949D01*
X27705037Y-39636666D01*
X27667835Y-39601427D01*
X27640358Y-39598294D01*
X27627783Y-39606416D01*
G36*
X26968389Y-40078888D02*
G01*
X26971295Y-40091472D01*
X26982500Y-40093000D01*
X26999923Y-40085255D01*
X26996612Y-40078888D01*
X26971492Y-40076355D01*
X26968389Y-40078888D01*
G37*
X26968389Y-40078888D02*
X26971295Y-40091472D01*
X26982500Y-40093000D01*
X26999923Y-40085255D01*
X26996612Y-40078888D01*
X26971492Y-40076355D01*
X26968389Y-40078888D01*
G36*
X26820223Y-40078888D02*
G01*
X26823128Y-40091472D01*
X26834334Y-40093000D01*
X26851756Y-40085255D01*
X26848445Y-40078888D01*
X26823325Y-40076355D01*
X26820223Y-40078888D01*
G37*
X26820223Y-40078888D02*
X26823128Y-40091472D01*
X26834334Y-40093000D01*
X26851756Y-40085255D01*
X26848445Y-40078888D01*
X26823325Y-40076355D01*
X26820223Y-40078888D01*
G36*
X28485334Y-40061250D02*
G01*
X28495917Y-40071833D01*
X28506500Y-40061250D01*
X28495917Y-40050666D01*
X28485334Y-40061250D01*
G37*
X28485334Y-40061250D02*
X28495917Y-40071833D01*
X28506500Y-40061250D01*
X28495917Y-40050666D01*
X28485334Y-40061250D01*
G36*
X28379500Y-40061250D02*
G01*
X28390084Y-40071833D01*
X28400667Y-40061250D01*
X28390084Y-40050666D01*
X28379500Y-40061250D01*
G37*
X28379500Y-40061250D02*
X28390084Y-40071833D01*
X28400667Y-40061250D01*
X28390084Y-40050666D01*
X28379500Y-40061250D01*
G36*
X26876667Y-40061250D02*
G01*
X26887250Y-40071833D01*
X26897834Y-40061250D01*
X26887250Y-40050666D01*
X26876667Y-40061250D01*
G37*
X26876667Y-40061250D02*
X26887250Y-40071833D01*
X26897834Y-40061250D01*
X26887250Y-40050666D01*
X26876667Y-40061250D01*
G36*
X26672444Y-39958698D02*
G01*
X26673032Y-39974031D01*
X26684893Y-40011350D01*
X26691022Y-40020243D01*
X26699891Y-40015634D01*
X26699303Y-40000302D01*
X26687441Y-39962983D01*
X26681313Y-39954089D01*
X26672444Y-39958698D01*
G37*
X26672444Y-39958698D02*
X26673032Y-39974031D01*
X26684893Y-40011350D01*
X26691022Y-40020243D01*
X26699891Y-40015634D01*
X26699303Y-40000302D01*
X26687441Y-39962983D01*
X26681313Y-39954089D01*
X26672444Y-39958698D01*
G36*
X28379500Y-39997750D02*
G01*
X28390084Y-40008333D01*
X28400667Y-39997750D01*
X28390084Y-39987166D01*
X28379500Y-39997750D01*
G37*
X28379500Y-39997750D02*
X28390084Y-40008333D01*
X28400667Y-39997750D01*
X28390084Y-39987166D01*
X28379500Y-39997750D01*
G36*
X26818900Y-39995545D02*
G01*
X26825213Y-40005165D01*
X26846681Y-40006662D01*
X26869267Y-40001492D01*
X26859469Y-39993874D01*
X26826388Y-39991350D01*
X26818900Y-39995545D01*
G37*
X26818900Y-39995545D02*
X26825213Y-40005165D01*
X26846681Y-40006662D01*
X26869267Y-40001492D01*
X26859469Y-39993874D01*
X26826388Y-39991350D01*
X26818900Y-39995545D01*
G36*
X28725223Y-39930722D02*
G01*
X28722689Y-39955842D01*
X28725223Y-39958944D01*
X28737806Y-39956038D01*
X28739334Y-39944833D01*
X28731589Y-39927410D01*
X28725223Y-39930722D01*
G37*
X28725223Y-39930722D02*
X28722689Y-39955842D01*
X28725223Y-39958944D01*
X28737806Y-39956038D01*
X28739334Y-39944833D01*
X28731589Y-39927410D01*
X28725223Y-39930722D01*
G36*
X28180829Y-39428253D02*
G01*
X28162037Y-39457594D01*
X28155786Y-39524414D01*
X28162094Y-39625752D01*
X28178734Y-39745283D01*
X28207927Y-39821237D01*
X28262252Y-39885864D01*
X28331141Y-39931605D01*
X28404026Y-39950901D01*
X28455508Y-39943259D01*
X28491466Y-39921793D01*
X28525765Y-39890493D01*
X28549161Y-39860012D01*
X28552409Y-39841004D01*
X28545981Y-39839000D01*
X28531584Y-39820395D01*
X28534172Y-39770208D01*
X28539069Y-39732160D01*
X28536086Y-39726125D01*
X28534473Y-39729618D01*
X28518982Y-39734738D01*
X28496056Y-39712217D01*
X28472934Y-39674122D01*
X28456858Y-39632521D01*
X28455068Y-39599480D01*
X28455555Y-39598080D01*
X28453538Y-39563781D01*
X28444686Y-39554291D01*
X28430837Y-39556909D01*
X28434431Y-39578608D01*
X28435092Y-39595489D01*
X28414570Y-39577515D01*
X28402936Y-39563833D01*
X28338548Y-39488109D01*
X28291655Y-39441565D01*
X28254454Y-39419438D01*
X28219140Y-39416965D01*
X28180829Y-39428253D01*
G37*
X28180829Y-39428253D02*
X28162037Y-39457594D01*
X28155786Y-39524414D01*
X28162094Y-39625752D01*
X28178734Y-39745283D01*
X28207927Y-39821237D01*
X28262252Y-39885864D01*
X28331141Y-39931605D01*
X28404026Y-39950901D01*
X28455508Y-39943259D01*
X28491466Y-39921793D01*
X28525765Y-39890493D01*
X28549161Y-39860012D01*
X28552409Y-39841004D01*
X28545981Y-39839000D01*
X28531584Y-39820395D01*
X28534172Y-39770208D01*
X28539069Y-39732160D01*
X28536086Y-39726125D01*
X28534473Y-39729618D01*
X28518982Y-39734738D01*
X28496056Y-39712217D01*
X28472934Y-39674122D01*
X28456858Y-39632521D01*
X28455068Y-39599480D01*
X28455555Y-39598080D01*
X28453538Y-39563781D01*
X28444686Y-39554291D01*
X28430837Y-39556909D01*
X28434431Y-39578608D01*
X28435092Y-39595489D01*
X28414570Y-39577515D01*
X28402936Y-39563833D01*
X28338548Y-39488109D01*
X28291655Y-39441565D01*
X28254454Y-39419438D01*
X28219140Y-39416965D01*
X28180829Y-39428253D01*
G36*
X27384667Y-39955416D02*
G01*
X27395250Y-39966000D01*
X27405834Y-39955416D01*
X27395250Y-39944833D01*
X27384667Y-39955416D01*
G37*
X27384667Y-39955416D02*
X27395250Y-39966000D01*
X27405834Y-39955416D01*
X27395250Y-39944833D01*
X27384667Y-39955416D01*
G36*
X27434056Y-39909555D02*
G01*
X27431523Y-39934675D01*
X27434056Y-39937777D01*
X27446640Y-39934872D01*
X27448167Y-39923666D01*
X27440423Y-39906244D01*
X27434056Y-39909555D01*
G37*
X27434056Y-39909555D02*
X27431523Y-39934675D01*
X27434056Y-39937777D01*
X27446640Y-39934872D01*
X27448167Y-39923666D01*
X27440423Y-39906244D01*
X27434056Y-39909555D01*
G36*
X26622667Y-39934250D02*
G01*
X26633250Y-39944833D01*
X26643834Y-39934250D01*
X26633250Y-39923666D01*
X26622667Y-39934250D01*
G37*
X26622667Y-39934250D02*
X26633250Y-39944833D01*
X26643834Y-39934250D01*
X26633250Y-39923666D01*
X26622667Y-39934250D01*
G36*
X28654667Y-39913083D02*
G01*
X28665250Y-39923666D01*
X28675834Y-39913083D01*
X28665250Y-39902500D01*
X28654667Y-39913083D01*
G37*
X28654667Y-39913083D02*
X28665250Y-39923666D01*
X28675834Y-39913083D01*
X28665250Y-39902500D01*
X28654667Y-39913083D01*
G36*
X28570000Y-39913083D02*
G01*
X28580584Y-39923666D01*
X28591167Y-39913083D01*
X28580584Y-39902500D01*
X28570000Y-39913083D01*
G37*
X28570000Y-39913083D02*
X28580584Y-39923666D01*
X28591167Y-39913083D01*
X28580584Y-39902500D01*
X28570000Y-39913083D01*
G36*
X26956525Y-39517917D02*
G01*
X26940361Y-39531850D01*
X26909114Y-39551914D01*
X26892165Y-39549746D01*
X26879720Y-39549359D01*
X26883227Y-39557323D01*
X26877658Y-39583717D01*
X26847864Y-39624047D01*
X26833845Y-39638385D01*
X26788662Y-39697160D01*
X26759540Y-39763151D01*
X26757467Y-39772311D01*
X26753018Y-39828785D01*
X26770940Y-39866244D01*
X26791298Y-39885020D01*
X26853180Y-39914821D01*
X26926884Y-39923015D01*
X26994936Y-39909606D01*
X27032137Y-39884958D01*
X27054593Y-39841718D01*
X27065494Y-39770162D01*
X27067167Y-39710133D01*
X27069353Y-39632401D01*
X27077929Y-39585432D01*
X27095924Y-39557792D01*
X27110361Y-39547041D01*
X27153595Y-39531427D01*
X27179153Y-39534471D01*
X27194159Y-39540083D01*
X27179189Y-39521268D01*
X27152599Y-39504679D01*
X27120719Y-39520865D01*
X27117539Y-39523455D01*
X27087266Y-39541450D01*
X27072663Y-39527140D01*
X27072544Y-39526791D01*
X27046338Y-39505033D01*
X27001422Y-39502314D01*
X26956525Y-39517917D01*
G37*
X26956525Y-39517917D02*
X26940361Y-39531850D01*
X26909114Y-39551914D01*
X26892165Y-39549746D01*
X26879720Y-39549359D01*
X26883227Y-39557323D01*
X26877658Y-39583717D01*
X26847864Y-39624047D01*
X26833845Y-39638385D01*
X26788662Y-39697160D01*
X26759540Y-39763151D01*
X26757467Y-39772311D01*
X26753018Y-39828785D01*
X26770940Y-39866244D01*
X26791298Y-39885020D01*
X26853180Y-39914821D01*
X26926884Y-39923015D01*
X26994936Y-39909606D01*
X27032137Y-39884958D01*
X27054593Y-39841718D01*
X27065494Y-39770162D01*
X27067167Y-39710133D01*
X27069353Y-39632401D01*
X27077929Y-39585432D01*
X27095924Y-39557792D01*
X27110361Y-39547041D01*
X27153595Y-39531427D01*
X27179153Y-39534471D01*
X27194159Y-39540083D01*
X27179189Y-39521268D01*
X27152599Y-39504679D01*
X27120719Y-39520865D01*
X27117539Y-39523455D01*
X27087266Y-39541450D01*
X27072663Y-39527140D01*
X27072544Y-39526791D01*
X27046338Y-39505033D01*
X27001422Y-39502314D01*
X26956525Y-39517917D01*
G36*
X26686167Y-39913083D02*
G01*
X26696750Y-39923666D01*
X26707334Y-39913083D01*
X26696750Y-39902500D01*
X26686167Y-39913083D01*
G37*
X26686167Y-39913083D02*
X26696750Y-39923666D01*
X26707334Y-39913083D01*
X26696750Y-39902500D01*
X26686167Y-39913083D01*
G36*
X26601500Y-39891916D02*
G01*
X26612084Y-39902500D01*
X26622667Y-39891916D01*
X26612084Y-39881333D01*
X26601500Y-39891916D01*
G37*
X26601500Y-39891916D02*
X26612084Y-39902500D01*
X26622667Y-39891916D01*
X26612084Y-39881333D01*
X26601500Y-39891916D01*
G36*
X27829167Y-39870750D02*
G01*
X27839750Y-39881333D01*
X27850334Y-39870750D01*
X27839750Y-39860166D01*
X27829167Y-39870750D01*
G37*
X27829167Y-39870750D02*
X27839750Y-39881333D01*
X27850334Y-39870750D01*
X27839750Y-39860166D01*
X27829167Y-39870750D01*
G36*
X27137723Y-39846055D02*
G01*
X27135189Y-39871175D01*
X27137723Y-39874277D01*
X27150306Y-39871372D01*
X27151834Y-39860166D01*
X27144089Y-39842744D01*
X27137723Y-39846055D01*
G37*
X27137723Y-39846055D02*
X27135189Y-39871175D01*
X27137723Y-39874277D01*
X27150306Y-39871372D01*
X27151834Y-39860166D01*
X27144089Y-39842744D01*
X27137723Y-39846055D01*
G36*
X27427000Y-39828416D02*
G01*
X27406808Y-39847437D01*
X27405834Y-39850832D01*
X27422210Y-39859923D01*
X27427000Y-39860166D01*
X27447354Y-39843894D01*
X27448167Y-39837750D01*
X27435200Y-39825109D01*
X27427000Y-39828416D01*
G37*
X27427000Y-39828416D02*
X27406808Y-39847437D01*
X27405834Y-39850832D01*
X27422210Y-39859923D01*
X27427000Y-39860166D01*
X27447354Y-39843894D01*
X27448167Y-39837750D01*
X27435200Y-39825109D01*
X27427000Y-39828416D01*
G36*
X28153723Y-39803722D02*
G01*
X28151189Y-39828842D01*
X28153723Y-39831944D01*
X28166306Y-39829038D01*
X28167834Y-39817833D01*
X28160089Y-39800410D01*
X28153723Y-39803722D01*
G37*
X28153723Y-39803722D02*
X28151189Y-39828842D01*
X28153723Y-39831944D01*
X28166306Y-39829038D01*
X28167834Y-39817833D01*
X28160089Y-39800410D01*
X28153723Y-39803722D01*
G36*
X28845167Y-39807250D02*
G01*
X28855750Y-39817833D01*
X28866334Y-39807250D01*
X28855750Y-39796666D01*
X28845167Y-39807250D01*
G37*
X28845167Y-39807250D02*
X28855750Y-39817833D01*
X28866334Y-39807250D01*
X28855750Y-39796666D01*
X28845167Y-39807250D01*
G36*
X26487359Y-39753060D02*
G01*
X26483572Y-39775802D01*
X26486154Y-39812356D01*
X26496885Y-39810310D01*
X26507390Y-39794822D01*
X26508439Y-39761102D01*
X26502592Y-39752791D01*
X26487359Y-39753060D01*
G37*
X26487359Y-39753060D02*
X26483572Y-39775802D01*
X26486154Y-39812356D01*
X26496885Y-39810310D01*
X26507390Y-39794822D01*
X26508439Y-39761102D01*
X26502592Y-39752791D01*
X26487359Y-39753060D01*
G36*
X28083167Y-39786083D02*
G01*
X28093750Y-39796666D01*
X28104334Y-39786083D01*
X28093750Y-39775500D01*
X28083167Y-39786083D01*
G37*
X28083167Y-39786083D02*
X28093750Y-39796666D01*
X28104334Y-39786083D01*
X28093750Y-39775500D01*
X28083167Y-39786083D01*
G36*
X27384667Y-39786083D02*
G01*
X27395250Y-39796666D01*
X27405834Y-39786083D01*
X27395250Y-39775500D01*
X27384667Y-39786083D01*
G37*
X27384667Y-39786083D02*
X27395250Y-39796666D01*
X27405834Y-39786083D01*
X27395250Y-39775500D01*
X27384667Y-39786083D01*
G36*
X27815056Y-39719055D02*
G01*
X27812523Y-39744175D01*
X27815056Y-39747277D01*
X27827640Y-39744372D01*
X27829167Y-39733166D01*
X27821423Y-39715744D01*
X27815056Y-39719055D01*
G37*
X27815056Y-39719055D02*
X27812523Y-39744175D01*
X27815056Y-39747277D01*
X27827640Y-39744372D01*
X27829167Y-39733166D01*
X27821423Y-39715744D01*
X27815056Y-39719055D01*
G36*
X27095389Y-39719055D02*
G01*
X27092856Y-39744175D01*
X27095389Y-39747277D01*
X27107973Y-39744372D01*
X27109500Y-39733166D01*
X27101756Y-39715744D01*
X27095389Y-39719055D01*
G37*
X27095389Y-39719055D02*
X27092856Y-39744175D01*
X27095389Y-39747277D01*
X27107973Y-39744372D01*
X27109500Y-39733166D01*
X27101756Y-39715744D01*
X27095389Y-39719055D01*
G36*
X28739334Y-39722583D02*
G01*
X28749917Y-39733166D01*
X28760500Y-39722583D01*
X28749917Y-39712000D01*
X28739334Y-39722583D01*
G37*
X28739334Y-39722583D02*
X28749917Y-39733166D01*
X28760500Y-39722583D01*
X28749917Y-39712000D01*
X28739334Y-39722583D01*
G36*
X27871500Y-39722583D02*
G01*
X27882084Y-39733166D01*
X27892667Y-39722583D01*
X27882084Y-39712000D01*
X27871500Y-39722583D01*
G37*
X27871500Y-39722583D02*
X27882084Y-39733166D01*
X27892667Y-39722583D01*
X27882084Y-39712000D01*
X27871500Y-39722583D01*
G36*
X27405834Y-39722583D02*
G01*
X27416417Y-39733166D01*
X27427000Y-39722583D01*
X27416417Y-39712000D01*
X27405834Y-39722583D01*
G37*
X27405834Y-39722583D02*
X27416417Y-39733166D01*
X27427000Y-39722583D01*
X27416417Y-39712000D01*
X27405834Y-39722583D01*
G36*
X26728500Y-39722583D02*
G01*
X26739084Y-39733166D01*
X26749667Y-39722583D01*
X26739084Y-39712000D01*
X26728500Y-39722583D01*
G37*
X26728500Y-39722583D02*
X26739084Y-39733166D01*
X26749667Y-39722583D01*
X26739084Y-39712000D01*
X26728500Y-39722583D01*
G36*
X28958056Y-39697888D02*
G01*
X28960962Y-39710472D01*
X28972167Y-39712000D01*
X28989590Y-39704255D01*
X28986278Y-39697888D01*
X28961158Y-39695355D01*
X28958056Y-39697888D01*
G37*
X28958056Y-39697888D02*
X28960962Y-39710472D01*
X28972167Y-39712000D01*
X28989590Y-39704255D01*
X28986278Y-39697888D01*
X28961158Y-39695355D01*
X28958056Y-39697888D01*
G36*
X27194167Y-39701416D02*
G01*
X27204750Y-39712000D01*
X27215334Y-39701416D01*
X27204750Y-39690833D01*
X27194167Y-39701416D01*
G37*
X27194167Y-39701416D02*
X27204750Y-39712000D01*
X27215334Y-39701416D01*
X27204750Y-39690833D01*
X27194167Y-39701416D01*
G36*
X28527667Y-39680250D02*
G01*
X28538250Y-39690833D01*
X28548834Y-39680250D01*
X28538250Y-39669666D01*
X28527667Y-39680250D01*
G37*
X28527667Y-39680250D02*
X28538250Y-39690833D01*
X28548834Y-39680250D01*
X28538250Y-39669666D01*
X28527667Y-39680250D01*
G36*
X27137723Y-39655555D02*
G01*
X27135189Y-39680675D01*
X27137723Y-39683777D01*
X27150306Y-39680872D01*
X27151834Y-39669666D01*
X27144089Y-39652244D01*
X27137723Y-39655555D01*
G37*
X27137723Y-39655555D02*
X27135189Y-39680675D01*
X27137723Y-39683777D01*
X27150306Y-39680872D01*
X27151834Y-39669666D01*
X27144089Y-39652244D01*
X27137723Y-39655555D01*
G36*
X28767556Y-39655555D02*
G01*
X28770462Y-39668139D01*
X28781667Y-39669666D01*
X28799090Y-39661922D01*
X28795778Y-39655555D01*
X28770658Y-39653022D01*
X28767556Y-39655555D01*
G37*
X28767556Y-39655555D02*
X28770462Y-39668139D01*
X28781667Y-39669666D01*
X28799090Y-39661922D01*
X28795778Y-39655555D01*
X28770658Y-39653022D01*
X28767556Y-39655555D01*
G36*
X28485334Y-39637916D02*
G01*
X28495917Y-39648500D01*
X28506500Y-39637916D01*
X28495917Y-39627333D01*
X28485334Y-39637916D01*
G37*
X28485334Y-39637916D02*
X28495917Y-39648500D01*
X28506500Y-39637916D01*
X28495917Y-39627333D01*
X28485334Y-39637916D01*
G36*
X27173000Y-39637916D02*
G01*
X27183584Y-39648500D01*
X27194167Y-39637916D01*
X27183584Y-39627333D01*
X27173000Y-39637916D01*
G37*
X27173000Y-39637916D02*
X27183584Y-39648500D01*
X27194167Y-39637916D01*
X27183584Y-39627333D01*
X27173000Y-39637916D01*
G36*
X28678726Y-39195913D02*
G01*
X28658535Y-39207886D01*
X28637772Y-39226573D01*
X28629737Y-39251378D01*
X28633653Y-39294041D01*
X28648209Y-39363925D01*
X28687869Y-39485356D01*
X28744523Y-39568792D01*
X28819378Y-39615515D01*
X28895690Y-39627333D01*
X28964712Y-39621476D01*
X29006719Y-39600599D01*
X29022052Y-39582904D01*
X29040067Y-39521910D01*
X29019508Y-39447831D01*
X28961191Y-39363104D01*
X28941115Y-39340869D01*
X28903129Y-39296294D01*
X28883777Y-39264847D01*
X28883594Y-39257295D01*
X28876919Y-39247775D01*
X28862530Y-39246333D01*
X28822492Y-39237295D01*
X28768407Y-39215321D01*
X28764044Y-39213178D01*
X28713486Y-39192870D01*
X28678726Y-39195913D01*
G37*
X28678726Y-39195913D02*
X28658535Y-39207886D01*
X28637772Y-39226573D01*
X28629737Y-39251378D01*
X28633653Y-39294041D01*
X28648209Y-39363925D01*
X28687869Y-39485356D01*
X28744523Y-39568792D01*
X28819378Y-39615515D01*
X28895690Y-39627333D01*
X28964712Y-39621476D01*
X29006719Y-39600599D01*
X29022052Y-39582904D01*
X29040067Y-39521910D01*
X29019508Y-39447831D01*
X28961191Y-39363104D01*
X28941115Y-39340869D01*
X28903129Y-39296294D01*
X28883777Y-39264847D01*
X28883594Y-39257295D01*
X28876919Y-39247775D01*
X28862530Y-39246333D01*
X28822492Y-39237295D01*
X28768407Y-39215321D01*
X28764044Y-39213178D01*
X28713486Y-39192870D01*
X28678726Y-39195913D01*
G36*
X27088334Y-39616750D02*
G01*
X27098917Y-39627333D01*
X27109500Y-39616750D01*
X27098917Y-39606166D01*
X27088334Y-39616750D01*
G37*
X27088334Y-39616750D02*
X27098917Y-39627333D01*
X27109500Y-39616750D01*
X27098917Y-39606166D01*
X27088334Y-39616750D01*
G36*
X26792000Y-39616750D02*
G01*
X26802584Y-39627333D01*
X26813167Y-39616750D01*
X26802584Y-39606166D01*
X26792000Y-39616750D01*
G37*
X26792000Y-39616750D02*
X26802584Y-39627333D01*
X26813167Y-39616750D01*
X26802584Y-39606166D01*
X26792000Y-39616750D01*
G36*
X26347500Y-39595583D02*
G01*
X26358084Y-39606166D01*
X26368667Y-39595583D01*
X26358084Y-39585000D01*
X26347500Y-39595583D01*
G37*
X26347500Y-39595583D02*
X26358084Y-39606166D01*
X26368667Y-39595583D01*
X26358084Y-39585000D01*
X26347500Y-39595583D01*
G36*
X27596334Y-39574416D02*
G01*
X27606917Y-39585000D01*
X27617500Y-39574416D01*
X27606917Y-39563833D01*
X27596334Y-39574416D01*
G37*
X27596334Y-39574416D02*
X27606917Y-39585000D01*
X27617500Y-39574416D01*
X27606917Y-39563833D01*
X27596334Y-39574416D01*
G36*
X26841389Y-39549722D02*
G01*
X26838856Y-39574842D01*
X26841389Y-39577944D01*
X26853973Y-39575038D01*
X26855500Y-39563833D01*
X26847756Y-39546410D01*
X26841389Y-39549722D01*
G37*
X26841389Y-39549722D02*
X26838856Y-39574842D01*
X26841389Y-39577944D01*
X26853973Y-39575038D01*
X26855500Y-39563833D01*
X26847756Y-39546410D01*
X26841389Y-39549722D01*
G36*
X28485334Y-39553250D02*
G01*
X28495917Y-39563833D01*
X28506500Y-39553250D01*
X28495917Y-39542666D01*
X28485334Y-39553250D01*
G37*
X28485334Y-39553250D02*
X28495917Y-39563833D01*
X28506500Y-39553250D01*
X28495917Y-39542666D01*
X28485334Y-39553250D01*
G36*
X27659834Y-39553250D02*
G01*
X27670417Y-39563833D01*
X27681000Y-39553250D01*
X27670417Y-39542666D01*
X27659834Y-39553250D01*
G37*
X27659834Y-39553250D02*
X27670417Y-39563833D01*
X27681000Y-39553250D01*
X27670417Y-39542666D01*
X27659834Y-39553250D01*
G36*
X27554000Y-39553250D02*
G01*
X27564584Y-39563833D01*
X27575167Y-39553250D01*
X27564584Y-39542666D01*
X27554000Y-39553250D01*
G37*
X27554000Y-39553250D02*
X27564584Y-39563833D01*
X27575167Y-39553250D01*
X27564584Y-39542666D01*
X27554000Y-39553250D01*
G36*
X26707334Y-39553250D02*
G01*
X26717917Y-39563833D01*
X26728500Y-39553250D01*
X26717917Y-39542666D01*
X26707334Y-39553250D01*
G37*
X26707334Y-39553250D02*
X26717917Y-39563833D01*
X26728500Y-39553250D01*
X26717917Y-39542666D01*
X26707334Y-39553250D01*
G36*
X26312223Y-39528555D02*
G01*
X26309689Y-39553675D01*
X26312223Y-39556777D01*
X26324806Y-39553872D01*
X26326334Y-39542666D01*
X26318589Y-39525244D01*
X26312223Y-39528555D01*
G37*
X26312223Y-39528555D02*
X26309689Y-39553675D01*
X26312223Y-39556777D01*
X26324806Y-39553872D01*
X26326334Y-39542666D01*
X26318589Y-39525244D01*
X26312223Y-39528555D01*
G36*
X28654667Y-39532083D02*
G01*
X28665250Y-39542666D01*
X28675834Y-39532083D01*
X28665250Y-39521500D01*
X28654667Y-39532083D01*
G37*
X28654667Y-39532083D02*
X28665250Y-39542666D01*
X28675834Y-39532083D01*
X28665250Y-39521500D01*
X28654667Y-39532083D01*
G36*
X28111041Y-39496364D02*
G01*
X28108518Y-39529445D01*
X28112712Y-39536934D01*
X28122333Y-39530621D01*
X28123829Y-39509152D01*
X28118660Y-39486567D01*
X28111041Y-39496364D01*
G37*
X28111041Y-39496364D02*
X28108518Y-39529445D01*
X28112712Y-39536934D01*
X28122333Y-39530621D01*
X28123829Y-39509152D01*
X28118660Y-39486567D01*
X28111041Y-39496364D01*
G36*
X27449029Y-39515698D02*
G01*
X27448167Y-39521500D01*
X27455389Y-39542116D01*
X27457501Y-39542666D01*
X27475573Y-39527834D01*
X27479917Y-39521500D01*
X27478239Y-39501995D01*
X27470583Y-39500333D01*
X27449029Y-39515698D01*
G37*
X27449029Y-39515698D02*
X27448167Y-39521500D01*
X27455389Y-39542116D01*
X27457501Y-39542666D01*
X27475573Y-39527834D01*
X27479917Y-39521500D01*
X27478239Y-39501995D01*
X27470583Y-39500333D01*
X27449029Y-39515698D01*
G36*
X27321167Y-39532083D02*
G01*
X27331750Y-39542666D01*
X27342334Y-39532083D01*
X27331750Y-39521500D01*
X27321167Y-39532083D01*
G37*
X27321167Y-39532083D02*
X27331750Y-39542666D01*
X27342334Y-39532083D01*
X27331750Y-39521500D01*
X27321167Y-39532083D01*
G36*
X27243141Y-39514005D02*
G01*
X27247084Y-39521500D01*
X27267027Y-39541714D01*
X27270749Y-39542666D01*
X27272193Y-39528994D01*
X27268250Y-39521500D01*
X27248307Y-39501285D01*
X27244585Y-39500333D01*
X27243141Y-39514005D01*
G37*
X27243141Y-39514005D02*
X27247084Y-39521500D01*
X27267027Y-39541714D01*
X27270749Y-39542666D01*
X27272193Y-39528994D01*
X27268250Y-39521500D01*
X27248307Y-39501285D01*
X27244585Y-39500333D01*
X27243141Y-39514005D01*
G36*
X26371938Y-39487728D02*
G01*
X26349214Y-39509041D01*
X26353876Y-39521293D01*
X26356835Y-39521500D01*
X26374738Y-39506465D01*
X26381272Y-39497062D01*
X26383767Y-39482578D01*
X26371938Y-39487728D01*
G37*
X26371938Y-39487728D02*
X26349214Y-39509041D01*
X26353876Y-39521293D01*
X26356835Y-39521500D01*
X26374738Y-39506465D01*
X26381272Y-39497062D01*
X26383767Y-39482578D01*
X26371938Y-39487728D01*
G36*
X28379500Y-39489750D02*
G01*
X28390084Y-39500333D01*
X28400667Y-39489750D01*
X28390084Y-39479166D01*
X28379500Y-39489750D01*
G37*
X28379500Y-39489750D02*
X28390084Y-39500333D01*
X28400667Y-39489750D01*
X28390084Y-39479166D01*
X28379500Y-39489750D01*
G36*
X27688056Y-39486222D02*
G01*
X27690962Y-39498805D01*
X27702167Y-39500333D01*
X27719590Y-39492588D01*
X27716278Y-39486222D01*
X27691158Y-39483688D01*
X27688056Y-39486222D01*
G37*
X27688056Y-39486222D02*
X27690962Y-39498805D01*
X27702167Y-39500333D01*
X27719590Y-39492588D01*
X27716278Y-39486222D01*
X27691158Y-39483688D01*
X27688056Y-39486222D01*
G36*
X27278834Y-39489750D02*
G01*
X27289417Y-39500333D01*
X27300000Y-39489750D01*
X27289417Y-39479166D01*
X27278834Y-39489750D01*
G37*
X27278834Y-39489750D02*
X27289417Y-39500333D01*
X27300000Y-39489750D01*
X27289417Y-39479166D01*
X27278834Y-39489750D01*
G36*
X27194167Y-39489750D02*
G01*
X27204750Y-39500333D01*
X27215334Y-39489750D01*
X27204750Y-39479166D01*
X27194167Y-39489750D01*
G37*
X27194167Y-39489750D02*
X27204750Y-39500333D01*
X27215334Y-39489750D01*
X27204750Y-39479166D01*
X27194167Y-39489750D01*
G36*
X26876667Y-39489750D02*
G01*
X26887250Y-39500333D01*
X26897834Y-39489750D01*
X26887250Y-39479166D01*
X26876667Y-39489750D01*
G37*
X26876667Y-39489750D02*
X26887250Y-39500333D01*
X26897834Y-39489750D01*
X26887250Y-39479166D01*
X26876667Y-39489750D01*
G36*
X28633500Y-39468583D02*
G01*
X28644084Y-39479166D01*
X28654667Y-39468583D01*
X28644084Y-39458000D01*
X28633500Y-39468583D01*
G37*
X28633500Y-39468583D02*
X28644084Y-39479166D01*
X28654667Y-39468583D01*
X28644084Y-39458000D01*
X28633500Y-39468583D01*
G36*
X26968389Y-39465055D02*
G01*
X26971295Y-39477639D01*
X26982500Y-39479166D01*
X26999923Y-39471422D01*
X26996612Y-39465055D01*
X26971492Y-39462522D01*
X26968389Y-39465055D01*
G37*
X26968389Y-39465055D02*
X26971295Y-39477639D01*
X26982500Y-39479166D01*
X26999923Y-39471422D01*
X26996612Y-39465055D01*
X26971492Y-39462522D01*
X26968389Y-39465055D01*
G36*
X27236500Y-39447416D02*
G01*
X27247084Y-39458000D01*
X27257667Y-39447416D01*
X27247084Y-39436833D01*
X27236500Y-39447416D01*
G37*
X27236500Y-39447416D02*
X27247084Y-39458000D01*
X27257667Y-39447416D01*
X27247084Y-39436833D01*
X27236500Y-39447416D01*
G36*
X26516834Y-39447416D02*
G01*
X26527417Y-39458000D01*
X26538000Y-39447416D01*
X26527417Y-39436833D01*
X26516834Y-39447416D01*
G37*
X26516834Y-39447416D02*
X26527417Y-39458000D01*
X26538000Y-39447416D01*
X26527417Y-39436833D01*
X26516834Y-39447416D01*
G36*
X29035667Y-39426250D02*
G01*
X29046250Y-39436833D01*
X29056834Y-39426250D01*
X29046250Y-39415666D01*
X29035667Y-39426250D01*
G37*
X29035667Y-39426250D02*
X29046250Y-39436833D01*
X29056834Y-39426250D01*
X29046250Y-39415666D01*
X29035667Y-39426250D01*
G36*
X28379500Y-39426250D02*
G01*
X28390084Y-39436833D01*
X28400667Y-39426250D01*
X28390084Y-39415666D01*
X28379500Y-39426250D01*
G37*
X28379500Y-39426250D02*
X28390084Y-39436833D01*
X28400667Y-39426250D01*
X28390084Y-39415666D01*
X28379500Y-39426250D01*
G36*
X28062000Y-39426250D02*
G01*
X28072584Y-39436833D01*
X28083167Y-39426250D01*
X28072584Y-39415666D01*
X28062000Y-39426250D01*
G37*
X28062000Y-39426250D02*
X28072584Y-39436833D01*
X28083167Y-39426250D01*
X28072584Y-39415666D01*
X28062000Y-39426250D01*
G36*
X27557271Y-39403062D02*
G01*
X27534548Y-39424374D01*
X27539209Y-39436627D01*
X27542168Y-39436833D01*
X27560071Y-39421799D01*
X27566605Y-39412396D01*
X27569100Y-39397911D01*
X27557271Y-39403062D01*
G37*
X27557271Y-39403062D02*
X27534548Y-39424374D01*
X27539209Y-39436627D01*
X27542168Y-39436833D01*
X27560071Y-39421799D01*
X27566605Y-39412396D01*
X27569100Y-39397911D01*
X27557271Y-39403062D01*
G36*
X26883308Y-39408172D02*
G01*
X26887250Y-39415666D01*
X26907194Y-39435880D01*
X26910916Y-39436833D01*
X26912360Y-39423160D01*
X26908417Y-39415666D01*
X26888474Y-39395452D01*
X26884752Y-39394500D01*
X26883308Y-39408172D01*
G37*
X26883308Y-39408172D02*
X26887250Y-39415666D01*
X26907194Y-39435880D01*
X26910916Y-39436833D01*
X26912360Y-39423160D01*
X26908417Y-39415666D01*
X26888474Y-39395452D01*
X26884752Y-39394500D01*
X26883308Y-39408172D01*
G36*
X28570000Y-39405083D02*
G01*
X28580584Y-39415666D01*
X28591167Y-39405083D01*
X28580584Y-39394500D01*
X28570000Y-39405083D01*
G37*
X28570000Y-39405083D02*
X28580584Y-39415666D01*
X28591167Y-39405083D01*
X28580584Y-39394500D01*
X28570000Y-39405083D01*
G36*
X29056834Y-39383916D02*
G01*
X29067417Y-39394500D01*
X29078000Y-39383916D01*
X29067417Y-39373333D01*
X29056834Y-39383916D01*
G37*
X29056834Y-39383916D02*
X29067417Y-39394500D01*
X29078000Y-39383916D01*
X29067417Y-39373333D01*
X29056834Y-39383916D01*
G36*
X27518723Y-39359222D02*
G01*
X27516189Y-39384342D01*
X27518723Y-39387444D01*
X27531306Y-39384538D01*
X27532834Y-39373333D01*
X27525089Y-39355910D01*
X27518723Y-39359222D01*
G37*
X27518723Y-39359222D02*
X27516189Y-39384342D01*
X27518723Y-39387444D01*
X27531306Y-39384538D01*
X27532834Y-39373333D01*
X27525089Y-39355910D01*
X27518723Y-39359222D01*
G36*
X26940167Y-39383916D02*
G01*
X26950750Y-39394500D01*
X26961334Y-39383916D01*
X26950750Y-39373333D01*
X26940167Y-39383916D01*
G37*
X26940167Y-39383916D02*
X26950750Y-39394500D01*
X26961334Y-39383916D01*
X26950750Y-39373333D01*
X26940167Y-39383916D01*
G36*
X27835875Y-39327031D02*
G01*
X27833351Y-39360112D01*
X27837546Y-39367600D01*
X27847166Y-39361287D01*
X27848663Y-39339819D01*
X27843493Y-39317233D01*
X27835875Y-39327031D01*
G37*
X27835875Y-39327031D02*
X27833351Y-39360112D01*
X27837546Y-39367600D01*
X27847166Y-39361287D01*
X27848663Y-39339819D01*
X27843493Y-39317233D01*
X27835875Y-39327031D01*
G36*
X29268500Y-39341583D02*
G01*
X29279084Y-39352166D01*
X29289667Y-39341583D01*
X29279084Y-39331000D01*
X29268500Y-39341583D01*
G37*
X29268500Y-39341583D02*
X29279084Y-39352166D01*
X29289667Y-39341583D01*
X29279084Y-39331000D01*
X29268500Y-39341583D01*
G36*
X29000389Y-39316888D02*
G01*
X28997856Y-39342008D01*
X29000389Y-39345111D01*
X29012973Y-39342205D01*
X29014500Y-39331000D01*
X29006756Y-39313577D01*
X29000389Y-39316888D01*
G37*
X29000389Y-39316888D02*
X28997856Y-39342008D01*
X29000389Y-39345111D01*
X29012973Y-39342205D01*
X29014500Y-39331000D01*
X29006756Y-39313577D01*
X29000389Y-39316888D01*
G36*
X26961334Y-39341583D02*
G01*
X26971917Y-39352166D01*
X26982500Y-39341583D01*
X26971917Y-39331000D01*
X26961334Y-39341583D01*
G37*
X26961334Y-39341583D02*
X26971917Y-39352166D01*
X26982500Y-39341583D01*
X26971917Y-39331000D01*
X26961334Y-39341583D01*
G36*
X29312816Y-39197135D02*
G01*
X29313883Y-39232464D01*
X29313016Y-39246333D01*
X29307844Y-39267411D01*
X29293020Y-39251463D01*
X29289667Y-39246333D01*
X29272895Y-39229391D01*
X29269149Y-39235750D01*
X29279549Y-39271581D01*
X29286320Y-39283975D01*
X29303884Y-39293532D01*
X29324463Y-39264815D01*
X29327531Y-39258273D01*
X29339960Y-39210616D01*
X29330678Y-39192599D01*
X29313227Y-39191507D01*
X29312816Y-39197135D01*
G37*
X29312816Y-39197135D02*
X29313883Y-39232464D01*
X29313016Y-39246333D01*
X29307844Y-39267411D01*
X29293020Y-39251463D01*
X29289667Y-39246333D01*
X29272895Y-39229391D01*
X29269149Y-39235750D01*
X29279549Y-39271581D01*
X29286320Y-39283975D01*
X29303884Y-39293532D01*
X29324463Y-39264815D01*
X29327531Y-39258273D01*
X29339960Y-39210616D01*
X29330678Y-39192599D01*
X29313227Y-39191507D01*
X29312816Y-39197135D01*
G36*
X26178167Y-39299250D02*
G01*
X26188750Y-39309833D01*
X26199334Y-39299250D01*
X26188750Y-39288666D01*
X26178167Y-39299250D01*
G37*
X26178167Y-39299250D02*
X26188750Y-39309833D01*
X26199334Y-39299250D01*
X26188750Y-39288666D01*
X26178167Y-39299250D01*
G36*
X27871500Y-39278083D02*
G01*
X27882084Y-39288666D01*
X27892667Y-39278083D01*
X27882084Y-39267500D01*
X27871500Y-39278083D01*
G37*
X27871500Y-39278083D02*
X27882084Y-39288666D01*
X27892667Y-39278083D01*
X27882084Y-39267500D01*
X27871500Y-39278083D01*
G36*
X26728500Y-39278083D02*
G01*
X26739084Y-39288666D01*
X26749667Y-39278083D01*
X26739084Y-39267500D01*
X26728500Y-39278083D01*
G37*
X26728500Y-39278083D02*
X26739084Y-39288666D01*
X26749667Y-39278083D01*
X26739084Y-39267500D01*
X26728500Y-39278083D01*
G36*
X29398771Y-39191395D02*
G01*
X29376226Y-39211071D01*
X29374334Y-39215832D01*
X29384379Y-39224532D01*
X29405293Y-39205038D01*
X29408105Y-39200729D01*
X29410600Y-39186245D01*
X29398771Y-39191395D01*
G37*
X29398771Y-39191395D02*
X29376226Y-39211071D01*
X29374334Y-39215832D01*
X29384379Y-39224532D01*
X29405293Y-39205038D01*
X29408105Y-39200729D01*
X29410600Y-39186245D01*
X29398771Y-39191395D01*
G36*
X26752938Y-39191395D02*
G01*
X26730393Y-39211071D01*
X26728500Y-39215832D01*
X26738546Y-39224532D01*
X26759460Y-39205038D01*
X26762272Y-39200729D01*
X26764767Y-39186245D01*
X26752938Y-39191395D01*
G37*
X26752938Y-39191395D02*
X26730393Y-39211071D01*
X26728500Y-39215832D01*
X26738546Y-39224532D01*
X26759460Y-39205038D01*
X26762272Y-39200729D01*
X26764767Y-39186245D01*
X26752938Y-39191395D01*
G36*
X26157000Y-39193416D02*
G01*
X26167584Y-39204000D01*
X26178167Y-39193416D01*
X26167584Y-39182833D01*
X26157000Y-39193416D01*
G37*
X26157000Y-39193416D02*
X26167584Y-39204000D01*
X26178167Y-39193416D01*
X26167584Y-39182833D01*
X26157000Y-39193416D01*
G36*
X29353167Y-39172250D02*
G01*
X29363750Y-39182833D01*
X29374334Y-39172250D01*
X29363750Y-39161666D01*
X29353167Y-39172250D01*
G37*
X29353167Y-39172250D02*
X29363750Y-39182833D01*
X29374334Y-39172250D01*
X29363750Y-39161666D01*
X29353167Y-39172250D01*
G36*
X29268500Y-39172250D02*
G01*
X29279084Y-39182833D01*
X29289667Y-39172250D01*
X29279084Y-39161666D01*
X29268500Y-39172250D01*
G37*
X29268500Y-39172250D02*
X29279084Y-39182833D01*
X29289667Y-39172250D01*
X29279084Y-39161666D01*
X29268500Y-39172250D01*
G36*
X26178167Y-39151083D02*
G01*
X26188750Y-39161666D01*
X26199334Y-39151083D01*
X26188750Y-39140500D01*
X26178167Y-39151083D01*
G37*
X26178167Y-39151083D02*
X26188750Y-39161666D01*
X26199334Y-39151083D01*
X26188750Y-39140500D01*
X26178167Y-39151083D01*
G36*
X26135834Y-39151083D02*
G01*
X26146417Y-39161666D01*
X26157000Y-39151083D01*
X26146417Y-39140500D01*
X26135834Y-39151083D01*
G37*
X26135834Y-39151083D02*
X26146417Y-39161666D01*
X26157000Y-39151083D01*
X26146417Y-39140500D01*
X26135834Y-39151083D01*
G36*
X29254389Y-39126388D02*
G01*
X29257295Y-39138972D01*
X29268500Y-39140500D01*
X29285923Y-39132755D01*
X29282612Y-39126388D01*
X29257492Y-39123855D01*
X29254389Y-39126388D01*
G37*
X29254389Y-39126388D02*
X29257295Y-39138972D01*
X29268500Y-39140500D01*
X29285923Y-39132755D01*
X29282612Y-39126388D01*
X29257492Y-39123855D01*
X29254389Y-39126388D01*
G36*
X26728500Y-39108750D02*
G01*
X26739084Y-39119333D01*
X26749667Y-39108750D01*
X26739084Y-39098166D01*
X26728500Y-39108750D01*
G37*
X26728500Y-39108750D02*
X26739084Y-39119333D01*
X26749667Y-39108750D01*
X26739084Y-39098166D01*
X26728500Y-39108750D01*
G36*
X26629723Y-39084055D02*
G01*
X26632628Y-39096639D01*
X26643834Y-39098166D01*
X26661256Y-39090422D01*
X26657945Y-39084055D01*
X26632825Y-39081522D01*
X26629723Y-39084055D01*
G37*
X26629723Y-39084055D02*
X26632628Y-39096639D01*
X26643834Y-39098166D01*
X26661256Y-39090422D01*
X26657945Y-39084055D01*
X26632825Y-39081522D01*
X26629723Y-39084055D01*
G36*
X26538000Y-39087583D02*
G01*
X26548584Y-39098166D01*
X26559167Y-39087583D01*
X26548584Y-39077000D01*
X26538000Y-39087583D01*
G37*
X26538000Y-39087583D02*
X26548584Y-39098166D01*
X26559167Y-39087583D01*
X26548584Y-39077000D01*
X26538000Y-39087583D01*
G36*
X26368667Y-39087583D02*
G01*
X26379250Y-39098166D01*
X26389834Y-39087583D01*
X26379250Y-39077000D01*
X26368667Y-39087583D01*
G37*
X26368667Y-39087583D02*
X26379250Y-39098166D01*
X26389834Y-39087583D01*
X26379250Y-39077000D01*
X26368667Y-39087583D01*
G36*
X27525150Y-38131090D02*
G01*
X27485125Y-38140915D01*
X27479845Y-38145783D01*
X27485817Y-38170846D01*
X27512246Y-38216546D01*
X27551237Y-38272080D01*
X27594898Y-38326648D01*
X27635335Y-38369448D01*
X27654542Y-38384843D01*
X27678581Y-38420559D01*
X27673246Y-38468691D01*
X27645055Y-38519207D01*
X27600528Y-38562076D01*
X27546183Y-38587267D01*
X27521120Y-38590166D01*
X27424332Y-38570315D01*
X27339915Y-38516019D01*
X27282601Y-38439774D01*
X27254942Y-38390814D01*
X27237159Y-38378491D01*
X27228353Y-38390369D01*
X27216028Y-38437440D01*
X27223725Y-38456524D01*
X27236500Y-38452583D01*
X27256005Y-38454261D01*
X27257667Y-38461917D01*
X27261766Y-38506208D01*
X27281926Y-38539286D01*
X27291231Y-38549838D01*
X27347918Y-38588743D01*
X27428096Y-38616314D01*
X27513394Y-38627513D01*
X27561314Y-38623926D01*
X27638350Y-38591350D01*
X27689566Y-38546371D01*
X27725262Y-38506700D01*
X27748037Y-38496327D01*
X27771589Y-38511630D01*
X27782085Y-38521918D01*
X27872852Y-38592633D01*
X27966503Y-38630083D01*
X28056017Y-38633172D01*
X28134371Y-38600805D01*
X28158213Y-38580545D01*
X28198863Y-38528166D01*
X28206899Y-38476329D01*
X28183888Y-38410545D01*
X28177874Y-38398615D01*
X28146263Y-38349217D01*
X28124813Y-38340258D01*
X28115071Y-38370731D01*
X28118319Y-38437412D01*
X28122295Y-38506884D01*
X28112011Y-38548483D01*
X28096090Y-38567058D01*
X28033997Y-38593503D01*
X27961346Y-38586256D01*
X27888035Y-38548693D01*
X27823958Y-38484187D01*
X27814964Y-38471195D01*
X27791923Y-38431792D01*
X27793600Y-38411086D01*
X27815285Y-38396010D01*
X27845644Y-38368926D01*
X27882217Y-38323291D01*
X27887761Y-38315000D01*
X27829167Y-38315000D01*
X27813060Y-38335551D01*
X27808000Y-38336166D01*
X27787449Y-38320059D01*
X27786834Y-38315000D01*
X27802941Y-38294448D01*
X27808000Y-38293833D01*
X27828552Y-38309940D01*
X27829167Y-38315000D01*
X27887761Y-38315000D01*
X27917023Y-38271244D01*
X27942081Y-38224923D01*
X27949410Y-38196468D01*
X27948088Y-38194031D01*
X27910545Y-38174667D01*
X27845235Y-38157350D01*
X27763099Y-38143206D01*
X27675079Y-38133363D01*
X27592115Y-38128949D01*
X27525150Y-38131090D01*
G37*
X27525150Y-38131090D02*
X27485125Y-38140915D01*
X27479845Y-38145783D01*
X27485817Y-38170846D01*
X27512246Y-38216546D01*
X27551237Y-38272080D01*
X27594898Y-38326648D01*
X27635335Y-38369448D01*
X27654542Y-38384843D01*
X27678581Y-38420559D01*
X27673246Y-38468691D01*
X27645055Y-38519207D01*
X27600528Y-38562076D01*
X27546183Y-38587267D01*
X27521120Y-38590166D01*
X27424332Y-38570315D01*
X27339915Y-38516019D01*
X27282601Y-38439774D01*
X27254942Y-38390814D01*
X27237159Y-38378491D01*
X27228353Y-38390369D01*
X27216028Y-38437440D01*
X27223725Y-38456524D01*
X27236500Y-38452583D01*
X27256005Y-38454261D01*
X27257667Y-38461917D01*
X27261766Y-38506208D01*
X27281926Y-38539286D01*
X27291231Y-38549838D01*
X27347918Y-38588743D01*
X27428096Y-38616314D01*
X27513394Y-38627513D01*
X27561314Y-38623926D01*
X27638350Y-38591350D01*
X27689566Y-38546371D01*
X27725262Y-38506700D01*
X27748037Y-38496327D01*
X27771589Y-38511630D01*
X27782085Y-38521918D01*
X27872852Y-38592633D01*
X27966503Y-38630083D01*
X28056017Y-38633172D01*
X28134371Y-38600805D01*
X28158213Y-38580545D01*
X28198863Y-38528166D01*
X28206899Y-38476329D01*
X28183888Y-38410545D01*
X28177874Y-38398615D01*
X28146263Y-38349217D01*
X28124813Y-38340258D01*
X28115071Y-38370731D01*
X28118319Y-38437412D01*
X28122295Y-38506884D01*
X28112011Y-38548483D01*
X28096090Y-38567058D01*
X28033997Y-38593503D01*
X27961346Y-38586256D01*
X27888035Y-38548693D01*
X27823958Y-38484187D01*
X27814964Y-38471195D01*
X27791923Y-38431792D01*
X27793600Y-38411086D01*
X27815285Y-38396010D01*
X27845644Y-38368926D01*
X27882217Y-38323291D01*
X27887761Y-38315000D01*
X27829167Y-38315000D01*
X27813060Y-38335551D01*
X27808000Y-38336166D01*
X27787449Y-38320059D01*
X27786834Y-38315000D01*
X27802941Y-38294448D01*
X27808000Y-38293833D01*
X27828552Y-38309940D01*
X27829167Y-38315000D01*
X27887761Y-38315000D01*
X27917023Y-38271244D01*
X27942081Y-38224923D01*
X27949410Y-38196468D01*
X27948088Y-38194031D01*
X27910545Y-38174667D01*
X27845235Y-38157350D01*
X27763099Y-38143206D01*
X27675079Y-38133363D01*
X27592115Y-38128949D01*
X27525150Y-38131090D01*
G36*
X26461970Y-37752677D02*
G01*
X26371996Y-37784135D01*
X26316686Y-37818723D01*
X26257313Y-37865370D01*
X26204161Y-37914686D01*
X26167518Y-37957284D01*
X26157000Y-37980351D01*
X26169302Y-37997599D01*
X26204902Y-37981922D01*
X26261837Y-37934368D01*
X26284846Y-37911988D01*
X26342269Y-37860341D01*
X26397195Y-37820233D01*
X26423807Y-37806154D01*
X26533091Y-37786443D01*
X26647062Y-37806821D01*
X26762585Y-37865774D01*
X26876522Y-37961787D01*
X26967918Y-38068910D01*
X27001766Y-38090442D01*
X27022476Y-38084001D01*
X27031897Y-38067118D01*
X27018598Y-38037152D01*
X26979093Y-37987997D01*
X26948392Y-37954283D01*
X26831177Y-37850375D01*
X26707669Y-37781145D01*
X26582917Y-37748082D01*
X26461970Y-37752677D01*
G37*
X26461970Y-37752677D02*
X26371996Y-37784135D01*
X26316686Y-37818723D01*
X26257313Y-37865370D01*
X26204161Y-37914686D01*
X26167518Y-37957284D01*
X26157000Y-37980351D01*
X26169302Y-37997599D01*
X26204902Y-37981922D01*
X26261837Y-37934368D01*
X26284846Y-37911988D01*
X26342269Y-37860341D01*
X26397195Y-37820233D01*
X26423807Y-37806154D01*
X26533091Y-37786443D01*
X26647062Y-37806821D01*
X26762585Y-37865774D01*
X26876522Y-37961787D01*
X26967918Y-38068910D01*
X27001766Y-38090442D01*
X27022476Y-38084001D01*
X27031897Y-38067118D01*
X27018598Y-38037152D01*
X26979093Y-37987997D01*
X26948392Y-37954283D01*
X26831177Y-37850375D01*
X26707669Y-37781145D01*
X26582917Y-37748082D01*
X26461970Y-37752677D01*
G36*
X28978402Y-37708921D02*
G01*
X28972386Y-37709707D01*
X28898324Y-37730761D01*
X28812827Y-37772004D01*
X28724258Y-37827146D01*
X28640979Y-37889899D01*
X28571353Y-37953971D01*
X28523742Y-38013073D01*
X28506500Y-38060142D01*
X28516939Y-38081648D01*
X28546461Y-38068401D01*
X28592376Y-38021954D01*
X28609977Y-38000475D01*
X28691973Y-37914915D01*
X28790304Y-37839541D01*
X28892575Y-37782322D01*
X28986389Y-37751221D01*
X29001262Y-37749029D01*
X29108682Y-37758113D01*
X29218552Y-37808913D01*
X29329938Y-37900947D01*
X29361377Y-37934159D01*
X29417801Y-37987702D01*
X29462347Y-38012308D01*
X29476023Y-38012761D01*
X29486543Y-38001353D01*
X29473000Y-37974586D01*
X29432409Y-37928215D01*
X29378735Y-37874423D01*
X29275642Y-37785278D01*
X29180947Y-37730571D01*
X29085062Y-37706414D01*
X28978402Y-37708921D01*
G37*
X28978402Y-37708921D02*
X28972386Y-37709707D01*
X28898324Y-37730761D01*
X28812827Y-37772004D01*
X28724258Y-37827146D01*
X28640979Y-37889899D01*
X28571353Y-37953971D01*
X28523742Y-38013073D01*
X28506500Y-38060142D01*
X28516939Y-38081648D01*
X28546461Y-38068401D01*
X28592376Y-38021954D01*
X28609977Y-38000475D01*
X28691973Y-37914915D01*
X28790304Y-37839541D01*
X28892575Y-37782322D01*
X28986389Y-37751221D01*
X29001262Y-37749029D01*
X29108682Y-37758113D01*
X29218552Y-37808913D01*
X29329938Y-37900947D01*
X29361377Y-37934159D01*
X29417801Y-37987702D01*
X29462347Y-38012308D01*
X29476023Y-38012761D01*
X29486543Y-38001353D01*
X29473000Y-37974586D01*
X29432409Y-37928215D01*
X29378735Y-37874423D01*
X29275642Y-37785278D01*
X29180947Y-37730571D01*
X29085062Y-37706414D01*
X28978402Y-37708921D01*
G36*
X29798857Y-36963464D02*
G01*
X29778286Y-36986430D01*
X29749280Y-37037852D01*
X29717081Y-37106124D01*
X29686929Y-37179639D01*
X29664066Y-37246791D01*
X29655855Y-37280118D01*
X29653545Y-37314780D01*
X29669611Y-37335823D01*
X29713716Y-37352196D01*
X29741579Y-37359493D01*
X29823532Y-37377777D01*
X29873748Y-37381916D01*
X29900431Y-37371797D01*
X29909151Y-37357208D01*
X29908440Y-37321659D01*
X29895339Y-37265854D01*
X29889748Y-37248713D01*
X29870430Y-37173416D01*
X29861011Y-37097852D01*
X29860843Y-37089963D01*
X29852830Y-37016114D01*
X29831471Y-36971869D01*
X29799691Y-36963196D01*
X29798857Y-36963464D01*
G37*
X29798857Y-36963464D02*
X29778286Y-36986430D01*
X29749280Y-37037852D01*
X29717081Y-37106124D01*
X29686929Y-37179639D01*
X29664066Y-37246791D01*
X29655855Y-37280118D01*
X29653545Y-37314780D01*
X29669611Y-37335823D01*
X29713716Y-37352196D01*
X29741579Y-37359493D01*
X29823532Y-37377777D01*
X29873748Y-37381916D01*
X29900431Y-37371797D01*
X29909151Y-37357208D01*
X29908440Y-37321659D01*
X29895339Y-37265854D01*
X29889748Y-37248713D01*
X29870430Y-37173416D01*
X29861011Y-37097852D01*
X29860843Y-37089963D01*
X29852830Y-37016114D01*
X29831471Y-36971869D01*
X29799691Y-36963196D01*
X29798857Y-36963464D01*
G36*
X25715837Y-37001137D02*
G01*
X25703265Y-37031999D01*
X25694150Y-37090219D01*
X25687501Y-37181348D01*
X25683800Y-37267250D01*
X25680750Y-37351916D01*
X25786584Y-37355220D01*
X25856742Y-37355126D01*
X25913952Y-37351120D01*
X25931349Y-37348013D01*
X25956772Y-37338160D01*
X25954038Y-37321299D01*
X25929110Y-37291792D01*
X25906887Y-37265237D01*
X25885834Y-37233986D01*
X25860767Y-37188934D01*
X25826501Y-37120978D01*
X25794593Y-37055583D01*
X25765050Y-37012089D01*
X25734874Y-36992209D01*
X25732856Y-36992083D01*
X25715837Y-37001137D01*
G37*
X25715837Y-37001137D02*
X25703265Y-37031999D01*
X25694150Y-37090219D01*
X25687501Y-37181348D01*
X25683800Y-37267250D01*
X25680750Y-37351916D01*
X25786584Y-37355220D01*
X25856742Y-37355126D01*
X25913952Y-37351120D01*
X25931349Y-37348013D01*
X25956772Y-37338160D01*
X25954038Y-37321299D01*
X25929110Y-37291792D01*
X25906887Y-37265237D01*
X25885834Y-37233986D01*
X25860767Y-37188934D01*
X25826501Y-37120978D01*
X25794593Y-37055583D01*
X25765050Y-37012089D01*
X25734874Y-36992209D01*
X25732856Y-36992083D01*
X25715837Y-37001137D01*
%TD*%
M02*
