M48
; DRILL file {KiCad (5.1.6)-1} date 10/04/20 19:05:29
; FORMAT={-:-/ absolute / inch / decimal}
; #@! TF.CreationDate,2020-10-04T19:05:29+08:00
; #@! TF.GenerationSoftware,Kicad,Pcbnew,(5.1.6)-1
; #@! TF.FileFunction,Plated,1,2,PTH
FMAT,2
INCH
T1C0.0130
T2C0.0276
T3C0.0394
%
G90
G05
T1
X0.9803Y-1.5118
X0.9921Y-0.7067
X0.9941Y-1.1457
X0.9941Y-0.7913
X0.9941Y-1.0276
X0.9941Y-0.9094
X0.9941Y-1.2638
X0.9951Y-1.4192
X1.0217Y-0.9823
X1.0276Y-1.7028
X1.0295Y-1.0748
X1.0479Y-1.5246
X1.0609Y-1.4959
X1.0669Y-1.4626
X1.0689Y-1.2618
X1.0689Y-0.9114
X1.0689Y-1.0276
X1.0689Y-1.1457
X1.0689Y-0.7913
X1.079Y-1.3698
X1.0945Y-1.4075
X1.0965Y-0.9567
X1.0965Y-1.0748
X1.0965Y-1.126
X1.1004Y-1.311
X1.1024Y-0.8386
X1.1024Y-0.9114
X1.1437Y-1.435
X1.1652Y-0.7718
X1.1929Y-1.7008
X1.2042Y-0.7712
X1.2815Y-0.7106
X1.2815Y-1.6437
X1.5079Y-1.7028
X1.5138Y-1.626
X1.5315Y-0.6988
X1.5394Y-0.811
X1.5433Y-1.626
X1.5728Y-1.626
X1.5945Y-1.4843
X1.6024Y-1.626
X1.622Y-1.7028
X1.6398Y-0.6752
X1.6417Y-1.4055
X1.6614Y-0.9252
X1.6673Y-0.8287
X1.6791Y-1.0079
X1.6831Y-1.0886
X1.7008Y-1.2815
X1.7559Y-0.7047
X1.7697Y-1.7028
X1.7697Y-1.624
T2
X1.1673Y-0.8783
X1.1673Y-0.9484
X1.1673Y-1.0185
X1.1673Y-1.0886
X1.1673Y-1.1587
X1.1673Y-1.2287
X1.1673Y-1.2988
X1.1673Y-1.3689
X1.5886Y-0.9134
X1.5886Y-0.9835
X1.5886Y-1.0535
X1.5886Y-1.1236
X1.5886Y-1.1937
X1.5886Y-1.2638
X1.5886Y-1.3339
X1.5886Y-1.4039
T3
X1.75Y-0.8311
X1.75Y-0.9311
X1.75Y-1.0311
X1.75Y-1.1311
X1.75Y-1.2311
X1.75Y-1.3311
X1.75Y-1.4311
X1.75Y-1.5311
T0
M30
