%TF.GenerationSoftware,KiCad,Pcbnew,(5.1.6)-1*%
%TF.CreationDate,2020-09-30T01:26:52+08:00*%
%TF.ProjectId,Ogen,4f67656e-2e6b-4696-9361-645f70636258,rev?*%
%TF.SameCoordinates,Original*%
%TF.FileFunction,Legend,Bot*%
%TF.FilePolarity,Positive*%
%FSLAX46Y46*%
G04 Gerber Fmt 4.6, Leading zero omitted, Abs format (unit mm)*
G04 Created by KiCad (PCBNEW (5.1.6)-1) date 2020-09-30 01:26:52*
%MOMM*%
%LPD*%
G01*
G04 APERTURE LIST*
%ADD10C,0.080000*%
%ADD11C,0.010000*%
G04 APERTURE END LIST*
D10*
X41986666Y-21250000D02*
X41986666Y-21383333D01*
X42020000Y-21450000D01*
X42086666Y-21516666D01*
X42220000Y-21550000D01*
X42453333Y-21550000D01*
X42586666Y-21516666D01*
X42653333Y-21450000D01*
X42686666Y-21383333D01*
X42686666Y-21250000D01*
X42653333Y-21183333D01*
X42586666Y-21116666D01*
X42453333Y-21083333D01*
X42220000Y-21083333D01*
X42086666Y-21116666D01*
X42020000Y-21183333D01*
X41986666Y-21250000D01*
X42220000Y-22150000D02*
X42786666Y-22150000D01*
X42853333Y-22116666D01*
X42886666Y-22083333D01*
X42920000Y-22016666D01*
X42920000Y-21916666D01*
X42886666Y-21850000D01*
X42653333Y-22150000D02*
X42686666Y-22083333D01*
X42686666Y-21950000D01*
X42653333Y-21883333D01*
X42620000Y-21850000D01*
X42553333Y-21816666D01*
X42353333Y-21816666D01*
X42286666Y-21850000D01*
X42253333Y-21883333D01*
X42220000Y-21950000D01*
X42220000Y-22083333D01*
X42253333Y-22150000D01*
X42653333Y-22750000D02*
X42686666Y-22683333D01*
X42686666Y-22550000D01*
X42653333Y-22483333D01*
X42586666Y-22450000D01*
X42320000Y-22450000D01*
X42253333Y-22483333D01*
X42220000Y-22550000D01*
X42220000Y-22683333D01*
X42253333Y-22750000D01*
X42320000Y-22783333D01*
X42386666Y-22783333D01*
X42453333Y-22450000D01*
X42220000Y-23083333D02*
X42686666Y-23083333D01*
X42286666Y-23083333D02*
X42253333Y-23116666D01*
X42220000Y-23183333D01*
X42220000Y-23283333D01*
X42253333Y-23350000D01*
X42320000Y-23383333D01*
X42686666Y-23383333D01*
X42686666Y-24250000D02*
X41986666Y-24250000D01*
X41986666Y-24516666D01*
X42020000Y-24583333D01*
X42053333Y-24616666D01*
X42120000Y-24650000D01*
X42220000Y-24650000D01*
X42286666Y-24616666D01*
X42320000Y-24583333D01*
X42353333Y-24516666D01*
X42353333Y-24250000D01*
X42686666Y-24950000D02*
X41986666Y-24950000D01*
X42486666Y-25183333D01*
X41986666Y-25416666D01*
X42686666Y-25416666D01*
X41986666Y-25683333D02*
X42686666Y-25850000D01*
X42186666Y-25983333D01*
X42686666Y-26116666D01*
X41986666Y-26283333D01*
X41986666Y-26483333D02*
X41986666Y-26916666D01*
X42253333Y-26683333D01*
X42253333Y-26783333D01*
X42286666Y-26850000D01*
X42320000Y-26883333D01*
X42386666Y-26916666D01*
X42553333Y-26916666D01*
X42620000Y-26883333D01*
X42653333Y-26850000D01*
X42686666Y-26783333D01*
X42686666Y-26583333D01*
X42653333Y-26516666D01*
X42620000Y-26483333D01*
X41986666Y-27150000D02*
X41986666Y-27583333D01*
X42253333Y-27350000D01*
X42253333Y-27450000D01*
X42286666Y-27516666D01*
X42320000Y-27550000D01*
X42386666Y-27583333D01*
X42553333Y-27583333D01*
X42620000Y-27550000D01*
X42653333Y-27516666D01*
X42686666Y-27450000D01*
X42686666Y-27250000D01*
X42653333Y-27183333D01*
X42620000Y-27150000D01*
X41986666Y-28183333D02*
X41986666Y-28050000D01*
X42020000Y-27983333D01*
X42053333Y-27950000D01*
X42153333Y-27883333D01*
X42286666Y-27850000D01*
X42553333Y-27850000D01*
X42620000Y-27883333D01*
X42653333Y-27916666D01*
X42686666Y-27983333D01*
X42686666Y-28116666D01*
X42653333Y-28183333D01*
X42620000Y-28216666D01*
X42553333Y-28250000D01*
X42386666Y-28250000D01*
X42320000Y-28216666D01*
X42286666Y-28183333D01*
X42253333Y-28116666D01*
X42253333Y-27983333D01*
X42286666Y-27916666D01*
X42320000Y-27883333D01*
X42386666Y-27850000D01*
X41986666Y-28683333D02*
X41986666Y-28750000D01*
X42020000Y-28816666D01*
X42053333Y-28850000D01*
X42120000Y-28883333D01*
X42253333Y-28916666D01*
X42420000Y-28916666D01*
X42553333Y-28883333D01*
X42620000Y-28850000D01*
X42653333Y-28816666D01*
X42686666Y-28750000D01*
X42686666Y-28683333D01*
X42653333Y-28616666D01*
X42620000Y-28583333D01*
X42553333Y-28550000D01*
X42420000Y-28516666D01*
X42253333Y-28516666D01*
X42120000Y-28550000D01*
X42053333Y-28583333D01*
X42020000Y-28616666D01*
X41986666Y-28683333D01*
X43783333Y-19933333D02*
X43816666Y-20033333D01*
X43816666Y-20200000D01*
X43783333Y-20266666D01*
X43750000Y-20300000D01*
X43683333Y-20333333D01*
X43616666Y-20333333D01*
X43550000Y-20300000D01*
X43516666Y-20266666D01*
X43483333Y-20200000D01*
X43450000Y-20066666D01*
X43416666Y-20000000D01*
X43383333Y-19966666D01*
X43316666Y-19933333D01*
X43250000Y-19933333D01*
X43183333Y-19966666D01*
X43150000Y-20000000D01*
X43116666Y-20066666D01*
X43116666Y-20233333D01*
X43150000Y-20333333D01*
X43816666Y-20633333D02*
X43116666Y-20633333D01*
X43116666Y-20900000D01*
X43150000Y-20966666D01*
X43183333Y-21000000D01*
X43250000Y-21033333D01*
X43350000Y-21033333D01*
X43416666Y-21000000D01*
X43450000Y-20966666D01*
X43483333Y-20900000D01*
X43483333Y-20633333D01*
X43816666Y-21333333D02*
X43116666Y-21333333D01*
X43450000Y-22433333D02*
X43483333Y-22533333D01*
X43516666Y-22566666D01*
X43583333Y-22600000D01*
X43683333Y-22600000D01*
X43750000Y-22566666D01*
X43783333Y-22533333D01*
X43816666Y-22466666D01*
X43816666Y-22200000D01*
X43116666Y-22200000D01*
X43116666Y-22433333D01*
X43150000Y-22500000D01*
X43183333Y-22533333D01*
X43250000Y-22566666D01*
X43316666Y-22566666D01*
X43383333Y-22533333D01*
X43416666Y-22500000D01*
X43450000Y-22433333D01*
X43450000Y-22200000D01*
X43816666Y-22900000D02*
X43350000Y-22900000D01*
X43483333Y-22900000D02*
X43416666Y-22933333D01*
X43383333Y-22966666D01*
X43350000Y-23033333D01*
X43350000Y-23100000D01*
X43783333Y-23600000D02*
X43816666Y-23533333D01*
X43816666Y-23400000D01*
X43783333Y-23333333D01*
X43716666Y-23300000D01*
X43450000Y-23300000D01*
X43383333Y-23333333D01*
X43350000Y-23400000D01*
X43350000Y-23533333D01*
X43383333Y-23600000D01*
X43450000Y-23633333D01*
X43516666Y-23633333D01*
X43583333Y-23300000D01*
X43816666Y-24233333D02*
X43450000Y-24233333D01*
X43383333Y-24200000D01*
X43350000Y-24133333D01*
X43350000Y-24000000D01*
X43383333Y-23933333D01*
X43783333Y-24233333D02*
X43816666Y-24166666D01*
X43816666Y-24000000D01*
X43783333Y-23933333D01*
X43716666Y-23900000D01*
X43650000Y-23900000D01*
X43583333Y-23933333D01*
X43550000Y-24000000D01*
X43550000Y-24166666D01*
X43516666Y-24233333D01*
X43816666Y-24566666D02*
X43116666Y-24566666D01*
X43550000Y-24633333D02*
X43816666Y-24833333D01*
X43350000Y-24833333D02*
X43616666Y-24566666D01*
X43816666Y-25233333D02*
X43783333Y-25166666D01*
X43750000Y-25133333D01*
X43683333Y-25100000D01*
X43483333Y-25100000D01*
X43416666Y-25133333D01*
X43383333Y-25166666D01*
X43350000Y-25233333D01*
X43350000Y-25333333D01*
X43383333Y-25400000D01*
X43416666Y-25433333D01*
X43483333Y-25466666D01*
X43683333Y-25466666D01*
X43750000Y-25433333D01*
X43783333Y-25400000D01*
X43816666Y-25333333D01*
X43816666Y-25233333D01*
X43350000Y-26066666D02*
X43816666Y-26066666D01*
X43350000Y-25766666D02*
X43716666Y-25766666D01*
X43783333Y-25800000D01*
X43816666Y-25866666D01*
X43816666Y-25966666D01*
X43783333Y-26033333D01*
X43750000Y-26066666D01*
X43350000Y-26300000D02*
X43350000Y-26566666D01*
X43116666Y-26400000D02*
X43716666Y-26400000D01*
X43783333Y-26433333D01*
X43816666Y-26500000D01*
X43816666Y-26566666D01*
X43450000Y-27566666D02*
X43483333Y-27666666D01*
X43516666Y-27700000D01*
X43583333Y-27733333D01*
X43683333Y-27733333D01*
X43750000Y-27700000D01*
X43783333Y-27666666D01*
X43816666Y-27600000D01*
X43816666Y-27333333D01*
X43116666Y-27333333D01*
X43116666Y-27566666D01*
X43150000Y-27633333D01*
X43183333Y-27666666D01*
X43250000Y-27700000D01*
X43316666Y-27700000D01*
X43383333Y-27666666D01*
X43416666Y-27633333D01*
X43450000Y-27566666D01*
X43450000Y-27333333D01*
X43816666Y-28133333D02*
X43783333Y-28066666D01*
X43750000Y-28033333D01*
X43683333Y-28000000D01*
X43483333Y-28000000D01*
X43416666Y-28033333D01*
X43383333Y-28066666D01*
X43350000Y-28133333D01*
X43350000Y-28233333D01*
X43383333Y-28300000D01*
X43416666Y-28333333D01*
X43483333Y-28366666D01*
X43683333Y-28366666D01*
X43750000Y-28333333D01*
X43783333Y-28300000D01*
X43816666Y-28233333D01*
X43816666Y-28133333D01*
X43816666Y-28966666D02*
X43450000Y-28966666D01*
X43383333Y-28933333D01*
X43350000Y-28866666D01*
X43350000Y-28733333D01*
X43383333Y-28666666D01*
X43783333Y-28966666D02*
X43816666Y-28900000D01*
X43816666Y-28733333D01*
X43783333Y-28666666D01*
X43716666Y-28633333D01*
X43650000Y-28633333D01*
X43583333Y-28666666D01*
X43550000Y-28733333D01*
X43550000Y-28900000D01*
X43516666Y-28966666D01*
X43816666Y-29300000D02*
X43350000Y-29300000D01*
X43483333Y-29300000D02*
X43416666Y-29333333D01*
X43383333Y-29366666D01*
X43350000Y-29433333D01*
X43350000Y-29500000D01*
X43816666Y-30033333D02*
X43116666Y-30033333D01*
X43783333Y-30033333D02*
X43816666Y-29966666D01*
X43816666Y-29833333D01*
X43783333Y-29766666D01*
X43750000Y-29733333D01*
X43683333Y-29700000D01*
X43483333Y-29700000D01*
X43416666Y-29733333D01*
X43383333Y-29766666D01*
X43350000Y-29833333D01*
X43350000Y-29966666D01*
X43383333Y-30033333D01*
X44246666Y-19200000D02*
X44946666Y-19433333D01*
X44246666Y-19666666D01*
X44946666Y-20266666D02*
X44946666Y-19866666D01*
X44946666Y-20066666D02*
X44246666Y-20066666D01*
X44346666Y-20000000D01*
X44413333Y-19933333D01*
X44446666Y-19866666D01*
X44880000Y-20566666D02*
X44913333Y-20600000D01*
X44946666Y-20566666D01*
X44913333Y-20533333D01*
X44880000Y-20566666D01*
X44946666Y-20566666D01*
X44246666Y-21033333D02*
X44246666Y-21100000D01*
X44280000Y-21166666D01*
X44313333Y-21200000D01*
X44380000Y-21233333D01*
X44513333Y-21266666D01*
X44680000Y-21266666D01*
X44813333Y-21233333D01*
X44880000Y-21200000D01*
X44913333Y-21166666D01*
X44946666Y-21100000D01*
X44946666Y-21033333D01*
X44913333Y-20966666D01*
X44880000Y-20933333D01*
X44813333Y-20900000D01*
X44680000Y-20866666D01*
X44513333Y-20866666D01*
X44380000Y-20900000D01*
X44313333Y-20933333D01*
X44280000Y-20966666D01*
X44246666Y-21033333D01*
X44946666Y-22100000D02*
X44246666Y-22100000D01*
X44246666Y-22266666D01*
X44280000Y-22366666D01*
X44346666Y-22433333D01*
X44413333Y-22466666D01*
X44546666Y-22500000D01*
X44646666Y-22500000D01*
X44780000Y-22466666D01*
X44846666Y-22433333D01*
X44913333Y-22366666D01*
X44946666Y-22266666D01*
X44946666Y-22100000D01*
X44913333Y-23066666D02*
X44946666Y-23000000D01*
X44946666Y-22866666D01*
X44913333Y-22800000D01*
X44846666Y-22766666D01*
X44580000Y-22766666D01*
X44513333Y-22800000D01*
X44480000Y-22866666D01*
X44480000Y-23000000D01*
X44513333Y-23066666D01*
X44580000Y-23100000D01*
X44646666Y-23100000D01*
X44713333Y-22766666D01*
X44913333Y-23366666D02*
X44946666Y-23433333D01*
X44946666Y-23566666D01*
X44913333Y-23633333D01*
X44846666Y-23666666D01*
X44813333Y-23666666D01*
X44746666Y-23633333D01*
X44713333Y-23566666D01*
X44713333Y-23466666D01*
X44680000Y-23400000D01*
X44613333Y-23366666D01*
X44580000Y-23366666D01*
X44513333Y-23400000D01*
X44480000Y-23466666D01*
X44480000Y-23566666D01*
X44513333Y-23633333D01*
X44946666Y-23966666D02*
X44480000Y-23966666D01*
X44246666Y-23966666D02*
X44280000Y-23933333D01*
X44313333Y-23966666D01*
X44280000Y-24000000D01*
X44246666Y-23966666D01*
X44313333Y-23966666D01*
X44480000Y-24600000D02*
X45046666Y-24600000D01*
X45113333Y-24566666D01*
X45146666Y-24533333D01*
X45180000Y-24466666D01*
X45180000Y-24366666D01*
X45146666Y-24300000D01*
X44913333Y-24600000D02*
X44946666Y-24533333D01*
X44946666Y-24400000D01*
X44913333Y-24333333D01*
X44880000Y-24300000D01*
X44813333Y-24266666D01*
X44613333Y-24266666D01*
X44546666Y-24300000D01*
X44513333Y-24333333D01*
X44480000Y-24400000D01*
X44480000Y-24533333D01*
X44513333Y-24600000D01*
X44480000Y-24933333D02*
X44946666Y-24933333D01*
X44546666Y-24933333D02*
X44513333Y-24966666D01*
X44480000Y-25033333D01*
X44480000Y-25133333D01*
X44513333Y-25200000D01*
X44580000Y-25233333D01*
X44946666Y-25233333D01*
X44913333Y-25833333D02*
X44946666Y-25766666D01*
X44946666Y-25633333D01*
X44913333Y-25566666D01*
X44846666Y-25533333D01*
X44580000Y-25533333D01*
X44513333Y-25566666D01*
X44480000Y-25633333D01*
X44480000Y-25766666D01*
X44513333Y-25833333D01*
X44580000Y-25866666D01*
X44646666Y-25866666D01*
X44713333Y-25533333D01*
X44946666Y-26466666D02*
X44246666Y-26466666D01*
X44913333Y-26466666D02*
X44946666Y-26400000D01*
X44946666Y-26266666D01*
X44913333Y-26200000D01*
X44880000Y-26166666D01*
X44813333Y-26133333D01*
X44613333Y-26133333D01*
X44546666Y-26166666D01*
X44513333Y-26200000D01*
X44480000Y-26266666D01*
X44480000Y-26400000D01*
X44513333Y-26466666D01*
X44946666Y-27333333D02*
X44246666Y-27333333D01*
X44513333Y-27333333D02*
X44480000Y-27400000D01*
X44480000Y-27533333D01*
X44513333Y-27600000D01*
X44546666Y-27633333D01*
X44613333Y-27666666D01*
X44813333Y-27666666D01*
X44880000Y-27633333D01*
X44913333Y-27600000D01*
X44946666Y-27533333D01*
X44946666Y-27400000D01*
X44913333Y-27333333D01*
X44480000Y-27900000D02*
X44946666Y-28066666D01*
X44480000Y-28233333D02*
X44946666Y-28066666D01*
X45113333Y-28000000D01*
X45146666Y-27966666D01*
X45180000Y-27900000D01*
X44746666Y-29000000D02*
X44746666Y-29333333D01*
X44946666Y-28933333D02*
X44246666Y-29166666D01*
X44946666Y-29400000D01*
X44946666Y-29633333D02*
X44480000Y-29633333D01*
X44613333Y-29633333D02*
X44546666Y-29666666D01*
X44513333Y-29700000D01*
X44480000Y-29766666D01*
X44480000Y-29833333D01*
X44946666Y-30066666D02*
X44480000Y-30066666D01*
X44246666Y-30066666D02*
X44280000Y-30033333D01*
X44313333Y-30066666D01*
X44280000Y-30100000D01*
X44246666Y-30066666D01*
X44313333Y-30066666D01*
X44946666Y-30700000D02*
X44580000Y-30700000D01*
X44513333Y-30666666D01*
X44480000Y-30600000D01*
X44480000Y-30466666D01*
X44513333Y-30400000D01*
X44913333Y-30700000D02*
X44946666Y-30633333D01*
X44946666Y-30466666D01*
X44913333Y-30400000D01*
X44846666Y-30366666D01*
X44780000Y-30366666D01*
X44713333Y-30400000D01*
X44680000Y-30466666D01*
X44680000Y-30633333D01*
X44646666Y-30700000D01*
D11*
%TO.C,G\u002A\u002A\u002A*%
G36*
X43633035Y-38225192D02*
G01*
X43688769Y-38232612D01*
X43773644Y-38235905D01*
X43792916Y-38236000D01*
X43874217Y-38233916D01*
X43936398Y-38228355D01*
X43969743Y-38220354D01*
X43972833Y-38216814D01*
X43989655Y-38205831D01*
X44014453Y-38208513D01*
X44061442Y-38210150D01*
X44129175Y-38200993D01*
X44202017Y-38184583D01*
X44264330Y-38164458D01*
X44300481Y-38144157D01*
X44300916Y-38143675D01*
X44339437Y-38120809D01*
X44359262Y-38116620D01*
X44402380Y-38103809D01*
X44465635Y-38074022D01*
X44539636Y-38033076D01*
X44614997Y-37986786D01*
X44682327Y-37940971D01*
X44732239Y-37901445D01*
X44755343Y-37874026D01*
X44755930Y-37870879D01*
X44760070Y-37853572D01*
X44777623Y-37843305D01*
X44816409Y-37838905D01*
X44884246Y-37839199D01*
X44951791Y-37841516D01*
X45159081Y-37841254D01*
X45362312Y-37825378D01*
X45547510Y-37795319D01*
X45646798Y-37770294D01*
X45763585Y-37721835D01*
X45873086Y-37651644D01*
X45963155Y-37568812D01*
X46016126Y-37493794D01*
X46039927Y-37417315D01*
X46044792Y-37329789D01*
X46030424Y-37251641D01*
X46019958Y-37228820D01*
X45948822Y-37130354D01*
X45858356Y-37053319D01*
X45791336Y-37013068D01*
X45709270Y-36975195D01*
X45610823Y-36939308D01*
X45509199Y-36909251D01*
X45417601Y-36888863D01*
X45373646Y-36884443D01*
X45373646Y-36973533D01*
X45455369Y-36978032D01*
X45519714Y-36987582D01*
X45521100Y-36987910D01*
X45679124Y-37038256D01*
X45814230Y-37106355D01*
X45917698Y-37187680D01*
X45928940Y-37199617D01*
X45984899Y-37276560D01*
X46003191Y-37347697D01*
X45984004Y-37422058D01*
X45935143Y-37498812D01*
X45835534Y-37595139D01*
X45699366Y-37670486D01*
X45526891Y-37724777D01*
X45318363Y-37757934D01*
X45074035Y-37769879D01*
X45049934Y-37769910D01*
X44927670Y-37765530D01*
X44800451Y-37754027D01*
X44679081Y-37737021D01*
X44574364Y-37716133D01*
X44497105Y-37692983D01*
X44477336Y-37684006D01*
X44433234Y-37648006D01*
X44378856Y-37586418D01*
X44323236Y-37511330D01*
X44275405Y-37434827D01*
X44246723Y-37375392D01*
X44233770Y-37318057D01*
X44247305Y-37271506D01*
X44291961Y-37229392D01*
X44372368Y-37185368D01*
X44392040Y-37176277D01*
X44486167Y-37139581D01*
X44601363Y-37103489D01*
X44724363Y-37071298D01*
X44841901Y-37046304D01*
X44940711Y-37031806D01*
X44982550Y-37029500D01*
X45029788Y-37024383D01*
X45052073Y-37011897D01*
X45052333Y-37010233D01*
X45071814Y-36996578D01*
X45123628Y-36985607D01*
X45197832Y-36977794D01*
X45284486Y-36973611D01*
X45373646Y-36973533D01*
X45373646Y-36884443D01*
X45349231Y-36881987D01*
X45341995Y-36882342D01*
X45299267Y-36883736D01*
X45281213Y-36872971D01*
X45284810Y-36841000D01*
X45307036Y-36778775D01*
X45307230Y-36778262D01*
X45326804Y-36714173D01*
X45348959Y-36621877D01*
X45370605Y-36515122D01*
X45384572Y-36434304D01*
X45399346Y-36313702D01*
X45410480Y-36166997D01*
X45417958Y-36002852D01*
X45421764Y-35829930D01*
X45421879Y-35656892D01*
X45418288Y-35492401D01*
X45410974Y-35345121D01*
X45399920Y-35223712D01*
X45387071Y-35145090D01*
X45355812Y-35006931D01*
X45509739Y-34948567D01*
X45681337Y-34870323D01*
X45815174Y-34778719D01*
X45914598Y-34670511D01*
X45982955Y-34542454D01*
X46007586Y-34465985D01*
X46021418Y-34400267D01*
X46018523Y-34351862D01*
X45996772Y-34298347D01*
X45990496Y-34286068D01*
X45948681Y-34224895D01*
X45898355Y-34176083D01*
X45886352Y-34168148D01*
X45797165Y-34128829D01*
X45678800Y-34094112D01*
X45544373Y-34066771D01*
X45406997Y-34049580D01*
X45304073Y-34045000D01*
X45193518Y-34045000D01*
X45193518Y-34111707D01*
X45293280Y-34114067D01*
X45316916Y-34115056D01*
X45468631Y-34126172D01*
X45596354Y-34146608D01*
X45717935Y-34179241D01*
X45720948Y-34180205D01*
X45840424Y-34225098D01*
X45920413Y-34273142D01*
X45963715Y-34329399D01*
X45973132Y-34398928D01*
X45951468Y-34486789D01*
X45925276Y-34549199D01*
X45875125Y-34632434D01*
X45804003Y-34705607D01*
X45706859Y-34772054D01*
X45578641Y-34835111D01*
X45414297Y-34898111D01*
X45378015Y-34910537D01*
X45104199Y-34992730D01*
X44859947Y-35044682D01*
X44645195Y-35066394D01*
X44459883Y-35057868D01*
X44303948Y-35019104D01*
X44177330Y-34950102D01*
X44144960Y-34923422D01*
X44064278Y-34829503D01*
X44025473Y-34733329D01*
X44028393Y-34637713D01*
X44072885Y-34545470D01*
X44158798Y-34459413D01*
X44170504Y-34450640D01*
X44299215Y-34362458D01*
X44418943Y-34295035D01*
X44543530Y-34242227D01*
X44686816Y-34197894D01*
X44806398Y-34168442D01*
X44929434Y-34141399D01*
X45025618Y-34123906D01*
X45108972Y-34114498D01*
X45193518Y-34111707D01*
X45193518Y-34045000D01*
X45119286Y-34045000D01*
X45070299Y-33965625D01*
X44993594Y-33858856D01*
X44903418Y-33760412D01*
X44813004Y-33684411D01*
X44796284Y-33673290D01*
X44605399Y-33560796D01*
X44422100Y-33468249D01*
X44254618Y-33399562D01*
X44156394Y-33369108D01*
X44022572Y-33340975D01*
X43903040Y-33328661D01*
X43803356Y-33331693D01*
X43729075Y-33349597D01*
X43685753Y-33381900D01*
X43676838Y-33410000D01*
X43696432Y-33414338D01*
X43749731Y-33417908D01*
X43828107Y-33420289D01*
X43904056Y-33421058D01*
X44025818Y-33424061D01*
X44129156Y-33434596D01*
X44224521Y-33455790D01*
X44322360Y-33490773D01*
X44433123Y-33542674D01*
X44567259Y-33614620D01*
X44586666Y-33625445D01*
X44685684Y-33685879D01*
X44783489Y-33754427D01*
X44874080Y-33825818D01*
X44951455Y-33894780D01*
X45009615Y-33956040D01*
X45042557Y-34004326D01*
X45046844Y-34029717D01*
X45023684Y-34043877D01*
X44969123Y-34060654D01*
X44893709Y-34076974D01*
X44871055Y-34080917D01*
X44709048Y-34115591D01*
X44556031Y-34163072D01*
X44425451Y-34218855D01*
X44375000Y-34247066D01*
X44310997Y-34285680D01*
X44234290Y-34330478D01*
X44200937Y-34349503D01*
X44104225Y-34423883D01*
X44049554Y-34495354D01*
X44000974Y-34594365D01*
X43982146Y-34677796D01*
X43991672Y-34758737D01*
X44014748Y-34821567D01*
X44066960Y-34921189D01*
X44127835Y-34994482D01*
X44206254Y-35047888D01*
X44311098Y-35087850D01*
X44417894Y-35114034D01*
X44533179Y-35134505D01*
X44637258Y-35142935D01*
X44742286Y-35138694D01*
X44860423Y-35121156D01*
X45003824Y-35089691D01*
X45034610Y-35082166D01*
X45133414Y-35057983D01*
X45216838Y-35038040D01*
X45276554Y-35024294D01*
X45304234Y-35018703D01*
X45304841Y-35018666D01*
X45316569Y-35038738D01*
X45330659Y-35094841D01*
X45346126Y-35180803D01*
X45361986Y-35290455D01*
X45377255Y-35417626D01*
X45390950Y-35556146D01*
X45391434Y-35561641D01*
X45399505Y-35666230D01*
X45403194Y-35756751D01*
X45402089Y-35844784D01*
X45395778Y-35941911D01*
X45383850Y-36059713D01*
X45369415Y-36181273D01*
X45338518Y-36406345D01*
X45306360Y-36589242D01*
X45272904Y-36730105D01*
X45238108Y-36829077D01*
X45201934Y-36886298D01*
X45168862Y-36902228D01*
X45128094Y-36906318D01*
X45059871Y-36917358D01*
X44978054Y-36933075D01*
X44967666Y-36935233D01*
X44872170Y-36955171D01*
X44776294Y-36975062D01*
X44703083Y-36990129D01*
X44522423Y-37035753D01*
X44378137Y-37092084D01*
X44265152Y-37161209D01*
X44242708Y-37179437D01*
X44189698Y-37230560D01*
X44153267Y-37276551D01*
X44142166Y-37303161D01*
X44155127Y-37356482D01*
X44189715Y-37427459D01*
X44239492Y-37507490D01*
X44298016Y-37587972D01*
X44358848Y-37660303D01*
X44415547Y-37715881D01*
X44461674Y-37746102D01*
X44476060Y-37749166D01*
X44511657Y-37755426D01*
X44570808Y-37771396D01*
X44608735Y-37783218D01*
X44668623Y-37804470D01*
X44695003Y-37821219D01*
X44695092Y-37840520D01*
X44684693Y-37857458D01*
X44654629Y-37883613D01*
X44595893Y-37922231D01*
X44517948Y-37967395D01*
X44457564Y-37999461D01*
X44270400Y-38080971D01*
X44074773Y-38140616D01*
X43885747Y-38174180D01*
X43814977Y-38179373D01*
X43757834Y-38185159D01*
X43723396Y-38195557D01*
X43718833Y-38201252D01*
X43701484Y-38210322D01*
X43665916Y-38206141D01*
X43625782Y-38203161D01*
X43613000Y-38214430D01*
X43633035Y-38225192D01*
G37*
X43633035Y-38225192D02*
X43688769Y-38232612D01*
X43773644Y-38235905D01*
X43792916Y-38236000D01*
X43874217Y-38233916D01*
X43936398Y-38228355D01*
X43969743Y-38220354D01*
X43972833Y-38216814D01*
X43989655Y-38205831D01*
X44014453Y-38208513D01*
X44061442Y-38210150D01*
X44129175Y-38200993D01*
X44202017Y-38184583D01*
X44264330Y-38164458D01*
X44300481Y-38144157D01*
X44300916Y-38143675D01*
X44339437Y-38120809D01*
X44359262Y-38116620D01*
X44402380Y-38103809D01*
X44465635Y-38074022D01*
X44539636Y-38033076D01*
X44614997Y-37986786D01*
X44682327Y-37940971D01*
X44732239Y-37901445D01*
X44755343Y-37874026D01*
X44755930Y-37870879D01*
X44760070Y-37853572D01*
X44777623Y-37843305D01*
X44816409Y-37838905D01*
X44884246Y-37839199D01*
X44951791Y-37841516D01*
X45159081Y-37841254D01*
X45362312Y-37825378D01*
X45547510Y-37795319D01*
X45646798Y-37770294D01*
X45763585Y-37721835D01*
X45873086Y-37651644D01*
X45963155Y-37568812D01*
X46016126Y-37493794D01*
X46039927Y-37417315D01*
X46044792Y-37329789D01*
X46030424Y-37251641D01*
X46019958Y-37228820D01*
X45948822Y-37130354D01*
X45858356Y-37053319D01*
X45791336Y-37013068D01*
X45709270Y-36975195D01*
X45610823Y-36939308D01*
X45509199Y-36909251D01*
X45417601Y-36888863D01*
X45373646Y-36884443D01*
X45373646Y-36973533D01*
X45455369Y-36978032D01*
X45519714Y-36987582D01*
X45521100Y-36987910D01*
X45679124Y-37038256D01*
X45814230Y-37106355D01*
X45917698Y-37187680D01*
X45928940Y-37199617D01*
X45984899Y-37276560D01*
X46003191Y-37347697D01*
X45984004Y-37422058D01*
X45935143Y-37498812D01*
X45835534Y-37595139D01*
X45699366Y-37670486D01*
X45526891Y-37724777D01*
X45318363Y-37757934D01*
X45074035Y-37769879D01*
X45049934Y-37769910D01*
X44927670Y-37765530D01*
X44800451Y-37754027D01*
X44679081Y-37737021D01*
X44574364Y-37716133D01*
X44497105Y-37692983D01*
X44477336Y-37684006D01*
X44433234Y-37648006D01*
X44378856Y-37586418D01*
X44323236Y-37511330D01*
X44275405Y-37434827D01*
X44246723Y-37375392D01*
X44233770Y-37318057D01*
X44247305Y-37271506D01*
X44291961Y-37229392D01*
X44372368Y-37185368D01*
X44392040Y-37176277D01*
X44486167Y-37139581D01*
X44601363Y-37103489D01*
X44724363Y-37071298D01*
X44841901Y-37046304D01*
X44940711Y-37031806D01*
X44982550Y-37029500D01*
X45029788Y-37024383D01*
X45052073Y-37011897D01*
X45052333Y-37010233D01*
X45071814Y-36996578D01*
X45123628Y-36985607D01*
X45197832Y-36977794D01*
X45284486Y-36973611D01*
X45373646Y-36973533D01*
X45373646Y-36884443D01*
X45349231Y-36881987D01*
X45341995Y-36882342D01*
X45299267Y-36883736D01*
X45281213Y-36872971D01*
X45284810Y-36841000D01*
X45307036Y-36778775D01*
X45307230Y-36778262D01*
X45326804Y-36714173D01*
X45348959Y-36621877D01*
X45370605Y-36515122D01*
X45384572Y-36434304D01*
X45399346Y-36313702D01*
X45410480Y-36166997D01*
X45417958Y-36002852D01*
X45421764Y-35829930D01*
X45421879Y-35656892D01*
X45418288Y-35492401D01*
X45410974Y-35345121D01*
X45399920Y-35223712D01*
X45387071Y-35145090D01*
X45355812Y-35006931D01*
X45509739Y-34948567D01*
X45681337Y-34870323D01*
X45815174Y-34778719D01*
X45914598Y-34670511D01*
X45982955Y-34542454D01*
X46007586Y-34465985D01*
X46021418Y-34400267D01*
X46018523Y-34351862D01*
X45996772Y-34298347D01*
X45990496Y-34286068D01*
X45948681Y-34224895D01*
X45898355Y-34176083D01*
X45886352Y-34168148D01*
X45797165Y-34128829D01*
X45678800Y-34094112D01*
X45544373Y-34066771D01*
X45406997Y-34049580D01*
X45304073Y-34045000D01*
X45193518Y-34045000D01*
X45193518Y-34111707D01*
X45293280Y-34114067D01*
X45316916Y-34115056D01*
X45468631Y-34126172D01*
X45596354Y-34146608D01*
X45717935Y-34179241D01*
X45720948Y-34180205D01*
X45840424Y-34225098D01*
X45920413Y-34273142D01*
X45963715Y-34329399D01*
X45973132Y-34398928D01*
X45951468Y-34486789D01*
X45925276Y-34549199D01*
X45875125Y-34632434D01*
X45804003Y-34705607D01*
X45706859Y-34772054D01*
X45578641Y-34835111D01*
X45414297Y-34898111D01*
X45378015Y-34910537D01*
X45104199Y-34992730D01*
X44859947Y-35044682D01*
X44645195Y-35066394D01*
X44459883Y-35057868D01*
X44303948Y-35019104D01*
X44177330Y-34950102D01*
X44144960Y-34923422D01*
X44064278Y-34829503D01*
X44025473Y-34733329D01*
X44028393Y-34637713D01*
X44072885Y-34545470D01*
X44158798Y-34459413D01*
X44170504Y-34450640D01*
X44299215Y-34362458D01*
X44418943Y-34295035D01*
X44543530Y-34242227D01*
X44686816Y-34197894D01*
X44806398Y-34168442D01*
X44929434Y-34141399D01*
X45025618Y-34123906D01*
X45108972Y-34114498D01*
X45193518Y-34111707D01*
X45193518Y-34045000D01*
X45119286Y-34045000D01*
X45070299Y-33965625D01*
X44993594Y-33858856D01*
X44903418Y-33760412D01*
X44813004Y-33684411D01*
X44796284Y-33673290D01*
X44605399Y-33560796D01*
X44422100Y-33468249D01*
X44254618Y-33399562D01*
X44156394Y-33369108D01*
X44022572Y-33340975D01*
X43903040Y-33328661D01*
X43803356Y-33331693D01*
X43729075Y-33349597D01*
X43685753Y-33381900D01*
X43676838Y-33410000D01*
X43696432Y-33414338D01*
X43749731Y-33417908D01*
X43828107Y-33420289D01*
X43904056Y-33421058D01*
X44025818Y-33424061D01*
X44129156Y-33434596D01*
X44224521Y-33455790D01*
X44322360Y-33490773D01*
X44433123Y-33542674D01*
X44567259Y-33614620D01*
X44586666Y-33625445D01*
X44685684Y-33685879D01*
X44783489Y-33754427D01*
X44874080Y-33825818D01*
X44951455Y-33894780D01*
X45009615Y-33956040D01*
X45042557Y-34004326D01*
X45046844Y-34029717D01*
X45023684Y-34043877D01*
X44969123Y-34060654D01*
X44893709Y-34076974D01*
X44871055Y-34080917D01*
X44709048Y-34115591D01*
X44556031Y-34163072D01*
X44425451Y-34218855D01*
X44375000Y-34247066D01*
X44310997Y-34285680D01*
X44234290Y-34330478D01*
X44200937Y-34349503D01*
X44104225Y-34423883D01*
X44049554Y-34495354D01*
X44000974Y-34594365D01*
X43982146Y-34677796D01*
X43991672Y-34758737D01*
X44014748Y-34821567D01*
X44066960Y-34921189D01*
X44127835Y-34994482D01*
X44206254Y-35047888D01*
X44311098Y-35087850D01*
X44417894Y-35114034D01*
X44533179Y-35134505D01*
X44637258Y-35142935D01*
X44742286Y-35138694D01*
X44860423Y-35121156D01*
X45003824Y-35089691D01*
X45034610Y-35082166D01*
X45133414Y-35057983D01*
X45216838Y-35038040D01*
X45276554Y-35024294D01*
X45304234Y-35018703D01*
X45304841Y-35018666D01*
X45316569Y-35038738D01*
X45330659Y-35094841D01*
X45346126Y-35180803D01*
X45361986Y-35290455D01*
X45377255Y-35417626D01*
X45390950Y-35556146D01*
X45391434Y-35561641D01*
X45399505Y-35666230D01*
X45403194Y-35756751D01*
X45402089Y-35844784D01*
X45395778Y-35941911D01*
X45383850Y-36059713D01*
X45369415Y-36181273D01*
X45338518Y-36406345D01*
X45306360Y-36589242D01*
X45272904Y-36730105D01*
X45238108Y-36829077D01*
X45201934Y-36886298D01*
X45168862Y-36902228D01*
X45128094Y-36906318D01*
X45059871Y-36917358D01*
X44978054Y-36933075D01*
X44967666Y-36935233D01*
X44872170Y-36955171D01*
X44776294Y-36975062D01*
X44703083Y-36990129D01*
X44522423Y-37035753D01*
X44378137Y-37092084D01*
X44265152Y-37161209D01*
X44242708Y-37179437D01*
X44189698Y-37230560D01*
X44153267Y-37276551D01*
X44142166Y-37303161D01*
X44155127Y-37356482D01*
X44189715Y-37427459D01*
X44239492Y-37507490D01*
X44298016Y-37587972D01*
X44358848Y-37660303D01*
X44415547Y-37715881D01*
X44461674Y-37746102D01*
X44476060Y-37749166D01*
X44511657Y-37755426D01*
X44570808Y-37771396D01*
X44608735Y-37783218D01*
X44668623Y-37804470D01*
X44695003Y-37821219D01*
X44695092Y-37840520D01*
X44684693Y-37857458D01*
X44654629Y-37883613D01*
X44595893Y-37922231D01*
X44517948Y-37967395D01*
X44457564Y-37999461D01*
X44270400Y-38080971D01*
X44074773Y-38140616D01*
X43885747Y-38174180D01*
X43814977Y-38179373D01*
X43757834Y-38185159D01*
X43723396Y-38195557D01*
X43718833Y-38201252D01*
X43701484Y-38210322D01*
X43665916Y-38206141D01*
X43625782Y-38203161D01*
X43613000Y-38214430D01*
X43633035Y-38225192D01*
G36*
X43608776Y-33427478D02*
G01*
X43623583Y-33431166D01*
X43651645Y-33414223D01*
X43655333Y-33399416D01*
X43638390Y-33371354D01*
X43623583Y-33367666D01*
X43595521Y-33384609D01*
X43591833Y-33399416D01*
X43608776Y-33427478D01*
G37*
X43608776Y-33427478D02*
X43623583Y-33431166D01*
X43651645Y-33414223D01*
X43655333Y-33399416D01*
X43638390Y-33371354D01*
X43623583Y-33367666D01*
X43595521Y-33384609D01*
X43591833Y-33399416D01*
X43608776Y-33427478D01*
G36*
X38567473Y-33465665D02*
G01*
X38587479Y-33473500D01*
X38618983Y-33482588D01*
X38679028Y-33507239D01*
X38758572Y-33543533D01*
X38836187Y-33581323D01*
X38987975Y-33662371D01*
X39119932Y-33745572D01*
X39249146Y-33842404D01*
X39347255Y-33924563D01*
X39431260Y-33997256D01*
X39309390Y-34231813D01*
X39212061Y-34443660D01*
X39130312Y-34671243D01*
X39065209Y-34907528D01*
X39017817Y-35145483D01*
X38989204Y-35378073D01*
X38980435Y-35598266D01*
X38992576Y-35799026D01*
X39026694Y-35973321D01*
X39039318Y-36013500D01*
X39053468Y-36057001D01*
X39075923Y-36128598D01*
X39102798Y-36215844D01*
X39115305Y-36256916D01*
X39167295Y-36414401D01*
X39224362Y-36563358D01*
X39282768Y-36695232D01*
X39338772Y-36801473D01*
X39380879Y-36864217D01*
X39418120Y-36916936D01*
X39440380Y-36960041D01*
X39443166Y-36972408D01*
X39427227Y-36997419D01*
X39384374Y-37040131D01*
X39322054Y-37093515D01*
X39279254Y-37127107D01*
X39182980Y-37202268D01*
X39076341Y-37288531D01*
X38979514Y-37369519D01*
X38962643Y-37384041D01*
X38894248Y-37441277D01*
X38836316Y-37486045D01*
X38797086Y-37512161D01*
X38786416Y-37516333D01*
X38770522Y-37533732D01*
X38769652Y-37561730D01*
X38787251Y-37595056D01*
X38834028Y-37625808D01*
X38892833Y-37650394D01*
X38972549Y-37684749D01*
X39066203Y-37731903D01*
X39146833Y-37777697D01*
X39316702Y-37880198D01*
X39452585Y-37959441D01*
X39554237Y-38015291D01*
X39621413Y-38047613D01*
X39653867Y-38056275D01*
X39655559Y-38055634D01*
X39683321Y-38058873D01*
X39731327Y-38080651D01*
X39754587Y-38094308D01*
X39835439Y-38138016D01*
X39942220Y-38186065D01*
X40059861Y-38232258D01*
X40173291Y-38270397D01*
X40205166Y-38279594D01*
X40266838Y-38291063D01*
X40356925Y-38301073D01*
X40461509Y-38308293D01*
X40532743Y-38310907D01*
X40765069Y-38316075D01*
X40801540Y-38514162D01*
X40818147Y-38594106D01*
X40839567Y-38682624D01*
X40863831Y-38773414D01*
X40888968Y-38860171D01*
X40913007Y-38936590D01*
X40933978Y-38996366D01*
X40949909Y-39033196D01*
X40958830Y-39040774D01*
X40959399Y-39019166D01*
X40951041Y-38966121D01*
X40934058Y-38885850D01*
X40911415Y-38791841D01*
X40898923Y-38744000D01*
X40873613Y-38646408D01*
X40851245Y-38554185D01*
X40835228Y-38481640D01*
X40830836Y-38458250D01*
X40819222Y-38394875D01*
X40808353Y-38345396D01*
X40806468Y-38338453D01*
X40812131Y-38309441D01*
X40852457Y-38285322D01*
X40872515Y-38278135D01*
X40923234Y-38263681D01*
X40953284Y-38259428D01*
X40955776Y-38260348D01*
X40966950Y-38282202D01*
X40989360Y-38332074D01*
X41016277Y-38394750D01*
X41057921Y-38490053D01*
X41105003Y-38592221D01*
X41154563Y-38695507D01*
X41203638Y-38794167D01*
X41249268Y-38882457D01*
X41288491Y-38954633D01*
X41318347Y-39004948D01*
X41335875Y-39027660D01*
X41338772Y-39020385D01*
X41324912Y-38974086D01*
X41295887Y-38899805D01*
X41255761Y-38807276D01*
X41208595Y-38706231D01*
X41201828Y-38692301D01*
X41124593Y-38532035D01*
X41067282Y-38408413D01*
X41029645Y-38320866D01*
X41011428Y-38268824D01*
X41009500Y-38256846D01*
X41026695Y-38234293D01*
X41064351Y-38225155D01*
X41101574Y-38233797D01*
X41105658Y-38236754D01*
X41129469Y-38264004D01*
X41169189Y-38316923D01*
X41217578Y-38385733D01*
X41235212Y-38411744D01*
X41302631Y-38510820D01*
X41377509Y-38618605D01*
X41455062Y-38728455D01*
X41530508Y-38833727D01*
X41599064Y-38927777D01*
X41655948Y-39003961D01*
X41696376Y-39055634D01*
X41710146Y-39071495D01*
X41742917Y-39101400D01*
X41753584Y-39100975D01*
X41744739Y-39074273D01*
X41718976Y-39025346D01*
X41678887Y-38958248D01*
X41627065Y-38877030D01*
X41566104Y-38785744D01*
X41498596Y-38688445D01*
X41427134Y-38589184D01*
X41354311Y-38492014D01*
X41282720Y-38400988D01*
X41275293Y-38391844D01*
X41240949Y-38344918D01*
X41222289Y-38310101D01*
X41221166Y-38304478D01*
X41206582Y-38274763D01*
X41189416Y-38257166D01*
X41165795Y-38222925D01*
X41158183Y-38183294D01*
X41168134Y-38155459D01*
X41179850Y-38151333D01*
X41227539Y-38136235D01*
X41292989Y-38095894D01*
X41367044Y-38037744D01*
X41440547Y-37969215D01*
X41504343Y-37897739D01*
X41523241Y-37872617D01*
X41596322Y-37763411D01*
X41655323Y-37663090D01*
X41697994Y-37576768D01*
X41722083Y-37509559D01*
X41725339Y-37466579D01*
X41708000Y-37452833D01*
X41689221Y-37435689D01*
X41686833Y-37421083D01*
X41692469Y-37394577D01*
X41712551Y-37396416D01*
X41751841Y-37428453D01*
X41781896Y-37458125D01*
X41836102Y-37502776D01*
X41925173Y-37562905D01*
X42045484Y-37636370D01*
X42193407Y-37721027D01*
X42365316Y-37814733D01*
X42542074Y-37907368D01*
X42639363Y-37953028D01*
X42755420Y-38000416D01*
X42883755Y-38047620D01*
X43017877Y-38092730D01*
X43151296Y-38133835D01*
X43277522Y-38169026D01*
X43390063Y-38196392D01*
X43482428Y-38214022D01*
X43548128Y-38220006D01*
X43580191Y-38212923D01*
X43580646Y-38197831D01*
X43553733Y-38193666D01*
X43510643Y-38194408D01*
X43493658Y-38195474D01*
X43472087Y-38181926D01*
X43463698Y-38170663D01*
X43433535Y-38146421D01*
X43382114Y-38123054D01*
X43376664Y-38121230D01*
X43334015Y-38103726D01*
X43311140Y-38078020D01*
X43299457Y-38030604D01*
X43294924Y-37992583D01*
X43273043Y-37905898D01*
X43229139Y-37806738D01*
X43172102Y-37711548D01*
X43110824Y-37636772D01*
X43094644Y-37622166D01*
X43066528Y-37590861D01*
X43023358Y-37533482D01*
X42972401Y-37459924D01*
X42946292Y-37420198D01*
X42887782Y-37336299D01*
X42825951Y-37258583D01*
X42771146Y-37199718D01*
X42753776Y-37184499D01*
X42685203Y-37134348D01*
X42605366Y-37082176D01*
X42524142Y-37033704D01*
X42451403Y-36994647D01*
X42397025Y-36970726D01*
X42376480Y-36966000D01*
X42359876Y-36964085D01*
X42359876Y-37029500D01*
X42428721Y-37045356D01*
X42515232Y-37088852D01*
X42611525Y-37153872D01*
X42709713Y-37234305D01*
X42801911Y-37324036D01*
X42880232Y-37416953D01*
X42904767Y-37451903D01*
X42963450Y-37536568D01*
X43027485Y-37622196D01*
X43083155Y-37690454D01*
X43083876Y-37691275D01*
X43158496Y-37789799D01*
X43214872Y-37891733D01*
X43247226Y-37985461D01*
X43252701Y-38030584D01*
X43250086Y-38068528D01*
X43233345Y-38082188D01*
X43190368Y-38078468D01*
X43173791Y-38075575D01*
X43083070Y-38053464D01*
X42971538Y-38017289D01*
X42847633Y-37970760D01*
X42719786Y-37917588D01*
X42596435Y-37861484D01*
X42486013Y-37806157D01*
X42396955Y-37755318D01*
X42337696Y-37712678D01*
X42328533Y-37703742D01*
X42293287Y-37653937D01*
X42251076Y-37577439D01*
X42208252Y-37487741D01*
X42171166Y-37398334D01*
X42146171Y-37322709D01*
X42143019Y-37309689D01*
X42145160Y-37232301D01*
X42178031Y-37154435D01*
X42232935Y-37087327D01*
X42301177Y-37042210D01*
X42359876Y-37029500D01*
X42359876Y-36964085D01*
X42353608Y-36963361D01*
X42347078Y-36951298D01*
X42359438Y-36923590D01*
X42393238Y-36874019D01*
X42440037Y-36810970D01*
X42524421Y-36683386D01*
X42608258Y-36529644D01*
X42684073Y-36365352D01*
X42744394Y-36206116D01*
X42768669Y-36124778D01*
X42790864Y-36007566D01*
X42805760Y-35860455D01*
X42813097Y-35695289D01*
X42812612Y-35523914D01*
X42804045Y-35358174D01*
X42788636Y-35219750D01*
X42761170Y-35072973D01*
X42721431Y-34909180D01*
X42673735Y-34743458D01*
X42622396Y-34590896D01*
X42575814Y-34475482D01*
X42544739Y-34404900D01*
X42522113Y-34349608D01*
X42512419Y-34320610D01*
X42512333Y-34319594D01*
X42530857Y-34305842D01*
X42576705Y-34291864D01*
X42589828Y-34289173D01*
X42622806Y-34278676D01*
X42661923Y-34256453D01*
X42711785Y-34218711D01*
X42776998Y-34161656D01*
X42862167Y-34081495D01*
X42971720Y-33974609D01*
X43078926Y-33868001D01*
X43159337Y-33785348D01*
X43217097Y-33721704D01*
X43256347Y-33672126D01*
X43281230Y-33631671D01*
X43295889Y-33595395D01*
X43299079Y-33583931D01*
X43321084Y-33519899D01*
X43354456Y-33480538D01*
X43410644Y-33456455D01*
X43470125Y-33443576D01*
X43521032Y-33429653D01*
X43548137Y-33413014D01*
X43549500Y-33409040D01*
X43530194Y-33394010D01*
X43476171Y-33390006D01*
X43393274Y-33395927D01*
X43287346Y-33410673D01*
X43195997Y-33427345D01*
X43195997Y-33454237D01*
X43219675Y-33459319D01*
X43261053Y-33471524D01*
X43276064Y-33473500D01*
X43294448Y-33486643D01*
X43280747Y-33524673D01*
X43253166Y-33563942D01*
X43223717Y-33606752D01*
X43210854Y-33636087D01*
X43210833Y-33636716D01*
X43196554Y-33656928D01*
X43157639Y-33700563D01*
X43099969Y-33761704D01*
X43029428Y-33834435D01*
X42951896Y-33912842D01*
X42873257Y-33991008D01*
X42799392Y-34063018D01*
X42736184Y-34122955D01*
X42689515Y-34164904D01*
X42671083Y-34179551D01*
X42619777Y-34205130D01*
X42559212Y-34224057D01*
X42514196Y-34229581D01*
X42478706Y-34217877D01*
X42437993Y-34182242D01*
X42416337Y-34159126D01*
X42373723Y-34104177D01*
X42347270Y-34053846D01*
X42343000Y-34034103D01*
X42355213Y-33994545D01*
X42387092Y-33935582D01*
X42427666Y-33875666D01*
X42471121Y-33812256D01*
X42501666Y-33757816D01*
X42512333Y-33725979D01*
X42524031Y-33704628D01*
X42562388Y-33679983D01*
X42632292Y-33649519D01*
X42729291Y-33613966D01*
X42828398Y-33580697D01*
X42921987Y-33551662D01*
X42997226Y-33530723D01*
X43030916Y-33523159D01*
X43081973Y-33513033D01*
X43095317Y-33505158D01*
X43075082Y-33495389D01*
X43062666Y-33491338D01*
X43046423Y-33483185D01*
X43070466Y-33482261D01*
X43112551Y-33486229D01*
X43174005Y-33490919D01*
X43200351Y-33485796D01*
X43199037Y-33471538D01*
X43195997Y-33454237D01*
X43195997Y-33427345D01*
X43164228Y-33433144D01*
X43029764Y-33462238D01*
X42889795Y-33496854D01*
X42750165Y-33535892D01*
X42616715Y-33578252D01*
X42575833Y-33592484D01*
X42457961Y-33634650D01*
X42457961Y-33711250D01*
X42466394Y-33723410D01*
X42447085Y-33758917D01*
X42409562Y-33809120D01*
X42366452Y-33867611D01*
X42331516Y-33920889D01*
X42323909Y-33934326D01*
X42298693Y-33982403D01*
X42246763Y-33920687D01*
X42212964Y-33875413D01*
X42195493Y-33842033D01*
X42194833Y-33837900D01*
X42212788Y-33817751D01*
X42259081Y-33788871D01*
X42322352Y-33757234D01*
X42391239Y-33728814D01*
X42422375Y-33718251D01*
X42457961Y-33711250D01*
X42457961Y-33634650D01*
X42443359Y-33639874D01*
X42345308Y-33675580D01*
X42276198Y-33702056D01*
X42230549Y-33721760D01*
X42202881Y-33737147D01*
X42187713Y-33750672D01*
X42179567Y-33764793D01*
X42177030Y-33771200D01*
X42166112Y-33784399D01*
X42144672Y-33781456D01*
X42106803Y-33759195D01*
X42046599Y-33714438D01*
X41993750Y-33672624D01*
X41922433Y-33612249D01*
X41865488Y-33557800D01*
X41830185Y-33516594D01*
X41822258Y-33499998D01*
X41818873Y-33446635D01*
X41816967Y-33418920D01*
X41792860Y-33341893D01*
X41734219Y-33255862D01*
X41646430Y-33165918D01*
X41534876Y-33077151D01*
X41404943Y-32994651D01*
X41322028Y-32951066D01*
X41253281Y-32914982D01*
X41202570Y-32883358D01*
X41179362Y-32862208D01*
X41178833Y-32860122D01*
X41181281Y-32848592D01*
X41190819Y-32829679D01*
X41210738Y-32798624D01*
X41244329Y-32750666D01*
X41294883Y-32681047D01*
X41365691Y-32585006D01*
X41415804Y-32517387D01*
X41545893Y-32348262D01*
X41666294Y-32206212D01*
X41786605Y-32080630D01*
X41916427Y-31960908D01*
X41930250Y-31948895D01*
X41983288Y-31899947D01*
X42019454Y-31860623D01*
X42030791Y-31839929D01*
X42041192Y-31823138D01*
X42046666Y-31822500D01*
X42067133Y-31806319D01*
X42067833Y-31800789D01*
X42053091Y-31792456D01*
X42013315Y-31808359D01*
X41955175Y-31844686D01*
X41885344Y-31897624D01*
X41857467Y-31921012D01*
X41798053Y-31978309D01*
X41720123Y-32062316D01*
X41629966Y-32165439D01*
X41533871Y-32280084D01*
X41438127Y-32398657D01*
X41349024Y-32513564D01*
X41272851Y-32617210D01*
X41233886Y-32673981D01*
X41172466Y-32760880D01*
X41123958Y-32816830D01*
X41090501Y-32839950D01*
X41074235Y-32828354D01*
X41073000Y-32815618D01*
X41082924Y-32782077D01*
X41109039Y-32722753D01*
X41145858Y-32648226D01*
X41187897Y-32569074D01*
X41229667Y-32495878D01*
X41265684Y-32439216D01*
X41274447Y-32427154D01*
X41307745Y-32377925D01*
X41325883Y-32340269D01*
X41327000Y-32333793D01*
X41341023Y-32310664D01*
X41347763Y-32309333D01*
X41367899Y-32291390D01*
X41381630Y-32257122D01*
X41397041Y-32219668D01*
X41411421Y-32209497D01*
X41435607Y-32197880D01*
X41477198Y-32162384D01*
X41527415Y-32112396D01*
X41577481Y-32057304D01*
X41618618Y-32006495D01*
X41642049Y-31969356D01*
X41644500Y-31960228D01*
X41633460Y-31941535D01*
X41602865Y-31953570D01*
X41556502Y-31991742D01*
X41498157Y-32051463D01*
X41431618Y-32128143D01*
X41360669Y-32217193D01*
X41289099Y-32314024D01*
X41220694Y-32414046D01*
X41159241Y-32512669D01*
X41108525Y-32605304D01*
X41102972Y-32616557D01*
X41061506Y-32699052D01*
X41041873Y-32735336D01*
X41041873Y-32909155D01*
X41049616Y-32909842D01*
X41051083Y-32937792D01*
X41042443Y-32980872D01*
X41029258Y-32998120D01*
X41002837Y-33006250D01*
X41002919Y-32982744D01*
X41021065Y-32944301D01*
X41041873Y-32909155D01*
X41041873Y-32735336D01*
X41025763Y-32765110D01*
X41000188Y-32806809D01*
X40990279Y-32817333D01*
X40963388Y-32805935D01*
X40934170Y-32786599D01*
X40909615Y-32765484D01*
X40904673Y-32743845D01*
X40919675Y-32707383D01*
X40936740Y-32675474D01*
X41010813Y-32539628D01*
X41068827Y-32434757D01*
X41114518Y-32354416D01*
X41151625Y-32292161D01*
X41183886Y-32241548D01*
X41213605Y-32198159D01*
X41252354Y-32137028D01*
X41277792Y-32084821D01*
X41283785Y-32060576D01*
X41273847Y-32044090D01*
X41247117Y-32062253D01*
X41205729Y-32111846D01*
X41151816Y-32189649D01*
X41087512Y-32292444D01*
X41014950Y-32417011D01*
X40936265Y-32560133D01*
X40873796Y-32679109D01*
X40841423Y-32741968D01*
X40581503Y-32744563D01*
X40546434Y-32746027D01*
X40546434Y-32815336D01*
X40654929Y-32815479D01*
X40725610Y-32821495D01*
X40762991Y-32838746D01*
X40771587Y-32872595D01*
X40755914Y-32928403D01*
X40720486Y-33011534D01*
X40717427Y-33018416D01*
X40678326Y-33119418D01*
X40649446Y-33219909D01*
X40632238Y-33311161D01*
X40628153Y-33384448D01*
X40638640Y-33431041D01*
X40647317Y-33440298D01*
X40662510Y-33433165D01*
X40669915Y-33386862D01*
X40670833Y-33348089D01*
X40678392Y-33270254D01*
X40702989Y-33178893D01*
X40747502Y-33063630D01*
X40753970Y-33048508D01*
X40790015Y-32965988D01*
X40820054Y-32899234D01*
X40840083Y-32857037D01*
X40845788Y-32846989D01*
X40869461Y-32847370D01*
X40915881Y-32859775D01*
X40922697Y-32862093D01*
X40969624Y-32885457D01*
X40979957Y-32912741D01*
X40977808Y-32920064D01*
X40959617Y-32973190D01*
X40935587Y-33051165D01*
X40908409Y-33144265D01*
X40880775Y-33242769D01*
X40855373Y-33336952D01*
X40834897Y-33417093D01*
X40822035Y-33473467D01*
X40819000Y-33493929D01*
X40824776Y-33532055D01*
X40838606Y-33534696D01*
X40855243Y-33506555D01*
X40869437Y-33452338D01*
X40870139Y-33448091D01*
X40882865Y-33387430D01*
X40897342Y-33344152D01*
X40901523Y-33336966D01*
X40920127Y-33302081D01*
X40940194Y-33250644D01*
X40958599Y-33209187D01*
X40990069Y-33150107D01*
X41028346Y-33083813D01*
X41067172Y-33020715D01*
X41100288Y-32971222D01*
X41121436Y-32945745D01*
X41124350Y-32944333D01*
X41146076Y-32951980D01*
X41196903Y-32972287D01*
X41266994Y-33001297D01*
X41287741Y-33010023D01*
X41460604Y-33097640D01*
X41603189Y-33200688D01*
X41710242Y-33315236D01*
X41726085Y-33337904D01*
X41768747Y-33405239D01*
X41788029Y-33446827D01*
X41785734Y-33470947D01*
X41763669Y-33485878D01*
X41758780Y-33487831D01*
X41720929Y-33484928D01*
X41707176Y-33472168D01*
X41689877Y-33462967D01*
X41657157Y-33475071D01*
X41602819Y-33511455D01*
X41564140Y-33540820D01*
X41496267Y-33592089D01*
X41435805Y-33635259D01*
X41413829Y-33649440D01*
X41413829Y-33803129D01*
X41433068Y-33808327D01*
X41466739Y-33831233D01*
X41521818Y-33875085D01*
X41574814Y-33918319D01*
X41610948Y-33937270D01*
X41622439Y-33939166D01*
X41643712Y-33954736D01*
X41644500Y-33960333D01*
X41660792Y-33980660D01*
X41667078Y-33981500D01*
X41698873Y-33993326D01*
X41742643Y-34022131D01*
X41786119Y-34057905D01*
X41817028Y-34090640D01*
X41823865Y-34109392D01*
X41828557Y-34134061D01*
X41837925Y-34142057D01*
X41852770Y-34144908D01*
X41847604Y-34132937D01*
X41844807Y-34111085D01*
X41851841Y-34108500D01*
X41877086Y-34123326D01*
X41916257Y-34160746D01*
X41960407Y-34210168D01*
X42000591Y-34261000D01*
X42027863Y-34302651D01*
X42033776Y-34323899D01*
X42035702Y-34337443D01*
X42041367Y-34336566D01*
X42064937Y-34347567D01*
X42107078Y-34382028D01*
X42150249Y-34423971D01*
X42201680Y-34481696D01*
X42226179Y-34523635D01*
X42229522Y-34560878D01*
X42227416Y-34572138D01*
X42222865Y-34605161D01*
X42232692Y-34600201D01*
X42233261Y-34599362D01*
X42252154Y-34587118D01*
X42275845Y-34610219D01*
X42282600Y-34620528D01*
X42315804Y-34680953D01*
X42353081Y-34760192D01*
X42388648Y-34844474D01*
X42416721Y-34920029D01*
X42431519Y-34973084D01*
X42432009Y-34976333D01*
X42449676Y-35033715D01*
X42475663Y-35081584D01*
X42503493Y-35138518D01*
X42513821Y-35187418D01*
X42522328Y-35247510D01*
X42533355Y-35283250D01*
X42543375Y-35336410D01*
X42544965Y-35422576D01*
X42538741Y-35533394D01*
X42525318Y-35660514D01*
X42505312Y-35795586D01*
X42489070Y-35883691D01*
X42464432Y-36006484D01*
X42446566Y-36093337D01*
X42433997Y-36149834D01*
X42425249Y-36181557D01*
X42418847Y-36194089D01*
X42413315Y-36193013D01*
X42408952Y-36186800D01*
X42400968Y-36192016D01*
X42396039Y-36229779D01*
X42395354Y-36253646D01*
X42379272Y-36349518D01*
X42335973Y-36459798D01*
X42271254Y-36572391D01*
X42195947Y-36669666D01*
X42151325Y-36716747D01*
X42120310Y-36744692D01*
X42110195Y-36747951D01*
X42097901Y-36750263D01*
X42072265Y-36773057D01*
X42072265Y-37185358D01*
X42097644Y-37202891D01*
X42109521Y-37257887D01*
X42110166Y-37280224D01*
X42118321Y-37343032D01*
X42139412Y-37423838D01*
X42161213Y-37485350D01*
X42194269Y-37569305D01*
X42210218Y-37620324D01*
X42208497Y-37644438D01*
X42188540Y-37647679D01*
X42149786Y-37636077D01*
X42147208Y-37635168D01*
X42089344Y-37608329D01*
X42019041Y-37567253D01*
X41983166Y-37543204D01*
X41919646Y-37498161D01*
X41862939Y-37458034D01*
X41840291Y-37442054D01*
X41800069Y-37400909D01*
X41801243Y-37362011D01*
X41844192Y-37323762D01*
X41872041Y-37308824D01*
X41919895Y-37278950D01*
X41944399Y-37250383D01*
X41945259Y-37242560D01*
X41953507Y-37224109D01*
X41971105Y-37227087D01*
X42010390Y-37223665D01*
X42035308Y-37207167D01*
X42072265Y-37185358D01*
X42072265Y-36773057D01*
X42067474Y-36777317D01*
X42058335Y-36786912D01*
X42018635Y-36820173D01*
X41987485Y-36830195D01*
X41983727Y-36828763D01*
X41966531Y-36828460D01*
X41966767Y-36836627D01*
X41952582Y-36856886D01*
X41909751Y-36891004D01*
X41846726Y-36932450D01*
X41829079Y-36943029D01*
X41764222Y-36979711D01*
X41717995Y-37002953D01*
X41698005Y-37009040D01*
X41698295Y-37006911D01*
X41706625Y-36975048D01*
X41713529Y-36917114D01*
X41715841Y-36881250D01*
X41716128Y-36826267D01*
X41711671Y-36798182D01*
X41706687Y-36798790D01*
X41691276Y-36799340D01*
X41671789Y-36757945D01*
X41657897Y-36712000D01*
X41644874Y-36689584D01*
X41615997Y-36646812D01*
X41605859Y-36632449D01*
X41561499Y-36584016D01*
X41526672Y-36576666D01*
X41501310Y-36610462D01*
X41485342Y-36685466D01*
X41480584Y-36743452D01*
X41482012Y-36867423D01*
X41500143Y-36961496D01*
X41533906Y-37021894D01*
X41565032Y-37041733D01*
X41592974Y-37052989D01*
X41588765Y-37065343D01*
X41550034Y-37087381D01*
X41486411Y-37109929D01*
X41422250Y-37120309D01*
X41422250Y-37304666D01*
X41432833Y-37315250D01*
X41422250Y-37325833D01*
X41411666Y-37315250D01*
X41422250Y-37304666D01*
X41422250Y-37120309D01*
X41414258Y-37121602D01*
X41410735Y-37121762D01*
X41362186Y-37126989D01*
X41358750Y-37128423D01*
X41358750Y-37262333D01*
X41369333Y-37272916D01*
X41358750Y-37283500D01*
X41348166Y-37272916D01*
X41358750Y-37262333D01*
X41358750Y-37128423D01*
X41339930Y-37136280D01*
X41340104Y-37139162D01*
X41334193Y-37161525D01*
X41327719Y-37166638D01*
X41319274Y-37151561D01*
X41312965Y-37095389D01*
X41308862Y-36999313D01*
X41307033Y-36864520D01*
X41306944Y-36807987D01*
X41307306Y-36436272D01*
X41362824Y-36446339D01*
X41468214Y-36464430D01*
X41538686Y-36473530D01*
X41580637Y-36473872D01*
X41600467Y-36465687D01*
X41604604Y-36455111D01*
X41597590Y-36364663D01*
X41566693Y-36306226D01*
X41547424Y-36277095D01*
X41562371Y-36256954D01*
X41579243Y-36247273D01*
X41612736Y-36234482D01*
X41623333Y-36238285D01*
X41636291Y-36237436D01*
X41662092Y-36217817D01*
X41694760Y-36194628D01*
X41710473Y-36192362D01*
X41718330Y-36183337D01*
X41720095Y-36162212D01*
X41713074Y-36134142D01*
X41703464Y-36132719D01*
X41687749Y-36127336D01*
X41686833Y-36120582D01*
X41703204Y-36099229D01*
X41710344Y-36098166D01*
X41713339Y-36087294D01*
X41688010Y-36061047D01*
X41686910Y-36060152D01*
X41639964Y-36022137D01*
X41696666Y-35954752D01*
X41728980Y-35908189D01*
X41741562Y-35872812D01*
X41740017Y-35865766D01*
X41740296Y-35845907D01*
X41747320Y-35844166D01*
X41773149Y-35860730D01*
X41778648Y-35870625D01*
X41788309Y-35885344D01*
X41790995Y-35871369D01*
X41775794Y-35842025D01*
X41751121Y-35823421D01*
X41720686Y-35790048D01*
X41721368Y-35764468D01*
X41725946Y-35742114D01*
X41713280Y-35755435D01*
X41675412Y-35773321D01*
X41636553Y-35768853D01*
X41596591Y-35751966D01*
X41590018Y-35723023D01*
X41593440Y-35709418D01*
X41618629Y-35655852D01*
X41636780Y-35630435D01*
X41657202Y-35583615D01*
X41658582Y-35545769D01*
X41642218Y-35507105D01*
X41602329Y-35499379D01*
X41600014Y-35499577D01*
X41532740Y-35508550D01*
X41446936Y-35523550D01*
X41361632Y-35540927D01*
X41295856Y-35557031D01*
X41287598Y-35559501D01*
X41253397Y-35566601D01*
X41244676Y-35550394D01*
X41250872Y-35513877D01*
X41262387Y-35440265D01*
X41273388Y-35332150D01*
X41283436Y-35197361D01*
X41292092Y-35043728D01*
X41298921Y-34879080D01*
X41303482Y-34711247D01*
X41305338Y-34548059D01*
X41305353Y-34540014D01*
X41307872Y-34348415D01*
X41314765Y-34189512D01*
X41325809Y-34065422D01*
X41340785Y-33978263D01*
X41359470Y-33930150D01*
X41369878Y-33921483D01*
X41381604Y-33901434D01*
X41379069Y-33895462D01*
X41378805Y-33863980D01*
X41390728Y-33832905D01*
X41402041Y-33812401D01*
X41413829Y-33803129D01*
X41413829Y-33649440D01*
X41395183Y-33661474D01*
X41393493Y-33662397D01*
X41358075Y-33697316D01*
X41348166Y-33728912D01*
X41341503Y-33770419D01*
X41324149Y-33836401D01*
X41303106Y-33902792D01*
X41290251Y-33943651D01*
X41279774Y-33986900D01*
X41271264Y-34037832D01*
X41264308Y-34101741D01*
X41258495Y-34183921D01*
X41253413Y-34289664D01*
X41248650Y-34424265D01*
X41243793Y-34593017D01*
X41240961Y-34701166D01*
X41235979Y-34870320D01*
X41230045Y-35030364D01*
X41223481Y-35175158D01*
X41216606Y-35298559D01*
X41209742Y-35394427D01*
X41203211Y-35456620D01*
X41200712Y-35470926D01*
X41189682Y-35540390D01*
X41188184Y-35598796D01*
X41191294Y-35617249D01*
X41203758Y-35647192D01*
X41217223Y-35638092D01*
X41226160Y-35622825D01*
X41246656Y-35598852D01*
X41263979Y-35612109D01*
X41281467Y-35625894D01*
X41316272Y-35627924D01*
X41378370Y-35618203D01*
X41407604Y-35612195D01*
X41478347Y-35599091D01*
X41533189Y-35592409D01*
X41556673Y-35593004D01*
X41561115Y-35614888D01*
X41545077Y-35664233D01*
X41527856Y-35701009D01*
X41499224Y-35759573D01*
X41489283Y-35792132D01*
X41497006Y-35810141D01*
X41516973Y-35822717D01*
X41570945Y-35840897D01*
X41599525Y-35844166D01*
X41643710Y-35853563D01*
X41649998Y-35880619D01*
X41618137Y-35923630D01*
X41612097Y-35929446D01*
X41569194Y-35983065D01*
X41565837Y-36032345D01*
X41601623Y-36086949D01*
X41605337Y-36090958D01*
X41629426Y-36119923D01*
X41632643Y-36139612D01*
X41609532Y-36153664D01*
X41554637Y-36165715D01*
X41475407Y-36177597D01*
X41398390Y-36195664D01*
X41355431Y-36221153D01*
X41348875Y-36250332D01*
X41381063Y-36279467D01*
X41404796Y-36290078D01*
X41463061Y-36319253D01*
X41503607Y-36348166D01*
X41529520Y-36375148D01*
X41520245Y-36388198D01*
X41493062Y-36395849D01*
X41435992Y-36395406D01*
X41401083Y-36382735D01*
X41350046Y-36360862D01*
X41287497Y-36344199D01*
X41240211Y-36337531D01*
X41224689Y-36347385D01*
X41231211Y-36381852D01*
X41233372Y-36389245D01*
X41238982Y-36428616D01*
X41244084Y-36502363D01*
X41248332Y-36602526D01*
X41251383Y-36721149D01*
X41252832Y-36839000D01*
X41255166Y-37230583D01*
X41386814Y-37363905D01*
X41450636Y-37427170D01*
X41492682Y-37463753D01*
X41520007Y-37477970D01*
X41539669Y-37474135D01*
X41551242Y-37464447D01*
X41585827Y-37436974D01*
X41617002Y-37439481D01*
X41651999Y-37462746D01*
X41669642Y-37479158D01*
X41674874Y-37499121D01*
X41665365Y-37531152D01*
X41638787Y-37583770D01*
X41599997Y-37652864D01*
X41503205Y-37803686D01*
X41399431Y-37923578D01*
X41278333Y-38023806D01*
X41229390Y-38056679D01*
X41159815Y-38097941D01*
X41115098Y-38115295D01*
X41087267Y-38111565D01*
X41083010Y-38108524D01*
X41058225Y-38074002D01*
X41025486Y-38009683D01*
X40989170Y-37926269D01*
X40953655Y-37834460D01*
X40923320Y-37744957D01*
X40910599Y-37698122D01*
X40910599Y-37904155D01*
X40933120Y-37924419D01*
X40970636Y-37983296D01*
X40975882Y-37992583D01*
X41020450Y-38075817D01*
X41043112Y-38129446D01*
X41045071Y-38159337D01*
X41027526Y-38171356D01*
X41012715Y-38172500D01*
X40983206Y-38158668D01*
X40956366Y-38112995D01*
X40938632Y-38064236D01*
X40912792Y-37975145D01*
X40903635Y-37921425D01*
X40910599Y-37904155D01*
X40910599Y-37698122D01*
X40902543Y-37668461D01*
X40902071Y-37666282D01*
X40886306Y-37607928D01*
X40870529Y-37573313D01*
X40862125Y-37568760D01*
X40847029Y-37558192D01*
X40833208Y-37518436D01*
X40832467Y-37514879D01*
X40819614Y-37450612D01*
X40788171Y-37479905D01*
X40788171Y-37569250D01*
X40825097Y-37749166D01*
X40846220Y-37845961D01*
X40868802Y-37939771D01*
X40888598Y-38013134D01*
X40892012Y-38024333D01*
X40915314Y-38107029D01*
X40921110Y-38159123D01*
X40908431Y-38188978D01*
X40876308Y-38204962D01*
X40870930Y-38206388D01*
X40825385Y-38211483D01*
X40802139Y-38205080D01*
X40793787Y-38177090D01*
X40786115Y-38116840D01*
X40779603Y-38034400D01*
X40774733Y-37939844D01*
X40771986Y-37843242D01*
X40771842Y-37754666D01*
X40774781Y-37684190D01*
X40776456Y-37667065D01*
X40788171Y-37569250D01*
X40788171Y-37479905D01*
X40774964Y-37492209D01*
X40756791Y-37512173D01*
X40744420Y-37537332D01*
X40736823Y-37575444D01*
X40732974Y-37634265D01*
X40731846Y-37721552D01*
X40732200Y-37815275D01*
X40733839Y-37926456D01*
X40736962Y-38027845D01*
X40741138Y-38109027D01*
X40745937Y-38159585D01*
X40746556Y-38163214D01*
X40759026Y-38229685D01*
X40646138Y-38243242D01*
X40561135Y-38251393D01*
X40543833Y-38252405D01*
X40543833Y-38278333D01*
X40561255Y-38286077D01*
X40557944Y-38292444D01*
X40532824Y-38294977D01*
X40529722Y-38292444D01*
X40532627Y-38279860D01*
X40543833Y-38278333D01*
X40543833Y-38252405D01*
X40476757Y-38256329D01*
X40446234Y-38256982D01*
X40367108Y-38248014D01*
X40261271Y-38223339D01*
X40139615Y-38186695D01*
X40013033Y-38141819D01*
X39892417Y-38092450D01*
X39788661Y-38042324D01*
X39742008Y-38015333D01*
X39691247Y-37986370D01*
X39656862Y-37972472D01*
X39649825Y-37972896D01*
X39622149Y-37972749D01*
X39566312Y-37951685D01*
X39488900Y-37912967D01*
X39396496Y-37859862D01*
X39305583Y-37802216D01*
X39212295Y-37743534D01*
X39113195Y-37686107D01*
X39025816Y-37639973D01*
X39004178Y-37629683D01*
X38938162Y-37597301D01*
X38890734Y-37569890D01*
X38871905Y-37553252D01*
X38871887Y-37553001D01*
X38888092Y-37528143D01*
X38935987Y-37478664D01*
X39013998Y-37406127D01*
X39067458Y-37358479D01*
X39101023Y-37332913D01*
X39116495Y-37325833D01*
X39146368Y-37313057D01*
X39187442Y-37282131D01*
X39227722Y-37244159D01*
X39255213Y-37210243D01*
X39259773Y-37193207D01*
X39259710Y-37181243D01*
X39270081Y-37185931D01*
X39298275Y-37181512D01*
X39343310Y-37153637D01*
X39370481Y-37130993D01*
X39422292Y-37085894D01*
X39465521Y-37051946D01*
X39478576Y-37043326D01*
X39500141Y-37009084D01*
X39487950Y-36949783D01*
X39441961Y-36865279D01*
X39410899Y-36819926D01*
X39339455Y-36706198D01*
X39277434Y-36581161D01*
X39234197Y-36464054D01*
X39229667Y-36447416D01*
X39215641Y-36400486D01*
X39191106Y-36325849D01*
X39160087Y-36235558D01*
X39139846Y-36178351D01*
X39104179Y-36070048D01*
X39071480Y-35955554D01*
X39046946Y-35853633D01*
X39040228Y-35818518D01*
X39025378Y-35660838D01*
X39027433Y-35474516D01*
X39045355Y-35269251D01*
X39078109Y-35054743D01*
X39124656Y-34840694D01*
X39157659Y-34720260D01*
X39181670Y-34650342D01*
X39216893Y-34561568D01*
X39259880Y-34461221D01*
X39307183Y-34356581D01*
X39355356Y-34254931D01*
X39400950Y-34163552D01*
X39440518Y-34089727D01*
X39470613Y-34040738D01*
X39487379Y-34023833D01*
X39495384Y-34007266D01*
X39492087Y-33986791D01*
X39469404Y-33952759D01*
X39420287Y-33903154D01*
X39352168Y-33843576D01*
X39272482Y-33779625D01*
X39188663Y-33716900D01*
X39108144Y-33661001D01*
X39038359Y-33617529D01*
X38986742Y-33592083D01*
X38963376Y-33588522D01*
X38934781Y-33581368D01*
X38928584Y-33571543D01*
X38903705Y-33549231D01*
X38853236Y-33524479D01*
X38830521Y-33516225D01*
X38758591Y-33486377D01*
X38728843Y-33458607D01*
X38741156Y-33433439D01*
X38795407Y-33411395D01*
X38858131Y-33398127D01*
X38908486Y-33386401D01*
X38920755Y-33373329D01*
X38911480Y-33363625D01*
X38900741Y-33350949D01*
X38927549Y-33352927D01*
X38936376Y-33354749D01*
X38980285Y-33353890D01*
X39054181Y-33341596D01*
X39147886Y-33319803D01*
X39211542Y-33302350D01*
X39314593Y-33274068D01*
X39414130Y-33249494D01*
X39496173Y-33231952D01*
X39533125Y-33225940D01*
X39594560Y-33215705D01*
X39624415Y-33200476D01*
X39633417Y-33173721D01*
X39633666Y-33164712D01*
X39653721Y-33111376D01*
X39709836Y-33056269D01*
X39795936Y-33001716D01*
X39905946Y-32950044D01*
X40033792Y-32903576D01*
X40173398Y-32864638D01*
X40318690Y-32835555D01*
X40463594Y-32818653D01*
X40546434Y-32815336D01*
X40546434Y-32746027D01*
X40392056Y-32752476D01*
X40385083Y-32753405D01*
X40385083Y-32775000D01*
X40395666Y-32785583D01*
X40385083Y-32796166D01*
X40374500Y-32785583D01*
X40385083Y-32775000D01*
X40385083Y-32753405D01*
X40228927Y-32774213D01*
X40077450Y-32812984D01*
X39922963Y-32871998D01*
X39852557Y-32904112D01*
X39721586Y-32975792D01*
X39628241Y-33048289D01*
X39608711Y-33069131D01*
X39542498Y-33131618D01*
X39472450Y-33163282D01*
X39453321Y-33167392D01*
X39398934Y-33179628D01*
X39316109Y-33201188D01*
X39216843Y-33228848D01*
X39129252Y-33254520D01*
X39022635Y-33285746D01*
X38919637Y-33314559D01*
X38833396Y-33337357D01*
X38785148Y-33348874D01*
X38727790Y-33364167D01*
X38694172Y-33379040D01*
X38690119Y-33386194D01*
X38688222Y-33387428D01*
X38688222Y-33459388D01*
X38700805Y-33462294D01*
X38702333Y-33473500D01*
X38694588Y-33490922D01*
X38688222Y-33487611D01*
X38685688Y-33462491D01*
X38688222Y-33459388D01*
X38688222Y-33387428D01*
X38678254Y-33393917D01*
X38637146Y-33393744D01*
X38626765Y-33392677D01*
X38577471Y-33390622D01*
X38557349Y-33404305D01*
X38554166Y-33428850D01*
X38567473Y-33465665D01*
G37*
X38567473Y-33465665D02*
X38587479Y-33473500D01*
X38618983Y-33482588D01*
X38679028Y-33507239D01*
X38758572Y-33543533D01*
X38836187Y-33581323D01*
X38987975Y-33662371D01*
X39119932Y-33745572D01*
X39249146Y-33842404D01*
X39347255Y-33924563D01*
X39431260Y-33997256D01*
X39309390Y-34231813D01*
X39212061Y-34443660D01*
X39130312Y-34671243D01*
X39065209Y-34907528D01*
X39017817Y-35145483D01*
X38989204Y-35378073D01*
X38980435Y-35598266D01*
X38992576Y-35799026D01*
X39026694Y-35973321D01*
X39039318Y-36013500D01*
X39053468Y-36057001D01*
X39075923Y-36128598D01*
X39102798Y-36215844D01*
X39115305Y-36256916D01*
X39167295Y-36414401D01*
X39224362Y-36563358D01*
X39282768Y-36695232D01*
X39338772Y-36801473D01*
X39380879Y-36864217D01*
X39418120Y-36916936D01*
X39440380Y-36960041D01*
X39443166Y-36972408D01*
X39427227Y-36997419D01*
X39384374Y-37040131D01*
X39322054Y-37093515D01*
X39279254Y-37127107D01*
X39182980Y-37202268D01*
X39076341Y-37288531D01*
X38979514Y-37369519D01*
X38962643Y-37384041D01*
X38894248Y-37441277D01*
X38836316Y-37486045D01*
X38797086Y-37512161D01*
X38786416Y-37516333D01*
X38770522Y-37533732D01*
X38769652Y-37561730D01*
X38787251Y-37595056D01*
X38834028Y-37625808D01*
X38892833Y-37650394D01*
X38972549Y-37684749D01*
X39066203Y-37731903D01*
X39146833Y-37777697D01*
X39316702Y-37880198D01*
X39452585Y-37959441D01*
X39554237Y-38015291D01*
X39621413Y-38047613D01*
X39653867Y-38056275D01*
X39655559Y-38055634D01*
X39683321Y-38058873D01*
X39731327Y-38080651D01*
X39754587Y-38094308D01*
X39835439Y-38138016D01*
X39942220Y-38186065D01*
X40059861Y-38232258D01*
X40173291Y-38270397D01*
X40205166Y-38279594D01*
X40266838Y-38291063D01*
X40356925Y-38301073D01*
X40461509Y-38308293D01*
X40532743Y-38310907D01*
X40765069Y-38316075D01*
X40801540Y-38514162D01*
X40818147Y-38594106D01*
X40839567Y-38682624D01*
X40863831Y-38773414D01*
X40888968Y-38860171D01*
X40913007Y-38936590D01*
X40933978Y-38996366D01*
X40949909Y-39033196D01*
X40958830Y-39040774D01*
X40959399Y-39019166D01*
X40951041Y-38966121D01*
X40934058Y-38885850D01*
X40911415Y-38791841D01*
X40898923Y-38744000D01*
X40873613Y-38646408D01*
X40851245Y-38554185D01*
X40835228Y-38481640D01*
X40830836Y-38458250D01*
X40819222Y-38394875D01*
X40808353Y-38345396D01*
X40806468Y-38338453D01*
X40812131Y-38309441D01*
X40852457Y-38285322D01*
X40872515Y-38278135D01*
X40923234Y-38263681D01*
X40953284Y-38259428D01*
X40955776Y-38260348D01*
X40966950Y-38282202D01*
X40989360Y-38332074D01*
X41016277Y-38394750D01*
X41057921Y-38490053D01*
X41105003Y-38592221D01*
X41154563Y-38695507D01*
X41203638Y-38794167D01*
X41249268Y-38882457D01*
X41288491Y-38954633D01*
X41318347Y-39004948D01*
X41335875Y-39027660D01*
X41338772Y-39020385D01*
X41324912Y-38974086D01*
X41295887Y-38899805D01*
X41255761Y-38807276D01*
X41208595Y-38706231D01*
X41201828Y-38692301D01*
X41124593Y-38532035D01*
X41067282Y-38408413D01*
X41029645Y-38320866D01*
X41011428Y-38268824D01*
X41009500Y-38256846D01*
X41026695Y-38234293D01*
X41064351Y-38225155D01*
X41101574Y-38233797D01*
X41105658Y-38236754D01*
X41129469Y-38264004D01*
X41169189Y-38316923D01*
X41217578Y-38385733D01*
X41235212Y-38411744D01*
X41302631Y-38510820D01*
X41377509Y-38618605D01*
X41455062Y-38728455D01*
X41530508Y-38833727D01*
X41599064Y-38927777D01*
X41655948Y-39003961D01*
X41696376Y-39055634D01*
X41710146Y-39071495D01*
X41742917Y-39101400D01*
X41753584Y-39100975D01*
X41744739Y-39074273D01*
X41718976Y-39025346D01*
X41678887Y-38958248D01*
X41627065Y-38877030D01*
X41566104Y-38785744D01*
X41498596Y-38688445D01*
X41427134Y-38589184D01*
X41354311Y-38492014D01*
X41282720Y-38400988D01*
X41275293Y-38391844D01*
X41240949Y-38344918D01*
X41222289Y-38310101D01*
X41221166Y-38304478D01*
X41206582Y-38274763D01*
X41189416Y-38257166D01*
X41165795Y-38222925D01*
X41158183Y-38183294D01*
X41168134Y-38155459D01*
X41179850Y-38151333D01*
X41227539Y-38136235D01*
X41292989Y-38095894D01*
X41367044Y-38037744D01*
X41440547Y-37969215D01*
X41504343Y-37897739D01*
X41523241Y-37872617D01*
X41596322Y-37763411D01*
X41655323Y-37663090D01*
X41697994Y-37576768D01*
X41722083Y-37509559D01*
X41725339Y-37466579D01*
X41708000Y-37452833D01*
X41689221Y-37435689D01*
X41686833Y-37421083D01*
X41692469Y-37394577D01*
X41712551Y-37396416D01*
X41751841Y-37428453D01*
X41781896Y-37458125D01*
X41836102Y-37502776D01*
X41925173Y-37562905D01*
X42045484Y-37636370D01*
X42193407Y-37721027D01*
X42365316Y-37814733D01*
X42542074Y-37907368D01*
X42639363Y-37953028D01*
X42755420Y-38000416D01*
X42883755Y-38047620D01*
X43017877Y-38092730D01*
X43151296Y-38133835D01*
X43277522Y-38169026D01*
X43390063Y-38196392D01*
X43482428Y-38214022D01*
X43548128Y-38220006D01*
X43580191Y-38212923D01*
X43580646Y-38197831D01*
X43553733Y-38193666D01*
X43510643Y-38194408D01*
X43493658Y-38195474D01*
X43472087Y-38181926D01*
X43463698Y-38170663D01*
X43433535Y-38146421D01*
X43382114Y-38123054D01*
X43376664Y-38121230D01*
X43334015Y-38103726D01*
X43311140Y-38078020D01*
X43299457Y-38030604D01*
X43294924Y-37992583D01*
X43273043Y-37905898D01*
X43229139Y-37806738D01*
X43172102Y-37711548D01*
X43110824Y-37636772D01*
X43094644Y-37622166D01*
X43066528Y-37590861D01*
X43023358Y-37533482D01*
X42972401Y-37459924D01*
X42946292Y-37420198D01*
X42887782Y-37336299D01*
X42825951Y-37258583D01*
X42771146Y-37199718D01*
X42753776Y-37184499D01*
X42685203Y-37134348D01*
X42605366Y-37082176D01*
X42524142Y-37033704D01*
X42451403Y-36994647D01*
X42397025Y-36970726D01*
X42376480Y-36966000D01*
X42359876Y-36964085D01*
X42359876Y-37029500D01*
X42428721Y-37045356D01*
X42515232Y-37088852D01*
X42611525Y-37153872D01*
X42709713Y-37234305D01*
X42801911Y-37324036D01*
X42880232Y-37416953D01*
X42904767Y-37451903D01*
X42963450Y-37536568D01*
X43027485Y-37622196D01*
X43083155Y-37690454D01*
X43083876Y-37691275D01*
X43158496Y-37789799D01*
X43214872Y-37891733D01*
X43247226Y-37985461D01*
X43252701Y-38030584D01*
X43250086Y-38068528D01*
X43233345Y-38082188D01*
X43190368Y-38078468D01*
X43173791Y-38075575D01*
X43083070Y-38053464D01*
X42971538Y-38017289D01*
X42847633Y-37970760D01*
X42719786Y-37917588D01*
X42596435Y-37861484D01*
X42486013Y-37806157D01*
X42396955Y-37755318D01*
X42337696Y-37712678D01*
X42328533Y-37703742D01*
X42293287Y-37653937D01*
X42251076Y-37577439D01*
X42208252Y-37487741D01*
X42171166Y-37398334D01*
X42146171Y-37322709D01*
X42143019Y-37309689D01*
X42145160Y-37232301D01*
X42178031Y-37154435D01*
X42232935Y-37087327D01*
X42301177Y-37042210D01*
X42359876Y-37029500D01*
X42359876Y-36964085D01*
X42353608Y-36963361D01*
X42347078Y-36951298D01*
X42359438Y-36923590D01*
X42393238Y-36874019D01*
X42440037Y-36810970D01*
X42524421Y-36683386D01*
X42608258Y-36529644D01*
X42684073Y-36365352D01*
X42744394Y-36206116D01*
X42768669Y-36124778D01*
X42790864Y-36007566D01*
X42805760Y-35860455D01*
X42813097Y-35695289D01*
X42812612Y-35523914D01*
X42804045Y-35358174D01*
X42788636Y-35219750D01*
X42761170Y-35072973D01*
X42721431Y-34909180D01*
X42673735Y-34743458D01*
X42622396Y-34590896D01*
X42575814Y-34475482D01*
X42544739Y-34404900D01*
X42522113Y-34349608D01*
X42512419Y-34320610D01*
X42512333Y-34319594D01*
X42530857Y-34305842D01*
X42576705Y-34291864D01*
X42589828Y-34289173D01*
X42622806Y-34278676D01*
X42661923Y-34256453D01*
X42711785Y-34218711D01*
X42776998Y-34161656D01*
X42862167Y-34081495D01*
X42971720Y-33974609D01*
X43078926Y-33868001D01*
X43159337Y-33785348D01*
X43217097Y-33721704D01*
X43256347Y-33672126D01*
X43281230Y-33631671D01*
X43295889Y-33595395D01*
X43299079Y-33583931D01*
X43321084Y-33519899D01*
X43354456Y-33480538D01*
X43410644Y-33456455D01*
X43470125Y-33443576D01*
X43521032Y-33429653D01*
X43548137Y-33413014D01*
X43549500Y-33409040D01*
X43530194Y-33394010D01*
X43476171Y-33390006D01*
X43393274Y-33395927D01*
X43287346Y-33410673D01*
X43195997Y-33427345D01*
X43195997Y-33454237D01*
X43219675Y-33459319D01*
X43261053Y-33471524D01*
X43276064Y-33473500D01*
X43294448Y-33486643D01*
X43280747Y-33524673D01*
X43253166Y-33563942D01*
X43223717Y-33606752D01*
X43210854Y-33636087D01*
X43210833Y-33636716D01*
X43196554Y-33656928D01*
X43157639Y-33700563D01*
X43099969Y-33761704D01*
X43029428Y-33834435D01*
X42951896Y-33912842D01*
X42873257Y-33991008D01*
X42799392Y-34063018D01*
X42736184Y-34122955D01*
X42689515Y-34164904D01*
X42671083Y-34179551D01*
X42619777Y-34205130D01*
X42559212Y-34224057D01*
X42514196Y-34229581D01*
X42478706Y-34217877D01*
X42437993Y-34182242D01*
X42416337Y-34159126D01*
X42373723Y-34104177D01*
X42347270Y-34053846D01*
X42343000Y-34034103D01*
X42355213Y-33994545D01*
X42387092Y-33935582D01*
X42427666Y-33875666D01*
X42471121Y-33812256D01*
X42501666Y-33757816D01*
X42512333Y-33725979D01*
X42524031Y-33704628D01*
X42562388Y-33679983D01*
X42632292Y-33649519D01*
X42729291Y-33613966D01*
X42828398Y-33580697D01*
X42921987Y-33551662D01*
X42997226Y-33530723D01*
X43030916Y-33523159D01*
X43081973Y-33513033D01*
X43095317Y-33505158D01*
X43075082Y-33495389D01*
X43062666Y-33491338D01*
X43046423Y-33483185D01*
X43070466Y-33482261D01*
X43112551Y-33486229D01*
X43174005Y-33490919D01*
X43200351Y-33485796D01*
X43199037Y-33471538D01*
X43195997Y-33454237D01*
X43195997Y-33427345D01*
X43164228Y-33433144D01*
X43029764Y-33462238D01*
X42889795Y-33496854D01*
X42750165Y-33535892D01*
X42616715Y-33578252D01*
X42575833Y-33592484D01*
X42457961Y-33634650D01*
X42457961Y-33711250D01*
X42466394Y-33723410D01*
X42447085Y-33758917D01*
X42409562Y-33809120D01*
X42366452Y-33867611D01*
X42331516Y-33920889D01*
X42323909Y-33934326D01*
X42298693Y-33982403D01*
X42246763Y-33920687D01*
X42212964Y-33875413D01*
X42195493Y-33842033D01*
X42194833Y-33837900D01*
X42212788Y-33817751D01*
X42259081Y-33788871D01*
X42322352Y-33757234D01*
X42391239Y-33728814D01*
X42422375Y-33718251D01*
X42457961Y-33711250D01*
X42457961Y-33634650D01*
X42443359Y-33639874D01*
X42345308Y-33675580D01*
X42276198Y-33702056D01*
X42230549Y-33721760D01*
X42202881Y-33737147D01*
X42187713Y-33750672D01*
X42179567Y-33764793D01*
X42177030Y-33771200D01*
X42166112Y-33784399D01*
X42144672Y-33781456D01*
X42106803Y-33759195D01*
X42046599Y-33714438D01*
X41993750Y-33672624D01*
X41922433Y-33612249D01*
X41865488Y-33557800D01*
X41830185Y-33516594D01*
X41822258Y-33499998D01*
X41818873Y-33446635D01*
X41816967Y-33418920D01*
X41792860Y-33341893D01*
X41734219Y-33255862D01*
X41646430Y-33165918D01*
X41534876Y-33077151D01*
X41404943Y-32994651D01*
X41322028Y-32951066D01*
X41253281Y-32914982D01*
X41202570Y-32883358D01*
X41179362Y-32862208D01*
X41178833Y-32860122D01*
X41181281Y-32848592D01*
X41190819Y-32829679D01*
X41210738Y-32798624D01*
X41244329Y-32750666D01*
X41294883Y-32681047D01*
X41365691Y-32585006D01*
X41415804Y-32517387D01*
X41545893Y-32348262D01*
X41666294Y-32206212D01*
X41786605Y-32080630D01*
X41916427Y-31960908D01*
X41930250Y-31948895D01*
X41983288Y-31899947D01*
X42019454Y-31860623D01*
X42030791Y-31839929D01*
X42041192Y-31823138D01*
X42046666Y-31822500D01*
X42067133Y-31806319D01*
X42067833Y-31800789D01*
X42053091Y-31792456D01*
X42013315Y-31808359D01*
X41955175Y-31844686D01*
X41885344Y-31897624D01*
X41857467Y-31921012D01*
X41798053Y-31978309D01*
X41720123Y-32062316D01*
X41629966Y-32165439D01*
X41533871Y-32280084D01*
X41438127Y-32398657D01*
X41349024Y-32513564D01*
X41272851Y-32617210D01*
X41233886Y-32673981D01*
X41172466Y-32760880D01*
X41123958Y-32816830D01*
X41090501Y-32839950D01*
X41074235Y-32828354D01*
X41073000Y-32815618D01*
X41082924Y-32782077D01*
X41109039Y-32722753D01*
X41145858Y-32648226D01*
X41187897Y-32569074D01*
X41229667Y-32495878D01*
X41265684Y-32439216D01*
X41274447Y-32427154D01*
X41307745Y-32377925D01*
X41325883Y-32340269D01*
X41327000Y-32333793D01*
X41341023Y-32310664D01*
X41347763Y-32309333D01*
X41367899Y-32291390D01*
X41381630Y-32257122D01*
X41397041Y-32219668D01*
X41411421Y-32209497D01*
X41435607Y-32197880D01*
X41477198Y-32162384D01*
X41527415Y-32112396D01*
X41577481Y-32057304D01*
X41618618Y-32006495D01*
X41642049Y-31969356D01*
X41644500Y-31960228D01*
X41633460Y-31941535D01*
X41602865Y-31953570D01*
X41556502Y-31991742D01*
X41498157Y-32051463D01*
X41431618Y-32128143D01*
X41360669Y-32217193D01*
X41289099Y-32314024D01*
X41220694Y-32414046D01*
X41159241Y-32512669D01*
X41108525Y-32605304D01*
X41102972Y-32616557D01*
X41061506Y-32699052D01*
X41041873Y-32735336D01*
X41041873Y-32909155D01*
X41049616Y-32909842D01*
X41051083Y-32937792D01*
X41042443Y-32980872D01*
X41029258Y-32998120D01*
X41002837Y-33006250D01*
X41002919Y-32982744D01*
X41021065Y-32944301D01*
X41041873Y-32909155D01*
X41041873Y-32735336D01*
X41025763Y-32765110D01*
X41000188Y-32806809D01*
X40990279Y-32817333D01*
X40963388Y-32805935D01*
X40934170Y-32786599D01*
X40909615Y-32765484D01*
X40904673Y-32743845D01*
X40919675Y-32707383D01*
X40936740Y-32675474D01*
X41010813Y-32539628D01*
X41068827Y-32434757D01*
X41114518Y-32354416D01*
X41151625Y-32292161D01*
X41183886Y-32241548D01*
X41213605Y-32198159D01*
X41252354Y-32137028D01*
X41277792Y-32084821D01*
X41283785Y-32060576D01*
X41273847Y-32044090D01*
X41247117Y-32062253D01*
X41205729Y-32111846D01*
X41151816Y-32189649D01*
X41087512Y-32292444D01*
X41014950Y-32417011D01*
X40936265Y-32560133D01*
X40873796Y-32679109D01*
X40841423Y-32741968D01*
X40581503Y-32744563D01*
X40546434Y-32746027D01*
X40546434Y-32815336D01*
X40654929Y-32815479D01*
X40725610Y-32821495D01*
X40762991Y-32838746D01*
X40771587Y-32872595D01*
X40755914Y-32928403D01*
X40720486Y-33011534D01*
X40717427Y-33018416D01*
X40678326Y-33119418D01*
X40649446Y-33219909D01*
X40632238Y-33311161D01*
X40628153Y-33384448D01*
X40638640Y-33431041D01*
X40647317Y-33440298D01*
X40662510Y-33433165D01*
X40669915Y-33386862D01*
X40670833Y-33348089D01*
X40678392Y-33270254D01*
X40702989Y-33178893D01*
X40747502Y-33063630D01*
X40753970Y-33048508D01*
X40790015Y-32965988D01*
X40820054Y-32899234D01*
X40840083Y-32857037D01*
X40845788Y-32846989D01*
X40869461Y-32847370D01*
X40915881Y-32859775D01*
X40922697Y-32862093D01*
X40969624Y-32885457D01*
X40979957Y-32912741D01*
X40977808Y-32920064D01*
X40959617Y-32973190D01*
X40935587Y-33051165D01*
X40908409Y-33144265D01*
X40880775Y-33242769D01*
X40855373Y-33336952D01*
X40834897Y-33417093D01*
X40822035Y-33473467D01*
X40819000Y-33493929D01*
X40824776Y-33532055D01*
X40838606Y-33534696D01*
X40855243Y-33506555D01*
X40869437Y-33452338D01*
X40870139Y-33448091D01*
X40882865Y-33387430D01*
X40897342Y-33344152D01*
X40901523Y-33336966D01*
X40920127Y-33302081D01*
X40940194Y-33250644D01*
X40958599Y-33209187D01*
X40990069Y-33150107D01*
X41028346Y-33083813D01*
X41067172Y-33020715D01*
X41100288Y-32971222D01*
X41121436Y-32945745D01*
X41124350Y-32944333D01*
X41146076Y-32951980D01*
X41196903Y-32972287D01*
X41266994Y-33001297D01*
X41287741Y-33010023D01*
X41460604Y-33097640D01*
X41603189Y-33200688D01*
X41710242Y-33315236D01*
X41726085Y-33337904D01*
X41768747Y-33405239D01*
X41788029Y-33446827D01*
X41785734Y-33470947D01*
X41763669Y-33485878D01*
X41758780Y-33487831D01*
X41720929Y-33484928D01*
X41707176Y-33472168D01*
X41689877Y-33462967D01*
X41657157Y-33475071D01*
X41602819Y-33511455D01*
X41564140Y-33540820D01*
X41496267Y-33592089D01*
X41435805Y-33635259D01*
X41413829Y-33649440D01*
X41413829Y-33803129D01*
X41433068Y-33808327D01*
X41466739Y-33831233D01*
X41521818Y-33875085D01*
X41574814Y-33918319D01*
X41610948Y-33937270D01*
X41622439Y-33939166D01*
X41643712Y-33954736D01*
X41644500Y-33960333D01*
X41660792Y-33980660D01*
X41667078Y-33981500D01*
X41698873Y-33993326D01*
X41742643Y-34022131D01*
X41786119Y-34057905D01*
X41817028Y-34090640D01*
X41823865Y-34109392D01*
X41828557Y-34134061D01*
X41837925Y-34142057D01*
X41852770Y-34144908D01*
X41847604Y-34132937D01*
X41844807Y-34111085D01*
X41851841Y-34108500D01*
X41877086Y-34123326D01*
X41916257Y-34160746D01*
X41960407Y-34210168D01*
X42000591Y-34261000D01*
X42027863Y-34302651D01*
X42033776Y-34323899D01*
X42035702Y-34337443D01*
X42041367Y-34336566D01*
X42064937Y-34347567D01*
X42107078Y-34382028D01*
X42150249Y-34423971D01*
X42201680Y-34481696D01*
X42226179Y-34523635D01*
X42229522Y-34560878D01*
X42227416Y-34572138D01*
X42222865Y-34605161D01*
X42232692Y-34600201D01*
X42233261Y-34599362D01*
X42252154Y-34587118D01*
X42275845Y-34610219D01*
X42282600Y-34620528D01*
X42315804Y-34680953D01*
X42353081Y-34760192D01*
X42388648Y-34844474D01*
X42416721Y-34920029D01*
X42431519Y-34973084D01*
X42432009Y-34976333D01*
X42449676Y-35033715D01*
X42475663Y-35081584D01*
X42503493Y-35138518D01*
X42513821Y-35187418D01*
X42522328Y-35247510D01*
X42533355Y-35283250D01*
X42543375Y-35336410D01*
X42544965Y-35422576D01*
X42538741Y-35533394D01*
X42525318Y-35660514D01*
X42505312Y-35795586D01*
X42489070Y-35883691D01*
X42464432Y-36006484D01*
X42446566Y-36093337D01*
X42433997Y-36149834D01*
X42425249Y-36181557D01*
X42418847Y-36194089D01*
X42413315Y-36193013D01*
X42408952Y-36186800D01*
X42400968Y-36192016D01*
X42396039Y-36229779D01*
X42395354Y-36253646D01*
X42379272Y-36349518D01*
X42335973Y-36459798D01*
X42271254Y-36572391D01*
X42195947Y-36669666D01*
X42151325Y-36716747D01*
X42120310Y-36744692D01*
X42110195Y-36747951D01*
X42097901Y-36750263D01*
X42072265Y-36773057D01*
X42072265Y-37185358D01*
X42097644Y-37202891D01*
X42109521Y-37257887D01*
X42110166Y-37280224D01*
X42118321Y-37343032D01*
X42139412Y-37423838D01*
X42161213Y-37485350D01*
X42194269Y-37569305D01*
X42210218Y-37620324D01*
X42208497Y-37644438D01*
X42188540Y-37647679D01*
X42149786Y-37636077D01*
X42147208Y-37635168D01*
X42089344Y-37608329D01*
X42019041Y-37567253D01*
X41983166Y-37543204D01*
X41919646Y-37498161D01*
X41862939Y-37458034D01*
X41840291Y-37442054D01*
X41800069Y-37400909D01*
X41801243Y-37362011D01*
X41844192Y-37323762D01*
X41872041Y-37308824D01*
X41919895Y-37278950D01*
X41944399Y-37250383D01*
X41945259Y-37242560D01*
X41953507Y-37224109D01*
X41971105Y-37227087D01*
X42010390Y-37223665D01*
X42035308Y-37207167D01*
X42072265Y-37185358D01*
X42072265Y-36773057D01*
X42067474Y-36777317D01*
X42058335Y-36786912D01*
X42018635Y-36820173D01*
X41987485Y-36830195D01*
X41983727Y-36828763D01*
X41966531Y-36828460D01*
X41966767Y-36836627D01*
X41952582Y-36856886D01*
X41909751Y-36891004D01*
X41846726Y-36932450D01*
X41829079Y-36943029D01*
X41764222Y-36979711D01*
X41717995Y-37002953D01*
X41698005Y-37009040D01*
X41698295Y-37006911D01*
X41706625Y-36975048D01*
X41713529Y-36917114D01*
X41715841Y-36881250D01*
X41716128Y-36826267D01*
X41711671Y-36798182D01*
X41706687Y-36798790D01*
X41691276Y-36799340D01*
X41671789Y-36757945D01*
X41657897Y-36712000D01*
X41644874Y-36689584D01*
X41615997Y-36646812D01*
X41605859Y-36632449D01*
X41561499Y-36584016D01*
X41526672Y-36576666D01*
X41501310Y-36610462D01*
X41485342Y-36685466D01*
X41480584Y-36743452D01*
X41482012Y-36867423D01*
X41500143Y-36961496D01*
X41533906Y-37021894D01*
X41565032Y-37041733D01*
X41592974Y-37052989D01*
X41588765Y-37065343D01*
X41550034Y-37087381D01*
X41486411Y-37109929D01*
X41422250Y-37120309D01*
X41422250Y-37304666D01*
X41432833Y-37315250D01*
X41422250Y-37325833D01*
X41411666Y-37315250D01*
X41422250Y-37304666D01*
X41422250Y-37120309D01*
X41414258Y-37121602D01*
X41410735Y-37121762D01*
X41362186Y-37126989D01*
X41358750Y-37128423D01*
X41358750Y-37262333D01*
X41369333Y-37272916D01*
X41358750Y-37283500D01*
X41348166Y-37272916D01*
X41358750Y-37262333D01*
X41358750Y-37128423D01*
X41339930Y-37136280D01*
X41340104Y-37139162D01*
X41334193Y-37161525D01*
X41327719Y-37166638D01*
X41319274Y-37151561D01*
X41312965Y-37095389D01*
X41308862Y-36999313D01*
X41307033Y-36864520D01*
X41306944Y-36807987D01*
X41307306Y-36436272D01*
X41362824Y-36446339D01*
X41468214Y-36464430D01*
X41538686Y-36473530D01*
X41580637Y-36473872D01*
X41600467Y-36465687D01*
X41604604Y-36455111D01*
X41597590Y-36364663D01*
X41566693Y-36306226D01*
X41547424Y-36277095D01*
X41562371Y-36256954D01*
X41579243Y-36247273D01*
X41612736Y-36234482D01*
X41623333Y-36238285D01*
X41636291Y-36237436D01*
X41662092Y-36217817D01*
X41694760Y-36194628D01*
X41710473Y-36192362D01*
X41718330Y-36183337D01*
X41720095Y-36162212D01*
X41713074Y-36134142D01*
X41703464Y-36132719D01*
X41687749Y-36127336D01*
X41686833Y-36120582D01*
X41703204Y-36099229D01*
X41710344Y-36098166D01*
X41713339Y-36087294D01*
X41688010Y-36061047D01*
X41686910Y-36060152D01*
X41639964Y-36022137D01*
X41696666Y-35954752D01*
X41728980Y-35908189D01*
X41741562Y-35872812D01*
X41740017Y-35865766D01*
X41740296Y-35845907D01*
X41747320Y-35844166D01*
X41773149Y-35860730D01*
X41778648Y-35870625D01*
X41788309Y-35885344D01*
X41790995Y-35871369D01*
X41775794Y-35842025D01*
X41751121Y-35823421D01*
X41720686Y-35790048D01*
X41721368Y-35764468D01*
X41725946Y-35742114D01*
X41713280Y-35755435D01*
X41675412Y-35773321D01*
X41636553Y-35768853D01*
X41596591Y-35751966D01*
X41590018Y-35723023D01*
X41593440Y-35709418D01*
X41618629Y-35655852D01*
X41636780Y-35630435D01*
X41657202Y-35583615D01*
X41658582Y-35545769D01*
X41642218Y-35507105D01*
X41602329Y-35499379D01*
X41600014Y-35499577D01*
X41532740Y-35508550D01*
X41446936Y-35523550D01*
X41361632Y-35540927D01*
X41295856Y-35557031D01*
X41287598Y-35559501D01*
X41253397Y-35566601D01*
X41244676Y-35550394D01*
X41250872Y-35513877D01*
X41262387Y-35440265D01*
X41273388Y-35332150D01*
X41283436Y-35197361D01*
X41292092Y-35043728D01*
X41298921Y-34879080D01*
X41303482Y-34711247D01*
X41305338Y-34548059D01*
X41305353Y-34540014D01*
X41307872Y-34348415D01*
X41314765Y-34189512D01*
X41325809Y-34065422D01*
X41340785Y-33978263D01*
X41359470Y-33930150D01*
X41369878Y-33921483D01*
X41381604Y-33901434D01*
X41379069Y-33895462D01*
X41378805Y-33863980D01*
X41390728Y-33832905D01*
X41402041Y-33812401D01*
X41413829Y-33803129D01*
X41413829Y-33649440D01*
X41395183Y-33661474D01*
X41393493Y-33662397D01*
X41358075Y-33697316D01*
X41348166Y-33728912D01*
X41341503Y-33770419D01*
X41324149Y-33836401D01*
X41303106Y-33902792D01*
X41290251Y-33943651D01*
X41279774Y-33986900D01*
X41271264Y-34037832D01*
X41264308Y-34101741D01*
X41258495Y-34183921D01*
X41253413Y-34289664D01*
X41248650Y-34424265D01*
X41243793Y-34593017D01*
X41240961Y-34701166D01*
X41235979Y-34870320D01*
X41230045Y-35030364D01*
X41223481Y-35175158D01*
X41216606Y-35298559D01*
X41209742Y-35394427D01*
X41203211Y-35456620D01*
X41200712Y-35470926D01*
X41189682Y-35540390D01*
X41188184Y-35598796D01*
X41191294Y-35617249D01*
X41203758Y-35647192D01*
X41217223Y-35638092D01*
X41226160Y-35622825D01*
X41246656Y-35598852D01*
X41263979Y-35612109D01*
X41281467Y-35625894D01*
X41316272Y-35627924D01*
X41378370Y-35618203D01*
X41407604Y-35612195D01*
X41478347Y-35599091D01*
X41533189Y-35592409D01*
X41556673Y-35593004D01*
X41561115Y-35614888D01*
X41545077Y-35664233D01*
X41527856Y-35701009D01*
X41499224Y-35759573D01*
X41489283Y-35792132D01*
X41497006Y-35810141D01*
X41516973Y-35822717D01*
X41570945Y-35840897D01*
X41599525Y-35844166D01*
X41643710Y-35853563D01*
X41649998Y-35880619D01*
X41618137Y-35923630D01*
X41612097Y-35929446D01*
X41569194Y-35983065D01*
X41565837Y-36032345D01*
X41601623Y-36086949D01*
X41605337Y-36090958D01*
X41629426Y-36119923D01*
X41632643Y-36139612D01*
X41609532Y-36153664D01*
X41554637Y-36165715D01*
X41475407Y-36177597D01*
X41398390Y-36195664D01*
X41355431Y-36221153D01*
X41348875Y-36250332D01*
X41381063Y-36279467D01*
X41404796Y-36290078D01*
X41463061Y-36319253D01*
X41503607Y-36348166D01*
X41529520Y-36375148D01*
X41520245Y-36388198D01*
X41493062Y-36395849D01*
X41435992Y-36395406D01*
X41401083Y-36382735D01*
X41350046Y-36360862D01*
X41287497Y-36344199D01*
X41240211Y-36337531D01*
X41224689Y-36347385D01*
X41231211Y-36381852D01*
X41233372Y-36389245D01*
X41238982Y-36428616D01*
X41244084Y-36502363D01*
X41248332Y-36602526D01*
X41251383Y-36721149D01*
X41252832Y-36839000D01*
X41255166Y-37230583D01*
X41386814Y-37363905D01*
X41450636Y-37427170D01*
X41492682Y-37463753D01*
X41520007Y-37477970D01*
X41539669Y-37474135D01*
X41551242Y-37464447D01*
X41585827Y-37436974D01*
X41617002Y-37439481D01*
X41651999Y-37462746D01*
X41669642Y-37479158D01*
X41674874Y-37499121D01*
X41665365Y-37531152D01*
X41638787Y-37583770D01*
X41599997Y-37652864D01*
X41503205Y-37803686D01*
X41399431Y-37923578D01*
X41278333Y-38023806D01*
X41229390Y-38056679D01*
X41159815Y-38097941D01*
X41115098Y-38115295D01*
X41087267Y-38111565D01*
X41083010Y-38108524D01*
X41058225Y-38074002D01*
X41025486Y-38009683D01*
X40989170Y-37926269D01*
X40953655Y-37834460D01*
X40923320Y-37744957D01*
X40910599Y-37698122D01*
X40910599Y-37904155D01*
X40933120Y-37924419D01*
X40970636Y-37983296D01*
X40975882Y-37992583D01*
X41020450Y-38075817D01*
X41043112Y-38129446D01*
X41045071Y-38159337D01*
X41027526Y-38171356D01*
X41012715Y-38172500D01*
X40983206Y-38158668D01*
X40956366Y-38112995D01*
X40938632Y-38064236D01*
X40912792Y-37975145D01*
X40903635Y-37921425D01*
X40910599Y-37904155D01*
X40910599Y-37698122D01*
X40902543Y-37668461D01*
X40902071Y-37666282D01*
X40886306Y-37607928D01*
X40870529Y-37573313D01*
X40862125Y-37568760D01*
X40847029Y-37558192D01*
X40833208Y-37518436D01*
X40832467Y-37514879D01*
X40819614Y-37450612D01*
X40788171Y-37479905D01*
X40788171Y-37569250D01*
X40825097Y-37749166D01*
X40846220Y-37845961D01*
X40868802Y-37939771D01*
X40888598Y-38013134D01*
X40892012Y-38024333D01*
X40915314Y-38107029D01*
X40921110Y-38159123D01*
X40908431Y-38188978D01*
X40876308Y-38204962D01*
X40870930Y-38206388D01*
X40825385Y-38211483D01*
X40802139Y-38205080D01*
X40793787Y-38177090D01*
X40786115Y-38116840D01*
X40779603Y-38034400D01*
X40774733Y-37939844D01*
X40771986Y-37843242D01*
X40771842Y-37754666D01*
X40774781Y-37684190D01*
X40776456Y-37667065D01*
X40788171Y-37569250D01*
X40788171Y-37479905D01*
X40774964Y-37492209D01*
X40756791Y-37512173D01*
X40744420Y-37537332D01*
X40736823Y-37575444D01*
X40732974Y-37634265D01*
X40731846Y-37721552D01*
X40732200Y-37815275D01*
X40733839Y-37926456D01*
X40736962Y-38027845D01*
X40741138Y-38109027D01*
X40745937Y-38159585D01*
X40746556Y-38163214D01*
X40759026Y-38229685D01*
X40646138Y-38243242D01*
X40561135Y-38251393D01*
X40543833Y-38252405D01*
X40543833Y-38278333D01*
X40561255Y-38286077D01*
X40557944Y-38292444D01*
X40532824Y-38294977D01*
X40529722Y-38292444D01*
X40532627Y-38279860D01*
X40543833Y-38278333D01*
X40543833Y-38252405D01*
X40476757Y-38256329D01*
X40446234Y-38256982D01*
X40367108Y-38248014D01*
X40261271Y-38223339D01*
X40139615Y-38186695D01*
X40013033Y-38141819D01*
X39892417Y-38092450D01*
X39788661Y-38042324D01*
X39742008Y-38015333D01*
X39691247Y-37986370D01*
X39656862Y-37972472D01*
X39649825Y-37972896D01*
X39622149Y-37972749D01*
X39566312Y-37951685D01*
X39488900Y-37912967D01*
X39396496Y-37859862D01*
X39305583Y-37802216D01*
X39212295Y-37743534D01*
X39113195Y-37686107D01*
X39025816Y-37639973D01*
X39004178Y-37629683D01*
X38938162Y-37597301D01*
X38890734Y-37569890D01*
X38871905Y-37553252D01*
X38871887Y-37553001D01*
X38888092Y-37528143D01*
X38935987Y-37478664D01*
X39013998Y-37406127D01*
X39067458Y-37358479D01*
X39101023Y-37332913D01*
X39116495Y-37325833D01*
X39146368Y-37313057D01*
X39187442Y-37282131D01*
X39227722Y-37244159D01*
X39255213Y-37210243D01*
X39259773Y-37193207D01*
X39259710Y-37181243D01*
X39270081Y-37185931D01*
X39298275Y-37181512D01*
X39343310Y-37153637D01*
X39370481Y-37130993D01*
X39422292Y-37085894D01*
X39465521Y-37051946D01*
X39478576Y-37043326D01*
X39500141Y-37009084D01*
X39487950Y-36949783D01*
X39441961Y-36865279D01*
X39410899Y-36819926D01*
X39339455Y-36706198D01*
X39277434Y-36581161D01*
X39234197Y-36464054D01*
X39229667Y-36447416D01*
X39215641Y-36400486D01*
X39191106Y-36325849D01*
X39160087Y-36235558D01*
X39139846Y-36178351D01*
X39104179Y-36070048D01*
X39071480Y-35955554D01*
X39046946Y-35853633D01*
X39040228Y-35818518D01*
X39025378Y-35660838D01*
X39027433Y-35474516D01*
X39045355Y-35269251D01*
X39078109Y-35054743D01*
X39124656Y-34840694D01*
X39157659Y-34720260D01*
X39181670Y-34650342D01*
X39216893Y-34561568D01*
X39259880Y-34461221D01*
X39307183Y-34356581D01*
X39355356Y-34254931D01*
X39400950Y-34163552D01*
X39440518Y-34089727D01*
X39470613Y-34040738D01*
X39487379Y-34023833D01*
X39495384Y-34007266D01*
X39492087Y-33986791D01*
X39469404Y-33952759D01*
X39420287Y-33903154D01*
X39352168Y-33843576D01*
X39272482Y-33779625D01*
X39188663Y-33716900D01*
X39108144Y-33661001D01*
X39038359Y-33617529D01*
X38986742Y-33592083D01*
X38963376Y-33588522D01*
X38934781Y-33581368D01*
X38928584Y-33571543D01*
X38903705Y-33549231D01*
X38853236Y-33524479D01*
X38830521Y-33516225D01*
X38758591Y-33486377D01*
X38728843Y-33458607D01*
X38741156Y-33433439D01*
X38795407Y-33411395D01*
X38858131Y-33398127D01*
X38908486Y-33386401D01*
X38920755Y-33373329D01*
X38911480Y-33363625D01*
X38900741Y-33350949D01*
X38927549Y-33352927D01*
X38936376Y-33354749D01*
X38980285Y-33353890D01*
X39054181Y-33341596D01*
X39147886Y-33319803D01*
X39211542Y-33302350D01*
X39314593Y-33274068D01*
X39414130Y-33249494D01*
X39496173Y-33231952D01*
X39533125Y-33225940D01*
X39594560Y-33215705D01*
X39624415Y-33200476D01*
X39633417Y-33173721D01*
X39633666Y-33164712D01*
X39653721Y-33111376D01*
X39709836Y-33056269D01*
X39795936Y-33001716D01*
X39905946Y-32950044D01*
X40033792Y-32903576D01*
X40173398Y-32864638D01*
X40318690Y-32835555D01*
X40463594Y-32818653D01*
X40546434Y-32815336D01*
X40546434Y-32746027D01*
X40392056Y-32752476D01*
X40385083Y-32753405D01*
X40385083Y-32775000D01*
X40395666Y-32785583D01*
X40385083Y-32796166D01*
X40374500Y-32785583D01*
X40385083Y-32775000D01*
X40385083Y-32753405D01*
X40228927Y-32774213D01*
X40077450Y-32812984D01*
X39922963Y-32871998D01*
X39852557Y-32904112D01*
X39721586Y-32975792D01*
X39628241Y-33048289D01*
X39608711Y-33069131D01*
X39542498Y-33131618D01*
X39472450Y-33163282D01*
X39453321Y-33167392D01*
X39398934Y-33179628D01*
X39316109Y-33201188D01*
X39216843Y-33228848D01*
X39129252Y-33254520D01*
X39022635Y-33285746D01*
X38919637Y-33314559D01*
X38833396Y-33337357D01*
X38785148Y-33348874D01*
X38727790Y-33364167D01*
X38694172Y-33379040D01*
X38690119Y-33386194D01*
X38688222Y-33387428D01*
X38688222Y-33459388D01*
X38700805Y-33462294D01*
X38702333Y-33473500D01*
X38694588Y-33490922D01*
X38688222Y-33487611D01*
X38685688Y-33462491D01*
X38688222Y-33459388D01*
X38688222Y-33387428D01*
X38678254Y-33393917D01*
X38637146Y-33393744D01*
X38626765Y-33392677D01*
X38577471Y-33390622D01*
X38557349Y-33404305D01*
X38554166Y-33428850D01*
X38567473Y-33465665D01*
G36*
X42519388Y-35498444D02*
G01*
X42531972Y-35495538D01*
X42533500Y-35484333D01*
X42525755Y-35466910D01*
X42519388Y-35470222D01*
X42516855Y-35495342D01*
X42519388Y-35498444D01*
G37*
X42519388Y-35498444D02*
X42531972Y-35495538D01*
X42533500Y-35484333D01*
X42525755Y-35466910D01*
X42519388Y-35470222D01*
X42516855Y-35495342D01*
X42519388Y-35498444D01*
G36*
X42480583Y-35166833D02*
G01*
X42491166Y-35156250D01*
X42480583Y-35145666D01*
X42470000Y-35156250D01*
X42480583Y-35166833D01*
G37*
X42480583Y-35166833D02*
X42491166Y-35156250D01*
X42480583Y-35145666D01*
X42470000Y-35156250D01*
X42480583Y-35166833D01*
G36*
X42480583Y-35526666D02*
G01*
X42491166Y-35516083D01*
X42480583Y-35505500D01*
X42470000Y-35516083D01*
X42480583Y-35526666D01*
G37*
X42480583Y-35526666D02*
X42491166Y-35516083D01*
X42480583Y-35505500D01*
X42470000Y-35516083D01*
X42480583Y-35526666D01*
G36*
X42395916Y-35018666D02*
G01*
X42406500Y-35008083D01*
X42395916Y-34997500D01*
X42385333Y-35008083D01*
X42395916Y-35018666D01*
G37*
X42395916Y-35018666D02*
X42406500Y-35008083D01*
X42395916Y-34997500D01*
X42385333Y-35008083D01*
X42395916Y-35018666D01*
G36*
X42356090Y-34858817D02*
G01*
X42373170Y-34888610D01*
X42384215Y-34883619D01*
X42385333Y-34871749D01*
X42369960Y-34843046D01*
X42364409Y-34838899D01*
X42352381Y-34842306D01*
X42356090Y-34858817D01*
G37*
X42356090Y-34858817D02*
X42373170Y-34888610D01*
X42384215Y-34883619D01*
X42385333Y-34871749D01*
X42369960Y-34843046D01*
X42364409Y-34838899D01*
X42352381Y-34842306D01*
X42356090Y-34858817D01*
G36*
X42371222Y-35561944D02*
G01*
X42383805Y-35559038D01*
X42385333Y-35547833D01*
X42377588Y-35530410D01*
X42371222Y-35533722D01*
X42368688Y-35558842D01*
X42371222Y-35561944D01*
G37*
X42371222Y-35561944D02*
X42383805Y-35559038D01*
X42385333Y-35547833D01*
X42377588Y-35530410D01*
X42371222Y-35533722D01*
X42368688Y-35558842D01*
X42371222Y-35561944D01*
G36*
X42374750Y-35674833D02*
G01*
X42385333Y-35664250D01*
X42374750Y-35653666D01*
X42364166Y-35664250D01*
X42374750Y-35674833D01*
G37*
X42374750Y-35674833D02*
X42385333Y-35664250D01*
X42374750Y-35653666D01*
X42364166Y-35664250D01*
X42374750Y-35674833D01*
G36*
X42374750Y-36288666D02*
G01*
X42385333Y-36278083D01*
X42374750Y-36267500D01*
X42364166Y-36278083D01*
X42374750Y-36288666D01*
G37*
X42374750Y-36288666D02*
X42385333Y-36278083D01*
X42374750Y-36267500D01*
X42364166Y-36278083D01*
X42374750Y-36288666D01*
G36*
X42353583Y-36373333D02*
G01*
X42364166Y-36362750D01*
X42353583Y-36352166D01*
X42343000Y-36362750D01*
X42353583Y-36373333D01*
G37*
X42353583Y-36373333D02*
X42364166Y-36362750D01*
X42353583Y-36352166D01*
X42343000Y-36362750D01*
X42353583Y-36373333D01*
G36*
X41856416Y-35622217D02*
G01*
X41870881Y-35657759D01*
X41867472Y-35673663D01*
X41869655Y-35687185D01*
X41882719Y-35684482D01*
X41915974Y-35690050D01*
X41962276Y-35717708D01*
X41973777Y-35727032D01*
X42031728Y-35764567D01*
X42100568Y-35779473D01*
X42136625Y-35780640D01*
X42199278Y-35776125D01*
X42233556Y-35764042D01*
X42237166Y-35757235D01*
X42252649Y-35743311D01*
X42270016Y-35746409D01*
X42292282Y-35748566D01*
X42291415Y-35740489D01*
X42295847Y-35713828D01*
X42312154Y-35695249D01*
X42335933Y-35652045D01*
X42340867Y-35590555D01*
X42328583Y-35528947D01*
X42300703Y-35485392D01*
X42292931Y-35480193D01*
X42246520Y-35469227D01*
X42175079Y-35467390D01*
X42133117Y-35470421D01*
X42043400Y-35480626D01*
X41984418Y-35490518D01*
X41944744Y-35503553D01*
X41912949Y-35523189D01*
X41886666Y-35544963D01*
X41851427Y-35582165D01*
X41848294Y-35609642D01*
X41856416Y-35622217D01*
G37*
X41856416Y-35622217D02*
X41870881Y-35657759D01*
X41867472Y-35673663D01*
X41869655Y-35687185D01*
X41882719Y-35684482D01*
X41915974Y-35690050D01*
X41962276Y-35717708D01*
X41973777Y-35727032D01*
X42031728Y-35764567D01*
X42100568Y-35779473D01*
X42136625Y-35780640D01*
X42199278Y-35776125D01*
X42233556Y-35764042D01*
X42237166Y-35757235D01*
X42252649Y-35743311D01*
X42270016Y-35746409D01*
X42292282Y-35748566D01*
X42291415Y-35740489D01*
X42295847Y-35713828D01*
X42312154Y-35695249D01*
X42335933Y-35652045D01*
X42340867Y-35590555D01*
X42328583Y-35528947D01*
X42300703Y-35485392D01*
X42292931Y-35480193D01*
X42246520Y-35469227D01*
X42175079Y-35467390D01*
X42133117Y-35470421D01*
X42043400Y-35480626D01*
X41984418Y-35490518D01*
X41944744Y-35503553D01*
X41912949Y-35523189D01*
X41886666Y-35544963D01*
X41851427Y-35582165D01*
X41848294Y-35609642D01*
X41856416Y-35622217D01*
G36*
X42328888Y-36281611D02*
G01*
X42341472Y-36278705D01*
X42343000Y-36267500D01*
X42335255Y-36250077D01*
X42328888Y-36253388D01*
X42326355Y-36278508D01*
X42328888Y-36281611D01*
G37*
X42328888Y-36281611D02*
X42341472Y-36278705D01*
X42343000Y-36267500D01*
X42335255Y-36250077D01*
X42328888Y-36253388D01*
X42326355Y-36278508D01*
X42328888Y-36281611D01*
G36*
X42328888Y-36429777D02*
G01*
X42341472Y-36426872D01*
X42343000Y-36415666D01*
X42335255Y-36398244D01*
X42328888Y-36401555D01*
X42326355Y-36426675D01*
X42328888Y-36429777D01*
G37*
X42328888Y-36429777D02*
X42341472Y-36426872D01*
X42343000Y-36415666D01*
X42335255Y-36398244D01*
X42328888Y-36401555D01*
X42326355Y-36426675D01*
X42328888Y-36429777D01*
G36*
X42311250Y-34764666D02*
G01*
X42321833Y-34754083D01*
X42311250Y-34743500D01*
X42300666Y-34754083D01*
X42311250Y-34764666D01*
G37*
X42311250Y-34764666D02*
X42321833Y-34754083D01*
X42311250Y-34743500D01*
X42300666Y-34754083D01*
X42311250Y-34764666D01*
G36*
X42311250Y-34870500D02*
G01*
X42321833Y-34859916D01*
X42311250Y-34849333D01*
X42300666Y-34859916D01*
X42311250Y-34870500D01*
G37*
X42311250Y-34870500D02*
X42321833Y-34859916D01*
X42311250Y-34849333D01*
X42300666Y-34859916D01*
X42311250Y-34870500D01*
G36*
X42311250Y-36373333D02*
G01*
X42321833Y-36362750D01*
X42311250Y-36352166D01*
X42300666Y-36362750D01*
X42311250Y-36373333D01*
G37*
X42311250Y-36373333D02*
X42321833Y-36362750D01*
X42311250Y-36352166D01*
X42300666Y-36362750D01*
X42311250Y-36373333D01*
G36*
X42208698Y-36577556D02*
G01*
X42224031Y-36576968D01*
X42261350Y-36565107D01*
X42270243Y-36558978D01*
X42265634Y-36550109D01*
X42250302Y-36550697D01*
X42212983Y-36562559D01*
X42204089Y-36568687D01*
X42208698Y-36577556D01*
G37*
X42208698Y-36577556D02*
X42224031Y-36576968D01*
X42261350Y-36565107D01*
X42270243Y-36558978D01*
X42265634Y-36550109D01*
X42250302Y-36550697D01*
X42212983Y-36562559D01*
X42204089Y-36568687D01*
X42208698Y-36577556D01*
G36*
X42247750Y-34870500D02*
G01*
X42258333Y-34859916D01*
X42247750Y-34849333D01*
X42237166Y-34859916D01*
X42247750Y-34870500D01*
G37*
X42247750Y-34870500D02*
X42258333Y-34859916D01*
X42247750Y-34849333D01*
X42237166Y-34859916D01*
X42247750Y-34870500D01*
G36*
X42245545Y-36431100D02*
G01*
X42255165Y-36424787D01*
X42256662Y-36403319D01*
X42251492Y-36380733D01*
X42243874Y-36390531D01*
X42241350Y-36423612D01*
X42245545Y-36431100D01*
G37*
X42245545Y-36431100D02*
X42255165Y-36424787D01*
X42256662Y-36403319D01*
X42251492Y-36380733D01*
X42243874Y-36390531D01*
X42241350Y-36423612D01*
X42245545Y-36431100D01*
G36*
X42180722Y-34524777D02*
G01*
X42205842Y-34527311D01*
X42208944Y-34524777D01*
X42206038Y-34512194D01*
X42194833Y-34510666D01*
X42177410Y-34518411D01*
X42180722Y-34524777D01*
G37*
X42180722Y-34524777D02*
X42205842Y-34527311D01*
X42208944Y-34524777D01*
X42206038Y-34512194D01*
X42194833Y-34510666D01*
X42177410Y-34518411D01*
X42180722Y-34524777D01*
G36*
X41678253Y-35069171D02*
G01*
X41707594Y-35087963D01*
X41774414Y-35094214D01*
X41875752Y-35087906D01*
X41995283Y-35071266D01*
X42071237Y-35042073D01*
X42135864Y-34987748D01*
X42181605Y-34918859D01*
X42200901Y-34845974D01*
X42193259Y-34794492D01*
X42171793Y-34758534D01*
X42140493Y-34724235D01*
X42110012Y-34700839D01*
X42091004Y-34697591D01*
X42089000Y-34704019D01*
X42070395Y-34718416D01*
X42020208Y-34715828D01*
X41982160Y-34710931D01*
X41976125Y-34713914D01*
X41979618Y-34715527D01*
X41984738Y-34731018D01*
X41962217Y-34753944D01*
X41924122Y-34777066D01*
X41882521Y-34793142D01*
X41849480Y-34794932D01*
X41848080Y-34794445D01*
X41813781Y-34796462D01*
X41804291Y-34805314D01*
X41806909Y-34819163D01*
X41828608Y-34815569D01*
X41845489Y-34814908D01*
X41827515Y-34835430D01*
X41813833Y-34847064D01*
X41738109Y-34911452D01*
X41691565Y-34958345D01*
X41669438Y-34995546D01*
X41666965Y-35030860D01*
X41678253Y-35069171D01*
G37*
X41678253Y-35069171D02*
X41707594Y-35087963D01*
X41774414Y-35094214D01*
X41875752Y-35087906D01*
X41995283Y-35071266D01*
X42071237Y-35042073D01*
X42135864Y-34987748D01*
X42181605Y-34918859D01*
X42200901Y-34845974D01*
X42193259Y-34794492D01*
X42171793Y-34758534D01*
X42140493Y-34724235D01*
X42110012Y-34700839D01*
X42091004Y-34697591D01*
X42089000Y-34704019D01*
X42070395Y-34718416D01*
X42020208Y-34715828D01*
X41982160Y-34710931D01*
X41976125Y-34713914D01*
X41979618Y-34715527D01*
X41984738Y-34731018D01*
X41962217Y-34753944D01*
X41924122Y-34777066D01*
X41882521Y-34793142D01*
X41849480Y-34794932D01*
X41848080Y-34794445D01*
X41813781Y-34796462D01*
X41804291Y-34805314D01*
X41806909Y-34819163D01*
X41828608Y-34815569D01*
X41845489Y-34814908D01*
X41827515Y-34835430D01*
X41813833Y-34847064D01*
X41738109Y-34911452D01*
X41691565Y-34958345D01*
X41669438Y-34995546D01*
X41666965Y-35030860D01*
X41678253Y-35069171D01*
G36*
X42205416Y-35865333D02*
G01*
X42216000Y-35854750D01*
X42205416Y-35844166D01*
X42194833Y-35854750D01*
X42205416Y-35865333D01*
G37*
X42205416Y-35865333D02*
X42216000Y-35854750D01*
X42205416Y-35844166D01*
X42194833Y-35854750D01*
X42205416Y-35865333D01*
G36*
X42159555Y-35815944D02*
G01*
X42184675Y-35818477D01*
X42187777Y-35815944D01*
X42184872Y-35803360D01*
X42173666Y-35801833D01*
X42156244Y-35809577D01*
X42159555Y-35815944D01*
G37*
X42159555Y-35815944D02*
X42184675Y-35818477D01*
X42187777Y-35815944D01*
X42184872Y-35803360D01*
X42173666Y-35801833D01*
X42156244Y-35809577D01*
X42159555Y-35815944D01*
G36*
X42184250Y-36627333D02*
G01*
X42194833Y-36616750D01*
X42184250Y-36606166D01*
X42173666Y-36616750D01*
X42184250Y-36627333D01*
G37*
X42184250Y-36627333D02*
X42194833Y-36616750D01*
X42184250Y-36606166D01*
X42173666Y-36616750D01*
X42184250Y-36627333D01*
G36*
X42163083Y-34595333D02*
G01*
X42173666Y-34584750D01*
X42163083Y-34574166D01*
X42152500Y-34584750D01*
X42163083Y-34595333D01*
G37*
X42163083Y-34595333D02*
X42173666Y-34584750D01*
X42163083Y-34574166D01*
X42152500Y-34584750D01*
X42163083Y-34595333D01*
G36*
X42163083Y-34680000D02*
G01*
X42173666Y-34669416D01*
X42163083Y-34658833D01*
X42152500Y-34669416D01*
X42163083Y-34680000D01*
G37*
X42163083Y-34680000D02*
X42173666Y-34669416D01*
X42163083Y-34658833D01*
X42152500Y-34669416D01*
X42163083Y-34680000D01*
G36*
X41767917Y-36293475D02*
G01*
X41781850Y-36309639D01*
X41801914Y-36340886D01*
X41799746Y-36357835D01*
X41799359Y-36370280D01*
X41807323Y-36366773D01*
X41833717Y-36372342D01*
X41874047Y-36402136D01*
X41888385Y-36416155D01*
X41947160Y-36461338D01*
X42013151Y-36490460D01*
X42022311Y-36492533D01*
X42078785Y-36496982D01*
X42116244Y-36479060D01*
X42135020Y-36458702D01*
X42164821Y-36396820D01*
X42173015Y-36323116D01*
X42159606Y-36255064D01*
X42134958Y-36217863D01*
X42091718Y-36195407D01*
X42020162Y-36184506D01*
X41960133Y-36182833D01*
X41882401Y-36180647D01*
X41835432Y-36172071D01*
X41807792Y-36154076D01*
X41797041Y-36139639D01*
X41781427Y-36096405D01*
X41784471Y-36070847D01*
X41790083Y-36055841D01*
X41771268Y-36070811D01*
X41754679Y-36097401D01*
X41770865Y-36129281D01*
X41773455Y-36132461D01*
X41791450Y-36162734D01*
X41777140Y-36177337D01*
X41776791Y-36177456D01*
X41755033Y-36203662D01*
X41752314Y-36248578D01*
X41767917Y-36293475D01*
G37*
X41767917Y-36293475D02*
X41781850Y-36309639D01*
X41801914Y-36340886D01*
X41799746Y-36357835D01*
X41799359Y-36370280D01*
X41807323Y-36366773D01*
X41833717Y-36372342D01*
X41874047Y-36402136D01*
X41888385Y-36416155D01*
X41947160Y-36461338D01*
X42013151Y-36490460D01*
X42022311Y-36492533D01*
X42078785Y-36496982D01*
X42116244Y-36479060D01*
X42135020Y-36458702D01*
X42164821Y-36396820D01*
X42173015Y-36323116D01*
X42159606Y-36255064D01*
X42134958Y-36217863D01*
X42091718Y-36195407D01*
X42020162Y-36184506D01*
X41960133Y-36182833D01*
X41882401Y-36180647D01*
X41835432Y-36172071D01*
X41807792Y-36154076D01*
X41797041Y-36139639D01*
X41781427Y-36096405D01*
X41784471Y-36070847D01*
X41790083Y-36055841D01*
X41771268Y-36070811D01*
X41754679Y-36097401D01*
X41770865Y-36129281D01*
X41773455Y-36132461D01*
X41791450Y-36162734D01*
X41777140Y-36177337D01*
X41776791Y-36177456D01*
X41755033Y-36203662D01*
X41752314Y-36248578D01*
X41767917Y-36293475D01*
G36*
X42163083Y-36563833D02*
G01*
X42173666Y-36553250D01*
X42163083Y-36542666D01*
X42152500Y-36553250D01*
X42163083Y-36563833D01*
G37*
X42163083Y-36563833D02*
X42173666Y-36553250D01*
X42163083Y-36542666D01*
X42152500Y-36553250D01*
X42163083Y-36563833D01*
G36*
X42141916Y-36648500D02*
G01*
X42152500Y-36637916D01*
X42141916Y-36627333D01*
X42131333Y-36637916D01*
X42141916Y-36648500D01*
G37*
X42141916Y-36648500D02*
X42152500Y-36637916D01*
X42141916Y-36627333D01*
X42131333Y-36637916D01*
X42141916Y-36648500D01*
G36*
X42120750Y-35420833D02*
G01*
X42131333Y-35410250D01*
X42120750Y-35399666D01*
X42110166Y-35410250D01*
X42120750Y-35420833D01*
G37*
X42120750Y-35420833D02*
X42131333Y-35410250D01*
X42120750Y-35399666D01*
X42110166Y-35410250D01*
X42120750Y-35420833D01*
G36*
X42096055Y-36112277D02*
G01*
X42121175Y-36114811D01*
X42124277Y-36112277D01*
X42121372Y-36099694D01*
X42110166Y-36098166D01*
X42092744Y-36105911D01*
X42096055Y-36112277D01*
G37*
X42096055Y-36112277D02*
X42121175Y-36114811D01*
X42124277Y-36112277D01*
X42121372Y-36099694D01*
X42110166Y-36098166D01*
X42092744Y-36105911D01*
X42096055Y-36112277D01*
G36*
X42078416Y-35823000D02*
G01*
X42097437Y-35843192D01*
X42100832Y-35844166D01*
X42109923Y-35827790D01*
X42110166Y-35823000D01*
X42093894Y-35802646D01*
X42087750Y-35801833D01*
X42075109Y-35814800D01*
X42078416Y-35823000D01*
G37*
X42078416Y-35823000D02*
X42097437Y-35843192D01*
X42100832Y-35844166D01*
X42109923Y-35827790D01*
X42110166Y-35823000D01*
X42093894Y-35802646D01*
X42087750Y-35801833D01*
X42075109Y-35814800D01*
X42078416Y-35823000D01*
G36*
X42053722Y-35096277D02*
G01*
X42078842Y-35098811D01*
X42081944Y-35096277D01*
X42079038Y-35083694D01*
X42067833Y-35082166D01*
X42050410Y-35089911D01*
X42053722Y-35096277D01*
G37*
X42053722Y-35096277D02*
X42078842Y-35098811D01*
X42081944Y-35096277D01*
X42079038Y-35083694D01*
X42067833Y-35082166D01*
X42050410Y-35089911D01*
X42053722Y-35096277D01*
G36*
X42057250Y-34404833D02*
G01*
X42067833Y-34394250D01*
X42057250Y-34383666D01*
X42046666Y-34394250D01*
X42057250Y-34404833D01*
G37*
X42057250Y-34404833D02*
X42067833Y-34394250D01*
X42057250Y-34383666D01*
X42046666Y-34394250D01*
X42057250Y-34404833D01*
G36*
X42003060Y-36762641D02*
G01*
X42025802Y-36766428D01*
X42062356Y-36763846D01*
X42060310Y-36753115D01*
X42044822Y-36742610D01*
X42011102Y-36741561D01*
X42002791Y-36747408D01*
X42003060Y-36762641D01*
G37*
X42003060Y-36762641D02*
X42025802Y-36766428D01*
X42062356Y-36763846D01*
X42060310Y-36753115D01*
X42044822Y-36742610D01*
X42011102Y-36741561D01*
X42002791Y-36747408D01*
X42003060Y-36762641D01*
G36*
X42036083Y-35166833D02*
G01*
X42046666Y-35156250D01*
X42036083Y-35145666D01*
X42025500Y-35156250D01*
X42036083Y-35166833D01*
G37*
X42036083Y-35166833D02*
X42046666Y-35156250D01*
X42036083Y-35145666D01*
X42025500Y-35156250D01*
X42036083Y-35166833D01*
G36*
X42036083Y-35865333D02*
G01*
X42046666Y-35854750D01*
X42036083Y-35844166D01*
X42025500Y-35854750D01*
X42036083Y-35865333D01*
G37*
X42036083Y-35865333D02*
X42046666Y-35854750D01*
X42036083Y-35844166D01*
X42025500Y-35854750D01*
X42036083Y-35865333D01*
G36*
X41969055Y-35434944D02*
G01*
X41994175Y-35437477D01*
X41997277Y-35434944D01*
X41994372Y-35422360D01*
X41983166Y-35420833D01*
X41965744Y-35428577D01*
X41969055Y-35434944D01*
G37*
X41969055Y-35434944D02*
X41994175Y-35437477D01*
X41997277Y-35434944D01*
X41994372Y-35422360D01*
X41983166Y-35420833D01*
X41965744Y-35428577D01*
X41969055Y-35434944D01*
G36*
X41969055Y-36154611D02*
G01*
X41994175Y-36157144D01*
X41997277Y-36154611D01*
X41994372Y-36142027D01*
X41983166Y-36140500D01*
X41965744Y-36148244D01*
X41969055Y-36154611D01*
G37*
X41969055Y-36154611D02*
X41994175Y-36157144D01*
X41997277Y-36154611D01*
X41994372Y-36142027D01*
X41983166Y-36140500D01*
X41965744Y-36148244D01*
X41969055Y-36154611D01*
G36*
X41972583Y-34510666D02*
G01*
X41983166Y-34500083D01*
X41972583Y-34489500D01*
X41962000Y-34500083D01*
X41972583Y-34510666D01*
G37*
X41972583Y-34510666D02*
X41983166Y-34500083D01*
X41972583Y-34489500D01*
X41962000Y-34500083D01*
X41972583Y-34510666D01*
G36*
X41972583Y-35378500D02*
G01*
X41983166Y-35367916D01*
X41972583Y-35357333D01*
X41962000Y-35367916D01*
X41972583Y-35378500D01*
G37*
X41972583Y-35378500D02*
X41983166Y-35367916D01*
X41972583Y-35357333D01*
X41962000Y-35367916D01*
X41972583Y-35378500D01*
G36*
X41972583Y-35844166D02*
G01*
X41983166Y-35833583D01*
X41972583Y-35823000D01*
X41962000Y-35833583D01*
X41972583Y-35844166D01*
G37*
X41972583Y-35844166D02*
X41983166Y-35833583D01*
X41972583Y-35823000D01*
X41962000Y-35833583D01*
X41972583Y-35844166D01*
G36*
X41972583Y-36521500D02*
G01*
X41983166Y-36510916D01*
X41972583Y-36500333D01*
X41962000Y-36510916D01*
X41972583Y-36521500D01*
G37*
X41972583Y-36521500D02*
X41983166Y-36510916D01*
X41972583Y-36500333D01*
X41962000Y-36510916D01*
X41972583Y-36521500D01*
G36*
X41947888Y-34291944D02*
G01*
X41960472Y-34289038D01*
X41962000Y-34277833D01*
X41954255Y-34260410D01*
X41947888Y-34263722D01*
X41945355Y-34288842D01*
X41947888Y-34291944D01*
G37*
X41947888Y-34291944D02*
X41960472Y-34289038D01*
X41962000Y-34277833D01*
X41954255Y-34260410D01*
X41947888Y-34263722D01*
X41945355Y-34288842D01*
X41947888Y-34291944D01*
G36*
X41951416Y-36055833D02*
G01*
X41962000Y-36045250D01*
X41951416Y-36034666D01*
X41940833Y-36045250D01*
X41951416Y-36055833D01*
G37*
X41951416Y-36055833D02*
X41962000Y-36045250D01*
X41951416Y-36034666D01*
X41940833Y-36045250D01*
X41951416Y-36055833D01*
G36*
X41930250Y-34722333D02*
G01*
X41940833Y-34711750D01*
X41930250Y-34701166D01*
X41919666Y-34711750D01*
X41930250Y-34722333D01*
G37*
X41930250Y-34722333D02*
X41940833Y-34711750D01*
X41930250Y-34701166D01*
X41919666Y-34711750D01*
X41930250Y-34722333D01*
G36*
X41905555Y-36112277D02*
G01*
X41930675Y-36114811D01*
X41933777Y-36112277D01*
X41930872Y-36099694D01*
X41919666Y-36098166D01*
X41902244Y-36105911D01*
X41905555Y-36112277D01*
G37*
X41905555Y-36112277D02*
X41930675Y-36114811D01*
X41933777Y-36112277D01*
X41930872Y-36099694D01*
X41919666Y-36098166D01*
X41902244Y-36105911D01*
X41905555Y-36112277D01*
G36*
X41905555Y-34482444D02*
G01*
X41918139Y-34479538D01*
X41919666Y-34468333D01*
X41911922Y-34450910D01*
X41905555Y-34454222D01*
X41903022Y-34479342D01*
X41905555Y-34482444D01*
G37*
X41905555Y-34482444D02*
X41918139Y-34479538D01*
X41919666Y-34468333D01*
X41911922Y-34450910D01*
X41905555Y-34454222D01*
X41903022Y-34479342D01*
X41905555Y-34482444D01*
G36*
X41887916Y-34764666D02*
G01*
X41898500Y-34754083D01*
X41887916Y-34743500D01*
X41877333Y-34754083D01*
X41887916Y-34764666D01*
G37*
X41887916Y-34764666D02*
X41898500Y-34754083D01*
X41887916Y-34743500D01*
X41877333Y-34754083D01*
X41887916Y-34764666D01*
G36*
X41887916Y-36077000D02*
G01*
X41898500Y-36066416D01*
X41887916Y-36055833D01*
X41877333Y-36066416D01*
X41887916Y-36077000D01*
G37*
X41887916Y-36077000D02*
X41898500Y-36066416D01*
X41887916Y-36055833D01*
X41877333Y-36066416D01*
X41887916Y-36077000D01*
G36*
X41445913Y-34571274D02*
G01*
X41457886Y-34591465D01*
X41476573Y-34612228D01*
X41501378Y-34620263D01*
X41544041Y-34616347D01*
X41613925Y-34601791D01*
X41735356Y-34562131D01*
X41818792Y-34505477D01*
X41865515Y-34430622D01*
X41877333Y-34354310D01*
X41871476Y-34285288D01*
X41850599Y-34243281D01*
X41832904Y-34227948D01*
X41771910Y-34209933D01*
X41697831Y-34230492D01*
X41613104Y-34288809D01*
X41590869Y-34308885D01*
X41546294Y-34346871D01*
X41514847Y-34366223D01*
X41507295Y-34366406D01*
X41497775Y-34373081D01*
X41496333Y-34387470D01*
X41487295Y-34427508D01*
X41465321Y-34481593D01*
X41463178Y-34485956D01*
X41442870Y-34536514D01*
X41445913Y-34571274D01*
G37*
X41445913Y-34571274D02*
X41457886Y-34591465D01*
X41476573Y-34612228D01*
X41501378Y-34620263D01*
X41544041Y-34616347D01*
X41613925Y-34601791D01*
X41735356Y-34562131D01*
X41818792Y-34505477D01*
X41865515Y-34430622D01*
X41877333Y-34354310D01*
X41871476Y-34285288D01*
X41850599Y-34243281D01*
X41832904Y-34227948D01*
X41771910Y-34209933D01*
X41697831Y-34230492D01*
X41613104Y-34288809D01*
X41590869Y-34308885D01*
X41546294Y-34346871D01*
X41514847Y-34366223D01*
X41507295Y-34366406D01*
X41497775Y-34373081D01*
X41496333Y-34387470D01*
X41487295Y-34427508D01*
X41465321Y-34481593D01*
X41463178Y-34485956D01*
X41442870Y-34536514D01*
X41445913Y-34571274D01*
G36*
X41866750Y-36161666D02*
G01*
X41877333Y-36151083D01*
X41866750Y-36140500D01*
X41856166Y-36151083D01*
X41866750Y-36161666D01*
G37*
X41866750Y-36161666D02*
X41877333Y-36151083D01*
X41866750Y-36140500D01*
X41856166Y-36151083D01*
X41866750Y-36161666D01*
G36*
X41866750Y-36458000D02*
G01*
X41877333Y-36447416D01*
X41866750Y-36436833D01*
X41856166Y-36447416D01*
X41866750Y-36458000D01*
G37*
X41866750Y-36458000D02*
X41877333Y-36447416D01*
X41866750Y-36436833D01*
X41856166Y-36447416D01*
X41866750Y-36458000D01*
G36*
X41845583Y-36902500D02*
G01*
X41856166Y-36891916D01*
X41845583Y-36881333D01*
X41835000Y-36891916D01*
X41845583Y-36902500D01*
G37*
X41845583Y-36902500D02*
X41856166Y-36891916D01*
X41845583Y-36881333D01*
X41835000Y-36891916D01*
X41845583Y-36902500D01*
G36*
X41824416Y-35653666D02*
G01*
X41835000Y-35643083D01*
X41824416Y-35632500D01*
X41813833Y-35643083D01*
X41824416Y-35653666D01*
G37*
X41824416Y-35653666D02*
X41835000Y-35643083D01*
X41824416Y-35632500D01*
X41813833Y-35643083D01*
X41824416Y-35653666D01*
G36*
X41799722Y-36408611D02*
G01*
X41824842Y-36411144D01*
X41827944Y-36408611D01*
X41825038Y-36396027D01*
X41813833Y-36394500D01*
X41796410Y-36402244D01*
X41799722Y-36408611D01*
G37*
X41799722Y-36408611D02*
X41824842Y-36411144D01*
X41827944Y-36408611D01*
X41825038Y-36396027D01*
X41813833Y-36394500D01*
X41796410Y-36402244D01*
X41799722Y-36408611D01*
G36*
X41803250Y-34764666D02*
G01*
X41813833Y-34754083D01*
X41803250Y-34743500D01*
X41792666Y-34754083D01*
X41803250Y-34764666D01*
G37*
X41803250Y-34764666D02*
X41813833Y-34754083D01*
X41803250Y-34743500D01*
X41792666Y-34754083D01*
X41803250Y-34764666D01*
G36*
X41803250Y-35590166D02*
G01*
X41813833Y-35579583D01*
X41803250Y-35569000D01*
X41792666Y-35579583D01*
X41803250Y-35590166D01*
G37*
X41803250Y-35590166D02*
X41813833Y-35579583D01*
X41803250Y-35569000D01*
X41792666Y-35579583D01*
X41803250Y-35590166D01*
G36*
X41803250Y-35696000D02*
G01*
X41813833Y-35685416D01*
X41803250Y-35674833D01*
X41792666Y-35685416D01*
X41803250Y-35696000D01*
G37*
X41803250Y-35696000D02*
X41813833Y-35685416D01*
X41803250Y-35674833D01*
X41792666Y-35685416D01*
X41803250Y-35696000D01*
G36*
X41803250Y-36542666D02*
G01*
X41813833Y-36532083D01*
X41803250Y-36521500D01*
X41792666Y-36532083D01*
X41803250Y-36542666D01*
G37*
X41803250Y-36542666D02*
X41813833Y-36532083D01*
X41803250Y-36521500D01*
X41792666Y-36532083D01*
X41803250Y-36542666D01*
G36*
X41778555Y-36937777D02*
G01*
X41803675Y-36940311D01*
X41806777Y-36937777D01*
X41803872Y-36925194D01*
X41792666Y-36923666D01*
X41775244Y-36931411D01*
X41778555Y-36937777D01*
G37*
X41778555Y-36937777D02*
X41803675Y-36940311D01*
X41806777Y-36937777D01*
X41803872Y-36925194D01*
X41792666Y-36923666D01*
X41775244Y-36931411D01*
X41778555Y-36937777D01*
G36*
X41782083Y-34595333D02*
G01*
X41792666Y-34584750D01*
X41782083Y-34574166D01*
X41771500Y-34584750D01*
X41782083Y-34595333D01*
G37*
X41782083Y-34595333D02*
X41792666Y-34584750D01*
X41782083Y-34574166D01*
X41771500Y-34584750D01*
X41782083Y-34595333D01*
G36*
X41746364Y-35138959D02*
G01*
X41779445Y-35141482D01*
X41786934Y-35137288D01*
X41780621Y-35127667D01*
X41759152Y-35126171D01*
X41736567Y-35131340D01*
X41746364Y-35138959D01*
G37*
X41746364Y-35138959D02*
X41779445Y-35141482D01*
X41786934Y-35137288D01*
X41780621Y-35127667D01*
X41759152Y-35126171D01*
X41736567Y-35131340D01*
X41746364Y-35138959D01*
G36*
X41765698Y-35800971D02*
G01*
X41771500Y-35801833D01*
X41792116Y-35794611D01*
X41792666Y-35792499D01*
X41777834Y-35774427D01*
X41771500Y-35770083D01*
X41751995Y-35771761D01*
X41750333Y-35779417D01*
X41765698Y-35800971D01*
G37*
X41765698Y-35800971D02*
X41771500Y-35801833D01*
X41792116Y-35794611D01*
X41792666Y-35792499D01*
X41777834Y-35774427D01*
X41771500Y-35770083D01*
X41751995Y-35771761D01*
X41750333Y-35779417D01*
X41765698Y-35800971D01*
G36*
X41782083Y-35928833D02*
G01*
X41792666Y-35918250D01*
X41782083Y-35907666D01*
X41771500Y-35918250D01*
X41782083Y-35928833D01*
G37*
X41782083Y-35928833D02*
X41792666Y-35918250D01*
X41782083Y-35907666D01*
X41771500Y-35918250D01*
X41782083Y-35928833D01*
G36*
X41764005Y-36006859D02*
G01*
X41771500Y-36002916D01*
X41791714Y-35982973D01*
X41792666Y-35979251D01*
X41778994Y-35977807D01*
X41771500Y-35981750D01*
X41751285Y-36001693D01*
X41750333Y-36005415D01*
X41764005Y-36006859D01*
G37*
X41764005Y-36006859D02*
X41771500Y-36002916D01*
X41791714Y-35982973D01*
X41792666Y-35979251D01*
X41778994Y-35977807D01*
X41771500Y-35981750D01*
X41751285Y-36001693D01*
X41750333Y-36005415D01*
X41764005Y-36006859D01*
G36*
X41737728Y-36878062D02*
G01*
X41759041Y-36900786D01*
X41771293Y-36896124D01*
X41771500Y-36893165D01*
X41756465Y-36875262D01*
X41747062Y-36868728D01*
X41732578Y-36866233D01*
X41737728Y-36878062D01*
G37*
X41737728Y-36878062D02*
X41759041Y-36900786D01*
X41771293Y-36896124D01*
X41771500Y-36893165D01*
X41756465Y-36875262D01*
X41747062Y-36868728D01*
X41732578Y-36866233D01*
X41737728Y-36878062D01*
G36*
X41739750Y-34870500D02*
G01*
X41750333Y-34859916D01*
X41739750Y-34849333D01*
X41729166Y-34859916D01*
X41739750Y-34870500D01*
G37*
X41739750Y-34870500D02*
X41750333Y-34859916D01*
X41739750Y-34849333D01*
X41729166Y-34859916D01*
X41739750Y-34870500D01*
G36*
X41736222Y-35561944D02*
G01*
X41748805Y-35559038D01*
X41750333Y-35547833D01*
X41742588Y-35530410D01*
X41736222Y-35533722D01*
X41733688Y-35558842D01*
X41736222Y-35561944D01*
G37*
X41736222Y-35561944D02*
X41748805Y-35559038D01*
X41750333Y-35547833D01*
X41742588Y-35530410D01*
X41736222Y-35533722D01*
X41733688Y-35558842D01*
X41736222Y-35561944D01*
G36*
X41739750Y-35971166D02*
G01*
X41750333Y-35960583D01*
X41739750Y-35950000D01*
X41729166Y-35960583D01*
X41739750Y-35971166D01*
G37*
X41739750Y-35971166D02*
X41750333Y-35960583D01*
X41739750Y-35950000D01*
X41729166Y-35960583D01*
X41739750Y-35971166D01*
G36*
X41739750Y-36055833D02*
G01*
X41750333Y-36045250D01*
X41739750Y-36034666D01*
X41729166Y-36045250D01*
X41739750Y-36055833D01*
G37*
X41739750Y-36055833D02*
X41750333Y-36045250D01*
X41739750Y-36034666D01*
X41729166Y-36045250D01*
X41739750Y-36055833D01*
G36*
X41739750Y-36373333D02*
G01*
X41750333Y-36362750D01*
X41739750Y-36352166D01*
X41729166Y-36362750D01*
X41739750Y-36373333D01*
G37*
X41739750Y-36373333D02*
X41750333Y-36362750D01*
X41739750Y-36352166D01*
X41729166Y-36362750D01*
X41739750Y-36373333D01*
G36*
X41718583Y-34616500D02*
G01*
X41729166Y-34605916D01*
X41718583Y-34595333D01*
X41708000Y-34605916D01*
X41718583Y-34616500D01*
G37*
X41718583Y-34616500D02*
X41729166Y-34605916D01*
X41718583Y-34595333D01*
X41708000Y-34605916D01*
X41718583Y-34616500D01*
G36*
X41715055Y-36281611D02*
G01*
X41727639Y-36278705D01*
X41729166Y-36267500D01*
X41721422Y-36250077D01*
X41715055Y-36253388D01*
X41712522Y-36278508D01*
X41715055Y-36281611D01*
G37*
X41715055Y-36281611D02*
X41727639Y-36278705D01*
X41729166Y-36267500D01*
X41721422Y-36250077D01*
X41715055Y-36253388D01*
X41712522Y-36278508D01*
X41715055Y-36281611D01*
G36*
X41697416Y-36013500D02*
G01*
X41708000Y-36002916D01*
X41697416Y-35992333D01*
X41686833Y-36002916D01*
X41697416Y-36013500D01*
G37*
X41697416Y-36013500D02*
X41708000Y-36002916D01*
X41697416Y-35992333D01*
X41686833Y-36002916D01*
X41697416Y-36013500D01*
G36*
X41697416Y-36733166D02*
G01*
X41708000Y-36722583D01*
X41697416Y-36712000D01*
X41686833Y-36722583D01*
X41697416Y-36733166D01*
G37*
X41697416Y-36733166D02*
X41708000Y-36722583D01*
X41697416Y-36712000D01*
X41686833Y-36722583D01*
X41697416Y-36733166D01*
G36*
X41676250Y-34214333D02*
G01*
X41686833Y-34203750D01*
X41676250Y-34193166D01*
X41665666Y-34203750D01*
X41676250Y-34214333D01*
G37*
X41676250Y-34214333D02*
X41686833Y-34203750D01*
X41676250Y-34193166D01*
X41665666Y-34203750D01*
X41676250Y-34214333D01*
G36*
X41676250Y-34870500D02*
G01*
X41686833Y-34859916D01*
X41676250Y-34849333D01*
X41665666Y-34859916D01*
X41676250Y-34870500D01*
G37*
X41676250Y-34870500D02*
X41686833Y-34859916D01*
X41676250Y-34849333D01*
X41665666Y-34859916D01*
X41676250Y-34870500D01*
G36*
X41676250Y-35188000D02*
G01*
X41686833Y-35177416D01*
X41676250Y-35166833D01*
X41665666Y-35177416D01*
X41676250Y-35188000D01*
G37*
X41676250Y-35188000D02*
X41686833Y-35177416D01*
X41676250Y-35166833D01*
X41665666Y-35177416D01*
X41676250Y-35188000D01*
G36*
X41653062Y-35692729D02*
G01*
X41674374Y-35715452D01*
X41686627Y-35710791D01*
X41686833Y-35707832D01*
X41671799Y-35689929D01*
X41662396Y-35683395D01*
X41647911Y-35680900D01*
X41653062Y-35692729D01*
G37*
X41653062Y-35692729D02*
X41674374Y-35715452D01*
X41686627Y-35710791D01*
X41686833Y-35707832D01*
X41671799Y-35689929D01*
X41662396Y-35683395D01*
X41647911Y-35680900D01*
X41653062Y-35692729D01*
G36*
X41658172Y-36366692D02*
G01*
X41665666Y-36362750D01*
X41685880Y-36342806D01*
X41686833Y-36339084D01*
X41673160Y-36337640D01*
X41665666Y-36341583D01*
X41645452Y-36361526D01*
X41644500Y-36365248D01*
X41658172Y-36366692D01*
G37*
X41658172Y-36366692D02*
X41665666Y-36362750D01*
X41685880Y-36342806D01*
X41686833Y-36339084D01*
X41673160Y-36337640D01*
X41665666Y-36341583D01*
X41645452Y-36361526D01*
X41644500Y-36365248D01*
X41658172Y-36366692D01*
G36*
X41655083Y-34680000D02*
G01*
X41665666Y-34669416D01*
X41655083Y-34658833D01*
X41644500Y-34669416D01*
X41655083Y-34680000D01*
G37*
X41655083Y-34680000D02*
X41665666Y-34669416D01*
X41655083Y-34658833D01*
X41644500Y-34669416D01*
X41655083Y-34680000D01*
G36*
X41633916Y-34193166D02*
G01*
X41644500Y-34182583D01*
X41633916Y-34172000D01*
X41623333Y-34182583D01*
X41633916Y-34193166D01*
G37*
X41633916Y-34193166D02*
X41644500Y-34182583D01*
X41633916Y-34172000D01*
X41623333Y-34182583D01*
X41633916Y-34193166D01*
G36*
X41609222Y-35731277D02*
G01*
X41634342Y-35733811D01*
X41637444Y-35731277D01*
X41634538Y-35718694D01*
X41623333Y-35717166D01*
X41605910Y-35724911D01*
X41609222Y-35731277D01*
G37*
X41609222Y-35731277D02*
X41634342Y-35733811D01*
X41637444Y-35731277D01*
X41634538Y-35718694D01*
X41623333Y-35717166D01*
X41605910Y-35724911D01*
X41609222Y-35731277D01*
G36*
X41633916Y-36309833D02*
G01*
X41644500Y-36299250D01*
X41633916Y-36288666D01*
X41623333Y-36299250D01*
X41633916Y-36309833D01*
G37*
X41633916Y-36309833D02*
X41644500Y-36299250D01*
X41633916Y-36288666D01*
X41623333Y-36299250D01*
X41633916Y-36309833D01*
G36*
X41577031Y-35414125D02*
G01*
X41610112Y-35416649D01*
X41617600Y-35412454D01*
X41611287Y-35402834D01*
X41589819Y-35401337D01*
X41567233Y-35406507D01*
X41577031Y-35414125D01*
G37*
X41577031Y-35414125D02*
X41610112Y-35416649D01*
X41617600Y-35412454D01*
X41611287Y-35402834D01*
X41589819Y-35401337D01*
X41567233Y-35406507D01*
X41577031Y-35414125D01*
G36*
X41591583Y-33981500D02*
G01*
X41602166Y-33970916D01*
X41591583Y-33960333D01*
X41581000Y-33970916D01*
X41591583Y-33981500D01*
G37*
X41591583Y-33981500D02*
X41602166Y-33970916D01*
X41591583Y-33960333D01*
X41581000Y-33970916D01*
X41591583Y-33981500D01*
G36*
X41566888Y-34249611D02*
G01*
X41592008Y-34252144D01*
X41595111Y-34249611D01*
X41592205Y-34237027D01*
X41581000Y-34235500D01*
X41563577Y-34243244D01*
X41566888Y-34249611D01*
G37*
X41566888Y-34249611D02*
X41592008Y-34252144D01*
X41595111Y-34249611D01*
X41592205Y-34237027D01*
X41581000Y-34235500D01*
X41563577Y-34243244D01*
X41566888Y-34249611D01*
G36*
X41591583Y-36288666D02*
G01*
X41602166Y-36278083D01*
X41591583Y-36267500D01*
X41581000Y-36278083D01*
X41591583Y-36288666D01*
G37*
X41591583Y-36288666D02*
X41602166Y-36278083D01*
X41591583Y-36267500D01*
X41581000Y-36278083D01*
X41591583Y-36288666D01*
G36*
X41447135Y-33937184D02*
G01*
X41482464Y-33936117D01*
X41496333Y-33936984D01*
X41517411Y-33942156D01*
X41501463Y-33956980D01*
X41496333Y-33960333D01*
X41479391Y-33977105D01*
X41485750Y-33980851D01*
X41521581Y-33970451D01*
X41533975Y-33963680D01*
X41543532Y-33946116D01*
X41514815Y-33925537D01*
X41508273Y-33922469D01*
X41460616Y-33910040D01*
X41442599Y-33919322D01*
X41441507Y-33936773D01*
X41447135Y-33937184D01*
G37*
X41447135Y-33937184D02*
X41482464Y-33936117D01*
X41496333Y-33936984D01*
X41517411Y-33942156D01*
X41501463Y-33956980D01*
X41496333Y-33960333D01*
X41479391Y-33977105D01*
X41485750Y-33980851D01*
X41521581Y-33970451D01*
X41533975Y-33963680D01*
X41543532Y-33946116D01*
X41514815Y-33925537D01*
X41508273Y-33922469D01*
X41460616Y-33910040D01*
X41442599Y-33919322D01*
X41441507Y-33936773D01*
X41447135Y-33937184D01*
G36*
X41549250Y-37071833D02*
G01*
X41559833Y-37061250D01*
X41549250Y-37050666D01*
X41538666Y-37061250D01*
X41549250Y-37071833D01*
G37*
X41549250Y-37071833D02*
X41559833Y-37061250D01*
X41549250Y-37050666D01*
X41538666Y-37061250D01*
X41549250Y-37071833D01*
G36*
X41528083Y-35378500D02*
G01*
X41538666Y-35367916D01*
X41528083Y-35357333D01*
X41517500Y-35367916D01*
X41528083Y-35378500D01*
G37*
X41528083Y-35378500D02*
X41538666Y-35367916D01*
X41528083Y-35357333D01*
X41517500Y-35367916D01*
X41528083Y-35378500D01*
G36*
X41528083Y-36521500D02*
G01*
X41538666Y-36510916D01*
X41528083Y-36500333D01*
X41517500Y-36510916D01*
X41528083Y-36521500D01*
G37*
X41528083Y-36521500D02*
X41538666Y-36510916D01*
X41528083Y-36500333D01*
X41517500Y-36510916D01*
X41528083Y-36521500D01*
G36*
X41441395Y-33851229D02*
G01*
X41461071Y-33873774D01*
X41465832Y-33875666D01*
X41474532Y-33865621D01*
X41455038Y-33844707D01*
X41450729Y-33841895D01*
X41436245Y-33839400D01*
X41441395Y-33851229D01*
G37*
X41441395Y-33851229D02*
X41461071Y-33873774D01*
X41465832Y-33875666D01*
X41474532Y-33865621D01*
X41455038Y-33844707D01*
X41450729Y-33841895D01*
X41436245Y-33839400D01*
X41441395Y-33851229D01*
G36*
X41441395Y-36497062D02*
G01*
X41461071Y-36519607D01*
X41465832Y-36521500D01*
X41474532Y-36511454D01*
X41455038Y-36490540D01*
X41450729Y-36487728D01*
X41436245Y-36485233D01*
X41441395Y-36497062D01*
G37*
X41441395Y-36497062D02*
X41461071Y-36519607D01*
X41465832Y-36521500D01*
X41474532Y-36511454D01*
X41455038Y-36490540D01*
X41450729Y-36487728D01*
X41436245Y-36485233D01*
X41441395Y-36497062D01*
G36*
X41443416Y-37093000D02*
G01*
X41454000Y-37082416D01*
X41443416Y-37071833D01*
X41432833Y-37082416D01*
X41443416Y-37093000D01*
G37*
X41443416Y-37093000D02*
X41454000Y-37082416D01*
X41443416Y-37071833D01*
X41432833Y-37082416D01*
X41443416Y-37093000D01*
G36*
X41422250Y-33896833D02*
G01*
X41432833Y-33886250D01*
X41422250Y-33875666D01*
X41411666Y-33886250D01*
X41422250Y-33896833D01*
G37*
X41422250Y-33896833D02*
X41432833Y-33886250D01*
X41422250Y-33875666D01*
X41411666Y-33886250D01*
X41422250Y-33896833D01*
G36*
X41422250Y-33981500D02*
G01*
X41432833Y-33970916D01*
X41422250Y-33960333D01*
X41411666Y-33970916D01*
X41422250Y-33981500D01*
G37*
X41422250Y-33981500D02*
X41432833Y-33970916D01*
X41422250Y-33960333D01*
X41411666Y-33970916D01*
X41422250Y-33981500D01*
G36*
X41401083Y-37071833D02*
G01*
X41411666Y-37061250D01*
X41401083Y-37050666D01*
X41390500Y-37061250D01*
X41401083Y-37071833D01*
G37*
X41401083Y-37071833D02*
X41411666Y-37061250D01*
X41401083Y-37050666D01*
X41390500Y-37061250D01*
X41401083Y-37071833D01*
G36*
X41401083Y-37114166D02*
G01*
X41411666Y-37103583D01*
X41401083Y-37093000D01*
X41390500Y-37103583D01*
X41401083Y-37114166D01*
G37*
X41401083Y-37114166D02*
X41411666Y-37103583D01*
X41401083Y-37093000D01*
X41390500Y-37103583D01*
X41401083Y-37114166D01*
G36*
X41376388Y-33995611D02*
G01*
X41388972Y-33992705D01*
X41390500Y-33981500D01*
X41382755Y-33964077D01*
X41376388Y-33967388D01*
X41373855Y-33992508D01*
X41376388Y-33995611D01*
G37*
X41376388Y-33995611D02*
X41388972Y-33992705D01*
X41390500Y-33981500D01*
X41382755Y-33964077D01*
X41376388Y-33967388D01*
X41373855Y-33992508D01*
X41376388Y-33995611D01*
G36*
X41358750Y-36521500D02*
G01*
X41369333Y-36510916D01*
X41358750Y-36500333D01*
X41348166Y-36510916D01*
X41358750Y-36521500D01*
G37*
X41358750Y-36521500D02*
X41369333Y-36510916D01*
X41358750Y-36500333D01*
X41348166Y-36510916D01*
X41358750Y-36521500D01*
G36*
X41334055Y-36620277D02*
G01*
X41346639Y-36617372D01*
X41348166Y-36606166D01*
X41340422Y-36588744D01*
X41334055Y-36592055D01*
X41331522Y-36617175D01*
X41334055Y-36620277D01*
G37*
X41334055Y-36620277D02*
X41346639Y-36617372D01*
X41348166Y-36606166D01*
X41340422Y-36588744D01*
X41334055Y-36592055D01*
X41331522Y-36617175D01*
X41334055Y-36620277D01*
G36*
X41337583Y-36712000D02*
G01*
X41348166Y-36701416D01*
X41337583Y-36690833D01*
X41327000Y-36701416D01*
X41337583Y-36712000D01*
G37*
X41337583Y-36712000D02*
X41348166Y-36701416D01*
X41337583Y-36690833D01*
X41327000Y-36701416D01*
X41337583Y-36712000D01*
G36*
X41337583Y-36881333D02*
G01*
X41348166Y-36870750D01*
X41337583Y-36860166D01*
X41327000Y-36870750D01*
X41337583Y-36881333D01*
G37*
X41337583Y-36881333D02*
X41348166Y-36870750D01*
X41337583Y-36860166D01*
X41327000Y-36870750D01*
X41337583Y-36881333D01*
G36*
X40381090Y-35724850D02*
G01*
X40390915Y-35764875D01*
X40395783Y-35770155D01*
X40420846Y-35764183D01*
X40466546Y-35737754D01*
X40522080Y-35698763D01*
X40576648Y-35655102D01*
X40619448Y-35614665D01*
X40634843Y-35595458D01*
X40670559Y-35571419D01*
X40718691Y-35576754D01*
X40769207Y-35604945D01*
X40812076Y-35649472D01*
X40837267Y-35703817D01*
X40840166Y-35728880D01*
X40820315Y-35825668D01*
X40766019Y-35910085D01*
X40689774Y-35967399D01*
X40640814Y-35995058D01*
X40628491Y-36012841D01*
X40640369Y-36021647D01*
X40687440Y-36033972D01*
X40706524Y-36026275D01*
X40702583Y-36013500D01*
X40704261Y-35993995D01*
X40711917Y-35992333D01*
X40756208Y-35988234D01*
X40789286Y-35968074D01*
X40799838Y-35958769D01*
X40838743Y-35902082D01*
X40866314Y-35821904D01*
X40877513Y-35736606D01*
X40873926Y-35688686D01*
X40841350Y-35611650D01*
X40796371Y-35560434D01*
X40756700Y-35524738D01*
X40746327Y-35501963D01*
X40761630Y-35478411D01*
X40771918Y-35467915D01*
X40842633Y-35377148D01*
X40880083Y-35283497D01*
X40883172Y-35193983D01*
X40850805Y-35115629D01*
X40830545Y-35091787D01*
X40778166Y-35051137D01*
X40726329Y-35043101D01*
X40660545Y-35066112D01*
X40648615Y-35072126D01*
X40599217Y-35103737D01*
X40590258Y-35125187D01*
X40620731Y-35134929D01*
X40687412Y-35131681D01*
X40756884Y-35127705D01*
X40798483Y-35137989D01*
X40817058Y-35153910D01*
X40843503Y-35216003D01*
X40836256Y-35288654D01*
X40798693Y-35361965D01*
X40734187Y-35426042D01*
X40721195Y-35435036D01*
X40681792Y-35458077D01*
X40661086Y-35456400D01*
X40646010Y-35434715D01*
X40618926Y-35404356D01*
X40573291Y-35367783D01*
X40565000Y-35362239D01*
X40565000Y-35420833D01*
X40585551Y-35436940D01*
X40586166Y-35442000D01*
X40570059Y-35462551D01*
X40565000Y-35463166D01*
X40544448Y-35447059D01*
X40543833Y-35442000D01*
X40559940Y-35421448D01*
X40565000Y-35420833D01*
X40565000Y-35362239D01*
X40521244Y-35332977D01*
X40474923Y-35307919D01*
X40446468Y-35300590D01*
X40444031Y-35301912D01*
X40424667Y-35339455D01*
X40407350Y-35404765D01*
X40393206Y-35486901D01*
X40383363Y-35574921D01*
X40378949Y-35657885D01*
X40381090Y-35724850D01*
G37*
X40381090Y-35724850D02*
X40390915Y-35764875D01*
X40395783Y-35770155D01*
X40420846Y-35764183D01*
X40466546Y-35737754D01*
X40522080Y-35698763D01*
X40576648Y-35655102D01*
X40619448Y-35614665D01*
X40634843Y-35595458D01*
X40670559Y-35571419D01*
X40718691Y-35576754D01*
X40769207Y-35604945D01*
X40812076Y-35649472D01*
X40837267Y-35703817D01*
X40840166Y-35728880D01*
X40820315Y-35825668D01*
X40766019Y-35910085D01*
X40689774Y-35967399D01*
X40640814Y-35995058D01*
X40628491Y-36012841D01*
X40640369Y-36021647D01*
X40687440Y-36033972D01*
X40706524Y-36026275D01*
X40702583Y-36013500D01*
X40704261Y-35993995D01*
X40711917Y-35992333D01*
X40756208Y-35988234D01*
X40789286Y-35968074D01*
X40799838Y-35958769D01*
X40838743Y-35902082D01*
X40866314Y-35821904D01*
X40877513Y-35736606D01*
X40873926Y-35688686D01*
X40841350Y-35611650D01*
X40796371Y-35560434D01*
X40756700Y-35524738D01*
X40746327Y-35501963D01*
X40761630Y-35478411D01*
X40771918Y-35467915D01*
X40842633Y-35377148D01*
X40880083Y-35283497D01*
X40883172Y-35193983D01*
X40850805Y-35115629D01*
X40830545Y-35091787D01*
X40778166Y-35051137D01*
X40726329Y-35043101D01*
X40660545Y-35066112D01*
X40648615Y-35072126D01*
X40599217Y-35103737D01*
X40590258Y-35125187D01*
X40620731Y-35134929D01*
X40687412Y-35131681D01*
X40756884Y-35127705D01*
X40798483Y-35137989D01*
X40817058Y-35153910D01*
X40843503Y-35216003D01*
X40836256Y-35288654D01*
X40798693Y-35361965D01*
X40734187Y-35426042D01*
X40721195Y-35435036D01*
X40681792Y-35458077D01*
X40661086Y-35456400D01*
X40646010Y-35434715D01*
X40618926Y-35404356D01*
X40573291Y-35367783D01*
X40565000Y-35362239D01*
X40565000Y-35420833D01*
X40585551Y-35436940D01*
X40586166Y-35442000D01*
X40570059Y-35462551D01*
X40565000Y-35463166D01*
X40544448Y-35447059D01*
X40543833Y-35442000D01*
X40559940Y-35421448D01*
X40565000Y-35420833D01*
X40565000Y-35362239D01*
X40521244Y-35332977D01*
X40474923Y-35307919D01*
X40446468Y-35300590D01*
X40444031Y-35301912D01*
X40424667Y-35339455D01*
X40407350Y-35404765D01*
X40393206Y-35486901D01*
X40383363Y-35574921D01*
X40378949Y-35657885D01*
X40381090Y-35724850D01*
G36*
X40002677Y-36788030D02*
G01*
X40034135Y-36878004D01*
X40068723Y-36933314D01*
X40115370Y-36992687D01*
X40164686Y-37045839D01*
X40207284Y-37082482D01*
X40230351Y-37093000D01*
X40247599Y-37080698D01*
X40231922Y-37045098D01*
X40184368Y-36988163D01*
X40161988Y-36965154D01*
X40110341Y-36907731D01*
X40070233Y-36852805D01*
X40056154Y-36826193D01*
X40036443Y-36716909D01*
X40056821Y-36602938D01*
X40115774Y-36487415D01*
X40211787Y-36373478D01*
X40318910Y-36282082D01*
X40340442Y-36248234D01*
X40334001Y-36227524D01*
X40317118Y-36218103D01*
X40287152Y-36231402D01*
X40237997Y-36270907D01*
X40204283Y-36301608D01*
X40100375Y-36418823D01*
X40031145Y-36542331D01*
X39998082Y-36667083D01*
X40002677Y-36788030D01*
G37*
X40002677Y-36788030D02*
X40034135Y-36878004D01*
X40068723Y-36933314D01*
X40115370Y-36992687D01*
X40164686Y-37045839D01*
X40207284Y-37082482D01*
X40230351Y-37093000D01*
X40247599Y-37080698D01*
X40231922Y-37045098D01*
X40184368Y-36988163D01*
X40161988Y-36965154D01*
X40110341Y-36907731D01*
X40070233Y-36852805D01*
X40056154Y-36826193D01*
X40036443Y-36716909D01*
X40056821Y-36602938D01*
X40115774Y-36487415D01*
X40211787Y-36373478D01*
X40318910Y-36282082D01*
X40340442Y-36248234D01*
X40334001Y-36227524D01*
X40317118Y-36218103D01*
X40287152Y-36231402D01*
X40237997Y-36270907D01*
X40204283Y-36301608D01*
X40100375Y-36418823D01*
X40031145Y-36542331D01*
X39998082Y-36667083D01*
X40002677Y-36788030D01*
G36*
X39958921Y-34271598D02*
G01*
X39959707Y-34277614D01*
X39980761Y-34351676D01*
X40022004Y-34437173D01*
X40077146Y-34525742D01*
X40139899Y-34609021D01*
X40203971Y-34678647D01*
X40263073Y-34726258D01*
X40310142Y-34743500D01*
X40331648Y-34733061D01*
X40318401Y-34703539D01*
X40271954Y-34657624D01*
X40250475Y-34640023D01*
X40164915Y-34558027D01*
X40089541Y-34459696D01*
X40032322Y-34357425D01*
X40001221Y-34263611D01*
X39999029Y-34248738D01*
X40008113Y-34141318D01*
X40058913Y-34031448D01*
X40150947Y-33920062D01*
X40184159Y-33888623D01*
X40237702Y-33832199D01*
X40262308Y-33787653D01*
X40262761Y-33773977D01*
X40251353Y-33763457D01*
X40224586Y-33777000D01*
X40178215Y-33817591D01*
X40124423Y-33871265D01*
X40035278Y-33974358D01*
X39980571Y-34069053D01*
X39956414Y-34164938D01*
X39958921Y-34271598D01*
G37*
X39958921Y-34271598D02*
X39959707Y-34277614D01*
X39980761Y-34351676D01*
X40022004Y-34437173D01*
X40077146Y-34525742D01*
X40139899Y-34609021D01*
X40203971Y-34678647D01*
X40263073Y-34726258D01*
X40310142Y-34743500D01*
X40331648Y-34733061D01*
X40318401Y-34703539D01*
X40271954Y-34657624D01*
X40250475Y-34640023D01*
X40164915Y-34558027D01*
X40089541Y-34459696D01*
X40032322Y-34357425D01*
X40001221Y-34263611D01*
X39999029Y-34248738D01*
X40008113Y-34141318D01*
X40058913Y-34031448D01*
X40150947Y-33920062D01*
X40184159Y-33888623D01*
X40237702Y-33832199D01*
X40262308Y-33787653D01*
X40262761Y-33773977D01*
X40251353Y-33763457D01*
X40224586Y-33777000D01*
X40178215Y-33817591D01*
X40124423Y-33871265D01*
X40035278Y-33974358D01*
X39980571Y-34069053D01*
X39956414Y-34164938D01*
X39958921Y-34271598D01*
G36*
X39213464Y-33451143D02*
G01*
X39236430Y-33471714D01*
X39287852Y-33500720D01*
X39356124Y-33532919D01*
X39429639Y-33563071D01*
X39496791Y-33585934D01*
X39530118Y-33594145D01*
X39564780Y-33596455D01*
X39585823Y-33580389D01*
X39602196Y-33536284D01*
X39609493Y-33508421D01*
X39627777Y-33426468D01*
X39631916Y-33376252D01*
X39621797Y-33349569D01*
X39607208Y-33340849D01*
X39571659Y-33341560D01*
X39515854Y-33354661D01*
X39498713Y-33360252D01*
X39423416Y-33379570D01*
X39347852Y-33388989D01*
X39339963Y-33389157D01*
X39266114Y-33397170D01*
X39221869Y-33418529D01*
X39213196Y-33450309D01*
X39213464Y-33451143D01*
G37*
X39213464Y-33451143D02*
X39236430Y-33471714D01*
X39287852Y-33500720D01*
X39356124Y-33532919D01*
X39429639Y-33563071D01*
X39496791Y-33585934D01*
X39530118Y-33594145D01*
X39564780Y-33596455D01*
X39585823Y-33580389D01*
X39602196Y-33536284D01*
X39609493Y-33508421D01*
X39627777Y-33426468D01*
X39631916Y-33376252D01*
X39621797Y-33349569D01*
X39607208Y-33340849D01*
X39571659Y-33341560D01*
X39515854Y-33354661D01*
X39498713Y-33360252D01*
X39423416Y-33379570D01*
X39347852Y-33388989D01*
X39339963Y-33389157D01*
X39266114Y-33397170D01*
X39221869Y-33418529D01*
X39213196Y-33450309D01*
X39213464Y-33451143D01*
G36*
X39251137Y-37534163D02*
G01*
X39281999Y-37546735D01*
X39340219Y-37555850D01*
X39431348Y-37562499D01*
X39517250Y-37566200D01*
X39601916Y-37569250D01*
X39605220Y-37463416D01*
X39605126Y-37393258D01*
X39601120Y-37336048D01*
X39598013Y-37318651D01*
X39588160Y-37293228D01*
X39571299Y-37295962D01*
X39541792Y-37320890D01*
X39515237Y-37343113D01*
X39483986Y-37364166D01*
X39438934Y-37389233D01*
X39370978Y-37423499D01*
X39305583Y-37455407D01*
X39262089Y-37484950D01*
X39242209Y-37515126D01*
X39242083Y-37517144D01*
X39251137Y-37534163D01*
G37*
X39251137Y-37534163D02*
X39281999Y-37546735D01*
X39340219Y-37555850D01*
X39431348Y-37562499D01*
X39517250Y-37566200D01*
X39601916Y-37569250D01*
X39605220Y-37463416D01*
X39605126Y-37393258D01*
X39601120Y-37336048D01*
X39598013Y-37318651D01*
X39588160Y-37293228D01*
X39571299Y-37295962D01*
X39541792Y-37320890D01*
X39515237Y-37343113D01*
X39483986Y-37364166D01*
X39438934Y-37389233D01*
X39370978Y-37423499D01*
X39305583Y-37455407D01*
X39262089Y-37484950D01*
X39242209Y-37515126D01*
X39242083Y-37517144D01*
X39251137Y-37534163D01*
%TD*%
M02*
