%TF.GenerationSoftware,KiCad,Pcbnew,(5.1.6)-1*%
%TF.CreationDate,2020-09-30T01:26:52+08:00*%
%TF.ProjectId,Ogen,4f67656e-2e6b-4696-9361-645f70636258,rev?*%
%TF.SameCoordinates,Original*%
%TF.FileFunction,Paste,Top*%
%TF.FilePolarity,Positive*%
%FSLAX46Y46*%
G04 Gerber Fmt 4.6, Leading zero omitted, Abs format (unit mm)*
G04 Created by KiCad (PCBNEW (5.1.6)-1) date 2020-09-30 01:26:52*
%MOMM*%
%LPD*%
G01*
G04 APERTURE LIST*
%ADD10R,1.060000X0.650000*%
%ADD11R,0.650000X0.400000*%
G04 APERTURE END LIST*
%TO.C,R3*%
G36*
G01*
X43275000Y-14643750D02*
X43275000Y-15156250D01*
G75*
G02*
X43056250Y-15375000I-218750J0D01*
G01*
X42618750Y-15375000D01*
G75*
G02*
X42400000Y-15156250I0J218750D01*
G01*
X42400000Y-14643750D01*
G75*
G02*
X42618750Y-14425000I218750J0D01*
G01*
X43056250Y-14425000D01*
G75*
G02*
X43275000Y-14643750I0J-218750D01*
G01*
G37*
G36*
G01*
X41700000Y-14643750D02*
X41700000Y-15156250D01*
G75*
G02*
X41481250Y-15375000I-218750J0D01*
G01*
X41043750Y-15375000D01*
G75*
G02*
X40825000Y-15156250I0J218750D01*
G01*
X40825000Y-14643750D01*
G75*
G02*
X41043750Y-14425000I218750J0D01*
G01*
X41481250Y-14425000D01*
G75*
G02*
X41700000Y-14643750I0J-218750D01*
G01*
G37*
%TD*%
D10*
%TO.C,U1*%
X31350000Y-12800000D03*
X31350000Y-14700000D03*
X29150000Y-14700000D03*
X29150000Y-13750000D03*
X29150000Y-12800000D03*
%TD*%
D11*
%TO.C,U7*%
X45000000Y-32050000D03*
X45000000Y-30750000D03*
X43100000Y-31400000D03*
X45000000Y-31400000D03*
X43100000Y-30750000D03*
X43100000Y-32050000D03*
%TD*%
%TO.C,U6*%
X45000000Y-29050000D03*
X45000000Y-27750000D03*
X43100000Y-28400000D03*
X45000000Y-28400000D03*
X43100000Y-27750000D03*
X43100000Y-29050000D03*
%TD*%
%TO.C,U5*%
X45000000Y-26050000D03*
X45000000Y-24750000D03*
X43100000Y-25400000D03*
X45000000Y-25400000D03*
X43100000Y-24750000D03*
X43100000Y-26050000D03*
%TD*%
%TO.C,U4*%
X45000000Y-23050000D03*
X45000000Y-21750000D03*
X43100000Y-22400000D03*
X45000000Y-22400000D03*
X43100000Y-21750000D03*
X43100000Y-23050000D03*
%TD*%
%TO.C,U3*%
X45000000Y-20050000D03*
X45000000Y-18750000D03*
X43100000Y-19400000D03*
X45000000Y-19400000D03*
X43100000Y-18750000D03*
X43100000Y-20050000D03*
%TD*%
%TO.C,R2*%
G36*
G01*
X39850000Y-35543750D02*
X39850000Y-36056250D01*
G75*
G02*
X39631250Y-36275000I-218750J0D01*
G01*
X39193750Y-36275000D01*
G75*
G02*
X38975000Y-36056250I0J218750D01*
G01*
X38975000Y-35543750D01*
G75*
G02*
X39193750Y-35325000I218750J0D01*
G01*
X39631250Y-35325000D01*
G75*
G02*
X39850000Y-35543750I0J-218750D01*
G01*
G37*
G36*
G01*
X41425000Y-35543750D02*
X41425000Y-36056250D01*
G75*
G02*
X41206250Y-36275000I-218750J0D01*
G01*
X40768750Y-36275000D01*
G75*
G02*
X40550000Y-36056250I0J218750D01*
G01*
X40550000Y-35543750D01*
G75*
G02*
X40768750Y-35325000I218750J0D01*
G01*
X41206250Y-35325000D01*
G75*
G02*
X41425000Y-35543750I0J-218750D01*
G01*
G37*
%TD*%
%TO.C,R1*%
G36*
G01*
X27625000Y-35756250D02*
X27625000Y-35243750D01*
G75*
G02*
X27843750Y-35025000I218750J0D01*
G01*
X28281250Y-35025000D01*
G75*
G02*
X28500000Y-35243750I0J-218750D01*
G01*
X28500000Y-35756250D01*
G75*
G02*
X28281250Y-35975000I-218750J0D01*
G01*
X27843750Y-35975000D01*
G75*
G02*
X27625000Y-35756250I0J218750D01*
G01*
G37*
G36*
G01*
X29200000Y-35756250D02*
X29200000Y-35243750D01*
G75*
G02*
X29418750Y-35025000I218750J0D01*
G01*
X29856250Y-35025000D01*
G75*
G02*
X30075000Y-35243750I0J-218750D01*
G01*
X30075000Y-35756250D01*
G75*
G02*
X29856250Y-35975000I-218750J0D01*
G01*
X29418750Y-35975000D01*
G75*
G02*
X29200000Y-35756250I0J218750D01*
G01*
G37*
%TD*%
%TO.C,C4*%
G36*
G01*
X43950000Y-13606250D02*
X43950000Y-13093750D01*
G75*
G02*
X44168750Y-12875000I218750J0D01*
G01*
X44606250Y-12875000D01*
G75*
G02*
X44825000Y-13093750I0J-218750D01*
G01*
X44825000Y-13606250D01*
G75*
G02*
X44606250Y-13825000I-218750J0D01*
G01*
X44168750Y-13825000D01*
G75*
G02*
X43950000Y-13606250I0J218750D01*
G01*
G37*
G36*
G01*
X42375000Y-13606250D02*
X42375000Y-13093750D01*
G75*
G02*
X42593750Y-12875000I218750J0D01*
G01*
X43031250Y-12875000D01*
G75*
G02*
X43250000Y-13093750I0J-218750D01*
G01*
X43250000Y-13606250D01*
G75*
G02*
X43031250Y-13825000I-218750J0D01*
G01*
X42593750Y-13825000D01*
G75*
G02*
X42375000Y-13606250I0J218750D01*
G01*
G37*
%TD*%
%TO.C,C3*%
G36*
G01*
X26500000Y-12543750D02*
X26500000Y-13056250D01*
G75*
G02*
X26281250Y-13275000I-218750J0D01*
G01*
X25843750Y-13275000D01*
G75*
G02*
X25625000Y-13056250I0J218750D01*
G01*
X25625000Y-12543750D01*
G75*
G02*
X25843750Y-12325000I218750J0D01*
G01*
X26281250Y-12325000D01*
G75*
G02*
X26500000Y-12543750I0J-218750D01*
G01*
G37*
G36*
G01*
X28075000Y-12543750D02*
X28075000Y-13056250D01*
G75*
G02*
X27856250Y-13275000I-218750J0D01*
G01*
X27418750Y-13275000D01*
G75*
G02*
X27200000Y-13056250I0J218750D01*
G01*
X27200000Y-12543750D01*
G75*
G02*
X27418750Y-12325000I218750J0D01*
G01*
X27856250Y-12325000D01*
G75*
G02*
X28075000Y-12543750I0J-218750D01*
G01*
G37*
%TD*%
%TO.C,C2*%
G36*
G01*
X28356250Y-21200000D02*
X27843750Y-21200000D01*
G75*
G02*
X27625000Y-20981250I0J218750D01*
G01*
X27625000Y-20543750D01*
G75*
G02*
X27843750Y-20325000I218750J0D01*
G01*
X28356250Y-20325000D01*
G75*
G02*
X28575000Y-20543750I0J-218750D01*
G01*
X28575000Y-20981250D01*
G75*
G02*
X28356250Y-21200000I-218750J0D01*
G01*
G37*
G36*
G01*
X28356250Y-22775000D02*
X27843750Y-22775000D01*
G75*
G02*
X27625000Y-22556250I0J218750D01*
G01*
X27625000Y-22118750D01*
G75*
G02*
X27843750Y-21900000I218750J0D01*
G01*
X28356250Y-21900000D01*
G75*
G02*
X28575000Y-22118750I0J-218750D01*
G01*
X28575000Y-22556250D01*
G75*
G02*
X28356250Y-22775000I-218750J0D01*
G01*
G37*
%TD*%
%TO.C,C1*%
G36*
G01*
X27843750Y-24900000D02*
X28356250Y-24900000D01*
G75*
G02*
X28575000Y-25118750I0J-218750D01*
G01*
X28575000Y-25556250D01*
G75*
G02*
X28356250Y-25775000I-218750J0D01*
G01*
X27843750Y-25775000D01*
G75*
G02*
X27625000Y-25556250I0J218750D01*
G01*
X27625000Y-25118750D01*
G75*
G02*
X27843750Y-24900000I218750J0D01*
G01*
G37*
G36*
G01*
X27843750Y-23325000D02*
X28356250Y-23325000D01*
G75*
G02*
X28575000Y-23543750I0J-218750D01*
G01*
X28575000Y-23981250D01*
G75*
G02*
X28356250Y-24200000I-218750J0D01*
G01*
X27843750Y-24200000D01*
G75*
G02*
X27625000Y-23981250I0J218750D01*
G01*
X27625000Y-23543750D01*
G75*
G02*
X27843750Y-23325000I218750J0D01*
G01*
G37*
%TD*%
M02*
