%TF.GenerationSoftware,KiCad,Pcbnew,(5.1.6)-1*%
%TF.CreationDate,2020-10-04T19:05:28+08:00*%
%TF.ProjectId,Ogen,4f67656e-2e6b-4696-9361-645f70636258,rev?*%
%TF.SameCoordinates,Original*%
%TF.FileFunction,Copper,L1,Top*%
%TF.FilePolarity,Positive*%
%FSLAX46Y46*%
G04 Gerber Fmt 4.6, Leading zero omitted, Abs format (unit mm)*
G04 Created by KiCad (PCBNEW (5.1.6)-1) date 2020-10-04 19:05:28*
%MOMM*%
%LPD*%
G01*
G04 APERTURE LIST*
%TA.AperFunction,ComponentPad*%
%ADD10O,1.700000X1.700000*%
%TD*%
%TA.AperFunction,ComponentPad*%
%ADD11R,1.700000X1.700000*%
%TD*%
%TA.AperFunction,SMDPad,CuDef*%
%ADD12R,0.650000X0.400000*%
%TD*%
%TA.AperFunction,ComponentPad*%
%ADD13C,1.400000*%
%TD*%
%TA.AperFunction,ComponentPad*%
%ADD14R,1.400000X1.400000*%
%TD*%
%TA.AperFunction,SMDPad,CuDef*%
%ADD15R,1.060000X0.650000*%
%TD*%
%TA.AperFunction,SMDPad,CuDef*%
%ADD16R,1.500000X1.000000*%
%TD*%
%TA.AperFunction,ViaPad*%
%ADD17C,0.600000*%
%TD*%
%TA.AperFunction,Conductor*%
%ADD18C,0.250000*%
%TD*%
%TA.AperFunction,Conductor*%
%ADD19C,0.400000*%
%TD*%
%TA.AperFunction,Conductor*%
%ADD20C,0.200000*%
%TD*%
G04 APERTURE END LIST*
D10*
%TO.P,J1,8*%
%TO.N,NRESET*%
X44450000Y-21110000D03*
%TO.P,J1,7*%
%TO.N,GND*%
X44450000Y-23650000D03*
%TO.P,J1,6*%
%TO.N,MOT-H*%
X44450000Y-26190000D03*
%TO.P,J1,5*%
%TO.N,SS-H*%
X44450000Y-28730000D03*
%TO.P,J1,4*%
%TO.N,SCLK-H*%
X44450000Y-31270000D03*
%TO.P,J1,3*%
%TO.N,MOSI-H*%
X44450000Y-33810000D03*
%TO.P,J1,2*%
%TO.N,MISO-H*%
X44450000Y-36350000D03*
D11*
%TO.P,J1,1*%
%TO.N,VCC*%
X44450000Y-38890000D03*
%TD*%
%TO.P,R2,2*%
%TO.N,VDD*%
%TA.AperFunction,SMDPad,CuDef*%
G36*
G01*
X30150001Y-17556252D02*
X30150001Y-17043752D01*
G75*
G02*
X30368751Y-16825002I218750J0D01*
G01*
X30806251Y-16825002D01*
G75*
G02*
X31025001Y-17043752I0J-218750D01*
G01*
X31025001Y-17556252D01*
G75*
G02*
X30806251Y-17775002I-218750J0D01*
G01*
X30368751Y-17775002D01*
G75*
G02*
X30150001Y-17556252I0J218750D01*
G01*
G37*
%TD.AperFunction*%
%TO.P,R2,1*%
%TO.N,Net-(JP1-Pad1)*%
%TA.AperFunction,SMDPad,CuDef*%
G36*
G01*
X28575001Y-17556252D02*
X28575001Y-17043752D01*
G75*
G02*
X28793751Y-16825002I218750J0D01*
G01*
X29231251Y-16825002D01*
G75*
G02*
X29450001Y-17043752I0J-218750D01*
G01*
X29450001Y-17556252D01*
G75*
G02*
X29231251Y-17775002I-218750J0D01*
G01*
X28793751Y-17775002D01*
G75*
G02*
X28575001Y-17556252I0J218750D01*
G01*
G37*
%TD.AperFunction*%
%TD*%
D12*
%TO.P,U3,1*%
%TO.N,VCC*%
X25250001Y-32650002D03*
%TO.P,U3,3*%
%TO.N,SS-H*%
X25250001Y-33950002D03*
%TO.P,U3,5*%
%TO.N,VCC*%
X27150001Y-33300002D03*
%TO.P,U3,2*%
%TO.N,GND*%
X25250001Y-33300002D03*
%TO.P,U3,4*%
%TO.N,SS*%
X27150001Y-33950002D03*
%TO.P,U3,6*%
%TO.N,VDD*%
X27150001Y-32650002D03*
%TD*%
D13*
%TO.P,U2,9*%
%TO.N,MOT*%
X29650000Y-22310000D03*
D14*
%TO.P,U2,1*%
%TO.N,Net-(U2-Pad1)*%
X40350000Y-35660000D03*
D13*
%TO.P,U2,10*%
%TO.N,SCLK*%
X29650000Y-24090000D03*
%TO.P,U2,2*%
%TO.N,Net-(U2-Pad2)*%
X40350000Y-33880000D03*
%TO.P,U2,11*%
%TO.N,MOSI*%
X29650000Y-25870000D03*
%TO.P,U2,3*%
%TO.N,Net-(C1-Pad1)*%
X40350000Y-32100000D03*
%TO.P,U2,12*%
%TO.N,MISO*%
X29650000Y-27650000D03*
%TO.P,U2,4*%
%TO.N,VDD*%
X40350000Y-30320000D03*
%TO.P,U2,13*%
%TO.N,SS*%
X29650000Y-29430000D03*
%TO.P,U2,5*%
%TO.N,VDD*%
X40350000Y-28540000D03*
%TO.P,U2,14*%
%TO.N,Net-(U2-Pad14)*%
X29650000Y-31210000D03*
%TO.P,U2,6*%
%TO.N,Net-(U2-Pad6)*%
X40350000Y-26760000D03*
%TO.P,U2,15*%
%TO.N,Net-(R3-Pad2)*%
X29650000Y-32990000D03*
%TO.P,U2,7*%
%TO.N,NRESET*%
X40350000Y-24980000D03*
%TO.P,U2,16*%
%TO.N,Net-(U2-Pad16)*%
X29650000Y-34770000D03*
%TO.P,U2,8*%
%TO.N,GND*%
X40350000Y-23200000D03*
%TD*%
%TO.P,R3,2*%
%TO.N,Net-(R3-Pad2)*%
%TA.AperFunction,SMDPad,CuDef*%
G36*
G01*
X28499997Y-39806252D02*
X28499997Y-39293752D01*
G75*
G02*
X28718747Y-39075002I218750J0D01*
G01*
X29156247Y-39075002D01*
G75*
G02*
X29374997Y-39293752I0J-218750D01*
G01*
X29374997Y-39806252D01*
G75*
G02*
X29156247Y-40025002I-218750J0D01*
G01*
X28718747Y-40025002D01*
G75*
G02*
X28499997Y-39806252I0J218750D01*
G01*
G37*
%TD.AperFunction*%
%TO.P,R3,1*%
%TO.N,VDD*%
%TA.AperFunction,SMDPad,CuDef*%
G36*
G01*
X26924997Y-39806252D02*
X26924997Y-39293752D01*
G75*
G02*
X27143747Y-39075002I218750J0D01*
G01*
X27581247Y-39075002D01*
G75*
G02*
X27799997Y-39293752I0J-218750D01*
G01*
X27799997Y-39806252D01*
G75*
G02*
X27581247Y-40025002I-218750J0D01*
G01*
X27143747Y-40025002D01*
G75*
G02*
X26924997Y-39806252I0J218750D01*
G01*
G37*
%TD.AperFunction*%
%TD*%
D15*
%TO.P,U1,5*%
%TO.N,VDD*%
X39650000Y-42250001D03*
%TO.P,U1,4*%
%TO.N,Net-(U1-Pad4)*%
X39650000Y-40350001D03*
%TO.P,U1,3*%
%TO.N,VCC*%
X41850000Y-40350001D03*
%TO.P,U1,2*%
%TO.N,GND*%
X41850000Y-41300001D03*
%TO.P,U1,1*%
%TO.N,VCC*%
X41850000Y-42250001D03*
%TD*%
D12*
%TO.P,U7,1*%
%TO.N,VCC*%
X25250000Y-20650000D03*
%TO.P,U7,3*%
%TO.N,MOT-H*%
X25250000Y-21950000D03*
%TO.P,U7,5*%
%TO.N,GND*%
X27150000Y-21300000D03*
%TO.P,U7,2*%
X25250000Y-21300000D03*
%TO.P,U7,4*%
%TO.N,MOT*%
X27150000Y-21950000D03*
%TO.P,U7,6*%
%TO.N,VDD*%
X27150000Y-20650000D03*
%TD*%
%TO.P,U6,1*%
%TO.N,VCC*%
X25249999Y-23650000D03*
%TO.P,U6,3*%
%TO.N,SCLK-H*%
X25249999Y-24950000D03*
%TO.P,U6,5*%
%TO.N,VCC*%
X27149999Y-24300000D03*
%TO.P,U6,2*%
%TO.N,GND*%
X25249999Y-24300000D03*
%TO.P,U6,4*%
%TO.N,SCLK*%
X27149999Y-24950000D03*
%TO.P,U6,6*%
%TO.N,VDD*%
X27149999Y-23650000D03*
%TD*%
%TO.P,U5,1*%
%TO.N,VCC*%
X25250000Y-26650000D03*
%TO.P,U5,3*%
%TO.N,MOSI-H*%
X25250000Y-27950000D03*
%TO.P,U5,5*%
%TO.N,VCC*%
X27150000Y-27300000D03*
%TO.P,U5,2*%
%TO.N,GND*%
X25250000Y-27300000D03*
%TO.P,U5,4*%
%TO.N,MOSI*%
X27150000Y-27950000D03*
%TO.P,U5,6*%
%TO.N,VDD*%
X27150000Y-26650000D03*
%TD*%
%TO.P,U4,1*%
%TO.N,VCC*%
X25250001Y-29649999D03*
%TO.P,U4,3*%
%TO.N,MISO-H*%
X25250001Y-30949999D03*
%TO.P,U4,5*%
%TO.N,SS-H*%
X27150001Y-30299999D03*
%TO.P,U4,2*%
%TO.N,GND*%
X25250001Y-30299999D03*
%TO.P,U4,4*%
%TO.N,MISO*%
X27150001Y-30949999D03*
%TO.P,U4,6*%
%TO.N,VDD*%
X27150001Y-29649999D03*
%TD*%
%TO.P,R1,1*%
%TO.N,NRESET*%
%TA.AperFunction,SMDPad,CuDef*%
G36*
G01*
X42374999Y-19243750D02*
X42374999Y-19756250D01*
G75*
G02*
X42156249Y-19975000I-218750J0D01*
G01*
X41718749Y-19975000D01*
G75*
G02*
X41499999Y-19756250I0J218750D01*
G01*
X41499999Y-19243750D01*
G75*
G02*
X41718749Y-19025000I218750J0D01*
G01*
X42156249Y-19025000D01*
G75*
G02*
X42374999Y-19243750I0J-218750D01*
G01*
G37*
%TD.AperFunction*%
%TO.P,R1,2*%
%TO.N,VDD*%
%TA.AperFunction,SMDPad,CuDef*%
G36*
G01*
X40799999Y-19243750D02*
X40799999Y-19756250D01*
G75*
G02*
X40581249Y-19975000I-218750J0D01*
G01*
X40143749Y-19975000D01*
G75*
G02*
X39924999Y-19756250I0J218750D01*
G01*
X39924999Y-19243750D01*
G75*
G02*
X40143749Y-19025000I218750J0D01*
G01*
X40581249Y-19025000D01*
G75*
G02*
X40799999Y-19243750I0J-218750D01*
G01*
G37*
%TD.AperFunction*%
%TD*%
D16*
%TO.P,JP1,1*%
%TO.N,Net-(JP1-Pad1)*%
X27099999Y-17300001D03*
%TO.P,JP1,2*%
%TO.N,MISO*%
X27099999Y-18600001D03*
%TD*%
%TO.P,C4,1*%
%TO.N,VDD*%
%TA.AperFunction,SMDPad,CuDef*%
G36*
G01*
X27775000Y-40843750D02*
X27775000Y-41356250D01*
G75*
G02*
X27556250Y-41575000I-218750J0D01*
G01*
X27118750Y-41575000D01*
G75*
G02*
X26900000Y-41356250I0J218750D01*
G01*
X26900000Y-40843750D01*
G75*
G02*
X27118750Y-40625000I218750J0D01*
G01*
X27556250Y-40625000D01*
G75*
G02*
X27775000Y-40843750I0J-218750D01*
G01*
G37*
%TD.AperFunction*%
%TO.P,C4,2*%
%TO.N,GND*%
%TA.AperFunction,SMDPad,CuDef*%
G36*
G01*
X26200000Y-40843750D02*
X26200000Y-41356250D01*
G75*
G02*
X25981250Y-41575000I-218750J0D01*
G01*
X25543750Y-41575000D01*
G75*
G02*
X25325000Y-41356250I0J218750D01*
G01*
X25325000Y-40843750D01*
G75*
G02*
X25543750Y-40625000I218750J0D01*
G01*
X25981250Y-40625000D01*
G75*
G02*
X26200000Y-40843750I0J-218750D01*
G01*
G37*
%TD.AperFunction*%
%TD*%
%TO.P,C3,1*%
%TO.N,VCC*%
%TA.AperFunction,SMDPad,CuDef*%
G36*
G01*
X42925001Y-42493751D02*
X42925001Y-41981251D01*
G75*
G02*
X43143751Y-41762501I218750J0D01*
G01*
X43581251Y-41762501D01*
G75*
G02*
X43800001Y-41981251I0J-218750D01*
G01*
X43800001Y-42493751D01*
G75*
G02*
X43581251Y-42712501I-218750J0D01*
G01*
X43143751Y-42712501D01*
G75*
G02*
X42925001Y-42493751I0J218750D01*
G01*
G37*
%TD.AperFunction*%
%TO.P,C3,2*%
%TO.N,GND*%
%TA.AperFunction,SMDPad,CuDef*%
G36*
G01*
X44500001Y-42493751D02*
X44500001Y-41981251D01*
G75*
G02*
X44718751Y-41762501I218750J0D01*
G01*
X45156251Y-41762501D01*
G75*
G02*
X45375001Y-41981251I0J-218750D01*
G01*
X45375001Y-42493751D01*
G75*
G02*
X45156251Y-42712501I-218750J0D01*
G01*
X44718751Y-42712501D01*
G75*
G02*
X44500001Y-42493751I0J218750D01*
G01*
G37*
%TD.AperFunction*%
%TD*%
%TO.P,C2,2*%
%TO.N,GND*%
%TA.AperFunction,SMDPad,CuDef*%
G36*
G01*
X41643749Y-33800002D02*
X42156249Y-33800002D01*
G75*
G02*
X42374999Y-34018752I0J-218750D01*
G01*
X42374999Y-34456252D01*
G75*
G02*
X42156249Y-34675002I-218750J0D01*
G01*
X41643749Y-34675002D01*
G75*
G02*
X41424999Y-34456252I0J218750D01*
G01*
X41424999Y-34018752D01*
G75*
G02*
X41643749Y-33800002I218750J0D01*
G01*
G37*
%TD.AperFunction*%
%TO.P,C2,1*%
%TO.N,Net-(C1-Pad1)*%
%TA.AperFunction,SMDPad,CuDef*%
G36*
G01*
X41643749Y-32225002D02*
X42156249Y-32225002D01*
G75*
G02*
X42374999Y-32443752I0J-218750D01*
G01*
X42374999Y-32881252D01*
G75*
G02*
X42156249Y-33100002I-218750J0D01*
G01*
X41643749Y-33100002D01*
G75*
G02*
X41424999Y-32881252I0J218750D01*
G01*
X41424999Y-32443752D01*
G75*
G02*
X41643749Y-32225002I218750J0D01*
G01*
G37*
%TD.AperFunction*%
%TD*%
%TO.P,C1,2*%
%TO.N,GND*%
%TA.AperFunction,SMDPad,CuDef*%
G36*
G01*
X42156249Y-30099999D02*
X41643749Y-30099999D01*
G75*
G02*
X41424999Y-29881249I0J218750D01*
G01*
X41424999Y-29443749D01*
G75*
G02*
X41643749Y-29224999I218750J0D01*
G01*
X42156249Y-29224999D01*
G75*
G02*
X42374999Y-29443749I0J-218750D01*
G01*
X42374999Y-29881249D01*
G75*
G02*
X42156249Y-30099999I-218750J0D01*
G01*
G37*
%TD.AperFunction*%
%TO.P,C1,1*%
%TO.N,Net-(C1-Pad1)*%
%TA.AperFunction,SMDPad,CuDef*%
G36*
G01*
X42156249Y-31674999D02*
X41643749Y-31674999D01*
G75*
G02*
X41424999Y-31456249I0J218750D01*
G01*
X41424999Y-31018749D01*
G75*
G02*
X41643749Y-30799999I218750J0D01*
G01*
X42156249Y-30799999D01*
G75*
G02*
X42374999Y-31018749I0J-218750D01*
G01*
X42374999Y-31456249D01*
G75*
G02*
X42156249Y-31674999I-218750J0D01*
G01*
G37*
%TD.AperFunction*%
%TD*%
D17*
%TO.N,GND*%
X44599999Y-17900000D03*
X26150000Y-27300000D03*
X41650000Y-17149999D03*
X38300002Y-43249998D03*
X41199998Y-43250001D03*
X26099999Y-43250000D03*
X32549999Y-18050001D03*
X30300001Y-43200000D03*
X42650001Y-25600002D03*
X42750003Y-27650001D03*
X43200000Y-32550000D03*
X24900001Y-38400001D03*
X32550001Y-41749998D03*
X39950000Y-41300000D03*
X40699999Y-41300002D03*
X39200000Y-41300002D03*
X38450002Y-41299997D03*
X39100001Y-20600001D03*
X38899998Y-17749996D03*
X42350000Y-21050000D03*
X42200000Y-23500000D03*
X40500000Y-37700002D03*
X27999999Y-21299999D03*
X28000000Y-23150000D03*
X44950000Y-41250000D03*
X44949999Y-43249998D03*
X25200000Y-17950000D03*
X41700001Y-35700003D03*
%TO.N,VCC*%
X25249999Y-26100002D03*
X25249998Y-29099997D03*
X25250000Y-23100000D03*
X25250003Y-32099999D03*
X25249999Y-20099998D03*
X27849999Y-24299997D03*
X27950026Y-33300001D03*
X29050000Y-36450000D03*
X27849999Y-27300000D03*
%TO.N,SS-H*%
X25275001Y-36048416D03*
X27850003Y-28600001D03*
X27099997Y-37150000D03*
X27407843Y-34792158D03*
%TO.N,SCLK-H*%
X25950000Y-24950000D03*
%TO.N,MOSI-H*%
X26946911Y-37996929D03*
%TO.N,MISO-H*%
X26615809Y-38725198D03*
%TO.N,MISO*%
X29595179Y-19604981D03*
%TO.N,VDD*%
X27150003Y-20100003D03*
X27150000Y-23150000D03*
X27150001Y-26100000D03*
X27150001Y-29100000D03*
X27149997Y-32049999D03*
X30587500Y-19587500D03*
X27799998Y-35750003D03*
%TD*%
D18*
%TO.N,Net-(C1-Pad1)*%
X40367498Y-32687500D02*
X40350000Y-32670000D01*
X41900000Y-32662497D02*
X41900000Y-31237500D01*
X40357500Y-32662499D02*
X40350000Y-32670000D01*
X41900000Y-32662497D02*
X40357500Y-32662499D01*
D19*
%TO.N,VCC*%
X25250000Y-26650000D02*
X25249999Y-26100002D01*
X25250000Y-23650003D02*
X25250000Y-23100000D01*
X25249999Y-32649999D02*
X25250003Y-32099999D01*
X25250000Y-29650000D02*
X25249998Y-29099997D01*
X25250002Y-20650000D02*
X25249999Y-20099998D01*
X43362499Y-42237501D02*
X41862500Y-42237498D01*
X27150000Y-24300000D02*
X27849999Y-24299997D01*
X27150000Y-27300000D02*
X27849999Y-27300000D01*
X27150001Y-33300000D02*
X27950026Y-33300001D01*
X41065011Y-38865010D02*
X41850000Y-39650000D01*
X30523958Y-38865009D02*
X41065011Y-38865010D01*
X41850000Y-39650000D02*
X41850000Y-40350000D01*
X29050000Y-36450000D02*
X29050002Y-37391055D01*
X29050002Y-37391055D02*
X30523958Y-38865009D01*
X41862500Y-42237498D02*
X41850000Y-42250000D01*
X41850000Y-40350000D02*
X42850001Y-40350002D01*
X42850001Y-40350002D02*
X43362498Y-40862501D01*
X43362499Y-42237501D02*
X43362498Y-41537500D01*
X43362498Y-40862501D02*
X43362500Y-41212501D01*
X43362500Y-41212501D02*
X43362498Y-41537500D01*
X44100003Y-42000001D02*
X44100001Y-40800002D01*
X44100001Y-40800002D02*
X44449997Y-40450000D01*
X44449997Y-40450000D02*
X44449998Y-38890002D01*
X43862502Y-42237501D02*
X44100003Y-42000001D01*
X43362499Y-42237501D02*
X43862502Y-42237501D01*
D18*
%TO.N,NRESET*%
X42840000Y-19500001D02*
X41937500Y-19500000D01*
X44449999Y-21109999D02*
X42840000Y-19500001D01*
%TO.N,MOT-H*%
X37227546Y-20229982D02*
X38722178Y-18735346D01*
X25930001Y-19969998D02*
X26425000Y-19475001D01*
X25930000Y-21730002D02*
X25930001Y-19969998D01*
X28531476Y-19474999D02*
X29286451Y-20229980D01*
X25710005Y-21950001D02*
X25930000Y-21730002D01*
X25249999Y-21950000D02*
X25710005Y-21950001D01*
X26425000Y-19475001D02*
X28531476Y-19474999D01*
X29286451Y-20229980D02*
X37227546Y-20229982D01*
X41174991Y-19018515D02*
X41174990Y-21532514D01*
X43275000Y-23632525D02*
X43275001Y-25015000D01*
X40856465Y-18699991D02*
X41174991Y-19018515D01*
X43275001Y-25015000D02*
X44450000Y-26190002D01*
X41174990Y-21532514D02*
X43275000Y-23632525D01*
X38757534Y-18699990D02*
X40856465Y-18699991D01*
X37227546Y-20229982D02*
X38757534Y-18699990D01*
%TO.N,SS-H*%
X25250000Y-33950000D02*
X25250001Y-36023416D01*
X25250001Y-36023416D02*
X25275001Y-36048416D01*
X27850002Y-30175002D02*
X27725002Y-30299999D01*
X27725002Y-30299999D02*
X27150001Y-30300001D01*
X27850001Y-28650002D02*
X27850002Y-30175002D01*
X27407843Y-34792158D02*
X27100001Y-35100005D01*
X27100001Y-35100005D02*
X27099997Y-37150000D01*
%TO.N,SCLK-H*%
X25950000Y-24950000D02*
X25250002Y-24950000D01*
%TO.N,MOSI-H*%
X25250001Y-27949999D02*
X26050002Y-27950002D01*
X26350011Y-28250008D02*
X26050002Y-27950002D01*
X26350011Y-37400032D02*
X26946911Y-37996929D01*
X26350012Y-35699989D02*
X26350011Y-37400032D01*
X26350012Y-35699989D02*
X26350011Y-28250008D01*
%TO.N,MISO-H*%
X25900004Y-38009390D02*
X26615809Y-38725198D01*
X25899999Y-31149999D02*
X25700000Y-30950000D01*
X25899999Y-31149999D02*
X25900001Y-36199999D01*
X25700000Y-30950000D02*
X25250000Y-30950000D01*
X25900001Y-36199999D02*
X25900004Y-38009390D01*
%TO.N,Net-(JP1-Pad1)*%
X29012502Y-17300000D02*
X27100002Y-17300000D01*
%TO.N,MISO*%
X28590199Y-18600000D02*
X29595179Y-19604981D01*
X27100001Y-18600001D02*
X28590199Y-18600000D01*
X29650000Y-27649998D02*
X29061411Y-27649998D01*
X27711411Y-30949999D02*
X27150000Y-30950000D01*
X28300009Y-30361401D02*
X27711411Y-30949999D01*
X28724999Y-28574999D02*
X28725000Y-28825000D01*
X28300011Y-29249991D02*
X28300009Y-30361401D01*
X29650000Y-27649998D02*
X28724999Y-28574999D01*
X28725000Y-28825000D02*
X28300011Y-29249991D01*
%TO.N,Net-(R3-Pad2)*%
X29025035Y-33614965D02*
X29650000Y-32990000D01*
X28937500Y-38462502D02*
X28424998Y-37950000D01*
X28937501Y-39550000D02*
X28937500Y-38462502D01*
X28425001Y-34461414D02*
X29025034Y-33861378D01*
X28424998Y-37950000D02*
X28425001Y-34461414D01*
X29025034Y-33861378D02*
X29025035Y-33614965D01*
%TO.N,MOT*%
X27149999Y-21950002D02*
X28050002Y-21949999D01*
X28050002Y-21949999D02*
X28410000Y-22310000D01*
X29650000Y-22310000D02*
X28410000Y-22310000D01*
%TO.N,SCLK*%
X28789999Y-24950000D02*
X27150001Y-24950000D01*
X29650003Y-24090000D02*
X28789999Y-24950000D01*
%TO.N,MOSI*%
X29649999Y-25869999D02*
X29080002Y-25869999D01*
X28624997Y-26895001D02*
X29649999Y-25869999D01*
X28624997Y-27450003D02*
X28624997Y-26895001D01*
X28125005Y-27950000D02*
X28624997Y-27450003D01*
X27150000Y-27950000D02*
X28125005Y-27950000D01*
%TO.N,SS*%
X27150001Y-33950000D02*
X28299998Y-33950001D01*
X28575025Y-33674975D02*
X28299998Y-33950001D01*
X28575023Y-30767976D02*
X28575025Y-33674975D01*
X29650002Y-29430001D02*
X28750020Y-30329980D01*
X28750020Y-30592978D02*
X28575023Y-30767976D01*
X28750020Y-30329980D02*
X28750020Y-30592978D01*
%TO.N,Net-(U2-Pad16)*%
X29612500Y-34412500D02*
X29650000Y-34450002D01*
D19*
%TO.N,VDD*%
X40350001Y-29109999D02*
X40350000Y-30890000D01*
X27150000Y-20650000D02*
X27150003Y-20100003D01*
X27150003Y-23650000D02*
X27150000Y-23150000D01*
X27150000Y-26650000D02*
X27150001Y-26100000D01*
X27150002Y-29649999D02*
X27150001Y-29100000D01*
X41449998Y-28009997D02*
X40350001Y-29109999D01*
X41450001Y-22550001D02*
X41449998Y-28009997D01*
X40400002Y-21499999D02*
X41450001Y-22550001D01*
X40362500Y-19500000D02*
X38700000Y-19500000D01*
X40399999Y-19537498D02*
X40362500Y-19500000D01*
X40400002Y-21499999D02*
X40399999Y-19537498D01*
X38700000Y-19500000D02*
X37445010Y-20754990D01*
X37445010Y-20754990D02*
X29068987Y-20754990D01*
X27412501Y-41075000D02*
X27437500Y-41099997D01*
X27337500Y-39574998D02*
X27362500Y-39550003D01*
X27337500Y-41100000D02*
X27337500Y-39574998D01*
X27150003Y-20100003D02*
X28413997Y-20099999D01*
X29068987Y-20754990D02*
X28413997Y-20099999D01*
X27150000Y-32650000D02*
X27150003Y-32050000D01*
X27150003Y-32050000D02*
X27149997Y-32049999D01*
X30587500Y-17299998D02*
X30587500Y-19587500D01*
X27362500Y-39550003D02*
X27362501Y-38612501D01*
X27799998Y-35750003D02*
X27799999Y-38175001D01*
X27799999Y-38175001D02*
X27362501Y-38612501D01*
X28799999Y-41100000D02*
X27337500Y-41100000D01*
X30434979Y-39465017D02*
X28799999Y-41100000D01*
X39649997Y-42250000D02*
X38313998Y-42250000D01*
X38313998Y-42250000D02*
X37600000Y-41536002D01*
X37600000Y-41536002D02*
X37600000Y-40700000D01*
X37600000Y-40700000D02*
X36365021Y-39465020D01*
X36365021Y-39465020D02*
X30434979Y-39465017D01*
%TD*%
D20*
%TO.N,GND*%
G36*
X45130805Y-16339384D02*
G01*
X45256629Y-16377373D01*
X45372675Y-16439076D01*
X45474532Y-16522148D01*
X45558310Y-16623418D01*
X45620819Y-16739027D01*
X45659686Y-16864586D01*
X45675001Y-17010295D01*
X45675000Y-41747748D01*
X45670661Y-41703691D01*
X45653506Y-41647140D01*
X45625649Y-41595023D01*
X45588160Y-41549342D01*
X45542479Y-41511853D01*
X45490362Y-41483996D01*
X45433811Y-41466841D01*
X45375001Y-41461049D01*
X45162501Y-41462501D01*
X45087501Y-41537501D01*
X45087501Y-42087501D01*
X45107501Y-42087501D01*
X45107501Y-42387501D01*
X45087501Y-42387501D01*
X45087501Y-42937501D01*
X45162501Y-43012501D01*
X45375001Y-43013953D01*
X45433811Y-43008161D01*
X45490362Y-42991006D01*
X45542479Y-42963149D01*
X45588160Y-42925660D01*
X45625649Y-42879979D01*
X45653506Y-42827862D01*
X45670661Y-42771311D01*
X45675000Y-42727254D01*
X45675000Y-42984104D01*
X45660616Y-43130805D01*
X45622627Y-43256629D01*
X45560924Y-43372675D01*
X45477853Y-43474531D01*
X45376586Y-43558307D01*
X45260973Y-43620819D01*
X45135410Y-43659687D01*
X44989716Y-43675000D01*
X25015896Y-43675000D01*
X24869195Y-43660616D01*
X24743371Y-43622627D01*
X24627325Y-43560924D01*
X24525469Y-43477853D01*
X24441693Y-43376586D01*
X24379181Y-43260973D01*
X24340313Y-43135410D01*
X24325000Y-42989716D01*
X24325000Y-41575000D01*
X25023548Y-41575000D01*
X25029340Y-41633810D01*
X25046495Y-41690361D01*
X25074352Y-41742478D01*
X25111841Y-41788159D01*
X25157522Y-41825648D01*
X25209639Y-41853505D01*
X25266190Y-41870660D01*
X25325000Y-41876452D01*
X25537500Y-41875000D01*
X25612500Y-41800000D01*
X25612500Y-41250000D01*
X25912500Y-41250000D01*
X25912500Y-41800000D01*
X25987500Y-41875000D01*
X26200000Y-41876452D01*
X26258810Y-41870660D01*
X26315361Y-41853505D01*
X26367478Y-41825648D01*
X26413159Y-41788159D01*
X26450648Y-41742478D01*
X26478505Y-41690361D01*
X26495660Y-41633810D01*
X26501452Y-41575000D01*
X26500000Y-41325000D01*
X26425000Y-41250000D01*
X25912500Y-41250000D01*
X25612500Y-41250000D01*
X25100000Y-41250000D01*
X25025000Y-41325000D01*
X25023548Y-41575000D01*
X24325000Y-41575000D01*
X24325000Y-40625000D01*
X25023548Y-40625000D01*
X25025000Y-40875000D01*
X25100000Y-40950000D01*
X25612500Y-40950000D01*
X25612500Y-40400000D01*
X25912500Y-40400000D01*
X25912500Y-40950000D01*
X26425000Y-40950000D01*
X26500000Y-40875000D01*
X26501452Y-40625000D01*
X26495660Y-40566190D01*
X26478505Y-40509639D01*
X26450648Y-40457522D01*
X26413159Y-40411841D01*
X26367478Y-40374352D01*
X26315361Y-40346495D01*
X26258810Y-40329340D01*
X26200000Y-40323548D01*
X25987500Y-40325000D01*
X25912500Y-40400000D01*
X25612500Y-40400000D01*
X25537500Y-40325000D01*
X25325000Y-40323548D01*
X25266190Y-40329340D01*
X25209639Y-40346495D01*
X25157522Y-40374352D01*
X25111841Y-40411841D01*
X25074352Y-40457522D01*
X25046495Y-40509639D01*
X25029340Y-40566190D01*
X25023548Y-40625000D01*
X24325000Y-40625000D01*
X24325000Y-30099999D01*
X24623549Y-30099999D01*
X24625001Y-30124999D01*
X24700001Y-30199999D01*
X25100001Y-30199999D01*
X25100001Y-30151450D01*
X25240172Y-30151450D01*
X25250001Y-30152418D01*
X25259829Y-30151450D01*
X25400001Y-30151450D01*
X25400001Y-30199999D01*
X25800001Y-30199999D01*
X25875001Y-30124999D01*
X25876453Y-30099999D01*
X25870661Y-30041189D01*
X25853506Y-29984638D01*
X25848353Y-29974998D01*
X25853505Y-29965359D01*
X25870660Y-29908809D01*
X25876452Y-29849999D01*
X25876452Y-29449999D01*
X25870660Y-29391189D01*
X25853505Y-29334639D01*
X25825648Y-29282522D01*
X25824439Y-29281049D01*
X25826940Y-29275011D01*
X25849998Y-29159092D01*
X25849998Y-29040902D01*
X25826940Y-28924983D01*
X25781711Y-28815790D01*
X25716048Y-28717519D01*
X25632476Y-28633947D01*
X25534205Y-28568284D01*
X25425012Y-28523055D01*
X25309093Y-28499997D01*
X25190903Y-28499997D01*
X25074984Y-28523055D01*
X24965791Y-28568284D01*
X24867520Y-28633947D01*
X24783948Y-28717519D01*
X24718285Y-28815790D01*
X24673056Y-28924983D01*
X24649998Y-29040902D01*
X24649998Y-29159092D01*
X24673056Y-29275011D01*
X24675559Y-29281054D01*
X24674354Y-29282522D01*
X24646497Y-29334639D01*
X24629342Y-29391189D01*
X24623550Y-29449999D01*
X24623550Y-29849999D01*
X24629342Y-29908809D01*
X24646497Y-29965359D01*
X24651649Y-29974998D01*
X24646496Y-29984638D01*
X24629341Y-30041189D01*
X24623549Y-30099999D01*
X24325000Y-30099999D01*
X24325000Y-27100000D01*
X24623548Y-27100000D01*
X24625000Y-27125000D01*
X24700000Y-27200000D01*
X25100000Y-27200000D01*
X25100000Y-27151451D01*
X25240181Y-27151451D01*
X25250000Y-27152418D01*
X25259818Y-27151451D01*
X25400000Y-27151451D01*
X25400000Y-27200000D01*
X25800000Y-27200000D01*
X25875000Y-27125000D01*
X25876452Y-27100000D01*
X25870660Y-27041190D01*
X25853505Y-26984639D01*
X25848352Y-26974999D01*
X25853504Y-26965360D01*
X25870659Y-26908810D01*
X25876451Y-26850000D01*
X25876451Y-26450000D01*
X25870659Y-26391190D01*
X25853504Y-26334640D01*
X25825647Y-26282523D01*
X25824440Y-26281053D01*
X25826941Y-26275016D01*
X25849999Y-26159097D01*
X25849999Y-26040907D01*
X25826941Y-25924988D01*
X25781712Y-25815795D01*
X25716049Y-25717524D01*
X25632477Y-25633952D01*
X25534206Y-25568289D01*
X25425013Y-25523060D01*
X25309094Y-25500002D01*
X25190904Y-25500002D01*
X25074985Y-25523060D01*
X24965792Y-25568289D01*
X24867521Y-25633952D01*
X24783949Y-25717524D01*
X24718286Y-25815795D01*
X24673057Y-25924988D01*
X24649999Y-26040907D01*
X24649999Y-26159097D01*
X24673057Y-26275016D01*
X24675558Y-26281054D01*
X24674353Y-26282523D01*
X24646496Y-26334640D01*
X24629341Y-26391190D01*
X24623549Y-26450000D01*
X24623549Y-26850000D01*
X24629341Y-26908810D01*
X24646496Y-26965360D01*
X24651648Y-26974999D01*
X24646495Y-26984639D01*
X24629340Y-27041190D01*
X24623548Y-27100000D01*
X24325000Y-27100000D01*
X24325000Y-24500000D01*
X24623547Y-24500000D01*
X24629339Y-24558810D01*
X24646494Y-24615361D01*
X24651647Y-24625001D01*
X24646495Y-24634640D01*
X24629340Y-24691190D01*
X24623548Y-24750000D01*
X24623548Y-25150000D01*
X24629340Y-25208810D01*
X24646495Y-25265360D01*
X24674352Y-25317477D01*
X24711841Y-25363158D01*
X24757522Y-25400647D01*
X24809639Y-25428504D01*
X24866189Y-25445659D01*
X24924999Y-25451451D01*
X25574999Y-25451451D01*
X25614658Y-25447545D01*
X25665793Y-25481713D01*
X25774986Y-25526942D01*
X25890905Y-25550000D01*
X26009095Y-25550000D01*
X26125014Y-25526942D01*
X26234207Y-25481713D01*
X26332478Y-25416050D01*
X26416050Y-25332478D01*
X26481713Y-25234207D01*
X26523548Y-25133208D01*
X26523548Y-25150000D01*
X26529340Y-25208810D01*
X26546495Y-25265360D01*
X26574352Y-25317477D01*
X26611841Y-25363158D01*
X26657522Y-25400647D01*
X26709639Y-25428504D01*
X26766189Y-25445659D01*
X26824999Y-25451451D01*
X27474999Y-25451451D01*
X27533809Y-25445659D01*
X27590359Y-25428504D01*
X27642476Y-25400647D01*
X27673727Y-25375000D01*
X28769132Y-25375000D01*
X28777507Y-25375825D01*
X28763811Y-25396322D01*
X28688429Y-25578311D01*
X28650000Y-25771509D01*
X28650000Y-25968491D01*
X28688429Y-26161689D01*
X28708592Y-26210366D01*
X28339236Y-26579722D01*
X28323024Y-26593027D01*
X28269914Y-26657741D01*
X28235002Y-26723058D01*
X28230450Y-26731574D01*
X28206147Y-26811687D01*
X28205716Y-26816068D01*
X28134206Y-26768287D01*
X28025013Y-26723058D01*
X27909094Y-26700000D01*
X27790904Y-26700000D01*
X27776451Y-26702875D01*
X27776451Y-26450000D01*
X27770659Y-26391190D01*
X27753504Y-26334640D01*
X27725647Y-26282523D01*
X27724441Y-26281054D01*
X27726943Y-26275014D01*
X27750001Y-26159095D01*
X27750001Y-26040905D01*
X27726943Y-25924986D01*
X27681714Y-25815793D01*
X27616051Y-25717522D01*
X27532479Y-25633950D01*
X27434208Y-25568287D01*
X27325015Y-25523058D01*
X27209096Y-25500000D01*
X27090906Y-25500000D01*
X26974987Y-25523058D01*
X26865794Y-25568287D01*
X26767523Y-25633950D01*
X26683951Y-25717522D01*
X26618288Y-25815793D01*
X26573059Y-25924986D01*
X26550001Y-26040905D01*
X26550001Y-26159095D01*
X26573059Y-26275014D01*
X26575560Y-26281052D01*
X26574353Y-26282523D01*
X26546496Y-26334640D01*
X26529341Y-26391190D01*
X26523549Y-26450000D01*
X26523549Y-26850000D01*
X26529341Y-26908810D01*
X26546496Y-26965360D01*
X26551649Y-26975000D01*
X26546496Y-26984640D01*
X26529341Y-27041190D01*
X26523549Y-27100000D01*
X26523549Y-27500000D01*
X26529341Y-27558810D01*
X26546496Y-27615360D01*
X26551649Y-27625000D01*
X26546496Y-27634640D01*
X26529341Y-27691190D01*
X26523549Y-27750000D01*
X26523549Y-27822507D01*
X26365283Y-27664244D01*
X26351977Y-27648030D01*
X26287263Y-27594919D01*
X26213430Y-27555455D01*
X26140451Y-27533317D01*
X26133314Y-27531152D01*
X26050000Y-27522947D01*
X26029125Y-27525003D01*
X25873990Y-27525002D01*
X25876452Y-27500000D01*
X25875000Y-27475000D01*
X25800000Y-27400000D01*
X25400000Y-27400000D01*
X25400000Y-27448549D01*
X25100000Y-27448549D01*
X25100000Y-27400000D01*
X24700000Y-27400000D01*
X24625000Y-27475000D01*
X24623548Y-27500000D01*
X24629340Y-27558810D01*
X24646495Y-27615361D01*
X24651648Y-27625001D01*
X24646496Y-27634640D01*
X24629341Y-27691190D01*
X24623549Y-27750000D01*
X24623549Y-28150000D01*
X24629341Y-28208810D01*
X24646496Y-28265360D01*
X24674353Y-28317477D01*
X24711842Y-28363158D01*
X24757523Y-28400647D01*
X24809640Y-28428504D01*
X24866190Y-28445659D01*
X24925000Y-28451451D01*
X25575000Y-28451451D01*
X25633810Y-28445659D01*
X25690360Y-28428504D01*
X25742477Y-28400647D01*
X25773728Y-28375001D01*
X25873962Y-28375001D01*
X25925011Y-28426050D01*
X25925012Y-30588369D01*
X25870528Y-30559247D01*
X25870661Y-30558809D01*
X25876453Y-30499999D01*
X25875001Y-30474999D01*
X25800001Y-30399999D01*
X25400001Y-30399999D01*
X25400001Y-30448548D01*
X25100001Y-30448548D01*
X25100001Y-30399999D01*
X24700001Y-30399999D01*
X24625001Y-30474999D01*
X24623549Y-30499999D01*
X24629341Y-30558809D01*
X24646496Y-30615360D01*
X24651649Y-30625000D01*
X24646497Y-30634639D01*
X24629342Y-30691189D01*
X24623550Y-30749999D01*
X24623550Y-31149999D01*
X24629342Y-31208809D01*
X24646497Y-31265359D01*
X24674354Y-31317476D01*
X24711843Y-31363157D01*
X24757524Y-31400646D01*
X24809641Y-31428503D01*
X24866191Y-31445658D01*
X24925001Y-31451450D01*
X25474999Y-31451450D01*
X25474999Y-31543760D01*
X25425017Y-31523057D01*
X25309098Y-31499999D01*
X25190908Y-31499999D01*
X25074989Y-31523057D01*
X24965796Y-31568286D01*
X24867525Y-31633949D01*
X24783953Y-31717521D01*
X24718290Y-31815792D01*
X24673061Y-31924985D01*
X24650003Y-32040904D01*
X24650003Y-32159094D01*
X24673061Y-32275013D01*
X24675563Y-32281052D01*
X24674354Y-32282525D01*
X24646497Y-32334642D01*
X24629342Y-32391192D01*
X24623550Y-32450002D01*
X24623550Y-32850002D01*
X24629342Y-32908812D01*
X24646497Y-32965362D01*
X24651649Y-32975001D01*
X24646496Y-32984641D01*
X24629341Y-33041192D01*
X24623549Y-33100002D01*
X24625001Y-33125002D01*
X24700001Y-33200002D01*
X25100001Y-33200002D01*
X25100001Y-33151453D01*
X25240209Y-33151453D01*
X25249996Y-33152417D01*
X25259784Y-33151453D01*
X25400001Y-33151453D01*
X25400001Y-33200002D01*
X25420001Y-33200002D01*
X25420001Y-33400002D01*
X25400001Y-33400002D01*
X25400001Y-33448551D01*
X25100001Y-33448551D01*
X25100001Y-33400002D01*
X24700001Y-33400002D01*
X24625001Y-33475002D01*
X24623549Y-33500002D01*
X24629341Y-33558812D01*
X24646496Y-33615363D01*
X24651649Y-33625003D01*
X24646497Y-33634642D01*
X24629342Y-33691192D01*
X24623550Y-33750002D01*
X24623550Y-34150002D01*
X24629342Y-34208812D01*
X24646497Y-34265362D01*
X24674354Y-34317479D01*
X24711843Y-34363160D01*
X24757524Y-34400649D01*
X24809641Y-34428506D01*
X24825000Y-34433165D01*
X24825002Y-35649887D01*
X24808951Y-35665938D01*
X24743288Y-35764209D01*
X24698059Y-35873402D01*
X24675001Y-35989321D01*
X24675001Y-36107511D01*
X24698059Y-36223430D01*
X24743288Y-36332623D01*
X24808951Y-36430894D01*
X24892523Y-36514466D01*
X24990794Y-36580129D01*
X25099987Y-36625358D01*
X25215906Y-36648416D01*
X25334096Y-36648416D01*
X25450015Y-36625358D01*
X25475002Y-36615008D01*
X25475005Y-37988514D01*
X25472949Y-38009390D01*
X25481154Y-38092703D01*
X25505456Y-38172816D01*
X25544920Y-38246649D01*
X25584723Y-38295149D01*
X25584726Y-38295152D01*
X25598031Y-38311364D01*
X25614242Y-38324668D01*
X26015809Y-38726237D01*
X26015809Y-38784293D01*
X26038867Y-38900212D01*
X26084096Y-39009405D01*
X26149759Y-39107676D01*
X26233331Y-39191248D01*
X26331602Y-39256911D01*
X26440795Y-39302140D01*
X26556714Y-39325198D01*
X26623546Y-39325198D01*
X26623546Y-39806252D01*
X26633542Y-39907738D01*
X26663144Y-40005324D01*
X26711216Y-40095260D01*
X26775909Y-40174090D01*
X26837501Y-40224636D01*
X26837500Y-40407072D01*
X26829742Y-40411219D01*
X26750912Y-40475912D01*
X26686219Y-40554742D01*
X26638147Y-40644678D01*
X26608545Y-40742264D01*
X26598549Y-40843750D01*
X26598549Y-41356250D01*
X26608545Y-41457736D01*
X26638147Y-41555322D01*
X26686219Y-41645258D01*
X26750912Y-41724088D01*
X26829742Y-41788781D01*
X26919678Y-41836853D01*
X27017264Y-41866455D01*
X27118750Y-41876451D01*
X27556250Y-41876451D01*
X27657736Y-41866455D01*
X27672059Y-41862110D01*
X33600001Y-41862110D01*
X33600001Y-42137886D01*
X33653802Y-42408363D01*
X33759337Y-42663147D01*
X33912550Y-42892446D01*
X34107553Y-43087449D01*
X34336852Y-43240662D01*
X34591636Y-43346197D01*
X34862113Y-43399998D01*
X35137889Y-43399998D01*
X35408366Y-43346197D01*
X35663150Y-43240662D01*
X35892449Y-43087449D01*
X36087452Y-42892446D01*
X36240665Y-42663147D01*
X36346200Y-42408363D01*
X36400001Y-42137886D01*
X36400001Y-41862110D01*
X36346200Y-41591633D01*
X36240665Y-41336849D01*
X36087452Y-41107550D01*
X35892449Y-40912547D01*
X35663150Y-40759334D01*
X35408366Y-40653799D01*
X35137889Y-40599998D01*
X34862113Y-40599998D01*
X34591636Y-40653799D01*
X34336852Y-40759334D01*
X34107553Y-40912547D01*
X33912550Y-41107550D01*
X33759337Y-41336849D01*
X33653802Y-41591633D01*
X33600001Y-41862110D01*
X27672059Y-41862110D01*
X27755322Y-41836853D01*
X27845258Y-41788781D01*
X27924088Y-41724088D01*
X27988781Y-41645258D01*
X28012972Y-41600000D01*
X28775439Y-41600000D01*
X28799999Y-41602419D01*
X28824557Y-41600000D01*
X28824559Y-41600000D01*
X28898016Y-41592765D01*
X28992266Y-41564175D01*
X29079128Y-41517746D01*
X29155263Y-41455264D01*
X29170924Y-41436181D01*
X30642087Y-39965016D01*
X36157915Y-39965020D01*
X37100001Y-40907107D01*
X37100000Y-41511441D01*
X37097581Y-41536002D01*
X37107235Y-41634019D01*
X37111020Y-41646497D01*
X37135825Y-41728268D01*
X37182254Y-41815131D01*
X37244736Y-41891266D01*
X37263824Y-41906931D01*
X37943078Y-42586187D01*
X37958734Y-42605264D01*
X38034869Y-42667746D01*
X38121731Y-42714175D01*
X38198628Y-42737501D01*
X38215981Y-42742765D01*
X38313998Y-42752419D01*
X38338558Y-42750000D01*
X38875526Y-42750000D01*
X38906842Y-42788159D01*
X38952523Y-42825648D01*
X39004640Y-42853505D01*
X39061190Y-42870660D01*
X39120000Y-42876452D01*
X40180000Y-42876452D01*
X40238810Y-42870660D01*
X40295360Y-42853505D01*
X40347477Y-42825648D01*
X40393158Y-42788159D01*
X40430647Y-42742478D01*
X40458504Y-42690361D01*
X40475659Y-42633811D01*
X40481451Y-42575001D01*
X40481451Y-41925001D01*
X40475659Y-41866191D01*
X40458504Y-41809641D01*
X40430647Y-41757524D01*
X40393158Y-41711843D01*
X40347477Y-41674354D01*
X40295360Y-41646497D01*
X40238810Y-41629342D01*
X40180000Y-41623550D01*
X39120000Y-41623550D01*
X39061190Y-41629342D01*
X39004640Y-41646497D01*
X38952523Y-41674354D01*
X38906842Y-41711843D01*
X38875528Y-41750000D01*
X38521105Y-41750000D01*
X38100000Y-41328897D01*
X38100000Y-40724560D01*
X38102419Y-40700000D01*
X38092765Y-40601983D01*
X38081907Y-40566190D01*
X38064175Y-40507733D01*
X38017746Y-40420871D01*
X37955264Y-40344736D01*
X37936187Y-40329080D01*
X37632108Y-40025001D01*
X38818549Y-40025001D01*
X38818549Y-40675001D01*
X38824341Y-40733811D01*
X38841496Y-40790361D01*
X38869353Y-40842478D01*
X38906842Y-40888159D01*
X38952523Y-40925648D01*
X39004640Y-40953505D01*
X39061190Y-40970660D01*
X39120000Y-40976452D01*
X40180000Y-40976452D01*
X40238810Y-40970660D01*
X40295360Y-40953505D01*
X40347477Y-40925648D01*
X40393158Y-40888159D01*
X40430647Y-40842478D01*
X40458504Y-40790361D01*
X40475659Y-40733811D01*
X40481451Y-40675001D01*
X40481451Y-40025001D01*
X40475659Y-39966191D01*
X40458504Y-39909641D01*
X40430647Y-39857524D01*
X40393158Y-39811843D01*
X40347477Y-39774354D01*
X40295360Y-39746497D01*
X40238810Y-39729342D01*
X40180000Y-39723550D01*
X39120000Y-39723550D01*
X39061190Y-39729342D01*
X39004640Y-39746497D01*
X38952523Y-39774354D01*
X38906842Y-39811843D01*
X38869353Y-39857524D01*
X38841496Y-39909641D01*
X38824341Y-39966191D01*
X38818549Y-40025001D01*
X37632108Y-40025001D01*
X36972115Y-39365009D01*
X40857905Y-39365010D01*
X41231303Y-39738409D01*
X41204640Y-39746497D01*
X41152523Y-39774354D01*
X41106842Y-39811843D01*
X41069353Y-39857524D01*
X41041496Y-39909641D01*
X41024341Y-39966191D01*
X41018549Y-40025001D01*
X41018549Y-40675001D01*
X41024341Y-40733811D01*
X41041496Y-40790361D01*
X41060011Y-40825000D01*
X41041495Y-40859640D01*
X41024340Y-40916191D01*
X41018548Y-40975001D01*
X41020000Y-41075001D01*
X41095000Y-41150001D01*
X41700000Y-41150001D01*
X41700000Y-41130001D01*
X42000000Y-41130001D01*
X42000000Y-41150001D01*
X42605000Y-41150001D01*
X42680000Y-41075001D01*
X42681452Y-40975001D01*
X42675660Y-40916191D01*
X42661106Y-40868214D01*
X42862500Y-41069609D01*
X42862501Y-41187938D01*
X42862498Y-41512937D01*
X42862498Y-41544575D01*
X42854743Y-41548720D01*
X42775913Y-41613413D01*
X42711220Y-41692243D01*
X42687029Y-41737500D01*
X42659373Y-41737500D01*
X42675660Y-41683811D01*
X42681452Y-41625001D01*
X42680000Y-41525001D01*
X42605000Y-41450001D01*
X42000000Y-41450001D01*
X42000000Y-41470001D01*
X41700000Y-41470001D01*
X41700000Y-41450001D01*
X41095000Y-41450001D01*
X41020000Y-41525001D01*
X41018548Y-41625001D01*
X41024340Y-41683811D01*
X41041495Y-41740362D01*
X41060011Y-41775002D01*
X41041496Y-41809641D01*
X41024341Y-41866191D01*
X41018549Y-41925001D01*
X41018549Y-42575001D01*
X41024341Y-42633811D01*
X41041496Y-42690361D01*
X41069353Y-42742478D01*
X41106842Y-42788159D01*
X41152523Y-42825648D01*
X41204640Y-42853505D01*
X41261190Y-42870660D01*
X41320000Y-42876452D01*
X42380000Y-42876452D01*
X42438810Y-42870660D01*
X42495360Y-42853505D01*
X42547477Y-42825648D01*
X42593158Y-42788159D01*
X42630647Y-42742478D01*
X42633308Y-42737499D01*
X42687028Y-42737499D01*
X42711220Y-42782759D01*
X42775913Y-42861589D01*
X42854743Y-42926282D01*
X42944679Y-42974354D01*
X43042265Y-43003956D01*
X43143751Y-43013952D01*
X43581251Y-43013952D01*
X43682737Y-43003956D01*
X43780323Y-42974354D01*
X43870259Y-42926282D01*
X43949089Y-42861589D01*
X44013782Y-42782759D01*
X44058063Y-42699915D01*
X44141631Y-42655247D01*
X44199156Y-42608038D01*
X44198549Y-42712501D01*
X44204341Y-42771311D01*
X44221496Y-42827862D01*
X44249353Y-42879979D01*
X44286842Y-42925660D01*
X44332523Y-42963149D01*
X44384640Y-42991006D01*
X44441191Y-43008161D01*
X44500001Y-43013953D01*
X44712501Y-43012501D01*
X44787501Y-42937501D01*
X44787501Y-42387501D01*
X44767501Y-42387501D01*
X44767501Y-42087501D01*
X44787501Y-42087501D01*
X44787501Y-41537501D01*
X44712501Y-41462501D01*
X44600002Y-41461732D01*
X44600001Y-41007106D01*
X44786187Y-40820917D01*
X44805260Y-40805264D01*
X44820916Y-40786187D01*
X44820919Y-40786184D01*
X44867745Y-40729126D01*
X44914173Y-40642265D01*
X44942762Y-40548014D01*
X44952415Y-40449996D01*
X44949996Y-40425439D01*
X44949997Y-40041451D01*
X45300000Y-40041451D01*
X45358810Y-40035659D01*
X45415360Y-40018504D01*
X45467477Y-39990647D01*
X45513158Y-39953158D01*
X45550647Y-39907477D01*
X45578504Y-39855360D01*
X45595659Y-39798810D01*
X45601451Y-39740000D01*
X45601451Y-38040000D01*
X45595659Y-37981190D01*
X45578504Y-37924640D01*
X45550647Y-37872523D01*
X45513158Y-37826842D01*
X45467477Y-37789353D01*
X45415360Y-37761496D01*
X45358810Y-37744341D01*
X45300000Y-37738549D01*
X43600000Y-37738549D01*
X43541190Y-37744341D01*
X43484640Y-37761496D01*
X43432523Y-37789353D01*
X43386842Y-37826842D01*
X43349353Y-37872523D01*
X43321496Y-37924640D01*
X43304341Y-37981190D01*
X43298549Y-38040000D01*
X43298549Y-39740000D01*
X43304341Y-39798810D01*
X43321496Y-39855360D01*
X43349353Y-39907477D01*
X43386842Y-39953158D01*
X43432523Y-39990647D01*
X43484640Y-40018504D01*
X43541190Y-40035659D01*
X43600000Y-40041451D01*
X43949998Y-40041451D01*
X43949997Y-40242896D01*
X43763816Y-40429082D01*
X43744737Y-40444739D01*
X43703232Y-40495313D01*
X43698684Y-40491581D01*
X43220922Y-40013817D01*
X43205265Y-39994739D01*
X43144106Y-39944547D01*
X43129130Y-39932257D01*
X43042269Y-39885828D01*
X42948018Y-39857238D01*
X42850001Y-39847583D01*
X42825432Y-39850003D01*
X42624474Y-39850002D01*
X42593158Y-39811843D01*
X42547477Y-39774354D01*
X42495360Y-39746497D01*
X42438810Y-39729342D01*
X42380000Y-39723550D01*
X42350000Y-39723550D01*
X42350000Y-39674560D01*
X42352419Y-39650000D01*
X42342765Y-39551983D01*
X42342180Y-39550054D01*
X42314175Y-39457733D01*
X42267746Y-39370871D01*
X42205264Y-39294736D01*
X42186187Y-39279080D01*
X41435931Y-38528824D01*
X41420275Y-38509747D01*
X41393701Y-38487938D01*
X41344140Y-38447265D01*
X41257279Y-38400836D01*
X41163028Y-38372246D01*
X41065011Y-38362591D01*
X41040441Y-38365011D01*
X39625000Y-38365011D01*
X39625000Y-36658989D01*
X39650000Y-36661451D01*
X41050000Y-36661451D01*
X41108810Y-36655659D01*
X41165360Y-36638504D01*
X41217477Y-36610647D01*
X41263158Y-36573158D01*
X41300647Y-36527477D01*
X41328504Y-36475360D01*
X41345659Y-36418810D01*
X41351451Y-36360000D01*
X41351451Y-36236735D01*
X43300000Y-36236735D01*
X43300000Y-36463265D01*
X43344194Y-36685443D01*
X43430884Y-36894729D01*
X43556737Y-37083082D01*
X43716918Y-37243263D01*
X43905271Y-37369116D01*
X44114557Y-37455806D01*
X44336735Y-37500000D01*
X44563265Y-37500000D01*
X44785443Y-37455806D01*
X44994729Y-37369116D01*
X45183082Y-37243263D01*
X45343263Y-37083082D01*
X45469116Y-36894729D01*
X45555806Y-36685443D01*
X45600000Y-36463265D01*
X45600000Y-36236735D01*
X45555806Y-36014557D01*
X45469116Y-35805271D01*
X45343263Y-35616918D01*
X45183082Y-35456737D01*
X44994729Y-35330884D01*
X44785443Y-35244194D01*
X44563265Y-35200000D01*
X44336735Y-35200000D01*
X44114557Y-35244194D01*
X43905271Y-35330884D01*
X43716918Y-35456737D01*
X43556737Y-35616918D01*
X43430884Y-35805271D01*
X43344194Y-36014557D01*
X43300000Y-36236735D01*
X41351451Y-36236735D01*
X41351451Y-34966191D01*
X41366189Y-34970662D01*
X41424999Y-34976454D01*
X41674999Y-34975002D01*
X41749999Y-34900002D01*
X41749999Y-34387502D01*
X42049999Y-34387502D01*
X42049999Y-34900002D01*
X42124999Y-34975002D01*
X42374999Y-34976454D01*
X42433809Y-34970662D01*
X42490360Y-34953507D01*
X42542477Y-34925650D01*
X42588158Y-34888161D01*
X42625647Y-34842480D01*
X42653504Y-34790363D01*
X42670659Y-34733812D01*
X42676451Y-34675002D01*
X42674999Y-34462502D01*
X42599999Y-34387502D01*
X42049999Y-34387502D01*
X41749999Y-34387502D01*
X41729999Y-34387502D01*
X41729999Y-34087502D01*
X41749999Y-34087502D01*
X41749999Y-33575002D01*
X42049999Y-33575002D01*
X42049999Y-34087502D01*
X42599999Y-34087502D01*
X42674999Y-34012502D01*
X42676451Y-33800002D01*
X42670659Y-33741192D01*
X42657173Y-33696735D01*
X43300000Y-33696735D01*
X43300000Y-33923265D01*
X43344194Y-34145443D01*
X43430884Y-34354729D01*
X43556737Y-34543082D01*
X43716918Y-34703263D01*
X43905271Y-34829116D01*
X44114557Y-34915806D01*
X44336735Y-34960000D01*
X44563265Y-34960000D01*
X44785443Y-34915806D01*
X44994729Y-34829116D01*
X45183082Y-34703263D01*
X45343263Y-34543082D01*
X45469116Y-34354729D01*
X45555806Y-34145443D01*
X45600000Y-33923265D01*
X45600000Y-33696735D01*
X45555806Y-33474557D01*
X45469116Y-33265271D01*
X45343263Y-33076918D01*
X45183082Y-32916737D01*
X44994729Y-32790884D01*
X44785443Y-32704194D01*
X44563265Y-32660000D01*
X44336735Y-32660000D01*
X44114557Y-32704194D01*
X43905271Y-32790884D01*
X43716918Y-32916737D01*
X43556737Y-33076918D01*
X43430884Y-33265271D01*
X43344194Y-33474557D01*
X43300000Y-33696735D01*
X42657173Y-33696735D01*
X42653504Y-33684641D01*
X42625647Y-33632524D01*
X42588158Y-33586843D01*
X42542477Y-33549354D01*
X42490360Y-33521497D01*
X42433809Y-33504342D01*
X42374999Y-33498550D01*
X42124999Y-33500002D01*
X42049999Y-33575002D01*
X41749999Y-33575002D01*
X41674999Y-33500002D01*
X41424999Y-33498550D01*
X41366189Y-33504342D01*
X41309638Y-33521497D01*
X41288562Y-33532762D01*
X41236189Y-33406322D01*
X41126751Y-33242537D01*
X40987463Y-33103249D01*
X40963890Y-33087498D01*
X41166980Y-33087497D01*
X41211218Y-33170260D01*
X41275911Y-33249090D01*
X41354741Y-33313783D01*
X41444677Y-33361855D01*
X41542263Y-33391457D01*
X41643749Y-33401453D01*
X42156249Y-33401453D01*
X42257735Y-33391457D01*
X42355321Y-33361855D01*
X42445257Y-33313783D01*
X42524087Y-33249090D01*
X42588780Y-33170260D01*
X42636852Y-33080324D01*
X42666454Y-32982738D01*
X42676450Y-32881252D01*
X42676450Y-32443752D01*
X42666454Y-32342266D01*
X42636852Y-32244680D01*
X42588780Y-32154744D01*
X42524087Y-32075914D01*
X42445257Y-32011221D01*
X42355321Y-31963149D01*
X42325000Y-31953951D01*
X42325000Y-31946050D01*
X42355321Y-31936852D01*
X42445257Y-31888780D01*
X42524087Y-31824087D01*
X42588780Y-31745257D01*
X42636852Y-31655321D01*
X42666454Y-31557735D01*
X42676450Y-31456249D01*
X42676450Y-31156735D01*
X43300000Y-31156735D01*
X43300000Y-31383265D01*
X43344194Y-31605443D01*
X43430884Y-31814729D01*
X43556737Y-32003082D01*
X43716918Y-32163263D01*
X43905271Y-32289116D01*
X44114557Y-32375806D01*
X44336735Y-32420000D01*
X44563265Y-32420000D01*
X44785443Y-32375806D01*
X44994729Y-32289116D01*
X45183082Y-32163263D01*
X45343263Y-32003082D01*
X45469116Y-31814729D01*
X45555806Y-31605443D01*
X45600000Y-31383265D01*
X45600000Y-31156735D01*
X45555806Y-30934557D01*
X45469116Y-30725271D01*
X45343263Y-30536918D01*
X45183082Y-30376737D01*
X44994729Y-30250884D01*
X44785443Y-30164194D01*
X44563265Y-30120000D01*
X44336735Y-30120000D01*
X44114557Y-30164194D01*
X43905271Y-30250884D01*
X43716918Y-30376737D01*
X43556737Y-30536918D01*
X43430884Y-30725271D01*
X43344194Y-30934557D01*
X43300000Y-31156735D01*
X42676450Y-31156735D01*
X42676450Y-31018749D01*
X42666454Y-30917263D01*
X42636852Y-30819677D01*
X42588780Y-30729741D01*
X42524087Y-30650911D01*
X42445257Y-30586218D01*
X42355321Y-30538146D01*
X42257735Y-30508544D01*
X42156249Y-30498548D01*
X41643749Y-30498548D01*
X41542263Y-30508544D01*
X41444677Y-30538146D01*
X41354741Y-30586218D01*
X41305323Y-30626774D01*
X41311571Y-30611689D01*
X41350000Y-30418491D01*
X41350000Y-30390748D01*
X41366189Y-30395659D01*
X41424999Y-30401451D01*
X41674999Y-30399999D01*
X41749999Y-30324999D01*
X41749999Y-29812499D01*
X42049999Y-29812499D01*
X42049999Y-30324999D01*
X42124999Y-30399999D01*
X42374999Y-30401451D01*
X42433809Y-30395659D01*
X42490360Y-30378504D01*
X42542477Y-30350647D01*
X42588158Y-30313158D01*
X42625647Y-30267477D01*
X42653504Y-30215360D01*
X42670659Y-30158809D01*
X42676451Y-30099999D01*
X42674999Y-29887499D01*
X42599999Y-29812499D01*
X42049999Y-29812499D01*
X41749999Y-29812499D01*
X41213589Y-29812499D01*
X41126751Y-29682537D01*
X40987463Y-29543249D01*
X40850001Y-29451399D01*
X40850001Y-29408601D01*
X40987463Y-29316751D01*
X41126751Y-29177463D01*
X41128484Y-29174869D01*
X41123547Y-29224999D01*
X41124999Y-29437499D01*
X41199999Y-29512499D01*
X41749999Y-29512499D01*
X41749999Y-28999999D01*
X42049999Y-28999999D01*
X42049999Y-29512499D01*
X42599999Y-29512499D01*
X42674999Y-29437499D01*
X42676451Y-29224999D01*
X42670659Y-29166189D01*
X42653504Y-29109638D01*
X42625647Y-29057521D01*
X42588158Y-29011840D01*
X42542477Y-28974351D01*
X42490360Y-28946494D01*
X42433809Y-28929339D01*
X42374999Y-28923547D01*
X42124999Y-28924999D01*
X42049999Y-28999999D01*
X41749999Y-28999999D01*
X41674999Y-28924999D01*
X41424999Y-28923547D01*
X41366189Y-28929339D01*
X41309638Y-28946494D01*
X41257521Y-28974351D01*
X41249882Y-28980620D01*
X41294711Y-28872393D01*
X41550367Y-28616735D01*
X43300000Y-28616735D01*
X43300000Y-28843265D01*
X43344194Y-29065443D01*
X43430884Y-29274729D01*
X43556737Y-29463082D01*
X43716918Y-29623263D01*
X43905271Y-29749116D01*
X44114557Y-29835806D01*
X44336735Y-29880000D01*
X44563265Y-29880000D01*
X44785443Y-29835806D01*
X44994729Y-29749116D01*
X45183082Y-29623263D01*
X45343263Y-29463082D01*
X45469116Y-29274729D01*
X45555806Y-29065443D01*
X45600000Y-28843265D01*
X45600000Y-28616735D01*
X45555806Y-28394557D01*
X45469116Y-28185271D01*
X45343263Y-27996918D01*
X45183082Y-27836737D01*
X44994729Y-27710884D01*
X44785443Y-27624194D01*
X44563265Y-27580000D01*
X44336735Y-27580000D01*
X44114557Y-27624194D01*
X43905271Y-27710884D01*
X43716918Y-27836737D01*
X43556737Y-27996918D01*
X43430884Y-28185271D01*
X43344194Y-28394557D01*
X43300000Y-28616735D01*
X41550367Y-28616735D01*
X41786190Y-28380912D01*
X41805261Y-28365261D01*
X41820912Y-28346190D01*
X41820918Y-28346184D01*
X41867744Y-28289126D01*
X41914172Y-28202265D01*
X41942763Y-28108014D01*
X41952417Y-28009997D01*
X41949997Y-27985430D01*
X41950001Y-22908566D01*
X42850000Y-23808566D01*
X42850002Y-24994124D01*
X42847946Y-25015000D01*
X42856151Y-25098313D01*
X42880453Y-25178426D01*
X42880454Y-25178427D01*
X42919918Y-25252260D01*
X42973028Y-25316974D01*
X42989245Y-25330283D01*
X43393788Y-25734828D01*
X43344194Y-25854557D01*
X43300000Y-26076735D01*
X43300000Y-26303265D01*
X43344194Y-26525443D01*
X43430884Y-26734729D01*
X43556737Y-26923082D01*
X43716918Y-27083263D01*
X43905271Y-27209116D01*
X44114557Y-27295806D01*
X44336735Y-27340000D01*
X44563265Y-27340000D01*
X44785443Y-27295806D01*
X44994729Y-27209116D01*
X45183082Y-27083263D01*
X45343263Y-26923082D01*
X45469116Y-26734729D01*
X45555806Y-26525443D01*
X45600000Y-26303265D01*
X45600000Y-26076735D01*
X45555806Y-25854557D01*
X45469116Y-25645271D01*
X45343263Y-25456918D01*
X45183082Y-25296737D01*
X44994729Y-25170884D01*
X44785443Y-25084194D01*
X44563265Y-25040000D01*
X44336735Y-25040000D01*
X44114557Y-25084194D01*
X43994828Y-25133788D01*
X43700001Y-24838960D01*
X43700000Y-24517778D01*
X43726361Y-24543791D01*
X43914635Y-24667792D01*
X44123483Y-24752680D01*
X44300000Y-24715183D01*
X44300000Y-23800000D01*
X44600000Y-23800000D01*
X44600000Y-24715183D01*
X44776517Y-24752680D01*
X44985365Y-24667792D01*
X45173639Y-24543791D01*
X45334104Y-24385442D01*
X45460594Y-24198831D01*
X45548247Y-23991128D01*
X45552672Y-23976516D01*
X45514483Y-23800000D01*
X44600000Y-23800000D01*
X44300000Y-23800000D01*
X44280000Y-23800000D01*
X44280000Y-23500000D01*
X44300000Y-23500000D01*
X44300000Y-22584817D01*
X44600000Y-22584817D01*
X44600000Y-23500000D01*
X45514483Y-23500000D01*
X45552672Y-23323484D01*
X45548247Y-23308872D01*
X45460594Y-23101169D01*
X45334104Y-22914558D01*
X45173639Y-22756209D01*
X44985365Y-22632208D01*
X44776517Y-22547320D01*
X44600000Y-22584817D01*
X44300000Y-22584817D01*
X44123483Y-22547320D01*
X43914635Y-22632208D01*
X43726361Y-22756209D01*
X43565896Y-22914558D01*
X43439406Y-23101169D01*
X43411296Y-23167780D01*
X41599989Y-21356473D01*
X41599990Y-20261215D01*
X41617263Y-20266455D01*
X41718749Y-20276451D01*
X42156249Y-20276451D01*
X42257735Y-20266455D01*
X42355321Y-20236853D01*
X42445257Y-20188781D01*
X42524087Y-20124088D01*
X42588780Y-20045258D01*
X42636852Y-19955322D01*
X42646050Y-19925001D01*
X42663960Y-19925001D01*
X43393788Y-20654828D01*
X43344194Y-20774557D01*
X43300000Y-20996735D01*
X43300000Y-21223265D01*
X43344194Y-21445443D01*
X43430884Y-21654729D01*
X43556737Y-21843082D01*
X43716918Y-22003263D01*
X43905271Y-22129116D01*
X44114557Y-22215806D01*
X44336735Y-22260000D01*
X44563265Y-22260000D01*
X44785443Y-22215806D01*
X44994729Y-22129116D01*
X45183082Y-22003263D01*
X45343263Y-21843082D01*
X45469116Y-21654729D01*
X45555806Y-21445443D01*
X45600000Y-21223265D01*
X45600000Y-20996735D01*
X45555806Y-20774557D01*
X45469116Y-20565271D01*
X45343263Y-20376918D01*
X45183082Y-20216737D01*
X44994729Y-20090884D01*
X44785443Y-20004194D01*
X44563265Y-19960000D01*
X44336735Y-19960000D01*
X44114557Y-20004194D01*
X43994828Y-20053788D01*
X43155279Y-19214240D01*
X43141974Y-19198028D01*
X43122731Y-19182235D01*
X43094188Y-19158811D01*
X43077260Y-19144918D01*
X43003427Y-19105454D01*
X43003420Y-19105452D01*
X42923314Y-19081151D01*
X42840000Y-19072946D01*
X42819124Y-19075002D01*
X42646050Y-19075002D01*
X42636852Y-19044678D01*
X42588780Y-18954742D01*
X42524087Y-18875912D01*
X42445257Y-18811219D01*
X42355321Y-18763147D01*
X42257735Y-18733545D01*
X42156249Y-18723549D01*
X41718749Y-18723549D01*
X41617263Y-18733545D01*
X41519677Y-18763147D01*
X41516574Y-18764805D01*
X41515444Y-18763428D01*
X41490270Y-18732753D01*
X41490265Y-18732748D01*
X41476965Y-18716542D01*
X41460757Y-18703240D01*
X41171743Y-18414229D01*
X41158439Y-18398018D01*
X41142227Y-18384713D01*
X41142224Y-18384710D01*
X41119946Y-18366427D01*
X41093725Y-18344908D01*
X41019892Y-18305444D01*
X41019890Y-18305443D01*
X40939777Y-18281141D01*
X40856464Y-18272936D01*
X40835588Y-18274992D01*
X38778408Y-18274990D01*
X38757533Y-18272934D01*
X38674219Y-18281140D01*
X38625615Y-18295884D01*
X38594108Y-18305442D01*
X38520275Y-18344906D01*
X38512943Y-18350923D01*
X38471773Y-18384710D01*
X38471767Y-18384716D01*
X38455561Y-18398016D01*
X38442260Y-18414223D01*
X38436417Y-18420066D01*
X37051506Y-19804983D01*
X31146852Y-19804981D01*
X31164442Y-19762514D01*
X31187500Y-19646595D01*
X31187500Y-19528405D01*
X31164442Y-19412486D01*
X31119213Y-19303293D01*
X31087500Y-19255831D01*
X31087500Y-17992930D01*
X31095259Y-17988783D01*
X31174089Y-17924090D01*
X31224950Y-17862114D01*
X33599999Y-17862114D01*
X33599999Y-18137890D01*
X33653800Y-18408367D01*
X33759335Y-18663151D01*
X33912548Y-18892450D01*
X34107551Y-19087453D01*
X34336850Y-19240666D01*
X34591634Y-19346201D01*
X34862111Y-19400002D01*
X35137887Y-19400002D01*
X35408364Y-19346201D01*
X35663148Y-19240666D01*
X35892447Y-19087453D01*
X36087450Y-18892450D01*
X36240663Y-18663151D01*
X36346198Y-18408367D01*
X36399999Y-18137890D01*
X36399999Y-17862114D01*
X36346198Y-17591637D01*
X36240663Y-17336853D01*
X36087450Y-17107554D01*
X35892447Y-16912551D01*
X35663148Y-16759338D01*
X35408364Y-16653803D01*
X35137887Y-16600002D01*
X34862111Y-16600002D01*
X34591634Y-16653803D01*
X34336850Y-16759338D01*
X34107551Y-16912551D01*
X33912548Y-17107554D01*
X33759335Y-17336853D01*
X33653800Y-17591637D01*
X33599999Y-17862114D01*
X31224950Y-17862114D01*
X31238782Y-17845260D01*
X31286854Y-17755324D01*
X31316456Y-17657738D01*
X31326452Y-17556252D01*
X31326452Y-17043752D01*
X31316456Y-16942266D01*
X31286854Y-16844680D01*
X31238782Y-16754744D01*
X31174089Y-16675914D01*
X31095259Y-16611221D01*
X31005323Y-16563149D01*
X30907737Y-16533547D01*
X30806251Y-16523551D01*
X30368751Y-16523551D01*
X30267265Y-16533547D01*
X30169679Y-16563149D01*
X30079743Y-16611221D01*
X30000913Y-16675914D01*
X29936220Y-16754744D01*
X29888148Y-16844680D01*
X29858546Y-16942266D01*
X29848550Y-17043752D01*
X29848550Y-17556252D01*
X29858546Y-17657738D01*
X29888148Y-17755324D01*
X29936220Y-17845260D01*
X30000913Y-17924090D01*
X30079743Y-17988783D01*
X30087500Y-17992929D01*
X30087501Y-19255830D01*
X30085499Y-19258826D01*
X30061229Y-19222503D01*
X29977657Y-19138931D01*
X29879386Y-19073268D01*
X29770193Y-19028039D01*
X29654274Y-19004981D01*
X29596220Y-19004981D01*
X28905477Y-18314238D01*
X28892172Y-18298026D01*
X28827458Y-18244916D01*
X28753625Y-18205452D01*
X28697815Y-18188522D01*
X28673513Y-18181150D01*
X28665100Y-18180321D01*
X28611072Y-18175000D01*
X28611066Y-18175000D01*
X28590199Y-18172945D01*
X28569332Y-18175000D01*
X28151450Y-18175001D01*
X28151450Y-18100001D01*
X28145658Y-18041191D01*
X28128503Y-17984641D01*
X28109988Y-17950001D01*
X28128503Y-17915361D01*
X28145658Y-17858811D01*
X28151450Y-17800001D01*
X28151450Y-17725000D01*
X28303949Y-17725000D01*
X28313148Y-17755324D01*
X28361220Y-17845260D01*
X28425913Y-17924090D01*
X28504743Y-17988783D01*
X28594679Y-18036855D01*
X28692265Y-18066457D01*
X28793751Y-18076453D01*
X29231251Y-18076453D01*
X29332737Y-18066457D01*
X29430323Y-18036855D01*
X29520259Y-17988783D01*
X29599089Y-17924090D01*
X29663782Y-17845260D01*
X29711854Y-17755324D01*
X29741456Y-17657738D01*
X29751452Y-17556252D01*
X29751452Y-17043752D01*
X29741456Y-16942266D01*
X29711854Y-16844680D01*
X29663782Y-16754744D01*
X29599089Y-16675914D01*
X29520259Y-16611221D01*
X29430323Y-16563149D01*
X29332737Y-16533547D01*
X29231251Y-16523551D01*
X28793751Y-16523551D01*
X28692265Y-16533547D01*
X28594679Y-16563149D01*
X28504743Y-16611221D01*
X28425913Y-16675914D01*
X28361220Y-16754744D01*
X28313148Y-16844680D01*
X28303951Y-16875000D01*
X28151450Y-16875000D01*
X28151450Y-16800001D01*
X28145658Y-16741191D01*
X28128503Y-16684641D01*
X28100646Y-16632524D01*
X28063157Y-16586843D01*
X28017476Y-16549354D01*
X27965359Y-16521497D01*
X27908809Y-16504342D01*
X27849999Y-16498550D01*
X26349999Y-16498550D01*
X26291189Y-16504342D01*
X26234639Y-16521497D01*
X26182522Y-16549354D01*
X26136841Y-16586843D01*
X26099352Y-16632524D01*
X26071495Y-16684641D01*
X26054340Y-16741191D01*
X26048548Y-16800001D01*
X26048548Y-17800001D01*
X26054340Y-17858811D01*
X26071495Y-17915361D01*
X26090010Y-17950001D01*
X26071495Y-17984641D01*
X26054340Y-18041191D01*
X26048548Y-18100001D01*
X26048548Y-19100001D01*
X26054340Y-19158811D01*
X26071495Y-19215361D01*
X26075711Y-19223249D01*
X25648745Y-19650216D01*
X25632477Y-19633948D01*
X25534206Y-19568285D01*
X25425013Y-19523056D01*
X25309094Y-19499998D01*
X25190904Y-19499998D01*
X25074985Y-19523056D01*
X24965792Y-19568285D01*
X24867521Y-19633948D01*
X24783949Y-19717520D01*
X24718286Y-19815791D01*
X24673057Y-19924984D01*
X24649999Y-20040903D01*
X24649999Y-20159093D01*
X24673057Y-20275012D01*
X24675559Y-20281053D01*
X24674353Y-20282523D01*
X24646496Y-20334640D01*
X24629341Y-20391190D01*
X24623549Y-20450000D01*
X24623549Y-20850000D01*
X24629341Y-20908810D01*
X24646496Y-20965360D01*
X24651648Y-20974999D01*
X24646495Y-20984639D01*
X24629340Y-21041190D01*
X24623548Y-21100000D01*
X24625000Y-21125000D01*
X24700000Y-21200000D01*
X25100000Y-21200000D01*
X25100000Y-21151451D01*
X25240185Y-21151451D01*
X25250004Y-21152418D01*
X25259822Y-21151451D01*
X25400000Y-21151451D01*
X25400000Y-21200000D01*
X25420000Y-21200000D01*
X25420000Y-21400000D01*
X25400000Y-21400000D01*
X25400000Y-21448549D01*
X25100000Y-21448549D01*
X25100000Y-21400000D01*
X24700000Y-21400000D01*
X24625000Y-21475000D01*
X24623548Y-21500000D01*
X24629340Y-21558810D01*
X24646495Y-21615361D01*
X24651648Y-21625001D01*
X24646496Y-21634640D01*
X24629341Y-21691190D01*
X24623549Y-21750000D01*
X24623549Y-22150000D01*
X24629341Y-22208810D01*
X24646496Y-22265360D01*
X24674353Y-22317477D01*
X24711842Y-22363158D01*
X24757523Y-22400647D01*
X24809640Y-22428504D01*
X24866190Y-22445659D01*
X24925000Y-22451451D01*
X25575000Y-22451451D01*
X25633810Y-22445659D01*
X25690360Y-22428504D01*
X25742477Y-22400647D01*
X25779571Y-22370205D01*
X25793318Y-22368851D01*
X25793321Y-22368850D01*
X25793322Y-22368850D01*
X25812085Y-22363158D01*
X25873431Y-22344549D01*
X25947264Y-22305085D01*
X26011978Y-22251975D01*
X26025285Y-22235760D01*
X26215764Y-22045279D01*
X26231973Y-22031976D01*
X26245278Y-22015764D01*
X26245283Y-22015759D01*
X26264155Y-21992763D01*
X26285083Y-21967262D01*
X26324547Y-21893429D01*
X26324549Y-21893426D01*
X26348851Y-21813313D01*
X26357055Y-21729998D01*
X26354999Y-21709124D01*
X26355001Y-20146039D01*
X26572318Y-19928723D01*
X26550003Y-20040908D01*
X26550003Y-20159098D01*
X26573061Y-20275017D01*
X26575561Y-20281052D01*
X26574353Y-20282523D01*
X26546496Y-20334640D01*
X26529341Y-20391190D01*
X26523549Y-20450000D01*
X26523549Y-20850000D01*
X26529341Y-20908810D01*
X26546496Y-20965360D01*
X26551648Y-20974999D01*
X26546495Y-20984639D01*
X26529340Y-21041190D01*
X26523548Y-21100000D01*
X26525000Y-21125000D01*
X26600000Y-21200000D01*
X27000000Y-21200000D01*
X27000000Y-21151451D01*
X27140180Y-21151451D01*
X27149998Y-21152418D01*
X27159817Y-21151451D01*
X27300000Y-21151451D01*
X27300000Y-21200000D01*
X27700000Y-21200000D01*
X27775000Y-21125000D01*
X27776452Y-21100000D01*
X27770660Y-21041190D01*
X27753505Y-20984639D01*
X27748352Y-20974999D01*
X27753504Y-20965360D01*
X27770659Y-20908810D01*
X27776451Y-20850000D01*
X27776451Y-20600001D01*
X28206890Y-20599999D01*
X28698067Y-21091176D01*
X28713723Y-21110254D01*
X28789858Y-21172736D01*
X28876720Y-21219165D01*
X28970970Y-21247755D01*
X29044427Y-21254990D01*
X29044436Y-21254990D01*
X29068986Y-21257408D01*
X29093536Y-21254990D01*
X30375001Y-21254990D01*
X30375001Y-21620787D01*
X30287463Y-21533249D01*
X30123678Y-21423811D01*
X29941689Y-21348429D01*
X29748491Y-21310000D01*
X29551509Y-21310000D01*
X29358311Y-21348429D01*
X29176322Y-21423811D01*
X29012537Y-21533249D01*
X28873249Y-21672537D01*
X28763811Y-21836322D01*
X28743648Y-21885000D01*
X28586042Y-21885000D01*
X28365281Y-21664238D01*
X28351974Y-21648024D01*
X28335763Y-21634720D01*
X28287263Y-21594917D01*
X28287261Y-21594916D01*
X28287260Y-21594915D01*
X28257989Y-21579270D01*
X28213430Y-21555452D01*
X28133317Y-21531149D01*
X28108077Y-21528663D01*
X28070874Y-21524999D01*
X28070870Y-21524999D01*
X28050003Y-21522944D01*
X28029135Y-21524999D01*
X27773990Y-21525000D01*
X27776452Y-21500000D01*
X27775000Y-21475000D01*
X27700000Y-21400000D01*
X27300000Y-21400000D01*
X27300000Y-21448549D01*
X27000000Y-21448549D01*
X27000000Y-21400000D01*
X26600000Y-21400000D01*
X26525000Y-21475000D01*
X26523548Y-21500000D01*
X26529340Y-21558810D01*
X26546495Y-21615361D01*
X26551648Y-21625001D01*
X26546496Y-21634640D01*
X26529341Y-21691190D01*
X26523549Y-21750000D01*
X26523549Y-22150000D01*
X26529341Y-22208810D01*
X26546496Y-22265360D01*
X26574353Y-22317477D01*
X26611842Y-22363158D01*
X26657523Y-22400647D01*
X26709640Y-22428504D01*
X26766190Y-22445659D01*
X26825000Y-22451451D01*
X27475000Y-22451451D01*
X27533810Y-22445659D01*
X27590360Y-22428504D01*
X27642477Y-22400647D01*
X27673729Y-22375000D01*
X27873961Y-22374999D01*
X28094719Y-22595760D01*
X28108026Y-22611974D01*
X28172740Y-22665084D01*
X28246573Y-22704548D01*
X28326686Y-22728850D01*
X28389126Y-22735000D01*
X28389134Y-22735000D01*
X28409998Y-22737055D01*
X28430865Y-22735000D01*
X28743648Y-22735000D01*
X28763811Y-22783678D01*
X28873249Y-22947463D01*
X29012537Y-23086751D01*
X29176322Y-23196189D01*
X29185523Y-23200000D01*
X29176322Y-23203811D01*
X29012537Y-23313249D01*
X28873249Y-23452537D01*
X28763811Y-23616322D01*
X28688429Y-23798311D01*
X28650000Y-23991509D01*
X28650000Y-24188491D01*
X28688429Y-24381689D01*
X28708593Y-24430368D01*
X28613960Y-24525000D01*
X28406235Y-24525000D01*
X28426941Y-24475011D01*
X28449999Y-24359092D01*
X28449999Y-24240902D01*
X28426941Y-24124983D01*
X28381712Y-24015790D01*
X28316049Y-23917519D01*
X28232477Y-23833947D01*
X28134206Y-23768284D01*
X28025013Y-23723055D01*
X27909094Y-23699997D01*
X27790904Y-23699997D01*
X27776450Y-23702872D01*
X27776450Y-23450000D01*
X27770658Y-23391190D01*
X27753503Y-23334640D01*
X27732750Y-23295814D01*
X27750000Y-23209095D01*
X27750000Y-23090905D01*
X27726942Y-22974986D01*
X27681713Y-22865793D01*
X27616050Y-22767522D01*
X27532478Y-22683950D01*
X27434207Y-22618287D01*
X27325014Y-22573058D01*
X27209095Y-22550000D01*
X27090905Y-22550000D01*
X26974986Y-22573058D01*
X26865793Y-22618287D01*
X26767522Y-22683950D01*
X26683950Y-22767522D01*
X26618287Y-22865793D01*
X26573058Y-22974986D01*
X26550000Y-23090905D01*
X26550000Y-23209095D01*
X26567249Y-23295811D01*
X26546495Y-23334640D01*
X26529340Y-23391190D01*
X26523548Y-23450000D01*
X26523548Y-23850000D01*
X26529340Y-23908810D01*
X26546495Y-23965360D01*
X26551648Y-23975000D01*
X26546495Y-23984640D01*
X26529340Y-24041190D01*
X26523548Y-24100000D01*
X26523548Y-24500000D01*
X26529340Y-24558810D01*
X26546495Y-24615360D01*
X26551648Y-24625000D01*
X26546495Y-24634640D01*
X26529340Y-24691190D01*
X26523548Y-24750000D01*
X26523548Y-24766792D01*
X26481713Y-24665793D01*
X26416050Y-24567522D01*
X26332478Y-24483950D01*
X26234207Y-24418287D01*
X26125014Y-24373058D01*
X26009095Y-24350000D01*
X25890905Y-24350000D01*
X25774986Y-24373058D01*
X25709942Y-24400000D01*
X25399999Y-24400000D01*
X25399999Y-24448549D01*
X25099999Y-24448549D01*
X25099999Y-24400000D01*
X24699999Y-24400000D01*
X24624999Y-24475000D01*
X24623547Y-24500000D01*
X24325000Y-24500000D01*
X24325000Y-24100000D01*
X24623547Y-24100000D01*
X24624999Y-24125000D01*
X24699999Y-24200000D01*
X25099999Y-24200000D01*
X25099999Y-24151451D01*
X25240141Y-24151451D01*
X25250000Y-24152422D01*
X25259858Y-24151451D01*
X25399999Y-24151451D01*
X25399999Y-24200000D01*
X25799999Y-24200000D01*
X25874999Y-24125000D01*
X25876451Y-24100000D01*
X25870659Y-24041190D01*
X25853504Y-23984639D01*
X25848351Y-23974999D01*
X25853503Y-23965360D01*
X25870658Y-23908810D01*
X25876450Y-23850000D01*
X25876450Y-23450000D01*
X25870658Y-23391190D01*
X25853503Y-23334640D01*
X25825646Y-23282523D01*
X25824440Y-23281054D01*
X25826942Y-23275014D01*
X25850000Y-23159095D01*
X25850000Y-23040905D01*
X25826942Y-22924986D01*
X25781713Y-22815793D01*
X25716050Y-22717522D01*
X25632478Y-22633950D01*
X25534207Y-22568287D01*
X25425014Y-22523058D01*
X25309095Y-22500000D01*
X25190905Y-22500000D01*
X25074986Y-22523058D01*
X24965793Y-22568287D01*
X24867522Y-22633950D01*
X24783950Y-22717522D01*
X24718287Y-22815793D01*
X24673058Y-22924986D01*
X24650000Y-23040905D01*
X24650000Y-23159095D01*
X24673058Y-23275014D01*
X24675559Y-23281052D01*
X24674352Y-23282523D01*
X24646495Y-23334640D01*
X24629340Y-23391190D01*
X24623548Y-23450000D01*
X24623548Y-23850000D01*
X24629340Y-23908810D01*
X24646495Y-23965360D01*
X24651647Y-23974999D01*
X24646494Y-23984639D01*
X24629339Y-24041190D01*
X24623547Y-24100000D01*
X24325000Y-24100000D01*
X24325000Y-17015897D01*
X24339384Y-16869195D01*
X24377373Y-16743371D01*
X24439076Y-16627325D01*
X24522148Y-16525468D01*
X24623418Y-16441690D01*
X24739027Y-16379181D01*
X24864586Y-16340314D01*
X25010285Y-16325000D01*
X44984103Y-16325000D01*
X45130805Y-16339384D01*
G37*
X45130805Y-16339384D02*
X45256629Y-16377373D01*
X45372675Y-16439076D01*
X45474532Y-16522148D01*
X45558310Y-16623418D01*
X45620819Y-16739027D01*
X45659686Y-16864586D01*
X45675001Y-17010295D01*
X45675000Y-41747748D01*
X45670661Y-41703691D01*
X45653506Y-41647140D01*
X45625649Y-41595023D01*
X45588160Y-41549342D01*
X45542479Y-41511853D01*
X45490362Y-41483996D01*
X45433811Y-41466841D01*
X45375001Y-41461049D01*
X45162501Y-41462501D01*
X45087501Y-41537501D01*
X45087501Y-42087501D01*
X45107501Y-42087501D01*
X45107501Y-42387501D01*
X45087501Y-42387501D01*
X45087501Y-42937501D01*
X45162501Y-43012501D01*
X45375001Y-43013953D01*
X45433811Y-43008161D01*
X45490362Y-42991006D01*
X45542479Y-42963149D01*
X45588160Y-42925660D01*
X45625649Y-42879979D01*
X45653506Y-42827862D01*
X45670661Y-42771311D01*
X45675000Y-42727254D01*
X45675000Y-42984104D01*
X45660616Y-43130805D01*
X45622627Y-43256629D01*
X45560924Y-43372675D01*
X45477853Y-43474531D01*
X45376586Y-43558307D01*
X45260973Y-43620819D01*
X45135410Y-43659687D01*
X44989716Y-43675000D01*
X25015896Y-43675000D01*
X24869195Y-43660616D01*
X24743371Y-43622627D01*
X24627325Y-43560924D01*
X24525469Y-43477853D01*
X24441693Y-43376586D01*
X24379181Y-43260973D01*
X24340313Y-43135410D01*
X24325000Y-42989716D01*
X24325000Y-41575000D01*
X25023548Y-41575000D01*
X25029340Y-41633810D01*
X25046495Y-41690361D01*
X25074352Y-41742478D01*
X25111841Y-41788159D01*
X25157522Y-41825648D01*
X25209639Y-41853505D01*
X25266190Y-41870660D01*
X25325000Y-41876452D01*
X25537500Y-41875000D01*
X25612500Y-41800000D01*
X25612500Y-41250000D01*
X25912500Y-41250000D01*
X25912500Y-41800000D01*
X25987500Y-41875000D01*
X26200000Y-41876452D01*
X26258810Y-41870660D01*
X26315361Y-41853505D01*
X26367478Y-41825648D01*
X26413159Y-41788159D01*
X26450648Y-41742478D01*
X26478505Y-41690361D01*
X26495660Y-41633810D01*
X26501452Y-41575000D01*
X26500000Y-41325000D01*
X26425000Y-41250000D01*
X25912500Y-41250000D01*
X25612500Y-41250000D01*
X25100000Y-41250000D01*
X25025000Y-41325000D01*
X25023548Y-41575000D01*
X24325000Y-41575000D01*
X24325000Y-40625000D01*
X25023548Y-40625000D01*
X25025000Y-40875000D01*
X25100000Y-40950000D01*
X25612500Y-40950000D01*
X25612500Y-40400000D01*
X25912500Y-40400000D01*
X25912500Y-40950000D01*
X26425000Y-40950000D01*
X26500000Y-40875000D01*
X26501452Y-40625000D01*
X26495660Y-40566190D01*
X26478505Y-40509639D01*
X26450648Y-40457522D01*
X26413159Y-40411841D01*
X26367478Y-40374352D01*
X26315361Y-40346495D01*
X26258810Y-40329340D01*
X26200000Y-40323548D01*
X25987500Y-40325000D01*
X25912500Y-40400000D01*
X25612500Y-40400000D01*
X25537500Y-40325000D01*
X25325000Y-40323548D01*
X25266190Y-40329340D01*
X25209639Y-40346495D01*
X25157522Y-40374352D01*
X25111841Y-40411841D01*
X25074352Y-40457522D01*
X25046495Y-40509639D01*
X25029340Y-40566190D01*
X25023548Y-40625000D01*
X24325000Y-40625000D01*
X24325000Y-30099999D01*
X24623549Y-30099999D01*
X24625001Y-30124999D01*
X24700001Y-30199999D01*
X25100001Y-30199999D01*
X25100001Y-30151450D01*
X25240172Y-30151450D01*
X25250001Y-30152418D01*
X25259829Y-30151450D01*
X25400001Y-30151450D01*
X25400001Y-30199999D01*
X25800001Y-30199999D01*
X25875001Y-30124999D01*
X25876453Y-30099999D01*
X25870661Y-30041189D01*
X25853506Y-29984638D01*
X25848353Y-29974998D01*
X25853505Y-29965359D01*
X25870660Y-29908809D01*
X25876452Y-29849999D01*
X25876452Y-29449999D01*
X25870660Y-29391189D01*
X25853505Y-29334639D01*
X25825648Y-29282522D01*
X25824439Y-29281049D01*
X25826940Y-29275011D01*
X25849998Y-29159092D01*
X25849998Y-29040902D01*
X25826940Y-28924983D01*
X25781711Y-28815790D01*
X25716048Y-28717519D01*
X25632476Y-28633947D01*
X25534205Y-28568284D01*
X25425012Y-28523055D01*
X25309093Y-28499997D01*
X25190903Y-28499997D01*
X25074984Y-28523055D01*
X24965791Y-28568284D01*
X24867520Y-28633947D01*
X24783948Y-28717519D01*
X24718285Y-28815790D01*
X24673056Y-28924983D01*
X24649998Y-29040902D01*
X24649998Y-29159092D01*
X24673056Y-29275011D01*
X24675559Y-29281054D01*
X24674354Y-29282522D01*
X24646497Y-29334639D01*
X24629342Y-29391189D01*
X24623550Y-29449999D01*
X24623550Y-29849999D01*
X24629342Y-29908809D01*
X24646497Y-29965359D01*
X24651649Y-29974998D01*
X24646496Y-29984638D01*
X24629341Y-30041189D01*
X24623549Y-30099999D01*
X24325000Y-30099999D01*
X24325000Y-27100000D01*
X24623548Y-27100000D01*
X24625000Y-27125000D01*
X24700000Y-27200000D01*
X25100000Y-27200000D01*
X25100000Y-27151451D01*
X25240181Y-27151451D01*
X25250000Y-27152418D01*
X25259818Y-27151451D01*
X25400000Y-27151451D01*
X25400000Y-27200000D01*
X25800000Y-27200000D01*
X25875000Y-27125000D01*
X25876452Y-27100000D01*
X25870660Y-27041190D01*
X25853505Y-26984639D01*
X25848352Y-26974999D01*
X25853504Y-26965360D01*
X25870659Y-26908810D01*
X25876451Y-26850000D01*
X25876451Y-26450000D01*
X25870659Y-26391190D01*
X25853504Y-26334640D01*
X25825647Y-26282523D01*
X25824440Y-26281053D01*
X25826941Y-26275016D01*
X25849999Y-26159097D01*
X25849999Y-26040907D01*
X25826941Y-25924988D01*
X25781712Y-25815795D01*
X25716049Y-25717524D01*
X25632477Y-25633952D01*
X25534206Y-25568289D01*
X25425013Y-25523060D01*
X25309094Y-25500002D01*
X25190904Y-25500002D01*
X25074985Y-25523060D01*
X24965792Y-25568289D01*
X24867521Y-25633952D01*
X24783949Y-25717524D01*
X24718286Y-25815795D01*
X24673057Y-25924988D01*
X24649999Y-26040907D01*
X24649999Y-26159097D01*
X24673057Y-26275016D01*
X24675558Y-26281054D01*
X24674353Y-26282523D01*
X24646496Y-26334640D01*
X24629341Y-26391190D01*
X24623549Y-26450000D01*
X24623549Y-26850000D01*
X24629341Y-26908810D01*
X24646496Y-26965360D01*
X24651648Y-26974999D01*
X24646495Y-26984639D01*
X24629340Y-27041190D01*
X24623548Y-27100000D01*
X24325000Y-27100000D01*
X24325000Y-24500000D01*
X24623547Y-24500000D01*
X24629339Y-24558810D01*
X24646494Y-24615361D01*
X24651647Y-24625001D01*
X24646495Y-24634640D01*
X24629340Y-24691190D01*
X24623548Y-24750000D01*
X24623548Y-25150000D01*
X24629340Y-25208810D01*
X24646495Y-25265360D01*
X24674352Y-25317477D01*
X24711841Y-25363158D01*
X24757522Y-25400647D01*
X24809639Y-25428504D01*
X24866189Y-25445659D01*
X24924999Y-25451451D01*
X25574999Y-25451451D01*
X25614658Y-25447545D01*
X25665793Y-25481713D01*
X25774986Y-25526942D01*
X25890905Y-25550000D01*
X26009095Y-25550000D01*
X26125014Y-25526942D01*
X26234207Y-25481713D01*
X26332478Y-25416050D01*
X26416050Y-25332478D01*
X26481713Y-25234207D01*
X26523548Y-25133208D01*
X26523548Y-25150000D01*
X26529340Y-25208810D01*
X26546495Y-25265360D01*
X26574352Y-25317477D01*
X26611841Y-25363158D01*
X26657522Y-25400647D01*
X26709639Y-25428504D01*
X26766189Y-25445659D01*
X26824999Y-25451451D01*
X27474999Y-25451451D01*
X27533809Y-25445659D01*
X27590359Y-25428504D01*
X27642476Y-25400647D01*
X27673727Y-25375000D01*
X28769132Y-25375000D01*
X28777507Y-25375825D01*
X28763811Y-25396322D01*
X28688429Y-25578311D01*
X28650000Y-25771509D01*
X28650000Y-25968491D01*
X28688429Y-26161689D01*
X28708592Y-26210366D01*
X28339236Y-26579722D01*
X28323024Y-26593027D01*
X28269914Y-26657741D01*
X28235002Y-26723058D01*
X28230450Y-26731574D01*
X28206147Y-26811687D01*
X28205716Y-26816068D01*
X28134206Y-26768287D01*
X28025013Y-26723058D01*
X27909094Y-26700000D01*
X27790904Y-26700000D01*
X27776451Y-26702875D01*
X27776451Y-26450000D01*
X27770659Y-26391190D01*
X27753504Y-26334640D01*
X27725647Y-26282523D01*
X27724441Y-26281054D01*
X27726943Y-26275014D01*
X27750001Y-26159095D01*
X27750001Y-26040905D01*
X27726943Y-25924986D01*
X27681714Y-25815793D01*
X27616051Y-25717522D01*
X27532479Y-25633950D01*
X27434208Y-25568287D01*
X27325015Y-25523058D01*
X27209096Y-25500000D01*
X27090906Y-25500000D01*
X26974987Y-25523058D01*
X26865794Y-25568287D01*
X26767523Y-25633950D01*
X26683951Y-25717522D01*
X26618288Y-25815793D01*
X26573059Y-25924986D01*
X26550001Y-26040905D01*
X26550001Y-26159095D01*
X26573059Y-26275014D01*
X26575560Y-26281052D01*
X26574353Y-26282523D01*
X26546496Y-26334640D01*
X26529341Y-26391190D01*
X26523549Y-26450000D01*
X26523549Y-26850000D01*
X26529341Y-26908810D01*
X26546496Y-26965360D01*
X26551649Y-26975000D01*
X26546496Y-26984640D01*
X26529341Y-27041190D01*
X26523549Y-27100000D01*
X26523549Y-27500000D01*
X26529341Y-27558810D01*
X26546496Y-27615360D01*
X26551649Y-27625000D01*
X26546496Y-27634640D01*
X26529341Y-27691190D01*
X26523549Y-27750000D01*
X26523549Y-27822507D01*
X26365283Y-27664244D01*
X26351977Y-27648030D01*
X26287263Y-27594919D01*
X26213430Y-27555455D01*
X26140451Y-27533317D01*
X26133314Y-27531152D01*
X26050000Y-27522947D01*
X26029125Y-27525003D01*
X25873990Y-27525002D01*
X25876452Y-27500000D01*
X25875000Y-27475000D01*
X25800000Y-27400000D01*
X25400000Y-27400000D01*
X25400000Y-27448549D01*
X25100000Y-27448549D01*
X25100000Y-27400000D01*
X24700000Y-27400000D01*
X24625000Y-27475000D01*
X24623548Y-27500000D01*
X24629340Y-27558810D01*
X24646495Y-27615361D01*
X24651648Y-27625001D01*
X24646496Y-27634640D01*
X24629341Y-27691190D01*
X24623549Y-27750000D01*
X24623549Y-28150000D01*
X24629341Y-28208810D01*
X24646496Y-28265360D01*
X24674353Y-28317477D01*
X24711842Y-28363158D01*
X24757523Y-28400647D01*
X24809640Y-28428504D01*
X24866190Y-28445659D01*
X24925000Y-28451451D01*
X25575000Y-28451451D01*
X25633810Y-28445659D01*
X25690360Y-28428504D01*
X25742477Y-28400647D01*
X25773728Y-28375001D01*
X25873962Y-28375001D01*
X25925011Y-28426050D01*
X25925012Y-30588369D01*
X25870528Y-30559247D01*
X25870661Y-30558809D01*
X25876453Y-30499999D01*
X25875001Y-30474999D01*
X25800001Y-30399999D01*
X25400001Y-30399999D01*
X25400001Y-30448548D01*
X25100001Y-30448548D01*
X25100001Y-30399999D01*
X24700001Y-30399999D01*
X24625001Y-30474999D01*
X24623549Y-30499999D01*
X24629341Y-30558809D01*
X24646496Y-30615360D01*
X24651649Y-30625000D01*
X24646497Y-30634639D01*
X24629342Y-30691189D01*
X24623550Y-30749999D01*
X24623550Y-31149999D01*
X24629342Y-31208809D01*
X24646497Y-31265359D01*
X24674354Y-31317476D01*
X24711843Y-31363157D01*
X24757524Y-31400646D01*
X24809641Y-31428503D01*
X24866191Y-31445658D01*
X24925001Y-31451450D01*
X25474999Y-31451450D01*
X25474999Y-31543760D01*
X25425017Y-31523057D01*
X25309098Y-31499999D01*
X25190908Y-31499999D01*
X25074989Y-31523057D01*
X24965796Y-31568286D01*
X24867525Y-31633949D01*
X24783953Y-31717521D01*
X24718290Y-31815792D01*
X24673061Y-31924985D01*
X24650003Y-32040904D01*
X24650003Y-32159094D01*
X24673061Y-32275013D01*
X24675563Y-32281052D01*
X24674354Y-32282525D01*
X24646497Y-32334642D01*
X24629342Y-32391192D01*
X24623550Y-32450002D01*
X24623550Y-32850002D01*
X24629342Y-32908812D01*
X24646497Y-32965362D01*
X24651649Y-32975001D01*
X24646496Y-32984641D01*
X24629341Y-33041192D01*
X24623549Y-33100002D01*
X24625001Y-33125002D01*
X24700001Y-33200002D01*
X25100001Y-33200002D01*
X25100001Y-33151453D01*
X25240209Y-33151453D01*
X25249996Y-33152417D01*
X25259784Y-33151453D01*
X25400001Y-33151453D01*
X25400001Y-33200002D01*
X25420001Y-33200002D01*
X25420001Y-33400002D01*
X25400001Y-33400002D01*
X25400001Y-33448551D01*
X25100001Y-33448551D01*
X25100001Y-33400002D01*
X24700001Y-33400002D01*
X24625001Y-33475002D01*
X24623549Y-33500002D01*
X24629341Y-33558812D01*
X24646496Y-33615363D01*
X24651649Y-33625003D01*
X24646497Y-33634642D01*
X24629342Y-33691192D01*
X24623550Y-33750002D01*
X24623550Y-34150002D01*
X24629342Y-34208812D01*
X24646497Y-34265362D01*
X24674354Y-34317479D01*
X24711843Y-34363160D01*
X24757524Y-34400649D01*
X24809641Y-34428506D01*
X24825000Y-34433165D01*
X24825002Y-35649887D01*
X24808951Y-35665938D01*
X24743288Y-35764209D01*
X24698059Y-35873402D01*
X24675001Y-35989321D01*
X24675001Y-36107511D01*
X24698059Y-36223430D01*
X24743288Y-36332623D01*
X24808951Y-36430894D01*
X24892523Y-36514466D01*
X24990794Y-36580129D01*
X25099987Y-36625358D01*
X25215906Y-36648416D01*
X25334096Y-36648416D01*
X25450015Y-36625358D01*
X25475002Y-36615008D01*
X25475005Y-37988514D01*
X25472949Y-38009390D01*
X25481154Y-38092703D01*
X25505456Y-38172816D01*
X25544920Y-38246649D01*
X25584723Y-38295149D01*
X25584726Y-38295152D01*
X25598031Y-38311364D01*
X25614242Y-38324668D01*
X26015809Y-38726237D01*
X26015809Y-38784293D01*
X26038867Y-38900212D01*
X26084096Y-39009405D01*
X26149759Y-39107676D01*
X26233331Y-39191248D01*
X26331602Y-39256911D01*
X26440795Y-39302140D01*
X26556714Y-39325198D01*
X26623546Y-39325198D01*
X26623546Y-39806252D01*
X26633542Y-39907738D01*
X26663144Y-40005324D01*
X26711216Y-40095260D01*
X26775909Y-40174090D01*
X26837501Y-40224636D01*
X26837500Y-40407072D01*
X26829742Y-40411219D01*
X26750912Y-40475912D01*
X26686219Y-40554742D01*
X26638147Y-40644678D01*
X26608545Y-40742264D01*
X26598549Y-40843750D01*
X26598549Y-41356250D01*
X26608545Y-41457736D01*
X26638147Y-41555322D01*
X26686219Y-41645258D01*
X26750912Y-41724088D01*
X26829742Y-41788781D01*
X26919678Y-41836853D01*
X27017264Y-41866455D01*
X27118750Y-41876451D01*
X27556250Y-41876451D01*
X27657736Y-41866455D01*
X27672059Y-41862110D01*
X33600001Y-41862110D01*
X33600001Y-42137886D01*
X33653802Y-42408363D01*
X33759337Y-42663147D01*
X33912550Y-42892446D01*
X34107553Y-43087449D01*
X34336852Y-43240662D01*
X34591636Y-43346197D01*
X34862113Y-43399998D01*
X35137889Y-43399998D01*
X35408366Y-43346197D01*
X35663150Y-43240662D01*
X35892449Y-43087449D01*
X36087452Y-42892446D01*
X36240665Y-42663147D01*
X36346200Y-42408363D01*
X36400001Y-42137886D01*
X36400001Y-41862110D01*
X36346200Y-41591633D01*
X36240665Y-41336849D01*
X36087452Y-41107550D01*
X35892449Y-40912547D01*
X35663150Y-40759334D01*
X35408366Y-40653799D01*
X35137889Y-40599998D01*
X34862113Y-40599998D01*
X34591636Y-40653799D01*
X34336852Y-40759334D01*
X34107553Y-40912547D01*
X33912550Y-41107550D01*
X33759337Y-41336849D01*
X33653802Y-41591633D01*
X33600001Y-41862110D01*
X27672059Y-41862110D01*
X27755322Y-41836853D01*
X27845258Y-41788781D01*
X27924088Y-41724088D01*
X27988781Y-41645258D01*
X28012972Y-41600000D01*
X28775439Y-41600000D01*
X28799999Y-41602419D01*
X28824557Y-41600000D01*
X28824559Y-41600000D01*
X28898016Y-41592765D01*
X28992266Y-41564175D01*
X29079128Y-41517746D01*
X29155263Y-41455264D01*
X29170924Y-41436181D01*
X30642087Y-39965016D01*
X36157915Y-39965020D01*
X37100001Y-40907107D01*
X37100000Y-41511441D01*
X37097581Y-41536002D01*
X37107235Y-41634019D01*
X37111020Y-41646497D01*
X37135825Y-41728268D01*
X37182254Y-41815131D01*
X37244736Y-41891266D01*
X37263824Y-41906931D01*
X37943078Y-42586187D01*
X37958734Y-42605264D01*
X38034869Y-42667746D01*
X38121731Y-42714175D01*
X38198628Y-42737501D01*
X38215981Y-42742765D01*
X38313998Y-42752419D01*
X38338558Y-42750000D01*
X38875526Y-42750000D01*
X38906842Y-42788159D01*
X38952523Y-42825648D01*
X39004640Y-42853505D01*
X39061190Y-42870660D01*
X39120000Y-42876452D01*
X40180000Y-42876452D01*
X40238810Y-42870660D01*
X40295360Y-42853505D01*
X40347477Y-42825648D01*
X40393158Y-42788159D01*
X40430647Y-42742478D01*
X40458504Y-42690361D01*
X40475659Y-42633811D01*
X40481451Y-42575001D01*
X40481451Y-41925001D01*
X40475659Y-41866191D01*
X40458504Y-41809641D01*
X40430647Y-41757524D01*
X40393158Y-41711843D01*
X40347477Y-41674354D01*
X40295360Y-41646497D01*
X40238810Y-41629342D01*
X40180000Y-41623550D01*
X39120000Y-41623550D01*
X39061190Y-41629342D01*
X39004640Y-41646497D01*
X38952523Y-41674354D01*
X38906842Y-41711843D01*
X38875528Y-41750000D01*
X38521105Y-41750000D01*
X38100000Y-41328897D01*
X38100000Y-40724560D01*
X38102419Y-40700000D01*
X38092765Y-40601983D01*
X38081907Y-40566190D01*
X38064175Y-40507733D01*
X38017746Y-40420871D01*
X37955264Y-40344736D01*
X37936187Y-40329080D01*
X37632108Y-40025001D01*
X38818549Y-40025001D01*
X38818549Y-40675001D01*
X38824341Y-40733811D01*
X38841496Y-40790361D01*
X38869353Y-40842478D01*
X38906842Y-40888159D01*
X38952523Y-40925648D01*
X39004640Y-40953505D01*
X39061190Y-40970660D01*
X39120000Y-40976452D01*
X40180000Y-40976452D01*
X40238810Y-40970660D01*
X40295360Y-40953505D01*
X40347477Y-40925648D01*
X40393158Y-40888159D01*
X40430647Y-40842478D01*
X40458504Y-40790361D01*
X40475659Y-40733811D01*
X40481451Y-40675001D01*
X40481451Y-40025001D01*
X40475659Y-39966191D01*
X40458504Y-39909641D01*
X40430647Y-39857524D01*
X40393158Y-39811843D01*
X40347477Y-39774354D01*
X40295360Y-39746497D01*
X40238810Y-39729342D01*
X40180000Y-39723550D01*
X39120000Y-39723550D01*
X39061190Y-39729342D01*
X39004640Y-39746497D01*
X38952523Y-39774354D01*
X38906842Y-39811843D01*
X38869353Y-39857524D01*
X38841496Y-39909641D01*
X38824341Y-39966191D01*
X38818549Y-40025001D01*
X37632108Y-40025001D01*
X36972115Y-39365009D01*
X40857905Y-39365010D01*
X41231303Y-39738409D01*
X41204640Y-39746497D01*
X41152523Y-39774354D01*
X41106842Y-39811843D01*
X41069353Y-39857524D01*
X41041496Y-39909641D01*
X41024341Y-39966191D01*
X41018549Y-40025001D01*
X41018549Y-40675001D01*
X41024341Y-40733811D01*
X41041496Y-40790361D01*
X41060011Y-40825000D01*
X41041495Y-40859640D01*
X41024340Y-40916191D01*
X41018548Y-40975001D01*
X41020000Y-41075001D01*
X41095000Y-41150001D01*
X41700000Y-41150001D01*
X41700000Y-41130001D01*
X42000000Y-41130001D01*
X42000000Y-41150001D01*
X42605000Y-41150001D01*
X42680000Y-41075001D01*
X42681452Y-40975001D01*
X42675660Y-40916191D01*
X42661106Y-40868214D01*
X42862500Y-41069609D01*
X42862501Y-41187938D01*
X42862498Y-41512937D01*
X42862498Y-41544575D01*
X42854743Y-41548720D01*
X42775913Y-41613413D01*
X42711220Y-41692243D01*
X42687029Y-41737500D01*
X42659373Y-41737500D01*
X42675660Y-41683811D01*
X42681452Y-41625001D01*
X42680000Y-41525001D01*
X42605000Y-41450001D01*
X42000000Y-41450001D01*
X42000000Y-41470001D01*
X41700000Y-41470001D01*
X41700000Y-41450001D01*
X41095000Y-41450001D01*
X41020000Y-41525001D01*
X41018548Y-41625001D01*
X41024340Y-41683811D01*
X41041495Y-41740362D01*
X41060011Y-41775002D01*
X41041496Y-41809641D01*
X41024341Y-41866191D01*
X41018549Y-41925001D01*
X41018549Y-42575001D01*
X41024341Y-42633811D01*
X41041496Y-42690361D01*
X41069353Y-42742478D01*
X41106842Y-42788159D01*
X41152523Y-42825648D01*
X41204640Y-42853505D01*
X41261190Y-42870660D01*
X41320000Y-42876452D01*
X42380000Y-42876452D01*
X42438810Y-42870660D01*
X42495360Y-42853505D01*
X42547477Y-42825648D01*
X42593158Y-42788159D01*
X42630647Y-42742478D01*
X42633308Y-42737499D01*
X42687028Y-42737499D01*
X42711220Y-42782759D01*
X42775913Y-42861589D01*
X42854743Y-42926282D01*
X42944679Y-42974354D01*
X43042265Y-43003956D01*
X43143751Y-43013952D01*
X43581251Y-43013952D01*
X43682737Y-43003956D01*
X43780323Y-42974354D01*
X43870259Y-42926282D01*
X43949089Y-42861589D01*
X44013782Y-42782759D01*
X44058063Y-42699915D01*
X44141631Y-42655247D01*
X44199156Y-42608038D01*
X44198549Y-42712501D01*
X44204341Y-42771311D01*
X44221496Y-42827862D01*
X44249353Y-42879979D01*
X44286842Y-42925660D01*
X44332523Y-42963149D01*
X44384640Y-42991006D01*
X44441191Y-43008161D01*
X44500001Y-43013953D01*
X44712501Y-43012501D01*
X44787501Y-42937501D01*
X44787501Y-42387501D01*
X44767501Y-42387501D01*
X44767501Y-42087501D01*
X44787501Y-42087501D01*
X44787501Y-41537501D01*
X44712501Y-41462501D01*
X44600002Y-41461732D01*
X44600001Y-41007106D01*
X44786187Y-40820917D01*
X44805260Y-40805264D01*
X44820916Y-40786187D01*
X44820919Y-40786184D01*
X44867745Y-40729126D01*
X44914173Y-40642265D01*
X44942762Y-40548014D01*
X44952415Y-40449996D01*
X44949996Y-40425439D01*
X44949997Y-40041451D01*
X45300000Y-40041451D01*
X45358810Y-40035659D01*
X45415360Y-40018504D01*
X45467477Y-39990647D01*
X45513158Y-39953158D01*
X45550647Y-39907477D01*
X45578504Y-39855360D01*
X45595659Y-39798810D01*
X45601451Y-39740000D01*
X45601451Y-38040000D01*
X45595659Y-37981190D01*
X45578504Y-37924640D01*
X45550647Y-37872523D01*
X45513158Y-37826842D01*
X45467477Y-37789353D01*
X45415360Y-37761496D01*
X45358810Y-37744341D01*
X45300000Y-37738549D01*
X43600000Y-37738549D01*
X43541190Y-37744341D01*
X43484640Y-37761496D01*
X43432523Y-37789353D01*
X43386842Y-37826842D01*
X43349353Y-37872523D01*
X43321496Y-37924640D01*
X43304341Y-37981190D01*
X43298549Y-38040000D01*
X43298549Y-39740000D01*
X43304341Y-39798810D01*
X43321496Y-39855360D01*
X43349353Y-39907477D01*
X43386842Y-39953158D01*
X43432523Y-39990647D01*
X43484640Y-40018504D01*
X43541190Y-40035659D01*
X43600000Y-40041451D01*
X43949998Y-40041451D01*
X43949997Y-40242896D01*
X43763816Y-40429082D01*
X43744737Y-40444739D01*
X43703232Y-40495313D01*
X43698684Y-40491581D01*
X43220922Y-40013817D01*
X43205265Y-39994739D01*
X43144106Y-39944547D01*
X43129130Y-39932257D01*
X43042269Y-39885828D01*
X42948018Y-39857238D01*
X42850001Y-39847583D01*
X42825432Y-39850003D01*
X42624474Y-39850002D01*
X42593158Y-39811843D01*
X42547477Y-39774354D01*
X42495360Y-39746497D01*
X42438810Y-39729342D01*
X42380000Y-39723550D01*
X42350000Y-39723550D01*
X42350000Y-39674560D01*
X42352419Y-39650000D01*
X42342765Y-39551983D01*
X42342180Y-39550054D01*
X42314175Y-39457733D01*
X42267746Y-39370871D01*
X42205264Y-39294736D01*
X42186187Y-39279080D01*
X41435931Y-38528824D01*
X41420275Y-38509747D01*
X41393701Y-38487938D01*
X41344140Y-38447265D01*
X41257279Y-38400836D01*
X41163028Y-38372246D01*
X41065011Y-38362591D01*
X41040441Y-38365011D01*
X39625000Y-38365011D01*
X39625000Y-36658989D01*
X39650000Y-36661451D01*
X41050000Y-36661451D01*
X41108810Y-36655659D01*
X41165360Y-36638504D01*
X41217477Y-36610647D01*
X41263158Y-36573158D01*
X41300647Y-36527477D01*
X41328504Y-36475360D01*
X41345659Y-36418810D01*
X41351451Y-36360000D01*
X41351451Y-36236735D01*
X43300000Y-36236735D01*
X43300000Y-36463265D01*
X43344194Y-36685443D01*
X43430884Y-36894729D01*
X43556737Y-37083082D01*
X43716918Y-37243263D01*
X43905271Y-37369116D01*
X44114557Y-37455806D01*
X44336735Y-37500000D01*
X44563265Y-37500000D01*
X44785443Y-37455806D01*
X44994729Y-37369116D01*
X45183082Y-37243263D01*
X45343263Y-37083082D01*
X45469116Y-36894729D01*
X45555806Y-36685443D01*
X45600000Y-36463265D01*
X45600000Y-36236735D01*
X45555806Y-36014557D01*
X45469116Y-35805271D01*
X45343263Y-35616918D01*
X45183082Y-35456737D01*
X44994729Y-35330884D01*
X44785443Y-35244194D01*
X44563265Y-35200000D01*
X44336735Y-35200000D01*
X44114557Y-35244194D01*
X43905271Y-35330884D01*
X43716918Y-35456737D01*
X43556737Y-35616918D01*
X43430884Y-35805271D01*
X43344194Y-36014557D01*
X43300000Y-36236735D01*
X41351451Y-36236735D01*
X41351451Y-34966191D01*
X41366189Y-34970662D01*
X41424999Y-34976454D01*
X41674999Y-34975002D01*
X41749999Y-34900002D01*
X41749999Y-34387502D01*
X42049999Y-34387502D01*
X42049999Y-34900002D01*
X42124999Y-34975002D01*
X42374999Y-34976454D01*
X42433809Y-34970662D01*
X42490360Y-34953507D01*
X42542477Y-34925650D01*
X42588158Y-34888161D01*
X42625647Y-34842480D01*
X42653504Y-34790363D01*
X42670659Y-34733812D01*
X42676451Y-34675002D01*
X42674999Y-34462502D01*
X42599999Y-34387502D01*
X42049999Y-34387502D01*
X41749999Y-34387502D01*
X41729999Y-34387502D01*
X41729999Y-34087502D01*
X41749999Y-34087502D01*
X41749999Y-33575002D01*
X42049999Y-33575002D01*
X42049999Y-34087502D01*
X42599999Y-34087502D01*
X42674999Y-34012502D01*
X42676451Y-33800002D01*
X42670659Y-33741192D01*
X42657173Y-33696735D01*
X43300000Y-33696735D01*
X43300000Y-33923265D01*
X43344194Y-34145443D01*
X43430884Y-34354729D01*
X43556737Y-34543082D01*
X43716918Y-34703263D01*
X43905271Y-34829116D01*
X44114557Y-34915806D01*
X44336735Y-34960000D01*
X44563265Y-34960000D01*
X44785443Y-34915806D01*
X44994729Y-34829116D01*
X45183082Y-34703263D01*
X45343263Y-34543082D01*
X45469116Y-34354729D01*
X45555806Y-34145443D01*
X45600000Y-33923265D01*
X45600000Y-33696735D01*
X45555806Y-33474557D01*
X45469116Y-33265271D01*
X45343263Y-33076918D01*
X45183082Y-32916737D01*
X44994729Y-32790884D01*
X44785443Y-32704194D01*
X44563265Y-32660000D01*
X44336735Y-32660000D01*
X44114557Y-32704194D01*
X43905271Y-32790884D01*
X43716918Y-32916737D01*
X43556737Y-33076918D01*
X43430884Y-33265271D01*
X43344194Y-33474557D01*
X43300000Y-33696735D01*
X42657173Y-33696735D01*
X42653504Y-33684641D01*
X42625647Y-33632524D01*
X42588158Y-33586843D01*
X42542477Y-33549354D01*
X42490360Y-33521497D01*
X42433809Y-33504342D01*
X42374999Y-33498550D01*
X42124999Y-33500002D01*
X42049999Y-33575002D01*
X41749999Y-33575002D01*
X41674999Y-33500002D01*
X41424999Y-33498550D01*
X41366189Y-33504342D01*
X41309638Y-33521497D01*
X41288562Y-33532762D01*
X41236189Y-33406322D01*
X41126751Y-33242537D01*
X40987463Y-33103249D01*
X40963890Y-33087498D01*
X41166980Y-33087497D01*
X41211218Y-33170260D01*
X41275911Y-33249090D01*
X41354741Y-33313783D01*
X41444677Y-33361855D01*
X41542263Y-33391457D01*
X41643749Y-33401453D01*
X42156249Y-33401453D01*
X42257735Y-33391457D01*
X42355321Y-33361855D01*
X42445257Y-33313783D01*
X42524087Y-33249090D01*
X42588780Y-33170260D01*
X42636852Y-33080324D01*
X42666454Y-32982738D01*
X42676450Y-32881252D01*
X42676450Y-32443752D01*
X42666454Y-32342266D01*
X42636852Y-32244680D01*
X42588780Y-32154744D01*
X42524087Y-32075914D01*
X42445257Y-32011221D01*
X42355321Y-31963149D01*
X42325000Y-31953951D01*
X42325000Y-31946050D01*
X42355321Y-31936852D01*
X42445257Y-31888780D01*
X42524087Y-31824087D01*
X42588780Y-31745257D01*
X42636852Y-31655321D01*
X42666454Y-31557735D01*
X42676450Y-31456249D01*
X42676450Y-31156735D01*
X43300000Y-31156735D01*
X43300000Y-31383265D01*
X43344194Y-31605443D01*
X43430884Y-31814729D01*
X43556737Y-32003082D01*
X43716918Y-32163263D01*
X43905271Y-32289116D01*
X44114557Y-32375806D01*
X44336735Y-32420000D01*
X44563265Y-32420000D01*
X44785443Y-32375806D01*
X44994729Y-32289116D01*
X45183082Y-32163263D01*
X45343263Y-32003082D01*
X45469116Y-31814729D01*
X45555806Y-31605443D01*
X45600000Y-31383265D01*
X45600000Y-31156735D01*
X45555806Y-30934557D01*
X45469116Y-30725271D01*
X45343263Y-30536918D01*
X45183082Y-30376737D01*
X44994729Y-30250884D01*
X44785443Y-30164194D01*
X44563265Y-30120000D01*
X44336735Y-30120000D01*
X44114557Y-30164194D01*
X43905271Y-30250884D01*
X43716918Y-30376737D01*
X43556737Y-30536918D01*
X43430884Y-30725271D01*
X43344194Y-30934557D01*
X43300000Y-31156735D01*
X42676450Y-31156735D01*
X42676450Y-31018749D01*
X42666454Y-30917263D01*
X42636852Y-30819677D01*
X42588780Y-30729741D01*
X42524087Y-30650911D01*
X42445257Y-30586218D01*
X42355321Y-30538146D01*
X42257735Y-30508544D01*
X42156249Y-30498548D01*
X41643749Y-30498548D01*
X41542263Y-30508544D01*
X41444677Y-30538146D01*
X41354741Y-30586218D01*
X41305323Y-30626774D01*
X41311571Y-30611689D01*
X41350000Y-30418491D01*
X41350000Y-30390748D01*
X41366189Y-30395659D01*
X41424999Y-30401451D01*
X41674999Y-30399999D01*
X41749999Y-30324999D01*
X41749999Y-29812499D01*
X42049999Y-29812499D01*
X42049999Y-30324999D01*
X42124999Y-30399999D01*
X42374999Y-30401451D01*
X42433809Y-30395659D01*
X42490360Y-30378504D01*
X42542477Y-30350647D01*
X42588158Y-30313158D01*
X42625647Y-30267477D01*
X42653504Y-30215360D01*
X42670659Y-30158809D01*
X42676451Y-30099999D01*
X42674999Y-29887499D01*
X42599999Y-29812499D01*
X42049999Y-29812499D01*
X41749999Y-29812499D01*
X41213589Y-29812499D01*
X41126751Y-29682537D01*
X40987463Y-29543249D01*
X40850001Y-29451399D01*
X40850001Y-29408601D01*
X40987463Y-29316751D01*
X41126751Y-29177463D01*
X41128484Y-29174869D01*
X41123547Y-29224999D01*
X41124999Y-29437499D01*
X41199999Y-29512499D01*
X41749999Y-29512499D01*
X41749999Y-28999999D01*
X42049999Y-28999999D01*
X42049999Y-29512499D01*
X42599999Y-29512499D01*
X42674999Y-29437499D01*
X42676451Y-29224999D01*
X42670659Y-29166189D01*
X42653504Y-29109638D01*
X42625647Y-29057521D01*
X42588158Y-29011840D01*
X42542477Y-28974351D01*
X42490360Y-28946494D01*
X42433809Y-28929339D01*
X42374999Y-28923547D01*
X42124999Y-28924999D01*
X42049999Y-28999999D01*
X41749999Y-28999999D01*
X41674999Y-28924999D01*
X41424999Y-28923547D01*
X41366189Y-28929339D01*
X41309638Y-28946494D01*
X41257521Y-28974351D01*
X41249882Y-28980620D01*
X41294711Y-28872393D01*
X41550367Y-28616735D01*
X43300000Y-28616735D01*
X43300000Y-28843265D01*
X43344194Y-29065443D01*
X43430884Y-29274729D01*
X43556737Y-29463082D01*
X43716918Y-29623263D01*
X43905271Y-29749116D01*
X44114557Y-29835806D01*
X44336735Y-29880000D01*
X44563265Y-29880000D01*
X44785443Y-29835806D01*
X44994729Y-29749116D01*
X45183082Y-29623263D01*
X45343263Y-29463082D01*
X45469116Y-29274729D01*
X45555806Y-29065443D01*
X45600000Y-28843265D01*
X45600000Y-28616735D01*
X45555806Y-28394557D01*
X45469116Y-28185271D01*
X45343263Y-27996918D01*
X45183082Y-27836737D01*
X44994729Y-27710884D01*
X44785443Y-27624194D01*
X44563265Y-27580000D01*
X44336735Y-27580000D01*
X44114557Y-27624194D01*
X43905271Y-27710884D01*
X43716918Y-27836737D01*
X43556737Y-27996918D01*
X43430884Y-28185271D01*
X43344194Y-28394557D01*
X43300000Y-28616735D01*
X41550367Y-28616735D01*
X41786190Y-28380912D01*
X41805261Y-28365261D01*
X41820912Y-28346190D01*
X41820918Y-28346184D01*
X41867744Y-28289126D01*
X41914172Y-28202265D01*
X41942763Y-28108014D01*
X41952417Y-28009997D01*
X41949997Y-27985430D01*
X41950001Y-22908566D01*
X42850000Y-23808566D01*
X42850002Y-24994124D01*
X42847946Y-25015000D01*
X42856151Y-25098313D01*
X42880453Y-25178426D01*
X42880454Y-25178427D01*
X42919918Y-25252260D01*
X42973028Y-25316974D01*
X42989245Y-25330283D01*
X43393788Y-25734828D01*
X43344194Y-25854557D01*
X43300000Y-26076735D01*
X43300000Y-26303265D01*
X43344194Y-26525443D01*
X43430884Y-26734729D01*
X43556737Y-26923082D01*
X43716918Y-27083263D01*
X43905271Y-27209116D01*
X44114557Y-27295806D01*
X44336735Y-27340000D01*
X44563265Y-27340000D01*
X44785443Y-27295806D01*
X44994729Y-27209116D01*
X45183082Y-27083263D01*
X45343263Y-26923082D01*
X45469116Y-26734729D01*
X45555806Y-26525443D01*
X45600000Y-26303265D01*
X45600000Y-26076735D01*
X45555806Y-25854557D01*
X45469116Y-25645271D01*
X45343263Y-25456918D01*
X45183082Y-25296737D01*
X44994729Y-25170884D01*
X44785443Y-25084194D01*
X44563265Y-25040000D01*
X44336735Y-25040000D01*
X44114557Y-25084194D01*
X43994828Y-25133788D01*
X43700001Y-24838960D01*
X43700000Y-24517778D01*
X43726361Y-24543791D01*
X43914635Y-24667792D01*
X44123483Y-24752680D01*
X44300000Y-24715183D01*
X44300000Y-23800000D01*
X44600000Y-23800000D01*
X44600000Y-24715183D01*
X44776517Y-24752680D01*
X44985365Y-24667792D01*
X45173639Y-24543791D01*
X45334104Y-24385442D01*
X45460594Y-24198831D01*
X45548247Y-23991128D01*
X45552672Y-23976516D01*
X45514483Y-23800000D01*
X44600000Y-23800000D01*
X44300000Y-23800000D01*
X44280000Y-23800000D01*
X44280000Y-23500000D01*
X44300000Y-23500000D01*
X44300000Y-22584817D01*
X44600000Y-22584817D01*
X44600000Y-23500000D01*
X45514483Y-23500000D01*
X45552672Y-23323484D01*
X45548247Y-23308872D01*
X45460594Y-23101169D01*
X45334104Y-22914558D01*
X45173639Y-22756209D01*
X44985365Y-22632208D01*
X44776517Y-22547320D01*
X44600000Y-22584817D01*
X44300000Y-22584817D01*
X44123483Y-22547320D01*
X43914635Y-22632208D01*
X43726361Y-22756209D01*
X43565896Y-22914558D01*
X43439406Y-23101169D01*
X43411296Y-23167780D01*
X41599989Y-21356473D01*
X41599990Y-20261215D01*
X41617263Y-20266455D01*
X41718749Y-20276451D01*
X42156249Y-20276451D01*
X42257735Y-20266455D01*
X42355321Y-20236853D01*
X42445257Y-20188781D01*
X42524087Y-20124088D01*
X42588780Y-20045258D01*
X42636852Y-19955322D01*
X42646050Y-19925001D01*
X42663960Y-19925001D01*
X43393788Y-20654828D01*
X43344194Y-20774557D01*
X43300000Y-20996735D01*
X43300000Y-21223265D01*
X43344194Y-21445443D01*
X43430884Y-21654729D01*
X43556737Y-21843082D01*
X43716918Y-22003263D01*
X43905271Y-22129116D01*
X44114557Y-22215806D01*
X44336735Y-22260000D01*
X44563265Y-22260000D01*
X44785443Y-22215806D01*
X44994729Y-22129116D01*
X45183082Y-22003263D01*
X45343263Y-21843082D01*
X45469116Y-21654729D01*
X45555806Y-21445443D01*
X45600000Y-21223265D01*
X45600000Y-20996735D01*
X45555806Y-20774557D01*
X45469116Y-20565271D01*
X45343263Y-20376918D01*
X45183082Y-20216737D01*
X44994729Y-20090884D01*
X44785443Y-20004194D01*
X44563265Y-19960000D01*
X44336735Y-19960000D01*
X44114557Y-20004194D01*
X43994828Y-20053788D01*
X43155279Y-19214240D01*
X43141974Y-19198028D01*
X43122731Y-19182235D01*
X43094188Y-19158811D01*
X43077260Y-19144918D01*
X43003427Y-19105454D01*
X43003420Y-19105452D01*
X42923314Y-19081151D01*
X42840000Y-19072946D01*
X42819124Y-19075002D01*
X42646050Y-19075002D01*
X42636852Y-19044678D01*
X42588780Y-18954742D01*
X42524087Y-18875912D01*
X42445257Y-18811219D01*
X42355321Y-18763147D01*
X42257735Y-18733545D01*
X42156249Y-18723549D01*
X41718749Y-18723549D01*
X41617263Y-18733545D01*
X41519677Y-18763147D01*
X41516574Y-18764805D01*
X41515444Y-18763428D01*
X41490270Y-18732753D01*
X41490265Y-18732748D01*
X41476965Y-18716542D01*
X41460757Y-18703240D01*
X41171743Y-18414229D01*
X41158439Y-18398018D01*
X41142227Y-18384713D01*
X41142224Y-18384710D01*
X41119946Y-18366427D01*
X41093725Y-18344908D01*
X41019892Y-18305444D01*
X41019890Y-18305443D01*
X40939777Y-18281141D01*
X40856464Y-18272936D01*
X40835588Y-18274992D01*
X38778408Y-18274990D01*
X38757533Y-18272934D01*
X38674219Y-18281140D01*
X38625615Y-18295884D01*
X38594108Y-18305442D01*
X38520275Y-18344906D01*
X38512943Y-18350923D01*
X38471773Y-18384710D01*
X38471767Y-18384716D01*
X38455561Y-18398016D01*
X38442260Y-18414223D01*
X38436417Y-18420066D01*
X37051506Y-19804983D01*
X31146852Y-19804981D01*
X31164442Y-19762514D01*
X31187500Y-19646595D01*
X31187500Y-19528405D01*
X31164442Y-19412486D01*
X31119213Y-19303293D01*
X31087500Y-19255831D01*
X31087500Y-17992930D01*
X31095259Y-17988783D01*
X31174089Y-17924090D01*
X31224950Y-17862114D01*
X33599999Y-17862114D01*
X33599999Y-18137890D01*
X33653800Y-18408367D01*
X33759335Y-18663151D01*
X33912548Y-18892450D01*
X34107551Y-19087453D01*
X34336850Y-19240666D01*
X34591634Y-19346201D01*
X34862111Y-19400002D01*
X35137887Y-19400002D01*
X35408364Y-19346201D01*
X35663148Y-19240666D01*
X35892447Y-19087453D01*
X36087450Y-18892450D01*
X36240663Y-18663151D01*
X36346198Y-18408367D01*
X36399999Y-18137890D01*
X36399999Y-17862114D01*
X36346198Y-17591637D01*
X36240663Y-17336853D01*
X36087450Y-17107554D01*
X35892447Y-16912551D01*
X35663148Y-16759338D01*
X35408364Y-16653803D01*
X35137887Y-16600002D01*
X34862111Y-16600002D01*
X34591634Y-16653803D01*
X34336850Y-16759338D01*
X34107551Y-16912551D01*
X33912548Y-17107554D01*
X33759335Y-17336853D01*
X33653800Y-17591637D01*
X33599999Y-17862114D01*
X31224950Y-17862114D01*
X31238782Y-17845260D01*
X31286854Y-17755324D01*
X31316456Y-17657738D01*
X31326452Y-17556252D01*
X31326452Y-17043752D01*
X31316456Y-16942266D01*
X31286854Y-16844680D01*
X31238782Y-16754744D01*
X31174089Y-16675914D01*
X31095259Y-16611221D01*
X31005323Y-16563149D01*
X30907737Y-16533547D01*
X30806251Y-16523551D01*
X30368751Y-16523551D01*
X30267265Y-16533547D01*
X30169679Y-16563149D01*
X30079743Y-16611221D01*
X30000913Y-16675914D01*
X29936220Y-16754744D01*
X29888148Y-16844680D01*
X29858546Y-16942266D01*
X29848550Y-17043752D01*
X29848550Y-17556252D01*
X29858546Y-17657738D01*
X29888148Y-17755324D01*
X29936220Y-17845260D01*
X30000913Y-17924090D01*
X30079743Y-17988783D01*
X30087500Y-17992929D01*
X30087501Y-19255830D01*
X30085499Y-19258826D01*
X30061229Y-19222503D01*
X29977657Y-19138931D01*
X29879386Y-19073268D01*
X29770193Y-19028039D01*
X29654274Y-19004981D01*
X29596220Y-19004981D01*
X28905477Y-18314238D01*
X28892172Y-18298026D01*
X28827458Y-18244916D01*
X28753625Y-18205452D01*
X28697815Y-18188522D01*
X28673513Y-18181150D01*
X28665100Y-18180321D01*
X28611072Y-18175000D01*
X28611066Y-18175000D01*
X28590199Y-18172945D01*
X28569332Y-18175000D01*
X28151450Y-18175001D01*
X28151450Y-18100001D01*
X28145658Y-18041191D01*
X28128503Y-17984641D01*
X28109988Y-17950001D01*
X28128503Y-17915361D01*
X28145658Y-17858811D01*
X28151450Y-17800001D01*
X28151450Y-17725000D01*
X28303949Y-17725000D01*
X28313148Y-17755324D01*
X28361220Y-17845260D01*
X28425913Y-17924090D01*
X28504743Y-17988783D01*
X28594679Y-18036855D01*
X28692265Y-18066457D01*
X28793751Y-18076453D01*
X29231251Y-18076453D01*
X29332737Y-18066457D01*
X29430323Y-18036855D01*
X29520259Y-17988783D01*
X29599089Y-17924090D01*
X29663782Y-17845260D01*
X29711854Y-17755324D01*
X29741456Y-17657738D01*
X29751452Y-17556252D01*
X29751452Y-17043752D01*
X29741456Y-16942266D01*
X29711854Y-16844680D01*
X29663782Y-16754744D01*
X29599089Y-16675914D01*
X29520259Y-16611221D01*
X29430323Y-16563149D01*
X29332737Y-16533547D01*
X29231251Y-16523551D01*
X28793751Y-16523551D01*
X28692265Y-16533547D01*
X28594679Y-16563149D01*
X28504743Y-16611221D01*
X28425913Y-16675914D01*
X28361220Y-16754744D01*
X28313148Y-16844680D01*
X28303951Y-16875000D01*
X28151450Y-16875000D01*
X28151450Y-16800001D01*
X28145658Y-16741191D01*
X28128503Y-16684641D01*
X28100646Y-16632524D01*
X28063157Y-16586843D01*
X28017476Y-16549354D01*
X27965359Y-16521497D01*
X27908809Y-16504342D01*
X27849999Y-16498550D01*
X26349999Y-16498550D01*
X26291189Y-16504342D01*
X26234639Y-16521497D01*
X26182522Y-16549354D01*
X26136841Y-16586843D01*
X26099352Y-16632524D01*
X26071495Y-16684641D01*
X26054340Y-16741191D01*
X26048548Y-16800001D01*
X26048548Y-17800001D01*
X26054340Y-17858811D01*
X26071495Y-17915361D01*
X26090010Y-17950001D01*
X26071495Y-17984641D01*
X26054340Y-18041191D01*
X26048548Y-18100001D01*
X26048548Y-19100001D01*
X26054340Y-19158811D01*
X26071495Y-19215361D01*
X26075711Y-19223249D01*
X25648745Y-19650216D01*
X25632477Y-19633948D01*
X25534206Y-19568285D01*
X25425013Y-19523056D01*
X25309094Y-19499998D01*
X25190904Y-19499998D01*
X25074985Y-19523056D01*
X24965792Y-19568285D01*
X24867521Y-19633948D01*
X24783949Y-19717520D01*
X24718286Y-19815791D01*
X24673057Y-19924984D01*
X24649999Y-20040903D01*
X24649999Y-20159093D01*
X24673057Y-20275012D01*
X24675559Y-20281053D01*
X24674353Y-20282523D01*
X24646496Y-20334640D01*
X24629341Y-20391190D01*
X24623549Y-20450000D01*
X24623549Y-20850000D01*
X24629341Y-20908810D01*
X24646496Y-20965360D01*
X24651648Y-20974999D01*
X24646495Y-20984639D01*
X24629340Y-21041190D01*
X24623548Y-21100000D01*
X24625000Y-21125000D01*
X24700000Y-21200000D01*
X25100000Y-21200000D01*
X25100000Y-21151451D01*
X25240185Y-21151451D01*
X25250004Y-21152418D01*
X25259822Y-21151451D01*
X25400000Y-21151451D01*
X25400000Y-21200000D01*
X25420000Y-21200000D01*
X25420000Y-21400000D01*
X25400000Y-21400000D01*
X25400000Y-21448549D01*
X25100000Y-21448549D01*
X25100000Y-21400000D01*
X24700000Y-21400000D01*
X24625000Y-21475000D01*
X24623548Y-21500000D01*
X24629340Y-21558810D01*
X24646495Y-21615361D01*
X24651648Y-21625001D01*
X24646496Y-21634640D01*
X24629341Y-21691190D01*
X24623549Y-21750000D01*
X24623549Y-22150000D01*
X24629341Y-22208810D01*
X24646496Y-22265360D01*
X24674353Y-22317477D01*
X24711842Y-22363158D01*
X24757523Y-22400647D01*
X24809640Y-22428504D01*
X24866190Y-22445659D01*
X24925000Y-22451451D01*
X25575000Y-22451451D01*
X25633810Y-22445659D01*
X25690360Y-22428504D01*
X25742477Y-22400647D01*
X25779571Y-22370205D01*
X25793318Y-22368851D01*
X25793321Y-22368850D01*
X25793322Y-22368850D01*
X25812085Y-22363158D01*
X25873431Y-22344549D01*
X25947264Y-22305085D01*
X26011978Y-22251975D01*
X26025285Y-22235760D01*
X26215764Y-22045279D01*
X26231973Y-22031976D01*
X26245278Y-22015764D01*
X26245283Y-22015759D01*
X26264155Y-21992763D01*
X26285083Y-21967262D01*
X26324547Y-21893429D01*
X26324549Y-21893426D01*
X26348851Y-21813313D01*
X26357055Y-21729998D01*
X26354999Y-21709124D01*
X26355001Y-20146039D01*
X26572318Y-19928723D01*
X26550003Y-20040908D01*
X26550003Y-20159098D01*
X26573061Y-20275017D01*
X26575561Y-20281052D01*
X26574353Y-20282523D01*
X26546496Y-20334640D01*
X26529341Y-20391190D01*
X26523549Y-20450000D01*
X26523549Y-20850000D01*
X26529341Y-20908810D01*
X26546496Y-20965360D01*
X26551648Y-20974999D01*
X26546495Y-20984639D01*
X26529340Y-21041190D01*
X26523548Y-21100000D01*
X26525000Y-21125000D01*
X26600000Y-21200000D01*
X27000000Y-21200000D01*
X27000000Y-21151451D01*
X27140180Y-21151451D01*
X27149998Y-21152418D01*
X27159817Y-21151451D01*
X27300000Y-21151451D01*
X27300000Y-21200000D01*
X27700000Y-21200000D01*
X27775000Y-21125000D01*
X27776452Y-21100000D01*
X27770660Y-21041190D01*
X27753505Y-20984639D01*
X27748352Y-20974999D01*
X27753504Y-20965360D01*
X27770659Y-20908810D01*
X27776451Y-20850000D01*
X27776451Y-20600001D01*
X28206890Y-20599999D01*
X28698067Y-21091176D01*
X28713723Y-21110254D01*
X28789858Y-21172736D01*
X28876720Y-21219165D01*
X28970970Y-21247755D01*
X29044427Y-21254990D01*
X29044436Y-21254990D01*
X29068986Y-21257408D01*
X29093536Y-21254990D01*
X30375001Y-21254990D01*
X30375001Y-21620787D01*
X30287463Y-21533249D01*
X30123678Y-21423811D01*
X29941689Y-21348429D01*
X29748491Y-21310000D01*
X29551509Y-21310000D01*
X29358311Y-21348429D01*
X29176322Y-21423811D01*
X29012537Y-21533249D01*
X28873249Y-21672537D01*
X28763811Y-21836322D01*
X28743648Y-21885000D01*
X28586042Y-21885000D01*
X28365281Y-21664238D01*
X28351974Y-21648024D01*
X28335763Y-21634720D01*
X28287263Y-21594917D01*
X28287261Y-21594916D01*
X28287260Y-21594915D01*
X28257989Y-21579270D01*
X28213430Y-21555452D01*
X28133317Y-21531149D01*
X28108077Y-21528663D01*
X28070874Y-21524999D01*
X28070870Y-21524999D01*
X28050003Y-21522944D01*
X28029135Y-21524999D01*
X27773990Y-21525000D01*
X27776452Y-21500000D01*
X27775000Y-21475000D01*
X27700000Y-21400000D01*
X27300000Y-21400000D01*
X27300000Y-21448549D01*
X27000000Y-21448549D01*
X27000000Y-21400000D01*
X26600000Y-21400000D01*
X26525000Y-21475000D01*
X26523548Y-21500000D01*
X26529340Y-21558810D01*
X26546495Y-21615361D01*
X26551648Y-21625001D01*
X26546496Y-21634640D01*
X26529341Y-21691190D01*
X26523549Y-21750000D01*
X26523549Y-22150000D01*
X26529341Y-22208810D01*
X26546496Y-22265360D01*
X26574353Y-22317477D01*
X26611842Y-22363158D01*
X26657523Y-22400647D01*
X26709640Y-22428504D01*
X26766190Y-22445659D01*
X26825000Y-22451451D01*
X27475000Y-22451451D01*
X27533810Y-22445659D01*
X27590360Y-22428504D01*
X27642477Y-22400647D01*
X27673729Y-22375000D01*
X27873961Y-22374999D01*
X28094719Y-22595760D01*
X28108026Y-22611974D01*
X28172740Y-22665084D01*
X28246573Y-22704548D01*
X28326686Y-22728850D01*
X28389126Y-22735000D01*
X28389134Y-22735000D01*
X28409998Y-22737055D01*
X28430865Y-22735000D01*
X28743648Y-22735000D01*
X28763811Y-22783678D01*
X28873249Y-22947463D01*
X29012537Y-23086751D01*
X29176322Y-23196189D01*
X29185523Y-23200000D01*
X29176322Y-23203811D01*
X29012537Y-23313249D01*
X28873249Y-23452537D01*
X28763811Y-23616322D01*
X28688429Y-23798311D01*
X28650000Y-23991509D01*
X28650000Y-24188491D01*
X28688429Y-24381689D01*
X28708593Y-24430368D01*
X28613960Y-24525000D01*
X28406235Y-24525000D01*
X28426941Y-24475011D01*
X28449999Y-24359092D01*
X28449999Y-24240902D01*
X28426941Y-24124983D01*
X28381712Y-24015790D01*
X28316049Y-23917519D01*
X28232477Y-23833947D01*
X28134206Y-23768284D01*
X28025013Y-23723055D01*
X27909094Y-23699997D01*
X27790904Y-23699997D01*
X27776450Y-23702872D01*
X27776450Y-23450000D01*
X27770658Y-23391190D01*
X27753503Y-23334640D01*
X27732750Y-23295814D01*
X27750000Y-23209095D01*
X27750000Y-23090905D01*
X27726942Y-22974986D01*
X27681713Y-22865793D01*
X27616050Y-22767522D01*
X27532478Y-22683950D01*
X27434207Y-22618287D01*
X27325014Y-22573058D01*
X27209095Y-22550000D01*
X27090905Y-22550000D01*
X26974986Y-22573058D01*
X26865793Y-22618287D01*
X26767522Y-22683950D01*
X26683950Y-22767522D01*
X26618287Y-22865793D01*
X26573058Y-22974986D01*
X26550000Y-23090905D01*
X26550000Y-23209095D01*
X26567249Y-23295811D01*
X26546495Y-23334640D01*
X26529340Y-23391190D01*
X26523548Y-23450000D01*
X26523548Y-23850000D01*
X26529340Y-23908810D01*
X26546495Y-23965360D01*
X26551648Y-23975000D01*
X26546495Y-23984640D01*
X26529340Y-24041190D01*
X26523548Y-24100000D01*
X26523548Y-24500000D01*
X26529340Y-24558810D01*
X26546495Y-24615360D01*
X26551648Y-24625000D01*
X26546495Y-24634640D01*
X26529340Y-24691190D01*
X26523548Y-24750000D01*
X26523548Y-24766792D01*
X26481713Y-24665793D01*
X26416050Y-24567522D01*
X26332478Y-24483950D01*
X26234207Y-24418287D01*
X26125014Y-24373058D01*
X26009095Y-24350000D01*
X25890905Y-24350000D01*
X25774986Y-24373058D01*
X25709942Y-24400000D01*
X25399999Y-24400000D01*
X25399999Y-24448549D01*
X25099999Y-24448549D01*
X25099999Y-24400000D01*
X24699999Y-24400000D01*
X24624999Y-24475000D01*
X24623547Y-24500000D01*
X24325000Y-24500000D01*
X24325000Y-24100000D01*
X24623547Y-24100000D01*
X24624999Y-24125000D01*
X24699999Y-24200000D01*
X25099999Y-24200000D01*
X25099999Y-24151451D01*
X25240141Y-24151451D01*
X25250000Y-24152422D01*
X25259858Y-24151451D01*
X25399999Y-24151451D01*
X25399999Y-24200000D01*
X25799999Y-24200000D01*
X25874999Y-24125000D01*
X25876451Y-24100000D01*
X25870659Y-24041190D01*
X25853504Y-23984639D01*
X25848351Y-23974999D01*
X25853503Y-23965360D01*
X25870658Y-23908810D01*
X25876450Y-23850000D01*
X25876450Y-23450000D01*
X25870658Y-23391190D01*
X25853503Y-23334640D01*
X25825646Y-23282523D01*
X25824440Y-23281054D01*
X25826942Y-23275014D01*
X25850000Y-23159095D01*
X25850000Y-23040905D01*
X25826942Y-22924986D01*
X25781713Y-22815793D01*
X25716050Y-22717522D01*
X25632478Y-22633950D01*
X25534207Y-22568287D01*
X25425014Y-22523058D01*
X25309095Y-22500000D01*
X25190905Y-22500000D01*
X25074986Y-22523058D01*
X24965793Y-22568287D01*
X24867522Y-22633950D01*
X24783950Y-22717522D01*
X24718287Y-22815793D01*
X24673058Y-22924986D01*
X24650000Y-23040905D01*
X24650000Y-23159095D01*
X24673058Y-23275014D01*
X24675559Y-23281052D01*
X24674352Y-23282523D01*
X24646495Y-23334640D01*
X24629340Y-23391190D01*
X24623548Y-23450000D01*
X24623548Y-23850000D01*
X24629340Y-23908810D01*
X24646495Y-23965360D01*
X24651647Y-23974999D01*
X24646494Y-23984639D01*
X24629339Y-24041190D01*
X24623547Y-24100000D01*
X24325000Y-24100000D01*
X24325000Y-17015897D01*
X24339384Y-16869195D01*
X24377373Y-16743371D01*
X24439076Y-16627325D01*
X24522148Y-16525468D01*
X24623418Y-16441690D01*
X24739027Y-16379181D01*
X24864586Y-16340314D01*
X25010285Y-16325000D01*
X44984103Y-16325000D01*
X45130805Y-16339384D01*
G36*
X39711218Y-20045258D02*
G01*
X39775911Y-20124088D01*
X39854741Y-20188781D01*
X39900000Y-20212973D01*
X39900003Y-21475432D01*
X39897583Y-21499999D01*
X39907237Y-21598015D01*
X39935828Y-21692266D01*
X39982256Y-21779127D01*
X40027690Y-21834488D01*
X40044739Y-21855263D01*
X40063815Y-21870918D01*
X40392295Y-22199400D01*
X40239124Y-22201298D01*
X40046417Y-22242119D01*
X39887341Y-22308010D01*
X39807182Y-22445050D01*
X40350000Y-22987868D01*
X40364143Y-22973726D01*
X40576275Y-23185858D01*
X40562132Y-23200000D01*
X40576275Y-23214143D01*
X40364143Y-23426275D01*
X40350000Y-23412132D01*
X39807182Y-23954950D01*
X39886049Y-24089782D01*
X39876322Y-24093811D01*
X39712537Y-24203249D01*
X39625000Y-24290786D01*
X39625000Y-23712868D01*
X40137868Y-23200000D01*
X39625000Y-22687132D01*
X39625000Y-21195961D01*
X39626572Y-21180000D01*
X39620297Y-21116289D01*
X39601713Y-21055026D01*
X39571535Y-20998566D01*
X39530921Y-20949079D01*
X39481434Y-20908465D01*
X39424974Y-20878287D01*
X39363711Y-20859703D01*
X39315961Y-20855000D01*
X39300000Y-20853428D01*
X39284040Y-20855000D01*
X38052105Y-20855000D01*
X38907107Y-20000000D01*
X39687027Y-20000000D01*
X39711218Y-20045258D01*
G37*
X39711218Y-20045258D02*
X39775911Y-20124088D01*
X39854741Y-20188781D01*
X39900000Y-20212973D01*
X39900003Y-21475432D01*
X39897583Y-21499999D01*
X39907237Y-21598015D01*
X39935828Y-21692266D01*
X39982256Y-21779127D01*
X40027690Y-21834488D01*
X40044739Y-21855263D01*
X40063815Y-21870918D01*
X40392295Y-22199400D01*
X40239124Y-22201298D01*
X40046417Y-22242119D01*
X39887341Y-22308010D01*
X39807182Y-22445050D01*
X40350000Y-22987868D01*
X40364143Y-22973726D01*
X40576275Y-23185858D01*
X40562132Y-23200000D01*
X40576275Y-23214143D01*
X40364143Y-23426275D01*
X40350000Y-23412132D01*
X39807182Y-23954950D01*
X39886049Y-24089782D01*
X39876322Y-24093811D01*
X39712537Y-24203249D01*
X39625000Y-24290786D01*
X39625000Y-23712868D01*
X40137868Y-23200000D01*
X39625000Y-22687132D01*
X39625000Y-21195961D01*
X39626572Y-21180000D01*
X39620297Y-21116289D01*
X39601713Y-21055026D01*
X39571535Y-20998566D01*
X39530921Y-20949079D01*
X39481434Y-20908465D01*
X39424974Y-20878287D01*
X39363711Y-20859703D01*
X39315961Y-20855000D01*
X39300000Y-20853428D01*
X39284040Y-20855000D01*
X38052105Y-20855000D01*
X38907107Y-20000000D01*
X39687027Y-20000000D01*
X39711218Y-20045258D01*
%TD*%
M02*
